<svg width="127" height="61" viewBox="0 0 127 61" fill="none" xmlns="http://www.w3.org/2000/svg">
<g clip-path="url(#clip0_353_922)">
<path d="M16.6168 40.0614V61C14.7845 61 13.2989 59.2861 13.2989 57.1823V45.5615L9.97674 53.3728H6.65164L3.31787 45.7407V61H3.3092C1.48119 61 0 59.2994 0 57.2005V43.7995C0 41.7006 1.48119 40 3.3092 40H4.96958L8.27879 47.6421L10.7368 42.3394C11.2498 40.9258 12.4565 40 13.7903 40C13.7903 40 16.4376 40.0183 16.6125 40.0514L16.6168 40.0614Z" fill="#4D99CF"/>
<path d="M50.8237 51.8054V51.7444C52.9436 50.8163 54.0109 48.9585 54.0109 46.1825C54.0109 45.0582 53.7672 44.013 53.2847 43.0833C52.7877 42.1552 52.0989 41.4216 51.2054 40.8809C50.3087 40.3402 49.2837 40.0781 48.1157 40.0781H39.126V60.905H42.8639V53.9847H47.0484C49.5599 53.9847 50.3315 55.8838 50.3315 57.2372V60.943H54.0694V57.4663C54.0694 53.3418 51.9998 52.1598 50.8269 51.8054H50.8221H50.8237ZM50.1577 47.493C50.1577 49.1398 48.8419 50.4751 47.2141 50.4751H42.859V43.5548H47.2141C48.8419 43.5548 50.1577 44.89 50.1577 46.5319V47.493Z" fill="#4D99CF"/>
<path d="M71.3796 60.8549H67.2681L61.5435 52.0966L59.6624 53.9066V60.8698H55.9375V40H59.6624V46.9022L64.9776 40.0049H69.7876L63.7641 48.9315L71.3796 60.8549Z" fill="#4D99CF"/>
<path d="M95.2646 60.8762H110.114V57.1094H98.9765V52.1772H108.358V48.7005H98.9765V43.7765H110.114V40.0625H95.2646V60.8762Z" fill="#F7FCFF"/>
<path d="M126.131 45.1544C125.362 43.4696 124.272 42.1953 122.861 41.3134C121.454 40.4463 119.799 40.0078 117.895 40.0078H112.128V60.8726H118.015C119.914 60.8726 121.556 60.416 122.953 59.4962C124.347 58.5813 125.414 57.2658 126.163 55.553C127.105 53.2385 127.451 48.1843 126.136 45.156H126.131V45.1544ZM122.23 55.4112C121.223 56.5915 119.904 57.1899 118.302 57.1899H115.833V43.8521H117.479C119.548 43.8521 121.116 44.4735 122.174 45.7099C123.221 46.9463 123.756 47.2084 123.756 49.9795C123.756 52.4159 123.251 54.221 122.234 55.4063L122.229 55.4112H122.23Z" fill="#F7FCFF"/>
<path d="M93.3805 40.0589V60.8759C91.3288 60.8759 89.6605 59.178 89.6605 57.091V44.5675L85.9632 52.8H82.201L78.4436 44.5593V57.1405H74.7236V43.7729C74.7236 41.6926 76.3838 40.0078 78.4339 40.0078H80.2955L84.0074 49.0431L86.7674 42.3239C87.3424 40.9194 88.694 40.0095 90.1885 40.0095C90.1885 40.0095 93.1775 40.0276 93.3805 40.0606V40.0589Z" fill="#F7FCFF"/>
<path d="M32.5933 60.9245H37.1921L29.7846 40.0547L26.0467 40.0679L18.5742 60.9179H23.1909L24.1753 57.128H31.6478L32.59 60.9179L32.5949 60.9228L32.5933 60.9245ZM25.0282 53.9613L27.884 45.7568H27.9392L30.7122 53.9613H25.0282Z" fill="#4D99CF"/>
<path d="M82.201 53.3439H78.4664V45.6719H74.7285V53.3439H71.6924V57.1338H74.7285V61.0027H78.4664V57.1338H82.201V53.3439Z" fill="url(#paint0_linear_353_922)"/>
</g>
<g clip-path="url(#clip1_353_922)">
<path d="M76.9937 0H51.0063C49.8983 0 49 0.898251 49 2.0063V27.9937C49 29.1017 49.8983 30 51.0063 30H76.9937C78.1017 30 79 29.1017 79 27.9937V2.0063C79 0.898251 78.1017 0 76.9937 0Z" fill="#4D99CF"/>
<path d="M75.8553 1.46875H52.1458C51.2212 1.46875 50.4717 2.21828 50.4717 3.14288V26.8523C50.4717 27.7769 51.2212 28.5265 52.1458 28.5265H75.8553C76.7799 28.5265 77.5294 27.7769 77.5294 26.8523V3.14288C77.5294 2.21828 76.7799 1.46875 75.8553 1.46875Z" fill="#0B3E51"/>
<path d="M71.4167 7.28205V22.6637C69.8769 22.6607 68.6279 21.4073 68.6279 19.8675V10.6111L65.8554 16.695H63.0357L60.2204 10.6037V19.9H57.4316V10.0235C57.4316 8.48671 58.6762 7.24219 60.213 7.24219H61.6081L64.3895 13.9195L66.4578 8.9547C66.8889 7.91834 67.9031 7.24219 69.0236 7.24219C69.0236 7.24219 71.2646 7.25547 71.4152 7.28057L71.4167 7.28205Z" fill="white"/>
<path d="M63.0353 17.0987H60.2333V11.4297H57.4313V17.0987H55.1533V19.9007H57.4313V22.7574H60.2333V19.9007H63.0353V17.0987Z" fill="url(#paint1_linear_353_922)"/>
</g>
<defs>
<linearGradient id="paint0_linear_353_922" x1="76.9459" y1="46.5175" x2="76.9459" y2="52.9021" gradientUnits="userSpaceOnUse">
<stop stop-color="#F7FCFF"/>
<stop offset="1" stop-color="#4D99CF"/>
</linearGradient>
<linearGradient id="paint1_linear_353_922" x1="59.0936" y1="12.0542" x2="59.0936" y2="16.7739" gradientUnits="userSpaceOnUse">
<stop stop-color="white"/>
<stop offset="1" stop-color="#4D99CF"/>
</linearGradient>
<clipPath id="clip0_353_922">
<rect width="127" height="21" fill="white" transform="translate(0 40)"/>
</clipPath>
<clipPath id="clip1_353_922">
<rect width="30" height="30" fill="white" transform="translate(49)"/>
</clipPath>
</defs>
</svg>
