<svg width="17" height="11" viewBox="0 0 17 11" fill="none" xmlns="http://www.w3.org/2000/svg">
<path d="M16.9666 1.47736C16.867 1.00626 16.5948 0.688785 16.1299 0.555649C15.6219 0.408858 15.2003 0.569304 14.8417 0.941402C13.4505 2.37518 12.0626 3.81237 10.6747 5.24955C9.97745 5.96644 9.27355 6.67991 8.50325 7.46849L2.14824 0.934575C1.61699 0.388375 0.859969 0.357651 0.368567 0.83899C-0.122834 1.32033 -0.129474 2.13621 0.388489 2.67217C2.78573 5.15055 5.19293 7.62552 7.60345 10.0902C8.12806 10.6262 8.86516 10.6399 9.3798 10.1107C11.8036 7.63576 14.2174 5.15397 16.6247 2.66535C16.9401 2.33763 17.0662 1.9348 16.9666 1.47736Z" fill="#F7FCFF"/>
</svg>
