<svg width="30" height="30" viewBox="0 0 30 30" fill="none" xmlns="http://www.w3.org/2000/svg">
<path d="M14.9949 30C11.5345 29.9984 8.18102 28.8006 5.50269 26.6096C2.82436 24.4185 0.985877 21.3688 0.298749 17.9773C-0.388379 14.5858 0.118104 11.0611 1.73238 8.00027C3.34666 4.93947 5.96946 2.53087 9.15637 1.18257C12.8215 -0.365785 16.9516 -0.39476 20.6381 1.10202C24.3245 2.5988 27.2654 5.49872 28.8138 9.16384C30.3621 12.829 30.3911 16.959 28.8943 20.6455C27.3976 24.332 24.4976 27.2729 20.8325 28.8213C18.9858 29.6029 17.0002 30.0038 14.9949 30ZM10.5966 13.3878C10.5484 13.3878 10.5007 13.3974 10.4562 13.4158C10.4117 13.4343 10.3712 13.4614 10.3372 13.4955C10.3031 13.5296 10.2761 13.5701 10.2578 13.6147C10.2394 13.6593 10.23 13.707 10.2301 13.7552V16.7227C10.2301 16.82 10.2687 16.9133 10.3374 16.9821C10.4061 17.051 10.4994 17.0898 10.5966 17.09H12.948V24.5753C12.9483 24.6726 12.9871 24.7658 13.056 24.8345C13.1248 24.9032 13.2181 24.9418 13.3154 24.9418H16.3852C16.4334 24.9419 16.4812 24.9325 16.5258 24.9142C16.5703 24.8958 16.6108 24.8688 16.645 24.8348C16.6791 24.8007 16.7062 24.7603 16.7246 24.7158C16.7431 24.6712 16.7526 24.6235 16.7526 24.5753V17.09H19.5015C19.599 17.0898 19.6924 17.0511 19.7614 16.9822C19.8303 16.9134 19.8693 16.8201 19.8698 16.7227V13.7526C19.8691 13.6552 19.8301 13.5619 19.7612 13.493C19.6922 13.4241 19.599 13.3851 19.5015 13.3844H16.7483V11.6499C16.7483 10.8162 16.9471 10.392 18.0329 10.392H19.6134C19.7106 10.3911 19.8036 10.352 19.8721 10.2831C19.9407 10.2142 19.9794 10.121 19.9799 10.0238V7.27058C19.9794 7.17352 19.9407 7.08055 19.872 7.01191C19.8034 6.94328 19.7104 6.90452 19.6134 6.90406H17.274C16.6876 6.87083 16.1008 6.96377 15.5533 7.1766C15.0059 7.38943 14.5104 7.71721 14.1004 8.13782C13.6904 8.55844 13.3754 9.06209 13.1766 9.61482C12.9778 10.1675 12.8999 10.7565 12.948 11.3419V13.3878H10.5966Z" fill="#F9893D"/>
</svg>
