<svg width="30" height="30" viewBox="0 0 30 30" fill="none" xmlns="http://www.w3.org/2000/svg">
<path fill-rule="evenodd" clip-rule="evenodd" d="M15.0365 4.43113e-05C12.0697 -0.00716517 9.16753 0.865517 6.69679 2.50773C4.22606 4.14995 2.29779 6.48795 1.15581 9.22607C0.0138385 11.9642 -0.290545 14.9794 0.281153 17.8906C0.852852 20.8017 2.27496 23.4779 4.36763 25.5808C6.4603 27.6836 9.12956 29.1188 12.0379 29.7046C14.9461 30.2905 17.9629 30.0008 20.7065 28.8721C23.4501 27.7435 25.7975 25.8266 27.4517 23.3639C29.1059 20.9012 29.9927 18.0032 30 15.0365C30.0048 13.0667 29.6215 11.1152 28.8721 9.2935C28.1227 7.47178 27.0219 5.8155 25.6324 4.41924C24.2429 3.02297 22.592 1.91405 20.7739 1.15581C18.9559 0.397559 17.0063 0.00483125 15.0365 4.43113e-05ZM11.2956 22.2811H7.48171V9.12413H11.2956V22.2811ZM9.47076 8.31209C9.2479 8.31089 9.02745 8.26581 8.82201 8.17942C8.61657 8.09303 8.43015 7.96701 8.27341 7.80858C8.11667 7.65014 7.99267 7.46238 7.90849 7.25602C7.82432 7.04967 7.78161 6.82875 7.78281 6.60588C7.77793 6.14524 7.95563 5.70141 8.27707 5.37142C8.59851 5.04144 9.03753 4.85214 9.49814 4.84493C9.97124 4.84464 10.426 5.02811 10.7664 5.35664C11.1069 5.68516 11.3064 6.13307 11.323 6.60588C11.3254 6.83747 11.2818 7.06723 11.1949 7.28188C11.1079 7.49653 10.9793 7.69181 10.8164 7.85642C10.6534 8.02103 10.4595 8.1517 10.2458 8.24088C10.032 8.33006 9.80273 8.37597 9.57113 8.37595H9.49814L9.47076 8.31209ZM24.3886 22.3176H20.6478V14.1515C20.6478 13.2391 20.3467 12.5365 19.2244 12.5365C18.7119 12.5013 18.2027 12.6422 17.7812 12.9359C17.3598 13.2296 17.0513 13.6585 16.9069 14.1515V22.3632H13.166V9.12413H16.9069V10.4015C17.9912 9.598 19.2985 9.1516 20.6478 9.12413C21.843 9.12413 24.3886 9.86318 24.3886 14.2792V22.3176Z" fill="#F9893D"/>
</svg>
