<svg width="244" height="47" viewBox="0 0 244 47" fill="none" xmlns="http://www.w3.org/2000/svg">
<path d="M29.7725 46.6092H42.5383V17.3545L29.7725 30.3739V46.6092Z" fill="url(#paint0_linear_121_1920)"/>
<path d="M0 46.6092H12.7659V30.3739L0 17.3545V46.6092Z" fill="url(#paint1_linear_121_1920)"/>
<path d="M21.2689 30.3574H17.0288V46.6083H25.5089V30.3574H21.2689Z" fill="url(#paint2_linear_121_1920)"/>
<path d="M29.726 26.5283L42.5377 13.5322L42.53 0.03125L25.5165 17.3619H17.0288L0.0152552 0.03125L0 13.5322L12.8116 26.5283H29.726Z" fill="url(#paint3_linear_121_1920)"/>
<path d="M177.844 32.9988C175.419 30.917 165.856 30.0159 163.995 28.4778C160.678 23.9645 172.666 23.7315 172.727 28.2214L179.095 26.9785C177.463 21.5253 173.871 19.9639 167.801 19.9406C159.504 18.9463 152.778 28.1515 160.091 33.4882C162.493 35.1195 168.022 36.3313 171.637 37.2091C177.852 41.2874 163.141 44.1383 162.897 37.2713L156.125 38.3511C157.826 47.3388 171.4 48.6594 177.028 43.913C180.285 41.2408 181.253 35.6245 177.844 32.9988Z" fill="#E8E8E8"/>
<path d="M209.355 32.6883C208.921 15.7694 183.229 16.0645 183.282 33.0379C182.55 51.5338 210.347 50.858 209.355 32.6883ZM201.005 38.3124C194.302 44.0376 185.601 34.9644 191.64 28.4547C198.389 22.7374 206.976 31.795 201.005 38.3124Z" fill="#E8E8E8"/>
<path d="M222.518 21.4088C222.335 17.8122 225.835 18.3482 228.283 18.9075L229.191 14.1611C217.805 11.2481 215.166 15.4739 215.96 26.5979H212.688V33.2707H215.96V46.6241H222.51V33.2707H225.782V26.5979H222.51C222.51 26.4348 222.51 21.6807 222.518 21.4166V21.4088Z" fill="#E8E8E8"/>
<path d="M243.428 39.9286C237.693 42.43 239.012 37.505 238.883 33.2481H242.17V26.5908H238.883C238.883 24.0429 238.898 15.6533 238.837 13.2529L232.355 19.9257V26.5986H229.083V33.2558H232.355C231.897 43.3932 232.752 49.1028 244 45.5605L243.428 39.9364V39.9286Z" fill="#E8E8E8"/>
<path d="M71.2415 13.2988L65.4458 35.3137L59.6424 13.2988H49.0957V46.6085H55.6464V19.9639L62.1742 46.6085H68.7249L75.2604 19.9639V46.6085H81.8111V13.2988H71.2491H71.2415Z" fill="#E8E8E8"/>
<path d="M107.618 42.8648C106.649 38.4292 108.304 27.7946 106.474 23.794C102.6 17.5252 88.0038 18.4263 86.0057 26.443L91.6261 28.5637C92.4802 23.8484 101.41 23.9183 100.793 29.0841C98.9775 30.094 91.2829 31.1038 88.9799 32.4477C77.396 41.1325 93.3572 52.0234 101.326 43.5251C101.54 44.2553 101.997 45.9643 102.203 46.4226H108.815C108.235 45.1641 107.831 43.9679 107.618 42.857V42.8648ZM100.793 35.0966C102.31 41.5908 92.6175 45.5525 91.6261 38.5302C91.4888 34.6383 98.3979 34.8092 100.793 33.6673V35.0966Z" fill="#E8E8E8"/>
<path d="M123.105 20.0186C120.474 20.2361 119.536 20.842 117.805 23.4909V20.0186H117.797L111.27 26.6681V46.6166H117.82C118.507 40.876 114.793 21.5023 125.439 27.2429C125.927 25.8291 127.002 22.7452 127.505 21.3081C126.094 20.4458 124.63 20.0263 123.105 20.0263V20.0186Z" fill="#E8E8E8"/>
<path d="M142.362 31.6707L153.816 20.0029H144.436L137.451 27.1496V0L130.9 6.66505V46.6087H137.451V36.6578L137.741 36.3781L147.777 46.6087H157.08L142.362 31.6707Z" fill="#E8E8E8"/>
<defs>
<linearGradient id="paint0_linear_121_1920" x1="36.1554" y1="46.4694" x2="36.1554" y2="22.6757" gradientUnits="userSpaceOnUse">
<stop stop-color="#F96B31"/>
<stop offset="1" stop-color="#F9893D"/>
</linearGradient>
<linearGradient id="paint1_linear_121_1920" x1="6.38294" y1="46.4694" x2="6.38294" y2="22.6757" gradientUnits="userSpaceOnUse">
<stop stop-color="#F96B31"/>
<stop offset="1" stop-color="#F9893D"/>
</linearGradient>
<linearGradient id="paint2_linear_121_1920" x1="21.2688" y1="46.4685" x2="21.2688" y2="22.6748" gradientUnits="userSpaceOnUse">
<stop stop-color="#F96B31"/>
<stop offset="1" stop-color="#F9893D"/>
</linearGradient>
<linearGradient id="paint3_linear_121_1920" x1="21.2688" y1="46.4691" x2="21.2688" y2="22.6753" gradientUnits="userSpaceOnUse">
<stop stop-color="#F96B31"/>
<stop offset="1" stop-color="#F9893D"/>
</linearGradient>
</defs>
</svg>
