<svg width="30" height="30" viewBox="0 0 30 30" fill="none" xmlns="http://www.w3.org/2000/svg">
<path d="M15.0002 6.5625C11.7044 6.5625 9.73657 8.62266 9.73657 12.0731C9.73657 14.0367 12.3456 18.5733 14.9992 22.1953C17.6369 18.5611 20.2638 14.0808 20.2638 12.0731C20.2638 8.62266 18.2959 6.5625 15.0002 6.5625ZM14.9945 14.4342C13.7177 14.4342 12.6827 13.3992 12.6827 12.1223C12.6827 10.8455 13.7177 9.81047 14.9945 9.81047C16.2714 9.81047 17.3064 10.8455 17.3064 12.1223C17.3064 13.3992 16.2714 14.4342 14.9945 14.4342Z" fill="#F9893D"/>
<path d="M15 0C6.71578 0 0 6.71578 0 15C0 23.2842 6.71578 30 15 30C23.2842 30 30 23.2842 30 15C30 6.71578 23.2842 0 15 0ZM15.8784 24.1594L15 25.3125L14.1267 24.1594C13.4841 23.3194 7.86141 15.8128 7.86141 12.0731C7.86141 7.58672 10.6617 4.6875 15 4.6875C19.3383 4.6875 22.1386 7.58672 22.1386 12.0731C22.1386 15.8072 16.5155 23.3138 15.8784 24.1594Z" fill="#F9893D"/>
</svg>
