<svg width="30" height="30" viewBox="0 0 30 30" fill="none" xmlns="http://www.w3.org/2000/svg">
<path d="M4.44444 25.5556C3.04274 24.1728 1.92843 22.5264 1.16568 20.7112C0.402919 18.8961 0.00678583 16.9479 8.64217e-05 14.979C-0.00661299 13.01 0.376254 11.0592 1.12664 9.23888C1.87703 7.41853 2.98011 5.76461 4.37236 4.37236C5.76461 2.98011 7.41853 1.87703 9.23888 1.12664C11.0592 0.376254 13.01 -0.00661299 14.979 8.64217e-05C16.9479 0.00678583 18.8961 0.402919 20.7112 1.16568C22.5264 1.92843 24.1728 3.04274 25.5556 4.44444C26.9573 5.82718 28.0716 7.47356 28.8343 9.28875C29.5971 11.104 29.9932 13.0521 29.9999 15.021C30.0066 16.99 29.6237 18.9408 28.8734 20.7611C28.123 22.5815 27.0199 24.2354 25.6276 25.6276C24.2354 27.0199 22.5815 28.123 20.7611 28.8734C18.9408 29.6237 16.99 30.0066 15.021 29.9999C13.0521 29.9932 11.104 29.5971 9.28875 28.8343C7.47356 28.0716 5.82718 26.9573 4.44444 25.5556ZM5.98076 11.1592V19.0583C5.98076 19.7397 6.25143 20.3931 6.73323 20.8749C7.21503 21.3567 7.86849 21.6274 8.54985 21.6274H21.9708C22.6522 21.6274 23.3056 21.3567 23.7874 20.8749C24.2692 20.3931 24.5399 19.7397 24.5399 19.0583V11.1592C24.5399 10.4778 24.2692 9.82437 23.7874 9.34257C23.3056 8.86077 22.6522 8.5901 21.9708 8.5901H8.54985C7.86849 8.5901 7.21503 8.86077 6.73323 9.34257C6.25143 9.82437 5.98076 10.4778 5.98076 11.1592ZM12.8248 12.5294L17.7224 15.0719L12.8009 17.6958C12.8068 15.9608 12.8154 14.2575 12.8231 12.526L12.8248 12.5294Z" fill="#F9893D"/>
</svg>
