<svg width="70" height="70" viewBox="0 0 70 70" fill="none" xmlns="http://www.w3.org/2000/svg">
<path d="M32.8125 54.6875V65.625C32.8125 66.8277 31.8277 67.8125 30.625 67.8125H17.5C16.2973 67.8125 15.3125 66.8277 15.3125 65.625V61.25L3.74054 49.678C2.88712 48.8246 2.1875 47.1402 2.1875 45.9375V19.6875C2.1875 17.281 4.15604 15.3125 6.5625 15.3125C8.96896 15.3125 10.9375 17.281 10.9375 19.6875V32.0253C10.303 32.397 9.69101 32.8563 9.1655 33.4031C7.48108 35.0438 6.5625 37.2313 6.5625 39.5715C6.54114 41.9128 7.45972 44.1217 9.10034 45.7623L14.5253 51.2973C15.3563 52.1496 16.7566 52.1496 17.6089 51.2973L19.146 49.7603L12.2278 42.6989C10.4996 40.9729 10.4996 38.215 12.2278 36.5103C13.0812 35.6558 14.1974 35.2179 15.3125 35.2179C16.4276 35.2179 17.5438 35.6558 18.3972 36.5103L29.6519 47.2876C31.3908 48.9517 32.8125 52.2821 32.8125 54.6875ZM40.3491 47.2876L51.6028 36.5103C52.4573 35.6558 53.5724 35.2179 54.6875 35.2179C55.8026 35.2179 56.9177 35.6558 57.7722 36.5103C59.5004 38.215 59.5004 40.9729 57.7722 42.6989L50.8551 49.7603L52.3911 51.2973C53.2434 52.1496 54.6448 52.1496 55.4736 51.2973L60.8997 45.7623C62.5403 44.1217 63.4589 41.9128 63.4375 39.5715C63.4375 37.2313 62.5189 35.0438 60.8356 33.4031C60.3101 32.8563 59.697 32.397 59.0625 32.0253V19.6875C59.0625 17.281 61.0321 15.3125 63.4375 15.3125C65.8429 15.3125 67.8125 17.281 67.8125 19.6875V45.9375C67.8125 47.1402 67.1118 48.8246 66.2595 49.678L54.6875 61.25V65.625C54.6875 66.8277 53.7027 67.8125 52.5 67.8125H39.375C38.1723 67.8125 37.1875 66.8277 37.1875 65.625V54.6875C37.1875 52.2821 38.6102 48.9517 40.3491 47.2876ZM50.6393 4.5213C48.6911 2.9939 46.2003 2.1864 43.4402 2.1864C40.2402 2.1864 37.1683 3.27267 35 5.07565C32.8317 3.27267 29.7588 2.1864 26.5587 2.1864C23.7976 2.1864 21.3089 2.9939 19.3607 4.52237C13.8513 8.84396 14.7229 16.1328 17.375 21.5129C20.2066 27.2572 27.6076 34.9893 33.8742 38.7491C34.2213 38.9573 34.6101 39.0609 35 39.0609C35.3899 39.0609 35.7787 38.9573 36.1258 38.7491C42.3892 34.9914 49.7891 27.2604 52.6239 21.5139C55.2771 16.1328 56.1487 8.84396 50.6393 4.5213ZM41.5625 21.875H37.1875V26.25C37.1875 27.458 36.208 28.4375 35 28.4375C33.792 28.4375 32.8125 27.458 32.8125 26.25V21.875H28.4375C27.2295 21.875 26.25 20.8955 26.25 19.6875C26.25 18.4794 27.2295 17.5 28.4375 17.5H32.8125V13.125C32.8125 11.9169 33.792 10.9375 35 10.9375C36.208 10.9375 37.1875 11.9169 37.1875 13.125V17.5H41.5625C42.7716 17.5 43.75 18.4794 43.75 19.6875C43.75 20.8955 42.7716 21.875 41.5625 21.875Z" fill="#F9893D"/>
</svg>
