<svg width="84" height="84" viewBox="0 0 84 84" fill="none" xmlns="http://www.w3.org/2000/svg">
<circle cx="42" cy="42" r="42" fill="#1A1A1A"/>
<g clip-path="url(#clip0_1373_2464)">
<path fill-rule="evenodd" clip-rule="evenodd" d="M60.3265 47.2806H69.2251C69.9356 47.282 70.6166 47.5563 71.119 48.0435C71.6214 48.5306 71.9043 49.1909 71.9058 49.8799V65.7356C71.9043 66.4246 71.6214 67.085 71.119 67.5721C70.6166 68.0593 69.9356 68.3336 69.2251 68.335H68.2871V69.3885C68.2855 70.0774 68.0025 70.7376 67.5001 71.2246C66.9977 71.7117 66.3168 71.9859 65.6064 71.9874H39.1502C38.4397 71.9859 37.7587 71.7115 37.2563 71.2244C36.754 70.7372 36.4711 70.0769 36.4695 69.3879V67.2686H14.4912C14.274 67.2686 14.0658 67.1849 13.9123 67.036C13.7587 66.8872 13.6724 66.6852 13.6724 66.4747V63.2996C13.6724 63.089 13.7587 62.8871 13.9123 62.7382C14.0658 62.5893 14.274 62.5056 14.4912 62.5056H18.0502V60.1267C18.0502 60.0224 18.0713 59.9192 18.1125 59.8228C18.1536 59.7265 18.2139 59.639 18.2899 59.5652C18.3659 59.4915 18.4562 59.433 18.5555 59.3931C18.6548 59.3532 18.7613 59.3326 18.8688 59.3326H20.2275L20.5823 36.4757H20.3753C20.1581 36.4757 19.9498 36.3921 19.7963 36.2432C19.6427 36.0943 19.5564 35.8923 19.5564 35.6818V32.9397H13.2288C13.1213 32.9397 13.0148 32.9191 12.9155 32.8792C12.8162 32.8393 12.7259 32.7808 12.6499 32.7071C12.5739 32.6334 12.5136 32.5459 12.4724 32.4495C12.4313 32.3532 12.4101 32.25 12.4102 32.1457V28.6635C12.4101 28.5592 12.4313 28.456 12.4724 28.3597C12.5136 28.2633 12.5739 28.1758 12.6499 28.1021C12.7259 28.0283 12.8162 27.9699 12.9155 27.93C13.0148 27.8901 13.1213 27.8695 13.2288 27.8695H16.8633L39.8988 12.4685C40.0374 12.3757 40.2021 12.3268 40.3705 12.3283C40.5389 12.3299 40.7027 12.3819 40.8394 12.4772L63.7934 27.8239C63.8147 27.8381 63.8353 27.8533 63.855 27.8695H67.4967C67.6042 27.8695 67.7107 27.89 67.8101 27.9299C67.9094 27.9698 67.9997 28.0283 68.0757 28.102C68.1518 28.1757 68.2121 28.2633 68.2533 28.3596C68.2944 28.4559 68.3156 28.5592 68.3156 28.6635V32.1457C68.3156 32.25 68.2944 32.3532 68.2533 32.4496C68.2121 32.5459 68.1518 32.6334 68.0757 32.7072C67.9997 32.7809 67.9094 32.8394 67.8101 32.8793C67.7107 32.9192 67.6042 32.9397 67.4967 32.9397H61.1688V35.6824C61.1688 35.8929 61.0825 36.0949 60.9289 36.2438C60.7754 36.3927 60.5671 36.4763 60.35 36.4763H60.1162L60.3265 47.2806ZM36.4695 59.2506C36.4695 51.6224 36.6224 44.0251 36.7437 36.3937H36.5366C36.429 36.3937 36.3225 36.3731 36.2232 36.3332C36.1238 36.2933 36.0336 36.2348 35.9575 36.1611C35.8815 36.0874 35.8212 35.9998 35.78 35.9035C35.7389 35.8071 35.7177 35.7039 35.7177 35.5996V32.8571H28.8464V35.6001C28.8464 35.8107 28.7601 36.0126 28.6065 36.1616C28.4529 36.3105 28.2447 36.3941 28.0275 36.3942H27.82L28.1749 59.2511H29.5335C29.7507 59.2511 29.9589 59.3347 30.1125 59.4836C30.266 59.6325 30.3523 59.8345 30.3523 60.045V62.4241H34.2114V60.0445C34.2114 59.9403 34.2325 59.837 34.2737 59.7407C34.3148 59.6444 34.3751 59.5569 34.4511 59.4831C34.5271 59.4094 34.6174 59.3509 34.7167 59.311C34.816 59.2711 34.9225 59.2506 35.03 59.2506H36.4695ZM44.1491 47.1981H52.8582L52.9109 36.3942H52.6979C52.4807 36.3941 52.2724 36.3105 52.1189 36.1616C51.9653 36.0126 51.879 35.8107 51.879 35.6001V32.8571H45.0077V35.6001C45.0077 35.8107 44.9214 36.0126 44.7678 36.1616C44.6143 36.3105 44.406 36.3941 44.1888 36.3942H43.9813L44.1491 47.1981Z" fill="#F96B31"/>
<path fill-rule="evenodd" clip-rule="evenodd" d="M66.6495 53.4505C66.648 53.1826 66.5376 52.9262 66.3423 52.7368C66.147 52.5474 65.8825 52.4404 65.6062 52.439H39.15C38.8738 52.4404 38.6093 52.5474 38.414 52.7368C38.2187 52.9262 38.1084 53.1827 38.1069 53.4505V69.3054C38.1083 69.5732 38.2187 69.8297 38.414 70.0191C38.6093 70.2086 38.8738 70.3156 39.15 70.317H65.6062C65.8825 70.3156 66.147 70.2086 66.3423 70.0192C66.5377 69.8298 66.648 69.5733 66.6495 69.3054V53.4505ZM51.1612 67.2271C50.944 67.2271 50.7358 67.1435 50.5822 66.9946C50.4287 66.8457 50.3424 66.6438 50.3424 66.4332C50.3424 66.2226 50.4287 66.0207 50.5822 65.8718C50.7358 65.7229 50.944 65.6392 51.1612 65.6392H53.5949C53.8121 65.6392 54.0204 65.7229 54.1739 65.8718C54.3275 66.0207 54.4137 66.2226 54.4137 66.4332C54.4137 66.6438 54.3275 66.8457 54.1739 66.9946C54.0204 67.1435 53.8121 67.2271 53.5949 67.2271H51.1612ZM56.3153 67.2271C56.0982 67.2271 55.8899 67.1435 55.7363 66.9946C55.5828 66.8457 55.4965 66.6438 55.4965 66.4332C55.4965 66.2226 55.5828 66.0207 55.7363 65.8718C55.8899 65.7229 56.0982 65.6392 56.3153 65.6392H58.7492C58.9664 65.6392 59.1746 65.7229 59.3282 65.8718C59.4817 66.0207 59.568 66.2226 59.568 66.4332C59.568 66.6438 59.4817 66.8457 59.3282 66.9946C59.1746 67.1435 58.9664 67.2271 58.7492 67.2271H56.3153ZM61.4694 67.2271C61.2523 67.2271 61.044 67.1435 60.8905 66.9946C60.7369 66.8457 60.6507 66.6438 60.6507 66.4332C60.6507 66.2226 60.7369 66.0207 60.8905 65.8718C61.044 65.7229 61.2523 65.6392 61.4694 65.6392H63.9032C64.1204 65.6392 64.3286 65.7229 64.4822 65.8718C64.6357 66.0207 64.722 66.2226 64.722 66.4332C64.722 66.6438 64.6357 66.8457 64.4822 66.9946C64.3286 67.1435 64.1204 67.2271 63.9032 67.2271H61.4694ZM46.0071 67.2271C45.7899 67.2271 45.5816 67.1435 45.4281 66.9946C45.2745 66.8457 45.1883 66.6438 45.1883 66.4332C45.1883 66.2226 45.2745 66.0207 45.4281 65.8718C45.5816 65.7229 45.7899 65.6392 46.0071 65.6392H48.441C48.6581 65.6392 48.8664 65.7229 49.0199 65.8718C49.1735 66.0207 49.2597 66.2226 49.2597 66.4332C49.2597 66.6438 49.1735 66.8457 49.0199 66.9946C48.8664 67.1435 48.6581 67.2271 48.441 67.2271H46.0071ZM40.8531 67.2271C40.6359 67.2271 40.4276 67.1435 40.2741 66.9946C40.1205 66.8457 40.0343 66.6438 40.0343 66.4332C40.0343 66.2226 40.1205 66.0207 40.2741 65.8718C40.4276 65.7229 40.6359 65.6392 40.8531 65.6392H43.2871C43.5042 65.6392 43.7125 65.7229 43.866 65.8718C44.0196 66.0207 44.1059 66.2226 44.1059 66.4332C44.1059 66.6438 44.0196 66.8457 43.866 66.9946C43.7125 67.1435 43.5042 67.2271 43.2871 67.2271H40.8531ZM49.0466 58.3448C48.9382 58.3461 48.8306 58.3265 48.7301 58.2872C48.6295 58.2479 48.538 58.1896 48.4609 58.1158C48.3838 58.0419 48.3225 57.9539 48.2807 57.8569C48.2389 57.7599 48.2174 57.6559 48.2174 57.5508C48.2174 57.4456 48.2389 57.3416 48.2807 57.2446C48.3225 57.1476 48.3838 57.0596 48.4609 56.9857C48.538 56.9119 48.6295 56.8536 48.7301 56.8143C48.8306 56.775 48.9382 56.7554 49.0466 56.7567H62.3137C62.5291 56.7593 62.7348 56.8441 62.8861 56.9928C63.0375 57.1414 63.1224 57.3419 63.1224 57.5508C63.1224 57.7596 63.0375 57.9601 62.8861 58.1087C62.7348 58.2574 62.5291 58.3422 62.3137 58.3448H49.0466ZM40.827 54.9977H44.8917C45.1089 54.9977 45.3171 55.0813 45.4707 55.2302C45.6243 55.3791 45.7106 55.581 45.7106 55.7916V59.7332C45.7106 59.8375 45.6894 59.9407 45.6483 60.0371C45.6071 60.1334 45.5468 60.221 45.4707 60.2947C45.3947 60.3684 45.3044 60.4269 45.2051 60.4668C45.1057 60.5067 44.9992 60.5272 44.8917 60.5272H40.827C40.7195 60.5272 40.613 60.5067 40.5137 60.4668C40.4143 60.4269 40.3241 60.3684 40.248 60.2947C40.172 60.2209 40.1117 60.1334 40.0706 60.0371C40.0294 59.9407 40.0082 59.8375 40.0083 59.7332V55.7916C40.0083 55.5811 40.0946 55.3791 40.2481 55.2302C40.4017 55.0813 40.6099 54.9977 40.827 54.9977Z" fill="#1A1A1A"/>
<path fill-rule="evenodd" clip-rule="evenodd" d="M21.8599 59.2506H26.5438L26.1891 36.3942H22.2146L21.8599 59.2506Z" fill="#F9893D"/>
<path d="M19.688 60.8385H28.7151V62.4234H19.688V60.8385Z" fill="#F9893D"/>
<path fill-rule="evenodd" clip-rule="evenodd" d="M19.7393 27.787H60.986L40.3627 13.9988L19.7393 27.787Z" fill="#F9893D"/>
<path d="M21.1943 32.8571H27.209V34.8061H21.1943V32.8571Z" fill="#F9893D"/>
<path d="M37.3555 32.8571H43.3702V34.8061H37.3555V32.8571Z" fill="#F9893D"/>
<path d="M53.5171 32.8571H59.5318V34.8061H53.5171V32.8571Z" fill="#F9893D"/>
<path fill-rule="evenodd" clip-rule="evenodd" d="M14.0474 31.2694H66.6784V29.3751H14.0474V31.2694Z" fill="#F9893D"/>
<path d="M35.8491 60.8385H36.4696V62.4234H35.8491V60.8385Z" fill="#F9893D"/>
<path fill-rule="evenodd" clip-rule="evenodd" d="M36.47 65.598V64.0116H29.5341H18.8693H15.3105V65.598H36.47Z" fill="#F9893D"/>
<path d="M41.6465 56.5857H44.0736V58.9392H41.6465V56.5857Z" fill="#F9893D"/>
<path fill-rule="evenodd" clip-rule="evenodd" d="M68.2871 66.664H69.2252C69.5014 66.6627 69.7659 66.5557 69.9613 66.3663C70.1566 66.1769 70.2669 65.9204 70.2683 65.6526V56.915H68.2871V66.664Z" fill="#1A1A1A"/>
<path fill-rule="evenodd" clip-rule="evenodd" d="M54.4897 47.1981H58.6953L58.4848 36.3942H54.5424L54.4897 47.1981Z" fill="#F9893D"/>
<path fill-rule="evenodd" clip-rule="evenodd" d="M40.0883 50.851V49.7975C40.0899 49.1507 40.3394 48.5275 40.7885 48.0492C41.2375 47.5709 41.8539 47.2715 42.5179 47.2094L42.35 36.3942H38.3753L38.1426 51.0424C38.4625 50.9157 38.8047 50.8507 39.1503 50.851H40.0883Z" fill="#F9893D"/>
<path d="M68.2871 53.8583H70.2683V55.3269H68.2871V53.8583Z" fill="#F9893D"/>
<path fill-rule="evenodd" clip-rule="evenodd" d="M67.9937 52.2704H70.2681V49.797C70.2667 49.5291 70.1564 49.2727 69.9611 49.0833C69.7657 48.8939 69.5012 48.7869 69.225 48.7855H42.7689C42.4927 48.7869 42.2281 48.8938 42.0328 49.0832C41.8374 49.2726 41.727 49.5291 41.7256 49.797V50.8505H65.6063C65.9582 50.8504 66.3067 50.9178 66.6317 51.0488C66.9567 51.1797 67.2519 51.3715 67.5002 51.6134C67.6989 51.8062 67.8654 52.0278 67.9937 52.2704Z" fill="#1A1A1A"/>
</g>
<defs>
<clipPath id="clip0_1373_2464">
<rect width="60" height="60" fill="white" transform="translate(12.1577 12.1579)"/>
</clipPath>
</defs>
</svg>
