<svg width="70" height="70" viewBox="0 0 70 70" fill="none" xmlns="http://www.w3.org/2000/svg">
<g clip-path="url(#clip0_1373_2486)">
<path d="M17.7693 43.2573C18.0458 42.9454 18.174 42.5282 18.1226 42.1136C17.7152 38.7996 17.5071 35.4258 17.5071 32.0833C17.5071 28.7408 17.7151 25.367 18.1226 22.0529C18.1739 21.6385 18.0456 21.2212 17.7693 20.9092C17.4902 20.5959 17.0939 20.4165 16.6752 20.4165H3.23982C2.62145 20.4165 2.07156 20.8053 1.86348 21.3878C0.626855 24.8757 0 28.4746 0 32.0834C0 35.6836 0.626855 39.2811 1.86361 42.7773C2.07156 43.3612 2.62158 43.75 3.23996 43.75H16.6753C17.0941 43.75 17.4902 43.5706 17.7693 43.2573Z" fill="#F9893D"/>
<path d="M22.4312 16.9518C22.7076 17.2978 23.1264 17.5 23.571 17.5H40.6223C41.0668 17.5 41.4857 17.2978 41.7621 16.9518C42.0386 16.6042 42.144 16.1499 42.0442 15.7184C39.8672 6.16943 35.9633 0 32.0967 0C28.23 0 24.3261 6.16943 22.1491 15.7184C22.0495 16.1499 22.1549 16.6042 22.4312 16.9518Z" fill="#F9893D"/>
<path d="M45.1355 16.3337C45.275 17.013 45.8735 17.5 46.5659 17.5H58.1576C58.6877 17.5 59.175 17.2137 59.4313 16.7523C59.6907 16.2909 59.6763 15.7255 59.4 15.2755C55.5162 8.98503 49.5465 4.19413 42.5852 1.78583C42.0181 1.58499 41.3771 1.7645 40.9923 2.22729C40.602 2.69009 40.5392 3.34524 40.8356 3.87366C42.6451 7.1236 44.1325 11.4331 45.1355 16.3337Z" fill="#F9893D"/>
<path d="M19.0571 47.8331C18.9175 47.1537 18.3191 46.6667 17.6266 46.6667H6.03494C5.50488 46.6667 5.01762 46.953 4.76127 47.4145C4.50191 47.8759 4.51627 48.4412 4.79258 48.8913C8.67648 55.1817 14.646 59.9726 21.6073 62.3809C21.7612 62.4351 21.9236 62.4606 22.0833 62.4606C22.5078 62.4606 22.9182 62.2755 23.2003 61.9393C23.5906 61.4765 23.6533 60.8214 23.3569 60.293C21.5475 57.043 20.0601 52.7335 19.0571 47.8331Z" fill="#F9893D"/>
<path d="M6.03499 17.5H17.6267C18.3192 17.5 18.9175 17.0129 19.0572 16.3336C20.0601 11.4331 21.5476 7.12359 23.357 3.87378C23.6534 3.34536 23.5906 2.69034 23.2003 2.22742C22.81 1.76462 22.1688 1.58511 21.6074 1.78595C14.6461 4.19425 8.6764 8.98501 4.79263 15.2756C4.51618 15.7257 4.50196 16.291 4.76132 16.7524C5.0178 17.2137 5.50507 17.5 6.03499 17.5Z" fill="#F9893D"/>
<path d="M69.6899 60.8798L62.267 47.8686C64.3898 45.4433 66.4017 41.8559 66.4017 39.1728C66.4017 37.8682 65.9058 37.0992 65.4899 36.6819C63.1761 34.3833 57.7336 36.877 54.2772 39.8948L40.9644 32.3269C39.6167 31.8099 38.0808 32.136 37.0578 33.1543L35.5135 34.6937C35.2257 34.9814 35.069 35.3787 35.0861 35.7861C35.1032 36.1949 35.2913 36.5765 35.6047 36.84L47.4528 46.8418C46.9427 47.447 46.3985 48.0864 45.8372 48.7445C43.8597 51.0687 41.6542 53.6579 40.0812 55.7484L37.1947 54.31C36.6391 54.0266 35.9608 54.1391 35.5135 54.5821L32.5244 57.5643C32.2166 57.8733 32.06 58.3049 32.1026 58.7407C32.1481 59.1765 32.3847 59.5681 32.7466 59.8116L38.4855 63.6269L42.3095 69.3519C42.5518 69.7151 42.945 69.9501 43.3781 69.9929C43.4265 69.9971 43.475 70 43.5234 70C43.9081 70 44.2785 69.8476 44.555 69.5741L47.5469 66.5905C47.9914 66.1462 48.1025 65.4668 47.8205 64.9044L46.3786 62.0333C48.4844 60.4568 51.0945 58.2451 53.4368 56.2598C54.0836 55.7129 54.7133 55.1789 55.3088 54.6775L65.3362 66.5008C65.6098 66.8213 66.003 67.0078 66.4219 67.0164C66.9576 67.0164 67.2453 66.8497 67.5275 66.5421L68.9523 64.9827C69.9777 63.9615 70.3054 62.4278 69.6899 60.8798Z" fill="#F96B31"/>
<path d="M46.4263 20.908C46.1471 21.2213 46.0189 21.6386 46.0701 22.053C46.4349 25.0253 46.6344 28.1569 46.6628 31.3627C46.6686 31.8825 46.9477 32.3597 47.398 32.6174L53.2194 35.9342C53.4446 36.0609 53.6954 36.125 53.9432 36.125C54.2253 36.125 54.5075 36.0438 54.7525 35.8816C57.5079 34.0487 60.4229 32.9563 62.7509 32.8866C63.5517 32.8609 64.1814 32.1959 64.1643 31.3955C64.0874 27.9804 63.4718 24.6137 62.3293 21.388C62.1213 20.8056 61.5713 20.4167 60.9529 20.4167H47.5176C47.0988 20.4166 46.7027 20.5961 46.4263 20.908Z" fill="#F9893D"/>
<path d="M35.0003 31.0878C36.7071 29.3802 39.0665 28.644 41.7194 29.5269C42.1753 29.6778 42.6797 29.5939 43.0615 29.3047C43.4463 29.0142 43.6628 28.5528 43.6371 28.0729C43.5204 25.6048 43.3465 23.5156 43.1071 21.6855C43.0101 20.9591 42.3919 20.4166 41.6595 20.4166H22.5339C21.8016 20.4166 21.1833 20.9593 21.0863 21.6855C20.6475 25.0465 20.4253 28.5443 20.4253 32.0832C20.4253 35.6222 20.6476 39.12 21.0863 42.481C21.1833 43.2074 21.8015 43.7499 22.5339 43.7499H35.2768C35.8894 43.7499 36.4366 43.3681 36.6474 42.7928C36.8582 42.2175 36.6873 41.5723 36.2171 41.1778L33.7211 39.07V39.0686C32.7864 38.2811 32.2222 37.1289 32.1738 35.907C32.1225 34.6865 32.5898 33.4916 33.4561 32.6286L35.0003 31.0878Z" fill="#F9893D"/>
<path d="M33.4531 52.5185C34.7041 51.2723 36.6588 50.8992 38.2716 51.5942C38.8757 51.8535 39.5681 51.6811 39.9784 51.1798C40.4914 50.5546 41.0242 49.9223 41.7365 49.0792C41.8961 48.8869 42.0043 48.659 42.0527 48.4155C42.0698 48.3201 42.0812 48.2204 42.0812 48.125C42.0812 47.3189 41.4286 46.6666 40.6222 46.6666H23.5711C23.1266 46.6666 22.7077 46.8688 22.4313 47.2149C22.1548 47.5624 22.0494 48.0167 22.1492 48.4496C23.2121 53.1038 24.7194 57.0629 26.5146 59.8984C26.7882 60.3299 27.2584 60.5763 27.7485 60.5763C27.9052 60.5763 28.062 60.5506 28.2158 60.4993C28.8542 60.2829 29.2616 59.659 29.2017 58.9883C29.0848 57.6881 29.5465 56.4162 30.464 55.5006L33.4531 52.5185Z" fill="#F9893D"/>
</g>
<defs>
<clipPath id="clip0_1373_2486">
<rect width="70" height="70" fill="white"/>
</clipPath>
</defs>
</svg>
