<svg width="84" height="84" viewBox="0 0 84 84" fill="none" xmlns="http://www.w3.org/2000/svg">
<circle cx="42" cy="42" r="42" fill="#1A1A1A"/>
<g clip-path="url(#clip0_1373_2459)">
<path d="M68.8181 32.9294V65.7419H15.4978V32.9294C15.4978 31.8416 15.9299 30.7983 16.6991 30.0291C17.4683 29.2599 18.5116 28.8278 19.5994 28.8278H64.7166C65.8044 28.8278 66.8476 29.2599 67.6168 30.0291C68.386 30.7983 68.8181 31.8416 68.8181 32.9294Z" fill="#8585F2"/>
<path d="M67.7927 57.5388H49.3357C48.7551 57.5383 48.1815 57.4124 47.6541 57.1697C47.9763 57.8902 48.5001 58.5021 49.1624 58.9315C49.8247 59.3609 50.5972 59.5895 51.3865 59.5896H68.8181V57.4055C68.4841 57.4971 68.139 57.5419 67.7927 57.5388Z" fill="#1E81CE"/>
<path d="M68.8181 65.7419H12.4216V69.8435C12.4233 70.3869 12.6398 70.9076 13.0241 71.2918C13.4083 71.6761 13.929 71.8927 14.4724 71.8943H69.8435C70.3869 71.8927 70.9076 71.6761 71.2918 71.2918C71.6761 70.9076 71.8927 70.3869 71.8943 69.8435V65.7419H68.8181Z" fill="#58595B"/>
<path d="M71.8943 16.5231V53.4372C71.8901 54.3451 71.5863 55.2262 71.0301 55.9437C70.4739 56.6613 69.6963 57.1751 68.8181 57.4055C68.4841 57.497 68.139 57.5419 67.7927 57.5388H49.3357C48.2479 57.5388 47.2046 57.1066 46.4355 56.3374C45.6663 55.5682 45.2341 54.525 45.2341 53.4372V16.5231C45.2374 15.4363 45.6705 14.395 46.439 13.6265C47.2075 12.858 48.2489 12.4248 49.3357 12.4216H67.7927C68.8805 12.4216 69.9238 12.8537 70.693 13.6229C71.4622 14.3921 71.8943 15.4353 71.8943 16.5231Z" fill="#F9893D"/>
<path d="M64.7166 12.4216V15.4977C64.7166 15.7697 64.6085 16.0305 64.4162 16.2228C64.2239 16.4151 63.9631 16.5231 63.6912 16.5231H53.4373C53.1653 16.5231 52.9045 16.4151 52.7122 16.2228C52.5199 16.0305 52.4119 15.7697 52.4119 15.4977V12.4216H64.7166Z" fill="#FF9811"/>
<path d="M47.2849 65.7419V67.7927C47.2849 68.0647 47.1769 68.3255 46.9846 68.5178C46.7923 68.7101 46.5315 68.8181 46.2595 68.8181H38.0564C37.7844 68.8181 37.5236 68.7101 37.3313 68.5178C37.139 68.3255 37.031 68.0647 37.031 67.7927V65.7419H47.2849Z" fill="#F1F2F2"/>
<path d="M42.158 42.1579L40.3943 52.7502C40.3131 53.2278 40.066 53.6614 39.6965 53.9747C39.327 54.288 38.8587 54.4607 38.3743 54.4626H27.4846C27.0002 54.4607 26.5319 54.288 26.1624 53.9747C25.7929 53.6614 25.5457 53.2278 25.4646 52.7502L25.4031 52.4118H36.3235C36.8079 52.41 37.2762 52.2372 37.6457 51.9239C38.0153 51.6106 38.2624 51.177 38.3435 50.6994L39.7688 42.1579H42.158Z" fill="#1E81CE"/>
<path d="M62.6658 36.0056L60.615 34.9802V33.4011C61.2393 33.043 61.7578 32.5263 62.118 31.9032C62.4781 31.2801 62.6671 30.5729 62.6658 29.8532V27.8024L63.6912 25.7516V24.7263C64.2346 24.7279 64.7552 24.9445 65.1395 25.3287C65.5237 25.713 65.7403 26.2336 65.7419 26.777V27.8024L64.7166 29.8532V31.904C64.7179 32.6237 64.5289 33.3309 64.1688 33.954C63.8086 34.5771 63.2901 35.0938 62.6658 35.4518V36.0056Z" fill="#F96B31"/>
<path d="M68.8181 42.6398V47.2849H50.3611V45.2341H66.7673V40.589C66.7661 40.0008 66.6367 39.42 66.3879 38.8869L66.552 38.9689C67.2319 39.3118 67.8036 39.8363 68.2036 40.4843C68.6036 41.1322 68.8163 41.8783 68.8181 42.6398Z" fill="#F96B31"/>
<path d="M40.1072 40.1071L38.3435 50.6994C38.2624 51.177 38.0153 51.6106 37.6457 51.9239C37.2762 52.2372 36.8079 52.41 36.3235 52.4118H25.4338C24.9494 52.41 24.4811 52.2372 24.1116 51.9239C23.7421 51.6106 23.495 51.177 23.4138 50.6994L21.6501 40.1071H40.1072Z" fill="#FF9811"/>
<path d="M66.7673 40.589V45.2341H50.3611V40.589C50.3629 39.8276 50.5756 39.0815 50.9756 38.4335C51.3756 37.7855 51.9473 37.261 52.6272 36.9182L56.5134 34.9802C56.5134 35.5241 56.7295 36.0457 57.1141 36.4303C57.4987 36.8149 58.0203 37.0309 58.5642 37.0309C59.1081 37.0309 59.6297 36.8149 60.0143 36.4303C60.3989 36.0457 60.615 35.5241 60.615 34.9802L64.5012 36.9182C65.1812 37.261 65.7528 37.7855 66.1528 38.4335C66.5528 39.0815 66.7655 39.8276 66.7673 40.589Z" fill="#D6B88D"/>
<path d="M60.615 32.9294V34.9802C60.615 35.5241 60.3989 36.0457 60.0143 36.4303C59.6297 36.8149 59.1081 37.0309 58.5642 37.0309C58.0203 37.0309 57.4987 36.8149 57.1141 36.4303C56.7295 36.0457 56.5134 35.5241 56.5134 34.9802V32.9294H60.615Z" fill="#FFC477"/>
<path d="M60.615 32.9294V34.4265C59.9924 34.7891 59.2847 34.9801 58.5642 34.9801C57.8437 34.9801 57.1361 34.7891 56.5134 34.4265V32.9294H60.615Z" fill="#FFB655"/>
<path d="M63.6912 24.7263V25.7516L62.6658 27.8024L59.5896 25.7516L57.5388 27.8024H54.4626L53.4373 26.777V24.7263L52.4119 22.6755H61.6404C62.1838 22.6771 62.7045 22.8937 63.0887 23.2779C63.473 23.6622 63.6895 24.1829 63.6912 24.7263Z" fill="#57565C"/>
<path d="M59.5896 25.7516L57.5388 27.8024H54.4626V29.8532C54.4626 30.941 54.8948 31.9843 55.664 32.7535C56.4332 33.5226 57.4764 33.9548 58.5642 33.9548C59.652 33.9548 60.6953 33.5226 61.4645 32.7535C62.2336 31.9843 62.6658 30.941 62.6658 29.8532V27.8024L59.5896 25.7516Z" fill="#FFC477"/>
<path d="M29.8533 43.1833H31.9041V49.3356H29.8533V43.1833Z" fill="#EE8700"/>
<path d="M33.9548 43.1833H36.0056V49.3356H33.9548V43.1833Z" fill="#EE8700"/>
<path d="M25.7517 43.1833H27.8025V49.3356H25.7517V43.1833Z" fill="#EE8700"/>
<path d="M25.8895 35.8195C25.7966 35.2611 25.2686 34.8837 24.7103 34.9766C24.1519 35.0695 23.7745 35.5974 23.8674 36.1558L24.554 40.2839C24.6469 40.8422 25.1748 41.2196 25.7332 41.1267C26.2916 41.0339 26.6689 40.5059 26.5761 39.9475L25.8895 35.8195Z" fill="#EE8700"/>
<path d="M35.8544 35.8452L35.1636 39.9732C35.0701 40.5316 35.447 41.06 36.0054 41.1534C36.5638 41.2469 37.0922 40.87 37.1856 40.3116L37.8764 36.1835C37.9699 35.6252 37.593 35.0968 37.0346 35.0033C36.4762 34.9099 35.9478 35.2868 35.8544 35.8452Z" fill="#EE8700"/>
<path d="M23.7009 55.488H27.8025V57.5388H23.7009V55.488Z" fill="#FF842C"/>
<path d="M29.8533 55.488H38.0564V57.5388H29.8533V55.488Z" fill="#FF842C"/>
<path d="M23.7009 59.5896H38.0564V61.6404H23.7009V59.5896Z" fill="#FF842C"/>
<path d="M48.3103 44.2087H68.8181V46.2595H48.3103V44.2087Z" fill="#1E81CE"/>
</g>
<defs>
<clipPath id="clip0_1373_2459">
<rect width="60" height="60" fill="white" transform="translate(12.158 12.1579)"/>
</clipPath>
</defs>
</svg>
