<svg width="153" height="119" viewBox="0 0 153 119" fill="none" xmlns="http://www.w3.org/2000/svg">
<path d="M4.19516 11.4099C1.3611 10.6072 -0.285682 7.65911 0.51695 4.82505C1.31958 1.991 4.26769 0.344203 7.10175 1.14684C9.93581 1.94947 11.5826 4.89759 10.78 7.73164C9.97732 10.5657 7.02922 12.2125 4.19516 11.4099ZM116.311 6.27836L116.311 7.27836L116.311 6.27836ZM150.532 118.251L123.087 12.5196L125.023 12.0171L152.468 117.749L150.532 118.251ZM116.311 7.27836L5.64845 7.27835L5.64845 5.27835L116.311 5.27836L116.311 7.27836ZM123.087 12.5196C122.286 9.43328 119.5 7.27836 116.311 7.27836L116.311 5.27836C120.411 5.27835 123.993 8.04897 125.023 12.0171L123.087 12.5196Z" fill="#D6B88D"/>
</svg>
