<svg width="277" height="48" viewBox="0 0 277 48" fill="none" xmlns="http://www.w3.org/2000/svg">
<path d="M0.666667 6C0.666667 8.94552 3.05448 11.3333 6 11.3333C8.94552 11.3333 11.3333 8.94552 11.3333 6C11.3333 3.05448 8.94552 0.666667 6 0.666667C3.05448 0.666667 0.666667 3.05448 0.666667 6ZM6 7H194.08V5H6V7ZM197.257 7.76243L276.046 47.8911L276.954 46.1089L198.165 5.98026L197.257 7.76243ZM194.08 7C195.184 7 196.273 7.26126 197.257 7.76243L198.165 5.98026C196.9 5.3359 195.5 5 194.08 5V7Z" fill="#D6B88D"/>
</svg>
