<svg width="179" height="120" viewBox="0 0 179 120" fill="none" xmlns="http://www.w3.org/2000/svg">
<path d="M171.549 11.4058C174.383 12.2084 177.331 10.5616 178.133 7.72758C178.936 4.89352 177.289 1.94542 174.455 1.14278C171.621 0.340146 168.673 1.98693 167.87 4.82099C167.068 7.65505 168.714 10.6032 171.549 11.4058ZM103.002 6.27429L103.002 5.27429L103.002 6.27429ZM39.5298 6.27436L39.5298 7.27436L39.5298 6.27436ZM1.96118 119.776L32.8015 12.3429L30.8792 11.7911L0.03882 119.224L1.96118 119.776ZM39.5298 7.27436L103.002 7.27429L103.002 5.27429L39.5298 5.27436L39.5298 7.27436ZM103.002 7.27429L173.002 7.27428L173.002 5.27428L103.002 5.27429L103.002 7.27429ZM32.8015 12.3429C33.663 9.34199 36.4077 7.27437 39.5298 7.27436L39.5298 5.27436C35.5156 5.27437 31.9868 7.93274 30.8792 11.7911L32.8015 12.3429Z" fill="#D6B88D"/>
</svg>
