<svg width="127" height="150" viewBox="0 0 127 150" fill="none" xmlns="http://www.w3.org/2000/svg">
<path d="M6 138.667C3.05448 138.667 0.666664 141.054 0.666664 144C0.666664 146.946 3.05448 149.333 6 149.333C8.94552 149.333 11.3333 146.946 11.3333 144C11.3333 141.054 8.94552 138.667 6 138.667ZM125.027 0.767967L92.3812 137.624L94.3266 138.088L126.973 1.23203L125.027 0.767967ZM85.5722 143H6V145H85.5722V143ZM92.3812 137.624C91.6293 140.776 88.8125 143 85.5722 143V145C89.7383 145 93.3599 142.141 94.3266 138.088L92.3812 137.624Z" fill="#D6B88D"/>
</svg>
