<svg width="255" height="94" viewBox="0 0 255 94" fill="none" xmlns="http://www.w3.org/2000/svg">
<path d="M245.58 84.4665C243.319 86.3546 243.017 89.7179 244.905 91.9787C246.793 94.2395 250.157 94.5416 252.417 92.6534C254.678 90.7653 254.98 87.402 253.092 85.1412C251.204 82.8804 247.841 82.5783 245.58 84.4665ZM96.2177 86.5136L95.5497 87.2578L96.2177 86.5136ZM101.561 88.56L101.561 87.56L101.561 88.56ZM0.832043 2.2442L95.5497 87.2578L96.8857 85.7694L2.16795 0.755804L0.832043 2.2442ZM101.561 89.56L248.999 89.56L248.999 87.5599L101.561 87.56L101.561 89.56ZM95.5497 87.2578C97.2013 88.7401 99.3422 89.56 101.561 89.56L101.561 87.56C99.8353 87.56 98.1702 86.9223 96.8857 85.7694L95.5497 87.2578Z" fill="#D6B88D"/>
</svg>
