<svg width="120" height="152" viewBox="0 0 120 152" fill="none" xmlns="http://www.w3.org/2000/svg">
<path d="M113.583 141.224C116.528 141.137 118.985 143.453 119.072 146.397C119.16 149.341 116.843 151.799 113.899 151.886C110.955 151.973 108.498 149.657 108.41 146.713C108.323 143.768 110.639 141.311 113.583 141.224ZM32.1371 138.583L33.1123 138.362L32.1371 138.583ZM39.751 144.813L39.7745 143.813L39.751 144.813ZM1.97528 0.944785L33.1123 138.362L31.1618 138.804L0.024723 1.38676L1.97528 0.944785ZM39.7745 143.813L113.765 145.555L113.718 147.555L39.7274 145.812L39.7745 143.813ZM33.1123 138.362C33.8214 141.491 36.567 143.738 39.7745 143.813L39.7274 145.812C35.6034 145.715 32.0734 142.827 31.1618 138.804L33.1123 138.362Z" fill="#D6B88D"/>
</svg>
