<svg width="276" height="90" viewBox="0 0 276 90" fill="none" xmlns="http://www.w3.org/2000/svg">
<path d="M10.4796 81.0561C8.88124 78.582 5.57983 77.872 3.10568 79.4703C0.631534 81.0687 -0.0784455 84.3701 1.5199 86.8442C3.11824 89.3184 6.41964 90.0284 8.89379 88.43C11.3679 86.8317 12.0779 83.5303 10.4796 81.0561ZM179.238 82.0566L179.884 82.8199L179.238 82.0566ZM174.07 83.9504L174.07 84.9504L174.07 83.9504ZM274.355 0.236759L178.592 81.2933L179.884 82.8199L275.647 1.76332L274.355 0.236759ZM174.07 82.9504L5.99974 82.9502L5.99974 84.9502L174.07 84.9504L174.07 82.9504ZM178.592 81.2933C177.328 82.3632 175.726 82.9504 174.07 82.9504L174.07 84.9504C176.199 84.9504 178.259 84.1955 179.884 82.8199L178.592 81.2933Z" fill="#D6B88D"/>
</svg>
