<svg width="256" height="60" viewBox="0 0 256 60" fill="none" xmlns="http://www.w3.org/2000/svg">
<path d="M245.34 7.65092C246.473 10.3699 249.595 11.6556 252.314 10.5227C255.033 9.38982 256.319 6.2673 255.186 3.54836C254.053 0.829416 250.93 -0.456334 248.212 0.67656C245.493 1.80946 244.207 4.93198 245.34 7.65092ZM76.1263 8.81449L75.5721 7.98211L76.1263 8.81449ZM80.4717 7.47402L80.4606 6.47408L80.4717 7.47402ZM2.05606 59.3323L76.6805 9.64687L75.5721 7.98211L0.947651 57.6676L2.05606 59.3323ZM80.4827 8.47396L250.274 6.59958L250.252 4.5997L80.4606 6.47408L80.4827 8.47396ZM76.6805 9.64687C77.8078 8.89634 79.1285 8.48891 80.4827 8.47396L80.4606 6.47408C78.7196 6.4933 77.0214 7.01714 75.5721 7.98211L76.6805 9.64687Z" fill="#D6B88D"/>
</svg>
