<svg width="204" height="149" viewBox="0 0 204 149" fill="none" xmlns="http://www.w3.org/2000/svg">
<path d="M6 138.167C3.05447 138.167 0.666672 140.554 0.666672 143.5C0.666672 146.446 3.05447 148.833 6 148.833C8.94553 148.833 11.3333 146.446 11.3333 143.5C11.3333 140.554 8.94553 138.167 6 138.167ZM148.994 138.426L148.063 138.06L148.994 138.426ZM202.069 0.634247L148.063 138.06L149.925 138.792L203.931 1.36575L202.069 0.634247ZM141.548 142.5H6V144.5H141.548V142.5ZM148.063 138.06C147.011 140.739 144.426 142.5 141.548 142.5V144.5C145.248 144.5 148.571 142.235 149.925 138.792L148.063 138.06Z" fill="#D6B88D"/>
</svg>
