<svg width="364" height="51" viewBox="0 0 364 51" fill="none" xmlns="http://www.w3.org/2000/svg">
<path d="M0.666667 6C0.666667 8.94552 3.05448 11.3333 6 11.3333C8.94552 11.3333 11.3333 8.94552 11.3333 6C11.3333 3.05448 8.94552 0.666667 6 0.666667C3.05448 0.666667 0.666667 3.05448 0.666667 6ZM256.438 6.57932L256.812 5.65173L256.438 6.57932ZM6 7H253.449V5H6V7ZM256.065 7.5069L362.626 50.4276L363.374 48.5724L256.812 5.65173L256.065 7.5069ZM253.449 7C254.346 7 255.233 7.17208 256.065 7.5069L256.812 5.65173C255.743 5.22125 254.602 5 253.449 5V7Z" fill="#D6B88D"/>
</svg>
