<svg width="204" height="119" viewBox="0 0 204 119" fill="none" xmlns="http://www.w3.org/2000/svg">
<path d="M196.547 10.6315C199.381 11.4341 202.329 9.78736 203.132 6.9533C203.934 4.11924 202.287 1.17114 199.453 0.368503C196.619 -0.434132 193.671 1.21265 192.869 4.04671C192.066 6.88077 193.713 9.82887 196.547 10.6315ZM116.25 5.50001L116.25 6.50001L116.25 5.50001ZM40.4694 5.5L40.4694 4.5L40.4694 5.5ZM1.95862 118.584L33.7591 11.5071L31.8419 10.9377L0.0413828 118.014L1.95862 118.584ZM40.4694 6.5L116.25 6.50001L116.25 4.50001L40.4694 4.5L40.4694 6.5ZM116.25 6.50001L198 6.50001L198 4.50001L116.25 4.50001L116.25 6.50001ZM33.7591 11.5071C34.6412 8.53692 37.371 6.50001 40.4694 6.5L40.4694 4.5C36.4858 4.5 32.976 7.1189 31.8419 10.9377L33.7591 11.5071Z" fill="#D6B88D"/>
</svg>
