<svg width="68" height="58" viewBox="0 0 68 58" fill="none" xmlns="http://www.w3.org/2000/svg">
<path d="M1.12109 54.0197H11.462V19.444H1.12109V54.0197ZM4.31352 23.697H8.26958V34.7485H4.31352V23.697ZM4.31352 38.7046H8.26958V49.7561H4.31352V38.7046Z" fill="#F9893D"/>
<path d="M8.84229 0.777344H48.7317V6.21825H8.84229V0.777344Z" fill="#F9893D"/>
<path d="M51.4573 16.347C42.9513 16.347 36.0361 23.2622 36.0361 31.7683C36.0361 40.2743 51.4573 57.2228 51.4573 57.2228C51.4573 57.2228 66.8786 40.2743 66.8786 31.7683C66.8786 23.2622 59.9634 16.347 51.4573 16.347ZM51.4573 40.5395C46.6104 40.5395 42.6861 36.6152 42.6861 31.7683C42.6861 26.9213 46.6104 22.997 51.4573 22.997C56.3043 22.997 60.2286 26.9213 60.2286 31.7683C60.2286 36.6152 56.3043 40.5395 51.4573 40.5395Z" fill="#F96B31"/>
<path d="M54.024 26.7516C53.4407 26.7516 52.9634 27.2289 52.9634 27.8122V30.7076H49.9513V27.8122C49.9513 27.2289 49.474 26.7516 48.8907 26.7516C48.3074 26.7516 47.8301 27.2289 47.8301 27.8122V35.7243C47.8301 36.3076 48.3074 36.7849 48.8907 36.7849C49.474 36.7849 49.9513 36.3076 49.9513 35.7243V32.8289H52.9634V35.7243C52.9634 36.3076 53.4407 36.7849 54.024 36.7849C54.6074 36.7849 55.0846 36.3076 55.0846 35.7243V27.8122C55.0846 27.2183 54.6074 26.7516 54.024 26.7516Z" fill="#F9893D"/>
<path d="M22.6089 44.4H27.7316V54.0197H22.6089V44.4Z" fill="#F9893D"/>
<path d="M29.853 44.4H34.9758V54.0197H29.853V44.4Z" fill="#F9893D"/>
<path d="M30.9134 38.3546V32.9668H33.9998C33.9362 32.5531 33.915 32.1501 33.915 31.7683C33.915 30.7183 34.0104 29.7001 34.1907 28.7031H30.9134V23.3152H36.0892C36.9695 21.7243 38.0831 20.2819 39.3983 19.0516H30.9134V13.6637H39.7271V18.744C40.9998 17.5986 42.4316 16.6334 43.9907 15.9016V8.33948H13.5938V54.0198H20.4877V43.3395C20.4877 42.7561 20.9544 42.2789 21.5483 42.2789H36.0362C36.6195 42.2789 37.0968 42.7561 37.0968 43.3395V54.0198H43.9907V51.5804C40.9998 47.7092 37.6165 42.8304 35.6331 38.3546H30.9134ZM26.6604 38.3546H17.8468V32.9668H26.6604V38.3546ZM26.6604 28.7031H17.8468V23.3152H26.6604V28.7031ZM26.6604 19.0516H17.8468V13.6637H26.6604V19.0516Z" fill="#F9893D"/>
<path d="M39.7272 19.0516V18.744C39.6212 18.8395 39.5045 18.9349 39.3984 19.0516H39.7272Z" fill="#F9893D"/>
</svg>
