<svg width="68" height="68" viewBox="0 0 68 68" fill="none" xmlns="http://www.w3.org/2000/svg">
<path d="M64.4725 47.6426C63.9921 46.4714 63.0668 45.5386 61.8997 45.0486C60.7325 44.5587 59.4187 44.5515 58.2463 45.0288L44.7206 49.7888C44.83 49.1374 44.7964 48.47 44.6223 47.8328C44.4481 47.1956 44.1376 46.6038 43.7121 46.0986C43.2867 45.5933 42.7565 45.1865 42.1582 44.9064C41.56 44.6263 40.9081 44.4795 40.2475 44.4763H32.5975C32.2005 44.477 31.8097 44.3784 31.4606 44.1894L24.1294 40.3113C23.4734 39.969 22.7443 39.7904 22.0044 39.7907H12.5481V35.9763C12.5481 35.6945 12.4362 35.4243 12.2369 35.225C12.0377 35.0258 11.7674 34.9138 11.4856 34.9138H4.25C3.96821 34.9138 3.69796 35.0258 3.4987 35.225C3.29944 35.4243 3.1875 35.6945 3.1875 35.9763V62.0076C3.1875 62.2894 3.29944 62.5596 3.4987 62.7589C3.69796 62.9581 3.96821 63.0701 4.25 63.0701H11.4856C11.7674 63.0701 12.0377 62.9581 12.2369 62.7589C12.4362 62.5596 12.5481 62.2894 12.5481 62.0076V59.5744C15.5019 59.4469 18.6681 59.6594 21.2819 61.1576L30.1219 63.7501C31.4027 64.4125 32.8237 64.7581 34.2656 64.7581C35.7076 64.7581 37.1286 64.4125 38.4094 63.7501L62.2413 53.5607C63.275 53.0204 64.0738 52.1185 64.4853 51.0271C64.8968 49.9356 64.8922 48.7309 64.4725 47.6426ZM10.4231 60.9451H5.3125V37.0388H10.4231V60.9451Z" fill="#F96B31"/>
<path d="M36.7093 12.8031C36.8142 13.2749 37.0141 13.7205 37.2968 14.1125C37.5795 14.5046 37.9391 14.835 38.3537 15.0835C38.7683 15.3321 39.2291 15.4936 39.7081 15.5582C40.1872 15.6228 40.6743 15.5892 41.1399 15.4593C41.6288 15.8636 42.2218 16.1217 42.8508 16.2038C43.4799 16.2859 44.1193 16.1886 44.6955 15.9233C45.2717 15.658 45.7612 15.2353 46.1078 14.704C46.4543 14.1726 46.6438 13.5542 46.6543 12.92C46.6551 12.4351 46.5499 11.9559 46.346 11.516C46.1421 11.0761 45.8445 10.6861 45.4741 10.3733C45.1036 10.0605 44.6692 9.83255 44.2013 9.70533C43.7335 9.57811 43.2434 9.55473 42.7656 9.63683C42.3457 9.18501 41.8144 8.85157 41.2249 8.66995C41.2012 7.89754 40.9562 7.14818 40.5192 6.51085C40.0821 5.87353 39.4714 5.37501 38.7594 5.0745C38.0475 4.77399 37.2642 4.68411 36.5027 4.81553C35.7412 4.94696 35.0334 5.29416 34.4633 5.81592C33.8933 6.33768 33.485 7.01207 33.2868 7.75902C33.0887 8.50596 33.1091 9.29408 33.3456 10.0298C33.582 10.7655 34.0247 11.4179 34.621 11.9095C35.2172 12.401 35.942 12.7112 36.7093 12.8031ZM37.1874 6.88495C37.4759 6.88618 37.7604 6.95191 38.0201 7.07734C38.2799 7.20277 38.5083 7.38471 38.6886 7.60985C38.8689 7.83498 38.9966 8.0976 39.0622 8.37847C39.1279 8.65934 39.1299 8.95134 39.0681 9.23308C39.0144 9.39686 39.0014 9.57124 39.0302 9.74117C39.059 9.91109 39.1287 10.0715 39.2332 10.2085C39.3378 10.3455 39.4741 10.455 39.6305 10.5275C39.7868 10.6001 39.9584 10.6335 40.1306 10.625C40.3904 10.6232 40.6461 10.6901 40.8718 10.8189C41.0976 10.9476 41.2853 11.1336 41.4162 11.3581C41.5469 11.5957 41.7636 11.7744 42.0218 11.8575C42.4681 12.0381 42.8399 11.6981 43.2968 11.6981C43.5073 11.6983 43.7141 11.7529 43.8972 11.8565C44.0803 11.9602 44.2336 12.1094 44.3422 12.2896C44.4507 12.4699 44.5109 12.6752 44.5168 12.8855C44.5227 13.0959 44.4742 13.3042 44.376 13.4903C44.2778 13.6764 44.1332 13.834 43.9562 13.9478C43.7792 14.0616 43.5758 14.1277 43.3657 14.1398C43.1556 14.1519 42.946 14.1095 42.757 14.0168C42.5681 13.9241 42.4064 13.7842 42.2874 13.6106C42.1255 13.4048 41.9022 13.2559 41.6499 13.1856C41.1187 13.0475 40.6831 13.5043 40.1624 13.4725C39.9459 13.4663 39.7334 13.4126 39.5399 13.3152C39.3464 13.2178 39.1767 13.079 39.0429 12.9086C38.9091 12.7383 38.8143 12.5406 38.7654 12.3295C38.7165 12.1185 38.7147 11.8993 38.7599 11.6875C38.7624 11.4879 38.705 11.2921 38.5952 11.1255C38.4853 10.9588 38.3281 10.8289 38.1437 10.7525C37.8462 10.5825 37.5168 10.6887 37.1874 10.6887C36.7319 10.6204 36.316 10.3909 36.0154 10.0418C35.7148 9.69281 35.5494 9.24747 35.5494 8.78683C35.5494 8.32619 35.7148 7.88084 36.0154 7.53181C36.316 7.18278 36.7319 6.95324 37.1874 6.88495Z" fill="#F9893D"/>
<path d="M28.6875 40.6406H63.75C64.0318 40.6406 64.302 40.5287 64.5013 40.3294C64.7006 40.1302 64.8125 39.8599 64.8125 39.5781C64.8125 39.2963 64.7006 39.0261 64.5013 38.8268C64.302 38.6276 64.0318 38.5156 63.75 38.5156H62.4431L60.0419 16.0969C60.0154 15.8339 59.8919 15.5902 59.6955 15.4134C59.499 15.2365 59.2437 15.1393 58.9794 15.1406H57.5344C58.3773 14.8793 59.0896 14.308 59.5277 13.5419C59.9658 12.7758 60.0969 11.8721 59.8946 11.0131C59.6923 10.1542 59.1717 9.4039 58.4379 8.9138C57.704 8.4237 56.8116 8.23026 55.9406 8.37251C55.4928 7.87177 54.9156 7.50415 54.2725 7.31001C54.2682 6.48898 54.0261 5.68678 53.5756 5.00038C53.1251 4.31398 52.4854 3.77277 51.7339 3.44216C50.9823 3.11156 50.1511 3.00573 49.3407 3.13745C48.5303 3.26918 47.7754 3.63282 47.1673 4.18443C46.5591 4.73603 46.1238 5.45198 45.9138 6.24573C45.7039 7.03948 45.7284 7.87705 45.9843 8.65718C46.2402 9.43731 46.7167 10.1266 47.356 10.6418C47.9953 11.1569 48.7702 11.4758 49.5869 11.56C49.6913 12.0619 49.8981 12.5369 50.1944 12.9553C50.4906 13.3736 50.8699 13.7265 51.3086 13.9917C51.7473 14.2569 52.236 14.4288 52.7441 14.4967C53.2523 14.5646 53.7689 14.527 54.2619 14.3863C54.6398 14.7062 55.0818 14.9417 55.5581 15.0769C54.8463 15.0131 54.0919 15.1938 53.9856 16.0225L52.8275 25.8294L51.4887 19.89C51.4348 19.6503 51.2994 19.4368 51.1057 19.2857C50.912 19.1346 50.6719 19.0553 50.4262 19.0613H41.9262C41.6806 19.0553 41.4405 19.1346 41.2468 19.2857C41.0531 19.4368 40.9177 19.6503 40.8637 19.89L39.6312 25.8931L38.4731 16.0863C38.4442 15.8252 38.3197 15.5841 38.1234 15.4094C37.9272 15.2348 37.6733 15.139 37.4106 15.1406H33.4794C33.2151 15.1393 32.9597 15.2365 32.7633 15.4134C32.5668 15.5902 32.4433 15.8339 32.4169 16.0969L30.0156 38.5156H28.6875C28.4057 38.5156 28.1355 38.6276 27.9362 38.8268C27.7369 39.0261 27.625 39.2963 27.625 39.5781C27.625 39.8599 27.7369 40.1302 27.9362 40.3294C28.1355 40.5287 28.4057 40.6406 28.6875 40.6406ZM55.4094 12.58C55.2884 12.4179 55.1256 12.2917 54.9385 12.215C54.7513 12.1383 54.5468 12.1139 54.3469 12.1444C53.9893 12.3178 53.6049 12.4292 53.21 12.4738C53.0021 12.4738 52.7962 12.4328 52.6042 12.3532C52.4121 12.2737 52.2376 12.1571 52.0906 12.0101C51.9436 11.8631 51.8269 11.6885 51.7474 11.4965C51.6678 11.3044 51.6269 11.0985 51.6269 10.8906C51.6856 10.6067 51.6336 10.311 51.4815 10.0641C51.3294 9.81724 51.0888 9.6378 50.8088 9.56251C50.5542 9.54142 50.2983 9.54142 50.0437 9.56251C49.6008 9.57333 49.1656 9.44545 48.799 9.19676C48.4324 8.94807 48.1526 8.59101 47.9989 8.1755C47.8451 7.76 47.8251 7.30683 47.9416 6.87939C48.0581 6.45195 48.3053 6.07161 48.6486 5.79155C48.9919 5.5115 49.4141 5.34575 49.8562 5.31747C50.2984 5.2892 50.7383 5.39982 51.1144 5.63386C51.4906 5.86791 51.7842 6.21367 51.9542 6.62279C52.1242 7.03191 52.1621 7.48393 52.0625 7.91563C52.0061 8.08486 51.9932 8.26556 52.025 8.44108C52.0568 8.6166 52.1323 8.78128 52.2445 8.91995C52.3567 9.05862 52.502 9.16681 52.667 9.23454C52.8321 9.30227 53.0115 9.32736 53.1888 9.30751C53.4713 9.30762 53.7488 9.38235 53.9932 9.52414C54.2377 9.66594 54.4403 9.86976 54.5806 10.115C54.6516 10.2411 54.7476 10.3514 54.8627 10.4391C54.9778 10.5268 55.1096 10.5901 55.25 10.625C55.7069 10.8269 56.1425 10.455 56.5994 10.4656C56.8368 10.4643 57.0706 10.5248 57.2777 10.641C57.4847 10.7572 57.6581 10.9252 57.7807 11.1286C57.9033 11.332 57.9709 11.5637 57.977 11.8011C57.9831 12.0385 57.9274 12.2734 57.8154 12.4828C57.7033 12.6922 57.5388 12.8689 57.338 12.9956C57.1371 13.1222 56.9068 13.1946 56.6696 13.2054C56.4324 13.2163 56.1964 13.1653 55.9848 13.0576C55.7732 12.9498 55.5932 12.7889 55.4625 12.5906L55.4094 12.58ZM42.8612 21.25H49.6081L53.5075 38.5156H38.9619L42.8612 21.25Z" fill="#F9893D"/>
</svg>
