<svg width="62" height="70" viewBox="0 0 62 70" fill="none" xmlns="http://www.w3.org/2000/svg">
<path d="M19.9132 41.4053C21.56 41.4053 23.3728 41.566 25.0277 41.87V36.9128H37.0846V45.7602C38.503 46.281 39.5388 46.8427 40.5111 47.5491C42.3544 48.8881 43.3674 50.6458 43.4282 52.5737C45.7745 52.0194 47.9266 51.0794 49.7888 49.799C50.4616 49.3366 51.2692 48.9318 51.742 48.5846V34.8153L31.0001 11.6384L9.89746 34.9551V43.2878C11.3159 42.9282 12.6086 42.5417 14.107 42.1332C15.8791 41.6502 17.8458 41.4053 19.9132 41.4053Z" fill="#F9893D"/>
<path d="M31.0943 5.98424L54.5424 32.1846H59.8902L31.0473 0L19.1173 13.1378V7.83438H10.3702V22.8027L1.95801 32.1846H7.38196L31.0943 5.98424Z" fill="#F9893D"/>
<path d="M57.25 50.8118C55.9511 50.8118 54.2027 51.3886 51.9806 52.9161C47.9186 55.7083 42.9462 56.9379 38.4029 56.9379C34.7095 56.9379 31.3 56.1258 28.8921 54.6811C27.6992 53.9653 27.7028 53.7263 28.3947 53.7263C29.7844 53.7263 33.9513 54.6906 36.7752 54.6906C38.1648 54.6906 39.2289 54.4573 39.4779 53.7606C40.6285 50.5388 36.1679 49.5014 31.5038 47.6139C28.0891 46.2314 23.9214 45.1879 19.9525 45.1876C18.2979 45.1876 16.6631 45.3689 15.1459 45.7827C8.25664 47.6609 3.27832 49.0759 1.85986 49.5352V67.6158C4.69678 66.5725 7.98288 65.5728 9.85288 65.5728C13.2846 65.5728 27.1706 69.9998 35.0329 69.9998C36.1341 69.9998 37.1202 69.913 37.9403 69.7151C44.6134 68.1042 56.1987 58.6689 59.3432 55.4476C60.8529 53.901 60.2557 50.8118 57.25 50.8118Z" fill="#F96B31"/>
</svg>
