<svg width="285" height="150" viewBox="0 0 285 150" fill="none" xmlns="http://www.w3.org/2000/svg">
<path d="M279.342 138.669C282.286 138.582 284.744 140.898 284.831 143.842C284.918 146.786 282.602 149.244 279.658 149.331C276.714 149.418 274.256 147.102 274.169 144.158C274.082 141.214 276.398 138.756 279.342 138.669ZM179.318 142.273L179.939 141.489L179.318 142.273ZM184.282 144L184.282 145L184.282 144ZM1.62054 0.381595L179.939 141.489L178.698 143.058L0.379462 1.94995L1.62054 0.381595ZM184.282 143L279.5 143L279.5 145L184.282 145L184.282 143ZM179.939 141.489C181.175 142.468 182.706 143 184.282 143L184.282 145C182.255 145 180.287 144.316 178.698 143.058L179.939 141.489Z" fill="#D6B88D"/>
</svg>
