<svg width="556" height="55" viewBox="0 0 556 55" fill="none" xmlns="http://www.w3.org/2000/svg">
<path d="M0.666667 6C0.666667 8.94552 3.05448 11.3333 6 11.3333C8.94552 11.3333 11.3333 8.94552 11.3333 6C11.3333 3.05448 8.94552 0.666667 6 0.666667C3.05448 0.666667 0.666667 3.05448 0.666667 6ZM377.018 6.27299L376.759 7.23887L377.018 6.27299ZM6 7H374.946V5H6V7ZM376.759 7.23887L554.741 54.9659L555.259 53.0341L377.277 5.30712L376.759 7.23887ZM374.946 7C375.558 7 376.168 7.08031 376.759 7.23887L377.277 5.30712C376.517 5.10325 375.733 5 374.946 5V7Z" fill="#D6B88D"/>
</svg>
