<svg width="70" height="70" viewBox="0 0 70 70" fill="none" xmlns="http://www.w3.org/2000/svg">
<g clip-path="url(#clip0_1373_2460)">
<path d="M41.1753 14.6016H52.2357L48.9192 7.30078L52.2357 0H41.1753V14.6016Z" fill="#F9893D"/>
<path d="M37.0508 16.7493V0H32.9492V16.7493C33.6263 16.6808 34.3104 16.6455 35.0001 16.6455C35.6896 16.6455 36.3737 16.6808 37.0508 16.7493Z" fill="#F9893D"/>
<path d="M55.0063 55.6388H61.791C62.7651 55.6388 63.7129 55.7531 64.6223 55.9678V35.228H55.0141L55.0063 55.6388Z" fill="#F9893D"/>
<path d="M8.20886 55.6388H14.9935L15.0438 35.2279H5.37769V55.9679C6.287 55.7531 7.23474 55.6388 8.20886 55.6388Z" fill="#F9893D"/>
<path d="M50.8407 35.228C50.1204 27.1112 43.304 20.7471 35 20.7471C26.6959 20.7471 19.8796 27.1112 19.1592 35.228H50.8407Z" fill="#F9893D"/>
<path d="M30.4714 39.3296H39.5289V55.6389H30.4714V39.3296Z" fill="#F9893D"/>
<path d="M43.6304 39.3296H50.905V55.6389H43.6304V39.3296Z" fill="#F9893D"/>
<path d="M19.0952 39.3296H26.3699V55.6389H19.0952V39.3296Z" fill="#F9893D"/>
<path d="M61.7911 59.7404H8.20887C3.68238 59.7404 0 63.4229 0 67.9492V70H70V67.9492C70 63.4229 66.3175 59.7404 61.7911 59.7404Z" fill="#58595B"/>
</g>
<defs>
<clipPath id="clip0_1373_2460">
<rect width="70" height="70" fill="white"/>
</clipPath>
</defs>
</svg>
