<svg width="546" height="90" viewBox="0 0 546 90" fill="none" xmlns="http://www.w3.org/2000/svg">
<path d="M9.97976 81.339C8.38141 78.8649 5.08001 78.1549 2.60586 79.7532C0.131714 81.3516 -0.578273 84.653 1.02007 87.1271C2.61842 89.6013 5.91981 90.3113 8.39396 88.7129C10.8681 87.1146 11.5781 83.8132 9.97976 81.339ZM364.071 83.5227L364.483 84.4339L364.071 83.5227ZM360.776 84.2331L360.776 85.2331L360.776 84.2331ZM545.088 0.588794L363.659 82.6115L364.483 84.4339L545.912 2.41121L545.088 0.588794ZM360.776 83.2331L5.49991 83.2331L5.49991 85.2331L360.776 85.2331L360.776 83.2331ZM363.659 82.6115C362.753 83.0212 361.77 83.2331 360.776 83.2331L360.776 85.2331C362.054 85.2331 363.318 84.9607 364.483 84.4339L363.659 82.6115Z" fill="#D6B88D"/>
</svg>
