<svg width="70" height="50" viewBox="0 0 70 50" fill="none" xmlns="http://www.w3.org/2000/svg">
<path d="M64.9944 3.6411V38.1768H45.4356C44.9226 38.184 44.4178 38.3183 43.9589 38.5696C43.5001 38.8209 43.0991 39.1826 42.7861 39.6278C42.666 39.7558 42.5228 39.8548 42.3656 39.9184C42.2085 39.9821 42.0409 40.009 41.8737 39.9974H28.1263C27.9591 40.009 27.7915 39.9821 27.6344 39.9184C27.4772 39.8548 27.334 39.7558 27.2139 39.6278C26.9009 39.1826 26.4999 38.8209 26.0411 38.5696C25.5822 38.3183 25.0774 38.184 24.5644 38.1768H5.00556V3.6411C4.95631 2.7345 5.23596 1.84328 5.78365 1.16138C6.33134 0.479474 7.10275 0.0620722 7.93002 0H62.07C62.8973 0.0620722 63.6687 0.479474 64.2164 1.16138C64.764 1.84328 65.0437 2.7345 64.9944 3.6411Z" fill="#F9893D"/>
<path d="M70 41.6941C69.9312 43.6992 69.1324 45.5931 67.7784 46.9615C66.4244 48.3299 64.6254 49.0614 62.775 48.996H7.225C5.33191 49.0117 3.50416 48.2465 2.1125 46.8555C1.45212 46.1986 0.923724 45.4012 0.560266 44.5132C0.196809 43.6252 0.00608749 42.6655 0 41.6941C0.0146896 41.2311 0.197733 40.7932 0.50919 40.476C0.820647 40.1587 1.23524 39.9879 1.6625 40.0007H24.5625C24.6969 40.0065 24.8283 40.0448 24.9473 40.1127C25.0662 40.1807 25.1697 40.2767 25.25 40.3935C25.6005 40.8477 26.0411 41.2102 26.5389 41.4542C27.0367 41.6981 27.5789 41.8172 28.125 41.8024H41.875C42.4211 41.8172 42.9633 41.6981 43.4611 41.4542C43.9589 41.2102 44.3995 40.8477 44.75 40.3935C44.8303 40.2767 44.9338 40.1807 45.0527 40.1127C45.1717 40.0448 45.3031 40.0065 45.4375 40.0007H68.3375C68.7648 39.9879 69.1794 40.1587 69.4908 40.476C69.8023 40.7932 69.9853 41.2311 70 41.6941Z" fill="#58595B"/>
<circle cx="35" cy="20" r="12" fill="white"/>
<g clip-path="url(#clip0_1373_2487)">
<path d="M28.9849 23.0847V16.2822C28.745 16.3457 28.5051 16.4234 28.2793 16.4939V25.0816C30.1734 24.5581 32.1861 24.6621 34.0162 25.378C32.7725 24.1205 31.0782 23.4118 29.3096 23.4093C29.1318 23.4055 28.9887 23.2624 28.9849 23.0847Z" fill="#8585F2"/>
<path d="M29.6481 14.4264L29.627 22.7953C31.7041 22.9029 33.6414 23.8754 34.9687 25.4768V17.496C33.7569 15.714 31.7973 14.5835 29.6481 14.4264Z" fill="#8585F2"/>
<path d="M41.5738 16.2964V23.0918C41.57 23.2694 41.4269 23.4126 41.2492 23.4163C39.4845 23.4179 37.7942 24.1271 36.5566 25.3851V25.3921C38.3807 24.6737 40.3883 24.5647 42.2794 25.0816V16.508C42.0536 16.4304 41.8208 16.3528 41.5738 16.2964Z" fill="#8585F2"/>
<path d="M40.9387 14.4264C38.7809 14.5679 36.8107 15.7015 35.604 17.496V25.4768C36.9297 23.8771 38.864 22.9049 40.9387 22.7953V14.4264Z" fill="#8585F2"/>
</g>
<defs>
<clipPath id="clip0_1373_2487">
<rect width="14" height="12" fill="white" transform="translate(28 14)"/>
</clipPath>
</defs>
</svg>
