<svg width="70" height="70" viewBox="0 0 70 70" fill="none" xmlns="http://www.w3.org/2000/svg">
<path fill-rule="evenodd" clip-rule="evenodd" d="M27.1907 14.8001C25.0599 14.8001 23.9915 17.3815 25.4974 18.888C25.6307 19.0213 25.7055 19.2021 25.7055 19.3906C25.7055 19.5791 25.6307 19.7598 25.4974 19.8932L23.9669 21.4239C23.8336 21.5571 23.6528 21.632 23.4643 21.632C23.2758 21.632 23.095 21.5571 22.9617 21.4239C21.4551 19.9172 18.8738 20.9864 18.8738 23.1171C18.8738 23.3057 18.7989 23.4865 18.6656 23.6198C18.5323 23.7532 18.3514 23.8281 18.1629 23.8281H15.9996C15.811 23.8281 15.6302 23.7532 15.4969 23.6198C15.3636 23.4865 15.2887 23.3057 15.2887 23.1171C15.2887 20.9843 12.7092 19.9153 11.2008 21.4239C11.0674 21.5571 10.8867 21.632 10.6982 21.632C10.5097 21.632 10.3289 21.5571 10.1956 21.4239L8.66559 19.8933C8.53234 19.76 8.45749 19.5792 8.45749 19.3907C8.45749 19.2022 8.53234 19.0214 8.66559 18.8881C10.1722 17.3815 9.10309 14.8002 6.97233 14.8002C6.78377 14.8002 6.60294 14.7253 6.46962 14.592C6.33629 14.4587 6.26139 14.2779 6.26139 14.0893V11.9255C6.26139 11.7369 6.33629 11.5561 6.46962 11.4227C6.60294 11.2894 6.78377 11.2145 6.97233 11.2145C9.10309 11.2145 10.1722 8.63313 8.66559 7.12663C8.5323 6.99331 8.45742 6.81251 8.45742 6.62398C8.45742 6.43546 8.5323 6.25466 8.66559 6.12134L10.1957 4.59145C10.3291 4.45821 10.5098 4.38336 10.6983 4.38336C10.8868 4.38336 11.0676 4.45821 11.2009 4.59145C12.7075 6.0981 15.2888 5.02895 15.2888 2.89819C15.2888 2.70964 15.3637 2.52881 15.497 2.39548C15.6303 2.26216 15.8112 2.18726 15.9997 2.18726H18.1636C18.3521 2.18726 18.533 2.26216 18.6663 2.39548C18.7996 2.52881 18.8745 2.70964 18.8745 2.89819C18.8745 5.02895 21.4558 6.0981 22.9624 4.59145C23.0957 4.45821 23.2765 4.38336 23.465 4.38336C23.6535 4.38336 23.8342 4.45821 23.9676 4.59145L25.4981 6.12161C25.6314 6.25493 25.7063 6.43574 25.7063 6.62426C25.7063 6.81278 25.6314 6.99358 25.4981 7.1269C23.9916 8.63341 25.0606 11.2148 27.1914 11.2148C27.3799 11.2148 27.5608 11.2897 27.6941 11.423C27.8274 11.5563 27.9023 11.7372 27.9023 11.9257V14.0896C27.9023 14.2781 27.8274 14.459 27.6941 14.5923C27.5608 14.7256 27.3793 14.8001 27.1907 14.8001ZM18.0852 65.6897L13.3449 67.6584C12.8496 67.863 12.2934 67.8632 11.7979 67.6587C11.3025 67.4543 10.9082 67.0621 10.7012 66.5677C8.02561 60.1424 5.34993 53.7173 2.67416 47.2925C2.57082 47.0472 2.51711 46.7839 2.51613 46.5177C2.51514 46.2516 2.5669 45.9878 2.66842 45.7418C2.76994 45.4957 2.9192 45.2722 3.10759 45.0842C3.29598 44.8961 3.51976 44.7473 3.766 44.6462L8.50631 42.6775C9.00162 42.4728 9.55782 42.4727 10.0532 42.6771C10.5487 42.8814 10.943 43.2737 11.1499 43.7681C13.8256 50.193 16.5013 56.618 19.1769 63.0431C19.2803 63.2884 19.334 63.5517 19.335 63.8179C19.336 64.084 19.2843 64.3477 19.1828 64.5938C19.0813 64.8398 18.932 65.0633 18.7436 65.2514C18.5552 65.4394 18.3315 65.5886 18.0852 65.6897ZM36.4725 60.6147C39.0757 61.3705 42.4716 60.049 45.1654 59.0006C51.525 56.526 57.9036 54.0903 64.2717 51.6364C65.7604 51.0622 66.8341 49.5815 67.1141 48.0841C67.3133 47.0197 67.1064 45.9282 66.2074 45.2422C65.0815 44.383 62.9414 44.1275 59.4308 45.1574L47.0476 48.7903C47.0832 49.3588 47.0354 49.9294 46.9058 50.4841C46.3394 53.1653 43.1461 54.8709 40.5306 54.17L28.7012 51.0004C28.4575 50.9339 28.25 50.7736 28.1241 50.5546C27.9982 50.3356 27.9641 50.0756 28.0293 49.8315C28.0945 49.5875 28.2537 49.3792 28.4721 49.2521C28.6904 49.1251 28.9502 49.0896 29.1946 49.1536L41.0755 52.3372C41.4886 52.4543 41.9209 52.4882 42.3472 52.4368C42.7735 52.3854 43.1854 52.2497 43.5588 52.0378C43.9323 51.8258 44.2598 51.5417 44.5225 51.202C44.7852 50.8623 44.9778 50.4738 45.089 50.059C45.2002 49.6443 45.2279 49.2115 45.1704 48.786C45.1129 48.3605 44.9714 47.9506 44.7541 47.5802C44.5368 47.2098 44.248 46.8863 43.9046 46.6285C43.5612 46.3707 43.17 46.1838 42.7537 46.0785L33.8136 43.6829C33.7036 43.6531 33.5997 43.6037 33.5071 43.5372C30.6497 41.511 28.533 40.7767 26.5947 40.8267C24.6436 40.8769 22.7498 41.7291 20.4287 42.8645C18.2766 43.9172 16.1824 44.918 14.1105 45.8997L19.6485 59.1975L21.7787 58.1617C23.277 57.4078 25.0084 57.2609 26.6124 57.7515L36.4725 60.6147ZM62.0548 3.15659L63.3126 6.35239C63.3404 6.4256 63.3889 6.48912 63.4522 6.53514C63.5156 6.58116 63.591 6.60769 63.6692 6.61147L67.0975 6.82093C67.1798 6.82581 67.2587 6.85536 67.3239 6.90573C67.3891 6.9561 67.4377 7.02495 67.4632 7.10331C67.4887 7.18166 67.4901 7.26589 67.467 7.34502C67.444 7.42415 67.3977 7.4945 67.3341 7.5469L64.6836 9.73126C64.6225 9.78023 64.577 9.84598 64.5527 9.92045C64.5284 9.99491 64.5264 10.0748 64.5469 10.1504L65.4073 13.4757C65.4279 13.5554 65.424 13.6395 65.3962 13.717C65.3684 13.7944 65.3179 13.8618 65.2513 13.9101C65.1846 13.9585 65.105 13.9858 65.0227 13.9883C64.9405 13.9908 64.8593 13.9685 64.7899 13.9243L61.8932 12.0786C61.8277 12.0356 61.7511 12.0127 61.6728 12.0127C61.5945 12.0127 61.5179 12.0356 61.4524 12.0786L58.5558 13.9243C58.4863 13.9685 58.4052 13.9908 58.3229 13.9883C58.2406 13.9858 58.161 13.9585 58.0944 13.9101C58.0278 13.8618 57.9773 13.7944 57.9494 13.717C57.9216 13.6395 57.9177 13.5554 57.9383 13.4757L58.7986 10.1504C58.8191 10.0748 58.8171 9.99491 58.7928 9.92044C58.7685 9.84597 58.723 9.78022 58.6619 9.73126L56.0122 7.5469C55.9487 7.49453 55.9024 7.42424 55.8794 7.3452C55.8564 7.26615 55.8577 7.18201 55.8831 7.10371C55.9085 7.0254 55.957 6.95657 56.0221 6.90616C56.0872 6.85575 56.1659 6.8261 56.2481 6.82106L59.6764 6.61161C59.7547 6.60784 59.8301 6.58131 59.8935 6.53529C59.9568 6.48927 60.0054 6.42575 60.0331 6.35253L61.291 3.15673C61.3212 3.08014 61.3737 3.01441 61.4417 2.96808C61.5098 2.92176 61.5902 2.89698 61.6725 2.89698C61.7549 2.89698 61.8353 2.92176 61.9033 2.96808C61.9714 3.01441 62.0246 3.08 62.0548 3.15659ZM44.4501 40.894H41.5871C41.4636 40.894 41.3413 40.8697 41.2272 40.8224C41.1131 40.7752 41.0095 40.7059 40.9221 40.6186C40.8348 40.5313 40.7655 40.4277 40.7183 40.3136C40.671 40.1995 40.6467 40.0772 40.6467 39.9538C40.6467 37.1311 37.2339 35.7175 35.2381 37.7133C35.0617 37.8897 34.8225 37.9888 34.5731 37.9888C34.3237 37.9888 34.0845 37.8897 33.9081 37.7133L31.8836 35.6888C31.7073 35.5124 31.6083 35.2733 31.6083 35.0239C31.6083 34.7745 31.7073 34.5353 31.8836 34.359C33.8769 32.3656 32.4624 28.9502 29.6433 28.9502C29.3939 28.9502 29.1547 28.8511 28.9784 28.6748C28.802 28.4984 28.7029 28.2593 28.7029 28.0099V25.1468C28.7029 24.8974 28.802 24.6583 28.9784 24.4819C29.1547 24.3056 29.3939 24.2065 29.6433 24.2065C32.4624 24.2065 33.8769 20.7911 31.8836 18.7978C31.7073 18.6214 31.6083 18.3822 31.6083 18.1328C31.6083 17.8835 31.7073 17.6443 31.8836 17.4679L33.9081 15.4434C34.0845 15.267 34.3237 15.1679 34.5731 15.1679C34.8225 15.1679 35.0617 15.267 35.2381 15.4434C37.2315 17.4367 40.6467 16.0222 40.6467 13.2031C40.6467 12.9537 40.7458 12.7145 40.9221 12.5382C41.0985 12.3618 41.3377 12.2627 41.5871 12.2627H44.4501C44.5736 12.2627 44.6959 12.287 44.81 12.3342C44.9241 12.3815 45.0278 12.4507 45.1152 12.5381C45.2025 12.6254 45.2718 12.7291 45.3191 12.8432C45.3664 12.9573 45.3907 13.0796 45.3907 13.2031C45.3907 16.0222 48.8061 17.4367 50.7994 15.4434C50.8868 15.356 50.9904 15.2868 51.1045 15.2395C51.2186 15.1923 51.3409 15.1679 51.4644 15.1679C51.5879 15.1679 51.7101 15.1923 51.8242 15.2395C51.9383 15.2868 52.042 15.356 52.1293 15.4434L54.1538 17.4679C54.2412 17.5552 54.3104 17.6589 54.3577 17.773C54.4049 17.8871 54.4293 18.0093 54.4293 18.1328C54.4293 18.2563 54.4049 18.3786 54.3577 18.4927C54.3104 18.6068 54.2412 18.7104 54.1538 18.7978C52.1606 20.7911 53.5751 24.2065 56.3942 24.2065C56.6436 24.2065 56.8828 24.3056 57.0592 24.4819C57.2355 24.6583 57.3346 24.8974 57.3346 25.1468V28.0099C57.3346 28.2593 57.2355 28.4984 57.0592 28.6748C56.8828 28.8511 56.6436 28.9502 56.3942 28.9502C53.5751 28.9502 52.1606 32.3656 54.1538 34.359C54.2412 34.4463 54.3104 34.5499 54.3577 34.664C54.4049 34.7781 54.4293 34.9004 54.4293 35.0239C54.4293 35.1474 54.4049 35.2697 54.3577 35.3837C54.3104 35.4978 54.2412 35.6015 54.1538 35.6888L52.1293 37.7133C52.042 37.8007 51.9383 37.8699 51.8242 37.9172C51.7101 37.9644 51.5879 37.9888 51.4644 37.9888C51.3409 37.9888 51.2186 37.9644 51.1045 37.9172C50.9904 37.8699 50.8868 37.8007 50.7994 37.7133C48.8058 35.7201 45.3907 37.1345 45.3907 39.9538C45.3907 40.0772 45.3664 40.1995 45.3191 40.3136C45.2719 40.4277 45.2026 40.5313 45.1153 40.6186C45.028 40.7059 44.9243 40.7752 44.8102 40.8224C44.6961 40.8697 44.5736 40.894 44.4501 40.894ZM43.0186 18.6698C41.4545 18.6699 39.9255 19.1338 38.625 20.0029C37.3245 20.872 36.3109 22.1072 35.7124 23.5524C35.1139 24.9975 34.9574 26.5877 35.2626 28.1218C35.5678 29.6559 36.3211 31.065 37.4272 32.171C38.5333 33.2769 39.9425 34.0301 41.4767 34.3352C43.0108 34.6402 44.6009 34.4836 46.046 33.8849C47.4911 33.2863 48.7262 32.2726 49.5951 30.972C50.4641 29.6714 50.9279 28.1423 50.9278 26.5781C50.9278 25.5396 50.7233 24.5112 50.3258 23.5517C49.9284 22.5922 49.3458 21.7203 48.6114 20.986C47.877 20.2516 47.0052 19.669 46.0457 19.2716C45.0862 18.8742 44.0572 18.6698 43.0186 18.6698ZM10.7263 27.9626L11.9842 31.1584C12.0118 31.2317 12.0603 31.2953 12.1237 31.3415C12.187 31.3876 12.2624 31.4143 12.3407 31.4181L15.7691 31.6274C15.8513 31.6325 15.93 31.6621 15.9951 31.7125C16.0602 31.763 16.1086 31.8318 16.1341 31.9101C16.1595 31.9884 16.1608 32.0725 16.1378 32.1516C16.1147 32.2306 16.0684 32.3009 16.0049 32.3533L13.3552 34.5372C13.294 34.5862 13.2485 34.652 13.2242 34.7265C13.2 34.801 13.1979 34.8809 13.2185 34.9566L14.0792 38.2813C14.0999 38.361 14.096 38.4451 14.0682 38.5226C14.0403 38.6001 13.9898 38.6674 13.9232 38.7158C13.8566 38.7642 13.7769 38.7915 13.6946 38.794C13.6123 38.7965 13.5311 38.7741 13.4617 38.7299L10.5652 36.8841C10.4997 36.8413 10.4231 36.8184 10.3448 36.8184C10.2665 36.8184 10.1899 36.8413 10.1244 36.8841L7.22772 38.7299C7.15827 38.7741 7.07711 38.7965 6.9948 38.794C6.91248 38.7915 6.83283 38.7642 6.7662 38.7158C6.69957 38.6674 6.64905 38.6001 6.62122 38.5226C6.59339 38.4451 6.58953 38.361 6.61016 38.2813L7.47053 34.9561C7.49106 34.8805 7.48905 34.8006 7.46476 34.7261C7.44048 34.6516 7.39496 34.5858 7.33381 34.5368L4.68379 32.3527C4.62027 32.3004 4.57398 32.2301 4.55095 32.151C4.52791 32.072 4.5292 31.9878 4.55464 31.9095C4.58008 31.8312 4.6285 31.7624 4.6936 31.712C4.75869 31.6616 4.83745 31.6319 4.91963 31.6269L8.34799 31.418C8.42627 31.4141 8.50172 31.3875 8.56506 31.3414C8.62841 31.2952 8.67689 31.2316 8.70455 31.1582L9.96236 27.9624C9.99253 27.8858 10.0451 27.82 10.1131 27.7737C10.1812 27.7273 10.2617 27.7025 10.344 27.7025C10.4264 27.7025 10.5068 27.7273 10.5749 27.7737C10.643 27.82 10.6962 27.8859 10.7263 27.9626ZM17.0816 7.02997C15.8993 7.02994 14.7436 7.38049 13.7606 8.03729C12.7776 8.69409 12.0115 9.62763 11.559 10.7199C11.1066 11.8121 10.9882 13.014 11.2188 14.1735C11.4494 15.333 12.0187 16.3981 12.8547 17.2341C13.6906 18.0701 14.7557 18.6394 15.9152 18.8701C17.0748 19.1007 18.2766 18.9824 19.3689 18.5299C20.4611 18.0775 21.3947 17.3114 22.0515 16.3284C22.7084 15.3454 23.0589 14.1897 23.0589 13.0075C23.0589 11.4222 22.4291 9.9018 21.3082 8.78082C20.1872 7.65984 18.6669 7.03004 17.0816 7.02997Z" fill="#F9893D"/>
</svg>
