<svg width="293" height="119" viewBox="0 0 293 119" fill="none" xmlns="http://www.w3.org/2000/svg">
<path d="M4.19399 10.6313C1.35994 9.82866 -0.286855 6.88055 0.515777 4.04649C1.31841 1.21244 4.26653 -0.434352 7.10058 0.36828C9.93463 1.17091 11.5814 4.11903 10.7788 6.95308C9.97616 9.78714 7.02804 11.4339 4.19399 10.6313ZM209.4 8.68144L208.602 9.28372L209.4 8.68144ZM203.014 5.49966L203.014 6.49966L203.014 5.49966ZM290.702 118.102L208.602 9.28372L210.199 8.07916L292.298 116.898L290.702 118.102ZM203.014 6.49966L5.64729 6.49979L5.64728 4.49979L203.014 4.49966L203.014 6.49966ZM208.602 9.28372C207.279 7.53045 205.21 6.49965 203.014 6.49966L203.014 4.49966C205.838 4.49965 208.498 5.82496 210.199 8.07916L208.602 9.28372Z" fill="#D6B88D"/>
</svg>
