<svg width="284" height="120" viewBox="0 0 284 120" fill="none" xmlns="http://www.w3.org/2000/svg">
<path d="M277.047 10.6315C279.881 11.4341 282.829 9.78736 283.632 6.9533C284.434 4.11924 282.787 1.17114 279.953 0.368504C277.119 -0.43413 274.171 1.21265 273.368 4.04671C272.566 6.88078 274.213 9.82888 277.047 10.6315ZM177.542 6.73715L178.076 7.58251L177.542 6.73715ZM181.816 5.5L181.816 4.5L181.816 5.5ZM1.5342 119.144L178.076 7.58251L177.008 5.8918L0.465796 117.454L1.5342 119.144ZM181.816 6.5L278.5 6.50001L278.5 4.50001L181.816 4.5L181.816 6.5ZM178.076 7.58251C179.196 6.87535 180.492 6.49999 181.816 6.5L181.816 4.5C180.114 4.5 178.447 4.9826 177.008 5.8918L178.076 7.58251Z" fill="#D6B88D"/>
</svg>
