<svg width="29" height="538" viewBox="0 0 29 538" fill="none" xmlns="http://www.w3.org/2000/svg">
<path d="M21.5462 10.5878C24.3802 11.3904 27.3283 9.7436 28.1309 6.90957C28.9336 4.07554 27.2868 1.12742 24.4527 0.324789C21.6187 -0.477844 18.6706 1.16895 17.8679 4.00298C17.0653 6.83701 18.7121 9.78513 21.5462 10.5878ZM1.87656 141.299L2.87656 141.299L1.87656 141.299ZM1.87658 13.4551L0.876583 13.4551L1.87658 13.4551ZM9.87731 5.45507L9.8774 4.45509L9.87731 5.45507ZM2.87638 537.502L2.87656 141.299L0.87656 141.299L0.876378 537.502L2.87638 537.502ZM2.87656 141.299L2.87658 13.4551L0.876583 13.4551L0.87656 141.299L2.87656 141.299ZM9.87721 6.45511L22.9994 6.45625L22.9995 4.4563L9.8774 4.45509L9.87721 6.45511ZM2.87658 13.4551C2.87658 9.58883 6.01098 6.45473 9.87721 6.45511L9.8774 4.45509C4.90652 4.45461 0.876585 8.48419 0.876583 13.4551L2.87658 13.4551Z" fill="#D6B88D"/>
</svg>
