<svg width="32" height="167" viewBox="0 0 32 167" fill="none" xmlns="http://www.w3.org/2000/svg">
<path d="M11.3333 161C11.3333 158.054 8.94552 155.667 6 155.667C3.05448 155.667 0.666666 158.054 0.666666 161C0.666666 163.946 3.05448 166.333 6 166.333C8.94552 166.333 11.3333 163.946 11.3333 161ZM32 0.000198364L14 0.000199938L14 2.0002L32 2.0002L32 0.000198364ZM5 9.0002L5 161L7 161L7 9.0002L5 9.0002ZM14 0.000199938C9.02943 0.000200372 5 4.02963 5 9.0002L7 9.0002C7 5.1342 10.134 2.0002 14 2.0002L14 0.000199938Z" fill="#D6B88D"/>
</svg>
