<svg width="55" height="403" viewBox="0 0 55 403" fill="none" xmlns="http://www.w3.org/2000/svg">
<path d="M47.5466 11.1312C50.3806 11.9339 53.3287 10.2871 54.1314 7.45303C54.934 4.61896 53.2872 1.67085 50.4531 0.868213C47.6191 0.0655801 44.671 1.71238 43.8683 4.54644C43.0657 7.3805 44.7125 10.3286 47.5466 11.1312ZM24.4999 5.99974L24.4999 4.99974L24.4998 4.99974L24.4999 5.99974ZM2.50295 402.203L2.50308 13.9999L0.503085 13.9999L0.502945 402.203L2.50295 402.203ZM9.503 6.99992L24.4999 6.99975L24.4998 4.99974L9.50297 4.99994L9.503 6.99992ZM24.4999 6.99974L48.9999 6.99973L48.9999 4.99973L24.4999 4.99974L24.4999 6.99974ZM2.50308 13.9999C2.50309 10.134 5.63704 6.99997 9.503 6.99992L9.50297 4.99994C4.53246 4.99997 0.503083 9.02943 0.503085 13.9999L2.50308 13.9999Z" fill="#D6B88D"/>
</svg>
