<svg width="30" height="614" viewBox="0 0 30 614" fill="none" xmlns="http://www.w3.org/2000/svg">
<path d="M2.08126 603.907C-0.179521 605.795 -0.481618 609.158 1.4065 611.419C3.29463 613.68 6.65797 613.982 8.91875 612.094C11.1795 610.205 11.4816 606.842 9.5935 604.581C7.70538 602.32 4.34204 602.018 2.08126 603.907ZM28.5259 156.5L27.5259 156.5L28.5259 156.5ZM28.5259 600L27.5259 600L28.5259 600ZM20.5259 608L20.5259 607L20.5259 608ZM27.5259 -1.67911e-07L27.5259 156.5L29.5259 156.5L29.5259 1.67911e-07L27.5259 -1.67911e-07ZM27.5259 156.5L27.5259 600L29.5259 600L29.5259 156.5L27.5259 156.5ZM20.5259 607L5.50002 607L5.49999 609L20.5259 609L20.5259 607ZM27.5259 600C27.5259 603.866 24.3919 607 20.5259 607L20.5259 609C25.4964 609 29.5259 604.971 29.5259 600L27.5259 600Z" fill="#D6B88D"/>
</svg>
