<svg width="27" height="158" viewBox="0 0 27 158" fill="none" xmlns="http://www.w3.org/2000/svg">
<path d="M16.5776 8.05114C17.7105 10.7701 20.833 12.0558 23.552 10.9229C26.2709 9.79004 27.5567 6.66751 26.4238 3.94857C25.2909 1.22963 22.1684 -0.0561117 19.4494 1.07678C16.7305 2.20967 15.4447 5.3322 16.5776 8.05114ZM1.50048 13.9999L0.500481 13.9999L1.50048 13.9999ZM9.50043 5.99994L9.50044 6.99994L9.50043 5.99994ZM2.49989 158L2.50048 13.9999L0.500481 13.9999L0.499892 158L2.49989 158ZM9.50044 6.99994L21.5007 6.99986L21.5007 4.99986L9.50042 4.99994L9.50044 6.99994ZM2.50048 13.9999C2.5005 10.1339 5.63447 6.99996 9.50044 6.99994L9.50042 4.99994C4.5299 4.99997 0.5005 9.02937 0.500481 13.9999L2.50048 13.9999Z" fill="#D6B88D"/>
</svg>
