<svg width="38" height="468" viewBox="0 0 38 468" fill="none" xmlns="http://www.w3.org/2000/svg">
<path d="M31.842 457.168C34.7862 457.081 37.2437 459.397 37.3309 462.341C37.4181 465.285 35.102 467.743 32.1578 467.83C29.2135 467.917 26.7561 465.601 26.6689 462.657C26.5817 459.712 28.8977 457.255 31.842 457.168ZM2.4999 -9.17341e-05L2.5 454.499L0.499998 454.499L0.499898 -9.13122e-05L2.4999 -9.17341e-05ZM9.50002 461.499L31.9999 461.499L31.9999 463.499L9.50002 463.499L9.50002 461.499ZM2.5 454.499C2.5 458.365 5.63402 461.499 9.50002 461.499L9.50002 463.499C4.52945 463.499 0.499999 459.469 0.499998 454.499L2.5 454.499Z" fill="#D6B88D"/>
</svg>
