<svg width="69" height="380" viewBox="0 0 69 380" fill="none" xmlns="http://www.w3.org/2000/svg">
<path d="M63.3421 368.669C66.2864 368.582 68.7438 370.898 68.831 373.842C68.9182 376.786 66.6021 379.244 63.6579 379.331C60.7137 379.418 58.2562 377.102 58.169 374.158C58.0818 371.214 60.3979 368.756 63.3421 368.669ZM42.3137 374L42.3137 375L42.3137 374ZM2.49599 0.910548L35.3418 366.626L33.3498 366.805L0.504009 1.08945L2.49599 0.910548ZM42.3137 373L63.5 373L63.5 375L42.3137 375L42.3137 373ZM35.3418 366.626C35.6659 370.235 38.6904 373 42.3137 373L42.3137 375C37.6551 375 33.7665 371.445 33.3498 366.805L35.3418 366.626Z" fill="#D6B88D"/>
</svg>
