<svg width="88" height="384" viewBox="0 0 88 384" fill="none" xmlns="http://www.w3.org/2000/svg">
<path d="M6 373.167C3.05448 373.167 0.666664 375.554 0.666664 378.5C0.666664 381.446 3.05448 383.833 6 383.833C8.94552 383.833 11.3333 381.446 11.3333 378.5C11.3333 375.554 8.94552 373.167 6 373.167ZM46.2751 371.364L45.2809 371.256L46.2751 371.364ZM85.5058 0.892026L45.2809 371.256L47.2692 371.472L87.4942 1.10797L85.5058 0.892026ZM38.3218 377.5H6V379.5H38.3218V377.5ZM45.2809 371.256C44.8951 374.808 41.8953 377.5 38.3218 377.5V379.5C42.9163 379.5 46.7731 376.039 47.2692 371.472L45.2809 371.256Z" fill="#D6B88D"/>
</svg>
