<svg width="45" height="214" viewBox="0 0 45 214" fill="none" xmlns="http://www.w3.org/2000/svg">
<path d="M34.0794 7.55224C35.2123 10.2712 38.3349 11.5569 41.0538 10.424C43.7727 9.29114 45.0585 6.16861 43.9256 3.44967C42.7927 0.730731 39.6702 -0.555014 36.9512 0.577877C34.2323 1.71077 32.9466 4.8333 34.0794 7.55224ZM2.00066 214.002L2.00073 13.5005L0.00072618 13.5005L0.000665496 214.002L2.00066 214.002ZM9.00084 6.50047L39.0025 6.50095L39.0025 4.50095L9.00087 4.50047L9.00084 6.50047ZM2.00073 13.5005C2.00073 9.63442 5.1348 6.50041 9.00084 6.50047L9.00087 4.50047C4.03026 4.50039 0.000730266 8.52983 0.00072618 13.5005L2.00073 13.5005Z" fill="#D6B88D"/>
</svg>
