<svg width="170" height="122" viewBox="0 0 170 122" fill="none" xmlns="http://www.w3.org/2000/svg">
<path d="M9.97907 113.108C8.38073 110.634 5.07934 109.924 2.60519 111.522C0.131041 113.12 -0.578928 116.422 1.01941 118.896C2.61775 121.37 5.91914 122.08 8.39329 120.482C10.8674 118.883 11.5774 115.582 9.97907 113.108ZM101.34 112.174L102.193 112.696L101.34 112.174ZM94.5144 116.002L94.5144 115.002L94.5144 116.002ZM168.147 0.978671L100.487 111.653L102.193 112.696L169.853 2.02186L168.147 0.978671ZM94.5144 115.002L5.49924 115.002L5.49924 117.002L94.5144 117.002L94.5144 115.002ZM100.487 111.653C99.215 113.733 96.9525 115.002 94.5144 115.002L94.5144 117.002C97.6491 117.002 100.558 115.371 102.193 112.696L100.487 111.653Z" fill="#D6B88D"/>
</svg>
