<svg width="112" height="241" viewBox="0 0 112 241" fill="none" xmlns="http://www.w3.org/2000/svg">
<path d="M104.547 11.1313C107.381 11.9339 110.329 10.2872 111.132 7.45309C111.934 4.61903 110.288 1.67091 107.454 0.868279C104.619 0.0656461 101.671 1.71244 100.869 4.5465C100.066 7.38056 101.713 10.3287 104.547 11.1313ZM99.0002 5.9998L99.0002 6.9998L99.0002 5.9998ZM20.3901 13.3368L21.3866 13.4197L20.3901 13.3368ZM2.49656 240.583L21.3866 13.4197L19.3935 13.254L0.503438 240.417L2.49656 240.583ZM28.3626 6.99979L99.0002 6.9998L99.0002 4.9998L28.3626 4.99979L28.3626 6.99979ZM99.0002 6.9998L106 6.9998L106 4.9998L99.0002 4.9998L99.0002 6.9998ZM21.3866 13.4197C21.6884 9.79115 24.7215 6.99979 28.3626 6.99979L28.3626 4.99979C23.6812 4.99979 19.7815 8.58867 19.3935 13.254L21.3866 13.4197Z" fill="#D6B88D"/>
</svg>
