<svg width="153" height="124" viewBox="0 0 153 124" fill="none" xmlns="http://www.w3.org/2000/svg">
<path d="M142.077 8.05055C143.21 10.7695 146.332 12.0552 149.051 10.9224C151.77 9.78946 153.056 6.66693 151.923 3.94799C150.79 1.22905 147.668 -0.0566975 144.949 1.0762C142.23 2.20909 140.944 5.33161 142.077 8.05055ZM60.7517 10.2772L59.8666 9.81192L60.7517 10.2772ZM2.38532 123.465L61.6369 10.7425L59.8666 9.81192L0.614992 122.535L2.38532 123.465ZM67.833 6.99942L147 6.99927L147 4.99927L67.833 4.99942L67.833 6.99942ZM61.6369 10.7425C62.8468 8.4408 65.2328 6.99943 67.833 6.99942L67.833 4.99942C64.4898 4.99943 61.4221 6.85262 59.8666 9.81192L61.6369 10.7425Z" fill="#D6B88D"/>
</svg>
