<svg width="117" height="243" viewBox="0 0 117 243" fill="none" xmlns="http://www.w3.org/2000/svg">
<path d="M4.04673 10.6315C1.21267 9.82887 -0.434113 6.88077 0.368521 4.04671C1.17116 1.21265 4.11926 -0.434135 6.95332 0.3685C9.78738 1.17113 11.4342 4.11924 10.6315 6.9533C9.82889 9.78736 6.88079 11.4341 4.04673 10.6315ZM83.7844 5.5L83.7844 6.5L83.7844 5.5ZM114.505 242.603L90.7473 12.7802L92.7367 12.5745L116.495 242.397L114.505 242.603ZM83.7844 6.5L5.50002 6.5L5.50003 4.5L83.7844 4.5L83.7844 6.5ZM90.7473 12.7802C90.3784 9.2119 87.3717 6.50001 83.7844 6.5L83.7844 4.5C88.3966 4.5 92.2624 7.98673 92.7367 12.5745L90.7473 12.7802Z" fill="#D6B88D"/>
</svg>
