<svg width="118" height="241" viewBox="0 0 118 241" fill="none" xmlns="http://www.w3.org/2000/svg">
<path d="M6 229.667C3.05448 229.667 0.666664 232.054 0.666664 235C0.666664 237.946 3.05448 240.333 6 240.333C8.94552 240.333 11.3333 237.946 11.3333 235C11.3333 232.054 8.94552 229.667 6 229.667ZM116.01 0.855748L82.8968 228.01L84.8759 228.298L117.99 1.14425L116.01 0.855748ZM75.97 234H6V236H75.97V234ZM82.8968 228.01C82.3954 231.449 79.4459 234 75.97 234V236C80.4391 236 84.2312 232.721 84.8759 228.298L82.8968 228.01Z" fill="#D6B88D"/>
</svg>
