<svg width="117" height="240" viewBox="0 0 117 240" fill="none" xmlns="http://www.w3.org/2000/svg">
<path d="M111.473 229.095C114.417 229.008 116.875 231.324 116.962 234.268C117.049 237.212 114.733 239.67 111.789 239.757C108.845 239.844 106.387 237.528 106.3 234.584C106.213 231.64 108.529 229.182 111.473 229.095ZM42.6214 234.333L42.6227 233.333L42.6214 234.333ZM1.98918 0.0193022L35.708 227.36L33.7296 227.653L0.010821 0.312729L1.98918 0.0193022ZM42.6227 233.333L111.632 233.426L111.63 235.426L42.62 235.333L42.6227 233.333ZM35.708 227.36C36.2164 230.788 39.157 233.328 42.6227 233.333L42.62 235.333C38.1641 235.327 34.3833 232.061 33.7296 227.653L35.708 227.36Z" fill="#D6B88D"/>
</svg>
