<svg width="141" height="100" viewBox="0 0 141 100" fill="none" xmlns="http://www.w3.org/2000/svg">
<path d="M80.4844 55.2318H95.6401V20.5391L80.4844 35.9785V55.2318Z" fill="url(#paint0_linear_293_9314)"/>
<path d="M45.1406 55.2318H60.2964V35.9785L45.1406 20.5391V55.2318Z" fill="url(#paint1_linear_293_9314)"/>
<path d="M70.3932 35.9688H65.3594V55.2404H75.427V35.9688H70.3932Z" fill="url(#paint2_linear_293_9314)"/>
<path d="M80.4316 31.4224L95.6416 16.0106L95.6326 0L75.434 20.5522H65.3573L45.1587 0L45.1406 16.0106L60.3507 31.4224H80.4316Z" fill="url(#paint3_linear_293_9314)"/>
<path d="M93.1424 90.023C91.388 88.506 84.4695 87.8493 83.1233 86.7285C80.7234 83.4396 89.3963 83.2698 89.4404 86.5417L94.0472 85.636C92.8665 81.6621 90.268 80.5243 85.8764 80.5074C79.8738 79.7828 75.0077 86.4908 80.2986 90.3797C82.0365 91.5684 86.0364 92.4515 88.6515 93.0912C93.1479 96.063 82.5054 98.1405 82.3289 93.1364L77.4297 93.9233C78.66 100.473 88.4804 101.435 92.5521 97.9764C94.9079 96.0291 95.6085 91.9364 93.1424 90.023Z" fill="#E8E8E8"/>
<path d="M115.944 89.7992C115.629 77.4701 97.042 77.6852 97.0806 90.0539C96.551 103.532 116.661 103.04 115.944 89.7992ZM109.902 93.8976C105.053 98.0695 98.7578 91.4578 103.127 86.7141C108.01 82.5478 114.222 89.1482 109.902 93.8976Z" fill="#E8E8E8"/>
<path d="M125.463 81.5732C125.331 78.9523 127.863 79.3429 129.634 79.7505L130.291 76.2918C122.054 74.169 120.145 77.2484 120.718 85.3546H118.352V90.2172H120.718V99.948H125.458V90.2172H127.824V85.3546H125.458C125.458 85.2357 125.458 81.7714 125.463 81.5789V81.5732Z" fill="#E8E8E8"/>
<path d="M140.589 95.0718C136.44 96.8945 137.394 93.3056 137.3 90.2035H139.678V85.3523H137.3C137.3 83.4956 137.311 77.382 137.267 75.6328L132.578 80.4954V85.358H130.211V90.2092H132.578C132.247 97.5965 132.865 101.757 141.002 99.1758L140.589 95.0774V95.0718Z" fill="#E8E8E8"/>
<path d="M16.0217 75.6641L11.8287 91.7066L7.63015 75.6641H0V99.9373H4.73919V80.521L9.46183 99.9373H14.201L18.9292 80.521V99.9373H23.6683V75.6641H16.0272H16.0217Z" fill="#E8E8E8"/>
<path d="M42.3407 97.2085C41.64 93.9762 42.8372 86.2267 41.5131 83.3114C38.7104 78.7432 28.1507 79.3998 26.7052 85.2417L30.7713 86.7871C31.3892 83.351 37.8498 83.402 37.4029 87.1663C36.0898 87.9022 30.5231 88.6381 28.8569 89.6175C20.4764 95.9462 32.0237 103.882 37.7891 97.6897C37.9436 98.2218 38.2746 99.4671 38.4235 99.8011H43.2069C42.7876 98.8841 42.4952 98.0123 42.3407 97.2028V97.2085ZM37.4029 91.5478C38.5008 96.2801 31.4886 99.1671 30.7713 94.0498C30.672 91.2138 35.6705 91.3383 37.4029 90.5062V91.5478Z" fill="#E8E8E8"/>
<path d="M53.5391 80.5625C51.6357 80.721 50.9571 81.1625 49.7047 83.0928V80.5625H49.6992L44.9766 85.4081V99.9449H49.7158C50.2123 95.7616 47.5255 81.6437 55.2273 85.827C55.5804 84.7967 56.3583 82.5494 56.7225 81.5022C55.7018 80.8738 54.6425 80.5682 53.5391 80.5682V80.5625Z" fill="#E8E8E8"/>
<path d="M67.4719 89.0554L75.7586 80.553H68.9725L63.9189 85.7608V65.9766L59.1797 70.8335V99.941H63.9189V92.6896L64.1285 92.4858L71.389 99.941H78.1199L67.4719 89.0554Z" fill="#E8E8E8"/>
<defs>
<linearGradient id="paint0_linear_293_9314" x1="88.0623" y1="55.066" x2="88.0623" y2="26.8493" gradientUnits="userSpaceOnUse">
<stop stop-color="#F96B31"/>
<stop offset="1" stop-color="#F9893D"/>
</linearGradient>
<linearGradient id="paint1_linear_293_9314" x1="52.7185" y1="55.066" x2="52.7185" y2="26.8493" gradientUnits="userSpaceOnUse">
<stop stop-color="#F96B31"/>
<stop offset="1" stop-color="#F9893D"/>
</linearGradient>
<linearGradient id="paint2_linear_293_9314" x1="70.3932" y1="55.0746" x2="70.3932" y2="26.858" gradientUnits="userSpaceOnUse">
<stop stop-color="#F96B31"/>
<stop offset="1" stop-color="#F9893D"/>
</linearGradient>
<linearGradient id="paint3_linear_293_9314" x1="70.3911" y1="55.0699" x2="70.3911" y2="26.8532" gradientUnits="userSpaceOnUse">
<stop stop-color="#F96B31"/>
<stop offset="1" stop-color="#F9893D"/>
</linearGradient>
</defs>
</svg>
