<svg width="459" height="380" viewBox="0 0 459 380" fill="none" xmlns="http://www.w3.org/2000/svg">
<path d="M374.317 326.574H86.2238L20.6945 110.177H308.776L374.317 326.574Z" fill="url(#paint0_linear_531_56841)"/>
<path d="M262.435 326.889H91.8003C88.0134 326.889 84.9436 329.953 84.9436 333.732V342.27C84.9436 346.049 88.0134 349.113 91.8003 349.113H262.435C266.222 349.113 269.292 346.049 269.292 342.27V333.732C269.292 329.953 266.222 326.889 262.435 326.889Z" fill="url(#paint1_linear_531_56841)"/>
<path d="M135.434 342.452H115.782L114.41 340.563V333.562H136.805V340.563L135.434 342.452Z" fill="#000203"/>
<path d="M174.397 334.355H157.907V341.65H174.397V334.355Z" fill="#000203"/>
<path d="M193.483 334.355H176.902V341.65H193.483V334.355Z" fill="#000203"/>
<path d="M219.402 338.007C219.402 338.604 219.225 339.188 218.892 339.684C218.56 340.181 218.087 340.568 217.534 340.797C216.981 341.025 216.373 341.085 215.786 340.968C215.199 340.852 214.659 340.564 214.236 340.142C213.813 339.72 213.525 339.182 213.408 338.596C213.291 338.01 213.351 337.403 213.58 336.851C213.809 336.299 214.197 335.828 214.695 335.496C215.192 335.164 215.777 334.987 216.376 334.987C217.178 334.99 217.946 335.309 218.512 335.875C219.079 336.441 219.399 337.207 219.402 338.007Z" fill="#000203"/>
<path d="M223.867 341.243C225.538 341.243 226.893 339.891 226.893 338.223C226.893 336.556 225.538 335.204 223.867 335.204C222.196 335.204 220.841 336.556 220.841 338.223C220.841 339.891 222.196 341.243 223.867 341.243Z" fill="#000203"/>
<path d="M435.143 326.889H264.509C260.722 326.889 257.652 329.953 257.652 333.732V342.27C257.652 346.049 260.722 349.113 264.509 349.113H435.143C438.93 349.113 442 346.049 442 342.27V333.732C442 329.953 438.93 326.889 435.143 326.889Z" fill="#00A5FF"/>
<mask id="mask0_531_56841" style="mask-type:luminance" maskUnits="userSpaceOnUse" x="37" y="120" width="321" height="197">
<path d="M357.873 316.509H96.5827L37.1394 120.243H298.429L357.873 316.509Z" fill="white"/>
</mask>
<g mask="url(#mask0_531_56841)">
<path d="M357.873 316.509H96.5827L37.1394 120.243H298.429L357.873 316.509Z" fill="#94D8FF"/>
<path d="M337.019 164.168H16.2518L0.317139 117.46H321.084L337.019 164.168Z" fill="url(#paint2_linear_531_56841)"/>
<path d="M202.617 186.924H80.1379L76.8853 176.146H199.365L202.617 186.924Z" fill="url(#paint3_linear_531_56841)"/>
<path d="M208.42 206.205H85.9404L82.6991 195.416H205.167L208.42 206.205Z" fill="#00C4BD"/>
<path d="M195.228 223.328H109.457L107.632 217.267H193.392L195.228 223.328Z" fill="white"/>
<path d="M311.462 262.64H270.764L245.514 178.814H286.223L311.462 262.64Z" fill="#00C4BD"/>
<path d="M386.636 328.902H65.8689L49.9342 276.019H370.702L386.636 328.902Z" fill="url(#paint4_linear_531_56841)"/>
<path d="M156.377 152.158H58.2645L50.7732 127.243H148.875L156.377 152.158Z" fill="white"/>
</g>
<path d="M244.403 131.609C249.9 134.425 283.673 173.895 339.751 76.9724C348.047 62.6206 368.877 71.3742 364.582 87.151C360.287 102.928 339.275 195.937 260.474 197.543C181.673 199.149 244.403 131.609 244.403 131.609Z" fill="url(#paint5_linear_531_56841)"/>
<path d="M325.822 163.457H384.959C390.081 154.915 392.758 145.136 392.7 135.183C392.7 117.235 381.242 107.576 381.242 89.7185C381.242 71.6233 388.88 61.4447 388.88 61.4447H329.879C324.638 69.9411 321.907 79.7418 322.002 89.7185C322.002 107.576 333.46 117.235 333.46 135.183C333.46 153.131 325.822 163.457 325.822 163.457Z" fill="url(#paint6_linear_531_56841)"/>
<path d="M361.873 53.3469C357.419 53.3469 345.621 58.5041 346.097 61.3654H355.663C356.796 62.4963 361.828 67.4047 367.54 67.4047C373.694 67.4047 376.845 64.86 375.723 61.3654C374.431 57.294 369.353 53.3469 361.873 53.3469Z" fill="#F7B690"/>
<path d="M276.703 200.36C276.703 201.287 276.703 202.237 276.703 203.199C276.703 206.083 276.613 209.125 276.499 212.246C276.409 214.972 276.284 217.811 276.148 220.695C274.527 252.361 269.903 292.239 266.039 316.475H152.819C152.218 296.412 152.898 265.028 148.863 236.946C147.529 226.644 145.137 216.507 141.723 206.693C125.993 164.011 156.343 137.796 162.633 135.308L162.849 135.229C164.911 134.539 169.229 132.967 174.182 130.999C175.825 130.343 177.582 129.63 179.248 128.906C180.381 128.42 181.515 127.934 182.569 127.425C183.623 126.916 184.994 126.294 186.15 125.762C187.521 125.084 188.825 124.417 190.037 123.761C191.979 122.754 193.819 121.565 195.534 120.209C196.071 119.778 196.551 119.28 196.962 118.728C197.285 119.241 197.637 119.736 198.016 120.209L198.288 120.549C199.787 122.344 201.432 124.012 203.207 125.536C204.147 126.362 205.167 127.199 206.233 128.002C211.831 132.231 218.597 135.918 223.403 135.715C226.44 135.602 228.684 133.962 229.387 129.992C229.589 128.79 229.657 127.568 229.591 126.351C229.602 126.143 229.602 125.936 229.591 125.729C232.05 125.723 234.506 125.915 236.935 126.305C238.335 126.536 239.72 126.849 241.083 127.244C241.321 127.334 241.536 127.402 241.74 127.459C243.022 127.847 244.266 128.351 245.457 128.963C245.509 128.972 245.556 128.995 245.593 129.031C246.183 129.359 246.477 129.551 246.477 129.551C250.471 132.451 254.101 135.819 257.289 139.583C265.937 149.682 275.309 166.726 276.556 194.095C276.556 194.66 276.613 195.226 276.635 195.814C276.669 197.273 276.703 198.799 276.703 200.36Z" fill="url(#paint7_linear_531_56841)"/>
<path d="M199.977 83.1373C199.183 86.2927 202.051 99.7736 201.19 110.461C201.035 113.237 200.426 115.968 199.387 118.547C198.974 119.527 198.421 120.441 197.744 121.262C190.491 129.959 220.921 147.636 224.616 147.477C228.31 147.319 233.682 135.715 232.447 131.112C231.472 127.584 225.499 133.94 224.219 124.01C223.923 121.23 223.881 118.429 224.094 115.641C224.196 113.865 224.378 111.886 224.616 109.658C227.8 80.5927 199.977 83.1373 199.977 83.1373Z" fill="#F59D83"/>
<path d="M241.706 128.929C241.627 129.857 241.14 134.233 240.335 140.465C240.326 140.487 240.326 140.511 240.335 140.533C237.581 161.806 231.268 204.409 226.848 203.866C222.428 203.323 200.408 155.812 193.188 134.98C191.341 129.676 190.446 126.102 191.024 125.48C191.024 125.48 196.509 125.412 203.876 125.48C210.302 132.673 221.17 139.571 222.904 140.08C223.505 138.949 223.528 130.546 223.97 125.955C233.716 126.452 241.82 127.312 241.706 128.929Z" fill="#007F83"/>
<path d="M217.962 140.645C215.9 142.308 214.12 150.892 214.562 152.871C215.004 154.85 221.498 164.949 223.629 165.311C225.782 164 229.885 163.694 231.438 165.051C232.718 163.377 235.325 154.511 234.656 151.174C233.988 147.838 231.982 141.799 229.76 140.611C227.539 139.424 217.962 140.645 217.962 140.645Z" fill="url(#paint8_linear_531_56841)"/>
<path d="M228.684 205.471C228.684 205.697 218.314 186.245 219.458 181.201C221.612 171.881 223.844 164.101 223.844 163.908C223.844 163.908 227.845 160.425 230.78 163.908C231.664 164.96 233.308 168.941 235.144 174.087C235.926 176.349 236.764 178.735 237.58 181.246C234.067 191.13 230.497 200.913 228.684 205.471Z" fill="url(#paint9_linear_531_56841)"/>
<path d="M222.893 140.397C222.734 143.021 215.469 150.135 212.398 157.011C211.015 154.364 200.509 143.439 193.131 135.036C188.507 129.778 185.198 125.525 186.15 125.005C189.346 124.688 198.447 115.641 199.353 118.547C200.353 121.148 201.872 123.518 203.819 125.514C210.245 132.707 221.113 139.606 222.847 140.114C222.874 140.206 222.89 140.301 222.893 140.397Z" fill="#00C4BD"/>
<path d="M240.335 140.476C240.326 140.497 240.326 140.522 240.335 140.543C239.326 146.843 238.068 152.984 237.173 152.871C235.597 152.712 223.652 142.692 222.915 140.43C222.893 140.383 222.881 140.33 222.881 140.278C222.881 140.225 222.893 140.173 222.915 140.125C223.516 138.994 223.539 130.591 223.981 125.999C224.035 125.335 224.126 124.675 224.253 124.02C224.921 122.889 239.711 126.576 241.74 127.232C241.967 128.25 241.287 134.448 240.335 140.476Z" fill="#00C4BD"/>
<path d="M278.856 198.03C279.332 196.142 302.135 176.542 304.164 177.413C306.192 178.284 299.03 186.461 297.84 189.333C296.65 192.206 303.212 204.228 285.543 211.726C267.874 219.224 278.856 198.03 278.856 198.03Z" fill="url(#paint10_linear_531_56841)"/>
<path d="M178.568 168.75C180.268 156.309 168.119 133.442 162.86 135.262C85.1929 162.168 139.774 328.655 286.258 213.072C289.046 210.878 281.486 192.342 279.333 192.964C274.516 194.343 172.8 242.149 172.8 191.392C172.834 179.483 177.537 176.225 178.568 168.75Z" fill="url(#paint11_linear_531_56841)"/>
<path d="M193.619 253.787C178.477 253.787 167.28 249.591 159.879 245.406C138.142 233.113 125.12 207.463 127.477 181.587C129.517 159.318 142.698 141.879 162.747 134.935C163.755 134.596 165.013 134.992 166.362 136.122C172.119 140.827 180.325 158.402 178.908 168.807C178.458 171.494 177.634 174.105 176.46 176.565C174.234 181.189 173.109 186.263 173.173 191.392C173.173 199.806 176.052 205.993 181.707 209.759C196.01 219.281 227.437 214.079 275.105 194.287C277.372 193.349 278.743 192.783 279.242 192.636C279.329 192.611 279.423 192.621 279.503 192.664C279.582 192.708 279.642 192.781 279.667 192.868C279.693 192.955 279.683 193.049 279.639 193.128C279.595 193.208 279.522 193.267 279.435 193.292C278.97 193.428 277.542 194.016 275.366 194.921C227.483 214.803 195.84 219.983 181.299 210.324C175.44 206.422 172.471 200.055 172.471 191.392C172.414 186.172 173.554 181.008 175.803 176.294C176.96 173.891 177.769 171.336 178.205 168.705C179.599 158.527 171.553 141.268 165.909 136.654C165.081 135.987 163.903 135.252 162.951 135.523C143.163 142.388 130.152 159.601 128.146 181.587C125.8 207.203 138.686 232.581 160.185 244.75C177.469 254.533 215.594 264.293 276.749 219.79C276.823 219.736 276.915 219.712 277.006 219.725C277.097 219.738 277.18 219.785 277.236 219.858C277.29 219.933 277.311 220.027 277.297 220.118C277.282 220.209 277.231 220.29 277.157 220.344C241.842 246.108 214.109 253.787 193.619 253.787Z" fill="#B0E6FF"/>
<path d="M232.639 40.3984C227.834 38.9734 205.258 45.0127 202.3 54.5353C199.342 64.058 200.135 68.8419 200.135 68.8419C200.135 68.8419 190.74 62.4859 190.74 76.9395C190.74 91.3931 199.806 84.8562 199.806 84.8562C199.806 84.8562 197.97 104.84 227.006 113.447C243.36 118.287 257.606 59.5907 253.912 52.7597C250.217 45.9288 232.639 40.3984 232.639 40.3984Z" fill="#F7B690"/>
<path d="M240.743 16.7275C232.537 15.5965 217.487 17.0441 212.715 27.2114C211.038 30.9888 188.915 38.0233 188.915 53.506C188.915 68.9888 191.182 71.6013 191.669 70.5947C192.157 69.5882 194.095 65.3471 200.101 68.8418C206.108 72.3364 205.394 75.3108 205.394 75.3108C205.394 75.3108 213.395 70.3007 212.194 63.1531C210.993 56.0054 228.423 64.4763 236.311 54.8179C240.697 59.3418 247.055 60.8912 249.798 57.4417C255.646 58.7537 265.438 68.1632 273.439 54.5804C281.441 40.9977 267.75 33.7257 262.933 31.2263C258.117 28.7269 250.387 18.0959 240.743 16.7275Z" fill="url(#paint12_linear_531_56841)"/>
<path d="M228.741 206.117C228.933 211.591 223.482 206.196 216.455 196.866C203.887 180.229 186.173 151.039 186.354 149.219C186.603 146.357 189.459 142.58 192.021 140.114C194.582 137.649 182.342 143.937 180.563 140.114C175.383 128.997 180.347 128.081 181.424 127.493C182.501 126.905 189.618 123.241 189.618 123.241C190.615 124.168 207.683 157.169 219.459 181.202C224.173 190.826 227.743 199.365 228.525 204.443C228.525 204.805 228.616 205.144 228.639 205.472C228.689 205.684 228.723 205.9 228.741 206.117Z" fill="url(#paint13_linear_531_56841)"/>
<path d="M249.844 144.388C245.832 145.067 240.777 141.527 243.316 143.992C245.555 146.217 246.891 149.19 247.067 152.339C247.271 154.68 223.664 221.644 228.594 204.442C235.394 181.382 240.426 134.323 241.162 126.779C242.685 127.306 244.133 128.029 245.469 128.928C245.518 128.941 245.565 128.965 245.605 128.996C246.704 129.686 252.076 140.803 249.844 144.388Z" fill="url(#paint14_linear_531_56841)"/>
<path d="M171.405 143.417C169.535 148.099 170.521 155.744 174.375 168.173C178.081 180.173 181.481 191.143 181.481 191.143L180.223 191.527L173.117 168.513C169.365 156.377 168.402 148.483 170.079 143.779L171.405 143.417Z" fill="#024294"/>
<path d="M177.933 141.37C182.115 144.186 185.617 151.051 189.459 163.48C193.165 175.479 196.565 186.461 196.565 186.461L197.823 186.076L190.717 163.095C186.966 150.972 183.294 143.869 179.248 140.963L177.933 141.37Z" fill="#024294"/>
<path d="M178.33 185.408C178.783 186.855 180.223 191.526 180.223 191.526C180.223 191.526 176.415 192.521 175.939 191.04C175.463 189.558 178.035 186.833 178.33 185.408Z" fill="#024294"/>
<path d="M195.942 179.969C196.407 181.417 197.846 186.11 197.846 186.11C197.846 186.11 201.586 184.753 201.133 183.272C200.679 181.79 196.996 180.953 195.942 179.969Z" fill="#024294"/>
<path d="M259.692 157.949C259.364 157.123 259.001 156.297 258.616 155.472C257.06 152.025 255.277 148.685 253.278 145.474C252.326 143.966 251.347 142.5 250.342 141.075C248.265 138.112 245.993 135.29 243.542 132.627C242.93 131.959 242.296 131.292 241.661 130.647L241.582 130.568L240.879 129.856C239.972 128.958 239.054 128.099 238.125 127.277L236.992 126.271L236.493 125.863C234.085 123.8 231.532 121.91 228.854 120.209C227.268 119.206 225.677 118.294 224.083 117.472C216.331 113.491 208.409 111.579 201.076 112.077C196.312 112.37 191.692 113.826 187.624 116.318C185.839 117.447 184.173 118.75 182.648 120.209C179.333 123.382 176.493 127.016 174.216 130.998C172.424 134.062 171.001 137.327 169.978 140.724C169.385 142.683 168.979 144.694 168.765 146.729C168.765 146.729 169.105 146.356 169.638 145.825C170.088 145.381 170.569 144.969 171.077 144.592C171.367 144.36 171.669 144.145 171.984 143.947C173.289 143.043 174.779 142.439 176.347 142.177C177.914 141.915 179.52 142.002 181.05 142.432C181.434 142.528 181.812 142.645 182.184 142.782C180.722 140.453 179.543 138.541 179.237 136.404C179.115 135.461 179.161 134.504 179.373 133.577C180.037 131.317 181.168 129.221 182.694 127.424C182.954 127.096 183.226 126.768 183.532 126.429C185.498 124.153 187.789 122.179 190.332 120.571C190.533 120.439 190.742 120.318 190.956 120.209C193.759 118.555 196.864 117.475 200.09 117.031C206.684 116.276 213.357 117.377 219.357 120.209C221.025 120.938 222.651 121.757 224.23 122.663C224.876 123.025 225.511 123.409 226.146 123.794C227.347 124.54 228.56 125.366 229.738 126.259C233.604 129.103 237.146 132.36 240.301 135.974L240.528 136.223L240.947 136.721C240.976 136.741 240.999 136.768 241.015 136.8C243.012 139.13 244.863 141.582 246.557 144.14C246.965 144.75 247.362 145.361 247.747 145.994C249.999 149.589 251.933 153.374 253.527 157.304C253.856 158.096 254.162 158.876 254.434 159.668C254.921 160.923 255.329 162.167 255.714 163.422C255.714 163.241 261.381 161.963 261.381 161.771C260.735 160.527 260.236 159.238 259.692 157.949Z" fill="url(#paint15_linear_531_56841)"/>
<path d="M266.548 163.48C266.548 165.064 266.078 166.612 265.196 167.929C264.314 169.245 263.061 170.272 261.595 170.878C260.129 171.484 258.515 171.642 256.959 171.333C255.402 171.024 253.973 170.262 252.851 169.142C251.728 168.022 250.964 166.595 250.655 165.042C250.345 163.489 250.504 161.879 251.111 160.416C251.718 158.953 252.747 157.702 254.066 156.822C255.386 155.942 256.937 155.473 258.524 155.473C260.652 155.473 262.693 156.316 264.198 157.818C265.703 159.32 266.548 161.356 266.548 163.48Z" fill="#024294"/>
<path d="M264.203 163.48C264.203 164.598 263.87 165.692 263.248 166.622C262.625 167.552 261.74 168.276 260.705 168.704C259.669 169.132 258.53 169.244 257.431 169.026C256.331 168.808 255.322 168.269 254.529 167.479C253.737 166.688 253.197 165.68 252.978 164.583C252.76 163.486 252.872 162.349 253.301 161.316C253.73 160.283 254.456 159.4 255.388 158.778C256.32 158.157 257.415 157.825 258.536 157.825C260.039 157.825 261.48 158.421 262.543 159.482C263.606 160.542 264.203 161.98 264.203 163.48Z" fill="#586DBD"/>
<path d="M201.189 110.461C201.035 113.236 200.426 115.968 199.387 118.547C198.945 119.565 225.454 133.939 224.219 124.009C223.922 121.229 223.881 118.428 224.094 115.64C224.196 113.865 202.051 99.7732 201.189 110.461Z" fill="#F59D83"/>
<path d="M377.219 78.2396H329.868C329.692 78.2563 329.515 78.2361 329.347 78.1803C329.179 78.1245 329.025 78.0343 328.894 77.9156C328.763 77.7969 328.659 77.6522 328.587 77.4909C328.516 77.3295 328.479 77.1551 328.479 76.9786C328.479 76.8022 328.516 76.6277 328.587 76.4664C328.659 76.305 328.763 76.1604 328.894 76.0417C329.025 75.9229 329.179 75.8328 329.347 75.777C329.515 75.7212 329.692 75.701 329.868 75.7176H377.219C377.533 75.7474 377.825 75.8931 378.038 76.1263C378.251 76.3595 378.368 76.6634 378.368 76.9786C378.368 77.2939 378.251 77.5978 378.038 77.831C377.825 78.0642 377.533 78.2099 377.219 78.2396Z" fill="white"/>
<path d="M375.949 91.3914H328.599C328.423 91.408 328.245 91.3878 328.077 91.332C327.91 91.2762 327.756 91.1861 327.625 91.0674C327.494 90.9487 327.39 90.804 327.318 90.6426C327.247 90.4813 327.21 90.3068 327.21 90.1304C327.21 89.954 327.247 89.7795 327.318 89.6181C327.39 89.4568 327.494 89.3121 327.625 89.1934C327.756 89.0747 327.91 88.9845 328.077 88.9287C328.245 88.8729 328.423 88.8527 328.599 88.8694H375.949C376.125 88.8527 376.303 88.8729 376.471 88.9287C376.638 88.9845 376.793 89.0747 376.923 89.1934C377.054 89.3121 377.159 89.4568 377.23 89.6181C377.302 89.7795 377.339 89.954 377.339 90.1304C377.339 90.3068 377.302 90.4813 377.23 90.6426C377.159 90.804 377.054 90.9487 376.923 91.0674C376.793 91.1861 376.638 91.2762 376.471 91.332C376.303 91.3878 376.125 91.408 375.949 91.3914Z" fill="white"/>
<path d="M377.219 104.556H329.868C329.692 104.573 329.515 104.553 329.347 104.497C329.179 104.441 329.025 104.351 328.894 104.232C328.763 104.114 328.659 103.969 328.587 103.808C328.516 103.646 328.479 103.472 328.479 103.295C328.479 103.119 328.516 102.944 328.587 102.783C328.659 102.622 328.763 102.477 328.894 102.358C329.025 102.24 329.179 102.15 329.347 102.094C329.515 102.038 329.692 102.018 329.868 102.034H377.219C377.533 102.064 377.825 102.21 378.038 102.443C378.251 102.676 378.368 102.98 378.368 103.295C378.368 103.611 378.251 103.915 378.038 104.148C377.825 104.381 377.533 104.527 377.219 104.556Z" fill="white"/>
<path d="M382.273 117.72H334.923C334.586 117.72 334.263 117.587 334.025 117.349C333.787 117.112 333.653 116.79 333.653 116.454C333.653 116.118 333.787 115.796 334.025 115.558C334.263 115.321 334.586 115.187 334.923 115.187H382.273C382.61 115.187 382.933 115.321 383.171 115.558C383.409 115.796 383.543 116.118 383.543 116.454C383.543 116.79 383.409 117.112 383.171 117.349C382.933 117.587 382.61 117.72 382.273 117.72Z" fill="white"/>
<path d="M386.07 130.873H338.719C338.405 130.843 338.113 130.698 337.9 130.464C337.687 130.231 337.57 129.927 337.57 129.612C337.57 129.297 337.687 128.993 337.9 128.76C338.113 128.527 338.405 128.381 338.719 128.351H386.07C386.246 128.334 386.423 128.355 386.591 128.41C386.759 128.466 386.913 128.556 387.044 128.675C387.174 128.794 387.279 128.939 387.35 129.1C387.422 129.261 387.459 129.436 387.459 129.612C387.459 129.789 387.422 129.963 387.35 130.124C387.279 130.286 387.174 130.43 387.044 130.549C386.913 130.668 386.759 130.758 386.591 130.814C386.423 130.87 386.246 130.89 386.07 130.873Z" fill="white"/>
<path d="M386.07 144.037H338.719C338.383 144.037 338.06 143.904 337.822 143.666C337.584 143.429 337.45 143.106 337.45 142.77C337.45 142.435 337.584 142.112 337.822 141.875C338.06 141.637 338.383 141.504 338.719 141.504H386.07C386.407 141.504 386.729 141.637 386.967 141.875C387.206 142.112 387.339 142.435 387.339 142.77C387.339 143.106 387.206 143.429 386.967 143.666C386.729 143.904 386.407 144.037 386.07 144.037Z" fill="white"/>
<path d="M383.542 157.203H336.192C336.016 157.22 335.838 157.2 335.67 157.144C335.503 157.088 335.349 156.998 335.218 156.879C335.087 156.76 334.983 156.616 334.911 156.454C334.84 156.293 334.803 156.118 334.803 155.942C334.803 155.766 334.84 155.591 334.911 155.43C334.983 155.268 335.087 155.124 335.218 155.005C335.349 154.886 335.503 154.796 335.67 154.74C335.838 154.685 336.016 154.664 336.192 154.681H383.542C383.718 154.664 383.896 154.685 384.064 154.74C384.231 154.796 384.386 154.886 384.516 155.005C384.647 155.124 384.752 155.268 384.823 155.43C384.895 155.591 384.932 155.766 384.932 155.942C384.932 156.118 384.895 156.293 384.823 156.454C384.752 156.616 384.647 156.76 384.516 156.879C384.386 156.998 384.231 157.088 384.064 157.144C383.896 157.2 383.718 157.22 383.542 157.203Z" fill="white"/>
<defs>
<linearGradient id="paint0_linear_531_56841" x1="197.506" y1="326.574" x2="197.506" y2="110.177" gradientUnits="userSpaceOnUse">
<stop stop-color="#68C9FF"/>
<stop offset="1" stop-color="#00A5FF"/>
</linearGradient>
<linearGradient id="paint1_linear_531_56841" x1="84.9436" y1="338.007" x2="269.292" y2="338.007" gradientUnits="userSpaceOnUse">
<stop stop-color="#68C9FF"/>
<stop offset="1" stop-color="#00A5FF"/>
</linearGradient>
<linearGradient id="paint2_linear_531_56841" x1="168.674" y1="164.168" x2="168.674" y2="117.46" gradientUnits="userSpaceOnUse">
<stop stop-color="#00AAFF"/>
<stop offset="1" stop-color="#004882"/>
</linearGradient>
<linearGradient id="paint3_linear_531_56841" x1="139.751" y1="186.924" x2="139.751" y2="176.146" gradientUnits="userSpaceOnUse">
<stop stop-color="#00AAFF"/>
<stop offset="1" stop-color="#004882"/>
</linearGradient>
<linearGradient id="paint4_linear_531_56841" x1="218.291" y1="328.902" x2="218.291" y2="276.019" gradientUnits="userSpaceOnUse">
<stop stop-color="#00AAFF"/>
<stop offset="1" stop-color="#004882"/>
</linearGradient>
<linearGradient id="paint5_linear_531_56841" x1="233.659" y1="137.795" x2="341.993" y2="131.526" gradientUnits="userSpaceOnUse">
<stop offset="0.07" stop-color="white"/>
<stop offset="0.25" stop-color="#F9FDFF"/>
<stop offset="0.5" stop-color="#E8F8FF"/>
<stop offset="0.78" stop-color="#CCEFFF"/>
<stop offset="1" stop-color="#B0E6FF"/>
</linearGradient>
<linearGradient id="paint6_linear_531_56841" x1="356.41" y1="59.7483" x2="358.329" y2="168.342" gradientUnits="userSpaceOnUse">
<stop stop-color="#00394F"/>
<stop offset="1" stop-color="#00BCFF"/>
</linearGradient>
<linearGradient id="paint7_linear_531_56841" x1="203.422" y1="129.178" x2="214.471" y2="320.922" gradientUnits="userSpaceOnUse">
<stop offset="0.07" stop-color="white"/>
<stop offset="1" stop-color="#B0E6FF"/>
</linearGradient>
<linearGradient id="paint8_linear_531_56841" x1="223.062" y1="141.064" x2="231.697" y2="203.531" gradientUnits="userSpaceOnUse">
<stop stop-color="#FF7000"/>
<stop offset="0.96" stop-color="#FFB464"/>
</linearGradient>
<linearGradient id="paint9_linear_531_56841" x1="222.813" y1="141.097" x2="231.436" y2="203.564" gradientUnits="userSpaceOnUse">
<stop stop-color="#FF7000"/>
<stop offset="0.96" stop-color="#FFB464"/>
</linearGradient>
<linearGradient id="paint10_linear_531_56841" x1="275.479" y1="195.361" x2="304.526" y2="195.361" gradientUnits="userSpaceOnUse">
<stop stop-color="#F7B690"/>
<stop offset="1" stop-color="#F59D83"/>
</linearGradient>
<linearGradient id="paint11_linear_531_56841" x1="203.139" y1="129.856" x2="215.61" y2="346.075" gradientUnits="userSpaceOnUse">
<stop offset="0.07" stop-color="white"/>
<stop offset="1" stop-color="#B0E6FF"/>
</linearGradient>
<linearGradient id="paint12_linear_531_56841" x1="188.949" y1="45.8495" x2="275.933" y2="45.8495" gradientUnits="userSpaceOnUse">
<stop stop-color="#00AAFF"/>
<stop offset="1" stop-color="#004882"/>
</linearGradient>
<linearGradient id="paint13_linear_531_56841" x1="196.327" y1="171.487" x2="209.929" y2="165.211" gradientUnits="userSpaceOnUse">
<stop stop-color="#B0E6FF"/>
<stop offset="0.22" stop-color="#CCEFFF"/>
<stop offset="0.5" stop-color="#E8F8FF"/>
<stop offset="0.75" stop-color="#F9FDFF"/>
<stop offset="0.93" stop-color="white"/>
</linearGradient>
<linearGradient id="paint14_linear_531_56841" x1="227.891" y1="167.019" x2="250.388" y2="167.019" gradientUnits="userSpaceOnUse">
<stop offset="0.07" stop-color="white"/>
<stop offset="0.25" stop-color="#F9FDFF"/>
<stop offset="0.5" stop-color="#E8F8FF"/>
<stop offset="0.78" stop-color="#CCEFFF"/>
<stop offset="1" stop-color="#B0E6FF"/>
</linearGradient>
<linearGradient id="paint15_linear_531_56841" x1="168.697" y1="137.75" x2="261.2" y2="137.75" gradientUnits="userSpaceOnUse">
<stop stop-color="#586DBD"/>
<stop offset="1" stop-color="#024294"/>
</linearGradient>
</defs>
</svg>
