<svg width="207" height="181" viewBox="0 0 207 181" fill="none" xmlns="http://www.w3.org/2000/svg">
<g clip-path="url(#clip0_1381_28065)">
<path d="M206.118 51.488C206.118 23.053 183.065 0 154.628 0C140.409 0 127.547 5.771 118.232 15.089L118.221 15.078L110.143 23.156L110.12 23.133L103.115 30.137L97.1172 36.134L81.2302 52.022L62.4512 70.802C71.2562 79.607 86.1992 78.94 95.7762 69.363C96.2602 68.877 97.2302 67.847 97.1942 67.811L97.2602 67.877L119.058 46.08L119.928 45.21C126.679 51.351 135.321 54.498 143.852 54.498H193.009V85.408L182.181 96.753L191.036 87.898L191.024 87.886C200.345 78.571 206.118 65.709 206.118 51.488Z" fill="#4D99CF"/>
<path d="M193.01 54.4989H143.853C135.322 54.4989 126.68 51.3519 119.929 45.2109L119.059 46.0809L173.076 100.099C173.259 100.329 173.422 100.552 173.58 100.774C174.334 101.588 174.968 102.49 175.482 103.456L182.182 96.7549L193.01 85.4099V54.4989Z" fill="#F9AE62"/>
<path d="M193.01 54.4989H143.853C135.322 54.4989 126.68 51.3519 119.929 45.2109L119.059 46.0809L173.076 100.099C173.259 100.329 173.422 100.552 173.58 100.774C174.334 101.588 174.968 102.49 175.482 103.456L182.182 96.7549L193.01 85.4099V54.4989Z" fill="#538CB5"/>
<path d="M85.6204 161.222C85.8644 160.984 86.1134 160.757 86.3684 160.543L86.2904 160.469C86.0764 160.722 85.8464 160.968 85.6094 161.211L85.6204 161.222Z" fill="#F89624"/>
<path d="M103.379 161.372C98.6984 156.689 91.4994 156.221 86.3684 160.545C86.1134 160.759 85.8644 160.985 85.6204 161.224C85.5814 161.261 85.5404 161.292 85.5024 161.33C85.5404 161.292 85.5724 161.251 85.6094 161.213C85.8464 160.97 86.0764 160.724 86.2904 160.471C89.0874 157.154 89.9024 152.952 88.8684 149.134C88.5014 147.779 87.9044 146.471 87.0764 145.269C86.6024 144.55 86.0664 143.853 85.4374 143.222C80.8364 138.62 73.7574 138.132 68.6344 142.228C72.7234 137.109 72.2554 130.013 67.6604 125.42C67.0234 124.778 66.3314 124.226 65.6014 123.745C60.7134 120.403 54.1194 120.784 49.5804 125.323C54.7394 120.165 54.4464 112.434 49.4994 107.489C45.1224 103.11 38.3814 102.575 33.3694 106.026C32.7154 106.477 32.0864 106.988 31.5004 107.575L31.5294 107.604C30.6834 108.452 30.1164 111.27 31.5054 112.661L49.5514 130.705L80.1644 161.317L97.7574 178.665C99.5074 180.998 102.507 179.974 102.507 179.974L103.295 179.37C104.08 178.585 104.728 177.724 105.269 176.823C105.292 176.783 105.318 176.743 105.341 176.702C108.219 171.788 107.528 165.518 103.379 161.372Z" fill="#4D99CF"/>
<path opacity="0.5" d="M155.654 138.511L155.643 138.5C155.61 138.534 155.581 138.571 155.547 138.605C155.582 138.573 155.62 138.544 155.654 138.511Z" fill="url(#paint0_linear_1381_28065)"/>
<path opacity="0.5" d="M123.655 159.224C123.854 159.304 124.056 159.371 124.259 159.442C124.064 159.369 123.871 159.285 123.679 159.201L123.655 159.224Z" fill="url(#paint1_linear_1381_28065)"/>
<path opacity="0.5" d="M173.245 120.542C173.36 120.44 173.477 120.353 173.592 120.247L173.564 120.219C173.511 120.275 173.466 120.336 173.413 120.39C173.36 120.444 173.3 120.49 173.245 120.542Z" fill="url(#paint2_linear_1381_28065)"/>
<path d="M175.593 103.655C175.558 103.587 175.517 103.521 175.481 103.454C174.966 102.488 174.333 101.587 173.579 100.772C173.421 100.55 173.258 100.328 173.075 100.097L119.058 46.08L97.2601 67.876L97.1941 67.81C97.2301 67.846 96.2601 68.876 95.7761 69.362C86.1991 78.939 71.2561 79.606 62.4511 70.801L81.2301 52.022L97.1171 36.133L103.115 30.136L90.4531 17.475L90.3651 17.563C80.9271 6.803 67.0871 0 51.6501 0C23.2141 0 0.162109 23.053 0.162109 51.488C0.162109 66.925 6.96511 80.765 17.7241 90.203L17.6361 90.291L33.3701 106.025C38.3821 102.574 45.1231 103.109 49.5001 107.488C54.4471 112.433 54.7401 120.164 49.5811 125.322C54.1201 120.783 60.7141 120.402 65.6021 123.744C66.3321 124.224 67.0231 124.777 67.6611 125.419C72.2561 130.012 72.7241 137.107 68.6351 142.227C73.7581 138.131 80.8371 138.62 85.4381 143.221C86.0671 143.852 86.6031 144.549 87.0771 145.268C87.9041 146.47 88.5021 147.778 88.8691 149.133C89.9031 152.951 89.0881 157.153 86.2911 160.47L86.3691 160.544C91.5001 156.22 98.6991 156.689 103.38 161.371C107.529 165.517 108.219 171.787 105.343 176.701C106.829 177.457 108.364 177.896 109.892 178.023C111.749 178.13 113.607 177.824 115.34 177.097C115.461 177.043 115.581 176.986 115.701 176.927C115.845 176.862 115.988 176.792 116.131 176.72C117.353 176.107 118.503 175.294 119.528 174.269C123.295 170.507 124.349 165.131 122.376 160.503L123.655 159.224L123.678 159.201C123.87 159.285 124.063 159.369 124.258 159.442C124.461 159.512 124.664 159.585 124.87 159.645C124.948 159.669 125.026 159.696 125.105 159.719C125.419 159.806 125.737 159.878 126.055 159.943C129.35 160.638 132.814 159.986 135.679 158.013C136.398 157.54 137.103 157.013 137.734 156.384C141.533 152.586 142.521 147.106 140.451 142.428L141.389 141.49L141.574 141.306C142.335 141.643 143.114 141.904 143.907 142.08C148.169 142.694 152.603 141.479 155.548 138.605C155.582 138.571 155.61 138.534 155.644 138.5C156.24 137.893 156.769 137.245 157.217 136.558C159.675 132.963 160.112 128.453 158.371 124.51L159.623 123.258C164.186 125.234 169.469 124.198 173.245 120.542C173.3 120.489 173.358 120.443 173.412 120.39C173.466 120.337 173.511 120.275 173.563 120.219C177.489 116.129 178.326 109.007 175.593 103.655Z" fill="#0B3E51"/>
<path opacity="0.5" d="M91.251 146.75L88.868 149.133C89.902 152.951 89.087 157.153 86.29 160.47L86.368 160.544C91.499 156.22 98.698 156.689 103.379 161.371C107.528 165.517 108.218 171.787 105.342 176.701C106.828 177.457 108.363 177.896 109.891 178.023C111.748 178.13 113.606 177.824 115.339 177.097C115.46 177.043 115.58 176.986 115.7 176.927C115.844 176.862 115.987 176.792 116.13 176.72C117.179 176.155 118.176 175.414 119.092 174.497L91.251 146.75Z" fill="#538CB5"/>
<path opacity="0.5" d="M118.706 120.448L135.843 137.998C136.034 138.212 135.728 137.974 135.934 138.177C137.501 139.745 139.387 140.832 141.39 141.491L141.575 141.307C142.336 141.644 143.115 141.905 143.908 142.081C148.17 142.695 152.604 141.48 155.549 138.606C155.583 138.572 155.611 138.535 155.645 138.501L128.149 111.006L118.706 120.448Z" fill="#538CB5"/>
<path opacity="0.5" d="M137.676 156.414L110.853 129.453L101.412 138.895L118.161 155.645C118.351 155.86 117.888 155.291 118.093 155.497C119.758 157.163 121.654 158.426 123.656 159.224L123.679 159.201C123.871 159.285 124.064 159.369 124.259 159.442C124.462 159.512 124.665 159.585 124.871 159.645C124.949 159.669 125.027 159.696 125.106 159.719C125.42 159.806 125.738 159.878 126.056 159.943C129.977 160.731 134.122 159.727 137.676 156.414Z" fill="#538CB5"/>
<path opacity="0.5" d="M137.411 102.895L154.16 119.645C154.35 119.86 153.887 119.291 154.092 119.497C159.465 124.873 167.132 125.941 173.245 120.542C173.3 120.489 173.358 120.443 173.412 120.39C173.466 120.337 173.511 120.275 173.563 120.219L146.852 93.4531L137.411 102.895Z" fill="#538CB5"/>
</g>
<defs>
<linearGradient id="paint0_linear_1381_28065" x1="128.242" y1="111.204" x2="154.848" y2="137.813" gradientUnits="userSpaceOnUse">
<stop stop-color="#F89624"/>
<stop offset="1" stop-color="#F9AE62"/>
</linearGradient>
<linearGradient id="paint1_linear_1381_28065" x1="102.609" y1="137.985" x2="128.622" y2="163.998" gradientUnits="userSpaceOnUse">
<stop stop-color="#F89624"/>
<stop offset="1" stop-color="#F9AE62"/>
</linearGradient>
<linearGradient id="paint2_linear_1381_28065" x1="146.807" y1="93.7836" x2="172.698" y2="119.675" gradientUnits="userSpaceOnUse">
<stop stop-color="#F89624"/>
<stop offset="1" stop-color="#F9AE62"/>
</linearGradient>
<clipPath id="clip0_1381_28065">
<rect width="205.956" height="180.196" fill="white" transform="translate(0.162109)"/>
</clipPath>
</defs>
</svg>
