<svg width="30" height="30" viewBox="0 0 30 30" fill="none" xmlns="http://www.w3.org/2000/svg">
<g clip-path="url(#clip0_531_56218)">
<path d="M15.5425 14.4178L21.6635 9.375H8.33691L14.5179 14.4637C14.6749 14.5557 14.8552 14.6002 15.037 14.5921C15.2188 14.5839 15.3943 14.5234 15.5425 14.4178Z" fill="#F9893D"/>
<path d="M14.9794 16.4543C14.4097 16.4555 13.8534 16.2817 13.3856 15.9565L6.5625 10.3418V19.6868C6.5625 19.9354 6.66127 20.1739 6.83709 20.3497C7.0129 20.5255 7.25136 20.6243 7.5 20.6243H22.5C22.7486 20.6243 22.9871 20.5255 23.1629 20.3497C23.3387 20.1739 23.4375 19.9354 23.4375 19.6868V10.3418L16.6744 15.9105C16.1787 16.2617 15.5868 16.4515 14.9794 16.4543Z" fill="#F9893D"/>
<path d="M15 0C12.0333 0 9.13319 0.879735 6.66645 2.52796C4.19972 4.17618 2.27713 6.51886 1.14181 9.25975C0.00649922 12.0006 -0.290551 15.0166 0.288228 17.9264C0.867006 20.8361 2.29562 23.5088 4.3934 25.6066C6.49119 27.7044 9.16394 29.133 12.0737 29.7118C14.9834 30.2906 17.9994 29.9935 20.7403 28.8582C23.4811 27.7229 25.8238 25.8003 27.4721 23.3336C29.1203 20.8668 30 17.9667 30 15C30 11.0218 28.4197 7.20644 25.6066 4.3934C22.7936 1.58035 18.9783 0 15 0ZM25.3125 19.6875C25.3125 20.4334 25.0162 21.1488 24.4887 21.6762C23.9613 22.2037 23.2459 22.5 22.5 22.5H7.50001C6.75409 22.5 6.03871 22.2037 5.51127 21.6762C4.98382 21.1488 4.68751 20.4334 4.68751 19.6875V10.3125C4.69339 9.5684 4.99159 8.85644 5.51777 8.33026C6.04395 7.80409 6.7559 7.50588 7.50001 7.5H22.5C23.2444 7.50491 23.9569 7.80281 24.4833 8.32919C25.0097 8.85558 25.3076 9.5681 25.3125 10.3125V19.6875Z" fill="#F9893D"/>
</g>
<defs>
<clipPath id="clip0_531_56218">
<rect width="30" height="30" fill="white"/>
</clipPath>
</defs>
</svg>
