<svg width="127" height="21" viewBox="0 0 127 21" fill="none" xmlns="http://www.w3.org/2000/svg">
<g clip-path="url(#clip0_531_56602)">
<path d="M16.6168 0.0613889V21C14.7845 21 13.2989 19.2861 13.2989 17.1823V5.56151L9.97674 13.3728H6.65164L3.31787 5.7407V21H3.3092C1.48119 21 0 19.2994 0 17.2005V3.79948C0 1.70064 1.48119 0 3.3092 0H4.96958L8.27879 7.6421L10.7368 2.33942C11.2498 0.925812 12.4565 0 13.7903 0C13.7903 0 16.4376 0.0182508 16.6125 0.051434L16.6168 0.0613889Z" fill="#4D99CF"/>
<path d="M50.8237 11.8074V11.7464C52.9436 10.8183 54.0109 8.96045 54.0109 6.1844C54.0109 5.06014 53.7672 4.015 53.2847 3.08526C52.7877 2.15716 52.0989 1.42359 51.2054 0.882888C50.3087 0.342187 49.2837 0.0800781 48.1157 0.0800781H39.126V20.907H42.8639V13.9867H47.0484C49.5599 13.9867 50.3315 15.8857 50.3315 17.2391V20.9449H54.0694V17.4683C54.0694 13.3438 51.9998 12.1618 50.8269 11.8074H50.8221H50.8237ZM50.1577 7.49495C50.1577 9.14178 48.8419 10.477 47.2141 10.477H42.859V3.55673H47.2141C48.8419 3.55673 50.1577 4.89199 50.1577 6.53388V7.49495Z" fill="#4D99CF"/>
<path d="M71.3796 20.8549H67.2681L61.5435 12.0966L59.6624 13.9066V20.8698H55.9375V0H59.6624V6.90219L64.9776 0.00494544H69.7876L63.7641 8.93147L71.3796 20.8549Z" fill="#4D99CF"/>
<path d="M95.2646 20.8704H110.114V17.1036H98.9765V12.1713H108.358V8.69468H98.9765V3.77067H110.114V0.0566406H95.2646V20.8704Z" fill="#0B3E51"/>
<path d="M126.131 5.15242C125.362 3.46767 124.272 2.19339 122.861 1.31146C121.454 0.444355 119.799 0.00585938 117.895 0.00585938H112.128V20.8707H118.015C119.914 20.8707 121.556 20.4141 122.953 19.4942C124.347 18.5793 125.414 17.2638 126.163 15.551C127.105 13.2366 127.451 8.18233 126.136 5.15407H126.131V5.15242ZM122.23 15.4093C121.223 16.5896 119.904 17.188 118.302 17.188H115.833V3.85012H117.479C119.548 3.85012 121.116 4.47159 122.174 5.70796C123.221 6.94432 123.756 7.20643 123.756 9.97752C123.756 12.414 123.251 14.2191 122.234 15.4043L122.229 15.4093H122.23Z" fill="#0B3E51"/>
<path d="M93.3805 0.0569623V20.874C91.3288 20.874 89.6605 19.176 89.6605 17.0891V4.56556L85.9632 12.7981H82.201L78.4436 4.55732V17.1385H74.7236V3.77099C74.7236 1.69061 76.3838 0.00585938 78.4339 0.00585938H80.2955L84.0074 9.04118L86.7674 2.32198C87.3424 0.917469 88.694 0.00750786 90.1885 0.00750786C90.1885 0.00750786 93.1775 0.0256411 93.3805 0.0586108V0.0569623Z" fill="#0B3E51"/>
<path d="M32.5933 20.9245H37.1921L29.7846 0.0546875L26.0467 0.0678753L18.5742 20.9179H23.1909L24.1753 17.128H31.6478L32.59 20.9179L32.5949 20.9228L32.5933 20.9245ZM25.0282 13.9613L27.884 5.75678H27.9392L30.7122 13.9613H25.0282Z" fill="#4D99CF"/>
<path d="M82.201 13.342H78.4664V5.66992H74.7285V13.342H71.6924V17.1318H74.7285V21.0008H78.4664V17.1318H82.201V13.342Z" fill="url(#paint0_linear_531_56602)"/>
</g>
<defs>
<linearGradient id="paint0_linear_531_56602" x1="76.9459" y1="6.51559" x2="76.9459" y2="12.9002" gradientUnits="userSpaceOnUse">
<stop stop-color="#0B3E51"/>
<stop offset="1" stop-color="#4D99CF"/>
</linearGradient>
<clipPath id="clip0_531_56602">
<rect width="127" height="21" fill="white"/>
</clipPath>
</defs>
</svg>
