<svg width="30" height="30" viewBox="0 0 30 30" fill="none" xmlns="http://www.w3.org/2000/svg">
<g clip-path="url(#clip0_531_56551)">
<path d="M27.9937 0H2.0063C0.898251 0 0 0.898251 0 2.0063V27.9937C0 29.1017 0.898251 30 2.0063 30H27.9937C29.1017 30 30 29.1017 30 27.9937V2.0063C30 0.898251 29.1017 0 27.9937 0Z" fill="#4D99CF"/>
<path d="M26.8553 1.47266H3.14581C2.22121 1.47266 1.47168 2.22219 1.47168 3.14679V26.8562C1.47168 27.7808 2.22121 28.5304 3.14581 28.5304H26.8553C27.7799 28.5304 28.5294 27.7808 28.5294 26.8562V3.14679C28.5294 2.22219 27.7799 1.47266 26.8553 1.47266Z" fill="#0B3E51"/>
<path d="M22.4167 7.28009V22.6617C20.8769 22.6588 19.6279 21.4054 19.6279 19.8656V10.6092L16.8554 16.693H14.0357L11.2204 10.6018V19.8981H8.43164V10.0216C8.43164 8.48476 9.67617 7.24023 11.213 7.24023H12.6081L15.3895 13.9176L17.4578 8.95275C17.8889 7.91638 18.9031 7.24023 20.0236 7.24023C20.0236 7.24023 22.2646 7.25352 22.4152 7.27862L22.4167 7.28009Z" fill="white"/>
<path d="M14.0353 17.0987H11.2333V11.4297H8.43126V17.0987H6.15332V19.9007H8.43126V22.7574H11.2333V19.9007H14.0353V17.0987Z" fill="url(#paint0_linear_531_56551)"/>
</g>
<defs>
<linearGradient id="paint0_linear_531_56551" x1="10.0936" y1="12.0542" x2="10.0936" y2="16.7739" gradientUnits="userSpaceOnUse">
<stop stop-color="white"/>
<stop offset="1" stop-color="#4D99CF"/>
</linearGradient>
<clipPath id="clip0_531_56551">
<rect width="30" height="30" fill="white"/>
</clipPath>
</defs>
</svg>
