<svg width="31" height="30" viewBox="0 0 31 30" fill="none" xmlns="http://www.w3.org/2000/svg">
<circle cx="15.0181" cy="15" r="14.5" fill="#0B3E51" stroke="#4D99CF"/>
<path d="M16.6982 14.9991L22.5782 9.11912C22.7972 8.89558 22.9192 8.5946 22.9177 8.28161C22.9161 7.96861 22.791 7.66889 22.5697 7.44757C22.3484 7.22624 22.0487 7.10121 21.7357 7.09962C21.4227 7.09804 21.1217 7.22005 20.8982 7.43912L15.0182 13.3191L9.13817 7.43912C8.91462 7.22005 8.61365 7.09804 8.30065 7.09962C7.98766 7.10121 7.68793 7.22624 7.46661 7.44757C7.24529 7.66889 7.12025 7.96861 7.11867 8.28161C7.11709 8.5946 7.23909 8.89558 7.45817 9.11912L13.3382 14.9991L7.45817 20.8791C7.23909 21.1027 7.11709 21.4036 7.11867 21.7166C7.12025 22.0296 7.24529 22.3294 7.46661 22.5507C7.68793 22.772 7.98766 22.897 8.30065 22.8986C8.61365 22.9002 8.91462 22.7782 9.13817 22.5591L15.0182 16.6791L20.8982 22.5591C21.1217 22.7782 21.4227 22.9002 21.7357 22.8986C22.0487 22.897 22.3484 22.772 22.5697 22.5507C22.791 22.3294 22.9161 22.0296 22.9177 21.7166C22.9192 21.4036 22.7972 21.1027 22.5782 20.8791L16.6982 14.9991Z" fill="#4D99CF"/>
</svg>
