<svg width="170" height="27" viewBox="0 0 170 27" fill="none" xmlns="http://www.w3.org/2000/svg">
<g clip-path="url(#clip0_531_56539)">
<path d="M22.243 0.0789286V27C19.7902 27 17.8017 24.7964 17.8017 22.0915V7.15051L13.3547 17.1936H8.90377L4.44125 7.3809V27H4.42964C1.9827 27 0 24.8135 0 22.115V4.88504C0 2.18654 1.9827 0 4.42964 0H6.6522L11.0818 9.82555L14.3722 3.00782C15.0588 1.19033 16.674 0 18.4594 0C18.4594 0 22.0031 0.0234653 22.2372 0.0661294L22.243 0.0789286Z" fill="#4D99CF"/>
<path d="M68.0314 15.1795V15.1011C70.8691 13.9078 72.2977 11.5192 72.2977 7.94998C72.2977 6.5045 71.9715 5.16075 71.3257 3.96537C70.6603 2.7721 69.7384 1.82894 68.5424 1.13375C67.3421 0.438559 65.97 0.101562 64.4066 0.101562H52.373V26.879H57.3765V17.9815H62.9779C66.3397 17.9815 67.3725 20.4231 67.3725 22.1632V26.9278H72.376V22.4578C72.376 17.1549 69.6057 15.6352 68.0357 15.1795H68.0292H68.0314ZM67.1399 9.63496C67.1399 11.7523 65.3786 13.4691 63.1997 13.4691H57.37V4.57154H63.1997C65.3786 4.57154 67.1399 6.28831 67.1399 8.39931V9.63496Z" fill="#4D99CF"/>
<path d="M95.5475 26.8135H90.0439L82.381 15.5527L79.863 17.8799V26.8326H74.877V0H79.863V8.87424L86.9779 0.00635843H93.4165L85.3536 11.4833L95.5475 26.8135Z" fill="#4D99CF"/>
<path d="M127.52 26.8328H147.397V21.9898H132.488V15.6483H145.046V11.1783H132.488V4.84744H147.397V0.0722656H127.52V26.8328Z" fill="#0B3E51"/>
<path d="M168.837 6.62286C167.808 4.45676 166.349 2.8184 164.459 1.68448C162.576 0.56964 160.361 0.00585938 157.812 0.00585938H150.093V26.8321H157.973C160.515 26.8321 162.713 26.245 164.583 25.0623C166.449 23.886 167.878 22.1947 168.88 19.9925C170.141 17.0168 170.605 10.5185 168.843 6.62498H168.837V6.62286ZM163.616 19.8102C162.268 21.3278 160.502 22.0972 158.358 22.0972H155.053V4.94848H157.255C160.026 4.94848 162.124 5.74752 163.54 7.33713C164.942 8.92673 165.658 9.26373 165.658 12.8266C165.658 15.9592 164.981 18.28 163.62 19.8039L163.614 19.8102H163.616Z" fill="#0B3E51"/>
<path d="M124.997 0.0715631V26.8363C122.251 26.8363 120.018 24.6532 120.018 21.97V5.86833L115.069 16.453H110.033L105.003 5.85773V22.0336H100.023V4.84674C100.023 2.17196 102.246 0.00585938 104.99 0.00585938H107.482L112.451 11.6227L116.145 2.98372C116.915 1.17793 118.724 0.00797885 120.724 0.00797885C120.724 0.00797885 124.725 0.0312931 124.997 0.0736826V0.0715631Z" fill="#0B3E51"/>
<path d="M43.629 26.9048H49.7849L39.8693 0.0722656L34.8658 0.0892214L24.8633 26.8963H31.0431L32.3609 22.0237H42.3634L43.6246 26.8963L43.6311 26.9027L43.629 26.9048ZM33.5024 17.9522L37.3252 7.40353H37.3991L41.1109 17.9522H33.5024Z" fill="#4D99CF"/>
<path d="M110.032 17.1533H105.033V7.28931H100.03V17.1533H95.9657V22.026H100.03V27.0004H105.033V22.026H110.032V17.1533Z" fill="url(#paint0_linear_531_56539)"/>
</g>
<defs>
<linearGradient id="paint0_linear_531_56539" x1="102.998" y1="8.3766" x2="102.998" y2="16.5853" gradientUnits="userSpaceOnUse">
<stop stop-color="#0B3E51"/>
<stop offset="1" stop-color="#4D99CF"/>
</linearGradient>
<clipPath id="clip0_531_56539">
<rect width="170" height="27" fill="white"/>
</clipPath>
</defs>
</svg>
