<svg width="132" height="26" viewBox="0 0 132 26" fill="none" xmlns="http://www.w3.org/2000/svg">
<path d="M15.998 25.992H22.8579V9.67773L15.998 16.9381V25.992Z" fill="url(#paint0_linear_1268_2730)"/>
<path d="M0 25.992H6.85985V16.9381L0 9.67773V25.992Z" fill="url(#paint1_linear_1268_2730)"/>
<path d="M11.4288 16.9277H9.15039V25.9902H13.7072V16.9277H11.4288Z" fill="url(#paint2_linear_1268_2730)"/>
<path d="M15.9735 14.792L22.858 7.54461L22.8539 0.015625L13.7115 9.68027H9.15057L0.00819751 0.015625L0 7.54461L6.88444 14.792H15.9735Z" fill="url(#paint3_linear_1268_2730)"/>
<path d="M95.5673 18.4017C94.2641 17.2407 89.1254 16.7382 88.1255 15.8805C86.3429 13.3636 92.7848 13.2336 92.8176 15.7375L96.2393 15.0444C95.3624 12.0033 93.4323 11.1326 90.1703 11.1196C85.7118 10.5651 82.0975 15.6985 86.0274 18.6746C87.3182 19.5843 90.2892 20.2601 92.2316 20.7496C95.5714 23.0239 87.6665 24.6137 87.5354 20.7843L83.8965 21.3864C84.8103 26.3985 92.1045 27.1349 95.1288 24.4881C96.8786 22.9979 97.399 19.8659 95.5673 18.4017Z" fill="#E8E8E8"/>
<path d="M112.499 18.2291C112.265 8.79407 98.4594 8.95867 98.4881 18.424C98.0947 28.7385 113.031 28.3616 112.499 18.2291ZM108.012 21.3655C104.41 24.5581 99.7339 19.4984 102.979 15.8682C106.606 12.6798 111.22 17.7309 108.012 21.3655Z" fill="#E8E8E8"/>
<path d="M119.572 11.9385C119.474 9.93277 121.355 10.2317 122.67 10.5436L123.158 7.89674C117.04 6.27225 115.622 8.62884 116.048 14.8322H114.29V18.5534H116.048V26.0001H119.568V18.5534H121.326V14.8322H119.568C119.568 14.7413 119.568 12.0901 119.572 11.9428V11.9385Z" fill="#E8E8E8"/>
<path d="M130.808 22.2666C127.726 23.6615 128.435 20.9151 128.365 18.5411H130.132V14.8286H128.365C128.365 13.4077 128.374 8.72921 128.341 7.39062L124.858 11.1118V14.833H123.1V18.5455H124.858C124.612 24.1987 125.071 27.3827 131.115 25.4073L130.808 22.271V22.2666Z" fill="#E8E8E8"/>
<path d="M38.2829 7.41626L35.1685 19.6931L32.0501 7.41626H26.3827V25.9918H29.9028V11.1331L33.4106 25.9918H36.9306L40.4425 11.1331V25.9918H43.9626V7.41626H38.287H38.2829Z" fill="#E8E8E8"/>
<path d="M57.8299 23.9046C57.3095 21.431 58.1987 15.5005 57.2152 13.2696C55.1335 9.77365 47.2901 10.2762 46.2165 14.7468L49.2366 15.9294C49.6956 13.2999 54.4942 13.3389 54.1623 16.2196C53.187 16.7828 49.0522 17.346 47.8147 18.0954C41.59 22.9385 50.1669 29.012 54.4491 24.2728C54.5639 24.68 54.8098 25.633 54.9204 25.8886H58.4733C58.1618 25.1868 57.9446 24.5197 57.8299 23.9002V23.9046ZM54.1623 19.5726C54.9778 23.1941 49.7694 25.4034 49.2366 21.4873C49.1629 19.317 52.8756 19.4123 54.1623 18.7755V19.5726Z" fill="#E8E8E8"/>
<path d="M66.1519 11.1641C64.7381 11.2854 64.2341 11.6233 63.3039 13.1005V11.1641H63.2998L59.792 14.8722V25.9968H63.3121C63.6809 22.7954 61.6852 11.9915 67.4058 15.1928C67.6681 14.4044 68.2459 12.6846 68.5164 11.8832C67.7583 11.4023 66.9715 11.1684 66.1519 11.1684V11.1641Z" fill="#E8E8E8"/>
<path d="M76.4988 17.6615L82.6539 11.1548H77.6135L73.8598 15.1403V0L70.3397 3.71684V25.9919H73.8598V20.4426L74.0155 20.2867L79.4083 25.9919H84.4077L76.4988 17.6615Z" fill="#E8E8E8"/>
<defs>
<linearGradient id="paint0_linear_1268_2730" x1="19.428" y1="25.914" x2="19.428" y2="12.6451" gradientUnits="userSpaceOnUse">
<stop stop-color="#F96B31"/>
<stop offset="1" stop-color="#F9893D"/>
</linearGradient>
<linearGradient id="paint1_linear_1268_2730" x1="3.42993" y1="25.914" x2="3.42993" y2="12.6451" gradientUnits="userSpaceOnUse">
<stop stop-color="#F96B31"/>
<stop offset="1" stop-color="#F9893D"/>
</linearGradient>
<linearGradient id="paint2_linear_1268_2730" x1="11.4288" y1="25.9123" x2="11.4288" y2="12.6434" gradientUnits="userSpaceOnUse">
<stop stop-color="#F96B31"/>
<stop offset="1" stop-color="#F9893D"/>
</linearGradient>
<linearGradient id="paint3_linear_1268_2730" x1="11.429" y1="25.9122" x2="11.429" y2="12.6433" gradientUnits="userSpaceOnUse">
<stop stop-color="#F96B31"/>
<stop offset="1" stop-color="#F9893D"/>
</linearGradient>
</defs>
</svg>
