<svg width="335" height="210" viewBox="0 0 335 210" fill="none" xmlns="http://www.w3.org/2000/svg">
<mask id="mask0_1281_655" style="mask-type:alpha" maskUnits="userSpaceOnUse" x="0" y="0" width="335" height="210">
<rect width="335" height="210" rx="20" fill="#BCBCBC"/>
</mask>
<g mask="url(#mask0_1281_655)">
</g>
<g clip-path="url(#clip0_1281_655)">
<path fill-rule="evenodd" clip-rule="evenodd" d="M249.105 60.9313C249.105 60.5163 249.032 60.1053 248.889 59.7219C248.747 59.3385 248.538 58.9901 248.275 58.6967C248.011 58.4033 247.699 58.1706 247.355 58.0119C247.011 57.8532 246.642 57.7716 246.27 57.7718H73.305C72.9327 57.7716 72.5641 57.8532 72.2202 58.0119C71.8762 58.1706 71.5637 58.4033 71.3004 58.6967C71.0371 58.9901 70.8283 59.3385 70.6858 59.7219C70.5433 60.1053 70.47 60.5163 70.47 60.9313V188.211H249.105V60.9313Z" fill="#2C365F"/>
<path fill-rule="evenodd" clip-rule="evenodd" d="M240.566 67.2739H79.8549V180.962H240.566V67.2739Z" fill="white"/>
<path fill-rule="evenodd" clip-rule="evenodd" d="M273.37 188.209H37.8788V195.543H273.37V188.209Z" fill="#48558A"/>
<path fill-rule="evenodd" clip-rule="evenodd" d="M274.04 195.543H38.5474L44.3986 199.529H268.604L274.04 195.543Z" fill="#2C365F"/>
<path fill-rule="evenodd" clip-rule="evenodd" d="M171.886 188.209H139.362V190.193C139.362 190.391 139.397 190.588 139.465 190.771C139.533 190.954 139.632 191.12 139.758 191.26C139.884 191.4 140.033 191.511 140.197 191.587C140.361 191.663 140.537 191.702 140.715 191.701H170.535C170.712 191.701 170.888 191.662 171.052 191.587C171.216 191.511 171.365 191.4 171.491 191.26C171.616 191.12 171.716 190.953 171.784 190.77C171.851 190.587 171.886 190.391 171.886 190.193V188.209Z" fill="#212121"/>
<path fill-rule="evenodd" clip-rule="evenodd" d="M79.8549 126.178V102.213H173.842V126.178H79.8549Z" fill="#D9EFFC"/>
<path fill-rule="evenodd" clip-rule="evenodd" d="M79.8549 118V94.0363H173.842V118H79.8549Z" fill="#B5DEF0"/>
<path fill-rule="evenodd" clip-rule="evenodd" d="M174.145 104.473H176.181C176.518 104.473 176.849 104.369 177.135 104.172C177.422 103.975 177.655 103.693 177.806 103.358C178.625 101.586 179.792 99.7743 181.25 97.9625C187.771 89.8175 197.332 86.6259 211.314 73.5262C211.536 73.3179 211.792 73.1604 212.069 73.0628C212.345 72.9652 212.637 72.9294 212.926 72.9575C213.215 72.9856 213.496 73.077 213.753 73.2265C214.01 73.376 214.239 73.5806 214.425 73.8287C215.366 75.083 216.589 76.7053 217.519 77.943C217.888 78.4353 218.071 79.0693 218.027 79.7096C217.984 80.3499 217.717 80.9458 217.285 81.3701L201.301 97.0496C201.226 97.1229 201.173 97.2199 201.149 97.3278C201.124 97.4358 201.13 97.5494 201.165 97.6535C201.201 97.7576 201.263 97.8472 201.346 97.9104C201.428 97.9736 201.525 98.0073 201.625 98.0071H242.902C243.532 98.0071 244.136 98.2861 244.582 98.7827C245.027 99.2793 245.277 99.9528 245.277 100.655V103.677C245.277 104.379 245.027 105.053 244.582 105.549C244.136 106.046 243.532 106.325 242.902 106.325H246.581C247.211 106.325 247.815 106.604 248.261 107.1C248.706 107.597 248.956 108.271 248.956 108.973V114.269C248.956 114.617 248.895 114.961 248.775 115.282C248.656 115.604 248.481 115.896 248.261 116.142C248.04 116.387 247.778 116.583 247.49 116.716C247.202 116.849 246.893 116.917 246.581 116.917H244.125C244.755 116.917 245.359 117.196 245.804 117.693C246.25 118.189 246.5 118.863 246.5 119.565V123.721C246.5 124.424 246.25 125.097 245.804 125.594C245.359 126.09 244.755 126.369 244.125 126.369H236.667C237.297 126.369 237.901 126.648 238.347 127.145C238.792 127.642 239.042 128.315 239.042 129.018V132.832C239.042 133.534 238.792 134.208 238.347 134.705C237.901 135.201 237.297 135.48 236.667 135.48H179.989C179.475 135.48 178.983 135.252 178.62 134.848C178.257 134.443 178.053 133.894 178.052 133.321V131.479C178.052 131.212 177.957 130.956 177.788 130.767C177.619 130.579 177.389 130.473 177.15 130.473H173.455L174.145 104.473Z" fill="#F9879E" stroke="#FEC7B2" stroke-width="0.24" stroke-linecap="round" stroke-linejoin="round"/>
<path fill-rule="evenodd" clip-rule="evenodd" d="M80.1049 159.641V127.176H174.091V159.641H80.1049Z" fill="#D9EFFC"/>
<path fill-rule="evenodd" clip-rule="evenodd" d="M80.105 154.313V121.848H174.091V154.313H80.105Z" fill="#B5DEF0"/>
<path d="M215.934 51.2392V80.8782C215.934 82.0169 215.069 82.9423 214.004 82.9423H192.149C191.084 82.9423 190.219 82.0169 190.219 80.8782V51.2392C190.219 48.0643 191.719 46.3221 193.99 45.458C194.299 45.3445 194.568 45.1257 194.759 44.8326C194.95 44.5395 195.053 44.1869 195.055 43.8246V41.2964H211.094V43.8246C211.096 44.1873 211.201 44.54 211.393 44.833C211.584 45.126 211.854 45.3446 212.163 45.458C214.438 46.3221 215.934 48.0643 215.934 51.2392Z" fill="#73E6FF"/>
<path d="M215.934 58.0769V81.3243C215.934 82.2163 215.069 82.9424 214.004 82.9424H192.149C191.084 82.9424 190.219 82.2163 190.219 81.3243V58.0769C190.219 55.5863 191.094 52.8435 193.719 51.3341C201.219 47.0247 214.836 48.3348 215.938 58.0769H215.934Z" fill="#4CDBFA"/>
<path d="M213.453 34.9193V40.4942C213.448 40.7114 213.367 40.9179 213.226 41.0684C213.086 41.2189 212.897 41.3011 212.703 41.297H193.453C193.356 41.2992 193.26 41.2802 193.17 41.2411C193.08 41.2019 192.998 41.1434 192.928 41.0688C192.859 40.9943 192.803 40.9052 192.764 40.8066C192.725 40.708 192.704 40.6018 192.703 40.4942V34.9193C192.707 34.7024 192.789 34.4964 192.929 34.3465C193.07 34.1965 193.258 34.1148 193.453 34.1193H212.703C212.897 34.1152 213.085 34.197 213.225 34.3469C213.366 34.4968 213.448 34.7025 213.453 34.9193Z" fill="#7571AC"/>
<path d="M211.345 32.7888V34.1198H194.805V32.7888C194.813 32.3423 194.98 31.9178 195.269 31.6084C195.558 31.299 195.945 31.13 196.345 31.1386H209.805C210.003 31.1341 210.201 31.1733 210.385 31.2539C210.57 31.3344 210.739 31.4547 210.882 31.608C211.025 31.7612 211.139 31.9444 211.219 32.147C211.298 32.3496 211.341 32.5676 211.345 32.7888Z" fill="#7C7DB8"/>
<path d="M201.346 41.2963H199.165V37.0873C199.175 36.7719 199.294 36.473 199.497 36.2536C199.701 36.0343 199.973 35.9117 200.256 35.9117C200.539 35.9117 200.811 36.0343 201.014 36.2536C201.218 36.473 201.337 36.7719 201.346 37.0873V41.2963Z" fill="#8582C5"/>
<path d="M196.664 41.2961H194.484V37.087C194.497 36.7748 194.618 36.4803 194.821 36.2646C195.024 36.0489 195.294 35.9285 195.574 35.9285C195.854 35.9285 196.124 36.0489 196.327 36.2646C196.53 36.4803 196.65 36.7748 196.664 37.087V41.2961Z" fill="#8582C5"/>
<path d="M206.5 41.2963H204.318V37.0873C204.328 36.7719 204.447 36.473 204.651 36.2536C204.854 36.0343 205.126 35.9117 205.409 35.9117C205.692 35.9117 205.964 36.0343 206.168 36.2536C206.371 36.473 206.49 36.7719 206.5 37.0873V41.2963Z" fill="#8582C5"/>
<path d="M211.646 41.2963H209.465V37.0873C209.474 36.7719 209.594 36.473 209.797 36.2536C210 36.0343 210.272 35.9117 210.555 35.9117C210.838 35.9117 211.11 36.0343 211.314 36.2536C211.517 36.473 211.637 36.7719 211.646 37.0873V41.2963Z" fill="#8582C5"/>
<path d="M212.489 54.2804V76.7195H195.25C194.199 76.7195 193.344 75.9181 193.344 74.9327V54.2804H212.489Z" fill="#E1F9FF"/>
<path fill-rule="evenodd" clip-rule="evenodd" d="M204.519 60.4052H201.633V70.6017H204.519V60.4052Z" fill="#6EBF49"/>
<path fill-rule="evenodd" clip-rule="evenodd" d="M207.844 67.0459V63.9601H198.309V67.0459H207.844Z" fill="#6EBF49"/>
<path fill-rule="evenodd" clip-rule="evenodd" d="M205.474 77.7518C205.753 77.7633 206.022 77.866 206.249 78.0473C206.476 78.2285 206.65 78.4801 206.749 78.7708C206.849 79.0615 206.869 79.3784 206.808 79.682C206.747 79.9856 206.607 80.2624 206.406 80.478C206.205 80.6935 205.951 80.8383 205.677 80.8942C205.402 80.9502 205.119 80.9148 204.863 80.7924C204.606 80.6701 204.387 80.4663 204.234 80.2064C204.081 79.9465 203.999 79.642 204 79.3309C204.009 78.9042 204.169 78.4988 204.445 78.203C204.721 77.9072 205.091 77.745 205.474 77.7518Z" fill="#70E5FF"/>
<path fill-rule="evenodd" clip-rule="evenodd" d="M212.015 78.6319C212.566 78.6319 213.015 79.05 213.015 79.5518C213.015 80.0535 212.568 80.473 212.015 80.473C211.463 80.473 211.015 80.0549 211.015 79.5518C211.015 79.0486 211.463 78.6319 212.015 78.6319Z" fill="#70E5FF"/>
<path fill-rule="evenodd" clip-rule="evenodd" d="M197.211 77.6005C197.49 77.6134 197.759 77.7171 197.984 77.8989C198.21 78.0807 198.383 78.3326 198.482 78.6231C198.58 78.9136 198.6 79.2301 198.539 79.5331C198.477 79.836 198.338 80.1122 198.137 80.3273C197.936 80.5424 197.682 80.6868 197.408 80.7427C197.134 80.7985 196.851 80.7633 196.595 80.6415C196.339 80.5197 196.12 80.3165 195.967 80.0574C195.813 79.7982 195.731 79.4944 195.731 79.1838C195.74 78.7551 195.9 78.3476 196.178 78.0507C196.455 77.7538 196.827 77.5919 197.211 77.6005Z" fill="#70E5FF"/>
<path d="M273.572 79.4055L273.162 80.54L273.15 80.5748L271.464 85.2299L271.19 85.988L269.315 91.1685L268.466 93.51L267.451 96.317L267.439 96.3518L266.051 100.182C265.689 100.149 265.328 100.109 264.97 100.062L266.245 96.5441L266.355 96.2389L267.274 93.7023L268.121 91.3609L270.271 85.418L270.875 83.7455L272.185 80.1218L272.37 79.6089L272.595 78.9887L272.949 79.1365L273.574 79.3929L273.572 79.4055Z" fill="#DDDDDD"/>
<path d="M274.758 78.5964L274.213 80.0975C274.134 80.3027 273.988 80.4661 273.803 80.5531C273.619 80.6402 273.412 80.6443 273.225 80.5644L272.124 80.11C272.032 80.0744 271.947 80.0183 271.875 79.9452C271.803 79.8721 271.744 79.7835 271.704 79.6846C271.663 79.5858 271.641 79.4788 271.638 79.3701C271.636 79.2614 271.653 79.1532 271.689 79.0522L272.231 77.5497L274.758 78.5964Z" fill="#272E47"/>
<path d="M274.758 78.5953L274.213 80.0964C274.134 80.3016 273.988 80.465 273.803 80.5521C273.619 80.6392 273.412 80.6432 273.225 80.5633L272.858 80.4128C272.766 80.3769 272.681 80.3208 272.609 80.2477C272.537 80.1746 272.478 80.0861 272.438 79.9874C272.397 79.8886 272.374 79.7818 272.371 79.6731C272.368 79.5645 272.385 79.4562 272.42 79.3549L272.965 77.8525L274.758 78.5953Z" fill="#2C3255"/>
<path d="M287.534 51.3289L277.909 77.8976C277.481 79.0767 276.242 79.6634 275.14 79.2063L271.554 77.7234C271.296 77.6232 271.059 77.4661 270.857 77.2614C270.655 77.0568 270.492 76.8087 270.378 76.5322C270.264 76.2557 270.201 75.9564 270.193 75.6521C270.186 75.3479 270.233 75.045 270.332 74.7617L279.957 48.1931L287.534 51.3289Z" fill="#73E6FF"/>
<path d="M287.534 51.3284L277.909 77.8971C277.845 78.0745 277.761 78.2421 277.659 78.396C277.373 78.8149 276.973 79.12 276.52 79.2658C276.066 79.4117 275.582 79.3906 275.14 79.2058L274.08 78.7681C273.822 78.6682 273.585 78.5111 273.383 78.3065C273.181 78.1019 273.018 77.8538 272.904 77.5772C272.79 77.3007 272.727 77.0013 272.719 76.697C272.712 76.3927 272.759 76.0898 272.859 75.8065L282.484 49.2378L287.534 51.3284Z" fill="#4CDBFA"/>
<path d="M284 61.0814L277.914 77.8926C277.486 79.0717 276.247 79.6584 275.145 79.2013L271.559 77.7184C271.301 77.6182 271.064 77.4611 270.862 77.2564C270.66 77.0518 270.497 76.8037 270.383 76.5272C270.269 76.2507 270.206 75.9514 270.198 75.6471C270.19 75.3429 270.238 75.04 270.337 74.7567L276.427 57.94L284.004 61.0759L284 61.0814Z" fill="#73E6FF"/>
<path d="M284 61.0808L277.914 77.892C277.486 79.0711 276.247 79.6578 275.145 79.2007L274.085 78.763C273.827 78.6631 273.59 78.5061 273.388 78.3014C273.186 78.0968 273.023 77.8487 272.909 77.5722C272.795 77.2956 272.732 76.9962 272.724 76.6919C272.716 76.3876 272.764 76.0847 272.864 75.8014L278.952 58.9846L284.004 61.0752L284 61.0808Z" fill="#4CDBFA"/>
<path d="M290.072 50.8192L289.926 51.2262C289.827 51.4821 289.644 51.6856 289.414 51.7939C289.183 51.9022 288.925 51.9071 288.691 51.8074L278.8 47.7126C278.685 47.6681 278.579 47.5982 278.489 47.507C278.399 47.4158 278.326 47.3052 278.276 47.182C278.225 47.0587 278.197 46.9252 278.194 46.7896C278.19 46.6539 278.212 46.519 278.256 46.3927L278.402 45.9872C278.501 45.7311 278.684 45.5274 278.914 45.4187C279.144 45.3101 279.403 45.305 279.636 45.4046L289.529 49.4994C289.644 49.544 289.749 49.614 289.839 49.7053C289.929 49.7965 290.002 49.907 290.052 50.0303C290.103 50.1535 290.131 50.2869 290.135 50.4225C290.138 50.558 290.117 50.693 290.072 50.8192Z" fill="#2C3255"/>
<path d="M290.073 50.8178L289.926 51.2247C289.828 51.4807 289.644 51.6841 289.414 51.7924C289.184 51.9008 288.925 51.9056 288.691 51.8059L282.589 49.2805C282.474 49.236 282.368 49.1661 282.278 49.0749C282.188 48.9837 282.115 48.8732 282.064 48.7499C282.013 48.6267 281.985 48.4932 281.982 48.3576C281.978 48.222 281.999 48.0869 282.044 47.9606L282.191 47.555C282.289 47.2984 282.473 47.0941 282.703 46.9852C282.933 46.8762 283.193 46.8712 283.426 46.9711L289.529 49.4979C289.644 49.5425 289.749 49.6126 289.839 49.7038C289.929 49.795 290.002 49.9056 290.053 50.0288C290.103 50.1521 290.131 50.2855 290.135 50.421C290.138 50.5566 290.117 50.6915 290.073 50.8178Z" fill="#2C3255"/>
<path d="M284.711 59.126L283.75 61.7824C283.692 61.9349 283.582 62.0561 283.445 62.1208C283.308 62.1855 283.154 62.1886 283.015 62.1295L276.5 59.4312C276.432 59.4047 276.369 59.3631 276.315 59.3087C276.261 59.2544 276.218 59.1886 276.188 59.1152C276.158 59.0417 276.141 58.9622 276.139 58.8815C276.137 58.8007 276.15 58.7203 276.176 58.6452L277.138 55.9887L284.714 59.126H284.711Z" fill="#383E63"/>
<path d="M284.711 59.1246L284.025 61.0271C283.967 61.1792 283.857 61.3001 283.721 61.3645C283.584 61.4289 283.43 61.4319 283.291 61.3727L276.774 58.6745C276.705 58.6481 276.643 58.6066 276.589 58.5524C276.535 58.4983 276.492 58.4326 276.462 58.3593C276.431 58.286 276.414 58.2067 276.412 58.126C276.41 58.0453 276.423 57.965 276.449 57.8898L277.135 55.9943L284.711 59.1316V59.1246Z" fill="#2C3255"/>
<path d="M278.102 77.3745L277.914 77.8972C277.849 78.0746 277.765 78.2423 277.664 78.3961L274.629 77.1418C274.535 77.103 274.453 77.0338 274.395 76.943C274.337 76.8522 274.305 76.7441 274.302 76.6325C274.3 76.521 274.328 76.4112 274.382 76.3174C274.436 76.2236 274.514 76.15 274.606 76.1063C274.734 76.0458 274.877 76.0423 275.007 76.0965L278.102 77.3773V77.3745Z" fill="white"/>
<path d="M278.529 76.1996L277.225 75.6616C277.162 75.6367 277.105 75.5979 277.055 75.5477C277.006 75.4976 276.967 75.4369 276.939 75.3694C276.911 75.3019 276.895 75.2288 276.893 75.1546C276.891 75.0803 276.902 75.0063 276.926 74.9369C276.98 74.7961 277.081 74.684 277.207 74.6245C277.333 74.5649 277.476 74.5625 277.604 74.6177L278.906 75.1571L278.531 76.2024L278.529 76.1996Z" fill="white"/>
<path d="M279.428 73.7108L276.333 72.4285C276.27 72.4037 276.212 72.3651 276.163 72.3149C276.113 72.2648 276.073 72.2042 276.046 72.1367C276.018 72.0691 276.002 71.996 276 71.9217C275.998 71.8474 276.009 71.7733 276.033 71.7038C276.086 71.5632 276.187 71.4513 276.313 71.3915C276.44 71.3318 276.582 71.3288 276.71 71.3832L279.806 72.6655L279.431 73.7108H279.428Z" fill="white"/>
<path d="M280.233 71.4956L278.929 70.9563C278.866 70.9314 278.808 70.8928 278.759 70.8427C278.71 70.7925 278.67 70.7319 278.642 70.6644C278.614 70.5969 278.598 70.5238 278.596 70.4494C278.594 70.3751 278.605 70.301 278.629 70.2315C278.683 70.0907 278.783 69.9785 278.91 69.9187C279.036 69.859 279.178 69.8562 279.306 69.911L280.61 70.4503L280.235 71.4956H280.233Z" fill="white"/>
<path d="M281.155 68.9464L278.059 67.6642C277.996 67.6394 277.938 67.6008 277.889 67.5506C277.839 67.5005 277.8 67.4399 277.772 67.3723C277.744 67.3048 277.728 67.2317 277.726 67.1574C277.724 67.083 277.735 67.0089 277.759 66.9395C277.813 66.799 277.914 66.6873 278.04 66.6276C278.167 66.5679 278.309 66.5648 278.437 66.6189L281.532 67.9011L281.157 68.9464H281.155Z" fill="white"/>
<path d="M282.875 64.1993L279.779 62.9171C279.716 62.8923 279.658 62.8536 279.608 62.8034C279.559 62.7532 279.519 62.6924 279.491 62.6247C279.463 62.557 279.448 62.4837 279.445 62.4092C279.443 62.3347 279.455 62.2605 279.479 62.191C279.533 62.0507 279.634 61.9393 279.761 61.8799C279.887 61.8205 280.029 61.8176 280.157 61.8718L283.252 63.154L282.877 64.1993H282.875Z" fill="white"/>
<path d="M281.959 66.7264L280.655 66.1842C280.592 66.1592 280.534 66.1205 280.485 66.0703C280.436 66.0201 280.397 65.9595 280.369 65.892C280.341 65.8244 280.325 65.7514 280.323 65.6771C280.321 65.6028 280.332 65.5288 280.356 65.4595C280.41 65.3189 280.51 65.2071 280.636 65.1473C280.762 65.0875 280.904 65.0845 281.032 65.1389L282.337 65.6797L281.962 66.725L281.959 66.7264Z" fill="white"/>
<path d="M283.891 61.3899L282.588 60.8505C282.525 60.8257 282.467 60.7871 282.418 60.7369C282.368 60.6868 282.328 60.6262 282.301 60.5587C282.273 60.4911 282.257 60.418 282.255 60.3437C282.253 60.2694 282.264 60.1953 282.288 60.1258C282.342 59.9848 282.442 59.8727 282.569 59.8129C282.696 59.7531 282.838 59.7504 282.966 59.8052L284.269 60.3446L283.894 61.3899H283.891Z" fill="white"/>
<path d="M284.853 58.7329L281.758 57.4507C281.695 57.4257 281.637 57.387 281.588 57.3368C281.539 57.2866 281.499 57.226 281.471 57.1585C281.444 57.091 281.428 57.0179 281.426 56.9436C281.424 56.8694 281.435 56.7954 281.459 56.726C281.513 56.5851 281.613 56.473 281.74 56.4132C281.866 56.3534 282.008 56.3506 282.136 56.4054L285.231 57.6863L284.856 58.7329H284.853Z" fill="white"/>
<path d="M286.675 53.7025L283.579 52.4217C283.516 52.3967 283.458 52.358 283.409 52.3078C283.36 52.2576 283.32 52.197 283.293 52.1294C283.265 52.0619 283.249 51.9889 283.247 51.9146C283.245 51.8403 283.256 51.7663 283.28 51.6969C283.333 51.5559 283.434 51.4435 283.561 51.3837C283.687 51.3238 283.829 51.3212 283.958 51.3764L287.053 52.6572L286.678 53.7025H286.675Z" fill="white"/>
<path d="M285.776 56.1868L284.471 55.646C284.409 55.621 284.351 55.5823 284.302 55.5321C284.253 55.4819 284.213 55.4213 284.185 55.3538C284.157 55.2862 284.142 55.2132 284.14 55.1389C284.138 55.0646 284.149 54.9906 284.173 54.9213C284.227 54.7805 284.328 54.6687 284.454 54.6092C284.581 54.5497 284.723 54.5471 284.851 54.6021L286.154 55.1415L285.779 56.1868H285.776Z" fill="white"/>
<path d="M290.793 37.8017L286.944 48.4302L282.22 46.4735L286.069 35.8463L290.793 37.8017Z" fill="#73E6FF"/>
<path d="M290.792 37.8014L286.944 48.43L284.215 47.2997L288.064 36.6725L290.792 37.8014Z" fill="#A2EEFF"/>
<path d="M293.091 38.2036L292.978 38.5158C292.901 38.7116 292.76 38.8672 292.583 38.9506C292.407 39.0341 292.208 39.0391 292.029 38.9646L284.423 35.8147C284.334 35.781 284.253 35.7275 284.183 35.6576C284.114 35.5877 284.058 35.5028 284.019 35.4081C283.979 35.3134 283.958 35.2108 283.955 35.1065C283.953 35.0022 283.969 34.8985 284.004 34.8015L284.116 34.4879C284.193 34.2921 284.334 34.1365 284.511 34.053C284.687 33.9696 284.885 33.9646 285.065 34.0391L292.671 37.1945C292.76 37.2285 292.841 37.2821 292.911 37.3521C292.98 37.4221 293.036 37.5071 293.076 37.6019C293.115 37.6967 293.137 37.7993 293.139 37.9037C293.142 38.0081 293.126 38.112 293.091 38.2092V38.2036Z" fill="#2C3255"/>
<path d="M293.091 38.2035L292.978 38.5157C292.901 38.7115 292.76 38.8671 292.583 38.9506C292.407 39.034 292.208 39.039 292.029 38.9645L287.336 37.0216C287.248 36.9875 287.166 36.9338 287.097 36.8637C287.027 36.7935 286.971 36.7084 286.932 36.6135C286.893 36.5186 286.871 36.4158 286.868 36.3113C286.866 36.2069 286.882 36.1029 286.916 36.0056L287.03 35.6934C287.107 35.4976 287.248 35.342 287.424 35.2586C287.601 35.1751 287.799 35.1701 287.979 35.2446L292.671 37.1959C292.76 37.2298 292.841 37.2834 292.911 37.3534C292.98 37.4234 293.036 37.5084 293.076 37.6032C293.115 37.698 293.137 37.8007 293.139 37.905C293.142 38.0094 293.126 38.1133 293.091 38.2105V38.2035Z" fill="#2C3255"/>
<path d="M260.189 38.6648L258.656 90.4264H236.979L235.451 38.6648H260.189Z" fill="#FFAC56"/>
<path d="M260.189 34.9966V38.6663H235.451V34.9966C235.457 34.7132 235.564 34.444 235.747 34.248C235.931 34.0521 236.177 33.9454 236.431 33.9513H259.211C259.465 33.9457 259.711 34.0527 259.894 34.2486C260.077 34.4446 260.183 34.7136 260.189 34.9966Z" fill="#FFC988"/>
<path d="M258.656 90.4271V98.2529C258.656 99.602 257.63 100.699 256.365 100.699H239.27C238.005 100.699 236.979 99.602 236.979 98.2529V90.4271H258.656Z" fill="#FFDCA6"/>
<path d="M258.21 38.6654H256.724V35.9406C256.732 35.7268 256.813 35.5246 256.952 35.3763C257.09 35.2281 257.275 35.1454 257.467 35.1454C257.659 35.1454 257.843 35.2281 257.982 35.3763C258.12 35.5246 258.202 35.7268 258.21 35.9406V38.6654Z" fill="#FFAC56"/>
<path d="M253.844 38.6663H252.359V35.9415C252.359 35.722 252.437 35.5114 252.576 35.3561C252.715 35.2009 252.904 35.1136 253.101 35.1136C253.298 35.1136 253.487 35.2009 253.626 35.3561C253.765 35.5114 253.844 35.722 253.844 35.9415V38.6663Z" fill="#FFAC56"/>
<path d="M249.691 38.6656H248.203V35.9409C248.225 35.7383 248.313 35.5519 248.45 35.4167C248.587 35.2815 248.764 35.2069 248.947 35.2069C249.13 35.2069 249.307 35.2815 249.444 35.4167C249.581 35.5519 249.669 35.7383 249.691 35.9409V38.6656Z" fill="#FFAC56"/>
<path d="M244.811 38.6656H243.323V35.9409C243.345 35.7383 243.433 35.5519 243.57 35.4167C243.707 35.2815 243.884 35.2069 244.067 35.2069C244.25 35.2069 244.427 35.2815 244.564 35.4167C244.701 35.5519 244.789 35.7383 244.811 35.9409V38.6656Z" fill="#FFAC56"/>
<path d="M240.391 38.6656H238.902V35.9409C238.925 35.7383 239.013 35.5519 239.15 35.4167C239.287 35.2815 239.464 35.2069 239.647 35.2069C239.83 35.2069 240.007 35.2815 240.144 35.4167C240.281 35.5519 240.369 35.7383 240.391 35.9409V38.6656Z" fill="#FFAC56"/>
<path d="M237.425 64.5457C237.425 70.6781 242.076 75.6606 247.819 75.6606C253.561 75.6606 258.21 70.6836 258.21 64.5457C258.21 58.4077 253.559 53.4321 247.819 53.4321C242.079 53.4321 237.425 58.4077 237.425 64.5457Z" fill="#E89D4F"/>
<path fill-rule="evenodd" clip-rule="evenodd" d="M250.1 57.9813H246.196V71.7652H250.1V57.9813Z" fill="#FFCF9D"/>
<path fill-rule="evenodd" clip-rule="evenodd" d="M254.594 66.9592V62.7863H241.702V66.9592H254.594Z" fill="#FFCF9D"/>
<path d="M237.048 50.6452V88.3539C237.048 89.4926 236.185 90.4138 235.121 90.4138H215C213.936 90.4138 213.074 89.4926 213.074 88.3539V50.6452H237.048Z" fill="#4191B6"/>
<path d="M238.911 44.9113V49.5176C238.905 49.8234 238.791 50.1141 238.593 50.3258C238.395 50.5375 238.129 50.6529 237.855 50.6465H212.011C211.737 50.6525 211.472 50.537 211.274 50.3254C211.076 50.1138 210.961 49.8233 210.955 49.5176V44.9183C210.961 44.6124 211.076 44.3218 211.274 44.11C211.472 43.8981 211.737 43.7824 212.011 43.788H237.855C238.129 43.782 238.395 43.8977 238.593 44.1096C238.791 44.3215 238.905 44.6123 238.911 44.9183V44.9113Z" fill="#7DCFF5"/>
<path d="M237.048 54.9406H213.068V50.6452H237.048V54.9406Z" fill="#2D7597"/>
<path d="M217.975 50.6451H215.864V47.1678C215.873 46.8626 215.989 46.5735 216.186 46.3613C216.383 46.1492 216.646 46.0306 216.92 46.0306C217.193 46.0306 217.457 46.1492 217.653 46.3613C217.85 46.5735 217.966 46.8626 217.975 47.1678V50.6451Z" fill="#4191B6"/>
<path d="M222.324 50.6465H220.211V47.1692C220.224 46.8667 220.341 46.5816 220.538 46.3727C220.735 46.1639 220.996 46.0474 221.267 46.0474C221.539 46.0474 221.8 46.1639 221.997 46.3727C222.193 46.5816 222.31 46.8667 222.324 47.1692V50.6465Z" fill="#4191B6"/>
<path d="M226.735 50.6465H224.625V47.1692C224.638 46.8667 224.755 46.5816 224.952 46.3727C225.149 46.1639 225.41 46.0474 225.681 46.0474C225.953 46.0474 226.214 46.1639 226.411 46.3727C226.607 46.5816 226.725 46.8667 226.738 47.1692V50.6465H226.735Z" fill="#4191B6"/>
<path d="M231.021 50.6451H228.91V47.1678C228.919 46.8626 229.035 46.5735 229.232 46.3613C229.429 46.1492 229.692 46.0306 229.966 46.0306C230.239 46.0306 230.503 46.1492 230.7 46.3613C230.897 46.5735 231.012 46.8626 231.021 47.1678V50.6451Z" fill="#4191B6"/>
<path d="M235.525 50.6451H233.414V47.1678C233.423 46.8626 233.538 46.5735 233.735 46.3613C233.932 46.1492 234.195 46.0306 234.469 46.0306C234.743 46.0306 235.006 46.1492 235.203 46.3613C235.4 46.5735 235.516 46.8626 235.525 47.1678V50.6451Z" fill="#4191B6"/>
<path d="M235.06 59.6277V77.2653H215.055V59.6277H235.06Z" fill="white"/>
<path fill-rule="evenodd" clip-rule="evenodd" d="M226.902 61.8257H223V75.6096H226.902V61.8257Z" fill="#F44967"/>
<path fill-rule="evenodd" clip-rule="evenodd" d="M231.396 70.8056V66.6328H218.505V70.8056H231.396Z" fill="#F44967"/>
<path fill-rule="evenodd" clip-rule="evenodd" d="M282.85 41.5555L271.975 38.0712L278.739 15.097C279.152 13.6924 280.037 12.5211 281.209 11.829C282.38 11.1369 283.747 10.978 285.021 11.3855C285.711 11.6058 286.356 11.9761 286.918 12.475C287.479 12.974 287.947 13.5917 288.294 14.2928C288.641 14.9953 288.86 15.7674 288.938 16.5646C289.016 17.3619 288.952 18.1685 288.75 18.9381C286.575 27.2754 282.847 41.5569 282.847 41.5569L282.85 41.5555Z" fill="#3665C1"/>
<path fill-rule="evenodd" clip-rule="evenodd" d="M281.596 17.646L282.491 14.4404C282.796 13.3491 283.866 12.7275 284.894 13.055C285.132 13.1251 285.356 13.2478 285.551 13.4158C285.746 13.5839 285.909 13.794 286.03 14.0335C286.15 14.2731 286.227 14.5373 286.255 14.8104C286.282 15.0836 286.26 15.3601 286.19 15.6237L285.295 18.8292L281.596 17.646Z" fill="#5484CE"/>
<path fill-rule="evenodd" clip-rule="evenodd" d="M271.971 38.0769C269.575 46.0212 267.261 53.9822 265.268 62.0491C265.268 62.0491 260.268 81.1599 257.726 90.8993C257.339 92.381 257.491 93.9731 258.148 95.3314C258.805 96.6896 259.916 97.7049 261.239 98.1578C262.563 98.6109 263.994 98.4646 265.222 97.7504C266.45 97.0363 267.377 95.8118 267.801 94.3418C270.401 85.3341 275.334 68.2512 275.974 66.0351C276.02 65.8763 276.068 65.7188 276.118 65.5613C278.676 57.5975 280.885 49.716 282.85 41.5585L271.975 38.0742L271.971 38.0769Z" fill="#EAEAEA"/>
<path fill-rule="evenodd" clip-rule="evenodd" d="M261.835 94.2971C261.638 94.2351 261.453 94.1295 261.293 93.9866C261.133 93.8436 261 93.6663 260.903 93.4651C260.805 93.2638 260.745 93.0428 260.726 92.8151C260.706 92.5874 260.728 92.3577 260.79 92.1396L262.099 87.4623C262.227 87.0172 262.505 86.6447 262.874 86.4226C263.243 86.2005 263.675 86.1461 264.079 86.2707C264.276 86.3327 264.46 86.4383 264.621 86.5812C264.781 86.7241 264.913 86.9015 265.011 87.1027C265.108 87.304 265.169 87.525 265.188 87.7527C265.207 87.9804 265.185 88.2101 265.124 88.4281L263.815 93.1069C263.688 93.553 263.41 93.9265 263.041 94.1486C262.671 94.3707 262.239 94.424 261.835 94.2971Z" fill="#D1CFD0"/>
<path fill-rule="evenodd" clip-rule="evenodd" d="M264.951 74.9197C264.893 74.9014 264.839 74.8703 264.792 74.8281C264.745 74.786 264.706 74.7338 264.677 74.6745C264.648 74.6152 264.631 74.5501 264.625 74.4831C264.619 74.4161 264.626 74.3484 264.644 74.2842L268.298 61.2194C268.335 61.0877 268.417 60.9774 268.526 60.9118C268.635 60.8463 268.762 60.8306 268.881 60.8682L273.69 62.4013C273.748 62.4195 273.803 62.4505 273.85 62.4926C273.897 62.5346 273.936 62.5869 273.965 62.6461C273.994 62.7054 274.012 62.7706 274.018 62.8377C274.023 62.9048 274.017 62.9725 273.999 63.0368L270.345 76.103C270.308 76.2344 270.226 76.3444 270.117 76.4097C270.008 76.475 269.88 76.4905 269.761 76.4528L264.951 74.9197Z" fill="#B3B1B2"/>
<path fill-rule="evenodd" clip-rule="evenodd" d="M265.293 74.6167C265.24 74.6003 265.191 74.5723 265.149 74.5344C265.106 74.4964 265.071 74.4494 265.045 74.3959C265.019 74.3425 265.003 74.2838 264.998 74.2233C264.993 74.1628 264.999 74.1018 265.015 74.0439L268.484 61.6397C268.517 61.5209 268.591 61.4213 268.689 61.362C268.787 61.3027 268.902 61.2883 269.01 61.322L273.35 62.7157C273.403 62.7323 273.452 62.7604 273.494 62.7985C273.537 62.8366 273.572 62.8838 273.598 62.9373C273.624 62.9909 273.64 63.0497 273.645 63.1103C273.65 63.1708 273.644 63.2319 273.628 63.2899L270.159 75.6941C270.125 75.8127 270.051 75.912 269.952 75.9711C269.854 76.0301 269.739 76.0442 269.631 76.0105L265.293 74.6167Z" fill="#D1CFD0"/>
<path fill-rule="evenodd" clip-rule="evenodd" d="M266.075 70.2664L266.266 69.5821L271.415 71.2281L271.224 71.9138L266.075 70.2664Z" fill="#E41B16"/>
<path fill-rule="evenodd" clip-rule="evenodd" d="M265.665 71.735L265.856 71.0493L271.005 72.6952L270.814 73.381L265.665 71.735Z" fill="#E41B16"/>
<path fill-rule="evenodd" clip-rule="evenodd" d="M245.356 34.5622C245.356 33.8485 245.102 33.1642 244.649 32.6595C244.196 32.1549 243.583 31.8712 242.943 31.8709H227.471C226.831 31.8712 226.218 32.1549 225.765 32.6595C225.312 33.1642 225.058 33.8485 225.058 34.5622V66.7294C225.058 67.4431 225.312 68.1274 225.765 68.632C226.218 69.1367 226.831 69.4203 227.471 69.4207H242.943C243.583 69.4203 244.196 69.1367 244.649 68.632C245.102 68.1274 245.356 67.4431 245.356 66.7294V34.5622Z" fill="#CCD7D9"/>
<path fill-rule="evenodd" clip-rule="evenodd" d="M230.521 34.069C231.688 34.069 232.634 35.0809 232.634 36.3283C232.634 37.5757 231.688 38.5889 230.521 38.5889C229.355 38.5889 228.41 37.577 228.41 36.3311C228.41 35.0851 229.356 34.0718 230.521 34.0718V34.069Z" fill="white"/>
<path fill-rule="evenodd" clip-rule="evenodd" d="M239.859 34.069C241.025 34.069 241.971 35.0809 241.971 36.3283C241.971 37.5757 241.025 38.5889 239.859 38.5889C238.692 38.5889 237.75 37.5743 237.75 36.3283C237.75 35.0823 238.696 34.069 239.861 34.069H239.859Z" fill="white"/>
<path fill-rule="evenodd" clip-rule="evenodd" d="M230.521 48.6117C231.688 48.6117 232.634 49.6235 232.634 50.8695C232.634 52.1155 231.688 53.1274 230.521 53.1274C229.355 53.1274 228.41 52.1155 228.41 50.8695C228.41 49.6235 229.356 48.6117 230.521 48.6117Z" fill="white"/>
<path fill-rule="evenodd" clip-rule="evenodd" d="M239.859 48.6117C241.025 48.6117 241.971 49.6235 241.971 50.8695C241.971 52.1155 241.025 53.1274 239.859 53.1274C238.693 53.1274 237.748 52.1155 237.748 50.8695C237.748 49.6235 238.694 48.6117 239.859 48.6117Z" fill="white"/>
<path fill-rule="evenodd" clip-rule="evenodd" d="M230.555 41.2179C231.72 41.2179 232.666 42.2297 232.666 43.4757C232.666 44.7217 231.72 45.7335 230.555 45.7335C229.39 45.7335 228.444 44.7231 228.444 43.4757C228.444 42.2283 229.389 41.2179 230.555 41.2179Z" fill="white"/>
<path fill-rule="evenodd" clip-rule="evenodd" d="M239.892 41.2179C241.057 41.2179 242.004 42.2297 242.004 43.4757C242.004 44.7217 241.057 45.7335 239.892 45.7335C238.727 45.7335 237.78 44.7231 237.78 43.4757C237.78 42.2283 238.726 41.2179 239.892 41.2179Z" fill="white"/>
<path fill-rule="evenodd" clip-rule="evenodd" d="M230.555 55.7588C231.72 55.7588 232.666 56.7707 232.666 58.0181C232.666 59.2654 231.72 60.2759 230.555 60.2759C229.39 60.2759 228.444 59.264 228.444 58.0181C228.444 56.7721 229.389 55.7588 230.555 55.7588Z" fill="white"/>
<path fill-rule="evenodd" clip-rule="evenodd" d="M239.892 55.7588C241.057 55.7588 242.004 56.7707 242.004 58.0181C242.004 59.2654 241.057 60.2759 239.892 60.2759C238.727 60.2759 237.78 59.264 237.78 58.0181C237.78 56.7721 238.726 55.7588 239.892 55.7588Z" fill="white"/>
<path fill-rule="evenodd" clip-rule="evenodd" d="M230.555 62.7003C231.72 62.7003 232.666 63.7122 232.666 64.9582C232.666 66.2042 231.72 67.216 230.555 67.216C229.39 67.216 228.444 66.2042 228.444 64.9582C228.444 63.7122 229.389 62.7003 230.555 62.7003Z" fill="white"/>
<path fill-rule="evenodd" clip-rule="evenodd" d="M239.893 62.7003C241.058 62.7003 242.004 63.7122 242.004 64.9582C242.004 66.2042 241.058 67.216 239.893 67.216C238.728 67.216 237.78 66.2042 237.78 64.9582C237.78 63.7122 238.726 62.7003 239.893 62.7003Z" fill="white"/>
<path fill-rule="evenodd" clip-rule="evenodd" d="M235.382 34.6871C235.378 34.6066 235.346 34.5312 235.293 34.4761C235.24 34.421 235.17 34.3903 235.098 34.3903C235.026 34.3903 234.956 34.421 234.903 34.4761C234.851 34.5312 234.819 34.6066 234.814 34.6871V66.8655C234.819 66.9459 234.851 67.0213 234.903 67.0764C234.956 67.1315 235.026 67.1622 235.098 67.1622C235.17 67.1622 235.24 67.1315 235.293 67.0764C235.346 67.0213 235.378 66.9459 235.382 66.8655V34.6871Z" fill="#A6B0B2"/>
<path fill-rule="evenodd" clip-rule="evenodd" d="M220.11 58.0352C220.11 57.3215 219.855 56.6372 219.403 56.1326C218.95 55.6279 218.336 55.3443 217.696 55.3439H202.225C201.585 55.3443 200.971 55.6279 200.519 56.1326C200.066 56.6372 199.812 57.3215 199.811 58.0352V90.2024C199.812 90.9161 200.066 91.6004 200.519 92.1051C200.971 92.6097 201.585 92.8934 202.225 92.8937H217.696C218.336 92.8934 218.95 92.6097 219.403 92.1051C219.855 91.6004 220.11 90.9161 220.11 90.2024V58.0352Z" fill="#CCD7D9"/>
<path fill-rule="evenodd" clip-rule="evenodd" d="M205.276 57.5435C206.441 57.5435 207.388 58.5554 207.388 59.8014C207.388 61.0474 206.441 62.0592 205.276 62.0592C204.111 62.0592 203.164 61.0474 203.164 59.8014C203.164 58.5554 204.11 57.5435 205.276 57.5435Z" fill="white"/>
<path fill-rule="evenodd" clip-rule="evenodd" d="M214.614 57.5435C215.779 57.5435 216.725 58.5554 216.725 59.8014C216.725 61.0474 215.779 62.0592 214.614 62.0592C213.449 62.0592 212.501 61.0474 212.501 59.8014C212.501 58.5554 213.447 57.5435 214.614 57.5435Z" fill="white"/>
<path fill-rule="evenodd" clip-rule="evenodd" d="M205.276 72.0847C206.441 72.0847 207.388 73.0966 207.388 74.3426C207.388 75.5886 206.441 76.6018 205.276 76.6018C204.111 76.6018 203.164 75.5886 203.164 74.3426C203.164 73.0966 204.11 72.0847 205.276 72.0847Z" fill="white"/>
<path fill-rule="evenodd" clip-rule="evenodd" d="M214.614 72.0847C215.779 72.0847 216.725 73.0966 216.725 74.3426C216.725 75.5886 215.779 76.6018 214.614 76.6018C213.449 76.6018 212.501 75.5886 212.501 74.3426C212.501 73.0966 213.448 72.0847 214.614 72.0847Z" fill="white"/>
<path fill-rule="evenodd" clip-rule="evenodd" d="M205.309 64.6891C206.475 64.6891 207.421 65.701 207.421 66.9484C207.421 68.1957 206.475 69.2062 205.309 69.2062C204.143 69.2062 203.198 68.1943 203.198 66.9484C203.198 65.7024 204.144 64.6891 205.309 64.6891Z" fill="white"/>
<path fill-rule="evenodd" clip-rule="evenodd" d="M214.646 64.6891C215.813 64.6891 216.759 65.701 216.759 66.9484C216.759 68.1957 215.813 69.2062 214.646 69.2062C213.48 69.2062 212.535 68.1943 212.535 66.9484C212.535 65.7024 213.481 64.6891 214.646 64.6891Z" fill="white"/>
<path fill-rule="evenodd" clip-rule="evenodd" d="M205.309 79.2318C206.475 79.2318 207.421 80.2437 207.421 81.4897C207.421 82.7357 206.475 83.7475 205.309 83.7475C204.142 83.7475 203.197 82.7357 203.197 81.4897C203.197 80.2437 204.144 79.2318 205.309 79.2318Z" fill="white"/>
<path fill-rule="evenodd" clip-rule="evenodd" d="M214.646 79.2318C215.812 79.2318 216.759 80.2437 216.759 81.4897C216.759 82.7357 215.812 83.7475 214.646 83.7475C213.48 83.7475 212.535 82.7357 212.535 81.4897C212.535 80.2437 213.481 79.2318 214.646 79.2318Z" fill="white"/>
<path fill-rule="evenodd" clip-rule="evenodd" d="M205.309 86.1771C206.475 86.1771 207.421 87.189 207.421 88.4364C207.421 89.6837 206.475 90.6942 205.309 90.6942C204.142 90.6942 203.197 89.6823 203.197 88.4364C203.197 87.1904 204.144 86.1771 205.309 86.1771Z" fill="white"/>
<path fill-rule="evenodd" clip-rule="evenodd" d="M214.646 86.1771C215.812 86.1771 216.759 87.189 216.759 88.4364C216.759 89.6837 215.812 90.6942 214.646 90.6942C213.48 90.6942 212.535 89.6823 212.535 88.4364C212.535 87.1904 213.481 86.1771 214.646 86.1771Z" fill="white"/>
<path fill-rule="evenodd" clip-rule="evenodd" d="M210.136 58.1517C210.136 58.0678 210.106 57.9873 210.053 57.928C210 57.8686 209.928 57.8353 209.853 57.8353C209.777 57.8353 209.705 57.8686 209.652 57.928C209.599 57.9873 209.569 58.0678 209.569 58.1517V90.337C209.569 90.4209 209.599 90.5014 209.652 90.5607C209.705 90.6201 209.777 90.6534 209.853 90.6534C209.928 90.6534 210 90.6201 210.053 90.5607C210.106 90.5014 210.136 90.4209 210.136 90.337V58.1517Z" fill="#A6B0B2"/>
<path fill-rule="evenodd" clip-rule="evenodd" d="M274.23 42.6309C274.325 42.2975 274.358 41.9462 274.329 41.598C274.3 41.2497 274.208 40.9116 274.059 40.6037C273.91 40.2957 273.708 40.0242 273.463 39.8053C273.218 39.5864 272.937 39.4245 272.635 39.3292L257.812 34.5905C257.194 34.3967 256.533 34.4784 255.968 34.8183C255.403 35.1582 254.978 35.7297 254.784 36.4121L246.147 67.2637C246.053 67.597 246.019 67.9482 246.048 68.2964C246.077 68.6446 246.169 68.9827 246.318 69.2906C246.467 69.5985 246.669 69.8699 246.914 70.0886C247.159 70.3074 247.441 70.4691 247.742 70.564L262.565 75.3027C263.183 75.4965 263.844 75.415 264.409 75.0754C264.975 74.7358 265.399 74.1646 265.594 73.4825L274.23 42.6309Z" fill="#CCD7D9"/>
<path fill-rule="evenodd" clip-rule="evenodd" d="M260.145 37.6241C261.263 37.9809 261.895 39.2408 261.563 40.4352C261.23 41.6297 260.051 42.3084 258.938 41.9502C257.824 41.592 257.188 40.3335 257.52 39.1391C257.853 37.9446 259.033 37.2659 260.145 37.6241Z" fill="white"/>
<path fill-rule="evenodd" clip-rule="evenodd" d="M269.091 40.4867C270.208 40.8449 270.841 42.1034 270.509 43.2978C270.176 44.4923 268.996 45.171 267.884 44.8142C266.771 44.4574 266.134 43.1961 266.466 42.0031C266.799 40.81 267.978 40.1299 269.091 40.4867Z" fill="white"/>
<path fill-rule="evenodd" clip-rule="evenodd" d="M256.25 51.5513C257.367 51.9081 258 53.168 257.667 54.3624C257.335 55.5568 256.156 56.2356 255.042 55.8774C253.929 55.5192 253.292 54.2607 253.625 53.0676C253.957 51.8746 255.137 51.1945 256.25 51.5513Z" fill="white"/>
<path fill-rule="evenodd" clip-rule="evenodd" d="M265.19 54.4185C266.308 54.7767 266.94 56.0366 266.609 57.2296C266.278 58.4227 265.096 59.1028 263.984 58.746C262.871 58.3892 262.234 57.1293 262.565 55.9348C262.896 54.7404 264.078 54.0617 265.19 54.4185Z" fill="white"/>
<path fill-rule="evenodd" clip-rule="evenodd" d="M258.26 44.4834C259.377 44.8402 260.01 46.1001 259.677 47.2931C259.345 48.4862 258.166 49.1663 257.052 48.8095C255.939 48.4527 255.302 47.1928 255.635 45.9984C255.967 44.8039 257.147 44.1252 258.26 44.4834Z" fill="white"/>
<path fill-rule="evenodd" clip-rule="evenodd" d="M267.206 47.3449C268.323 47.7016 268.956 48.9616 268.624 50.156C268.291 51.3504 267.111 52.0292 265.999 51.671C264.886 51.3128 264.249 50.0543 264.581 48.8598C264.914 47.6654 266.094 46.9867 267.206 47.3449Z" fill="white"/>
<path fill-rule="evenodd" clip-rule="evenodd" d="M254.36 58.415C255.476 58.7718 256.11 60.0318 255.778 61.2248C255.445 62.4178 254.266 63.098 253.153 62.7412C252.039 62.3844 251.403 61.1244 251.735 59.93C252.068 58.7356 253.248 58.0569 254.36 58.415Z" fill="white"/>
<path fill-rule="evenodd" clip-rule="evenodd" d="M263.305 61.2782C264.422 61.6349 265.055 62.8949 264.722 64.0893C264.39 65.2837 263.211 65.9625 262.097 65.6043C260.984 65.2461 260.347 63.9876 260.681 62.7945C261.015 61.6015 262.192 60.92 263.306 61.2782H263.305Z" fill="white"/>
<path fill-rule="evenodd" clip-rule="evenodd" d="M252.5 65.0706C253.616 65.4274 254.25 66.6873 253.917 67.8818C253.585 69.0762 252.405 69.7549 251.292 69.3968C250.18 69.0386 249.542 67.78 249.875 66.5856C250.207 65.3912 251.387 64.7124 252.5 65.0706Z" fill="white"/>
<path fill-rule="evenodd" clip-rule="evenodd" d="M261.442 67.9314C262.56 68.2895 263.192 69.5481 262.86 70.7425C262.527 71.9369 261.349 72.6157 260.235 72.2589C259.121 71.9021 258.485 70.6408 258.817 69.4477C259.15 68.2547 260.33 67.5746 261.442 67.9314Z" fill="white"/>
<path fill-rule="evenodd" clip-rule="evenodd" d="M264.639 39.7034C264.65 39.6641 264.654 39.6228 264.651 39.5817C264.648 39.5407 264.637 39.5008 264.619 39.4645C264.602 39.4282 264.578 39.3962 264.549 39.3705C264.52 39.3447 264.487 39.3257 264.452 39.3145C264.379 39.2914 264.3 39.3009 264.234 39.3409C264.167 39.381 264.117 39.4485 264.094 39.5292L255.462 70.3654C255.45 70.4047 255.446 70.4462 255.45 70.4873C255.453 70.5284 255.464 70.5683 255.482 70.6046C255.499 70.641 255.523 70.6729 255.552 70.6986C255.581 70.7243 255.615 70.7433 255.65 70.7543C255.723 70.7774 255.801 70.7678 255.868 70.7277C255.934 70.6876 255.984 70.6201 256.007 70.5396L264.639 39.7034Z" fill="#A6B0B2"/>
<path d="M295.621 61.0164V175.281H195.079V61.0164H295.621Z" fill="#FEE4CB"/>
<path d="M194.869 175.281L190.012 169.678L185.365 168.974L190.012 60.0669L195.079 61.016L194.869 175.281Z" fill="#F7CEAD"/>
<path d="M224.625 113.99C224.625 118.562 225.841 123.03 228.118 126.831C230.396 130.632 233.633 133.595 237.421 135.344C241.209 137.094 245.377 137.552 249.398 136.66C253.419 135.768 257.112 133.567 260.011 130.335C262.91 127.102 264.885 122.984 265.685 118.5C266.484 114.017 266.074 109.37 264.505 105.146C262.936 100.923 260.279 97.3136 256.869 94.7741C253.46 92.2346 249.453 90.8793 245.353 90.8796C239.855 90.8796 234.583 93.3145 230.696 97.6486C226.809 101.983 224.625 107.861 224.625 113.99Z" fill="#3BC9CC"/>
<path d="M235.926 109.362H240.83V103.894C240.83 103.592 240.937 103.302 241.129 103.089C241.32 102.875 241.58 102.755 241.851 102.755H248.101C248.235 102.755 248.368 102.785 248.492 102.842C248.616 102.899 248.728 102.983 248.823 103.089C248.917 103.195 248.993 103.32 249.044 103.458C249.095 103.596 249.121 103.745 249.121 103.894V109.362H254.025C254.295 109.362 254.555 109.481 254.747 109.695C254.938 109.908 255.046 110.197 255.046 110.499V117.468C255.046 117.617 255.02 117.765 254.968 117.903C254.917 118.041 254.842 118.167 254.747 118.273C254.652 118.378 254.54 118.462 254.416 118.519C254.292 118.577 254.159 118.606 254.025 118.606H249.125V124.074C249.125 124.223 249.099 124.371 249.048 124.509C248.996 124.648 248.921 124.773 248.827 124.879C248.732 124.985 248.619 125.068 248.495 125.126C248.372 125.183 248.239 125.212 248.105 125.212H241.855C241.584 125.212 241.324 125.092 241.133 124.879C240.941 124.665 240.834 124.376 240.834 124.074V118.609H235.93C235.659 118.609 235.4 118.489 235.208 118.275C235.017 118.062 234.909 117.772 234.909 117.47V110.504C234.909 110.203 235.017 109.914 235.208 109.701C235.4 109.487 235.659 109.368 235.93 109.367L235.926 109.362Z" fill="#EBF2FD"/>
<path fill-rule="evenodd" clip-rule="evenodd" d="M174.145 122.401H176.181C176.517 122.402 176.847 122.299 177.134 122.104C177.421 121.909 177.654 121.628 177.806 121.295C178.624 119.511 179.796 117.707 181.252 115.888C187.774 107.743 197.335 104.552 211.316 91.452C211.538 91.2436 211.795 91.0861 212.071 90.9885C212.348 90.8909 212.639 90.8552 212.928 90.8833C213.217 90.9113 213.498 91.0028 213.756 91.1523C214.013 91.3018 214.241 91.5064 214.427 91.7545C215.369 93.0088 216.591 94.6311 217.521 95.8688C217.891 96.3611 218.073 96.9951 218.03 97.6354C217.986 98.2756 217.72 98.8716 217.287 99.2959L201.301 114.978C201.224 115.051 201.169 115.148 201.144 115.257C201.118 115.366 201.124 115.481 201.159 115.587C201.195 115.692 201.258 115.783 201.342 115.846C201.425 115.91 201.524 115.943 201.625 115.941H242.902C243.532 115.941 244.136 116.22 244.582 116.717C245.027 117.213 245.277 117.887 245.277 118.589V121.608C245.277 122.31 245.027 122.984 244.582 123.481C244.136 123.977 243.532 124.256 242.902 124.256H246.581C247.211 124.256 247.815 124.535 248.261 125.032C248.706 125.528 248.956 126.202 248.956 126.904V132.2C248.956 132.903 248.706 133.576 248.261 134.073C247.815 134.57 247.211 134.849 246.581 134.849H244.125C244.755 134.849 245.359 135.128 245.804 135.624C246.25 136.121 246.5 136.794 246.5 137.497V141.654C246.5 142.356 246.25 143.03 245.804 143.527C245.359 144.023 244.755 144.302 244.125 144.302H236.667C237.297 144.302 237.901 144.581 238.347 145.078C238.792 145.574 239.042 146.248 239.042 146.95V150.765C239.042 151.467 238.792 152.141 238.347 152.637C237.901 153.134 237.297 153.413 236.667 153.413H179.989C179.475 153.413 178.983 153.185 178.62 152.78C178.257 152.375 178.053 151.827 178.052 151.254V149.407C178.053 149.275 178.029 149.144 177.984 149.022C177.939 148.9 177.872 148.789 177.788 148.696C177.705 148.603 177.605 148.529 177.495 148.478C177.386 148.428 177.268 148.402 177.15 148.403H173.455L174.145 122.401Z" fill="#FEB4C3" stroke="#FEC7B2" stroke-width="0.24" stroke-linecap="round" stroke-linejoin="round"/>
<path d="M240.693 124.64H215.956M240.693 135.13H215.956M234.19 144.581H214.715" stroke="#BE8888" stroke-width="2" stroke-linecap="round" stroke-linejoin="round"/>
</g>
<defs>
<clipPath id="clip0_1281_655">
<rect width="268" height="200" fill="white" transform="translate(34 5)"/>
</clipPath>
</defs>
</svg>
