<svg width="201" height="224" viewBox="0 0 201 224" fill="none" xmlns="http://www.w3.org/2000/svg">
<g style="mix-blend-mode:lighten">
<path d="M90.6479 210.736C89.1157 210.737 87.6101 210.333 86.2821 209.567L27.7825 175.692C27.5497 175.559 27.3561 175.367 27.2215 175.135C27.0868 174.903 27.0159 174.639 27.0159 174.371C27.0159 174.102 27.0868 173.839 27.2215 173.607C27.3561 173.375 27.5497 173.182 27.7825 173.05L133.179 112.006L133.252 112.045L196.032 148.377C196.264 148.51 196.458 148.702 196.593 148.934C196.727 149.166 196.798 149.43 196.798 149.698C196.798 149.967 196.727 150.231 196.593 150.463C196.458 150.695 196.264 150.887 196.032 151.019L95.0136 209.567C93.6862 210.335 92.1803 210.738 90.6479 210.736ZM133.199 112.349L27.9471 173.314C27.7612 173.422 27.6068 173.577 27.4995 173.764C27.3921 173.95 27.3356 174.162 27.3356 174.378C27.3356 174.593 27.3921 174.805 27.4995 174.991C27.6068 175.178 27.7612 175.333 27.9471 175.441L86.427 209.316C87.7126 210.056 89.169 210.445 90.6512 210.445C92.1334 210.445 93.5897 210.056 94.8753 209.316L195.906 150.795C196.094 150.689 196.25 150.534 196.357 150.347C196.465 150.16 196.521 149.947 196.519 149.731C196.519 149.516 196.463 149.304 196.355 149.117C196.248 148.93 196.093 148.775 195.906 148.668L133.199 112.349Z" fill="#8686F2"/>
</g>
<path d="M129.92 85.3833L115.848 1.61517L116.974 1.13295L115.275 0.155289C115.071 0.0403695 114.838 -0.012681 114.604 0.00256007C114.37 0.0178011 114.146 0.100678 113.958 0.241163L1.47621 65.4074C1.00197 65.7132 0.616906 66.1396 0.360149 66.6432C0.103391 67.1467 -0.0159058 67.7095 0.0143762 68.2743L14.2047 152.716C14.2196 152.899 14.2822 153.075 14.3862 153.225C14.4903 153.376 14.6321 153.497 14.7973 153.575L16.4567 154.539L16.7464 152.98L16.6477 153.013L128.458 88.2766C128.939 87.9711 129.328 87.5409 129.586 87.0317C129.843 86.5224 129.959 85.9529 129.92 85.3833Z" fill="url(#paint0_linear_531_56589)"/>
<path d="M2.10143 67.6999L0.257682 66.8808C0.0483729 67.3135 -0.0360234 67.7963 0.0140443 68.2747L14.2044 152.717C14.2192 152.899 14.2819 153.075 14.3859 153.226C14.4899 153.376 14.6317 153.497 14.797 153.575L16.4564 154.54L16.7461 152.981L16.6473 153.014L22.3103 149.711L2.10143 67.6999Z" fill="url(#paint1_linear_531_56589)"/>
<path d="M130.222 89.2682L17.7333 154.421C16.8641 154.923 16.1201 154.633 15.9686 153.761L1.77829 69.2922C1.74801 68.7275 1.86731 68.1647 2.12407 67.6612C2.38082 67.1576 2.76589 66.7312 3.24013 66.4253L115.735 1.27235C116.605 0.770309 117.342 1.06096 117.5 1.93293L131.684 86.4013C131.717 86.9664 131.599 87.5302 131.342 88.0343C131.085 88.5383 130.698 88.9643 130.222 89.2682Z" fill="#24126A"/>
<g opacity="0.51">
<path d="M114.268 6.66284L5.83508 69.4642L19.2813 148.991L127.641 86.2297L114.268 6.66284Z" fill="#453C9E"/>
</g>
<path d="M200.964 129.272L194.827 132.489L133.265 96.8175C132.629 96.5285 131.934 96.3935 131.236 96.4234C130.539 96.4532 129.858 96.6471 129.248 96.9893L23.0547 158.463C22.034 157.895 17.4049 155.662 17.4049 155.662L19.6503 161.535C19.7742 161.843 20.0094 162.093 20.3088 162.235L85.1431 199.782C85.7786 200.073 86.4733 200.209 87.1711 200.18C87.8689 200.152 88.5502 199.959 89.1598 199.617L197.81 136.69C198.218 136.483 198.541 136.139 198.725 135.719L200.964 129.272Z" fill="url(#paint2_linear_531_56589)"/>
<path d="M199.989 130.257L88.64 194.75C88.0142 195.097 87.3167 195.293 86.6024 195.322C85.8881 195.352 85.1767 195.215 84.5244 194.921L18.0769 156.436C17.0233 155.822 17.155 154.758 18.3732 154.051L129.723 89.559C130.348 89.2122 131.046 89.0161 131.76 88.9863C132.475 88.9565 133.186 89.0937 133.838 89.3872L200.306 127.873C201.339 128.487 201.208 129.55 199.989 130.257Z" fill="url(#paint3_linear_531_56589)"/>
<path opacity="0.5" d="M199.989 129.596L88.6395 194.088C88.0138 194.435 87.3162 194.631 86.602 194.661C85.8877 194.691 85.1763 194.554 84.524 194.26L18.0765 155.775C17.7769 155.626 17.5424 155.372 17.418 155.061C17.3353 155.331 17.3571 155.623 17.4792 155.878C17.6012 156.132 17.8145 156.331 18.0765 156.435L84.524 194.921C85.1763 195.214 85.8877 195.351 86.602 195.322C87.3162 195.292 88.0138 195.096 88.6395 194.749L199.989 130.257C200.812 129.781 201.128 129.14 200.924 128.585C200.747 129.026 200.414 129.386 199.989 129.596Z" fill="white"/>
<path d="M55.0564 180.799V179.577C55.0564 179.458 55.1222 179.405 55.2144 179.451L59.5209 181.948C59.5686 181.983 59.6076 182.029 59.635 182.082C59.6624 182.134 59.6774 182.193 59.679 182.252V183.474C59.679 183.593 59.6065 183.646 59.5209 183.593L55.2144 181.103C55.1656 181.069 55.1257 181.023 55.0982 180.97C55.0707 180.917 55.0564 180.858 55.0564 180.799Z" fill="#2842A2"/>
<path d="M61.4968 184.529V183.3C61.4968 183.188 61.5692 183.135 61.6548 183.181L65.9613 185.678C66.0088 185.712 66.0479 185.757 66.0753 185.808C66.1027 185.86 66.1178 185.917 66.1193 185.976V187.204C66.1193 187.317 66.0469 187.376 65.9613 187.323L61.6548 184.826C61.6073 184.792 61.5682 184.748 61.5408 184.696C61.5134 184.645 61.4983 184.588 61.4968 184.529Z" fill="#2842A2"/>
<path d="M35.4011 152.829L127.931 99.2364C128.231 99.0624 128.572 98.9709 128.919 98.9709C129.266 98.9709 129.606 99.0624 129.907 99.2364L162.831 118.393C162.939 118.455 163.029 118.544 163.091 118.652C163.154 118.76 163.187 118.883 163.187 119.008C163.187 119.132 163.154 119.255 163.091 119.363C163.029 119.471 162.939 119.56 162.831 119.622L70.3863 173.168C70.086 173.342 69.7453 173.434 69.3986 173.434C69.0518 173.434 68.7112 173.342 68.4109 173.168L35.4143 154.064C35.3056 154.003 35.2149 153.914 35.1514 153.806C35.0879 153.698 35.0537 153.576 35.0524 153.451C35.0511 153.325 35.0826 153.202 35.1438 153.093C35.205 152.984 35.2937 152.893 35.4011 152.829Z" fill="#ADB1F2"/>
<path d="M35.4011 154.066L35.7304 154.258L127.918 100.857C128.218 100.683 128.559 100.591 128.906 100.591C129.253 100.591 129.593 100.683 129.893 100.857L162.508 119.782L162.837 119.591C162.946 119.529 163.035 119.44 163.098 119.332C163.161 119.224 163.194 119.101 163.194 118.976C163.194 118.851 163.161 118.729 163.098 118.621C163.035 118.513 162.946 118.424 162.837 118.362L129.913 99.2051C129.613 99.0312 129.272 98.9396 128.925 98.9396C128.579 98.9396 128.238 99.0312 127.938 99.2051L35.4011 152.831C35.2931 152.894 35.2034 152.984 35.1411 153.092C35.0787 153.2 35.0459 153.323 35.0459 153.449C35.0459 153.574 35.0787 153.697 35.1411 153.805C35.2034 153.914 35.2931 154.004 35.4011 154.066Z" fill="#9198DB"/>
<path d="M132.415 104.084L52.0405 150.635L48.465 148.568L128.839 102.01L132.415 104.084Z" fill="#24126A"/>
<path d="M141.173 109.156L65.7831 152.821L62.2141 150.753L137.597 107.089L141.173 109.156Z" fill="#24126A"/>
<path d="M146.882 112.463L58.119 163.876L54.5434 161.808L143.307 110.395L146.882 112.463Z" fill="#24126A"/>
<path d="M152.584 115.771L63.8274 167.177L60.2518 165.11L149.015 113.697L152.584 115.771Z" fill="#24126A"/>
<path d="M158.294 119.071L69.5304 170.477L65.9614 168.41L154.718 117.003L158.294 119.071Z" fill="#24126A"/>
<path d="M47.1815 153.449L43.606 155.517L40.037 153.449L43.606 151.375L47.1815 153.449Z" fill="#24126A"/>
<path d="M59.7846 156.297L52.3701 160.59L48.7945 158.523L56.2156 154.229L59.7846 156.297Z" fill="#24126A"/>
<path d="M131.493 165.803L156.443 151.35C157.418 150.788 157.418 149.87 156.443 149.302L139.382 139.426C138.836 139.146 138.231 139 137.617 139C137.004 139 136.399 139.146 135.853 139.426L110.903 153.873C109.928 154.441 109.928 155.353 110.903 155.921L127.964 165.829C128.514 166.1 129.119 166.238 129.732 166.234C130.344 166.229 130.947 166.082 131.493 165.803Z" fill="url(#paint4_linear_531_56589)"/>
<path d="M110.903 154.712L135.853 140.258C136.401 139.984 137.005 139.841 137.617 139.841C138.23 139.841 138.834 139.984 139.382 140.258L156.443 150.167C156.699 150.309 156.911 150.519 157.056 150.775C157.313 150.279 157.115 149.724 156.443 149.328L139.382 139.452C138.836 139.172 138.231 139.026 137.617 139.026C137.004 139.026 136.399 139.172 135.853 139.452L110.903 153.899C110.244 154.289 110.027 154.844 110.29 155.339C110.427 155.073 110.64 154.855 110.903 154.712Z" fill="#9198DB"/>
<g opacity="0.11">
<mask id="mask0_531_56589" style="mask-type:luminance" maskUnits="userSpaceOnUse" x="5" y="6" width="123" height="143">
<path d="M114.262 6.66284L5.82983 69.4642L19.2761 148.991L127.636 86.2297L114.262 6.66284Z" fill="white"/>
</mask>
<g mask="url(#mask0_531_56589)">
<path d="M129.848 89.4244L18.4858 153.917C17.8592 154.265 17.1605 154.461 16.445 154.491C15.7294 154.521 15.0168 154.383 14.3637 154.089L-52.0773 115.603C-53.1308 114.989 -52.9991 113.925 -51.781 113.218L59.562 48.7261C60.1885 48.3782 60.8873 48.1815 61.6028 48.1517C62.3183 48.1219 63.0309 48.2598 63.6841 48.5543L130.125 87.0397C131.165 87.654 131.047 88.7176 129.848 89.4244Z" fill="url(#paint5_linear_531_56589)"/>
<path d="M18.1497 100.981L43.0996 86.5345C44.0742 85.9664 44.0742 85.0548 43.0996 84.4867L26.0383 74.578C25.4903 74.3035 24.8861 74.1606 24.2736 74.1606C23.661 74.1606 23.0569 74.3035 22.5089 74.578L-2.44108 89.0579C-3.41564 89.6194 -3.41564 90.5376 -2.44108 91.0991L14.6202 101.008C15.1687 101.284 15.7746 101.425 16.3881 101.421C17.0017 101.416 17.6054 101.266 18.1497 100.981Z" fill="url(#paint6_linear_531_56589)"/>
<path d="M-2.44107 89.9012L22.5154 75.4477C23.0618 75.1677 23.6666 75.0216 24.2802 75.0216C24.8937 75.0216 25.4986 75.1677 26.0449 75.4477L43.1062 85.3564C43.3647 85.4922 43.5776 85.7013 43.7186 85.9575C43.982 85.4687 43.7845 84.9072 43.1062 84.5175L26.0449 74.6088C25.4969 74.3343 24.8927 74.1914 24.2802 74.1914C23.6676 74.1914 23.0635 74.3343 22.5154 74.6088L-2.44107 89.0623C-3.09955 89.452 -3.31027 90.0069 -3.05346 90.5023C-2.90867 90.249 -2.69669 90.0409 -2.44107 89.9012Z" fill="#9198DB"/>
<path d="M-13.4047 123.569L79.1451 69.9763C79.4454 69.8024 79.7861 69.7108 80.1328 69.7108C80.4796 69.7108 80.8202 69.8024 81.1206 69.9763L114.045 89.1001C114.153 89.1628 114.242 89.2528 114.305 89.3612C114.367 89.4696 114.4 89.5926 114.4 89.7177C114.4 89.8429 114.367 89.9659 114.305 90.0743C114.242 90.1827 114.153 90.2727 114.045 90.3354L21.5805 143.902C21.2802 144.076 20.9395 144.167 20.5928 144.167C20.246 144.167 19.9054 144.076 19.6051 143.902L-13.385 124.804C-13.494 124.744 -13.5851 124.655 -13.6492 124.548C-13.7134 124.44 -13.7482 124.318 -13.7502 124.193C-13.7522 124.067 -13.7213 123.944 -13.6607 123.834C-13.6 123.725 -13.5117 123.634 -13.4047 123.569Z" fill="#ADB1F2"/>
<path d="M-13.4051 124.804L-13.0759 124.996L79.1117 71.5947C79.4121 71.4208 79.7527 71.3292 80.0995 71.3292C80.4462 71.3292 80.7869 71.4208 81.0872 71.5947L113.708 90.527L114.038 90.3354C114.146 90.2727 114.235 90.1827 114.298 90.0743C114.36 89.9659 114.393 89.8429 114.393 89.7177C114.393 89.5926 114.36 89.4696 114.298 89.3612C114.235 89.2528 114.146 89.1627 114.038 89.1001L81.1135 69.9763C80.8132 69.8024 80.4726 69.7108 80.1258 69.7108C79.7791 69.7108 79.4384 69.8024 79.1381 69.9763L-13.4051 123.569C-13.5132 123.632 -13.6028 123.722 -13.6652 123.83C-13.7276 123.939 -13.7604 124.062 -13.7604 124.187C-13.7604 124.312 -13.7276 124.435 -13.6652 124.543C-13.6028 124.652 -13.5132 124.742 -13.4051 124.804Z" fill="#9198DB"/>
<path d="M105.445 87.7984L24.8336 134.488L28.0273 136.331L108.639 89.648L105.445 87.7984Z" fill="#24126A"/>
<path d="M96.9507 82.8793L20.3362 127.257L23.5298 129.107L100.144 84.7289L96.9507 82.8793Z" fill="#24126A"/>
<path d="M14.6138 130.572L7.45605 134.714L10.6497 136.563L17.8074 132.415L14.6138 130.572Z" fill="#24126A"/>
<path d="M20.9348 136.749L15.9501 139.636L19.1437 141.485L24.1284 138.598L20.9348 136.749Z" fill="#24126A"/>
<path d="M91.63 79.7944L2.1355 131.63L5.32914 133.48L94.8236 81.6506L91.63 79.7944Z" fill="#24126A"/>
<path d="M86.3093 76.7143L-3.18518 128.55L0.00846195 130.4L89.5029 78.5639L86.3093 76.7143Z" fill="#24126A"/>
<path d="M80.9887 73.6318L-8.50574 125.467L-5.31868 127.317L84.1758 75.4814L80.9887 73.6318Z" fill="#24126A"/>
</g>
</g>
<path opacity="0.42" d="M78.2749 148.059L54.293 133.249L108.223 102.01L133.673 119.179L78.2749 148.059Z" fill="url(#paint7_radial_531_56589)"/>
<path opacity="0.42" d="M54.2928 133.248L48.7945 98.4284L99.4055 69.3035V107.049L54.2928 133.248Z" fill="url(#paint8_radial_531_56589)"/>
<path d="M104.7 52.3932L99.3462 49.2951C99.3059 49.2692 99.2591 49.2554 99.2113 49.2554C99.1634 49.2554 99.1166 49.2692 99.0763 49.2951L31.9834 88.1702C31.8633 88.2573 31.765 88.3714 31.6965 88.5032C31.6279 88.6351 31.5909 88.7811 31.5883 88.9298V101.639C31.5851 101.694 31.5934 101.749 31.6127 101.8C31.632 101.851 31.6618 101.898 31.7003 101.937L37.1064 105.061L37.1525 98.9244L99.0499 63.0681C99.1697 62.9806 99.2676 62.8665 99.3362 62.7347C99.4047 62.603 99.442 62.4571 99.445 62.3085V57.9288L104.7 52.3932Z" fill="url(#paint9_linear_531_56589)"/>
<path d="M104.463 66.1884L37.3699 105.05C37.1526 105.176 36.9749 105.05 36.9749 104.746V92.0435C36.9764 91.8946 37.0129 91.7481 37.0816 91.6161C37.1503 91.4841 37.2491 91.3702 37.3699 91.2838L104.463 52.4219C104.68 52.2964 104.858 52.4219 104.858 52.7258V65.4287C104.855 65.5774 104.818 65.7235 104.75 65.8553C104.681 65.9872 104.583 66.1012 104.463 66.1884Z" fill="url(#paint10_linear_531_56589)"/>
<path opacity="0.6" d="M95.2045 63.6149L42.967 94.4244C44.622 95.8636 46.1428 97.4512 47.5106 99.1673L100.137 68.6882C98.6645 66.8371 97.0123 65.1376 95.2045 63.6149Z" fill="#24126A"/>
<path d="M102.547 62.3697L39.2863 99.0121C39.1349 99.0979 39.0098 99.0121 39.0098 98.8073V95.6167C39.0123 95.5141 39.0386 95.4136 39.0866 95.323C39.1346 95.2324 39.203 95.1543 39.2863 95.0948L102.547 58.4525C102.698 58.3666 102.817 58.4525 102.817 58.6638V61.8545C102.814 61.9553 102.788 62.0542 102.741 62.1435C102.695 62.2328 102.628 62.3102 102.547 62.3697Z" fill="#24126A"/>
<path d="M102.547 58.4515L101.263 59.198V60.9221C101.26 61.0246 101.234 61.1252 101.186 61.2158C101.138 61.3063 101.07 61.3845 100.986 61.4439L39.0098 97.3398V98.8063C39.0098 99.0045 39.1349 99.097 39.2863 99.0111L102.547 62.3687C102.628 62.3092 102.695 62.2319 102.741 62.1425C102.788 62.0532 102.814 61.9544 102.817 61.8535V58.6629C102.85 58.4581 102.698 58.3656 102.547 58.4515Z" fill="#453C9E"/>
<path opacity="0.96" d="M138.085 199.849L190.717 169.369C183.928 165.406 178.206 156.818 176.455 148.594C176.115 146.946 175.433 145.388 174.453 144.022C173.472 142.656 172.216 141.513 170.765 140.667L131 117.633C125.54 114.482 120.945 110.02 117.627 104.649C114.309 99.2775 112.372 93.1639 111.989 86.8565C111.331 76.0428 103.198 65.4075 96.8769 61.7545L44.2444 92.2204C50.4802 95.8272 57.335 105.921 58.1186 116.55C58.5313 122.851 60.4761 128.955 63.7832 134.328C67.0902 139.701 71.6588 144.179 77.0895 147.372L118.139 171.153C119.588 172.001 120.843 173.145 121.823 174.511C122.803 175.876 123.486 177.433 123.829 179.08C125.574 187.311 131.296 195.918 138.085 199.849Z" fill="url(#paint11_linear_531_56589)"/>
<path opacity="0.8" d="M96.8767 61.7402L44.2441 92.2193C44.6656 92.4637 45.087 92.728 45.4953 93.0054L98.1278 62.5527C97.713 62.2422 97.2981 61.978 96.8767 61.7402Z" fill="#453C9E"/>
<path d="M169.1 78.408H152.315V133.329C152.315 134.577 153.131 135.819 154.771 136.77C158.064 138.666 163.331 138.666 166.624 136.77C168.263 135.819 169.08 134.577 169.08 133.329L169.1 78.408Z" fill="url(#paint12_linear_531_56589)"/>
<path d="M169.1 78.408H152.315V133.329C152.315 134.577 153.131 135.819 154.771 136.77C158.064 138.666 163.331 138.666 166.624 136.77C168.263 135.819 169.08 134.577 169.08 133.329L169.1 78.408Z" fill="url(#paint13_linear_531_56589)"/>
<path d="M166.643 81.8235C163.351 83.7259 158.05 83.7259 154.791 81.8235C151.531 79.921 151.498 76.8493 154.791 74.9468C158.083 73.0444 163.351 73.051 166.643 74.9468C169.936 76.8427 169.923 79.9276 166.643 81.8235Z" fill="url(#paint14_linear_531_56589)"/>
<path opacity="0.3" d="M164.543 80.6073C163.355 81.2099 162.042 81.5238 160.711 81.5238C159.38 81.5238 158.067 81.2099 156.879 80.6073C154.758 79.3786 154.758 77.3902 156.879 76.1682C158.065 75.5626 159.377 75.2469 160.708 75.2469C162.039 75.2469 163.351 75.5626 164.537 76.1682C166.657 77.3902 166.657 79.3786 164.543 80.6073Z" fill="url(#paint15_linear_531_56589)"/>
<path opacity="0.5" d="M166.643 81.4598C163.351 83.3622 158.05 83.3622 154.79 81.4598C153.23 80.5614 152.42 79.3856 152.347 78.2031C152.262 79.5243 153.072 80.8454 154.79 81.8231C158.083 83.7256 163.351 83.7256 166.643 81.8231C168.362 80.8256 169.172 79.5111 169.086 78.2031C169.013 79.3856 168.204 80.5614 166.643 81.4598Z" fill="white"/>
<path d="M169.1 70.5684H152.315V73.8713C152.315 75.1131 153.131 76.3616 154.771 77.3063C158.064 79.2087 163.331 79.2087 166.624 77.3063C168.263 76.3616 169.08 75.1131 169.08 73.8713L169.1 70.5684Z" fill="url(#paint16_linear_531_56589)"/>
<path d="M169.1 70.5684H152.315V73.8713C152.315 75.1131 153.131 76.3616 154.771 77.3063C158.064 79.2087 163.331 79.2087 166.624 77.3063C168.263 76.3616 169.08 75.1131 169.08 73.8713L169.1 70.5684Z" fill="url(#paint17_linear_531_56589)"/>
<path d="M160.711 75.4278C165.347 75.4278 169.106 73.251 169.106 70.5659C169.106 67.8808 165.347 65.704 160.711 65.704C156.074 65.704 152.315 67.8808 152.315 70.5659C152.315 73.251 156.074 75.4278 160.711 75.4278Z" fill="url(#paint18_linear_531_56589)"/>
<path opacity="0.5" d="M166.643 73.6439C163.351 75.5463 158.05 75.5463 154.79 73.6439C153.23 72.7455 152.42 71.5696 152.347 70.3872C152.262 71.7084 153.072 73.0295 154.79 74.0072C158.083 75.903 163.351 75.903 166.643 74.0072C168.362 73.0097 169.172 71.6952 169.086 70.3872C169.014 71.5696 168.204 72.7455 166.643 73.6439Z" fill="white"/>
<path d="M155.219 117.382H138.408V141.368C138.408 142.61 139.224 143.858 140.864 144.803C144.156 146.705 149.457 146.705 152.716 144.803C154.356 143.858 155.173 142.61 155.173 141.368L155.219 117.382Z" fill="url(#paint19_linear_531_56589)"/>
<path d="M155.219 117.382H138.408V141.368C138.408 142.61 139.224 143.858 140.864 144.803C144.156 146.705 149.457 146.705 152.716 144.803C154.356 143.858 155.173 142.61 155.173 141.368L155.219 117.382Z" fill="url(#paint20_linear_531_56589)"/>
<path d="M146.83 122.215C151.467 122.215 155.226 120.039 155.226 117.353C155.226 114.668 151.467 112.492 146.83 112.492C142.193 112.492 138.434 114.668 138.434 117.353C138.434 120.039 142.193 122.215 146.83 122.215Z" fill="url(#paint21_linear_531_56589)"/>
<path opacity="0.5" d="M152.762 120.434C149.47 122.336 144.169 122.336 140.91 120.434C139.349 119.535 138.539 118.36 138.467 117.177C138.381 118.498 139.191 119.82 140.91 120.797C144.202 122.693 149.503 122.693 152.762 120.797C154.481 119.8 155.291 118.485 155.205 117.177C155.133 118.36 154.323 119.535 152.762 120.434Z" fill="white"/>
<path d="M141.338 113.106H124.58V149.372C124.58 150.614 125.396 151.856 127.036 152.807C130.328 154.709 135.629 154.709 138.889 152.807C140.528 151.856 141.345 150.614 141.345 149.372L141.338 113.106Z" fill="url(#paint22_linear_531_56589)"/>
<path d="M141.338 113.106H124.58V149.372C124.58 150.614 125.396 151.856 127.036 152.807C130.328 154.709 135.629 154.709 138.889 152.807C140.528 151.856 141.345 150.614 141.345 149.372L141.338 113.106Z" fill="url(#paint23_linear_531_56589)"/>
<path d="M138.882 116.541C135.589 118.443 130.289 118.443 127.029 116.541C123.77 114.639 123.737 111.567 127.029 109.671C130.322 107.775 135.622 107.769 138.882 109.671C142.141 111.573 142.161 114.645 138.882 116.541Z" fill="url(#paint24_linear_531_56589)"/>
<path opacity="0.5" d="M138.882 116.187C135.589 118.082 130.289 118.082 127.029 116.187C125.468 115.282 124.658 114.112 124.586 112.93C124.5 114.251 125.31 115.572 127.029 116.543C130.321 118.446 135.622 118.446 138.882 116.543C140.6 115.552 141.41 114.231 141.325 112.93C141.252 114.112 140.442 115.282 138.882 116.187Z" fill="white"/>
<path d="M127.457 127.673H110.673V157.399C110.673 158.648 111.489 159.89 113.129 160.841C116.421 162.737 121.689 162.737 124.982 160.841C126.621 159.89 127.438 158.648 127.438 157.399L127.457 127.673Z" fill="url(#paint25_linear_531_56589)"/>
<path d="M127.457 127.673H110.673V157.399C110.673 158.648 111.489 159.89 113.129 160.841C116.421 162.737 121.689 162.737 124.982 160.841C126.621 159.89 127.438 158.648 127.438 157.399L127.457 127.673Z" fill="url(#paint26_linear_531_56589)"/>
<path d="M119.068 132.535C123.705 132.535 127.464 130.358 127.464 127.673C127.464 124.988 123.705 122.811 119.068 122.811C114.431 122.811 110.673 124.988 110.673 127.673C110.673 130.358 114.431 132.535 119.068 132.535Z" fill="url(#paint27_linear_531_56589)"/>
<path opacity="0.5" d="M125.001 130.751C121.708 132.653 116.44 132.653 113.148 130.751C111.587 129.846 110.777 128.677 110.705 127.494C110.619 128.815 111.429 130.137 113.148 131.114C116.44 133.01 121.708 133.01 125.001 131.114C126.719 130.117 127.529 128.796 127.444 127.494C127.371 128.677 126.555 129.846 125.001 130.751Z" fill="white"/>
<path d="M113.576 143.031H96.7848V165.431C96.7848 166.673 97.6079 167.921 99.2475 168.866C102.54 170.768 107.841 170.768 111.1 168.866C112.74 167.921 113.556 166.673 113.556 165.431L113.576 143.031Z" fill="url(#paint28_linear_531_56589)"/>
<path d="M113.576 143.031H96.7848V165.431C96.7848 166.673 97.6079 167.921 99.2475 168.866C102.54 170.768 107.841 170.768 111.1 168.866C112.74 167.921 113.556 166.673 113.556 165.431L113.576 143.031Z" fill="url(#paint29_linear_531_56589)"/>
<path d="M111.12 146.446C107.828 148.342 102.527 148.342 99.2673 146.446C96.0079 144.55 95.9749 141.465 99.2673 139.569C102.56 137.673 107.861 137.673 111.12 139.569C114.38 141.465 114.399 144.57 111.12 146.446Z" fill="url(#paint30_linear_531_56589)"/>
<path opacity="0.5" d="M111.12 146.111C107.828 148.013 102.527 148.013 99.2672 146.111C97.7066 145.206 96.8967 144.037 96.8243 142.854C96.7386 144.175 97.5486 145.497 99.2672 146.474C102.56 148.37 107.86 148.37 111.12 146.474C112.839 145.477 113.648 144.162 113.563 142.854C113.484 144.037 112.681 145.213 111.12 146.111Z" fill="white"/>
<path d="M16.1471 73.3809L14.5207 74.418L14.3297 73.2158L15.9496 72.1786L16.1471 73.3809Z" fill="#42E8E0"/>
<path d="M17.445 81.515L15.8251 82.5455L14.6991 75.5169L16.319 74.4798L17.445 81.515Z" fill="#42E8E0"/>
<path d="M18.07 85.3972L16.4435 86.4343L15.9957 83.64L17.6222 82.6029L18.07 85.3972Z" fill="#42E8E0"/>
<path d="M18.7087 89.4253L17.0889 90.4625L16.6411 87.6682L18.2676 86.6311L18.7087 89.4253Z" fill="#42E8E0"/>
<path d="M19.1823 75.7257L17.5624 76.7628L17.1146 73.9686L18.7411 72.9315L19.1823 75.7257Z" fill="#42E8E0"/>
<path d="M20.0385 81.0643L18.4186 82.0948L17.7601 77.9992L19.38 76.9621L20.0385 81.0643Z" fill="#42E8E0"/>
<path d="M20.8223 85.9719L19.2024 87.009L18.6361 83.4947L20.2626 82.4576L20.8223 85.9719Z" fill="#42E8E0"/>
<path d="M19.3535 93.4559L17.7337 94.4864L17.2859 91.6988L18.9058 90.6617L19.3535 93.4559Z" fill="#42E8E0"/>
<path d="M18.5639 71.8421L16.944 72.8726L16.7465 71.6703L18.3729 70.6398L18.5639 71.8421Z" fill="#42E8E0"/>
<path d="M21.1908 96.5928L18.3593 98.3961L18.1749 97.2335L20.9998 95.4235L21.1908 96.5928Z" fill="#42E8E0"/>
<path d="M9.43739 177.334C9.43739 177.494 9.39027 177.649 9.302 177.782C9.21373 177.914 9.08826 178.018 8.94147 178.079C8.79467 178.14 8.63315 178.156 8.47731 178.125C8.32148 178.093 8.17833 178.017 8.06598 177.904C7.95363 177.791 7.87712 177.648 7.84613 177.491C7.81513 177.335 7.83104 177.173 7.89184 177.026C7.95264 176.879 8.05561 176.753 8.18772 176.664C8.31983 176.576 8.47515 176.528 8.63404 176.528C8.8471 176.528 9.05143 176.613 9.20209 176.764C9.35275 176.915 9.43739 177.12 9.43739 177.334Z" fill="#8686F2"/>
<path d="M191.804 162.248C191.804 162.407 191.757 162.563 191.668 162.696C191.58 162.828 191.455 162.932 191.308 162.993C191.161 163.054 191 163.069 190.844 163.038C190.688 163.007 190.545 162.931 190.432 162.818C190.32 162.705 190.244 162.562 190.213 162.405C190.182 162.249 190.197 162.087 190.258 161.94C190.319 161.792 190.422 161.666 190.554 161.578C190.686 161.489 190.842 161.442 191 161.442C191.106 161.442 191.21 161.463 191.308 161.503C191.405 161.544 191.494 161.603 191.569 161.678C191.643 161.753 191.702 161.842 191.743 161.94C191.783 162.037 191.804 162.142 191.804 162.248Z" fill="#8686F2"/>
<path d="M35.4933 192.422C35.4933 192.582 35.4462 192.738 35.3579 192.87C35.2696 193.003 35.1442 193.106 34.9974 193.167C34.8506 193.228 34.6891 193.244 34.5332 193.213C34.3774 193.182 34.2342 193.105 34.1219 192.992C34.0095 192.88 33.933 192.736 33.902 192.58C33.871 192.423 33.8869 192.261 33.9477 192.114C34.0086 191.967 34.1115 191.841 34.2436 191.752C34.3757 191.664 34.5311 191.617 34.6899 191.617C34.903 191.617 35.1073 191.701 35.258 191.853C35.4087 192.004 35.4933 192.209 35.4933 192.422Z" fill="#8686F2"/>
<path d="M61.5427 207.513C61.5427 207.673 61.4956 207.829 61.4073 207.961C61.319 208.094 61.1935 208.197 61.0468 208.258C60.9 208.319 60.7384 208.335 60.5826 208.304C60.4268 208.273 60.2836 208.196 60.1713 208.083C60.0589 207.97 59.9824 207.827 59.9514 207.671C59.9204 207.514 59.9363 207.352 59.9971 207.205C60.0579 207.058 60.1609 206.932 60.293 206.843C60.4251 206.755 60.5804 206.707 60.7393 206.707C60.9524 206.707 61.1567 206.792 61.3074 206.943C61.458 207.095 61.5427 207.3 61.5427 207.513Z" fill="#8686F2"/>
<path d="M113.649 207.513C113.649 207.673 113.601 207.829 113.513 207.961C113.425 208.094 113.299 208.197 113.153 208.258C113.006 208.319 112.844 208.335 112.688 208.304C112.533 208.273 112.389 208.196 112.277 208.083C112.165 207.97 112.088 207.827 112.057 207.671C112.026 207.514 112.042 207.352 112.103 207.205C112.164 207.058 112.267 206.932 112.399 206.843C112.531 206.755 112.686 206.707 112.845 206.707C113.058 206.707 113.263 206.792 113.413 206.943C113.564 207.095 113.649 207.3 113.649 207.513Z" fill="#8686F2"/>
<path d="M87.5926 222.6C87.5939 222.76 87.5477 222.917 87.4599 223.05C87.3722 223.184 87.2468 223.288 87.0997 223.35C86.9527 223.412 86.7906 223.428 86.6341 223.397C86.4777 223.366 86.3339 223.289 86.2212 223.176C86.1085 223.063 86.0318 222.919 86.001 222.762C85.9702 222.605 85.9867 222.443 86.0483 222.295C86.1099 222.148 86.2139 222.022 86.347 221.934C86.4801 221.846 86.6364 221.799 86.7958 221.801C87.0071 221.801 87.2098 221.885 87.3592 222.035C87.5086 222.185 87.5926 222.388 87.5926 222.6Z" fill="#8686F2"/>
<defs>
<linearGradient id="paint0_linear_531_56589" x1="-0.00537839" y1="77.278" x2="129.946" y2="77.278" gradientUnits="userSpaceOnUse">
<stop stop-color="#C0BFF6"/>
<stop offset="0.29" stop-color="#C5C4F7"/>
<stop offset="0.64" stop-color="#D3D2F9"/>
<stop offset="1" stop-color="#E9E9FD"/>
</linearGradient>
<linearGradient id="paint1_linear_531_56589" x1="-0.00571029" y1="110.71" x2="22.3103" y2="110.71" gradientUnits="userSpaceOnUse">
<stop stop-color="#5761D7"/>
<stop offset="0.18" stop-color="#5C66D9"/>
<stop offset="0.39" stop-color="#6A73DF"/>
<stop offset="0.61" stop-color="#8289E8"/>
<stop offset="0.85" stop-color="#A3A7F5"/>
<stop offset="1" stop-color="#BCBEFF"/>
</linearGradient>
<linearGradient id="paint2_linear_531_56589" x1="17.4049" y1="148.29" x2="200.937" y2="148.29" gradientUnits="userSpaceOnUse">
<stop stop-color="#5761D7"/>
<stop offset="0.18" stop-color="#5C66D9"/>
<stop offset="0.39" stop-color="#6A73DF"/>
<stop offset="0.61" stop-color="#8289E8"/>
<stop offset="0.85" stop-color="#A3A7F5"/>
<stop offset="1" stop-color="#BCBEFF"/>
</linearGradient>
<linearGradient id="paint3_linear_531_56589" x1="79.0722" y1="142.154" x2="262.703" y2="142.154" gradientUnits="userSpaceOnUse">
<stop stop-color="#C0BFF6"/>
<stop offset="0.29" stop-color="#C5C4F7"/>
<stop offset="0.64" stop-color="#D3D2F9"/>
<stop offset="1" stop-color="#E9E9FD"/>
</linearGradient>
<linearGradient id="paint4_linear_531_56589" x1="110.172" y1="152.611" x2="157.174" y2="152.611" gradientUnits="userSpaceOnUse">
<stop stop-color="#C0BFF6"/>
<stop offset="0.29" stop-color="#C5C4F7"/>
<stop offset="0.64" stop-color="#D3D2F9"/>
<stop offset="1" stop-color="#E9E9FD"/>
</linearGradient>
<linearGradient id="paint5_linear_531_56589" x1="8.91803" y1="101.321" x2="192.549" y2="101.321" gradientUnits="userSpaceOnUse">
<stop stop-color="#C0BFF6"/>
<stop offset="0.29" stop-color="#C5C4F7"/>
<stop offset="0.64" stop-color="#D3D2F9"/>
<stop offset="1" stop-color="#E9E9FD"/>
</linearGradient>
<linearGradient id="paint6_linear_531_56589" x1="-3.172" y1="87.7962" x2="43.8305" y2="87.7962" gradientUnits="userSpaceOnUse">
<stop stop-color="#C0BFF6"/>
<stop offset="0.29" stop-color="#C5C4F7"/>
<stop offset="0.64" stop-color="#D3D2F9"/>
<stop offset="1" stop-color="#E9E9FD"/>
</linearGradient>
<radialGradient id="paint7_radial_531_56589" cx="0" cy="0" r="1" gradientUnits="userSpaceOnUse" gradientTransform="translate(70.8933 125.038) scale(52.6457 52.8134)">
<stop stop-color="#2B237C"/>
<stop offset="1" stop-color="#180D5B"/>
</radialGradient>
<radialGradient id="paint8_radial_531_56589" cx="0" cy="0" r="1" gradientUnits="userSpaceOnUse" gradientTransform="translate(59.3763 101.276) scale(40.2926 40.4209)">
<stop stop-color="#2B237C"/>
<stop offset="1" stop-color="#180D5B"/>
</radialGradient>
<linearGradient id="paint9_linear_531_56589" x1="44.8699" y1="112.949" x2="80.5415" y2="48.9223" gradientUnits="userSpaceOnUse">
<stop stop-color="#5761D7"/>
<stop offset="0.04" stop-color="#5C66D9"/>
<stop offset="0.09" stop-color="#6A73DF"/>
<stop offset="0.14" stop-color="#8289E8"/>
<stop offset="0.19" stop-color="#A3A7F5"/>
<stop offset="0.22" stop-color="#BCBEFF"/>
</linearGradient>
<linearGradient id="paint10_linear_531_56589" x1="88.4748" y1="113.175" x2="64.7292" y2="66.9036" gradientUnits="userSpaceOnUse">
<stop stop-color="#C0BFF6"/>
<stop offset="0.29" stop-color="#C5C4F7"/>
<stop offset="0.64" stop-color="#D3D2F9"/>
<stop offset="1" stop-color="#E9E9FD"/>
</linearGradient>
<linearGradient id="paint11_linear_531_56589" x1="152.334" y1="196.46" x2="76.8849" y2="63.195" gradientUnits="userSpaceOnUse">
<stop stop-color="#C0BFF6"/>
<stop offset="0.08" stop-color="#C3C2F6"/>
<stop offset="0.13" stop-color="#CCCBF8"/>
<stop offset="0.18" stop-color="#DBDBFB"/>
<stop offset="0.21" stop-color="#E9E9FD"/>
<stop offset="0.26" stop-color="#D8D7FA"/>
<stop offset="0.32" stop-color="#CACAF8"/>
<stop offset="0.39" stop-color="#C2C1F6"/>
<stop offset="0.51" stop-color="#C0BFF6"/>
<stop offset="0.62" stop-color="#D0CFF9"/>
<stop offset="0.75" stop-color="#E9E9FD"/>
<stop offset="1" stop-color="#C0BFF6"/>
</linearGradient>
<linearGradient id="paint12_linear_531_56589" x1="152.308" y1="108.279" x2="169.001" y2="108.279" gradientUnits="userSpaceOnUse">
<stop stop-color="#C0BFF6"/>
<stop offset="0.49" stop-color="#D2D1F9"/>
<stop offset="1" stop-color="#E9E9FD"/>
</linearGradient>
<linearGradient id="paint13_linear_531_56589" x1="133.601" y1="108.279" x2="165.86" y2="108.279" gradientUnits="userSpaceOnUse">
<stop stop-color="#5761D7"/>
<stop offset="0.18" stop-color="#5C66D9"/>
<stop offset="0.39" stop-color="#6A73DF"/>
<stop offset="0.61" stop-color="#8289E8"/>
<stop offset="0.85" stop-color="#A3A7F5"/>
<stop offset="1" stop-color="#BCBEFF"/>
</linearGradient>
<linearGradient id="paint14_linear_531_56589" x1="167.899" y1="74.9501" x2="173.851" y2="85.2723" gradientUnits="userSpaceOnUse">
<stop stop-color="#C0BFF6"/>
<stop offset="0.29" stop-color="#C5C4F7"/>
<stop offset="0.64" stop-color="#D3D2F9"/>
<stop offset="1" stop-color="#E9E9FD"/>
</linearGradient>
<linearGradient id="paint15_linear_531_56589" x1="170.014" y1="76.1682" x2="173.856" y2="82.8315" gradientUnits="userSpaceOnUse">
<stop stop-color="#5761D7"/>
<stop offset="0.18" stop-color="#5C66D9"/>
<stop offset="0.39" stop-color="#6A73DF"/>
<stop offset="0.61" stop-color="#8289E8"/>
<stop offset="0.85" stop-color="#A3A7F5"/>
<stop offset="1" stop-color="#BCBEFF"/>
</linearGradient>
<linearGradient id="paint16_linear_531_56589" x1="152.308" y1="74.6441" x2="169.001" y2="74.6441" gradientUnits="userSpaceOnUse">
<stop stop-color="#C0BFF6"/>
<stop offset="0.49" stop-color="#D2D1F9"/>
<stop offset="1" stop-color="#E9E9FD"/>
</linearGradient>
<linearGradient id="paint17_linear_531_56589" x1="133.601" y1="74.6441" x2="165.86" y2="74.6441" gradientUnits="userSpaceOnUse">
<stop stop-color="#5761D7"/>
<stop offset="0.18" stop-color="#5C66D9"/>
<stop offset="0.39" stop-color="#6A73DF"/>
<stop offset="0.61" stop-color="#8289E8"/>
<stop offset="0.85" stop-color="#A3A7F5"/>
<stop offset="1" stop-color="#BCBEFF"/>
</linearGradient>
<linearGradient id="paint18_linear_531_56589" x1="167.899" y1="67.1342" x2="173.851" y2="77.4564" gradientUnits="userSpaceOnUse">
<stop stop-color="#C0BFF6"/>
<stop offset="0.29" stop-color="#C5C4F7"/>
<stop offset="0.64" stop-color="#D3D2F9"/>
<stop offset="1" stop-color="#E9E9FD"/>
</linearGradient>
<linearGradient id="paint19_linear_531_56589" x1="138.427" y1="131.783" x2="155.12" y2="131.783" gradientUnits="userSpaceOnUse">
<stop stop-color="#C0BFF6"/>
<stop offset="0.49" stop-color="#D2D1F9"/>
<stop offset="1" stop-color="#E9E9FD"/>
</linearGradient>
<linearGradient id="paint20_linear_531_56589" x1="119.72" y1="131.783" x2="151.979" y2="131.783" gradientUnits="userSpaceOnUse">
<stop stop-color="#5761D7"/>
<stop offset="0.18" stop-color="#5C66D9"/>
<stop offset="0.39" stop-color="#6A73DF"/>
<stop offset="0.61" stop-color="#8289E8"/>
<stop offset="0.85" stop-color="#A3A7F5"/>
<stop offset="1" stop-color="#BCBEFF"/>
</linearGradient>
<linearGradient id="paint21_linear_531_56589" x1="153.956" y1="113.922" x2="159.907" y2="124.244" gradientUnits="userSpaceOnUse">
<stop stop-color="#C0BFF6"/>
<stop offset="0.29" stop-color="#C5C4F7"/>
<stop offset="0.64" stop-color="#D3D2F9"/>
<stop offset="1" stop-color="#E9E9FD"/>
</linearGradient>
<linearGradient id="paint22_linear_531_56589" x1="124.547" y1="133.67" x2="141.24" y2="133.67" gradientUnits="userSpaceOnUse">
<stop stop-color="#C0BFF6"/>
<stop offset="0.49" stop-color="#D2D1F9"/>
<stop offset="1" stop-color="#E9E9FD"/>
</linearGradient>
<linearGradient id="paint23_linear_531_56589" x1="105.839" y1="133.67" x2="138.099" y2="133.67" gradientUnits="userSpaceOnUse">
<stop stop-color="#5761D7"/>
<stop offset="0.18" stop-color="#5C66D9"/>
<stop offset="0.39" stop-color="#6A73DF"/>
<stop offset="0.61" stop-color="#8289E8"/>
<stop offset="0.85" stop-color="#A3A7F5"/>
<stop offset="1" stop-color="#BCBEFF"/>
</linearGradient>
<linearGradient id="paint24_linear_531_56589" x1="140.006" y1="109.671" x2="145.957" y2="119.993" gradientUnits="userSpaceOnUse">
<stop stop-color="#C0BFF6"/>
<stop offset="0.29" stop-color="#C5C4F7"/>
<stop offset="0.64" stop-color="#D3D2F9"/>
<stop offset="1" stop-color="#E9E9FD"/>
</linearGradient>
<linearGradient id="paint25_linear_531_56589" x1="110.666" y1="144.967" x2="127.359" y2="144.967" gradientUnits="userSpaceOnUse">
<stop stop-color="#C0BFF6"/>
<stop offset="0.49" stop-color="#D2D1F9"/>
<stop offset="1" stop-color="#E9E9FD"/>
</linearGradient>
<linearGradient id="paint26_linear_531_56589" x1="91.9586" y1="144.967" x2="124.218" y2="144.967" gradientUnits="userSpaceOnUse">
<stop stop-color="#5761D7"/>
<stop offset="0.18" stop-color="#5C66D9"/>
<stop offset="0.39" stop-color="#6A73DF"/>
<stop offset="0.61" stop-color="#8289E8"/>
<stop offset="0.85" stop-color="#A3A7F5"/>
<stop offset="1" stop-color="#BCBEFF"/>
</linearGradient>
<linearGradient id="paint27_linear_531_56589" x1="126.062" y1="124.238" x2="132.013" y2="134.56" gradientUnits="userSpaceOnUse">
<stop stop-color="#C0BFF6"/>
<stop offset="0.29" stop-color="#C5C4F7"/>
<stop offset="0.64" stop-color="#D3D2F9"/>
<stop offset="1" stop-color="#E9E9FD"/>
</linearGradient>
<linearGradient id="paint28_linear_531_56589" x1="96.7848" y1="156.665" x2="113.477" y2="156.665" gradientUnits="userSpaceOnUse">
<stop stop-color="#C0BFF6"/>
<stop offset="0.49" stop-color="#D2D1F9"/>
<stop offset="1" stop-color="#E9E9FD"/>
</linearGradient>
<linearGradient id="paint29_linear_531_56589" x1="78.0773" y1="156.665" x2="110.336" y2="156.665" gradientUnits="userSpaceOnUse">
<stop stop-color="#5761D7"/>
<stop offset="0.18" stop-color="#5C66D9"/>
<stop offset="0.39" stop-color="#6A73DF"/>
<stop offset="0.61" stop-color="#8289E8"/>
<stop offset="0.85" stop-color="#A3A7F5"/>
<stop offset="1" stop-color="#BCBEFF"/>
</linearGradient>
<linearGradient id="paint30_linear_531_56589" x1="112.118" y1="139.595" x2="118.069" y2="149.918" gradientUnits="userSpaceOnUse">
<stop stop-color="#C0BFF6"/>
<stop offset="0.29" stop-color="#C5C4F7"/>
<stop offset="0.64" stop-color="#D3D2F9"/>
<stop offset="1" stop-color="#E9E9FD"/>
</linearGradient>
</defs>
</svg>
