<svg width="268" height="200" viewBox="0 0 268 200" fill="none" xmlns="http://www.w3.org/2000/svg">
<path fill-rule="evenodd" clip-rule="evenodd" d="M44.1908 52.9688H217.577C219.082 52.9732 220.524 53.5732 221.588 54.6376C222.652 55.7021 223.251 57.1445 223.255 58.6497V164.686C223.251 166.191 222.651 167.633 221.587 168.697C220.523 169.761 219.082 170.361 217.577 170.366H44.1908C42.6862 170.361 41.2444 169.761 40.1803 168.697C39.1163 167.633 38.5164 166.191 38.5117 164.686V58.6497C38.5161 57.1444 39.1159 55.702 40.18 54.6376C41.2441 53.5731 42.686 52.9732 44.1908 52.9688Z" fill="#15378B"/>
<mask id="mask0_1281_401" style="mask-type:luminance" maskUnits="userSpaceOnUse" x="43" y="58" width="175" height="107">
<path d="M44.0913 58.4258H217.674C217.707 58.426 217.739 58.4393 217.762 58.4626C217.785 58.4859 217.798 58.5175 217.798 58.5503V164.784C217.798 164.817 217.785 164.848 217.762 164.871C217.738 164.894 217.707 164.907 217.674 164.907H44.0913C44.0585 164.907 44.0271 164.894 44.0039 164.871C43.9808 164.848 43.9678 164.817 43.9678 164.784V58.5503C43.9678 58.5175 43.9808 58.4859 44.0039 58.4626C44.027 58.4393 44.0584 58.426 44.0913 58.4258Z" fill="white"/>
</mask>
<g mask="url(#mask0_1281_401)">
<path d="M217.798 58.4258H43.9648V164.906H217.798V58.4258Z" fill="url(#paint0_linear_1281_401)"/>
</g>
<path fill-rule="evenodd" clip-rule="evenodd" d="M35.6309 177.211H225.938L253.228 190.385C253.992 190.754 253.557 196.296 253.129 196.957C252.309 198.232 249.968 199.527 248.315 199.527H14.9131C13.2997 199.527 11.0262 198.283 10.2378 197.036C9.77738 196.308 9.99474 191.585 10.0402 190.687L35.6309 177.211Z" fill="#5875BE"/>
<path fill-rule="evenodd" clip-rule="evenodd" d="M35.6314 177.211H225.939L253.023 190.173C254.209 190.742 253.705 194.877 253.499 195.197C252.679 196.472 249.967 197.919 248.318 197.919H14.9136C13.3002 197.919 10.764 196.575 9.97356 195.329C9.78979 195.039 9.83326 194.249 9.81152 193.183C9.82931 192.083 9.89452 191.081 10.0368 190.689L35.6314 177.211Z" fill="#5875BE"/>
<path fill-rule="evenodd" clip-rule="evenodd" d="M43.2187 170.307L219.219 170.338C221.556 170.209 223.616 170.404 225.276 171.524L252.873 190.06C254.922 191.437 250.822 194.416 248.318 194.416H14.913C12.4756 194.416 8.5304 191.579 10.4778 190.176L36.0003 171.793C38.3715 170.088 40.4967 170.305 43.2187 170.31" fill="white"/>
<path fill-rule="evenodd" clip-rule="evenodd" d="M54.2576 173.697H117.337H119.083H206.28L216.539 183.543H119.083H117.337H43.999L54.2576 173.697Z" fill="#15378B"/>
<path fill-rule="evenodd" clip-rule="evenodd" d="M101.786 185.629H141.804H142.829H158.025L161.742 191.993H142.829H141.804H98.7939L101.786 185.629Z" fill="#A7BBE2"/>
<path fill-rule="evenodd" clip-rule="evenodd" d="M123.441 91.28C129.796 103.852 134.216 123.476 150.871 125.227C156.33 126.01 163.9 121.819 170.922 117.017C176.642 113.105 182.086 109.22 185.02 103.759C190.027 94.4338 184.405 90.4537 181.418 88.8486C178.647 87.3602 175.7 89.9724 172.952 91.9491C167.447 95.9093 160.615 101.028 158.337 100.381C155.595 99.6018 148.985 70.0643 140.966 62.5331C139.181 61.0427 120.712 85.8718 123.441 91.28Z" fill="white"/>
<path fill-rule="evenodd" clip-rule="evenodd" d="M126.684 56.1629L95.3128 57.5713C87.7248 57.9113 76.9594 62.2076 72.6071 67.7976C66.8094 75.2418 76.495 124.605 75.7174 164.909H149.81C151.049 126.19 149.085 89.2614 142.783 64.6241C140.519 60.9672 132.784 55.8901 126.687 56.1629" fill="white"/>
<path fill-rule="evenodd" clip-rule="evenodd" d="M86.1957 90.6328C86.1957 90.6328 82.5252 99.9331 79.8882 105.466C77.2511 110.999 76.9942 113.187 78.666 114.923C80.3377 116.66 90.4678 122.708 93.4862 127.08C96.5046 131.451 94.4189 133.384 94.4189 133.384L58.793 127.018L69.2116 95.621L86.1957 90.6328Z" fill="#DDF0FB"/>
<path fill-rule="evenodd" clip-rule="evenodd" d="M126.684 56.1639L121.49 56.3962L121.157 64.1052L119.909 135.007L135.07 78.2405L128.916 72.6129L133.136 67.9963L128.185 56.1442C127.689 56.133 127.189 56.1389 126.684 56.162" fill="#DDF0FB"/>
<path fill-rule="evenodd" clip-rule="evenodd" d="M90.8303 84.7635C93.6472 78.1585 92.4912 66.8924 85.7805 64.3425C84.0021 63.6684 80.1399 62.1385 77.0178 64.0796C68.8637 69.1458 51.1377 97.6831 50.53 117.959C50.0904 132.632 81.0697 144.479 92.4981 141.778C94.3101 139.702 97.0074 132.15 93.5207 128.392C87.308 121.694 74.1614 119.663 74.8017 114.594C75.9557 105.462 88.5282 90.1668 90.8303 84.7675" fill="white"/>
<path fill-rule="evenodd" clip-rule="evenodd" d="M101.234 57.3047L103.198 64.1756L119.909 135.008L92.6659 80.9833L97.4597 74.1638L92.3428 70.5672L94.7397 57.6081C96.1713 57.2563 99.7203 57.3778 101.234 57.3116" fill="#DDF0FB"/>
<mask id="mask1_1281_401" style="mask-type:luminance" maskUnits="userSpaceOnUse" x="99" y="56" width="26" height="80">
<path d="M123.586 56.3042C126.36 71.7964 120.945 117.89 119.91 135.01C119.304 133.693 101.786 69.3187 99.8291 57.3696L114.002 56.7341C117.206 56.5898 120.831 56.0374 123.586 56.3042Z" fill="white"/>
</mask>
<g mask="url(#mask1_1281_401)">
<path d="M126.361 56.0369H99.8291V135.009H126.361V56.0369Z" fill="url(#paint1_linear_1281_401)"/>
</g>
<path fill-rule="evenodd" clip-rule="evenodd" d="M122.168 104.633C121.18 116.605 120.105 127.707 119.698 134.391L119.408 133.535L118.235 130.066C116.616 124.596 113.882 114.557 110.992 103.554L112.666 76.5127L110.407 72.2797L114.079 67.6602L118.124 72.0088L116.168 76.2745L122.168 104.633Z" fill="#0480D8"/>
<path d="M99.7301 77.8963C99.577 77.1837 98.9101 73.3282 99.0306 68.9281C99.1116 65.971 99.5483 62.7806 100.74 60.1842C101.884 57.6916 103.743 55.7367 106.694 55.1071C107.552 54.9284 108.429 54.8537 109.306 54.8848C128.488 55.4096 133.571 76.5828 137.375 92.4268L137.701 93.7828L139.251 93.4112L138.925 92.0542C134.998 75.7031 129.753 53.848 109.351 53.2866C108.348 53.2523 107.344 53.3386 106.362 53.5436C102.835 54.3026 100.631 56.5966 99.2875 59.523C97.9912 62.3447 97.5179 65.7496 97.433 68.8836C97.3075 73.4527 98.006 77.4821 98.1661 78.2303L99.7301 77.8963Z" fill="#006294"/>
<path fill-rule="evenodd" clip-rule="evenodd" d="M131.201 40.4228C132.63 47.692 124.482 53.6467 118.759 53.4145L118.91 56.762L119.222 57.1652C121.446 62.2532 115.988 65.833 114.207 67.695C112.449 66.4685 103.25 64.4008 102.722 57.2383L103.089 57.2215L102.525 44.6449C102.078 44.5338 101.647 44.3678 101.241 44.1508C99.9505 43.4411 99.3765 41.5929 99.6275 39.6469C99.8784 37.7009 102.615 38.8869 102.615 38.8869C100.034 33.2682 96.8363 28.4658 102.685 25.0165C108.534 21.5672 120.629 21.2608 120.629 21.2608L127.841 20.1875C126.022 23.3927 130.249 35.6056 131.201 40.4228Z" fill="#F7AAAC"/>
<path fill-rule="evenodd" clip-rule="evenodd" d="M107.799 48.3086C110.651 55.0194 113.184 57.4458 118.963 57.9706L118.756 53.3254C116.553 53.2098 111.095 51.5849 107.8 48.3096" fill="#F28085"/>
<path fill-rule="evenodd" clip-rule="evenodd" d="M126.841 24.1226C120.8 28.4475 111.167 24.6167 106.903 29.002C104.79 31.1763 104.927 33.835 106.767 39.1147C107.309 40.6684 108.094 41.8405 105.623 40.4845C104.49 39.8619 102.612 38.9724 101.916 39.4596C100.369 40.5468 100.94 43.0878 102.055 43.9694C102.549 44.3647 103.505 44.9656 103.505 44.9656C103.505 44.9656 100.476 45.8967 97.563 43.7549C89.0077 37.4602 88.7301 30.2829 89.1836 25.2947C89.9385 16.9927 98.5698 12.1983 109.073 6.24747C112.5 4.30637 110.579 0.868928 113.953 0.435047C128.863 -1.48134 138.914 15.9579 126.841 24.1226Z" fill="#000446"/>
<path fill-rule="evenodd" clip-rule="evenodd" d="M98.3334 133.283L100.785 133.817L108.308 131.714C109.124 131.245 114.567 129.39 113.268 131.376C112.356 132.771 109.364 135.215 109.457 135.35C110.669 137.116 121.32 138.885 121.438 139.043C123.118 141.261 115.197 140.118 114.028 140.047C113.724 140.028 119.705 142.012 119.512 142.227C119.276 142.49 118.683 143.21 117.399 143.099C115.828 142.964 112.086 141.882 111.801 142.135C111.516 142.388 117.353 144.298 117.057 144.522C116.83 144.695 116.377 145.062 115.393 144.951C113.77 144.767 110.177 143.729 109.802 143.924C109.605 144.023 111.569 144.561 112.346 144.821C115.436 145.855 111.965 146.034 110.723 145.873C104.696 145.09 104.458 142.424 97.3384 141.512C90.6456 140.948 96.9561 132.983 98.3265 133.283" fill="#F7AAAC"/>
<path d="M110.073 105.495C105.046 107.076 101.369 107.076 98.5645 105.216C95.7881 103.377 93.9534 99.7506 92.584 94.0785L93.7488 93.7988C95.0441 99.1645 96.7277 102.559 99.2274 104.216C101.697 105.853 105.057 105.82 109.715 104.348L110.073 105.495Z" fill="#D0D2D3"/>
<path d="M100.101 107.889C105.299 107.02 108.573 105.346 110.229 102.415C111.868 99.5155 111.857 95.4524 110.505 89.7754L109.34 90.0541C110.619 95.4237 110.66 99.213 109.184 101.824C107.727 104.404 104.723 105.897 99.8965 106.705L100.101 107.889Z" fill="#E5E6E7"/>
<path d="M99.0399 77.2457C105.39 76.5094 109.042 82.6707 110.629 88.1332C110.889 89.0227 111.062 89.5653 110.958 90.0042C110.649 91.3088 109.016 90.954 108.851 90.1376C107.849 85.2127 104.318 77.8604 98.2366 79.3726C98.2119 79.3792 98.1868 79.3845 98.1615 79.3884C98.0272 79.4191 96.4444 79.7838 95.157 81.5351C93.8479 83.3141 92.6296 86.8603 94.2678 93.6709C94.3755 94.1216 94.1077 94.5841 93.6512 94.7966L93.6275 94.8065L93.6038 94.8174L93.5801 94.8273L93.5574 94.8352H93.5514C93.5267 94.8451 93.5011 94.853 93.4744 94.8609H93.4586H93.421C92.8282 95.0052 92.2354 94.6958 92.1129 94.169C90.6585 88.1075 91.0933 83.4831 93.4052 80.4222C94.8576 78.4999 96.7645 77.4898 99.0508 77.2249" fill="#006294"/>
<path d="M97.605 107.7C97.5601 107.45 97.616 107.193 97.7604 106.984C97.9049 106.775 98.1261 106.633 98.3757 106.587L100.165 106.42C100.736 106.456 100.773 106.746 100.857 107.112C100.929 107.507 100.981 107.796 100.414 108.04L98.7195 108.473C98.5958 108.495 98.469 108.493 98.3461 108.467C98.2232 108.44 98.1068 108.39 98.0035 108.318C97.9002 108.246 97.812 108.155 97.7439 108.049C97.6759 107.944 97.6294 107.826 97.607 107.702" fill="#006294"/>
<path d="M112.21 104.192C112.137 103.95 111.972 103.747 111.75 103.627C111.527 103.507 111.267 103.479 111.024 103.551L109.354 104.213C108.86 104.51 108.958 104.78 109.057 105.142C109.172 105.526 109.255 105.807 109.873 105.768L111.579 105.384C111.699 105.348 111.811 105.289 111.908 105.209C112.006 105.13 112.087 105.032 112.146 104.921C112.206 104.811 112.243 104.689 112.256 104.564C112.268 104.439 112.256 104.313 112.22 104.192" fill="#006294"/>
<path d="M142.202 94.8978C142.589 96.9328 141.498 98.8511 139.763 99.1802C138.028 99.5093 136.305 98.1296 135.919 96.0946C135.534 94.0596 136.625 92.1413 138.36 91.8122C140.095 91.4831 141.818 92.8638 142.202 94.8978Z" fill="#006294"/>
<path d="M142.077 94.9408C142.348 96.364 141.583 97.7081 140.371 97.9364C139.159 98.1647 137.954 97.2011 137.683 95.7779C137.411 94.3547 138.177 93.0106 139.39 92.7832C140.603 92.5559 141.807 93.5186 142.077 94.9408Z" fill="#A6A8AB"/>
<path d="M141.898 94.9301C142.08 95.8868 141.566 96.7881 140.751 96.9433C139.936 97.0985 139.127 96.4492 138.945 95.4934C138.763 94.5377 139.276 93.6363 140.092 93.4802C140.908 93.324 141.716 93.9743 141.898 94.9301Z" fill="white"/>
<path d="M203.241 67.9648H159.383V128.587H203.241V67.9648Z" fill="#3EADDB"/>
<path d="M159.383 128.587V67.9648H203.24L159.383 128.587Z" fill="#0094D9"/>
<path d="M200.758 114.836L200.869 124.533H161.881V70.875H200.758V114.836Z" fill="white"/>
<path d="M191.705 106.381H176.549V107.871H191.705V106.381Z" fill="#BBE5F5"/>
<path d="M165.321 88.1286C165.319 89.6477 165.855 91.1184 166.834 92.2797C167.054 92.5427 167.295 92.7873 167.555 93.011C167.629 93.0763 167.705 93.1385 167.782 93.1978C167.86 93.2571 167.957 93.3332 168.048 93.3955C168.918 94.0116 169.926 94.4021 170.984 94.5321C171.174 94.5548 171.368 94.5706 171.565 94.5766C171.635 94.5766 171.705 94.5766 171.776 94.5766C171.985 94.5766 172.192 94.5647 172.396 94.5459C172.621 94.5251 172.845 94.4921 173.067 94.4471C174.316 94.1926 175.46 93.5735 176.356 92.6681C176.397 92.6276 176.436 92.587 176.474 92.5455C176.619 92.3929 176.756 92.2329 176.884 92.0662C177.513 91.2536 177.938 90.3028 178.125 89.2927C178.313 88.2826 178.256 87.2424 177.961 86.2584C177.666 85.2744 177.14 84.3752 176.427 83.6353C175.715 82.8954 174.836 82.3363 173.864 82.0044C172.892 81.6725 171.855 81.5774 170.839 81.727C169.823 81.8766 168.857 82.2665 168.022 82.8645C167.187 83.4624 166.507 84.2511 166.037 85.1649C165.568 86.0787 165.324 87.0914 165.324 88.1188" fill="#B8E4FA"/>
<path d="M167.298 91.1861L167.882 93.2745C168.787 93.9149 169.777 94.3854 170.931 94.5277C171.134 94.5514 171.341 94.5682 171.549 94.5751C171.624 94.5751 171.699 94.5751 171.776 94.5751C171.998 94.5751 172.218 94.5633 172.435 94.5435C172.675 94.5211 172.914 94.4855 173.15 94.4368C174.191 94.2262 175.233 93.5977 176.046 92.973C176.145 92.3721 176.16 91.5765 176.252 90.9538C175.747 90.7651 174.14 90.2195 173.124 89.8746L173.083 89.8617C173.06 89.8528 173.038 89.8459 173.017 89.839L172.845 89.7807L172.687 89.7273L172.28 89.5909L172.26 89.582H172.248L170.883 89.6809L170.654 89.6977L170.583 89.7046L170.551 89.7115C170.469 89.7323 170.23 89.7955 169.914 89.8914C169.106 90.1375 167.796 90.6079 167.301 91.1762" fill="white"/>
<path d="M171.417 83.9776C171.417 83.9776 169.779 84.2553 170.057 86.8181C170.335 89.3809 171.779 89.1545 171.876 89.1496C171.973 89.1447 173.328 89.1822 173.401 86.0482C173.401 86.0482 173.421 83.7315 171.417 83.9727" fill="#F7AAAC"/>
<path d="M170.699 88.4067C170.699 88.4067 170.755 89.4623 170.655 89.6916C170.556 89.9208 171.969 90.6473 172.848 89.82C172.848 89.82 172.67 88.6666 172.725 88.2604C172.781 87.8542 170.699 88.4067 170.699 88.4067Z" fill="#F7AAAC"/>
<path d="M170.024 86.0941C170.024 86.0941 169.842 85.9043 169.779 86.0941C169.716 86.2839 170.069 87.1536 170.047 87.1931C170.047 87.1931 170.08 87.2682 170.123 87.2257C170.165 87.1832 170.024 86.0901 170.024 86.0901" fill="#F28DA1"/>
<path d="M173.382 86.0214C173.382 86.0214 173.556 85.8238 173.627 86.0214C173.698 86.2191 173.437 87.076 173.405 87.1294C173.405 87.1294 173.348 87.2183 173.306 87.1788C173.263 87.1393 173.384 86.0264 173.384 86.0264" fill="#F28DA1"/>
<path d="M169.92 85.8737C169.976 86.2246 170.029 86.4845 170.029 86.4845L170.267 86.7958C170.267 86.7958 170.277 85.8609 170.314 85.7531C170.571 86.4707 171.919 86.3886 172.9 85.5377C172.952 85.4942 172.867 85.7067 172.889 85.7966C172.988 86.192 173.087 86.0852 173.172 86.9105L173.363 86.6921C173.363 86.6921 173.418 86.2967 173.471 85.8352C173.483 85.7274 173.496 85.6177 173.508 85.51C173.725 83.0737 171.07 83.2131 170.445 83.815C169.775 84.5533 169.916 85.8767 169.916 85.8767" fill="#006294"/>
<path d="M172.614 88.8057C172.614 88.8057 172.352 89.1684 171.745 89.1546C171.139 89.1408 170.875 88.8245 170.875 88.8245C170.875 88.8245 171.163 89.4254 171.748 89.4175C172.334 89.4096 172.614 88.8027 172.614 88.8027" fill="#F28DA1"/>
<path d="M173.015 89.8422C173.015 89.8422 172.576 90.6062 171.744 90.6774C171.217 90.7219 170.756 90.0547 170.546 89.7256C170.945 89.5796 171.369 89.5148 171.793 89.5348C172.217 89.5548 172.633 89.6593 173.016 89.8422" fill="#F7AAAC"/>
<path d="M170.697 89.4844C170.998 89.8384 171.351 90.1443 171.744 90.3917L171.301 91.0746L170.546 89.7255L170.697 89.4844Z" fill="#E5E6E7"/>
<path d="M172.814 89.5859C172.522 89.9309 172.156 90.2064 171.744 90.3924L172.23 91.0961L173.081 89.8656L172.814 89.5859Z" fill="#E5E6E7"/>
<path d="M171.744 90.3926L171.364 90.9698C171.364 90.9698 171.759 91.1951 172.134 90.9559L171.744 90.3926Z" fill="white"/>
<path d="M173.149 94.4401C174.962 94.0448 176.255 93.0495 177.215 91.6125C177.138 91.4267 177.058 91.2853 176.983 91.2389C176.983 91.2389 176.133 90.6795 173.124 89.877C173.124 89.9461 173.124 92.1877 173.149 94.4391" fill="#006294"/>
<path d="M166.5 91.8446C167.223 93.1294 169.51 94.4676 170.929 94.5269C170.83 92.145 170.546 89.7246 170.546 89.7246C170.323 89.7829 170.111 89.8412 169.912 89.8976C168.168 90.3917 167.283 90.8375 166.982 91.0035H166.976C166.897 91.048 166.861 91.0727 166.861 91.0727L166.871 91.1093C166.722 91.3384 166.598 91.5833 166.503 91.8396" fill="#006294"/>
<path d="M191.449 80.3164H181.671V81.8068H191.449V80.3164Z" fill="#00B8C5"/>
<path d="M198.295 84.748H181.812V86.2385H198.295V84.748Z" fill="#BBE5F5"/>
<path d="M198.295 88.8145H181.812V90.3049H198.295V88.8145Z" fill="#BBE5F5"/>
<path d="M198.295 92.8301H181.812V94.3205H198.295V92.8301Z" fill="#BBE5F5"/>
<path d="M198.295 97.2266H164.514V98.717H198.295V97.2266Z" fill="#BBE5F5"/>
<path d="M198.295 101.342H164.514V102.832H198.295V101.342Z" fill="#BBE5F5"/>
<path fill-rule="evenodd" clip-rule="evenodd" d="M171.637 104.795C172.07 104.795 172.493 104.923 172.853 105.164C173.212 105.404 173.493 105.746 173.659 106.146C173.824 106.546 173.868 106.987 173.783 107.411C173.699 107.836 173.49 108.226 173.184 108.532C172.878 108.838 172.488 109.047 172.064 109.131C171.639 109.216 171.199 109.172 170.799 109.007C170.399 108.841 170.058 108.56 169.817 108.2C169.577 107.84 169.448 107.417 169.448 106.984C169.448 106.403 169.679 105.847 170.089 105.436C170.5 105.026 171.056 104.795 171.637 104.795Z" fill="#BBE5F5"/>
<path fill-rule="evenodd" clip-rule="evenodd" d="M180.692 65.3446C180.446 65.3446 180.205 65.4177 180 65.5548C179.795 65.6918 179.635 65.8866 179.54 66.1145C179.446 66.3424 179.421 66.5932 179.469 66.8352C179.518 67.0771 179.636 67.2994 179.811 67.4738C179.985 67.6482 180.207 67.767 180.449 67.8152C180.691 67.8633 180.942 67.8386 181.17 67.7442C181.397 67.6498 181.592 67.4899 181.729 67.2848C181.866 67.0797 181.939 66.8385 181.939 66.5918C181.939 66.261 181.808 65.9438 181.574 65.7099C181.34 65.476 181.023 65.3446 180.692 65.3446ZM177.154 66.5918C177.577 65.3416 178.735 64.293 180.692 64.293C182.65 64.293 183.809 65.3416 184.23 66.5918C186.602 66.5918 190.443 68.272 190.885 70.983V72.4211H170.5V70.983C170.943 68.275 174.781 66.5958 177.154 66.5958V66.5918Z" fill="#288FB0"/>
<path d="M190.885 70.9883H170.5V72.4263H190.885V70.9883Z" fill="#1D7C98"/>
<path d="M191.705 112.807H176.549V114.297H191.705V112.807Z" fill="#BBE5F5"/>
<path d="M191.705 119.234H176.549V120.725H191.705V119.234Z" fill="#BBE5F5"/>
<path fill-rule="evenodd" clip-rule="evenodd" d="M171.637 111.223C172.07 111.223 172.493 111.351 172.853 111.592C173.212 111.832 173.493 112.174 173.659 112.574C173.824 112.974 173.868 113.414 173.783 113.839C173.699 114.264 173.49 114.654 173.184 114.96C172.878 115.266 172.488 115.474 172.064 115.559C171.639 115.643 171.199 115.6 170.799 115.434C170.399 115.269 170.058 114.988 169.817 114.628C169.577 114.268 169.448 113.845 169.448 113.412C169.448 112.831 169.679 112.274 170.089 111.864C170.5 111.453 171.056 111.223 171.637 111.223Z" fill="#BBE5F5"/>
<path fill-rule="evenodd" clip-rule="evenodd" d="M171.637 117.652C172.07 117.652 172.493 117.781 172.853 118.021C173.213 118.262 173.493 118.604 173.659 119.004C173.824 119.404 173.868 119.844 173.783 120.269C173.699 120.694 173.49 121.084 173.184 121.39C172.878 121.696 172.488 121.904 172.063 121.989C171.638 122.073 171.198 122.03 170.799 121.864C170.399 121.698 170.057 121.417 169.817 121.057C169.576 120.697 169.448 120.274 169.448 119.841C169.448 119.553 169.505 119.268 169.615 119.003C169.725 118.737 169.886 118.496 170.089 118.293C170.293 118.09 170.534 117.929 170.799 117.819C171.065 117.709 171.349 117.652 171.637 117.652Z" fill="#BBE5F5"/>
<path d="M169.848 106.625C169.774 106.551 169.732 106.45 169.732 106.345C169.732 106.24 169.774 106.139 169.848 106.065C169.923 105.99 170.023 105.948 170.129 105.948C170.234 105.948 170.334 105.99 170.409 106.065L171.625 107.281L174.406 104.499C174.443 104.462 174.486 104.433 174.534 104.413C174.582 104.393 174.634 104.383 174.686 104.383C174.738 104.383 174.789 104.393 174.837 104.413C174.885 104.433 174.929 104.462 174.966 104.499C175.003 104.535 175.032 104.579 175.052 104.627C175.072 104.675 175.082 104.726 175.082 104.778C175.082 104.83 175.072 104.882 175.052 104.93C175.032 104.978 175.003 105.022 174.966 105.058L171.625 108.401L169.848 106.625Z" fill="#00B8C5"/>
<path d="M169.848 113.098C169.774 113.024 169.732 112.923 169.732 112.818C169.732 112.713 169.774 112.612 169.848 112.538C169.923 112.464 170.023 112.422 170.129 112.422C170.234 112.422 170.334 112.464 170.409 112.538L171.625 113.755L174.406 110.972C174.48 110.897 174.581 110.855 174.686 110.855C174.791 110.855 174.892 110.897 174.966 110.972C175.041 111.046 175.082 111.147 175.082 111.252C175.082 111.357 175.041 111.458 174.966 111.532L171.625 114.874L169.848 113.098Z" fill="#00B8C5"/>
<path d="M169.848 119.572C169.774 119.498 169.732 119.397 169.732 119.292C169.733 119.187 169.774 119.086 169.849 119.012C169.923 118.938 170.024 118.896 170.129 118.896C170.234 118.897 170.334 118.938 170.408 119.013L171.625 120.228L174.406 117.446C174.48 117.372 174.581 117.33 174.686 117.33C174.791 117.33 174.892 117.372 174.966 117.446C175.04 117.52 175.082 117.621 175.082 117.726C175.082 117.831 175.04 117.932 174.966 118.007L171.625 121.349L169.848 119.572Z" fill="#00B8C5"/>
<path fill-rule="evenodd" clip-rule="evenodd" d="M208.01 99.1187C206.664 102.366 203.891 103.68 203.891 103.68L198.609 103.153C198.609 103.153 198.214 101.879 199.709 101.268C201.204 100.658 201.855 100.701 201.855 100.701C201.855 100.701 196.842 99.6386 197.409 98.8351C197.976 98.0316 202.06 98.2747 202.06 98.2747C202.06 98.2747 195.848 96.1162 197.063 95.6882C198.278 95.2603 202.917 95.1051 202.917 95.1051C202.917 95.1051 197.75 93.0296 198.979 92.4445C200.208 91.8594 203.24 91.9671 203.24 91.9671C203.24 91.9671 202.616 89.2334 203.686 89.5744C206.388 90.4362 209.354 95.8701 208.009 99.1187" fill="#F7AAAC"/>
<defs>
<linearGradient id="paint0_linear_1281_401" x1="130.882" y1="157.799" x2="130.882" y2="2.33852" gradientUnits="userSpaceOnUse">
<stop stop-color="#54D0FF"/>
<stop offset="0.11" stop-color="#6FD7FF"/>
<stop offset="0.33" stop-color="#A2E5FF"/>
<stop offset="0.53" stop-color="#CAF1FF"/>
<stop offset="0.72" stop-color="#E7F8FF"/>
<stop offset="0.88" stop-color="#F9FDFF"/>
<stop offset="1" stop-color="white"/>
</linearGradient>
<linearGradient id="paint1_linear_1281_401" x1="115.484" y1="127.246" x2="106.107" y2="2.82719" gradientUnits="userSpaceOnUse">
<stop stop-color="#1E9DF8"/>
<stop offset="1" stop-color="#B9E4FF"/>
</linearGradient>
</defs>
</svg>
