<svg width="227" height="200" viewBox="0 0 227 200" fill="none" xmlns="http://www.w3.org/2000/svg">
<g clip-path="url(#clip0_531_56810)">
<path d="M7.78499 30.6559L105.966 8.43321C108.497 7.86029 110.745 9.22778 111.364 11.716L149.956 164.505C150.71 167.537 148.569 171.065 145.493 171.863L50.5504 196.512C47.6572 197.262 45.0425 195.74 44.3323 192.89L4.6424 35.6899C4.11863 33.5864 5.64488 31.14 7.78499 30.6559Z" fill="url(#paint0_linear_531_56810)"/>
<path d="M9.60565 28.3746L107.787 6.15196C110.317 5.57904 112.565 6.94653 113.184 9.43477L151.778 162.223C152.532 165.255 150.391 168.783 147.315 169.581L52.3722 194.23C49.4789 194.981 46.8642 193.458 46.1551 190.609L6.4641 33.4086C5.94034 31.3041 7.47078 28.8587 9.60565 28.3746Z" fill="url(#paint1_linear_531_56810)"/>
<path d="M10.0336 32.1061L10.329 33.2969L106.818 11.4579C107.633 11.3021 108.34 11.7496 108.541 12.5536L147.129 165.342C147.165 165.482 147.177 165.627 147.165 165.772C147.555 165.635 147.883 165.363 148.088 165.004C148.294 164.646 148.363 164.226 148.283 163.821L109.688 11.0355C109.648 10.8508 109.572 10.6758 109.464 10.5206C109.356 10.3654 109.218 10.233 109.059 10.131C108.899 10.029 108.721 9.95943 108.535 9.92627C108.349 9.89312 108.157 9.89704 107.973 9.9378L10.0336 32.1061Z" fill="url(#paint2_linear_531_56810)"/>
<path d="M10.3286 33.2995L49.6508 189.004C49.918 190.087 50.8775 190.7 51.9805 190.49C51.9805 190.49 52.0853 190.47 52.1398 190.452L147.077 165.805C147.108 165.799 147.137 165.788 147.164 165.774C147.177 165.63 147.165 165.485 147.129 165.344L108.541 12.5561C108.34 11.7522 107.633 11.3015 106.818 11.4605L10.3286 33.2995Z" fill="url(#paint3_linear_531_56810)"/>
<path d="M105.712 18.5848L32.5813 35.4369L19.7668 54.5064L53.1349 186.969C53.1349 186.969 143.87 161.55 143.019 162.013C142.169 162.476 105.712 18.5848 105.712 18.5848Z" fill="white"/>
<path d="M74.7311 23.3415L76.5119 31.053C76.7654 32.1549 75.6623 33.2725 74.6933 32.8951L65.7296 29.4084C65.1336 29.1763 64.4171 29.3509 63.8744 29.8622L55.6587 37.5987C54.7871 38.4205 53.5573 38.0828 53.3656 36.9714L51.5366 26.3075" stroke="#B3B3B3" stroke-width="7.2" stroke-miterlimit="10"/>
<path d="M47.8659 21.8025L48.9983 27.8391C49.1659 28.7351 49.9484 29.2505 50.822 29.0414L75.6653 23.0905C76.4405 22.9044 76.9862 22.0325 76.8176 21.2453C76.5033 19.8182 76.1021 17.5474 75.7281 15.354C75.1216 11.7879 72.0618 9.68228 68.6049 10.4403L67.3112 10.7225C66.7058 7.66451 64.0723 5.75442 60.9684 6.34616C57.7525 6.95881 55.162 10.0461 54.8529 13.4471L53.0386 13.8454C49.6561 14.5845 47.2164 18.3409 47.8659 21.8025ZM57.9924 13.7053C57.9474 11.8506 59.3154 10.0785 61.0491 9.74815C62.7828 9.41778 64.2231 10.6546 64.2682 12.5093C64.3132 14.3639 62.9451 16.1371 61.2125 16.4674C59.4799 16.7978 58.0374 15.5558 57.9924 13.7053Z" fill="url(#paint4_linear_531_56810)"/>
<path d="M48.6151 20.8662L49.7464 26.9018C49.9151 27.7978 50.6976 28.3142 51.5702 28.1051L76.4092 22.1543C77.1844 21.9682 77.7312 21.0962 77.5615 20.309C77.2525 18.8809 76.846 16.6111 76.4721 14.4177C75.8655 10.8516 72.8057 8.74601 69.3488 9.50399L68.0551 9.78731C67.4497 6.72824 64.8162 4.8192 61.7123 5.41094C58.4954 6.02359 55.908 9.10775 55.599 12.5129L53.7804 12.9102C50.4053 13.6472 47.9656 17.4036 48.6151 20.8662ZM58.7405 12.7648C58.6955 10.9091 60.0646 9.13807 61.7972 8.8077C63.5298 8.47733 64.9723 9.71413 65.0173 11.5688C65.0624 13.4235 63.6932 15.1956 61.9606 15.5259C60.228 15.8563 58.7855 14.6195 58.7405 12.7648Z" fill="url(#paint5_linear_531_56810)"/>
<path d="M37.8286 98.3997L116.462 79.5801L103.85 29.4598L25.2163 48.2795L37.8286 98.3997Z" stroke="#B3B3B3" stroke-width="0.2" stroke-miterlimit="10"/>
<path d="M105.638 36.5647L27.0043 55.3844" stroke="#B3B3B3" stroke-width="0.2" stroke-miterlimit="10"/>
<path d="M107.426 43.6719L28.7922 62.4915" stroke="#B3B3B3" stroke-width="0.2" stroke-miterlimit="10"/>
<path d="M109.215 50.7788L30.5817 69.5985" stroke="#B3B3B3" stroke-width="0.2" stroke-miterlimit="10"/>
<path d="M111.003 57.8839L32.3696 76.7046" stroke="#B3B3B3" stroke-width="0.2" stroke-miterlimit="10"/>
<path d="M112.791 64.9933L34.1582 83.813" stroke="#B3B3B3" stroke-width="0.2" stroke-miterlimit="10"/>
<path d="M114.579 72.0982L35.946 90.9189" stroke="#B3B3B3" stroke-width="0.2" stroke-miterlimit="10"/>
<path d="M97.1091 31.0737L109.72 81.1939" stroke="#B3B3B3" stroke-width="0.2" stroke-miterlimit="10"/>
<path d="M89.0863 32.9933L101.698 83.1135" stroke="#B3B3B3" stroke-width="0.2" stroke-miterlimit="10"/>
<path d="M81.0635 34.9129L93.6747 85.0332" stroke="#B3B3B3" stroke-width="0.2" stroke-miterlimit="10"/>
<path d="M73.0402 36.8326L85.6514 86.9528" stroke="#B3B3B3" stroke-width="0.2" stroke-miterlimit="10"/>
<path d="M65.0173 38.7522L77.6286 88.8725" stroke="#B3B3B3" stroke-width="0.2" stroke-miterlimit="10"/>
<path d="M56.9939 40.6741L69.6051 90.7943" stroke="#B3B3B3" stroke-width="0.2" stroke-miterlimit="10"/>
<path d="M48.9711 42.5938L61.5823 92.7141" stroke="#B3B3B3" stroke-width="0.2" stroke-miterlimit="10"/>
<path d="M40.9478 44.5134L53.559 94.6326" stroke="#B3B3B3" stroke-width="0.2" stroke-miterlimit="10"/>
<path d="M32.925 46.433L45.5363 96.5533" stroke="#B3B3B3" stroke-width="0.2" stroke-miterlimit="10"/>
<path d="M32.5803 35.4376L37.0281 51.3529L19.7659 54.5071L32.5803 35.4376Z" fill="url(#paint6_linear_531_56810)"/>
<path d="M6.89706 30.529C6.52309 31.3466 6.38901 32.2645 6.60375 33.126L46.2947 190.326C47.0039 193.175 49.6196 194.698 52.5118 193.948L147.455 169.298C149.131 168.864 150.523 167.617 151.331 166.084C150.555 167.745 149.096 169.116 147.32 169.58L52.3725 194.229C49.4792 194.98 46.8646 193.456 46.1543 190.607L6.46443 33.4072C6.22455 32.4454 6.41729 31.4135 6.89706 30.529Z" fill="url(#paint7_linear_531_56810)"/>
<path d="M48.859 122.561C52.513 122.561 55.4752 119.605 55.4752 115.958C55.4752 112.311 52.513 109.355 48.859 109.355C45.205 109.355 42.2428 112.311 42.2428 115.958C42.2428 119.605 45.205 122.561 48.859 122.561Z" fill="url(#paint8_linear_531_56810)"/>
<path d="M48.0515 117.426L45.6725 114.951L44.9581 115.852L48.1866 119.212L52.5108 114.276L51.4926 113.348L48.0515 117.426Z" fill="white"/>
<path d="M97.544 100.187L60.7474 109.397C60.5831 109.438 60.4094 109.412 60.2642 109.325C60.119 109.238 60.014 109.098 59.9722 108.934C59.9313 108.77 59.9572 108.597 60.0441 108.452C60.1311 108.307 60.2721 108.202 60.4363 108.16L97.2329 98.9497C97.3972 98.9089 97.571 98.9347 97.7163 99.0215C97.8616 99.1083 97.9665 99.2491 98.0081 99.4129C98.0484 99.5769 98.0223 99.7501 97.9354 99.8949C97.8485 100.04 97.7079 100.145 97.544 100.187Z" fill="#EEC51A"/>
<path d="M118.803 98.3L61.5593 112.629C61.395 112.67 61.2213 112.644 61.0761 112.557C60.9308 112.47 60.8259 112.33 60.7841 112.166C60.7432 112.002 60.769 111.829 60.856 111.684C60.943 111.539 61.084 111.434 61.2482 111.393L118.492 97.0632C118.656 97.0227 118.83 97.0486 118.975 97.1353C119.12 97.2221 119.225 97.3627 119.267 97.5264C119.307 97.6903 119.281 97.8637 119.194 98.0086C119.108 98.1536 118.967 98.2583 118.803 98.3Z" fill="url(#paint9_linear_531_56810)"/>
<path d="M119.615 101.533L62.3713 115.862C62.207 115.902 62.0335 115.876 61.8883 115.789C61.7432 115.703 61.6382 115.562 61.5961 115.399C61.5555 115.235 61.5815 115.061 61.6684 114.916C61.7554 114.772 61.8962 114.667 62.0602 114.625L119.304 100.296C119.468 100.255 119.642 100.281 119.787 100.368C119.932 100.454 120.037 100.595 120.079 100.759C120.119 100.923 120.093 101.096 120.006 101.241C119.92 101.386 119.779 101.491 119.615 101.533Z" fill="url(#paint10_linear_531_56810)"/>
<path d="M120.426 104.766L63.1828 119.09C63.0183 119.13 62.8446 119.104 62.6995 119.017C62.5543 118.93 62.4494 118.789 62.4076 118.625C62.367 118.461 62.3932 118.288 62.4803 118.143C62.5675 117.998 62.7086 117.894 62.8727 117.853L120.116 103.523C120.28 103.483 120.454 103.508 120.599 103.595C120.744 103.682 120.849 103.823 120.89 103.987C120.911 104.068 120.916 104.153 120.904 104.237C120.892 104.32 120.864 104.4 120.821 104.473C120.778 104.545 120.721 104.609 120.653 104.659C120.585 104.709 120.508 104.746 120.426 104.766Z" fill="url(#paint11_linear_531_56810)"/>
<path d="M59.8523 133.937C60.118 130.3 57.3791 127.136 53.7347 126.871C50.0904 126.606 46.9206 129.339 46.6549 132.977C46.3892 136.614 49.1282 139.777 52.7725 140.043C56.4169 140.308 59.5866 137.574 59.8523 133.937Z" fill="url(#paint12_linear_531_56810)"/>
<path d="M52.4521 134.936L50.0721 132.46L49.3577 133.361L52.5872 136.721L56.9114 131.786L55.8922 130.857L52.4521 134.936Z" fill="white"/>
<path d="M101.944 117.695L65.1471 126.906C64.9828 126.947 64.809 126.921 64.6637 126.834C64.5184 126.747 64.4135 126.607 64.3719 126.443C64.3316 126.279 64.3577 126.106 64.4446 125.961C64.5315 125.816 64.6721 125.711 64.836 125.669L101.633 116.458C101.797 116.418 101.971 116.444 102.116 116.531C102.261 116.617 102.366 116.758 102.408 116.922C102.449 117.086 102.423 117.259 102.336 117.404C102.249 117.549 102.108 117.654 101.944 117.695Z" fill="#EEC51A"/>
<path d="M123.202 115.811L65.9586 130.139C65.7943 130.18 65.6206 130.154 65.4754 130.067C65.3301 129.98 65.2252 129.84 65.1834 129.676C65.1431 129.512 65.1693 129.338 65.2564 129.194C65.3435 129.049 65.4844 128.944 65.6485 128.902L122.892 114.579C123.056 114.538 123.23 114.564 123.375 114.651C123.52 114.738 123.625 114.879 123.666 115.042C123.705 115.206 123.679 115.378 123.592 115.522C123.505 115.665 123.365 115.769 123.202 115.811Z" fill="url(#paint13_linear_531_56810)"/>
<path d="M124.015 119.041L66.7706 133.364C66.6065 133.405 66.4328 133.379 66.2876 133.293C66.1425 133.206 66.0378 133.065 65.9965 132.901C65.9556 132.737 65.9815 132.564 66.0684 132.419C66.1554 132.274 66.2964 132.169 66.4606 132.128L123.704 117.805C123.868 117.764 124.042 117.789 124.187 117.876C124.333 117.963 124.438 118.104 124.479 118.268C124.519 118.432 124.493 118.605 124.406 118.75C124.32 118.895 124.179 118.999 124.015 119.041Z" fill="url(#paint14_linear_531_56810)"/>
<path d="M124.827 122.273L67.5836 136.602C67.4193 136.643 67.2455 136.617 67.1002 136.53C66.9549 136.443 66.85 136.303 66.8084 136.139C66.7678 135.975 66.7938 135.801 66.8807 135.656C66.9676 135.512 67.1085 135.407 67.2725 135.365L124.516 121.037C124.68 120.996 124.854 121.022 124.999 121.109C125.145 121.195 125.249 121.336 125.291 121.5C125.332 121.664 125.306 121.837 125.219 121.982C125.132 122.127 124.991 122.231 124.827 122.273Z" fill="url(#paint15_linear_531_56810)"/>
<path d="M57.6593 157.581C61.3133 157.581 64.2755 154.625 64.2755 150.978C64.2755 147.331 61.3133 144.375 57.6593 144.375C54.0053 144.375 51.0431 147.331 51.0431 150.978C51.0431 154.625 54.0053 157.581 57.6593 157.581Z" fill="url(#paint16_linear_531_56810)"/>
<path d="M56.8516 152.444L54.4727 149.969L53.7572 150.87L56.9867 154.23L61.3109 149.293L60.2928 148.366L56.8516 152.444Z" fill="white"/>
<path d="M106.344 135.206L69.5466 144.417C69.3825 144.458 69.2088 144.432 69.0636 144.345C68.9185 144.258 68.8138 144.118 68.7725 143.954C68.7316 143.79 68.7575 143.616 68.8444 143.471C68.9314 143.326 69.0724 143.222 69.2366 143.18L106.033 133.97C106.198 133.929 106.371 133.955 106.516 134.042C106.662 134.129 106.767 134.269 106.808 134.433C106.849 134.597 106.823 134.77 106.736 134.915C106.649 135.06 106.508 135.164 106.344 135.206Z" fill="#EEC51A"/>
<path d="M127.603 133.318L70.3598 147.647C70.1955 147.688 70.0218 147.662 69.8766 147.575C69.7314 147.488 69.6264 147.348 69.5846 147.184C69.5437 147.02 69.5696 146.846 69.6566 146.701C69.7435 146.556 69.8845 146.452 70.0487 146.41L127.292 132.081C127.456 132.041 127.63 132.067 127.775 132.154C127.92 132.24 128.025 132.381 128.067 132.544C128.108 132.708 128.082 132.881 127.995 133.026C127.908 133.171 127.767 133.276 127.603 133.318Z" fill="url(#paint17_linear_531_56810)"/>
<path d="M128.415 136.55L71.1714 150.879C71.0071 150.92 70.8335 150.894 70.6884 150.807C70.5432 150.72 70.4382 150.58 70.3962 150.416C70.3556 150.252 70.3815 150.079 70.4685 149.934C70.5554 149.789 70.6962 149.684 70.8603 149.643L128.104 135.313C128.268 135.273 128.442 135.299 128.587 135.385C128.732 135.472 128.837 135.613 128.879 135.776C128.92 135.94 128.894 136.114 128.807 136.259C128.72 136.404 128.579 136.509 128.415 136.55Z" fill="url(#paint18_linear_531_56810)"/>
<path d="M129.227 139.782L71.9831 154.114C71.8189 154.154 71.6453 154.128 71.5001 154.041C71.355 153.955 71.25 153.814 71.208 153.651C71.1673 153.487 71.1933 153.313 71.2802 153.169C71.3672 153.024 71.508 152.919 71.672 152.877L128.916 138.548C129.081 138.507 129.254 138.533 129.399 138.62C129.544 138.707 129.649 138.847 129.691 139.011C129.731 139.175 129.704 139.347 129.617 139.492C129.53 139.636 129.39 139.74 129.227 139.782Z" fill="url(#paint19_linear_531_56810)"/>
<path d="M68.6519 168.953C68.9176 165.316 66.1786 162.152 62.5343 161.887C58.8899 161.622 55.7202 164.355 55.4545 167.993C55.1888 171.63 57.9277 174.793 61.5721 175.059C65.2164 175.324 68.3862 172.59 68.6519 168.953Z" fill="url(#paint20_linear_531_56810)"/>
<path d="M61.2514 169.952L58.8725 167.477L58.1581 168.379L61.3876 171.738L65.7118 166.802L64.6926 165.875L61.2514 169.952Z" fill="white"/>
<path d="M110.744 152.713L73.9473 161.924C73.783 161.965 73.6092 161.939 73.4639 161.852C73.3186 161.765 73.2137 161.624 73.1722 161.461C73.1313 161.297 73.1571 161.123 73.2441 160.979C73.3311 160.834 73.4721 160.729 73.6362 160.688L110.433 151.476C110.597 151.436 110.771 151.462 110.916 151.548C111.061 151.635 111.166 151.776 111.208 151.939C111.249 152.103 111.223 152.277 111.136 152.422C111.049 152.567 110.908 152.672 110.744 152.713Z" fill="#EEC51A"/>
<path d="M132.002 150.827L74.7589 165.15C74.5946 165.191 74.4208 165.165 74.2755 165.078C74.1302 164.992 74.0253 164.851 73.9837 164.687C73.9434 164.523 73.9695 164.35 74.0564 164.205C74.1433 164.06 74.2839 163.955 74.4478 163.913L131.691 149.59C131.855 149.55 132.029 149.575 132.175 149.662C132.32 149.749 132.425 149.89 132.466 150.054C132.507 150.217 132.481 150.391 132.394 150.536C132.307 150.681 132.166 150.786 132.002 150.827Z" fill="url(#paint21_linear_531_56810)"/>
<path d="M132.814 154.059L75.5711 168.382C75.4069 168.423 75.2332 168.397 75.0881 168.31C74.9429 168.224 74.8382 168.083 74.7969 167.919C74.756 167.755 74.7819 167.582 74.8688 167.437C74.9558 167.292 75.0968 167.187 75.261 167.145L132.504 152.822C132.669 152.782 132.842 152.808 132.988 152.894C133.133 152.981 133.238 153.122 133.28 153.285C133.32 153.45 133.294 153.623 133.207 153.768C133.119 153.913 132.979 154.017 132.814 154.059Z" fill="url(#paint22_linear_531_56810)"/>
<path d="M133.627 157.291L76.3839 171.614C76.2196 171.655 76.0456 171.63 75.9002 171.543C75.7549 171.456 75.65 171.315 75.6087 171.151C75.5681 170.987 75.5941 170.814 75.681 170.669C75.7679 170.524 75.9088 170.419 76.0728 170.377L133.316 156.054C133.48 156.014 133.654 156.04 133.799 156.126C133.945 156.213 134.05 156.354 134.091 156.517C134.132 156.681 134.106 156.855 134.019 156.999C133.932 157.144 133.791 157.249 133.627 157.291Z" fill="url(#paint23_linear_531_56810)"/>
<path d="M77.6503 88.7758L75.2745 89.3236L72.0879 76.849L74.4637 76.3011L77.6503 88.7758Z" fill="#EEC51A"/>
<path d="M80.0272 88.2269L77.6503 88.7758L74.4637 76.3011L76.8406 75.7523L80.0272 88.2269Z" fill="url(#paint24_linear_531_56810)"/>
<path d="M41.0881 97.2124L38.7112 97.7603L35.1067 83.6505L37.4835 83.1027L41.0881 97.2124Z" fill="#EEC51A"/>
<path d="M43.4642 96.6633L41.0884 97.2122L37.4839 83.1024L39.8607 82.5536L43.4642 96.6633Z" fill="url(#paint25_linear_531_56810)"/>
<path d="M50.2293 95.1039L47.8525 95.6528L42.0428 72.9105L44.4197 72.3616L50.2293 95.1039Z" fill="#EEC51A"/>
<path d="M52.6048 94.5548L50.229 95.1026L44.4194 72.3603L46.7963 71.8125L52.6048 94.5548Z" fill="url(#paint26_linear_531_56810)"/>
<path d="M59.3686 92.9936L56.9928 93.5415L51.8724 73.4965L54.2493 72.9487L59.3686 92.9936Z" fill="#EEC51A"/>
<path d="M61.7459 92.4457L59.369 92.9946L54.2498 72.9496L56.6256 72.4018L61.7459 92.4457Z" fill="url(#paint27_linear_531_56810)"/>
<path d="M68.5109 90.8835L66.1341 91.4324L58.8359 62.8626L61.2128 62.3147L68.5109 90.8835Z" fill="#EEC51A"/>
<path d="M70.8865 90.3376L68.5107 90.8855L61.2125 62.3167L63.5894 61.7679L70.8865 90.3376Z" fill="url(#paint28_linear_531_56810)"/>
<path d="M86.7911 86.668L84.4153 87.2158L75.6569 52.9273L78.0327 52.3795L86.7911 86.668Z" fill="#EEC51A"/>
<path d="M89.1682 86.1189L86.7914 86.6678L78.033 52.3792L80.4098 51.8304L89.1682 86.1189Z" fill="url(#paint29_linear_531_56810)"/>
<path d="M95.9321 84.5566L93.5563 85.1055L83.5398 45.8949L85.9166 45.346L95.9321 84.5566Z" fill="#EEC51A"/>
<path d="M98.3088 84.0098L95.9319 84.5576L85.9165 45.3469L88.2933 44.7991L98.3088 84.0098Z" fill="url(#paint30_linear_531_56810)"/>
<path d="M105.073 82.4478L102.697 82.9956L97.0529 60.9005L99.4287 60.3527L105.073 82.4478Z" fill="#EEC51A"/>
<path d="M107.449 81.8987L105.072 82.4476L99.4283 60.3524L101.805 59.8036L107.449 81.8987Z" fill="url(#paint31_linear_531_56810)"/>
<path d="M114.213 80.3384L111.838 80.8873L104.12 50.6761L106.496 50.1272L114.213 80.3384Z" fill="#EEC51A"/>
<path d="M116.59 79.7915L114.214 80.3394L106.496 50.1282L108.873 49.5804L116.59 79.7915Z" fill="url(#paint32_linear_531_56810)"/>
<g opacity="0.2">
<path opacity="0.04" d="M156.784 161.053C169.952 140.609 165.276 114.186 146.339 102.036C127.402 89.8866 101.376 96.6104 88.2074 117.054C75.0391 137.498 79.7153 163.921 98.6521 176.071C117.589 188.22 143.615 181.497 156.784 161.053Z" fill="#4A0101"/>
<path opacity="0.08" d="M156.953 160.623C169.839 140.674 165.306 114.865 146.828 102.976C128.35 91.0864 102.925 97.6195 90.0388 117.568C77.1528 137.516 81.6858 163.326 100.164 175.215C118.641 187.104 144.067 180.571 156.953 160.623Z" fill="#480202"/>
<path opacity="0.12" d="M156.717 159.899C169.275 140.459 164.858 115.306 146.85 103.719C128.842 92.1325 104.064 98.4994 91.506 117.94C78.9479 137.381 83.3656 162.534 101.373 174.12C119.381 185.707 144.159 179.34 156.717 159.899Z" fill="#460303"/>
<path opacity="0.15" d="M156.483 159.176C168.713 140.243 164.411 115.746 146.873 104.462C129.335 93.1771 105.203 99.3779 92.9726 118.311C80.7421 137.245 85.0445 161.742 102.582 173.026C120.12 184.311 144.252 178.11 156.483 159.176Z" fill="#440404"/>
<path opacity="0.19" d="M156.248 158.452C168.15 140.026 163.964 116.185 146.896 105.203C129.828 94.2214 106.343 100.256 94.4402 118.683C82.5373 137.109 86.7241 160.95 103.792 171.932C120.859 182.913 144.345 176.879 156.248 158.452Z" fill="#420505"/>
<path opacity="0.23" d="M156.013 157.728C167.588 139.809 163.516 116.625 146.918 105.945C130.32 95.2655 107.481 101.134 95.9063 119.053C84.3313 136.972 88.4031 160.155 105.001 170.835C121.599 181.515 144.438 175.646 156.013 157.728Z" fill="#400606"/>
<path opacity="0.27" d="M155.372 156.726C166.581 139.324 162.601 116.833 146.481 106.491C130.362 96.1493 108.208 101.873 96.9995 119.274C85.7906 136.676 89.7711 159.167 105.89 169.509C122.009 179.851 144.163 174.128 155.372 156.726Z" fill="#3E0606"/>
<path opacity="0.31" d="M155.543 156.281C166.462 139.377 162.621 117.506 146.963 107.431C131.305 97.3562 109.759 102.892 98.8399 119.796C87.9204 136.701 91.7617 158.571 107.42 168.646C123.078 178.721 144.623 173.185 155.543 156.281Z" fill="#3C0707"/>
<path opacity="0.35" d="M155.309 155.558C165.901 139.161 162.175 117.946 146.986 108.174C131.798 98.4008 110.899 103.771 100.307 120.168C89.7151 136.565 93.4412 157.78 108.629 167.552C123.818 177.325 144.717 171.955 155.309 155.558Z" fill="#3A0808"/>
<path opacity="0.38" d="M155.073 154.835C165.337 138.945 161.726 118.387 147.008 108.917C132.29 99.4469 112.038 104.651 101.774 120.54C91.5096 136.429 95.1203 156.987 109.838 166.458C124.557 175.928 144.809 170.724 155.073 154.835Z" fill="#380909"/>
<path opacity="0.42" d="M154.839 154.112C164.775 138.729 161.28 118.827 147.031 109.659C132.783 100.491 113.177 105.529 103.241 120.911C93.3044 136.294 96.7999 156.195 111.048 165.363C125.297 174.531 144.902 169.494 154.839 154.112Z" fill="#360A0A"/>
<path opacity="0.46" d="M154.604 153.386C164.213 138.511 160.833 119.266 147.054 110.401C133.276 101.535 114.318 106.407 104.709 121.281C95.1004 136.156 98.4806 155.401 112.259 164.267C126.037 173.132 144.996 168.261 154.604 153.386Z" fill="#340B0B"/>
<path opacity="0.5" d="M154.369 152.663C163.65 138.295 160.385 119.706 147.077 111.143C133.768 102.58 115.456 107.285 106.175 121.653C96.8941 136.02 100.159 154.609 113.467 163.172C126.776 171.736 145.088 167.03 154.369 152.663Z" fill="#330C0C"/>
<path opacity="0.54" d="M154.134 151.941C163.088 138.08 159.938 120.148 147.1 111.887C134.262 103.627 116.596 108.166 107.643 122.026C98.6894 135.887 101.839 153.819 114.677 162.08C127.515 170.341 145.181 165.801 154.134 151.941Z" fill="#310D0D"/>
<path opacity="0.58" d="M153.899 151.216C162.525 137.864 159.49 120.587 147.122 112.629C134.753 104.671 117.734 109.044 109.109 122.396C100.483 135.749 103.518 153.025 115.886 160.984C128.255 168.942 145.274 164.569 153.899 151.216Z" fill="#2F0E0E"/>
<path opacity="0.62" d="M153.664 150.492C161.962 137.646 159.043 121.027 147.145 113.371C135.247 105.715 118.874 109.922 110.576 122.768C102.279 135.613 105.197 152.233 117.096 159.889C128.994 167.545 145.366 163.338 153.664 150.492Z" fill="#2D0F0F"/>
<path opacity="0.65" d="M153.429 149.77C161.399 137.432 158.595 121.469 147.167 114.115C135.738 106.761 120.012 110.802 112.042 123.14C104.073 135.478 106.876 151.441 118.305 158.795C129.734 166.148 145.459 162.108 153.429 149.77Z" fill="#2B1010"/>
<path opacity="0.69" d="M153.194 149.046C160.837 137.215 158.148 121.908 147.19 114.857C136.231 107.806 121.153 111.68 113.51 123.511C105.868 135.342 108.556 150.649 119.514 157.7C130.473 164.751 145.552 160.877 153.194 149.046Z" fill="#291111"/>
<path opacity="0.73" d="M152.959 148.321C160.274 136.998 157.7 122.348 147.212 115.599C136.723 108.85 122.291 112.558 114.976 123.881C107.662 135.205 110.235 149.855 120.724 156.604C131.212 163.353 145.645 159.644 152.959 148.321Z" fill="#271212"/>
<path opacity="0.77" d="M152.724 147.599C159.711 136.783 157.253 122.789 147.235 116.343C137.216 109.896 123.431 113.439 116.444 124.255C109.457 135.071 111.915 149.065 121.933 155.511C131.952 161.958 145.737 158.415 152.724 147.599Z" fill="#251212"/>
<path opacity="0.81" d="M152.49 146.875C159.149 136.566 156.807 123.229 147.258 117.085C137.709 110.94 124.57 114.316 117.911 124.625C111.252 134.933 113.595 148.271 123.143 154.415C132.692 160.559 145.831 157.183 152.49 146.875Z" fill="#231313"/>
<path opacity="0.85" d="M152.255 146.15C158.586 136.349 156.359 123.668 147.28 117.826C138.202 111.985 125.709 115.195 119.378 124.996C113.047 134.798 115.274 147.479 124.352 153.32C133.431 159.162 145.923 155.952 152.255 146.15Z" fill="#211414"/>
<path opacity="0.88" d="M152.021 145.427C158.025 136.133 155.913 124.108 147.304 118.569C138.695 113.029 126.849 116.073 120.845 125.368C114.841 134.662 116.953 146.687 125.562 152.226C134.171 157.766 146.017 154.722 152.021 145.427Z" fill="#1F1515"/>
<path opacity="0.92" d="M151.785 144.704C157.461 135.917 155.464 124.549 147.325 119.312C139.187 114.075 127.988 116.953 122.312 125.74C116.636 134.527 118.632 145.895 126.771 151.132C134.91 156.368 146.109 153.491 151.785 144.704Z" fill="#1D1616"/>
<path opacity="0.96" d="M151.551 143.981C156.899 135.701 155.018 124.989 147.349 120.055C139.68 115.12 129.127 117.832 123.779 126.111C118.431 134.391 120.312 145.103 127.981 150.037C135.65 154.972 146.203 152.26 151.551 143.981Z" fill="#1B1717"/>
<path d="M151.315 143.257C156.335 135.486 154.569 125.43 147.37 120.798C140.172 116.166 130.266 118.712 125.245 126.483C120.225 134.255 121.991 144.311 129.19 148.943C136.389 153.575 146.294 151.029 151.315 143.257Z" fill="#191818"/>
</g>
<path d="M143.6 126.532L181.311 129.557C183.201 129.707 184.96 130.578 186.224 131.988C187.488 133.399 188.159 135.241 188.099 137.132C187.54 153.873 187.904 194.911 204.775 196.013C204.858 196.013 204.941 196.024 205.024 196.024C205.601 196.044 206.179 196.023 206.754 195.962C226.657 193.766 223.619 130.183 222.226 110.84C222.114 109.301 221.453 107.853 220.363 106.758C219.274 105.663 217.827 104.994 216.286 104.871L194.616 103.136C193.821 103.072 193.024 103.24 192.322 103.618C191.619 103.996 191.041 104.569 190.658 105.268L186.677 112.51C186.276 113.241 185.673 113.843 184.939 114.244C184.206 114.645 183.374 114.829 182.539 114.773L147.866 112.465C147.267 112.425 146.667 112.511 146.103 112.718C145.54 112.925 145.027 113.249 144.597 113.667C144.168 114.085 143.831 114.589 143.61 115.146C143.389 115.703 143.287 116.3 143.313 116.899C143.44 119.89 143.539 123.132 143.6 126.532Z" fill="url(#paint33_linear_531_56810)"/>
<path d="M141.687 126.532L179.398 129.557C181.288 129.707 183.048 130.578 184.311 131.988C185.575 133.399 186.247 135.241 186.186 137.132C185.628 153.873 185.991 194.911 202.863 196.013C202.945 196.013 203.028 196.024 203.111 196.024C203.689 196.044 204.267 196.023 204.842 195.962C224.745 193.766 221.707 130.183 220.314 110.84C220.201 109.301 219.541 107.853 218.451 106.758C217.362 105.664 215.916 104.994 214.375 104.871L192.706 103.136C191.91 103.072 191.113 103.24 190.411 103.618C189.709 103.996 189.131 104.569 188.747 105.268L184.767 112.51C184.365 113.241 183.762 113.843 183.029 114.244C182.296 114.645 181.463 114.829 180.629 114.773L145.956 112.465C145.357 112.425 144.756 112.511 144.193 112.718C143.63 112.925 143.117 113.249 142.687 113.667C142.257 114.085 141.921 114.589 141.699 115.146C141.478 115.703 141.377 116.3 141.402 116.899C141.525 119.89 141.626 123.132 141.687 126.532Z" fill="url(#paint34_linear_531_56810)"/>
<g opacity="0.53">
<path d="M180.091 114.954L145.418 112.645C144.939 112.62 144.459 112.676 143.999 112.811C144.614 112.542 145.285 112.424 145.956 112.466L180.629 114.774C181.106 114.804 181.585 114.755 182.046 114.629C181.428 114.885 180.759 114.996 180.091 114.954Z" fill="url(#paint35_linear_531_56810)"/>
<path d="M219.773 111.02C219.661 109.481 219.001 108.033 217.911 106.938C216.822 105.843 215.376 105.174 213.835 105.051L192.166 103.317C191.706 103.283 191.243 103.326 190.797 103.444C191.399 103.193 192.053 103.087 192.704 103.137L214.373 104.873C215.914 104.995 217.36 105.665 218.449 106.76C219.539 107.854 220.199 109.302 220.311 110.841C221.664 129.652 224.577 190.298 206.427 195.637C223.981 189.266 221.113 129.643 219.773 111.02Z" fill="url(#paint36_linear_531_56810)"/>
</g>
<path d="M130.347 89.7517V174.108C130.349 175.302 130.826 176.446 131.673 177.289C132.52 178.132 133.668 178.605 134.865 178.604L207.82 182.472C207.964 182.472 208.1 182.462 208.234 182.451C209.185 182.35 210.066 181.901 210.707 181.191C211.348 180.481 211.703 179.56 211.705 178.605V80.1657C211.705 78.5682 211.08 77.0337 209.965 75.888C208.849 74.7424 207.33 74.0758 205.73 74.0298L148.866 69.3147C148.669 69.5322 148.447 69.7695 148.224 70.0288C144.224 74.4365 136.277 83.1955 130.347 89.7517Z" fill="url(#paint37_linear_531_56810)"/>
<path d="M128.516 91.7678V174.79C128.515 175.984 128.989 177.13 129.833 177.975C130.678 178.82 131.825 179.296 133.021 179.298L205.987 183.167C206.497 183.168 207.002 183.068 207.473 182.873C207.945 182.678 208.373 182.393 208.733 182.032C209.093 181.672 209.379 181.244 209.572 180.773C209.766 180.302 209.865 179.797 209.862 179.288V80.8478C209.863 79.2495 209.238 77.7141 208.121 76.5686C207.005 75.4231 205.484 74.758 203.883 74.715L148.221 70.0312C144.222 74.4359 136.274 83.1949 130.347 89.7511C129.707 90.4543 129.097 91.1266 128.516 91.7678Z" fill="url(#paint38_linear_531_56810)"/>
<path d="M148.224 70.0312V93.7375L128.516 91.7678L148.224 70.0312Z" fill="url(#paint39_linear_531_56810)"/>
<path d="M139.669 98.6873L201.81 104.114C201.976 104.132 202.144 104.114 202.302 104.062C202.461 104.011 202.606 103.926 202.73 103.813C202.853 103.701 202.951 103.564 203.017 103.411C203.083 103.258 203.116 103.093 203.114 102.927C203.107 102.573 202.97 102.234 202.73 101.973C202.49 101.712 202.163 101.548 201.81 101.511L139.669 96.0893C139.503 96.0715 139.335 96.0891 139.177 96.1409C139.018 96.1928 138.872 96.2776 138.749 96.3899C138.626 96.5022 138.528 96.6393 138.462 96.7923C138.395 96.9452 138.362 97.1104 138.365 97.277C138.374 97.63 138.511 97.9678 138.751 98.2273C138.991 98.4869 139.317 98.6504 139.669 98.6873Z" fill="url(#paint40_linear_531_56810)"/>
<path d="M139.669 105.429L201.81 110.857C201.976 110.875 202.144 110.857 202.302 110.805C202.461 110.753 202.607 110.669 202.73 110.556C202.853 110.444 202.951 110.307 203.017 110.154C203.084 110.001 203.117 109.836 203.114 109.67C203.107 109.316 202.971 108.976 202.731 108.716C202.49 108.455 202.163 108.291 201.81 108.254L139.669 102.826C139.503 102.808 139.336 102.826 139.177 102.878C139.019 102.93 138.873 103.015 138.75 103.127C138.626 103.239 138.528 103.376 138.462 103.529C138.396 103.682 138.363 103.847 138.365 104.014C138.372 104.368 138.509 104.707 138.749 104.967C138.989 105.228 139.317 105.392 139.669 105.429Z" fill="url(#paint41_linear_531_56810)"/>
<path d="M139.669 112.172L201.81 117.6C201.976 117.617 202.144 117.6 202.302 117.548C202.461 117.496 202.607 117.411 202.73 117.299C202.853 117.187 202.951 117.05 203.017 116.897C203.084 116.744 203.117 116.578 203.114 116.412C203.106 116.058 202.97 115.719 202.73 115.458C202.49 115.198 202.163 115.033 201.81 114.996L139.669 109.569C139.503 109.551 139.335 109.569 139.177 109.621C139.018 109.673 138.872 109.758 138.749 109.87C138.626 109.982 138.528 110.119 138.462 110.272C138.395 110.425 138.362 110.59 138.365 110.757C138.372 111.111 138.509 111.45 138.749 111.711C138.989 111.971 139.316 112.136 139.669 112.172Z" fill="url(#paint42_linear_531_56810)"/>
<path d="M139.669 118.914L201.81 124.341C201.976 124.359 202.144 124.341 202.302 124.289C202.461 124.237 202.607 124.152 202.73 124.04C202.853 123.928 202.951 123.791 203.018 123.638C203.084 123.485 203.117 123.32 203.114 123.153C203.107 122.799 202.97 122.46 202.73 122.199C202.49 121.939 202.163 121.774 201.81 121.738L139.669 116.31C139.503 116.293 139.336 116.31 139.177 116.362C139.018 116.414 138.873 116.499 138.749 116.611C138.626 116.723 138.528 116.861 138.462 117.013C138.396 117.166 138.363 117.332 138.365 117.498C138.373 117.852 138.509 118.191 138.749 118.452C138.989 118.713 139.317 118.877 139.669 118.914Z" fill="url(#paint43_linear_531_56810)"/>
<path d="M139.669 125.657L201.81 131.084C201.976 131.102 202.144 131.084 202.302 131.032C202.461 130.98 202.607 130.896 202.73 130.783C202.853 130.671 202.951 130.534 203.017 130.381C203.084 130.228 203.117 130.063 203.114 129.896C203.107 129.542 202.97 129.203 202.73 128.942C202.49 128.682 202.163 128.518 201.81 128.481L139.669 123.054C139.503 123.036 139.335 123.053 139.177 123.105C139.018 123.157 138.872 123.242 138.749 123.354C138.626 123.466 138.528 123.604 138.462 123.757C138.395 123.909 138.362 124.075 138.365 124.241C138.372 124.595 138.509 124.934 138.749 125.195C138.989 125.456 139.316 125.62 139.669 125.657Z" fill="url(#paint44_linear_531_56810)"/>
<path d="M139.669 132.398L201.81 137.825C201.976 137.843 202.144 137.825 202.302 137.773C202.461 137.722 202.607 137.637 202.73 137.524C202.853 137.412 202.951 137.275 203.017 137.122C203.084 136.969 203.117 136.804 203.114 136.637C203.107 136.283 202.97 135.944 202.73 135.683C202.49 135.423 202.163 135.259 201.81 135.222L139.669 129.795C139.503 129.777 139.335 129.794 139.177 129.846C139.018 129.898 138.872 129.983 138.749 130.095C138.626 130.208 138.528 130.345 138.462 130.498C138.395 130.651 138.362 130.816 138.365 130.982C138.372 131.336 138.509 131.675 138.749 131.936C138.989 132.197 139.316 132.361 139.669 132.398Z" fill="url(#paint45_linear_531_56810)"/>
<path d="M139.669 139.14L201.81 163.395C201.976 163.413 202.143 163.395 202.302 163.343C202.461 163.291 202.606 163.206 202.73 163.094C202.853 162.982 202.951 162.845 203.017 162.692C203.083 162.539 203.116 162.374 203.114 162.207C203.114 161.491 202.527 142.029 201.81 141.967L139.669 136.536C139.503 136.518 139.335 136.536 139.177 136.588C139.018 136.64 138.873 136.725 138.749 136.837C138.626 136.95 138.528 137.087 138.462 137.24C138.396 137.392 138.363 137.558 138.365 137.724C138.372 138.078 138.509 138.417 138.749 138.678C138.989 138.938 139.316 139.103 139.669 139.14Z" fill="url(#paint46_linear_531_56810)"/>
<path d="M127.153 91.4807V175.837C127.155 177.031 127.632 178.176 128.48 179.019C129.327 179.862 130.475 180.334 131.671 180.333L204.627 184.201C204.771 184.201 204.906 184.191 205.046 184.18C205.998 184.078 206.878 183.629 207.519 182.919C208.16 182.209 208.515 181.288 208.517 180.333V81.8948C208.516 80.2972 207.891 78.763 206.775 77.618C205.658 76.4729 204.139 75.8071 202.539 75.762L145.675 71.0469C145.478 71.2633 145.256 71.5017 145.033 71.7599C141.031 76.1655 133.08 84.9246 127.153 91.4807Z" fill="url(#paint47_linear_531_56810)"/>
<path d="M125.318 93.4965V176.518C125.316 177.712 125.79 178.858 126.635 179.703C127.479 180.549 128.626 181.025 129.823 181.027L202.788 184.895C203.298 184.897 203.804 184.797 204.275 184.603C204.747 184.408 205.175 184.122 205.535 183.762C205.895 183.401 206.181 182.973 206.374 182.502C206.568 182.031 206.667 181.527 206.664 181.018V82.5765C206.665 80.9783 206.041 79.4429 204.924 78.2974C203.807 77.1519 202.287 76.4868 200.686 76.4437L145.024 71.7589C141.025 76.1646 133.077 84.9236 127.15 91.4798C126.511 92.183 125.9 92.8553 125.318 93.4965Z" fill="url(#paint48_linear_531_56810)"/>
<path d="M145.027 71.7589V95.4651L125.319 93.4965L145.027 71.7589Z" fill="url(#paint49_linear_531_56810)"/>
<path d="M136.478 100.416L198.618 105.843C198.784 105.861 198.952 105.843 199.111 105.791C199.269 105.739 199.415 105.655 199.538 105.542C199.662 105.43 199.76 105.293 199.826 105.14C199.892 104.987 199.925 104.822 199.922 104.655C199.915 104.301 199.778 103.962 199.538 103.702C199.298 103.441 198.971 103.277 198.618 103.24L136.478 97.8125C136.312 97.7947 136.144 97.8123 135.985 97.8642C135.827 97.916 135.681 98.0008 135.557 98.1131C135.434 98.2254 135.336 98.3626 135.27 98.5155C135.204 98.6684 135.171 98.8336 135.173 99.0002C135.181 99.3542 135.317 99.6934 135.557 99.9541C135.798 100.215 136.125 100.379 136.478 100.416Z" fill="url(#paint50_linear_531_56810)"/>
<path d="M136.478 107.157L198.618 112.584C198.784 112.602 198.952 112.585 199.111 112.533C199.269 112.481 199.415 112.396 199.538 112.284C199.662 112.171 199.76 112.034 199.826 111.881C199.892 111.728 199.925 111.563 199.922 111.397C199.915 111.043 199.779 110.703 199.538 110.443C199.298 110.182 198.971 110.018 198.618 109.981L136.478 104.558C136.312 104.54 136.144 104.558 135.985 104.61C135.826 104.662 135.681 104.747 135.557 104.859C135.434 104.971 135.336 105.108 135.27 105.261C135.204 105.414 135.171 105.579 135.173 105.746C135.182 106.099 135.319 106.437 135.559 106.697C135.799 106.957 136.125 107.121 136.478 107.157Z" fill="url(#paint51_linear_531_56810)"/>
<path d="M136.478 113.9L198.618 119.327C198.784 119.345 198.952 119.327 199.111 119.276C199.269 119.224 199.415 119.139 199.538 119.027C199.662 118.914 199.76 118.777 199.826 118.624C199.892 118.471 199.925 118.306 199.922 118.14C199.915 117.786 199.779 117.446 199.538 117.186C199.298 116.925 198.971 116.761 198.618 116.724L136.478 111.297C136.312 111.279 136.144 111.297 135.985 111.349C135.827 111.4 135.681 111.485 135.557 111.598C135.434 111.71 135.336 111.847 135.27 112C135.204 112.153 135.171 112.318 135.173 112.485C135.181 112.839 135.317 113.178 135.557 113.438C135.798 113.699 136.125 113.863 136.478 113.9Z" fill="url(#paint52_linear_531_56810)"/>
<path d="M136.478 120.641L198.618 126.068C198.784 126.086 198.952 126.068 199.111 126.017C199.269 125.965 199.415 125.88 199.538 125.768C199.662 125.655 199.76 125.518 199.826 125.365C199.892 125.212 199.925 125.047 199.922 124.881C199.915 124.527 199.779 124.187 199.538 123.927C199.298 123.666 198.971 123.502 198.618 123.465L136.478 118.038C136.312 118.02 136.144 118.038 135.985 118.09C135.827 118.141 135.681 118.226 135.557 118.339C135.434 118.451 135.336 118.588 135.27 118.741C135.204 118.894 135.171 119.059 135.173 119.226C135.181 119.58 135.318 119.919 135.558 120.179C135.798 120.44 136.125 120.604 136.478 120.641Z" fill="url(#paint53_linear_531_56810)"/>
<path d="M136.478 127.383L198.618 132.81C198.784 132.828 198.952 132.81 199.111 132.758C199.269 132.706 199.415 132.621 199.538 132.509C199.661 132.397 199.759 132.26 199.826 132.107C199.892 131.954 199.925 131.789 199.922 131.623C199.915 131.268 199.779 130.929 199.538 130.669C199.298 130.408 198.971 130.244 198.618 130.207L136.478 124.779C136.312 124.761 136.144 124.779 135.985 124.831C135.827 124.883 135.681 124.968 135.558 125.081C135.435 125.193 135.337 125.33 135.27 125.483C135.204 125.636 135.171 125.801 135.173 125.968C135.181 126.321 135.318 126.661 135.558 126.921C135.798 127.182 136.125 127.346 136.478 127.383Z" fill="url(#paint54_linear_531_56810)"/>
<path d="M136.478 134.125L198.618 139.554C198.784 139.571 198.952 139.553 199.11 139.501C199.269 139.449 199.415 139.364 199.538 139.252C199.661 139.14 199.759 139.002 199.825 138.85C199.892 138.697 199.925 138.531 199.922 138.365C199.915 138.011 199.778 137.672 199.538 137.411C199.298 137.151 198.971 136.987 198.618 136.95L136.478 131.522C136.312 131.505 136.144 131.522 135.985 131.574C135.827 131.626 135.681 131.711 135.558 131.823C135.434 131.935 135.336 132.073 135.27 132.225C135.204 132.378 135.171 132.543 135.173 132.71C135.181 133.064 135.317 133.403 135.557 133.664C135.797 133.924 136.125 134.089 136.478 134.125Z" fill="url(#paint55_linear_531_56810)"/>
<path d="M136.478 140.867L198.618 165.122C198.784 165.14 198.952 165.122 199.111 165.07C199.269 165.018 199.415 164.933 199.538 164.821C199.662 164.709 199.76 164.572 199.826 164.419C199.892 164.266 199.925 164.101 199.922 163.934C199.915 163.58 199.779 163.241 199.538 162.98C199.298 162.72 198.971 162.555 198.618 162.519L136.478 138.263C136.312 138.246 136.144 138.263 135.985 138.315C135.827 138.367 135.681 138.452 135.557 138.564C135.434 138.676 135.336 138.813 135.27 138.966C135.204 139.119 135.171 139.285 135.173 139.451C135.181 139.805 135.317 140.144 135.557 140.405C135.798 140.666 136.125 140.83 136.478 140.867Z" fill="url(#paint56_linear_531_56810)"/>
<path d="M123.956 93.2096V177.565C123.959 178.759 124.436 179.903 125.283 180.746C126.13 181.589 127.278 182.062 128.474 182.061L201.43 185.929C201.574 185.929 201.709 185.918 201.843 185.909C202.795 185.807 203.676 185.358 204.317 184.648C204.957 183.938 205.313 183.017 205.315 182.062V83.6226C205.314 82.025 204.688 80.4907 203.572 79.3458C202.455 78.2009 200.936 77.5355 199.336 77.4909L142.474 72.7768C142.277 72.9943 142.054 73.2326 141.831 73.4909C137.832 77.8996 129.884 86.6534 123.956 93.2096Z" fill="url(#paint57_linear_531_56810)"/>
<path d="M122.123 95.2254V178.248C122.122 179.442 122.596 180.587 123.44 181.433C124.285 182.279 125.431 182.755 126.628 182.757L199.593 186.625C200.104 186.627 200.609 186.527 201.08 186.332C201.552 186.138 201.98 185.852 202.34 185.492C202.701 185.131 202.986 184.703 203.18 184.232C203.373 183.761 203.472 183.257 203.469 182.748V84.3054C203.47 82.7077 202.846 81.1729 201.73 80.0276C200.613 78.8824 199.093 78.2172 197.493 78.1736L141.832 73.4888C137.832 77.8997 129.884 86.6535 123.956 93.2097C123.315 93.9122 122.704 94.5841 122.123 95.2254Z" fill="url(#paint58_linear_531_56810)"/>
<path d="M182.827 114.61L187.792 126.783C186.201 127.348 184.513 127.587 182.827 127.483C175.704 127.065 169.93 120.97 169.93 113.861C169.93 106.751 175.704 101.324 182.827 101.736C184.943 101.863 186.999 102.488 188.827 103.56L182.827 114.61Z" fill="url(#paint59_linear_531_56810)"/>
<path d="M194.199 109.189L182.828 114.609L188.827 103.56C191.112 104.896 192.974 106.846 194.199 109.189Z" fill="url(#paint60_linear_531_56810)"/>
<path d="M195.727 115.358C195.727 115.942 195.687 116.525 195.608 117.103L182.828 114.612L194.198 109.192C195.198 111.094 195.723 113.21 195.727 115.358Z" fill="white"/>
<path d="M195.608 117.104C195.4 118.644 194.897 120.131 194.126 121.481L182.828 114.61L195.608 117.104Z" fill="url(#paint61_linear_531_56810)"/>
<path d="M194.127 121.478C193.007 123.441 191.349 125.044 189.348 126.098L182.828 114.61L194.127 121.478Z" fill="url(#paint62_linear_531_56810)"/>
<path d="M189.348 126.095C188.846 126.36 188.327 126.588 187.793 126.779L182.828 114.61L189.348 126.095Z" fill="url(#paint63_linear_531_56810)"/>
<path d="M155.737 103.691L129.251 102.153C129.149 102.146 129.053 102.1 128.983 102.026C128.913 101.952 128.873 101.854 128.872 101.752C128.871 101.704 128.881 101.655 128.9 101.61C128.919 101.565 128.947 101.525 128.983 101.491C129.019 101.458 129.061 101.432 129.107 101.416C129.153 101.399 129.202 101.393 129.251 101.396L155.737 102.935C155.839 102.942 155.934 102.987 156.004 103.062C156.074 103.136 156.114 103.233 156.116 103.335C156.116 103.384 156.106 103.432 156.087 103.477C156.068 103.522 156.039 103.562 156.004 103.596C155.968 103.629 155.926 103.655 155.88 103.671C155.834 103.687 155.785 103.694 155.737 103.691Z" fill="url(#paint64_linear_531_56810)"/>
<path d="M163.727 106.954L129.251 104.95C129.149 104.942 129.053 104.897 128.983 104.823C128.913 104.749 128.873 104.651 128.872 104.549C128.871 104.5 128.881 104.452 128.9 104.407C128.919 104.362 128.948 104.322 128.983 104.288C129.019 104.255 129.061 104.229 129.107 104.213C129.153 104.196 129.202 104.189 129.251 104.193L163.727 106.197C163.829 106.204 163.925 106.249 163.995 106.324C164.065 106.398 164.105 106.495 164.106 106.597C164.107 106.646 164.097 106.695 164.078 106.739C164.059 106.784 164.03 106.825 163.995 106.858C163.959 106.892 163.917 106.918 163.871 106.934C163.825 106.95 163.776 106.957 163.727 106.954Z" fill="#B7B7B7"/>
<path d="M163.727 109.751L129.251 107.747C129.149 107.739 129.053 107.694 128.983 107.62C128.913 107.546 128.873 107.448 128.872 107.346C128.871 107.297 128.881 107.249 128.9 107.204C128.919 107.159 128.948 107.119 128.983 107.085C129.019 107.052 129.061 107.026 129.107 107.01C129.153 106.993 129.202 106.986 129.251 106.99L163.727 108.993C163.829 109 163.925 109.045 163.995 109.12C164.065 109.194 164.105 109.292 164.106 109.394C164.107 109.443 164.097 109.491 164.078 109.536C164.059 109.581 164.03 109.622 163.995 109.655C163.959 109.689 163.917 109.714 163.871 109.731C163.825 109.747 163.776 109.754 163.727 109.751Z" fill="#B7B7B7"/>
<path d="M163.727 112.548L129.251 110.545C129.149 110.537 129.053 110.492 128.983 110.418C128.912 110.343 128.873 110.245 128.871 110.143C128.871 110.094 128.881 110.046 128.9 110.001C128.919 109.956 128.947 109.916 128.983 109.882C129.019 109.849 129.061 109.823 129.107 109.807C129.153 109.79 129.202 109.783 129.251 109.787L163.727 111.791C163.829 111.798 163.924 111.843 163.995 111.917C164.065 111.992 164.105 112.089 164.106 112.191C164.107 112.24 164.097 112.288 164.078 112.333C164.059 112.378 164.03 112.419 163.995 112.452C163.959 112.486 163.917 112.511 163.871 112.528C163.825 112.544 163.776 112.551 163.727 112.548Z" fill="#B7B7B7"/>
<path d="M163.727 115.345L129.251 113.34C129.149 113.333 129.053 113.288 128.983 113.214C128.913 113.139 128.873 113.042 128.871 112.94C128.871 112.891 128.881 112.843 128.9 112.798C128.919 112.753 128.947 112.712 128.983 112.679C129.019 112.645 129.061 112.62 129.107 112.603C129.153 112.587 129.202 112.58 129.251 112.583L163.727 114.586C163.829 114.594 163.925 114.639 163.995 114.714C164.065 114.788 164.105 114.886 164.106 114.988C164.107 115.037 164.097 115.085 164.078 115.13C164.059 115.175 164.031 115.216 163.995 115.249C163.959 115.283 163.917 115.309 163.871 115.325C163.825 115.342 163.776 115.349 163.727 115.345Z" fill="#B7B7B7"/>
<path d="M163.727 118.141L129.251 116.138C129.149 116.131 129.053 116.086 128.983 116.012C128.913 115.938 128.873 115.84 128.872 115.738C128.871 115.689 128.881 115.64 128.9 115.595C128.919 115.55 128.947 115.51 128.983 115.476C129.018 115.443 129.061 115.417 129.107 115.4C129.153 115.384 129.202 115.377 129.251 115.38L163.727 117.384C163.829 117.392 163.925 117.437 163.995 117.511C164.065 117.585 164.105 117.683 164.106 117.785C164.107 117.834 164.097 117.882 164.078 117.927C164.059 117.972 164.03 118.012 163.995 118.046C163.959 118.079 163.917 118.105 163.871 118.121C163.825 118.138 163.776 118.145 163.727 118.141Z" fill="#B7B7B7"/>
<path d="M163.727 120.94L129.251 118.936C129.149 118.929 129.053 118.884 128.983 118.81C128.913 118.736 128.873 118.638 128.872 118.536C128.871 118.487 128.881 118.439 128.9 118.394C128.919 118.349 128.948 118.308 128.983 118.275C129.019 118.242 129.061 118.216 129.107 118.199C129.153 118.183 129.202 118.176 129.251 118.179L163.727 120.184C163.829 120.191 163.925 120.236 163.995 120.31C164.065 120.384 164.105 120.482 164.106 120.584C164.107 120.633 164.097 120.681 164.078 120.726C164.059 120.771 164.03 120.811 163.995 120.845C163.959 120.878 163.917 120.904 163.871 120.921C163.825 120.937 163.776 120.944 163.727 120.94Z" fill="#B7B7B7"/>
<path d="M163.727 123.736L129.251 121.733C129.149 121.726 129.053 121.681 128.983 121.607C128.913 121.532 128.873 121.435 128.872 121.333C128.871 121.284 128.881 121.236 128.9 121.191C128.919 121.146 128.948 121.105 128.983 121.072C129.019 121.038 129.061 121.013 129.107 120.996C129.153 120.98 129.202 120.973 129.251 120.976L163.727 122.979C163.829 122.987 163.925 123.032 163.995 123.106C164.065 123.18 164.105 123.278 164.106 123.38C164.107 123.429 164.097 123.477 164.078 123.522C164.059 123.567 164.031 123.608 163.995 123.641C163.959 123.675 163.917 123.7 163.871 123.717C163.825 123.733 163.776 123.74 163.727 123.736Z" fill="#B7B7B7"/>
<path d="M182.827 143.678L187.792 155.849C186.201 156.415 184.513 156.654 182.827 156.55C175.704 156.132 169.93 150.037 169.93 142.928C169.93 135.82 175.704 130.391 182.827 130.801C184.943 130.927 186.999 131.552 188.827 132.624L182.827 143.678Z" fill="url(#paint65_linear_531_56810)"/>
<path d="M194.199 138.256L182.828 143.677L188.827 132.627C191.112 133.963 192.974 135.913 194.199 138.256Z" fill="url(#paint66_linear_531_56810)"/>
<path d="M195.727 144.426C195.727 145.009 195.687 145.591 195.608 146.168L182.828 143.678L194.198 138.257C195.198 140.16 195.723 142.277 195.727 144.426Z" fill="url(#paint67_linear_531_56810)"/>
<path d="M195.608 146.168C195.4 147.708 194.897 149.195 194.127 150.546L182.828 143.676L195.608 146.168Z" fill="url(#paint68_linear_531_56810)"/>
<path d="M194.128 150.545C193.007 152.507 191.349 154.11 189.348 155.164L182.828 143.676L194.128 150.545Z" fill="white"/>
<path d="M189.348 155.164C188.846 155.429 188.327 155.657 187.793 155.848L182.828 143.676L189.348 155.164Z" fill="url(#paint69_linear_531_56810)"/>
<path d="M155.737 132.758L129.251 131.218C129.149 131.21 129.053 131.165 128.983 131.091C128.913 131.017 128.873 130.919 128.872 130.817C128.871 130.768 128.881 130.72 128.9 130.675C128.919 130.63 128.948 130.59 128.983 130.556C129.019 130.523 129.061 130.497 129.107 130.481C129.153 130.464 129.202 130.457 129.251 130.461L155.737 132C155.839 132.007 155.934 132.052 156.004 132.126C156.074 132.2 156.114 132.298 156.116 132.4C156.116 132.449 156.107 132.498 156.088 132.543C156.069 132.588 156.041 132.628 156.005 132.662C155.969 132.696 155.927 132.721 155.881 132.738C155.835 132.754 155.786 132.761 155.737 132.758Z" fill="url(#paint70_linear_531_56810)"/>
<path d="M163.727 136.021L129.251 134.018C129.149 134.01 129.053 133.965 128.983 133.891C128.913 133.816 128.873 133.718 128.872 133.616C128.871 133.567 128.881 133.519 128.9 133.474C128.919 133.429 128.948 133.389 128.983 133.355C129.019 133.322 129.061 133.296 129.107 133.28C129.153 133.263 129.202 133.256 129.251 133.26L163.727 135.264C163.829 135.271 163.925 135.316 163.995 135.391C164.065 135.465 164.105 135.562 164.106 135.664C164.107 135.713 164.097 135.762 164.078 135.806C164.059 135.851 164.03 135.892 163.995 135.925C163.959 135.959 163.917 135.984 163.871 136.001C163.825 136.017 163.776 136.024 163.727 136.021Z" fill="#B7B7B7"/>
<path d="M163.727 138.818L129.251 136.813C129.149 136.806 129.053 136.761 128.983 136.687C128.913 136.613 128.873 136.515 128.871 136.413C128.871 136.364 128.881 136.316 128.9 136.271C128.919 136.226 128.947 136.186 128.983 136.152C129.019 136.119 129.061 136.093 129.107 136.076C129.153 136.06 129.202 136.053 129.251 136.057L163.727 138.06C163.829 138.067 163.925 138.113 163.995 138.187C164.065 138.261 164.105 138.359 164.106 138.461C164.107 138.51 164.097 138.558 164.078 138.603C164.059 138.648 164.03 138.689 163.995 138.722C163.959 138.755 163.917 138.781 163.871 138.798C163.825 138.814 163.776 138.821 163.727 138.818Z" fill="#B7B7B7"/>
<path d="M163.727 141.615L129.251 139.611C129.149 139.604 129.053 139.559 128.983 139.485C128.913 139.411 128.873 139.313 128.872 139.211C128.871 139.162 128.881 139.114 128.9 139.069C128.919 139.024 128.947 138.983 128.983 138.949C129.018 138.916 129.061 138.89 129.107 138.874C129.153 138.857 129.202 138.85 129.251 138.853L163.727 140.858C163.829 140.865 163.925 140.91 163.995 140.984C164.065 141.058 164.105 141.156 164.106 141.258C164.107 141.307 164.097 141.355 164.078 141.4C164.059 141.445 164.03 141.486 163.995 141.519C163.959 141.552 163.917 141.578 163.871 141.595C163.825 141.611 163.776 141.618 163.727 141.615Z" fill="#B7B7B7"/>
<path d="M163.727 144.412L129.251 142.405C129.149 142.398 129.053 142.353 128.983 142.278C128.913 142.204 128.873 142.107 128.872 142.005C128.871 141.956 128.881 141.907 128.9 141.863C128.919 141.818 128.948 141.777 128.983 141.744C129.019 141.71 129.061 141.685 129.107 141.668C129.153 141.652 129.202 141.645 129.251 141.648L163.727 143.66C163.829 143.667 163.925 143.712 163.995 143.786C164.065 143.86 164.105 143.958 164.106 144.06C164.106 144.109 164.096 144.156 164.077 144.201C164.057 144.245 164.029 144.285 163.993 144.318C163.958 144.351 163.916 144.377 163.87 144.393C163.824 144.409 163.776 144.416 163.727 144.412Z" fill="#B7B7B7"/>
<path d="M163.727 147.214L129.251 145.211C129.149 145.204 129.053 145.158 128.983 145.084C128.913 145.01 128.873 144.912 128.872 144.81C128.871 144.762 128.881 144.713 128.9 144.668C128.919 144.623 128.948 144.583 128.983 144.55C129.019 144.516 129.061 144.49 129.107 144.474C129.153 144.457 129.202 144.451 129.251 144.454L163.727 146.457C163.829 146.464 163.925 146.51 163.995 146.584C164.065 146.658 164.105 146.756 164.106 146.857C164.107 146.906 164.097 146.955 164.078 147C164.059 147.045 164.031 147.085 163.995 147.119C163.959 147.152 163.917 147.178 163.871 147.194C163.825 147.211 163.776 147.217 163.727 147.214Z" fill="#B7B7B7"/>
<path d="M163.727 150.005L129.251 148.002C129.149 147.995 129.053 147.949 128.983 147.875C128.913 147.801 128.873 147.703 128.872 147.601C128.871 147.552 128.881 147.503 128.9 147.459C128.919 147.414 128.948 147.373 128.983 147.34C129.019 147.306 129.061 147.28 129.107 147.264C129.153 147.248 129.202 147.241 129.251 147.244L163.727 149.248C163.829 149.256 163.925 149.301 163.995 149.375C164.065 149.449 164.105 149.547 164.106 149.649C164.107 149.698 164.097 149.746 164.078 149.791C164.059 149.836 164.03 149.876 163.995 149.91C163.959 149.943 163.917 149.969 163.871 149.985C163.825 150.002 163.776 150.009 163.727 150.005Z" fill="#B7B7B7"/>
<path d="M163.727 152.804L129.251 150.8C129.149 150.793 129.053 150.748 128.983 150.674C128.913 150.599 128.873 150.502 128.872 150.4C128.871 150.351 128.881 150.303 128.9 150.258C128.919 150.213 128.948 150.172 128.983 150.139C129.019 150.105 129.061 150.08 129.107 150.063C129.153 150.047 129.202 150.04 129.251 150.043L163.727 152.046C163.829 152.054 163.925 152.099 163.995 152.173C164.065 152.248 164.105 152.346 164.106 152.448C164.107 152.497 164.097 152.545 164.078 152.59C164.059 152.635 164.03 152.675 163.995 152.709C163.959 152.742 163.917 152.768 163.871 152.784C163.825 152.801 163.776 152.808 163.727 152.804Z" fill="#B7B7B7"/>
<path d="M199.284 99.6298L128.769 95.0297C128.457 95.0095 128.164 94.8715 127.95 94.6438C127.736 94.416 127.617 94.1156 127.616 93.8033V90.2958C127.616 90.1276 127.651 89.9612 127.718 89.8069C127.785 89.6526 127.883 89.5137 128.006 89.3988C128.129 89.2838 128.274 89.1952 128.433 89.1386C128.591 89.0819 128.76 89.0584 128.928 89.0694L199.444 93.6695C199.756 93.6897 200.049 93.8277 200.263 94.0554C200.477 94.2832 200.596 94.5836 200.596 94.8959V98.4034C200.596 98.5716 200.561 98.738 200.494 98.8923C200.428 99.0466 200.329 99.1855 200.207 99.3004C200.084 99.4154 199.938 99.504 199.78 99.5606C199.621 99.6173 199.452 99.6408 199.284 99.6298Z" fill="url(#paint71_linear_531_56810)"/>
<path d="M141.832 73.4888V94.6817C141.832 94.9995 141.765 95.3137 141.636 95.6042C141.506 95.8947 141.318 96.1549 141.082 96.3681C140.846 96.5814 140.567 96.7429 140.265 96.8423C139.963 96.9417 139.643 96.9767 139.326 96.9452L122.123 95.2254L141.832 73.4888Z" fill="url(#paint72_linear_531_56810)"/>
<g opacity="0.2">
<path opacity="0.04" d="M198.145 140.069C198.952 129.074 181.314 118.824 158.748 117.174C136.183 115.524 117.236 123.099 116.428 134.094C115.621 145.089 133.26 155.34 155.826 156.99C178.391 158.64 197.338 151.064 198.145 140.069Z" fill="#4A0101"/>
<path opacity="0.08" d="M197.657 139.868C198.444 129.146 181.243 119.15 159.237 117.541C137.231 115.932 118.754 123.32 117.967 134.042C117.18 144.764 134.381 154.76 156.387 156.369C178.393 157.978 196.87 150.59 197.657 139.868Z" fill="#480202"/>
<path opacity="0.12" d="M197.168 139.666C197.935 129.217 181.172 119.475 159.726 117.907C138.28 116.339 120.272 123.538 119.505 133.988C118.738 144.437 135.502 154.18 156.948 155.748C178.394 157.316 196.401 150.116 197.168 139.666Z" fill="#460303"/>
<path opacity="0.15" d="M196.681 139.466C197.428 129.289 181.101 119.801 160.215 118.274C139.328 116.747 121.791 123.759 121.044 133.935C120.297 144.112 136.623 153.6 157.51 155.127C178.396 156.654 195.934 149.642 196.681 139.466Z" fill="#440404"/>
<path opacity="0.19" d="M196.192 139.266C196.919 129.362 181.03 120.128 160.704 118.642C140.377 117.156 123.309 123.98 122.582 133.884C121.855 143.788 137.744 153.022 158.071 154.508C178.398 155.994 195.465 149.17 196.192 139.266Z" fill="#420505"/>
<path opacity="0.23" d="M195.704 139.063C196.411 129.432 180.959 120.452 161.192 119.007C141.425 117.562 124.828 124.198 124.121 133.829C123.414 143.46 138.865 152.439 158.632 153.885C178.399 155.33 194.997 148.694 195.704 139.063Z" fill="#400606"/>
<path opacity="0.27" d="M195.215 138.861C195.902 129.502 180.888 120.777 161.68 119.372C142.473 117.968 126.346 124.416 125.659 133.775C124.972 143.134 139.985 151.859 159.193 153.264C178.4 154.668 194.528 148.22 195.215 138.861Z" fill="#3E0606"/>
<path opacity="0.31" d="M194.729 138.66C195.395 129.574 180.819 121.103 162.171 119.74C143.524 118.376 127.866 124.637 127.199 133.723C126.532 142.809 141.109 151.279 159.756 152.643C178.404 154.006 194.062 147.746 194.729 138.66Z" fill="#3C0707"/>
<path opacity="0.35" d="M194.24 138.46C194.886 129.647 180.748 121.43 162.66 120.108C144.572 118.785 129.384 124.858 128.737 133.671C128.09 142.485 142.229 150.702 160.317 152.024C178.405 153.347 193.593 147.274 194.24 138.46Z" fill="#3A0808"/>
<path opacity="0.38" d="M193.751 138.257C194.378 129.717 180.677 121.754 163.148 120.473C145.62 119.191 130.902 125.076 130.275 133.616C129.648 142.157 143.35 150.119 160.878 151.401C178.406 152.683 193.124 146.798 193.751 138.257Z" fill="#380909"/>
<path opacity="0.42" d="M193.263 138.057C193.869 129.789 180.606 122.081 163.637 120.84C146.668 119.6 132.42 125.296 131.814 133.564C131.207 141.831 144.471 149.539 161.439 150.78C178.408 152.021 192.656 146.324 193.263 138.057Z" fill="#360A0A"/>
<path opacity="0.46" d="M192.775 137.855C193.362 129.859 180.535 122.405 164.126 121.206C147.717 120.006 133.939 125.515 133.353 133.51C132.766 141.505 145.592 148.959 162.001 150.159C178.41 151.359 192.188 145.85 192.775 137.855Z" fill="#340B0B"/>
<path opacity="0.5" d="M192.286 137.654C192.853 129.932 180.464 122.732 164.615 121.573C148.766 120.414 135.458 125.735 134.891 133.457C134.324 141.18 146.713 148.379 162.562 149.538C178.412 150.697 191.719 145.376 192.286 137.654Z" fill="#330C0C"/>
<path opacity="0.54" d="M191.655 136.335C192.179 128.865 180.175 121.942 164.845 120.871C149.514 119.8 136.662 124.987 136.138 132.457C135.614 139.927 147.617 146.85 162.947 147.921C178.278 148.992 191.131 143.805 191.655 136.335Z" fill="#310D0D"/>
<path opacity="0.58" d="M191.311 137.251C191.838 130.074 180.324 123.383 165.594 122.306C150.864 121.229 138.496 126.174 137.969 133.351C137.442 140.528 148.956 147.219 163.686 148.296C178.416 149.373 190.784 144.428 191.311 137.251Z" fill="#2F0E0E"/>
<path opacity="0.62" d="M190.822 137.049C191.329 130.145 180.253 123.708 166.082 122.672C151.912 121.635 140.014 126.393 139.507 133.297C139 140.202 150.077 146.639 164.247 147.675C178.417 148.711 190.315 143.954 190.822 137.049Z" fill="#2D0F0F"/>
<path opacity="0.65" d="M190.177 135.739C190.643 129.089 179.958 122.926 166.311 121.973C152.664 121.019 141.223 125.637 140.757 132.286C140.29 138.936 150.975 145.099 164.622 146.052C178.27 147.006 189.711 142.388 190.177 135.739Z" fill="#2B1010"/>
<path opacity="0.69" d="M189.845 136.647C190.312 130.287 180.111 124.359 167.06 123.404C154.009 122.45 143.051 126.832 142.584 133.191C142.117 139.55 152.318 145.479 165.369 146.433C178.42 147.387 189.378 143.006 189.845 136.647Z" fill="#291111"/>
<path opacity="0.73" d="M189.357 136.446C189.804 130.359 180.04 124.685 167.549 123.772C155.058 122.859 144.569 127.052 144.123 133.138C143.676 139.225 153.44 144.899 165.931 145.812C178.422 146.725 188.911 142.532 189.357 136.446Z" fill="#271212"/>
<path opacity="0.77" d="M188.869 136.244C189.296 130.43 179.969 125.01 168.038 124.137C156.106 123.265 146.088 127.271 145.661 133.085C145.234 138.899 154.561 144.319 166.492 145.191C178.424 146.064 188.442 142.058 188.869 136.244Z" fill="#251212"/>
<path opacity="0.81" d="M188.205 134.941C188.595 129.385 179.667 124.236 168.265 123.439C156.862 122.643 147.303 126.501 146.913 132.056C146.524 137.612 155.451 142.762 166.854 143.558C178.256 144.355 187.815 140.497 188.205 134.941Z" fill="#231313"/>
<path opacity="0.85" d="M187.892 135.84C188.278 130.572 179.827 125.661 169.015 124.87C158.202 124.08 149.124 127.709 148.737 132.977C148.35 138.245 156.802 143.156 167.614 143.947C178.426 144.738 187.505 141.108 187.892 135.84Z" fill="#211414"/>
<path opacity="0.88" d="M187.405 135.64C187.772 130.645 179.758 125.987 169.506 125.238C159.253 124.488 150.644 127.93 150.278 132.926C149.911 137.921 157.925 142.579 168.178 143.328C178.43 144.078 187.039 140.636 187.405 135.64Z" fill="#1F1515"/>
<path opacity="0.92" d="M186.916 135.439C187.263 130.717 179.687 126.314 169.994 125.605C160.301 124.897 152.162 128.15 151.816 132.873C151.469 137.596 159.045 141.999 168.738 142.707C178.431 143.416 186.57 140.162 186.916 135.439Z" fill="#1D1616"/>
<path opacity="0.96" d="M186.428 135.238C186.755 130.787 179.616 126.638 170.482 125.971C161.349 125.303 153.681 128.369 153.354 132.819C153.027 137.27 160.166 141.419 169.3 142.086C178.433 142.754 186.101 139.688 186.428 135.238Z" fill="#1B1717"/>
<path d="M185.94 135.037C186.247 130.859 179.545 126.965 170.972 126.338C162.398 125.711 155.199 128.589 154.893 132.767C154.586 136.944 161.288 140.839 169.861 141.465C178.435 142.092 185.633 139.214 185.94 135.037Z" fill="#191818"/>
</g>
<path d="M127 188.684L204.375 196.038L206.471 195.848L207.165 195.401L204.633 195.11C187.597 193.998 187.393 152.17 187.972 135.749C188.035 133.99 187.414 132.274 186.241 130.96C185.067 129.646 183.431 128.835 181.672 128.695L143.458 125.628L114.911 123.343C114.097 123.278 113.277 123.377 112.502 123.636C111.727 123.895 111.013 124.308 110.402 124.849C109.791 125.391 109.296 126.05 108.948 126.788C108.599 127.525 108.403 128.326 108.372 129.141C107.755 145.998 107.913 190.784 127 188.684Z" fill="url(#paint73_linear_531_56810)"/>
<path d="M125.232 189.592L202.861 196.014C185.825 194.901 185.62 153.074 186.205 136.652C186.267 134.893 185.647 133.178 184.474 131.864C183.3 130.55 181.664 129.738 179.906 129.598L141.692 126.532L113.145 124.248C112.33 124.182 111.511 124.281 110.736 124.54C109.961 124.798 109.247 125.211 108.636 125.752C108.025 126.294 107.53 126.953 107.181 127.691C106.832 128.429 106.637 129.229 106.606 130.044C105.989 146.906 106.148 191.693 125.232 189.592Z" fill="url(#paint74_linear_531_56810)"/>
<path opacity="0.53" d="M185.723 136.93C185.786 135.171 185.165 133.455 183.992 132.141C182.818 130.827 181.182 130.015 179.423 129.876L141.209 126.809L112.662 124.527C111.523 124.436 110.381 124.67 109.371 125.202C110.488 124.477 111.814 124.142 113.142 124.25L141.689 126.534L179.903 129.601C181.661 129.74 183.297 130.552 184.471 131.866C185.644 133.18 186.264 134.895 186.202 136.654C185.622 153.076 185.828 194.903 202.858 196.016L199.767 195.761C185.331 190.727 185.175 152.464 185.723 136.93Z" fill="url(#paint75_linear_531_56810)"/>
<g opacity="0.3">
<path opacity="0.04" d="M168.618 55.966C170.397 48.664 164.67 41.0042 155.826 38.8573C146.981 36.7104 138.369 40.8895 136.59 48.1915C134.81 55.4935 140.537 63.1533 149.382 65.3002C158.226 67.4471 166.838 63.268 168.618 55.966Z" fill="#4A0101"/>
<path opacity="0.08" d="M168.22 55.8688C169.955 48.748 164.37 41.2783 155.746 39.1848C147.121 37.0913 138.723 41.1667 136.988 48.2875C135.252 55.4083 140.837 62.8779 149.462 64.9715C158.086 67.065 166.484 62.9896 168.22 55.8688Z" fill="#480202"/>
<path opacity="0.12" d="M167.822 55.7743C169.514 48.8347 164.071 41.5551 155.665 39.5148C147.26 37.4745 139.076 41.4461 137.384 48.3857C135.693 55.3253 141.136 62.6049 149.541 64.6452C157.946 66.6855 166.131 62.7139 167.822 55.7743Z" fill="#460303"/>
<path opacity="0.15" d="M167.425 55.6775C169.072 48.9192 163.771 41.8296 155.585 39.8425C147.399 37.8554 139.428 41.7233 137.781 48.4817C136.134 55.24 141.435 62.3296 149.621 64.3167C157.807 66.3038 165.778 62.4359 167.425 55.6775Z" fill="#440404"/>
<path opacity="0.19" d="M167.029 55.5808C168.632 49.0037 163.473 42.1041 155.506 40.1703C147.539 38.2364 139.781 42.0005 138.179 48.5776C136.576 55.1548 141.735 62.0543 149.702 63.9882C157.668 65.922 165.426 62.1579 167.029 55.5808Z" fill="#420505"/>
<path opacity="0.23" d="M166.632 55.4853C168.191 49.0888 163.174 42.3789 155.426 40.4982C147.679 38.6176 140.134 42.2784 138.576 48.6748C137.017 55.0713 142.034 61.7813 149.781 63.6619C157.529 65.5426 165.073 61.8818 166.632 55.4853Z" fill="#400606"/>
<path opacity="0.27" d="M166.234 55.388C167.748 49.1728 162.874 42.653 155.346 40.8257C147.818 38.9984 140.488 42.5556 138.974 48.7708C137.459 54.9861 142.333 61.5059 149.861 63.3332C157.389 65.1605 164.719 61.6033 166.234 55.388Z" fill="#3E0606"/>
<path opacity="0.31" d="M165.837 55.2913C167.307 49.2572 162.575 42.9275 155.266 41.1534C147.958 39.3794 140.841 42.8327 139.37 48.8668C137.9 54.9008 142.633 61.2306 149.941 63.0047C157.25 64.7787 164.366 61.3253 165.837 55.2913Z" fill="#3C0707"/>
<path opacity="0.35" d="M165.44 55.1946C166.866 49.3417 162.275 43.2021 155.186 41.4812C148.097 39.7603 141.194 43.11 139.767 48.9628C138.341 54.8156 142.932 60.9553 150.021 62.6762C157.11 64.397 164.013 61.0474 165.44 55.1946Z" fill="#3A0808"/>
<path opacity="0.38" d="M165.043 55.099C166.425 49.4269 161.976 43.4768 155.106 41.8091C148.236 40.1415 141.547 43.3878 140.164 49.06C138.782 54.7322 143.231 60.6822 150.101 62.3499C156.971 64.0175 163.66 60.7712 165.043 55.099Z" fill="#380909"/>
<path opacity="0.42" d="M164.646 55.0023C165.984 49.5114 161.677 43.7513 155.026 42.1369C148.375 40.5225 141.899 43.665 140.561 49.156C139.223 54.6469 143.53 60.407 150.18 62.0214C156.831 63.6358 163.307 60.4933 164.646 55.0023Z" fill="#360A0A"/>
<path opacity="0.46" d="M164.248 54.9051C165.542 49.5953 161.377 44.0254 154.946 42.4644C148.515 40.9033 142.253 43.9422 140.959 49.2519C139.665 54.5617 143.829 60.1316 150.26 61.6926C156.691 63.2537 162.954 60.2148 164.248 54.9051Z" fill="#340B0B"/>
<path opacity="0.5" d="M163.851 54.8083C165.101 49.6798 161.079 44.3 154.867 42.7921C148.655 41.2843 142.606 44.2194 141.356 49.3479C140.107 54.4764 144.129 59.8563 150.341 61.3641C156.553 62.872 162.601 59.9368 163.851 54.8083Z" fill="#330C0C"/>
<path opacity="0.54" d="M163.454 54.7138C164.66 49.7665 160.779 44.5767 154.787 43.1221C148.794 41.6675 142.959 44.4988 141.753 49.4461C140.548 54.3934 144.428 59.5832 150.421 61.0379C156.413 62.4925 162.248 59.6611 163.454 54.7138Z" fill="#310D0D"/>
<path opacity="0.58" d="M163.057 54.6161C164.219 49.8494 160.48 44.8492 154.707 43.4478C148.934 42.0464 143.312 44.7745 142.15 49.5411C140.989 54.3077 144.727 59.3079 150.5 60.7094C156.274 62.1108 161.895 59.3827 163.057 54.6161Z" fill="#2F0E0E"/>
<path opacity="0.62" d="M162.66 54.5193C163.777 49.9339 160.181 45.1238 154.627 43.7756C149.073 42.4274 143.665 45.0517 142.547 49.6371C141.43 54.2225 145.026 59.0327 150.58 60.3809C156.134 61.729 161.543 59.1048 162.66 54.5193Z" fill="#2D0F0F"/>
<path opacity="0.65" d="M162.262 54.4243C163.335 50.0201 159.881 45.4001 154.547 44.1053C149.213 42.8104 144.018 45.3311 142.945 49.7353C141.872 54.1395 145.326 58.7595 150.66 60.0543C155.994 61.3492 161.189 58.8285 162.262 54.4243Z" fill="#2B1010"/>
<path opacity="0.69" d="M161.865 54.3276C162.894 50.1046 159.582 45.6746 154.467 44.433C149.352 43.1914 144.371 45.6083 143.342 49.8313C142.313 54.0543 145.625 58.4842 150.74 59.7258C155.855 60.9675 160.836 58.5506 161.865 54.3276Z" fill="#291111"/>
<path opacity="0.73" d="M161.468 54.2308C162.453 50.1891 159.283 45.9492 154.387 44.7608C149.491 43.5724 144.724 45.8855 143.739 49.9272C142.754 53.969 145.925 58.2089 150.82 59.3973C155.716 60.5857 160.483 58.2726 161.468 54.2308Z" fill="#271212"/>
<path opacity="0.77" d="M161.071 54.1353C162.012 50.2742 158.984 46.2239 154.307 45.0887C149.631 43.9535 145.077 46.1633 144.136 50.0245C143.195 53.8856 146.223 57.9359 150.9 59.0711C155.576 60.2062 160.13 57.9964 161.071 54.1353Z" fill="#251212"/>
<path opacity="0.81" d="M160.674 54.0386C161.571 50.3587 158.685 46.4984 154.227 45.4165C149.77 44.3345 145.43 46.4405 144.533 50.1204C143.636 53.8003 146.523 57.6606 150.98 58.7426C155.437 59.8245 159.777 57.7185 160.674 54.0386Z" fill="#231313"/>
<path opacity="0.85" d="M160.275 53.9413C161.128 50.4427 158.384 46.7726 154.146 45.744C149.909 44.7153 145.783 46.7177 144.93 50.2164C144.077 53.7151 146.821 57.3852 151.059 58.4138C155.296 59.4424 159.423 57.44 160.275 53.9413Z" fill="#211414"/>
<path opacity="0.88" d="M159.879 53.8446C160.688 50.5272 158.086 47.0471 154.067 46.0717C150.049 45.0963 146.136 46.9949 145.328 50.3124C144.519 53.6299 147.121 57.1099 151.14 58.0853C155.158 59.0607 159.071 57.1621 159.879 53.8446Z" fill="#1F1515"/>
<path opacity="0.92" d="M159.481 53.7479C160.245 50.6116 157.785 47.3216 153.986 46.3994C150.187 45.4773 146.488 47.2721 145.724 50.4084C144.959 53.5446 147.419 56.8346 151.218 57.7568C155.017 58.679 158.717 56.8841 159.481 53.7479Z" fill="#1D1616"/>
<path opacity="0.96" d="M159.085 53.6524C159.805 50.6968 157.487 47.5964 153.908 46.7274C150.328 45.8584 146.842 47.55 146.122 50.5056C145.402 53.4612 147.72 56.5616 151.299 57.4305C154.879 58.2995 158.365 56.6079 159.085 53.6524Z" fill="#1B1717"/>
<path d="M158.688 53.5556C159.364 50.7812 157.188 47.8709 153.827 47.0552C150.467 46.2394 147.195 47.8272 146.519 50.6016C145.842 53.3759 148.019 56.2863 151.379 57.102C154.74 57.9178 158.012 56.33 158.688 53.5556Z" fill="#191818"/>
</g>
<path d="M166.051 17.5265L163.004 17.0037C161.465 16.7411 159.897 16.6838 158.343 16.8333C157.952 16.871 157.565 16.9232 157.181 16.9849C157.064 17.0027 156.947 17.0257 156.83 17.0466C156.558 17.0947 156.287 17.1491 156.017 17.2097C155.948 17.2254 155.879 17.2348 155.808 17.2515C155.764 17.262 155.722 17.2777 155.677 17.2881C155.202 17.4042 154.734 17.5359 154.27 17.6875C154.193 17.7126 154.117 17.7408 154.041 17.7669C153.577 17.9248 153.12 18.0973 152.67 18.2897L152.603 18.3169C152.143 18.5155 151.694 18.7351 151.25 18.9692C151.169 19.0111 151.088 19.0529 151.008 19.0968C150.581 19.3282 150.161 19.5746 149.751 19.8359C149.719 19.8558 149.687 19.8725 149.656 19.8924C149.59 19.9342 149.527 19.9823 149.462 20.0252C149.24 20.1715 149.02 20.3224 148.804 20.4779C148.699 20.5521 148.594 20.6263 148.49 20.7037C148.252 20.88 148.018 21.0619 147.788 21.2494C147.719 21.3059 147.647 21.3592 147.578 21.4167C147.283 21.6613 146.994 21.9144 146.711 22.1757C146.643 22.2385 146.577 22.3043 146.51 22.3681C146.3 22.5709 146.083 22.7769 145.881 22.9891C145.843 23.0288 145.802 23.0644 145.764 23.1041C145.726 23.1438 145.667 23.2087 145.616 23.2662C145.416 23.4753 145.219 23.6938 145.027 23.9144C144.949 24.0032 144.87 24.09 144.795 24.1799C144.535 24.4852 144.282 24.7957 144.038 25.1146C144.021 25.1365 144.005 25.1595 143.989 25.1815C143.762 25.4805 143.543 25.7868 143.331 26.0973C143.26 26.2019 143.192 26.3064 143.121 26.411C142.959 26.657 142.801 26.9058 142.647 27.1574C142.606 27.2233 142.562 27.286 142.522 27.3529C142.501 27.3885 142.483 27.4261 142.462 27.4575C142.228 27.8558 142.002 28.2604 141.791 28.6723C141.753 28.7466 141.717 28.8218 141.686 28.8971C141.502 29.2641 141.327 29.6383 141.162 30.0168C141.123 30.1036 141.084 30.1904 141.047 30.2782C140.865 30.7079 140.696 31.1438 140.538 31.585C140.505 31.6791 140.475 31.7722 140.443 31.8663C140.308 32.2622 140.182 32.6629 140.066 33.0686C140.044 33.1438 140.021 33.2191 140 33.2954C139.875 33.752 139.765 34.2137 139.668 34.6807C139.646 34.7852 139.626 34.8898 139.606 35.0027C139.521 35.4376 139.445 35.8767 139.384 36.319C139.378 36.3691 139.369 36.4235 139.362 36.4695C139.3 36.9494 139.258 37.4334 139.223 37.9196C139.215 38.0356 139.209 38.1517 139.203 38.2677C139.177 38.7622 139.16 39.2588 139.167 39.7586C139.278 49.6603 145.655 57.3697 154.153 58.8344L157.2 59.3571C148.702 57.8934 142.325 50.183 142.214 40.2803C142.208 39.7805 142.224 39.2839 142.251 38.7894C142.256 38.6734 142.262 38.5573 142.27 38.4423C142.303 37.9551 142.347 37.4711 142.41 36.9912C142.416 36.941 142.425 36.8867 142.432 36.8407C142.493 36.3984 142.568 35.9604 142.653 35.5244C142.674 35.4198 142.694 35.3101 142.716 35.2034C142.814 34.7371 142.925 34.274 143.048 33.8182C143.069 33.7418 143.093 33.6666 143.114 33.5903C143.229 33.1853 143.354 32.7852 143.49 32.39C143.522 32.296 143.553 32.2008 143.586 32.1067C143.743 31.6655 143.913 31.2299 144.094 30.7999C144.131 30.7131 144.171 30.6263 144.208 30.5396C144.375 30.1611 144.549 29.7878 144.732 29.4198C144.77 29.3446 144.805 29.2693 144.843 29.1951C145.053 28.7821 145.28 28.3775 145.515 27.9802C145.574 27.8757 145.637 27.7774 145.699 27.676C145.853 27.423 146.011 27.1738 146.174 26.9285C146.242 26.8239 146.31 26.7194 146.383 26.6148C146.593 26.3012 146.815 25.999 147.041 25.7011L147.091 25.631C147.335 25.3122 147.59 25.0037 147.849 24.6964C147.925 24.6065 148.003 24.5197 148.08 24.4319C148.273 24.2109 148.469 23.9945 148.67 23.7826C148.758 23.6896 148.846 23.5965 148.935 23.5056C149.144 23.2965 149.354 23.0874 149.563 22.8866C149.631 22.8218 149.698 22.7549 149.767 22.6922C150.046 22.4308 150.335 22.1778 150.634 21.9332C150.703 21.8757 150.775 21.8213 150.843 21.7648C151.073 21.5788 151.305 21.3968 151.542 21.2212C151.647 21.1438 151.752 21.0686 151.856 20.9933C152.072 20.8393 152.29 20.6894 152.511 20.5437C152.607 20.48 152.705 20.4151 152.803 20.3524C153.213 20.091 153.632 19.8447 154.06 19.6133L154.303 19.4857C154.748 19.2536 155.197 19.032 155.657 18.8333L155.724 18.8061C156.173 18.6138 156.63 18.4423 157.093 18.2834L157.325 18.2029C157.787 18.0524 158.255 17.9196 158.73 17.8046C158.842 17.7764 158.956 17.7513 159.068 17.7251C159.337 17.6652 159.608 17.6112 159.879 17.5631C159.997 17.5422 160.114 17.5192 160.231 17.5003C160.616 17.4397 161.002 17.3864 161.393 17.3498C162.181 17.2744 162.974 17.2514 163.765 17.2808C164.533 17.3094 165.298 17.3893 166.055 17.5202L166.051 17.5265Z" fill="url(#paint76_linear_531_56810)"/>
<path d="M161.39 17.3554C172.107 16.3424 180.908 24.9623 181.039 36.609C181.17 48.2556 172.583 58.5138 161.869 59.5269C151.155 60.54 142.345 51.9273 142.214 40.2796C142.083 28.632 150.669 18.3696 161.39 17.3554Z" fill="url(#paint77_linear_531_56810)"/>
<path d="M170.596 33.4718C170.454 33.4477 170.31 33.4424 170.166 33.4561L166.585 33.7949C166.44 33.8092 166.294 33.8039 166.151 33.7792L169.198 34.3019C169.342 34.3265 169.487 34.3321 169.632 34.3187L173.214 33.9799C173.357 33.9656 173.501 33.9709 173.643 33.9956L170.596 33.4718Z" fill="url(#paint78_linear_531_56810)"/>
<path d="M163.344 26.3718C163.201 26.347 163.055 26.3418 162.911 26.3561L159.445 26.6833C159.367 26.6909 159.289 26.7039 159.212 26.722C159.187 26.7283 159.165 26.7387 159.14 26.746C159.098 26.7575 159.057 26.7722 159.016 26.7868C158.95 26.8117 158.884 26.8403 158.821 26.8725C158.782 26.8914 158.744 26.9112 158.706 26.9332C158.686 26.9447 158.666 26.953 158.647 26.9656C158.628 26.9781 158.602 27.0043 158.578 27.022C158.498 27.0785 158.422 27.1407 158.351 27.2081C158.331 27.228 158.306 27.2405 158.287 27.2615C158.268 27.2824 158.264 27.2939 158.252 27.3085C158.167 27.4 158.092 27.499 158.025 27.6044C158.015 27.6211 157.999 27.6347 157.989 27.6525L157.98 27.6681C157.969 27.688 157.961 27.71 157.949 27.7298C157.905 27.8111 157.866 27.8949 157.832 27.9807C157.819 28.0163 157.807 28.0508 157.795 28.0853C157.769 28.1648 157.747 28.2458 157.73 28.3278C157.723 28.3634 157.714 28.3979 157.708 28.4324C157.689 28.5509 157.679 28.6709 157.68 28.791L157.724 32.6875C157.724 32.8073 157.714 32.9269 157.694 33.045C157.694 33.0806 157.68 33.1151 157.672 33.1496C157.656 33.2317 157.634 33.3127 157.608 33.3921C157.596 33.4277 157.584 33.4632 157.571 33.4967C157.536 33.5849 157.495 33.6708 157.449 33.7539C157.44 33.7716 157.432 33.7915 157.422 33.8082C157.413 33.825 157.394 33.8459 157.381 33.8657C157.314 33.9738 157.236 34.0752 157.15 34.1689C157.118 34.2034 157.085 34.2358 157.051 34.2735C156.979 34.3419 156.903 34.4052 156.822 34.4627C156.779 34.493 156.737 34.5244 156.692 34.5505C156.655 34.5733 156.616 34.5939 156.577 34.6122C156.513 34.6447 156.448 34.673 156.381 34.6969C156.34 34.713 156.298 34.727 156.256 34.7387C156.157 34.7686 156.055 34.7896 155.951 34.8014L152.37 35.1391C152.29 35.1469 152.212 35.1602 152.134 35.1789C152.11 35.1789 152.087 35.1956 152.063 35.2019C152.02 35.2144 151.979 35.228 151.938 35.2437C151.871 35.2678 151.804 35.2961 151.74 35.3284C151.702 35.3482 151.664 35.3681 151.626 35.3901C151.606 35.4016 151.584 35.4099 151.565 35.4225C151.546 35.435 151.52 35.4622 151.496 35.4789C151.417 35.5361 151.341 35.5986 151.27 35.6661C151.25 35.6849 151.226 35.6985 151.206 35.7183C151.186 35.7382 151.183 35.7518 151.17 35.7654C151.087 35.8566 151.012 35.9549 150.946 36.0592C150.935 36.0769 150.919 36.0905 150.909 36.1093L150.899 36.1261C150.888 36.147 150.878 36.1689 150.867 36.1898C150.823 36.2708 150.784 36.3542 150.75 36.4397C150.737 36.4753 150.725 36.5108 150.713 36.5443C150.686 36.6241 150.665 36.7054 150.649 36.7879C150.64 36.8234 150.632 36.8579 150.627 36.8924C150.607 37.0113 150.597 37.1316 150.597 37.252L150.64 41.0158C150.65 41.9264 151.239 42.6425 152.025 42.7784L155.072 43.3012C154.286 43.1663 153.698 42.4502 153.688 41.5385L153.645 37.7748C153.644 37.654 153.654 37.5333 153.674 37.4141C153.674 37.3785 153.688 37.343 153.695 37.3095C153.712 37.2273 153.734 37.1459 153.76 37.0659C153.772 37.0304 153.784 36.9938 153.798 36.9614C153.831 36.8755 153.87 36.7917 153.914 36.7105C153.925 36.6896 153.935 36.6676 153.946 36.6478C153.958 36.6279 153.979 36.6038 153.994 36.5808C154.06 36.4768 154.134 36.3786 154.217 36.2871C154.249 36.2515 154.284 36.2191 154.321 36.1825C154.392 36.1151 154.468 36.0529 154.548 35.9964C154.591 35.9661 154.633 35.9337 154.678 35.9065C154.723 35.8793 154.754 35.8647 154.793 35.8459C154.857 35.8135 154.922 35.7849 154.99 35.7601C155.031 35.7455 155.071 35.7309 155.114 35.7194C155.214 35.6889 155.317 35.6679 155.421 35.6566L159.002 35.3179C159.081 35.3109 159.159 35.298 159.235 35.2792C159.259 35.2792 159.283 35.2625 159.307 35.2552C159.35 35.2437 159.39 35.229 159.431 35.2144C159.499 35.1903 159.564 35.162 159.628 35.1297C159.667 35.1099 159.706 35.09 159.742 35.068C159.762 35.0565 159.784 35.0482 159.804 35.0356C159.824 35.0231 159.848 34.9959 159.872 34.9792C159.953 34.9219 160.029 34.8586 160.101 34.7899C160.122 34.7711 160.146 34.7575 160.166 34.7377C160.185 34.7178 160.188 34.7053 160.201 34.6906C160.287 34.5964 160.364 34.495 160.433 34.3874C160.442 34.3718 160.456 34.3603 160.465 34.3446C160.467 34.3398 160.47 34.3353 160.473 34.331C160.482 34.3132 160.49 34.2944 160.5 34.2766C160.546 34.1931 160.586 34.1069 160.621 34.0184C160.635 33.9839 160.645 33.9494 160.658 33.9138C160.684 33.8356 160.707 33.756 160.725 33.6755C160.731 33.641 160.741 33.6065 160.746 33.5709C160.765 33.4523 160.775 33.3324 160.775 33.2123L160.731 29.3158C160.731 29.1961 160.74 29.0764 160.76 28.9583C160.766 28.9227 160.774 28.8872 160.782 28.8537C160.798 28.7713 160.82 28.69 160.846 28.6101C160.858 28.5746 160.871 28.539 160.884 28.5056C160.917 28.4195 160.956 28.3357 161 28.2547C161.012 28.2337 161.02 28.2128 161.032 28.193C161.043 28.1731 161.063 28.1501 161.077 28.1282C161.143 28.023 161.219 27.924 161.303 27.8323C161.335 27.7978 161.368 27.7654 161.408 27.733C161.479 27.6652 161.554 27.6027 161.634 27.5458C161.677 27.5155 161.718 27.4841 161.763 27.457C161.808 27.4298 161.838 27.4162 161.877 27.3963C161.941 27.3638 162.006 27.3356 162.073 27.3116C162.114 27.296 162.155 27.2824 162.197 27.2698C162.296 27.2398 162.398 27.2191 162.502 27.2081L165.963 26.8799C166.107 26.8664 166.252 26.872 166.395 26.8966L163.344 26.3718Z" fill="url(#paint79_linear_531_56810)"/>
<path d="M160.944 48.6545L160.9 44.758C160.889 43.8474 160.297 43.1375 159.514 43.0026L156.467 42.4799C157.25 42.6148 157.842 43.3247 157.852 44.2363L157.896 48.1328C157.907 49.0434 158.495 49.7543 159.277 49.8892L162.324 50.412C161.542 50.276 160.954 49.5662 160.944 48.6545Z" fill="url(#paint80_linear_531_56810)"/>
<path d="M165.962 26.8802C166.956 26.7871 167.765 27.5807 167.778 28.6523L167.822 32.5488C167.833 33.6204 168.644 34.4139 169.637 34.3209L173.219 33.9821C174.205 33.888 175.023 34.6815 175.034 35.7594L175.077 39.5232C175.089 40.5948 174.291 41.5483 173.305 41.6413L169.724 41.98C168.731 42.0741 167.943 43.0192 167.952 44.0909L167.996 47.9874C168.008 49.059 167.217 50.0041 166.224 50.0982L162.758 50.4254C161.771 50.5185 160.962 49.7249 160.949 48.6481L160.905 44.7516C160.892 43.68 160.076 42.8865 159.09 42.9806L155.508 43.3182C154.515 43.4123 153.704 42.6115 153.693 41.5409L153.65 37.7772C153.638 36.6983 154.429 35.7532 155.422 35.6591L159.003 35.3203C159.989 35.2273 160.783 34.2811 160.775 33.2095L160.731 29.313C160.719 28.2414 161.509 27.2963 162.496 27.2032L165.962 26.8802Z" fill="url(#paint81_linear_531_56810)"/>
<path d="M142.632 40.4611C142.498 28.8145 151.088 18.55 161.811 17.5369C164.616 17.2599 167.446 17.6742 170.053 18.7434C167.334 17.5411 164.349 17.0631 161.39 17.3561C150.668 18.3691 142.079 28.6336 142.211 40.2803C142.306 48.733 146.969 55.584 153.616 58.321C147.194 55.4721 142.725 48.7298 142.632 40.4611Z" fill="url(#paint82_linear_531_56810)"/>
<path d="M169.877 34.5216L173.458 34.1829C173.828 34.1468 174.198 34.2419 174.505 34.4516C174.339 34.282 174.137 34.1518 173.914 34.0708C173.691 33.9897 173.452 33.9598 173.216 33.9832L169.629 34.3219C169.259 34.3577 168.888 34.2626 168.581 34.0532C168.748 34.2234 168.951 34.3539 169.176 34.435C169.4 34.5161 169.64 34.5457 169.877 34.5216Z" fill="white"/>
<path d="M153.932 41.7475L153.89 37.9838C153.877 36.9049 154.668 35.9598 155.661 35.8657L159.243 35.528C160.228 35.4339 161.024 34.4825 161.014 33.4172L160.97 29.5207C160.959 28.4491 161.749 27.5029 162.736 27.4099L166.201 27.0826C166.571 27.0463 166.942 27.1411 167.249 27.3503C167.083 27.1811 166.882 27.0511 166.659 26.9697C166.437 26.8883 166.199 26.8576 165.963 26.8798L162.496 27.2081C161.51 27.3011 160.716 28.2462 160.731 29.3179L160.775 33.2143C160.787 34.286 159.99 35.2321 159.003 35.3252L155.417 35.6618C154.424 35.7559 153.636 36.701 153.645 37.78L153.688 41.5437C153.684 41.8389 153.752 42.1307 153.887 42.3938C154.021 42.6569 154.217 42.8836 154.459 43.0544C154.12 42.7033 153.931 42.2348 153.932 41.7475Z" fill="white"/>
<path d="M161.188 48.8542L161.144 44.9588C161.147 44.6646 161.079 44.3741 160.945 44.1122C160.811 43.8503 160.615 43.6249 160.374 43.4554C160.712 43.8048 160.9 44.2723 160.898 44.758L160.942 48.6545C160.938 48.9489 161.006 49.2397 161.14 49.502C161.274 49.7642 161.47 49.99 161.711 50.16C161.373 49.809 161.185 49.3407 161.188 48.8542Z" fill="white"/>
</g>
<defs>
<linearGradient id="paint0_linear_531_56810" x1="57.5113" y1="66.0968" x2="117.226" y2="145.909" gradientUnits="userSpaceOnUse">
<stop stop-color="#3ABAF9"/>
<stop offset="1" stop-color="#267EBD"/>
</linearGradient>
<linearGradient id="paint1_linear_531_56810" x1="95.1347" y1="182.39" x2="27.9805" y2="0.666576" gradientUnits="userSpaceOnUse">
<stop stop-color="#3ABAF9"/>
<stop offset="1" stop-color="#267EBD"/>
</linearGradient>
<linearGradient id="paint2_linear_531_56810" x1="148.774" y1="83.5953" x2="10.9672" y2="83.5953" gradientUnits="userSpaceOnUse">
<stop stop-color="#10569B"/>
<stop offset="1" stop-color="#267EBD"/>
</linearGradient>
<linearGradient id="paint3_linear_531_56810" x1="147.625" y1="87.8985" x2="11.2615" y2="87.8985" gradientUnits="userSpaceOnUse">
<stop stop-color="#D6D6D6"/>
<stop offset="1" stop-color="#E5E5E5"/>
</linearGradient>
<linearGradient id="paint4_linear_531_56810" x1="77.4779" y1="13.2905" x2="48.5198" y2="14.1524" gradientUnits="userSpaceOnUse">
<stop stop-color="#DD2F2F"/>
<stop offset="1" stop-color="#FF6757"/>
</linearGradient>
<linearGradient id="paint5_linear_531_56810" x1="61.6382" y1="24.8017" x2="65.5153" y2="8.92794" gradientUnits="userSpaceOnUse">
<stop stop-color="#DD2F2F"/>
<stop offset="1" stop-color="#FF6757"/>
</linearGradient>
<linearGradient id="paint6_linear_531_56810" x1="37.8683" y1="42.2886" x2="20.6666" y2="42.2886" gradientUnits="userSpaceOnUse">
<stop stop-color="#D6D6D6"/>
<stop offset="1" stop-color="#B2B2B2"/>
</linearGradient>
<linearGradient id="paint7_linear_531_56810" x1="26.3031" y1="202.125" x2="84.6177" y2="61.3756" gradientUnits="userSpaceOnUse">
<stop stop-color="#3ABAF9"/>
<stop offset="0.92" stop-color="white"/>
</linearGradient>
<linearGradient id="paint8_linear_531_56810" x1="42.0439" y1="117.891" x2="54.8755" y2="114.71" gradientUnits="userSpaceOnUse">
<stop stop-color="#3ABAF9"/>
<stop offset="1" stop-color="#267EBD"/>
</linearGradient>
<linearGradient id="paint9_linear_531_56810" x1="60.3884" y1="112.556" x2="118.858" y2="98.0611" gradientUnits="userSpaceOnUse">
<stop stop-color="#D6D6D6"/>
<stop offset="1" stop-color="#E5E5E5"/>
</linearGradient>
<linearGradient id="paint10_linear_531_56810" x1="61.1898" y1="115.789" x2="119.66" y2="101.294" gradientUnits="userSpaceOnUse">
<stop stop-color="#D6D6D6"/>
<stop offset="1" stop-color="#E5E5E5"/>
</linearGradient>
<linearGradient id="paint11_linear_531_56810" x1="61.9904" y1="119.018" x2="120.46" y2="104.523" gradientUnits="userSpaceOnUse">
<stop stop-color="#D6D6D6"/>
<stop offset="1" stop-color="#E5E5E5"/>
</linearGradient>
<linearGradient id="paint12_linear_531_56810" x1="46.8212" y1="135.069" x2="59.6521" y2="131.845" gradientUnits="userSpaceOnUse">
<stop stop-color="#3ABAF9"/>
<stop offset="1" stop-color="#267EBD"/>
</linearGradient>
<linearGradient id="paint13_linear_531_56810" x1="64.7288" y1="130.067" x2="123.199" y2="115.572" gradientUnits="userSpaceOnUse">
<stop stop-color="#D6D6D6"/>
<stop offset="1" stop-color="#E5E5E5"/>
</linearGradient>
<linearGradient id="paint14_linear_531_56810" x1="65.5301" y1="133.297" x2="124" y2="118.802" gradientUnits="userSpaceOnUse">
<stop stop-color="#D6D6D6"/>
<stop offset="1" stop-color="#E5E5E5"/>
</linearGradient>
<linearGradient id="paint15_linear_531_56810" x1="66.3314" y1="136.53" x2="124.8" y2="122.035" gradientUnits="userSpaceOnUse">
<stop stop-color="#D6D6D6"/>
<stop offset="1" stop-color="#E5E5E5"/>
</linearGradient>
<linearGradient id="paint16_linear_531_56810" x1="50.7243" y1="152.912" x2="63.5568" y2="149.73" gradientUnits="userSpaceOnUse">
<stop stop-color="#3ABAF9"/>
<stop offset="1" stop-color="#267EBD"/>
</linearGradient>
<linearGradient id="paint17_linear_531_56810" x1="69.07" y1="147.574" x2="127.539" y2="133.079" gradientUnits="userSpaceOnUse">
<stop stop-color="#D6D6D6"/>
<stop offset="1" stop-color="#E5E5E5"/>
</linearGradient>
<linearGradient id="paint18_linear_531_56810" x1="69.8709" y1="150.807" x2="128.34" y2="136.312" gradientUnits="userSpaceOnUse">
<stop stop-color="#D6D6D6"/>
<stop offset="1" stop-color="#E5E5E5"/>
</linearGradient>
<linearGradient id="paint19_linear_531_56810" x1="70.6718" y1="154.038" x2="129.141" y2="139.543" gradientUnits="userSpaceOnUse">
<stop stop-color="#D6D6D6"/>
<stop offset="1" stop-color="#E5E5E5"/>
</linearGradient>
<linearGradient id="paint20_linear_531_56810" x1="55.6165" y1="170.084" x2="68.4474" y2="166.86" gradientUnits="userSpaceOnUse">
<stop stop-color="#3ABAF9"/>
<stop offset="1" stop-color="#267EBD"/>
</linearGradient>
<linearGradient id="paint21_linear_531_56810" x1="73.4102" y1="165.083" x2="131.879" y2="150.589" gradientUnits="userSpaceOnUse">
<stop stop-color="#D6D6D6"/>
<stop offset="1" stop-color="#E5E5E5"/>
</linearGradient>
<linearGradient id="paint22_linear_531_56810" x1="74.2115" y1="168.315" x2="132.68" y2="153.82" gradientUnits="userSpaceOnUse">
<stop stop-color="#D6D6D6"/>
<stop offset="1" stop-color="#E5E5E5"/>
</linearGradient>
<linearGradient id="paint23_linear_531_56810" x1="75.0117" y1="171.547" x2="133.481" y2="157.052" gradientUnits="userSpaceOnUse">
<stop stop-color="#D6D6D6"/>
<stop offset="1" stop-color="#E5E5E5"/>
</linearGradient>
<linearGradient id="paint24_linear_531_56810" x1="75.8822" y1="82.6933" x2="78.2341" y2="82.086" gradientUnits="userSpaceOnUse">
<stop stop-color="#3ABAF9"/>
<stop offset="1" stop-color="#267EBD"/>
</linearGradient>
<linearGradient id="paint25_linear_531_56810" x1="42.5532" y1="98.2269" x2="34.4423" y2="63.1338" gradientUnits="userSpaceOnUse">
<stop stop-color="#3ABAF9"/>
<stop offset="1" stop-color="#267EBD"/>
</linearGradient>
<linearGradient id="paint26_linear_531_56810" x1="51.6587" y1="96.1225" x2="43.5478" y2="61.0294" gradientUnits="userSpaceOnUse">
<stop stop-color="#3ABAF9"/>
<stop offset="1" stop-color="#267EBD"/>
</linearGradient>
<linearGradient id="paint27_linear_531_56810" x1="60.7637" y1="94.0189" x2="52.6528" y2="58.9258" gradientUnits="userSpaceOnUse">
<stop stop-color="#3ABAF9"/>
<stop offset="1" stop-color="#267EBD"/>
</linearGradient>
<linearGradient id="paint28_linear_531_56810" x1="69.8692" y1="91.915" x2="61.7583" y2="56.8219" gradientUnits="userSpaceOnUse">
<stop stop-color="#3ABAF9"/>
<stop offset="1" stop-color="#267EBD"/>
</linearGradient>
<linearGradient id="paint29_linear_531_56810" x1="88.0797" y1="87.7059" x2="79.9688" y2="52.6128" gradientUnits="userSpaceOnUse">
<stop stop-color="#3ABAF9"/>
<stop offset="1" stop-color="#267EBD"/>
</linearGradient>
<linearGradient id="paint30_linear_531_56810" x1="97.1842" y1="85.6012" x2="89.0733" y2="50.5081" gradientUnits="userSpaceOnUse">
<stop stop-color="#3ABAF9"/>
<stop offset="1" stop-color="#267EBD"/>
</linearGradient>
<linearGradient id="paint31_linear_531_56810" x1="106.29" y1="83.4953" x2="98.1787" y2="48.4023" gradientUnits="userSpaceOnUse">
<stop stop-color="#3ABAF9"/>
<stop offset="1" stop-color="#267EBD"/>
</linearGradient>
<linearGradient id="paint32_linear_531_56810" x1="115.395" y1="81.3926" x2="107.284" y2="46.2995" gradientUnits="userSpaceOnUse">
<stop stop-color="#3ABAF9"/>
<stop offset="1" stop-color="#267EBD"/>
</linearGradient>
<linearGradient id="paint33_linear_531_56810" x1="181.755" y1="112.12" x2="196.915" y2="197.213" gradientUnits="userSpaceOnUse">
<stop stop-color="#CE8850"/>
<stop offset="1" stop-color="#844A1F"/>
</linearGradient>
<linearGradient id="paint34_linear_531_56810" x1="181.42" y1="106.144" x2="181.26" y2="181.097" gradientUnits="userSpaceOnUse">
<stop stop-color="#E4AD6E"/>
<stop offset="1" stop-color="#9B5D2E"/>
</linearGradient>
<linearGradient id="paint35_linear_531_56810" x1="182.021" y1="113.332" x2="144.023" y2="114.093" gradientUnits="userSpaceOnUse">
<stop stop-color="white"/>
<stop offset="1" stop-color="#F7D08B"/>
</linearGradient>
<linearGradient id="paint36_linear_531_56810" x1="221.619" y1="148.937" x2="191.72" y2="149.537" gradientUnits="userSpaceOnUse">
<stop stop-color="white"/>
<stop offset="1" stop-color="#F7D08B"/>
</linearGradient>
<linearGradient id="paint37_linear_531_56810" x1="172.371" y1="146.717" x2="168.904" y2="95.8742" gradientUnits="userSpaceOnUse">
<stop stop-color="#7B7B7B"/>
<stop offset="1" stop-color="#E5E5E5"/>
</linearGradient>
<linearGradient id="paint38_linear_531_56810" x1="164.352" y1="78.5749" x2="170.637" y2="142.746" gradientUnits="userSpaceOnUse">
<stop stop-color="#F8F8F8"/>
<stop offset="1" stop-color="#E5E5E5"/>
</linearGradient>
<linearGradient id="paint39_linear_531_56810" x1="134.009" y1="75.0224" x2="145.713" y2="90.8593" gradientUnits="userSpaceOnUse">
<stop stop-color="#7B7B7B"/>
<stop offset="1" stop-color="#E5E5E5"/>
</linearGradient>
<linearGradient id="paint40_linear_531_56810" x1="170.744" y1="101.28" x2="170.978" y2="98.6758" gradientUnits="userSpaceOnUse">
<stop stop-color="#7B7B7B"/>
<stop offset="1" stop-color="#E5E5E5"/>
</linearGradient>
<linearGradient id="paint41_linear_531_56810" x1="170.744" y1="108.023" x2="170.978" y2="105.419" gradientUnits="userSpaceOnUse">
<stop stop-color="#7B7B7B"/>
<stop offset="1" stop-color="#E5E5E5"/>
</linearGradient>
<linearGradient id="paint42_linear_531_56810" x1="170.744" y1="114.765" x2="170.978" y2="112.161" gradientUnits="userSpaceOnUse">
<stop stop-color="#7B7B7B"/>
<stop offset="1" stop-color="#E5E5E5"/>
</linearGradient>
<linearGradient id="paint43_linear_531_56810" x1="170.744" y1="121.506" x2="170.978" y2="118.902" gradientUnits="userSpaceOnUse">
<stop stop-color="#7B7B7B"/>
<stop offset="1" stop-color="#E5E5E5"/>
</linearGradient>
<linearGradient id="paint44_linear_531_56810" x1="170.744" y1="128.249" x2="170.978" y2="125.645" gradientUnits="userSpaceOnUse">
<stop stop-color="#7B7B7B"/>
<stop offset="1" stop-color="#E5E5E5"/>
</linearGradient>
<linearGradient id="paint45_linear_531_56810" x1="170.744" y1="134.991" x2="170.978" y2="132.386" gradientUnits="userSpaceOnUse">
<stop stop-color="#7B7B7B"/>
<stop offset="1" stop-color="#E5E5E5"/>
</linearGradient>
<linearGradient id="paint46_linear_531_56810" x1="170.744" y1="161.492" x2="172.669" y2="140.061" gradientUnits="userSpaceOnUse">
<stop stop-color="#7B7B7B"/>
<stop offset="1" stop-color="#E5E5E5"/>
</linearGradient>
<linearGradient id="paint47_linear_531_56810" x1="169.175" y1="148.446" x2="165.708" y2="97.6032" gradientUnits="userSpaceOnUse">
<stop stop-color="#7B7B7B"/>
<stop offset="1" stop-color="#E5E5E5"/>
</linearGradient>
<linearGradient id="paint48_linear_531_56810" x1="161.156" y1="80.3036" x2="167.44" y2="144.474" gradientUnits="userSpaceOnUse">
<stop stop-color="#F8F8F8"/>
<stop offset="1" stop-color="#E5E5E5"/>
</linearGradient>
<linearGradient id="paint49_linear_531_56810" x1="130.812" y1="76.75" x2="142.517" y2="92.5869" gradientUnits="userSpaceOnUse">
<stop stop-color="#7B7B7B"/>
<stop offset="1" stop-color="#E5E5E5"/>
</linearGradient>
<linearGradient id="paint50_linear_531_56810" x1="167.548" y1="103" x2="167.782" y2="100.396" gradientUnits="userSpaceOnUse">
<stop stop-color="#7B7B7B"/>
<stop offset="1" stop-color="#E5E5E5"/>
</linearGradient>
<linearGradient id="paint51_linear_531_56810" x1="167.548" y1="109.742" x2="167.782" y2="107.138" gradientUnits="userSpaceOnUse">
<stop stop-color="#7B7B7B"/>
<stop offset="1" stop-color="#E5E5E5"/>
</linearGradient>
<linearGradient id="paint52_linear_531_56810" x1="167.548" y1="116.485" x2="167.782" y2="113.881" gradientUnits="userSpaceOnUse">
<stop stop-color="#7B7B7B"/>
<stop offset="1" stop-color="#E5E5E5"/>
</linearGradient>
<linearGradient id="paint53_linear_531_56810" x1="167.548" y1="123.226" x2="167.782" y2="120.622" gradientUnits="userSpaceOnUse">
<stop stop-color="#7B7B7B"/>
<stop offset="1" stop-color="#E5E5E5"/>
</linearGradient>
<linearGradient id="paint54_linear_531_56810" x1="167.548" y1="129.968" x2="167.782" y2="127.364" gradientUnits="userSpaceOnUse">
<stop stop-color="#7B7B7B"/>
<stop offset="1" stop-color="#E5E5E5"/>
</linearGradient>
<linearGradient id="paint55_linear_531_56810" x1="167.548" y1="136.71" x2="167.782" y2="134.106" gradientUnits="userSpaceOnUse">
<stop stop-color="#7B7B7B"/>
<stop offset="1" stop-color="#E5E5E5"/>
</linearGradient>
<linearGradient id="paint56_linear_531_56810" x1="167.548" y1="163.211" x2="169.473" y2="141.78" gradientUnits="userSpaceOnUse">
<stop stop-color="#7B7B7B"/>
<stop offset="1" stop-color="#E5E5E5"/>
</linearGradient>
<linearGradient id="paint57_linear_531_56810" x1="165.979" y1="150.174" x2="162.512" y2="99.331" gradientUnits="userSpaceOnUse">
<stop stop-color="#7B7B7B"/>
<stop offset="1" stop-color="#E5E5E5"/>
</linearGradient>
<linearGradient id="paint58_linear_531_56810" x1="157.959" y1="82.0335" x2="164.244" y2="146.204" gradientUnits="userSpaceOnUse">
<stop stop-color="#F8F8F8"/>
<stop offset="1" stop-color="#E5E5E5"/>
</linearGradient>
<linearGradient id="paint59_linear_531_56810" x1="179.38" y1="128.96" x2="180.929" y2="103.099" gradientUnits="userSpaceOnUse">
<stop stop-color="#3ABAF9"/>
<stop offset="1" stop-color="#267EBD"/>
</linearGradient>
<linearGradient id="paint60_linear_531_56810" x1="188.514" y1="115.355" x2="189.194" y2="103.999" gradientUnits="userSpaceOnUse">
<stop stop-color="#BC2337"/>
<stop offset="1" stop-color="#ED6464"/>
</linearGradient>
<linearGradient id="paint61_linear_531_56810" x1="189.219" y1="121.611" x2="189.589" y2="115.42" gradientUnits="userSpaceOnUse">
<stop stop-color="#F4D41C"/>
<stop offset="1" stop-color="#E0A114"/>
</linearGradient>
<linearGradient id="paint62_linear_531_56810" x1="188.478" y1="126.464" x2="189.141" y2="115.393" gradientUnits="userSpaceOnUse">
<stop stop-color="#82FB7C"/>
<stop offset="1" stop-color="#0BA2B3"/>
</linearGradient>
<linearGradient id="paint63_linear_531_56810" x1="186.089" y1="127.094" x2="186.798" y2="115.253" gradientUnits="userSpaceOnUse">
<stop stop-color="#F4D41C"/>
<stop offset="1" stop-color="#E0A114"/>
</linearGradient>
<linearGradient id="paint64_linear_531_56810" x1="142.494" y1="103.255" x2="142.539" y2="102.499" gradientUnits="userSpaceOnUse">
<stop stop-color="#3ABAF9"/>
<stop offset="1" stop-color="#267EBD"/>
</linearGradient>
<linearGradient id="paint65_linear_531_56810" x1="179.38" y1="158.027" x2="180.929" y2="132.165" gradientUnits="userSpaceOnUse">
<stop stop-color="#3ABAF9"/>
<stop offset="1" stop-color="#267EBD"/>
</linearGradient>
<linearGradient id="paint66_linear_531_56810" x1="188.514" y1="144.423" x2="189.194" y2="133.066" gradientUnits="userSpaceOnUse">
<stop stop-color="#F4D41C"/>
<stop offset="1" stop-color="#E0A114"/>
</linearGradient>
<linearGradient id="paint67_linear_531_56810" x1="182.829" y1="142.212" x2="195.727" y2="142.212" gradientUnits="userSpaceOnUse">
<stop stop-color="#3ABAF9"/>
<stop offset="1" stop-color="#267EBD"/>
</linearGradient>
<linearGradient id="paint68_linear_531_56810" x1="189.219" y1="150.677" x2="189.59" y2="144.487" gradientUnits="userSpaceOnUse">
<stop stop-color="#BC2337"/>
<stop offset="1" stop-color="#ED6464"/>
</linearGradient>
<linearGradient id="paint69_linear_531_56810" x1="186.089" y1="156.16" x2="186.798" y2="144.32" gradientUnits="userSpaceOnUse">
<stop stop-color="#F4D41C"/>
<stop offset="1" stop-color="#E0A114"/>
</linearGradient>
<linearGradient id="paint70_linear_531_56810" x1="142.494" y1="132.322" x2="142.539" y2="131.567" gradientUnits="userSpaceOnUse">
<stop stop-color="#3ABAF9"/>
<stop offset="1" stop-color="#267EBD"/>
</linearGradient>
<linearGradient id="paint71_linear_531_56810" x1="127.618" y1="94.348" x2="200.596" y2="94.348" gradientUnits="userSpaceOnUse">
<stop stop-color="#3ABAF9"/>
<stop offset="1" stop-color="#267EBD"/>
</linearGradient>
<linearGradient id="paint72_linear_531_56810" x1="143.954" y1="94.6985" x2="132.57" y2="84.83" gradientUnits="userSpaceOnUse">
<stop stop-color="#7B7B7B"/>
<stop offset="1" stop-color="#E5E5E5"/>
</linearGradient>
<linearGradient id="paint73_linear_531_56810" x1="147.551" y1="118.213" x2="162.711" y2="203.307" gradientUnits="userSpaceOnUse">
<stop stop-color="#CE8850"/>
<stop offset="1" stop-color="#844A1F"/>
</linearGradient>
<linearGradient id="paint74_linear_531_56810" x1="202.124" y1="159.235" x2="106.836" y2="161.144" gradientUnits="userSpaceOnUse">
<stop stop-color="#E89E62"/>
<stop offset="1" stop-color="#F7D08B"/>
</linearGradient>
<linearGradient id="paint75_linear_531_56810" x1="188.081" y1="111.327" x2="166.899" y2="144.111" gradientUnits="userSpaceOnUse">
<stop stop-color="white"/>
<stop offset="1" stop-color="#F7D08B"/>
</linearGradient>
<linearGradient id="paint76_linear_531_56810" x1="146.816" y1="46.9976" x2="151.187" y2="23.1531" gradientUnits="userSpaceOnUse">
<stop stop-color="#1D3D6B"/>
<stop offset="1" stop-color="#267EBD"/>
</linearGradient>
<linearGradient id="paint77_linear_531_56810" x1="140.464" y1="39.9525" x2="179.12" y2="39.9525" gradientUnits="userSpaceOnUse">
<stop stop-color="#3ABAF9"/>
<stop offset="1" stop-color="#267EBD"/>
</linearGradient>
<linearGradient id="paint78_linear_531_56810" x1="164.298" y1="34.7858" x2="171.756" y2="34.7858" gradientUnits="userSpaceOnUse">
<stop stop-color="#7B7B7B"/>
<stop offset="1" stop-color="#E5E5E5"/>
</linearGradient>
<linearGradient id="paint79_linear_531_56810" x1="148.814" y1="35.8961" x2="164.536" y2="35.8961" gradientUnits="userSpaceOnUse">
<stop stop-color="#7B7B7B"/>
<stop offset="1" stop-color="#E5E5E5"/>
</linearGradient>
<linearGradient id="paint80_linear_531_56810" x1="154.657" y1="47.2898" x2="160.488" y2="47.2898" gradientUnits="userSpaceOnUse">
<stop stop-color="#7B7B7B"/>
<stop offset="1" stop-color="#E5E5E5"/>
</linearGradient>
<linearGradient id="paint81_linear_531_56810" x1="151.847" y1="39.8222" x2="173.177" y2="39.8222" gradientUnits="userSpaceOnUse">
<stop stop-color="#F8F8F8"/>
<stop offset="1" stop-color="#E5E5E5"/>
</linearGradient>
<linearGradient id="paint82_linear_531_56810" x1="140.463" y1="39.1649" x2="168.182" y2="39.1649" gradientUnits="userSpaceOnUse">
<stop stop-color="#3ABAF9"/>
<stop offset="1" stop-color="white"/>
</linearGradient>
<clipPath id="clip0_531_56810">
<rect width="227" height="200" fill="white"/>
</clipPath>
</defs>
</svg>
