<svg width="335" height="210" viewBox="0 0 335 210" fill="none" xmlns="http://www.w3.org/2000/svg">
<mask id="mask0_1281_1357" style="mask-type:alpha" maskUnits="userSpaceOnUse" x="0" y="0" width="335" height="210">
<rect width="335" height="210" rx="20" fill="#BCBCBC"/>
</mask>
<g mask="url(#mask0_1281_1357)">
<path opacity="0.18" d="M300.195 146.005H300.231L274.22 133.194C273.849 133.064 273.445 133.017 273.046 133.056C272.647 133.095 272.267 133.219 271.939 133.418C271.77 133.501 271.607 133.592 271.451 133.692L261.236 128.692C264.81 125.877 266.46 122.64 266.204 119.428C266.249 118.867 266.235 118.304 266.162 117.746C266.757 113.244 263.553 108.64 256.59 105.215C243.737 98.8934 222.694 98.8934 209.835 105.215C203.462 108.35 200.258 112.471 200.198 116.603V120.231C200.282 124.347 203.486 128.453 209.835 131.573C222.45 137.778 242.939 137.889 255.852 131.919C255.899 131.958 255.951 131.994 256.007 132.025L256.102 132.071L256.156 132.096L268.628 138.194C268.628 138.235 268.628 138.271 268.628 138.311C268.598 138.631 268.654 138.953 268.793 139.252C268.931 139.55 269.148 139.818 269.426 140.034L269.539 140.09C269.587 140.12 269.639 140.146 269.694 140.166L295.579 152.87V152.809C295.937 152.91 296.317 152.938 296.69 152.893C297.064 152.847 297.419 152.728 297.729 152.545C298.687 152.012 299.485 151.294 300.059 150.449C300.632 149.604 300.964 148.656 301.029 147.682C301.048 147.366 300.982 147.052 300.838 146.761C300.694 146.471 300.474 146.212 300.195 146.005Z" fill="#3D3D84"/>
<path opacity="0.18" d="M248.89 160.725L189.269 131.074C188.976 130.93 188.658 130.824 188.328 130.759V130.729C188.112 130.698 187.893 130.683 187.673 130.683C187.91 130.272 188.031 129.819 188.024 129.362L186.911 70.4966C186.722 69.9096 186.398 69.3606 185.958 68.8817C185.517 68.4029 184.969 68.0039 184.346 67.7081C183.722 67.4123 183.036 67.2257 182.327 67.1591C181.618 67.0926 180.9 67.1475 180.216 67.3206L104.508 106.037C103.994 106.299 103.57 106.672 103.279 107.118C102.987 107.564 102.838 108.067 102.847 108.578L103.942 166.808C103.953 167.447 104.21 168.066 104.674 168.568C105.138 169.071 105.783 169.429 106.51 169.587C107.003 169.988 107.625 170.255 108.296 170.355C108.091 170.889 108.067 171.461 108.225 172.006C108.032 172.624 108.082 173.28 108.368 173.871C108.655 174.462 109.161 174.957 109.809 175.279L168.774 204.61C169.294 204.866 169.884 205 170.484 205C171.084 205 171.673 204.866 172.193 204.61L248.854 167.255C249.366 166.831 249.774 166.324 250.053 165.764C250.333 165.204 250.478 164.603 250.482 163.994C250.485 163.385 250.346 162.782 250.072 162.22C249.799 161.658 249.397 161.148 248.89 160.72V160.725ZM143.467 148.916L152.437 87.7384L135.563 96.3466L127.112 157.199L114.127 163.764C113.686 163.986 113.183 164.106 112.67 164.111C112.158 164.116 111.652 164.006 111.205 163.792C110.758 163.578 110.384 163.267 110.121 162.891C109.858 162.516 109.716 162.088 109.708 161.65L108.13 111.8C108.127 111.361 108.257 110.93 108.507 110.547C108.758 110.164 109.12 109.843 109.559 109.615L168.578 79.5164L162.574 82.5654L154.831 143.173L143.467 148.916ZM182.152 129.336L160.829 140.129L168.965 79.3132L178.245 74.5974C178.687 74.3731 179.19 74.2517 179.704 74.2454C180.218 74.2392 180.726 74.3483 181.175 74.5618C181.624 74.7754 182 75.0859 182.264 75.4622C182.529 75.8386 182.673 76.2676 182.682 76.7063L183.635 127.141C183.641 127.586 183.508 128.023 183.249 128.409C182.991 128.795 182.616 129.115 182.164 129.336H182.152Z" fill="#3D3D84"/>
<path fill-rule="evenodd" clip-rule="evenodd" d="M137.737 32.0238V109.706L140.709 111.276L193.164 82.113L196.13 6.67692L192.694 5L137.737 32.0238Z" fill="#6969CC"/>
<path fill-rule="evenodd" clip-rule="evenodd" d="M140.709 33.9349V111.277L196.131 84.024V6.67731L140.709 33.9349Z" fill="#9494F7"/>
<path fill-rule="evenodd" clip-rule="evenodd" d="M144.908 37.965V104.351L192.485 80.9603V14.5694L144.908 37.965Z" fill="white"/>
<path fill-rule="evenodd" clip-rule="evenodd" d="M149.453 45.185V80.7154L187.994 61.878V26.3476L149.453 45.185Z" fill="#DFE2FC"/>
<path fill-rule="evenodd" clip-rule="evenodd" d="M149.453 88.2106C149.454 88.306 149.484 88.3995 149.54 88.4818C149.597 88.5642 149.677 88.6326 149.774 88.6803C149.871 88.728 149.981 88.7533 150.092 88.7539C150.204 88.7544 150.314 88.73 150.412 88.6832L188.286 70.0592C188.383 70.0114 188.464 69.9425 188.519 69.8594C188.575 69.7764 188.603 69.6822 188.602 69.5866C188.601 69.4919 188.571 69.3989 188.515 69.3171C188.459 69.2353 188.379 69.1673 188.282 69.1201C188.186 69.0728 188.077 69.0479 187.966 69.0477C187.855 69.0476 187.746 69.0722 187.649 69.1191L149.774 87.738C149.677 87.786 149.596 87.8548 149.54 87.9378C149.483 88.0207 149.453 88.1148 149.453 88.2106Z" fill="#DFE2FC"/>
<path fill-rule="evenodd" clip-rule="evenodd" d="M149.452 90.8284C149.454 90.9238 149.484 91.0173 149.54 91.0996C149.597 91.182 149.677 91.2504 149.774 91.2981C149.871 91.3458 149.98 91.3711 150.092 91.3716C150.204 91.3722 150.314 91.3478 150.411 91.301L188.286 72.677C188.383 72.6292 188.463 72.5603 188.519 72.4772C188.574 72.3942 188.603 72.3 188.602 72.2044C188.601 72.1096 188.571 72.0167 188.515 71.9349C188.459 71.8531 188.378 71.7851 188.282 71.7379C188.186 71.6906 188.077 71.6657 187.966 71.6655C187.854 71.6654 187.745 71.69 187.649 71.7369L149.774 90.3558C149.677 90.4038 149.596 90.4726 149.539 90.5555C149.483 90.6385 149.453 90.7325 149.452 90.8284Z" fill="#DFE2FC"/>
<path fill-rule="evenodd" clip-rule="evenodd" d="M149.452 93.4448C149.454 93.5402 149.484 93.6336 149.54 93.716C149.597 93.7983 149.677 93.8667 149.774 93.9144C149.871 93.9622 149.98 93.9875 150.092 93.988C150.204 93.9885 150.314 93.9642 150.411 93.9174L188.286 75.2782C188.383 75.2304 188.463 75.1614 188.519 75.0784C188.574 74.9953 188.603 74.9012 188.602 74.8056C188.601 74.7108 188.571 74.6179 188.515 74.536C188.459 74.4542 188.378 74.3863 188.282 74.339C188.186 74.2918 188.077 74.2668 187.966 74.2667C187.854 74.2665 187.745 74.2911 187.649 74.3381L149.774 92.9722C149.677 93.0202 149.596 93.089 149.539 93.1719C149.483 93.2548 149.453 93.3489 149.452 93.4448Z" fill="#DFE2FC"/>
<path fill-rule="evenodd" clip-rule="evenodd" d="M149.453 96.0623C149.454 96.1577 149.484 96.2511 149.54 96.3335C149.597 96.4159 149.677 96.4843 149.774 96.532C149.871 96.5797 149.981 96.605 150.092 96.6055C150.204 96.6061 150.314 96.5817 150.412 96.5349L188.286 77.9109C188.383 77.8631 188.464 77.7942 188.519 77.7111C188.575 77.6281 188.603 77.5339 188.602 77.4383C188.601 77.3435 188.571 77.2506 188.515 77.1688C188.459 77.0869 188.379 77.019 188.282 76.9718C188.186 76.9245 188.077 76.8996 187.966 76.8994C187.855 76.8992 187.746 76.9239 187.649 76.9708L149.774 95.605C149.68 95.6516 149.6 95.718 149.544 95.7981C149.488 95.8781 149.456 95.969 149.453 96.0623Z" fill="#DFE2FC"/>
<path fill-rule="evenodd" clip-rule="evenodd" d="M152.514 21.7036V26.6327L178.161 14.0355L179.579 10.2243L177.685 9.34515L152.514 21.7036Z" fill="#6969CC"/>
<path fill-rule="evenodd" clip-rule="evenodd" d="M153.932 22.8216V38.2544L179.578 25.6571V10.2244L153.932 22.8216Z" fill="#DFE2FC"/>
<path fill-rule="evenodd" clip-rule="evenodd" d="M153.932 30.062V38.2535L179.578 25.6563V17.4648L153.932 30.062Z" fill="#8080E0"/>
<mask id="mask1_1281_1357" style="mask-type:luminance" maskUnits="userSpaceOnUse" x="149" y="26" width="40" height="55">
<path d="M149.608 45.0566V80.5819L188.143 61.7445V26.2141L149.608 45.0566Z" fill="white"/>
</mask>
<g mask="url(#mask1_1281_1357)">
<path d="M169.024 57.5368C163.813 60.0776 159.548 58.0043 159.548 52.8821C159.548 47.7598 163.813 41.4688 169.024 38.9077C174.236 36.3466 178.495 38.4402 178.495 43.5675C178.495 48.6948 174.23 54.9757 169.024 57.5368Z" fill="white"/>
<path d="M164.879 45.5388C166.398 47.6934 171.639 47.2157 175.1 45.5388C176.347 44.9047 177.489 44.1305 178.495 43.2369C178.298 38.3738 174.129 36.4275 169.042 38.9277C164.545 41.128 160.734 46.1384 159.781 50.7678C160.072 50.6509 160.376 50.5086 160.668 50.3714C163.027 49.3246 164.76 47.1751 164.879 45.5388Z" fill="#8080E0"/>
<path fill-rule="evenodd" clip-rule="evenodd" d="M165.123 55.8042V63.2132L171.758 59.8746V52.4656L165.123 55.8042Z" fill="white"/>
<path d="M184.278 63.1325C183.986 62.3221 183.586 61.5429 183.087 60.8102C182.487 59.912 181.651 59.1449 180.645 58.5692C179.144 57.7409 177.208 57.6545 175.469 57.7053C175.255 57.7053 173.48 57.934 173.48 57.934L173.146 58.0001C172.738 58.0899 172.34 58.2089 171.955 58.3558L165.844 61.1913C162.388 62.7943 159.488 65.1461 157.436 68.0098C155.385 70.8735 154.254 74.1479 154.158 77.5032L153.997 83.1641L185.475 68.5037C185.268 66.686 184.868 64.8881 184.278 63.1325Z" fill="#8080E0"/>
</g>
<path fill-rule="evenodd" clip-rule="evenodd" d="M34 81.2334V158.916L36.9721 160.486L89.4273 131.323L92.3994 55.8865L88.9568 54.2096L34 81.2334Z" fill="#6969CC"/>
<path fill-rule="evenodd" clip-rule="evenodd" d="M36.9722 83.1394V160.486L92.3995 133.229V55.8868L36.9722 83.1394Z" fill="#9494F7"/>
<path fill-rule="evenodd" clip-rule="evenodd" d="M41.171 87.1746V153.56L88.7482 130.165V63.779L41.171 87.1746Z" fill="white"/>
<path fill-rule="evenodd" clip-rule="evenodd" d="M45.7218 94.3958V129.926L84.2577 111.084V75.5533L45.7218 94.3958Z" fill="#DFE2FC"/>
<path fill-rule="evenodd" clip-rule="evenodd" d="M45.7156 137.416C45.7149 137.512 45.7441 137.606 45.8 137.689C45.8559 137.773 45.9367 137.842 46.0341 137.89C46.1315 137.938 46.2421 137.963 46.3545 137.963C46.467 137.963 46.5774 137.937 46.6745 137.888L84.5493 119.27C84.6466 119.222 84.7275 119.153 84.7839 119.07C84.8403 118.987 84.8703 118.893 84.8709 118.797C84.8697 118.702 84.8395 118.608 84.7831 118.526C84.7268 118.443 84.6462 118.375 84.5494 118.327C84.4526 118.28 84.3429 118.254 84.2311 118.254C84.1194 118.253 84.0093 118.278 83.9119 118.324L46.0194 136.948C45.9258 136.997 45.8487 137.066 45.7955 137.148C45.7423 137.23 45.7148 137.322 45.7156 137.416Z" fill="#DFE2FC"/>
<path fill-rule="evenodd" clip-rule="evenodd" d="M45.7154 140.034C45.7147 140.13 45.7438 140.224 45.7998 140.307C45.8557 140.39 45.9365 140.46 46.0339 140.508C46.1313 140.556 46.2418 140.581 46.3543 140.581C46.4668 140.58 46.5772 140.555 46.6743 140.506L84.549 121.887C84.6463 121.839 84.7272 121.77 84.7837 121.688C84.8401 121.605 84.8701 121.511 84.8706 121.415C84.8695 121.319 84.8393 121.226 84.7829 121.144C84.7265 121.061 84.646 120.993 84.5492 120.945C84.4524 120.897 84.3427 120.872 84.2309 120.871C84.1191 120.871 84.0091 120.895 83.9117 120.942L46.0191 139.566C45.9256 139.615 45.8485 139.684 45.7952 139.766C45.742 139.848 45.7145 139.94 45.7154 140.034Z" fill="#DFE2FC"/>
<path fill-rule="evenodd" clip-rule="evenodd" d="M45.7154 142.649C45.7147 142.745 45.7438 142.84 45.7998 142.923C45.8557 143.006 45.9365 143.075 46.0339 143.123C46.1313 143.171 46.2418 143.197 46.3543 143.196C46.4668 143.196 46.5772 143.17 46.6743 143.122L84.549 124.503C84.6463 124.455 84.7272 124.386 84.7837 124.303C84.8401 124.22 84.8701 124.126 84.8706 124.031C84.8695 123.935 84.8393 123.842 84.7829 123.759C84.7265 123.677 84.646 123.609 84.5492 123.561C84.4524 123.513 84.3427 123.488 84.2309 123.487C84.1191 123.487 84.0091 123.511 83.9117 123.558L46.0191 142.182C45.9256 142.231 45.8485 142.3 45.7952 142.382C45.742 142.464 45.7145 142.556 45.7154 142.649Z" fill="#DFE2FC"/>
<path fill-rule="evenodd" clip-rule="evenodd" d="M45.7154 145.271C45.7158 145.367 45.7457 145.461 45.8021 145.543C45.8584 145.626 45.9393 145.694 46.0365 145.742C46.1338 145.789 46.2439 145.814 46.3559 145.813C46.4678 145.813 46.5777 145.787 46.6744 145.739L84.5491 127.11C84.6464 127.062 84.7273 126.993 84.7837 126.91C84.8402 126.827 84.8702 126.733 84.8707 126.637C84.8696 126.542 84.8393 126.448 84.783 126.366C84.7266 126.284 84.646 126.215 84.5492 126.168C84.4524 126.12 84.3427 126.095 84.231 126.094C84.1192 126.093 84.0092 126.118 83.9118 126.165L46.0192 144.799C45.9248 144.848 45.8471 144.918 45.7938 145.001C45.7406 145.084 45.7135 145.177 45.7154 145.271Z" fill="#DFE2FC"/>
<path fill-rule="evenodd" clip-rule="evenodd" d="M48.783 70.9144V75.8384L74.4239 63.2463L75.8414 59.4351L73.9474 58.5509L48.783 70.9144Z" fill="#6969CC"/>
<path fill-rule="evenodd" clip-rule="evenodd" d="M50.1946 72.0312V87.4589L75.8415 74.8667V59.434L50.1946 72.0312Z" fill="#DFE2FC"/>
<path fill-rule="evenodd" clip-rule="evenodd" d="M50.1946 79.2717V87.4581L75.8415 74.8659V66.6744L50.1946 79.2717Z" fill="#8080E0"/>
<mask id="mask2_1281_1357" style="mask-type:luminance" maskUnits="userSpaceOnUse" x="45" y="75" width="40" height="55">
<path d="M45.8706 94.263V129.793L84.4124 110.956V75.4255L45.8706 94.263Z" fill="white"/>
</mask>
<g mask="url(#mask2_1281_1357)">
<path d="M65.2878 106.748C60.0762 109.289 55.8176 107.211 55.8176 102.089C55.8176 96.9663 60.0762 90.6804 65.2878 88.1193C70.4994 85.5581 74.758 87.6518 74.758 92.774C74.758 97.8962 70.4934 104.187 65.2878 106.748Z" fill="white"/>
<path d="M61.1481 94.7508C62.6669 96.9003 67.9083 96.4277 71.3628 94.7508C72.6127 94.1178 73.755 93.3415 74.7578 92.4437C74.5612 87.5857 70.392 85.6344 65.3055 88.1396C60.7967 90.3552 56.9968 95.3657 56.0616 99.995C56.3535 99.8781 56.6573 99.7409 56.9551 99.6037C59.2958 98.5315 61.0231 96.382 61.1481 94.7508Z" fill="#8080E0"/>
<path fill-rule="evenodd" clip-rule="evenodd" d="M61.3866 105.01V112.424L68.0217 109.086V101.672L61.3866 105.01Z" fill="white"/>
<path d="M80.565 112.339C80.272 111.529 79.8724 110.75 79.3738 110.016C78.7725 109.119 77.9369 108.352 76.9318 107.775C75.4308 106.947 73.4951 106.866 71.756 106.911C71.5475 106.911 69.7726 107.14 69.7726 107.14L69.439 107.206C69.0325 107.3 68.6344 107.419 68.2478 107.562L62.1011 110.397C58.6446 112.002 55.7442 114.355 53.6918 117.219C51.6394 120.083 50.5073 123.358 50.4094 126.714L50.2485 132.37L81.7562 117.715C81.5509 115.896 81.1521 114.096 80.565 112.339Z" fill="#8080E0"/>
</g>
<path fill-rule="evenodd" clip-rule="evenodd" d="M86.8962 64.1792V141.861L89.8683 143.432L142.324 114.268L145.296 38.8323L141.853 37.1553L86.8962 64.1792Z" fill="#6969CC"/>
<path fill-rule="evenodd" clip-rule="evenodd" d="M89.8679 66.0852V143.432L145.295 116.174V38.8326L89.8679 66.0852Z" fill="#9494F7"/>
<path fill-rule="evenodd" clip-rule="evenodd" d="M94.0671 70.1202V136.506L141.644 113.11V46.7245L94.0671 70.1202Z" fill="white"/>
<path fill-rule="evenodd" clip-rule="evenodd" d="M98.6176 77.3402V112.871L137.159 94.0281V58.5027L98.6176 77.3402Z" fill="#DFE2FC"/>
<path fill-rule="evenodd" clip-rule="evenodd" d="M98.6116 120.366C98.612 120.462 98.6418 120.556 98.6982 120.638C98.7546 120.721 98.8355 120.789 98.9327 120.836C99.0299 120.884 99.14 120.909 99.252 120.908C99.364 120.908 99.4738 120.882 99.5705 120.834L137.445 102.21C137.543 102.162 137.623 102.093 137.68 102.01C137.736 101.927 137.766 101.833 137.767 101.737C137.766 101.642 137.735 101.548 137.679 101.466C137.623 101.384 137.542 101.315 137.445 101.267C137.349 101.22 137.239 101.194 137.127 101.194C137.015 101.193 136.905 101.218 136.808 101.265L98.9332 119.894C98.8355 119.941 98.7542 120.01 98.6977 120.093C98.6412 120.176 98.6115 120.27 98.6116 120.366Z" fill="#DFE2FC"/>
<path fill-rule="evenodd" clip-rule="evenodd" d="M98.6116 122.984C98.612 123.08 98.6418 123.174 98.6982 123.256C98.7546 123.339 98.8355 123.407 98.9327 123.455C99.0299 123.502 99.14 123.527 99.252 123.526C99.364 123.526 99.4738 123.5 99.5705 123.452L137.445 104.833C137.543 104.785 137.623 104.716 137.68 104.633C137.736 104.55 137.766 104.456 137.767 104.36C137.766 104.265 137.735 104.172 137.679 104.089C137.623 104.007 137.542 103.938 137.445 103.891C137.349 103.843 137.239 103.818 137.127 103.817C137.015 103.817 136.905 103.841 136.808 103.888L98.9332 122.537C98.8397 122.583 98.7612 122.647 98.705 122.726C98.6487 122.804 98.6166 122.893 98.6116 122.984Z" fill="#DFE2FC"/>
<path fill-rule="evenodd" clip-rule="evenodd" d="M98.6116 125.585C98.612 125.681 98.6418 125.775 98.6982 125.857C98.7546 125.94 98.8355 126.008 98.9327 126.056C99.0299 126.103 99.14 126.128 99.252 126.127C99.364 126.127 99.4738 126.101 99.5705 126.053L137.445 107.434C137.543 107.386 137.623 107.317 137.68 107.234C137.736 107.151 137.766 107.057 137.767 106.961C137.766 106.866 137.735 106.773 137.679 106.69C137.623 106.608 137.542 106.54 137.445 106.492C137.349 106.444 137.239 106.419 137.127 106.418C137.015 106.418 136.905 106.442 136.808 106.489L98.9332 125.128C98.8381 125.174 98.7585 125.241 98.7021 125.321C98.6458 125.401 98.6146 125.492 98.6116 125.585Z" fill="#DFE2FC"/>
<path fill-rule="evenodd" clip-rule="evenodd" d="M98.6116 128.218C98.612 128.314 98.6418 128.407 98.6982 128.49C98.7546 128.572 98.8355 128.641 98.9327 128.688C99.0299 128.736 99.14 128.76 99.252 128.76C99.364 128.759 99.4738 128.734 99.5705 128.686L137.445 110.067C137.543 110.019 137.623 109.95 137.68 109.867C137.736 109.784 137.766 109.69 137.767 109.594C137.766 109.499 137.735 109.405 137.679 109.323C137.623 109.241 137.542 109.172 137.445 109.124C137.349 109.077 137.239 109.051 137.127 109.051C137.015 109.05 136.905 109.075 136.808 109.121L98.9332 127.745C98.8355 127.793 98.7542 127.862 98.6977 127.945C98.6412 128.028 98.6115 128.122 98.6116 128.218Z" fill="#DFE2FC"/>
<path fill-rule="evenodd" clip-rule="evenodd" d="M101.679 53.8588V58.7879L127.32 46.1907L128.737 42.3795L126.843 41.5004L101.679 53.8588Z" fill="#6969CC"/>
<path fill-rule="evenodd" clip-rule="evenodd" d="M103.091 54.977V70.4098L128.738 57.8125V42.3798L103.091 54.977Z" fill="#DFE2FC"/>
<path fill-rule="evenodd" clip-rule="evenodd" d="M103.091 62.2193V70.4108L128.738 57.8136V49.6221L103.091 62.2193Z" fill="#8080E0"/>
<mask id="mask3_1281_1357" style="mask-type:luminance" maskUnits="userSpaceOnUse" x="98" y="58" width="40" height="55">
<path d="M98.7666 77.2089V112.739L137.308 93.9019V58.3715L98.7666 77.2089Z" fill="white"/>
</mask>
<g mask="url(#mask3_1281_1357)">
<path d="M118.183 89.6946C112.972 92.2354 108.713 90.1621 108.713 85.0348C108.713 79.9075 112.972 73.6267 118.183 71.0656C123.395 68.5044 127.653 70.598 127.653 75.7203C127.653 80.8425 123.395 87.1335 118.183 89.6946Z" fill="white"/>
<path d="M114.044 77.6965C115.563 79.846 120.804 79.3734 124.258 77.6965C125.508 77.0634 126.651 76.2872 127.653 75.3894C127.457 70.5314 123.288 68.5852 118.201 71.0853C113.692 73.3009 109.898 78.3113 108.957 82.9457C109.249 82.8238 109.553 82.6866 109.851 82.5494C112.191 81.4823 113.919 79.3429 114.044 77.6965Z" fill="#8080E0"/>
<path fill-rule="evenodd" clip-rule="evenodd" d="M114.282 87.9613V95.3702L120.917 92.0316V84.6176L114.282 87.9613Z" fill="white"/>
<path d="M133.437 95.2896C133.145 94.4776 132.745 93.6967 132.246 92.9622C131.644 92.065 130.809 91.2981 129.804 90.7212C128.309 89.898 126.373 89.8116 124.628 89.8573C124.419 89.8573 122.644 90.0911 122.644 90.0911C122.532 90.1077 122.42 90.1298 122.311 90.1572C121.904 90.247 121.505 90.3643 121.12 90.5078L115.015 93.3433C111.559 94.948 108.659 97.3008 106.608 100.165C104.556 103.03 103.426 106.304 103.329 109.66L103.198 115.321L134.646 100.686C134.437 98.8596 134.032 97.0531 133.437 95.2896Z" fill="#8080E0"/>
</g>
<path opacity="0.61" d="M182.652 74.3377L183.605 124.772C183.614 125.214 183.485 125.651 183.232 126.036C182.979 126.422 182.61 126.743 182.163 126.968L114.127 161.395C113.685 161.618 113.183 161.737 112.67 161.742C112.157 161.747 111.652 161.637 111.205 161.423C110.757 161.209 110.384 160.899 110.121 160.523C109.858 160.147 109.716 159.719 109.708 159.281L108.129 109.431C108.126 108.993 108.256 108.561 108.507 108.178C108.757 107.795 109.12 107.474 109.559 107.246L178.244 72.2288C178.685 72.0092 179.186 71.8916 179.696 71.8878C180.207 71.884 180.71 71.9941 181.155 72.2072C181.601 72.4203 181.973 72.729 182.236 73.1027C182.498 73.4764 182.642 73.9021 182.652 74.3377Z" fill="white"/>
<path d="M185.988 67.4116C185.978 66.8991 185.81 66.3978 185.501 65.9581C185.192 65.5184 184.753 65.1558 184.228 64.9066C183.703 64.6574 183.111 64.5304 182.51 64.5384C181.909 64.5464 181.321 64.6891 180.806 64.9521L105.104 103.669C104.589 103.93 104.165 104.302 103.873 104.749C103.581 105.195 103.433 105.699 103.442 106.209L104.538 164.439C104.547 164.95 104.712 165.45 105.019 165.89C105.325 166.329 105.761 166.691 106.283 166.942C106.806 167.192 107.396 167.32 107.995 167.315C108.594 167.309 109.18 167.169 109.696 166.909L185.428 128.838C185.945 128.578 186.373 128.206 186.668 127.76C186.963 127.314 187.115 126.809 187.107 126.297L185.988 67.4116ZM182.747 126.968L114.723 161.395C114.281 161.618 113.779 161.737 113.266 161.742C112.753 161.747 112.248 161.637 111.801 161.423C111.353 161.209 110.98 160.899 110.717 160.523C110.454 160.147 110.312 159.719 110.304 159.282L108.725 109.431C108.722 108.993 108.852 108.561 109.103 108.178C109.353 107.795 109.716 107.474 110.155 107.246L178.84 72.2289C179.282 72.0029 179.786 71.8802 180.301 71.8732C180.816 71.8662 181.324 71.9751 181.773 72.1889C182.223 72.4027 182.599 72.714 182.863 73.0912C183.127 73.4685 183.27 73.8984 183.278 74.3378L184.201 124.772C184.21 125.215 184.081 125.651 183.828 126.036C183.575 126.422 183.206 126.744 182.759 126.968H182.747Z" fill="#4F4F99"/>
<path d="M187.512 68.128C187.502 67.6155 187.334 67.1142 187.025 66.6745C186.717 66.2348 186.278 65.8722 185.753 65.623C185.228 65.3738 184.635 65.2468 184.034 65.2548C183.434 65.2628 182.846 65.4055 182.33 65.6685L106.616 104.385C106.104 104.648 105.681 105.021 105.389 105.467C105.098 105.913 104.948 106.416 104.955 106.926L106.057 165.161C106.066 165.671 106.233 166.171 106.539 166.609C106.846 167.048 107.282 167.41 107.804 167.659C108.327 167.909 108.916 168.037 109.515 168.031C110.113 168.025 110.699 167.885 111.215 167.625L186.94 129.559C187.461 129.296 187.891 128.92 188.187 128.47C188.483 128.019 188.635 127.51 188.626 126.993L187.512 68.128ZM182.747 126.968L114.723 161.395C114.281 161.618 113.779 161.737 113.266 161.742C112.753 161.747 112.248 161.637 111.8 161.423C111.353 161.209 110.979 160.899 110.716 160.523C110.454 160.147 110.311 159.719 110.303 159.281L108.725 109.431C108.722 108.993 108.852 108.561 109.102 108.178C109.353 107.795 109.715 107.474 110.154 107.246L178.84 72.2289C179.282 72.0029 179.785 71.8802 180.3 71.8731C180.815 71.8661 181.323 71.975 181.773 72.1888C182.223 72.4027 182.599 72.7139 182.863 73.0911C183.127 73.4684 183.27 73.8984 183.277 74.3377L184.2 124.772C184.21 125.214 184.081 125.651 183.828 126.036C183.575 126.422 183.206 126.744 182.759 126.968H182.747Z" fill="#6262CC"/>
<path d="M249.479 159.837L189.859 130.186C189.337 129.926 188.743 129.789 188.138 129.789C187.533 129.789 186.939 129.926 186.416 130.186L110.423 167.876C109.906 168.133 109.478 168.502 109.18 168.944C108.882 169.387 108.725 169.889 108.725 170.399C108.725 170.909 108.882 171.411 109.18 171.853C109.478 172.296 109.906 172.665 110.423 172.922L169.388 202.253C169.908 202.509 170.497 202.644 171.097 202.644C171.698 202.644 172.287 202.509 172.807 202.253L249.444 164.883C249.964 164.629 250.396 164.263 250.698 163.822C251 163.381 251.161 162.88 251.165 162.369C251.169 161.858 251.015 161.355 250.719 160.911C250.423 160.466 249.996 160.096 249.479 159.837Z" fill="#5E5EBC"/>
<path d="M249.485 158.358L189.865 128.707C189.342 128.447 188.748 128.31 188.144 128.31C187.539 128.31 186.945 128.447 186.422 128.707L110.429 166.397C109.911 166.653 109.481 167.021 109.182 167.464C108.883 167.907 108.725 168.409 108.725 168.92C108.725 169.431 108.883 169.933 109.182 170.376C109.481 170.818 109.911 171.186 110.429 171.443L169.394 200.774C169.915 201.03 170.505 201.164 171.106 201.164C171.707 201.164 172.298 201.03 172.819 200.774L249.456 163.404C249.975 163.15 250.407 162.783 250.709 162.342C251.01 161.9 251.171 161.399 251.174 160.888C251.177 160.377 251.022 159.874 250.726 159.43C250.43 158.986 250.002 158.616 249.485 158.358Z" fill="#9494F7"/>
<path d="M221.67 171.463L202.39 161.874C202.221 161.792 202.03 161.748 201.836 161.748C201.642 161.748 201.451 161.792 201.282 161.874L176.707 174.07C176.539 174.152 176.399 174.271 176.302 174.414C176.205 174.557 176.154 174.72 176.154 174.886C176.154 175.051 176.205 175.214 176.302 175.357C176.399 175.5 176.539 175.619 176.707 175.701L195.767 185.183C195.935 185.267 196.126 185.311 196.321 185.311C196.515 185.311 196.707 185.267 196.875 185.183L221.664 173.099C221.832 173.017 221.973 172.898 222.07 172.755C222.168 172.611 222.219 172.448 222.22 172.283C222.221 172.117 222.17 171.954 222.074 171.81C221.977 171.666 221.838 171.547 221.67 171.463Z" fill="#DFE2FC"/>
<path d="M199.4 156.671L217.054 147.971C217.253 147.874 217.427 147.744 217.567 147.589C217.706 147.434 217.808 147.257 217.867 147.068C217.926 146.878 217.94 146.681 217.909 146.488C217.878 146.294 217.802 146.107 217.685 145.939C217.572 145.769 217.42 145.619 217.238 145.5C217.056 145.381 216.848 145.293 216.627 145.243C216.405 145.193 216.174 145.181 215.946 145.208C215.719 145.235 215.5 145.3 215.303 145.4L195.916 154.953" fill="#5E5EBC"/>
<path d="M194.85 155.47L143.288 180.878C143.09 180.976 142.915 181.106 142.776 181.261C142.636 181.416 142.534 181.593 142.474 181.782C142.415 181.97 142.4 182.167 142.431 182.361C142.461 182.555 142.536 182.742 142.651 182.911C142.766 183.08 142.918 183.228 143.1 183.347C143.282 183.466 143.49 183.552 143.711 183.602C143.932 183.652 144.163 183.665 144.39 183.638C144.617 183.612 144.836 183.548 145.033 183.45L198.328 157.173" fill="#5E5EBC"/>
<path d="M195.178 153.823L212.826 145.118C213.024 145.021 213.198 144.891 213.338 144.736C213.478 144.581 213.58 144.404 213.639 144.215C213.699 144.026 213.714 143.829 213.683 143.635C213.653 143.442 213.578 143.255 213.463 143.086C213.349 142.916 213.196 142.768 213.015 142.648C212.833 142.529 212.625 142.442 212.403 142.392C212.182 142.342 211.951 142.33 211.724 142.357C211.497 142.383 211.278 142.448 211.08 142.547L191.705 152.111" fill="#5E5EBC"/>
<path d="M190.627 152.62L139.059 178.027C138.86 178.125 138.686 178.255 138.547 178.41C138.407 178.565 138.305 178.742 138.246 178.931C138.188 179.12 138.173 179.317 138.205 179.511C138.236 179.705 138.312 179.891 138.428 180.06C138.541 180.23 138.693 180.379 138.875 180.499C139.057 180.618 139.265 180.706 139.487 180.756C139.708 180.806 139.94 180.818 140.167 180.791C140.394 180.764 140.613 180.699 140.81 180.599L194.111 154.322" fill="#5E5EBC"/>
<path d="M190.466 151.543L208.12 142.864C208.319 142.766 208.493 142.636 208.633 142.481C208.772 142.326 208.874 142.149 208.933 141.96C208.992 141.771 209.006 141.574 208.975 141.38C208.944 141.186 208.868 141 208.751 140.831C208.638 140.661 208.486 140.512 208.304 140.392C208.122 140.273 207.914 140.185 207.693 140.135C207.471 140.085 207.24 140.073 207.012 140.1C206.785 140.127 206.566 140.193 206.369 140.292L187 149.836" fill="#5E5EBC"/>
<path d="M185.916 150.339L134.354 175.747C134.156 175.844 133.981 175.974 133.842 176.129C133.702 176.284 133.6 176.461 133.54 176.65C133.481 176.839 133.466 177.036 133.497 177.23C133.527 177.423 133.602 177.61 133.717 177.779C133.831 177.949 133.984 178.098 134.165 178.217C134.347 178.336 134.555 178.423 134.777 178.473C134.998 178.523 135.229 178.535 135.456 178.508C135.683 178.482 135.902 178.417 136.1 178.318L189.395 152.041" fill="#5E5EBC"/>
<path d="M185.988 148.915L203.641 140.211C203.84 140.113 204.014 139.983 204.154 139.828C204.294 139.673 204.396 139.496 204.454 139.307C204.513 139.118 204.527 138.921 204.496 138.727C204.465 138.533 204.389 138.347 204.273 138.178C204.159 138.008 204.007 137.859 203.825 137.739C203.644 137.62 203.436 137.533 203.214 137.482C202.992 137.432 202.761 137.42 202.534 137.447C202.306 137.474 202.088 137.54 201.89 137.639L182.503 147.193" fill="#5E5EBC"/>
<path d="M181.437 147.712L129.875 173.12C129.676 173.216 129.501 173.346 129.361 173.501C129.221 173.656 129.118 173.833 129.059 174.022C129 174.211 128.985 174.409 129.016 174.603C129.046 174.797 129.122 174.983 129.238 175.152C129.352 175.322 129.504 175.47 129.686 175.59C129.868 175.709 130.076 175.796 130.297 175.846C130.519 175.896 130.75 175.908 130.977 175.881C131.204 175.855 131.423 175.79 131.62 175.691L184.915 149.414" fill="#5E5EBC"/>
<path d="M181.222 146.548L198.876 137.843C199.075 137.745 199.249 137.616 199.389 137.46C199.529 137.305 199.631 137.128 199.69 136.94C199.749 136.751 199.764 136.554 199.734 136.36C199.704 136.166 199.629 135.979 199.514 135.81C199.4 135.641 199.247 135.492 199.065 135.373C198.883 135.254 198.676 135.167 198.454 135.117C198.233 135.067 198.002 135.054 197.774 135.081C197.547 135.108 197.329 135.172 197.131 135.272L177.744 144.83" fill="#5E5EBC"/>
<path d="M176.666 145.344L125.104 170.752C124.905 170.849 124.731 170.979 124.591 171.134C124.452 171.289 124.35 171.467 124.291 171.656C124.232 171.845 124.218 172.042 124.249 172.236C124.28 172.429 124.356 172.616 124.473 172.784C124.586 172.955 124.738 173.104 124.92 173.223C125.102 173.343 125.31 173.43 125.531 173.48C125.753 173.53 125.985 173.542 126.212 173.515C126.439 173.488 126.658 173.423 126.855 173.323L180.15 147.046" fill="#5E5EBC"/>
<path opacity="0.14" d="M186.583 128.701L110.595 166.396C110.077 166.652 109.647 167.02 109.348 167.463C109.049 167.906 108.892 168.408 108.892 168.919C108.892 169.43 109.049 169.932 109.348 170.375C109.647 170.818 110.077 171.186 110.595 171.442L169.56 200.768C170.081 201.024 170.672 201.158 171.273 201.158C171.874 201.158 172.464 201.024 172.985 200.768L173.539 200.493L188.924 128.335C188.117 128.215 187.287 128.345 186.583 128.701Z" fill="white"/>
<path opacity="0.74" d="M136.171 93.979L127.707 154.831L144.075 146.548L153.05 85.3708L136.171 93.979Z" fill="white"/>
<path opacity="0.74" d="M163.176 80.2079L155.403 140.816L161.436 137.762L169.572 76.9455" fill="white"/>
<path d="M257.592 105.58C244.732 99.2531 223.69 99.2531 210.836 105.58C197.983 111.906 197.977 122.247 210.836 128.569C223.696 134.89 244.732 134.895 257.592 128.569C270.451 122.242 270.451 111.901 257.592 105.58ZM253.119 125.977C242.719 131.094 225.721 131.094 215.303 125.977C204.886 120.86 204.91 112.496 215.303 107.384C225.697 102.272 242.701 102.272 253.119 107.384C263.536 112.496 263.518 120.865 253.119 125.977Z" fill="#424284"/>
<path d="M257.592 106.866C244.732 100.545 223.69 100.545 210.836 106.866C197.983 113.188 197.977 123.534 210.836 129.86C223.696 136.187 244.732 136.182 257.592 129.86C270.451 123.539 270.451 113.188 257.592 106.866ZM253.119 127.269C242.719 132.381 225.721 132.381 215.303 127.269C204.886 122.157 204.91 113.787 215.303 108.675C225.697 103.563 242.701 103.563 253.119 108.675C263.536 113.787 263.518 122.157 253.119 127.269Z" fill="#424284"/>
<path opacity="0.61" d="M253.118 123.908C242.719 129.02 225.72 129.02 215.303 123.908C204.886 118.796 204.909 110.427 215.303 105.315C225.696 100.203 242.701 100.203 253.118 105.315C263.535 110.427 263.517 118.791 253.118 123.908Z" fill="white"/>
<path d="M272.809 137.177C271.648 137.747 270.695 137.284 270.695 136.161C270.736 135.537 270.949 134.929 271.316 134.388C271.683 133.847 272.195 133.387 272.809 133.046C274 132.477 274.917 132.944 274.917 134.062C274.877 134.686 274.666 135.294 274.299 135.835C273.933 136.376 273.422 136.836 272.809 137.177Z" fill="#6262CC"/>
<path d="M258.616 130.266C257.424 130.84 256.489 130.367 256.489 129.219C256.53 128.59 256.743 127.977 257.113 127.432C257.482 126.886 257.997 126.422 258.616 126.078C259.807 125.504 260.742 125.972 260.742 127.125C260.699 127.754 260.485 128.365 260.116 128.911C259.747 129.456 259.233 129.92 258.616 130.266Z" fill="#6262CC"/>
<path d="M256.995 130.323L271.433 137.386V134.317L274.435 132.955L260.087 125.927" fill="#6262CC"/>
<path d="M272.946 138.243C271.118 139.143 269.623 138.411 269.623 136.612C269.684 135.626 270.016 134.665 270.594 133.809C271.171 132.952 271.977 132.224 272.946 131.683C274.775 130.789 276.27 131.521 276.27 133.319C276.209 134.305 275.876 135.265 275.299 136.121C274.721 136.976 273.915 137.704 272.946 138.243Z" fill="#9494F7"/>
<path d="M270.397 138.34L296.55 151.197V146.405L301.243 144.281L275.227 131.47" fill="#9494F7"/>
<path d="M298.7 150.876C296.913 151.765 295.407 151.039 295.407 149.255C295.471 148.28 295.803 147.332 296.375 146.487C296.947 145.641 297.744 144.922 298.7 144.387C300.487 143.498 302 144.224 302 146.008C301.935 146.983 301.603 147.932 301.03 148.777C300.457 149.623 299.659 150.342 298.7 150.876Z" fill="#424284"/>
<path d="M201.193 118.518V114.89L204.809 118.147L201.193 118.518Z" fill="#424284"/>
<path d="M257.591 103.506C244.732 97.1847 223.689 97.1847 210.836 103.506C197.983 109.828 197.977 120.174 210.836 126.5C223.695 132.827 244.732 132.822 257.591 126.5C270.451 120.179 270.451 109.833 257.591 103.506ZM253.118 123.909C242.719 129.021 225.72 129.021 215.303 123.909C204.886 118.797 204.91 110.427 215.303 105.315C225.697 100.203 242.701 100.203 253.118 105.315C263.536 110.427 263.518 118.792 253.118 123.909Z" fill="#6262CC"/>
<mask id="mask4_1281_1357" style="mask-type:luminance" maskUnits="userSpaceOnUse" x="206" y="101" width="55" height="27">
<path d="M252.523 123.91C242.124 129.022 225.125 129.022 214.708 123.91C204.291 118.798 204.314 110.429 214.708 105.317C225.101 100.205 242.106 100.205 252.523 105.317C262.94 110.429 262.922 118.793 252.523 123.91Z" fill="white"/>
</mask>
<g mask="url(#mask4_1281_1357)">
<path opacity="0.47" d="M223.618 98.3655L230.658 132.722L253.887 130.522L245.644 97.6744L223.618 98.3655Z" fill="white"/>
<path opacity="0.47" d="M218.835 100.382L225.744 134.531L243.142 131.731L235.393 99.1221L218.835 100.382Z" fill="white"/>
</g>
</g>
</svg>
