<svg width="1440" height="381" viewBox="0 0 1440 381" fill="none" xmlns="http://www.w3.org/2000/svg">
<mask id="mask0_1_33" style="mask-type:alpha" maskUnits="userSpaceOnUse" x="0" y="0" width="1440" height="380">
<rect width="1440" height="380" fill="#D9F1FF"/>
</mask>
<g mask="url(#mask0_1_33)">
<path d="M1086.68 248.48L1049.62 256.731L1043.34 258.126L969.241 274.627C969.241 274.627 943.525 288.563 913.694 304.239C903.302 309.7 892.4 315.385 881.906 320.741C863.776 330.041 846.887 338.442 835.985 343.242C808.331 355.468 811.613 354.583 772.75 360.959C727.85 368.324 658.203 337.287 625.412 289.763C618.932 280.518 614.006 270.493 610.786 260.001C609.085 254.241 622.045 237.979 640.532 219.033C664.415 194.777 690.103 171.949 717.424 150.703C729.653 141.432 739.058 135.462 742.698 135.297C742.698 135.297 789.673 130.046 816.12 137.247C818.875 137.997 827.175 139.332 830.866 139.992C857.228 144.748 936.025 160.334 936.025 160.334L955.924 155.608L1006.62 143.607L1012.98 142.107L1055.39 132.057L1086.68 248.48Z" fill="#FFCEB3"/>
<g style="mix-blend-mode:multiply" opacity="0.8">
<path d="M878.401 268.956C899.116 288.712 910.324 306.008 898.079 312.459C874.268 324.94 850.083 337.136 835.967 343.376C808.312 355.602 811.594 354.717 772.732 361.092C727.831 368.458 658.185 337.421 625.394 289.897L754.652 190.26L777.052 192.03C788.029 192.889 798.691 195.719 808.383 200.344C818.075 204.969 826.594 211.293 833.415 218.927L850.015 243.829C850.015 243.829 869.251 260.24 878.401 268.956Z" fill="#D39B92"/>
</g>
<path d="M504.859 155.845C541.715 155.845 630.087 136.794 674.818 133.088C727.661 128.723 771.881 187.573 794.842 194.323C817.802 201.074 594.15 229.576 594.15 229.576L504.859 155.845Z" fill="#F7BC9F"/>
<path d="M898.385 320.56C888.18 327.055 879.778 325.48 871.172 317.875C856.988 305.364 836.936 287.873 819.554 273.036C799.944 256.25 783.735 242.779 783.157 243.454C781.899 244.954 798.464 259.445 817.853 275.857C841.324 295.763 868.876 318.46 873.604 324.085C885.085 337.706 862.039 361.018 839.062 340.587C835.473 337.406 815.081 320.035 794.841 303.579C773.854 286.492 753.087 270.381 751.574 272.151C750.689 273.171 770.963 287.483 793.396 304.899C809.162 317.14 825.983 330.911 837.276 342.672C843.501 349.167 841.409 358.843 836.527 363.088C828.517 370.019 814.655 370.109 804.383 360.988C793.073 350.937 775.317 338.666 758.802 328.376C737.882 315.325 718.97 305.484 717.745 307.449C717.133 308.424 734.634 319.105 753.87 330.776C774.364 343.227 796.831 356.818 801.491 360.988C808.073 366.988 799.144 384.045 782.12 378.539C776.66 376.754 740.757 364.033 705.738 348.747C694.955 344.052 684.274 339.101 674.563 334.166C650.897 330.48 627.507 325.525 604.525 319.33C580.408 312.759 556.308 304.419 539.776 294.593C523.245 284.767 464.517 271.161 464.517 271.161L436.828 267.486L435.434 267.306L467.952 146.457L474.96 148.227L486.576 151.227L504.91 155.863C505.806 156.051 506.728 156.127 507.649 156.088H703C726.424 156.392 749.397 161.819 769.857 171.884L799.74 198.076L800.199 197.656C800.199 197.656 816.186 213.002 835.337 231.588C839.725 235.864 844.334 240.259 848.943 244.684C852.753 248.33 856.58 251.975 860.321 255.575L860.406 255.65C871.002 265.851 880.901 275.602 887.721 283.282C890.697 286.642 896.225 293.648 899.915 298.988C901.391 300.917 902.617 302.985 903.572 305.154C905.188 310.884 904.592 316.585 898.385 320.56Z" fill="#F7BC9F"/>
<g style="mix-blend-mode:multiply" opacity="0.5">
<path d="M801.44 361.033C798.617 358.468 789.008 352.318 777.238 345.072C780.64 355.903 774.211 369.404 758.139 369.959C770.537 374.609 779.551 377.76 782.069 378.585C799.093 384.09 808.022 367.034 801.44 361.033Z" fill="#DDB3B1"/>
</g>
<g style="mix-blend-mode:multiply" opacity="0.5">
<path d="M837.363 342.714C828.155 333.451 818.336 324.675 807.956 316.432C809.483 319.205 810.285 322.245 810.303 325.327C810.206 330.901 807.648 336.221 803.173 340.157C798.698 344.093 792.659 346.334 786.339 346.404H785.744C792.262 350.997 798.507 355.884 804.453 361.045C814.657 370.166 828.587 370.046 836.597 363.145C841.428 358.885 843.519 349.209 837.363 342.714Z" fill="#DDB3B1"/>
</g>
<g style="mix-blend-mode:multiply" opacity="0.5">
<path d="M873.589 324.086C870.613 320.531 858.52 310.18 844.132 298.029C844.214 298.712 844.254 299.398 844.251 300.085C844.154 305.648 841.606 310.959 837.145 314.894C832.684 318.828 826.662 321.076 820.355 321.161C818.742 321.163 817.135 321.012 815.559 320.711C827.345 330.567 836.716 338.577 839.046 340.633C862.024 361.019 885.069 337.707 873.589 324.086Z" fill="#DDB3B1"/>
</g>
<g style="mix-blend-mode:multiply" opacity="0.5">
<path d="M677.827 313.689C677.067 310.219 675.165 307.022 672.359 304.498C669.552 301.975 665.966 300.236 662.046 299.498C658.127 298.761 654.047 299.057 650.318 300.351C646.588 301.645 643.373 303.879 641.073 306.774C643.259 302.662 643.602 297.973 642.033 293.648C640.464 289.322 637.1 285.679 632.614 283.45C628.128 281.22 622.853 280.568 617.845 281.625C612.838 282.682 608.468 285.369 605.612 289.147L601.394 294.083L600.884 294.653L599.574 296.978L590.883 308.334C589.362 310.282 588.291 312.476 587.731 314.789C587.171 317.102 587.134 319.49 587.62 321.817C588.106 324.143 589.108 326.362 590.566 328.347C592.025 330.332 593.913 332.044 596.122 333.386C598.331 334.727 600.818 335.672 603.44 336.166C606.063 336.66 608.771 336.693 611.408 336.264C614.046 335.835 616.561 334.952 618.812 333.665C621.062 332.379 623.004 330.714 624.525 328.765C622.483 332.649 622.076 337.048 623.379 341.171C624.682 345.295 627.609 348.875 631.634 351.267C633.856 352.592 636.352 353.518 638.98 353.992C641.607 354.465 644.315 354.478 646.948 354.028C649.582 353.578 652.088 352.674 654.325 351.369C656.562 350.064 658.486 348.383 659.986 346.422L674.714 327.175C676.218 325.22 677.266 323.022 677.801 320.707C678.335 318.392 678.344 316.007 677.827 313.689Z" fill="#DDB3B1"/>
<path d="M749.907 366.839L743.954 364.529L737.916 372.434C734.314 373.976 730.571 375.246 726.725 376.23C724.089 376.685 721.377 376.677 718.745 376.206C716.113 375.735 713.612 374.81 711.385 373.484C709.159 372.159 707.251 370.459 705.771 368.482C704.291 366.505 703.268 364.29 702.761 361.964C702.302 359.772 702.302 357.525 702.761 355.333L700.89 357.778L698.934 360.343C697.435 362.304 695.512 363.984 693.276 365.289C691.04 366.593 688.534 367.497 685.902 367.947C683.27 368.398 680.564 368.387 677.936 367.915C675.309 367.443 672.813 366.519 670.591 365.196C668.369 363.873 666.464 362.177 664.984 360.205C663.505 358.233 662.481 356.023 661.97 353.702C661.459 351.38 661.471 348.993 662.007 346.676C662.542 344.359 663.589 342.157 665.089 340.197L679.818 320.95C682.843 317.004 687.519 314.277 692.821 313.366C698.123 312.455 703.617 313.434 708.102 316.09C712.604 319.038 716.037 323.078 717.983 327.716C718.615 329.794 718.615 331.983 717.983 334.061C717.354 336.822 716.282 339.507 716.027 340.782C716.52 339.357 720.279 329.486 730.688 326.426C733.67 325.571 736.829 325.304 739.94 325.646C744.754 326.4 749.213 328.382 752.764 331.346C754.123 332.382 755.37 333.527 756.489 334.767C764.635 343.947 753.631 361.664 749.907 366.839Z" fill="#DDB3B1"/>
</g>
<g style="mix-blend-mode:multiply" opacity="0.5">
<path d="M1006.61 143.668L967.93 152.834C974.457 170.824 979.141 189.295 981.927 208.023C986.179 240.275 978.237 247.311 963.542 251.331C961.501 251.886 957.164 252.921 953.575 251.826C936.006 246.411 917.162 245.466 900.596 252.951C878.197 263.062 860.407 254.736 852.056 252.666C819.061 244.446 862.584 166.11 862.584 166.11L773.157 138.448C767.545 137.278 722.848 147.328 718.307 150.449L717.406 150.779L703 156.074L668.083 168.9C662.961 172.844 658.701 177.583 655.515 182.881L637.078 213.588C638.033 215.505 639.171 217.347 640.48 219.094C647.742 228.71 666.229 244.086 694.53 205.593C696.639 202.728 748.445 190.187 753.785 196.592C763.14 207.843 818.857 258.097 851.138 262.027C853.57 262.342 858.23 264.097 866.036 263.527C869.2 274.523 862.465 288.069 845.831 288.069C837.106 288.069 826.545 278.753 825.983 278.663C843.365 293.514 856.937 305.44 871.122 317.951C879.745 325.557 888.13 327.132 898.334 320.636C900.391 319.38 902.025 317.658 903.067 315.652C904.108 313.646 904.518 311.43 904.253 309.236L913.641 304.315C943.524 288.564 969.24 274.583 969.24 274.583L1043.34 258.082L1006.61 143.668Z" fill="#DDB3B1"/>
</g>
<path d="M757.986 127.482C738.461 131.037 677.284 157.574 677.284 157.574C672.182 161.519 655.838 174.345 652.64 179.655L632.826 209.238C632.065 210.364 631.572 211.615 631.376 212.915C631.18 214.215 631.286 215.536 631.687 216.799C632.087 218.062 632.775 219.239 633.708 220.26C634.64 221.281 635.799 222.125 637.112 222.739C649.63 228.439 673.186 231.739 698.459 197.357C700.568 194.492 730.059 186.511 730.059 186.511C738.258 184.26 747.047 184.308 755.214 186.649C763.381 188.989 770.523 193.506 775.657 199.577C782.596 207.753 788.872 216.198 792.002 219.603C810.71 240.02 856.002 269.017 896.684 254.016C909.729 249.201 918.335 239.675 915.291 223.729C908.794 189.706 898.963 170.895 881.581 164.729C836.086 148.573 791.73 121.316 757.986 127.482Z" fill="#FFCEB3"/>
<g style="mix-blend-mode:multiply" opacity="0.5">
<path d="M611.737 302.437L604.475 319.373C580.358 312.802 556.258 304.462 539.726 294.636C523.195 284.81 464.467 271.204 464.467 271.204L436.778 267.529L435.384 267.349L467.903 146.5L474.91 148.27L486.526 151.27C476.849 169.197 467.818 222.466 489.264 247.158C514.351 275.93 521.018 272.074 559.574 289.581C597.281 306.712 611.159 302.617 611.737 302.437Z" fill="#DDB3B1"/>
</g>
<path d="M483.617 121.058L476.746 142.539L474.909 148.27L436.778 267.529L428.903 292.115L425.161 303.831L381.4 292.94L375.227 291.41L433.682 108.637L439.856 110.167L483.617 121.058Z" fill="#FBF5FC"/>
<path d="M439.901 110.15L-2.55859 0.0859375L-61 182.855L381.459 292.919L439.901 110.15Z" fill="#3F7F89"/>
<path d="M294.476 247.925C301.294 244.429 303.607 236.72 299.643 230.706C295.68 224.693 286.939 222.652 280.121 226.148C273.303 229.644 270.99 237.354 274.954 243.367C278.918 249.381 287.658 251.421 294.476 247.925Z" fill="#30666B"/>
<path d="M326.075 246.215C326.662 243.764 328.06 241.522 330.093 239.773C332.125 238.023 334.7 236.844 337.492 236.386C340.284 235.928 343.168 236.21 345.778 237.197C348.388 238.185 350.607 239.833 352.155 241.933C353.703 244.033 354.509 246.491 354.473 248.996C354.436 251.501 353.558 253.94 351.95 256.004C350.341 258.068 348.074 259.666 345.436 260.593C342.798 261.521 339.908 261.738 337.13 261.216C333.41 260.518 330.157 258.546 328.084 255.733C326.011 252.921 325.289 249.497 326.075 246.215Z" fill="#30666B"/>
<path d="M970.311 121.058L977.182 142.539L979.019 148.27L1017.15 267.529L1025.02 292.115L1028.77 303.831L1072.53 292.94L1078.7 291.41L1020.25 108.637L1014.07 110.167L970.311 121.058Z" fill="#FBF5FC"/>
<path d="M1072.54 292.833L1515 182.769L1456.56 1.96353e-06L1014.1 110.064L1072.54 292.833Z" fill="#3D3D3D"/>
<path d="M1177.7 236.91C1177.12 234.459 1175.72 232.217 1173.69 230.467C1171.66 228.717 1169.08 227.538 1166.29 227.078C1163.5 226.619 1160.62 226.9 1158.01 227.885C1155.4 228.871 1153.18 230.518 1151.63 232.617C1150.08 234.716 1149.27 237.173 1149.31 239.677C1149.34 242.181 1150.22 244.62 1151.82 246.685C1153.43 248.751 1155.69 250.35 1158.33 251.28C1160.96 252.21 1163.85 252.429 1166.63 251.911C1168.48 251.568 1170.23 250.908 1171.78 249.969C1173.34 249.029 1174.67 247.828 1175.7 246.435C1176.72 245.042 1177.43 243.483 1177.78 241.849C1178.12 240.214 1178.1 238.536 1177.7 236.91Z" fill="#E8AA46"/>
<path d="M1127.85 246.212C1127.27 243.762 1125.87 241.52 1123.84 239.77C1121.81 238.02 1119.23 236.841 1116.44 236.381C1113.65 235.921 1110.77 236.202 1108.16 237.188C1105.55 238.174 1103.33 239.821 1101.78 241.919C1100.23 244.018 1099.42 246.475 1099.45 248.979C1099.49 251.484 1100.36 253.923 1101.97 255.988C1103.58 258.053 1105.84 259.652 1108.48 260.582C1111.11 261.512 1114 261.732 1116.78 261.213C1120.5 260.518 1123.76 258.547 1125.84 255.734C1127.91 252.921 1128.64 249.496 1127.85 246.212Z" fill="#E8AA46"/>
<path d="M674.429 317.002C673.667 313.529 671.762 310.331 668.952 307.807C666.142 305.284 662.551 303.546 658.628 302.811C654.651 302.056 650.508 302.367 646.732 303.703C642.956 305.04 639.719 307.341 637.437 310.312L622.725 329.558C621.209 331.518 620.148 333.721 619.601 336.044C619.054 338.366 619.033 340.76 619.539 343.09C620.045 345.419 621.067 347.637 622.548 349.617C624.029 351.597 625.939 353.299 628.167 354.625C630.39 355.95 632.887 356.875 635.516 357.347C638.144 357.82 640.853 357.831 643.486 357.379C646.119 356.928 648.625 356.023 650.862 354.716C653.098 353.41 655.021 351.727 656.519 349.765L671.248 330.519C672.767 328.564 673.831 326.362 674.377 324.042C674.923 321.722 674.94 319.329 674.429 317.002Z" fill="#FFCEB3"/>
<path d="M630.532 287.225C628.309 285.901 625.812 284.976 623.184 284.503C620.555 284.031 617.847 284.02 615.214 284.471C612.58 284.923 610.074 285.828 607.838 287.134C605.601 288.441 603.679 290.123 602.18 292.086L587.451 311.332C584.422 315.299 583.304 320.164 584.342 324.858C585.38 329.552 588.49 333.69 592.987 336.361C597.485 339.033 603.001 340.019 608.323 339.104C613.644 338.188 618.336 335.445 621.365 331.478L636.077 312.232C637.576 310.27 638.623 308.066 639.156 305.746C639.689 303.427 639.699 301.037 639.184 298.714C638.669 296.392 637.639 294.181 636.155 292.21C634.67 290.239 632.76 288.545 630.532 287.225Z" fill="#FFCEB3"/>
<path d="M713.375 330.594C712.614 327.09 710.69 323.864 707.846 321.326C705.002 318.788 701.367 317.053 697.403 316.341C693.439 315.629 689.324 315.972 685.582 317.326C681.839 318.681 678.637 320.986 676.383 323.949L661.654 343.195C660.155 345.155 659.107 347.357 658.572 349.674C658.037 351.991 658.024 354.378 658.535 356.7C659.046 359.021 660.07 361.231 661.55 363.203C663.029 365.176 664.934 366.872 667.156 368.195C669.379 369.517 671.875 370.441 674.502 370.913C677.129 371.385 679.836 371.396 682.468 370.946C685.099 370.495 687.605 369.591 689.841 368.287C692.077 366.982 694 365.302 695.5 363.342L710.024 344.305L710.211 344.11C711.726 342.154 712.785 339.952 713.328 337.632C713.871 335.312 713.887 332.92 713.375 330.594Z" fill="#FFCEB3"/>
<path d="M752.203 353.744L743.954 364.59L737.916 372.495L737.321 373.26C734.603 376.891 730.488 379.531 725.734 380.691C720.981 381.852 715.912 381.456 711.464 379.575C707.017 377.694 703.492 374.456 701.542 370.46C699.592 366.465 699.348 361.981 700.856 357.839C701.463 356.165 702.333 354.575 703.441 353.114L706.452 349.184L707.523 347.788L717.966 334.122C720.293 331.114 723.579 328.782 727.408 327.42C731.238 326.059 735.439 325.728 739.481 326.472C743.863 327.293 747.821 329.352 750.757 332.337C753.622 335.295 755.311 338.999 755.566 342.884C755.821 346.768 754.628 350.619 752.169 353.849L752.203 353.744Z" fill="#FFCEB3"/>
</g>
<g filter="url(#filter0_b_1_33)">
<rect y="1" width="1440" height="380" fill="black" fill-opacity="0.3"/>
</g>
<defs>
<filter id="filter0_b_1_33" x="-5" y="-4" width="1450" height="390" filterUnits="userSpaceOnUse" color-interpolation-filters="sRGB">
<feFlood flood-opacity="0" result="BackgroundImageFix"/>
<feGaussianBlur in="BackgroundImageFix" stdDeviation="2.5"/>
<feComposite in2="SourceAlpha" operator="in" result="effect1_backgroundBlur_1_33"/>
<feBlend mode="normal" in="SourceGraphic" in2="effect1_backgroundBlur_1_33" result="shape"/>
</filter>
</defs>
</svg>
