<svg width="485" height="282" viewBox="0 0 485 282" fill="none" xmlns="http://www.w3.org/2000/svg">
<path d="M0 8C0 3.58173 3.58172 0 8 0H77V71.6719H0V8Z" fill="#F9893D" fill-opacity="0.5"/>
<rect x="16.5" y="16.6523" width="90" height="82.7855" rx="7.5" fill="#1A1A1A" stroke="#D6B88D"/>
<rect x="19" y="20.1895" width="84" height="74.7003" rx="8" fill="#1A1A1A"/>
<path d="M294.5 113.006L16 113.006L2 88.832" stroke="#F96B31" stroke-width="0.5" stroke-miterlimit="10"/>
<path d="M234.5 108.35C235.816 108.35 237 107.287 237 105.826C237 104.498 235.947 103.302 234.5 103.302C233.184 103.302 232 104.365 232 105.826C232 107.287 233.053 108.35 234.5 108.35Z" fill="#FF842C"/>
<path d="M17.5 105.994L41.3879 105.994L233 105.994" stroke="#F9893D" stroke-width="0.5" stroke-miterlimit="10"/>
<path d="M297.055 117.208C299.189 117.208 301.11 115.485 301.11 113.115C301.11 110.96 299.402 109.021 297.055 109.021C294.921 109.021 293 110.745 293 113.115C293.213 115.269 294.921 117.208 297.055 117.208Z" fill="#F96B31"/>
<g clip-path="url(#clip0_63_2577)">
<path d="M39.5002 36.7166L33.2502 29.3354L27 36.7166H30.2689V47.4882H36.2313V36.7166H39.5002Z" fill="#EEEEEE"/>
<path d="M32.0485 34.3877L34.9179 31.3049L33.2502 29.3354L27 36.7166H30.2689V47.4882H32.5616V35.9525C31.8345 35.8143 31.5443 34.9295 32.0485 34.3877Z" fill="#E0E0E0"/>
<path d="M74.8049 36.7166L68.5547 29.3354L62.3047 36.7166H65.5736V47.4882H71.536V36.7166H74.8049Z" fill="#EEEEEE"/>
<path d="M67.3532 34.3877L70.2226 31.3049L68.5547 29.3354L62.3047 36.7166H65.5736V47.4882H67.8662V35.9525C67.139 35.8143 66.849 34.9295 67.3532 34.3877Z" fill="#E0E0E0"/>
<path d="M57.0784 29.3811L50.8283 22L44.5781 29.3811H47.847V40.1527H53.8094V29.3811H57.0784Z" fill="#EEEEEE"/>
<path d="M49.6267 27.0523L52.4961 23.9694L50.8283 22L44.5781 29.3811H47.847V40.1527H50.1397V28.6171C49.4125 28.4789 49.1224 27.594 49.6267 27.0523Z" fill="#E0E0E0"/>
<path d="M61.8493 55.7099V48.1579C61.8493 43.7772 58.7404 40.0084 54.4285 39.162C47.8579 35.2257 39.4922 39.943 39.4922 47.5844V55.7098C39.4922 58.8967 42.084 61.4802 45.2811 61.4802H56.0604C59.2575 61.4803 61.8493 58.8967 61.8493 55.7099Z" fill="#4C4C4C"/>
<path d="M55.1912 63.2008V55.6074H45.8579V63.2008L42.0341 64.6645C39.7969 65.5208 38.3203 67.6627 38.3203 70.0514V80.4743H63.4072V70.1712C63.4072 67.7234 61.858 65.5419 59.5418 64.7287L55.1912 63.2008Z" fill="#F9893D"/>
<path d="M40.7658 71.7324C40.7658 69.3437 42.2424 67.2018 44.4796 66.3455L48.3034 64.8818V57.2885H55.1912V55.6074H45.8579V63.2008L42.0341 64.6645C39.7969 65.5208 38.3203 67.6627 38.3203 70.0514V80.4743H40.7657L40.7658 71.7324Z" fill="#F96B31"/>
<path d="M55.1897 55.6074H45.8563V63.2008L45.8516 63.2026L50.1554 69.0446L50.1516 75.4762C50.1512 75.8892 50.4858 76.2244 50.8987 76.2247H50.8995C51.3123 76.2247 51.6469 75.8902 51.6474 75.4774L51.6511 68.8655L55.1895 63.2003L55.1897 55.6074Z" fill="#F9B995"/>
<path d="M50.863 59.9612C54.7828 59.9612 57.9604 56.3489 57.9604 51.893C57.9604 47.437 54.7828 43.8247 50.863 43.8247C46.9432 43.8247 43.7656 47.437 43.7656 51.893C43.7656 56.3489 46.9432 59.9612 50.863 59.9612Z" fill="#FDD2B5"/>
<path d="M54.4285 39.162C47.8579 35.2257 39.4922 39.943 39.4922 47.5844V50.3585L41.582 49.9797C45.5487 49.2605 49.0919 47.0627 51.4914 43.8331C54.7087 47.5727 58.1723 51.0961 61.8493 54.3874V48.1579C61.8493 43.7772 58.7404 40.0084 54.4285 39.162Z" fill="#3A3A3A"/>
<path d="M63.7937 92.0001H37.928L34.4453 72.1606H67.2765L63.7937 92.0001Z" fill="#8585F2"/>
<path d="M40.203 74.9114H66.7937L67.2765 72.1606H34.4453L37.9281 92.0001H40.6548L38.0955 77.4207C37.8656 76.1112 38.8733 74.9114 40.203 74.9114Z" fill="#6868DD"/>
<path d="M52.9079 82.757H48.8104C48.3972 82.757 48.0625 82.4221 48.0625 82.0091C48.0625 81.5961 48.3972 81.2612 48.8104 81.2612H52.9079C53.321 81.2612 53.6558 81.5961 53.6558 82.0091C53.6558 82.4221 53.321 82.757 52.9079 82.757Z" fill="white"/>
<path d="M96.9982 66.8616V62.2599L93.7173 61.461C93.4779 60.6182 93.1422 59.8159 92.7239 59.0655L94.4825 56.1801L91.2159 52.9261L88.3272 54.6731C87.5751 54.2542 86.7706 53.9175 85.9253 53.6765L85.1209 50.3989H80.5011L79.6991 53.6671C78.8529 53.9057 78.0475 54.24 77.2942 54.6567L74.3975 52.9049L71.1308 56.1588L72.8845 59.0361C72.4639 59.7854 72.1259 60.5868 71.884 61.4286L68.5938 62.2298V66.8316L71.8746 67.6304C72.1141 68.4733 72.4497 69.2756 72.8681 70.026L71.1094 72.9114L74.3761 76.1654L77.2648 74.4183C78.0168 74.8373 78.8214 75.174 79.6666 75.415L80.471 78.6925H85.0909L85.8929 75.4244C86.739 75.1858 87.5445 74.8515 88.2979 74.4348L91.1946 76.1866L94.4613 72.9326L92.7076 70.0553C93.1282 69.3061 93.4662 68.5047 93.708 67.6629L96.9982 66.8616Z" fill="#F9893D"/>
<path d="M78.8084 73.1474C78.5882 73.046 78.3694 72.9349 78.158 72.817C77.5828 72.4963 76.8795 72.5086 76.3157 72.8496L74.6544 73.8543L73.4275 72.6323L74.4343 70.9806C74.7781 70.4162 74.7919 69.7106 74.4702 69.1334C74.1161 68.4983 73.8364 67.8241 73.639 67.1294C73.4584 66.4943 72.9504 66.0052 72.3088 65.849L70.428 65.391V63.6708L72.3183 63.2104C72.958 63.0546 73.4652 62.5679 73.6469 61.9352C73.8461 61.2417 74.1278 60.5685 74.4841 59.9339C74.8085 59.3559 74.7959 58.6479 74.4509 58.0819L73.449 56.4382L74.6758 55.2162L76.3452 56.2258C76.907 56.5655 77.6077 56.579 78.1823 56.2613C78.8212 55.9078 79.4989 55.6287 80.1969 55.432C80.8327 55.2529 81.323 54.7455 81.4805 54.104L81.9397 52.2327H83.6826L84.1441 54.1134C84.3011 54.753 84.789 55.2593 85.4225 55.44C85.5795 55.4847 85.7376 55.5344 85.8923 55.5873C86.8026 55.8993 87.7881 55.4534 88.1662 54.5864C87.4604 54.2079 86.7107 53.9004 85.9253 53.6764L85.1209 50.3989H80.5011L79.6991 53.6671C78.8531 53.9057 78.0475 54.24 77.2942 54.6567L74.3975 52.9049L71.1308 56.1588L72.8845 59.0363C72.4639 59.7855 72.1259 60.5868 71.884 61.4287L68.5938 62.23V66.8319L71.8748 67.6307C72.1142 68.4736 72.4499 69.2759 72.8682 70.0263L71.1096 72.9117L74.3762 76.1657L77.2649 74.4186C78.017 74.8376 78.8215 75.1743 79.6668 75.4153L79.707 75.5793C80.1301 74.6598 79.7281 73.5712 78.8084 73.1474Z" fill="#F9893D"/>
<path d="M78.1016 60.3626H81.2468C81.7093 60.2696 81.9697 59.7356 81.7163 59.3029C81.0212 58.3631 81.1829 57.002 82.1994 56.369C82.8373 55.9649 83.6498 55.9649 84.2877 56.369C85.3044 57.0022 85.4659 58.3631 84.7709 59.3029C84.5175 59.7356 84.7779 60.2694 85.2404 60.3626H88.3937V63.6303C88.3006 64.0928 87.7666 64.3532 87.3339 64.0998C86.394 63.4049 85.0328 63.5666 84.3998 64.583C83.9955 65.2209 83.9955 66.0332 84.3998 66.6711C85.0331 67.6875 86.394 67.8492 87.3339 67.1543C87.7666 66.9009 88.3006 67.1613 88.3937 67.6238V70.716H78.1156L78.1016 60.3626Z" fill="#EEEEEE"/>
<path d="M80.4054 66.287L80.3974 60.3623H78.1016L78.1158 70.7157H88.3938V68.4234H82.5452C81.3645 68.4235 80.4071 67.4675 80.4054 66.287Z" fill="#E0E0E0"/>
<path d="M59.7403 82.2634C60.6583 82.2634 61.4025 81.0986 61.4025 79.6617C61.4025 78.2249 60.6583 77.0601 59.7403 77.0601C58.8223 77.0601 58.0781 78.2249 58.0781 79.6617C58.0781 81.0986 58.8223 82.2634 59.7403 82.2634Z" fill="white"/>
<path d="M56.2851 85.2442C56.3307 86.1847 55.8533 86.9236 55.2188 86.8945C54.5843 86.8655 54.033 86.0795 53.9874 85.139C53.9418 84.1985 54.4192 83.4596 55.0537 83.4886C55.6882 83.5176 56.2395 84.3036 56.2851 85.2442Z" fill="white"/>
</g>
<defs>
<clipPath id="clip0_63_2577">
<rect width="70" height="70" fill="white" transform="translate(27 22)"/>
</clipPath>
</defs>
</svg>
