<svg width="486" height="282" viewBox="0 0 486 282" fill="none" xmlns="http://www.w3.org/2000/svg">
<rect width="486" height="282" rx="8" fill="#181818"/>
<rect x="0.5" y="0.5" width="485" height="281" rx="7.5" stroke="#F9893D" stroke-opacity="0.5"/>
<path d="M0 8C0 3.58173 3.58172 0 8 0H77V71.6719H0V8Z" fill="#F9893D" fill-opacity="0.5"/>
<rect x="16.5" y="16.6523" width="90" height="82.7855" rx="7.5" fill="#1A1A1A" stroke="#D6B88D"/>
<rect x="19" y="20.1895" width="84" height="74.7003" rx="8" fill="#1A1A1A"/>
<path d="M294.5 113.006L16 113.006L2 88.832" stroke="#F96B31" stroke-width="0.5" stroke-miterlimit="10"/>
<path d="M234.5 108.35C235.816 108.35 237 107.287 237 105.826C237 104.498 235.947 103.302 234.5 103.302C233.184 103.302 232 104.365 232 105.826C232 107.287 233.053 108.35 234.5 108.35Z" fill="#FF842C"/>
<path d="M17.5 105.994L41.3879 105.994L233 105.994" stroke="#F9893D" stroke-width="0.5" stroke-miterlimit="10"/>
<path d="M297.055 117.208C299.189 117.208 301.11 115.485 301.11 113.115C301.11 110.96 299.402 109.021 297.055 109.021C294.921 109.021 293 110.745 293 113.115C293.213 115.269 294.921 117.208 297.055 117.208Z" fill="#F96B31"/>
<g clip-path="url(#clip0_41_2080)">
<path d="M29.7804 39.8191C26.5037 45.2055 26.1583 54.5318 28.5586 60.3619C30.6609 65.4685 34.843 70.2617 40.3328 70.862C42.3516 71.0828 44.4149 70.722 46.4129 71.086C53.284 72.3372 55.84 80.8053 61.1799 85.3066C64.8962 88.4393 70.0527 89.5478 74.8756 88.9443C79.6985 88.3408 84.2138 86.1603 88.1887 83.3629C91.3274 81.1539 94.264 78.438 95.8127 74.9264C99.059 67.5656 95.2398 58.7251 89.3067 53.2922C87.4588 51.6 85.3991 50.1074 83.855 48.1342C82.311 46.1608 81.3284 43.5274 82.0641 41.1323C82.6511 39.2213 84.231 37.74 84.8295 35.8326C85.6441 33.2372 84.4146 30.3255 82.3957 28.5023C80.3767 26.6792 77.7051 25.7626 75.0585 25.1336C63.9702 22.4975 39.6726 23.5579 29.7804 39.8191Z" fill="url(#paint0_linear_41_2080)"/>
<path opacity="0.1" d="M74.8837 89.9711H49.1172C46.8519 89.9711 45.0156 88.1348 45.0156 85.8696V33.8237C45.0156 31.5584 46.8519 29.7222 49.1172 29.7222H74.8837C77.149 29.7222 78.9853 31.5584 78.9853 33.8237V85.8696C78.9853 88.1347 77.149 89.9711 74.8837 89.9711Z" fill="#1A1A1A"/>
<path d="M74.8837 86.6899H49.1172C46.8519 86.6899 45.0156 84.8536 45.0156 82.5883V30.5425C45.0156 28.2772 46.8519 26.4409 49.1172 26.4409H74.8837C77.149 26.4409 78.9853 28.2772 78.9853 30.5425V82.5883C78.9853 84.8535 77.149 86.6899 74.8837 86.6899Z" fill="#8585F2"/>
<path d="M45.0156 32.3076H78.9848V80.8236H45.0156V32.3076Z" fill="white"/>
<path d="M74.8837 87.3735H49.1172C46.4787 87.3735 44.332 85.2268 44.332 82.5883V30.5425C44.332 27.9039 46.4787 25.7573 49.1172 25.7573H74.8839C77.5224 25.7573 79.669 27.9039 79.669 30.5425V82.5883C79.6689 85.2268 77.5223 87.3735 74.8837 87.3735ZM49.1172 27.1245C47.2325 27.1245 45.6992 28.6578 45.6992 30.5425V82.5883C45.6992 84.473 47.2325 86.0063 49.1172 86.0063H74.8839C76.7686 86.0063 78.3019 84.473 78.3019 82.5883V30.5425C78.3019 28.6578 76.7686 27.1245 74.8839 27.1245H49.1172Z" fill="#1A1A1A"/>
<path d="M64.3899 30.1831H59.6094C59.2319 30.1831 58.9258 29.877 58.9258 29.4995C58.9258 29.122 59.2319 28.8159 59.6094 28.8159H64.3899C64.7674 28.8159 65.0735 29.122 65.0735 29.4995C65.0735 29.877 64.7674 30.1831 64.3899 30.1831Z" fill="#B7C5FF"/>
<path d="M67.5823 30.1827C67.96 30.1827 68.2662 29.8765 68.2662 29.4988C68.2662 29.1211 67.96 28.8149 67.5823 28.8149C67.2046 28.8149 66.8984 29.1211 66.8984 29.4988C66.8984 29.8765 67.2046 30.1827 67.5823 30.1827Z" fill="#B7C5FF"/>
<path d="M75.0488 36.9365V48.5439C75.0488 49.2986 74.4363 49.9111 73.6816 49.9111H50.3164C49.5617 49.9111 48.9492 49.2986 48.9492 48.5439V36.9365C48.9492 36.1818 49.5617 35.5693 50.3164 35.5693H73.6816C74.4363 35.5693 75.0488 36.1818 75.0488 36.9365Z" fill="#8585F2"/>
<path d="M75.0484 39.5398V48.5441C75.0484 49.2988 74.4359 49.9113 73.6813 49.9113H57.018C56.9674 49.482 56.9414 49.0445 56.9414 48.6016C56.9414 42.3494 62.0096 37.2812 68.2631 37.2812C70.8074 37.2812 73.1576 38.1221 75.0484 39.5398Z" fill="#8585F2"/>
<path d="M75.0488 75.397V80.8233H48.9492V75.397C48.9492 74.6423 49.5617 74.0298 50.3164 74.0298H73.6816C74.4363 74.0298 75.0488 74.6423 75.0488 75.397Z" fill="#02FFB3"/>
<path d="M59.683 77.4272C59.683 78.6495 59.3904 79.8034 58.8723 80.8233H48.9492V75.397C48.9492 74.6423 49.5617 74.0298 50.3164 74.0298H58.8723C59.3904 75.0511 59.683 76.205 59.683 77.4272Z" fill="#97FFD2"/>
<path d="M60.3983 59.9438H49.6328C49.2553 59.9438 48.9492 59.6377 48.9492 59.2602V53.8271C48.9492 53.4497 49.2553 53.1436 49.6328 53.1436H60.3983C60.7758 53.1436 61.0819 53.4497 61.0819 53.8271V59.2602C61.0819 59.6378 60.7758 59.9438 60.3983 59.9438Z" fill="#F9893D"/>
<path d="M74.3632 59.9438H63.5977C63.2202 59.9438 62.9141 59.6377 62.9141 59.2602V53.8271C62.9141 53.4497 63.2202 53.1436 63.5977 53.1436H74.3632C74.7406 53.1436 75.0468 53.4497 75.0468 53.8271V59.2602C75.0468 59.6378 74.7406 59.9438 74.3632 59.9438Z" fill="#02FFB3"/>
<path d="M60.3983 68.3364H49.6328C49.2553 68.3364 48.9492 68.0303 48.9492 67.6528V62.2197C48.9492 61.8422 49.2553 61.5361 49.6328 61.5361H60.3983C60.7758 61.5361 61.0819 61.8422 61.0819 62.2197V67.6528C61.0819 68.0303 60.7758 68.3364 60.3983 68.3364Z" fill="#8585F2"/>
<path d="M74.3632 68.3364H63.5977C63.2202 68.3364 62.9141 68.0303 62.9141 67.6528V62.2197C62.9141 61.8422 63.2202 61.5361 63.5977 61.5361H74.3632C74.7406 61.5361 75.0468 61.8422 75.0468 62.2197V67.6528C75.0468 68.0303 74.7406 68.3364 74.3632 68.3364Z" fill="#FCAF40"/>
<path d="M61.4095 43.5986H52.4297C52.0522 43.5986 51.7461 43.9047 51.7461 44.2822C51.7461 44.6597 52.0522 44.9658 52.4297 44.9658H61.4095C61.787 44.9658 62.0931 44.6597 62.0931 44.2822C62.0931 43.9047 61.7871 43.5986 61.4095 43.5986Z" fill="white"/>
<path d="M61.4095 40.9429H52.4297C52.0522 40.9429 51.7461 41.249 51.7461 41.6265C51.7461 42.0039 52.0522 42.3101 52.4297 42.3101H61.4095C61.787 42.3101 62.0931 42.0039 62.0931 41.6265C62.0931 41.249 61.7871 40.9429 61.4095 40.9429Z" fill="white"/>
<path d="M54.0267 37.751H52.4297C52.0522 37.751 51.7461 38.0571 51.7461 38.4346C51.7461 38.8121 52.0522 39.1182 52.4297 39.1182H54.0267C54.4042 39.1182 54.7103 38.8121 54.7103 38.4346C54.7103 38.0571 54.4043 37.751 54.0267 37.751Z" fill="#FFC4DF"/>
<path d="M55.3314 71.2363H49.6328C49.2553 71.2363 48.9492 71.5424 48.9492 71.9199C48.9492 72.2974 49.2553 72.6035 49.6328 72.6035H55.3314C55.7089 72.6035 56.015 72.2974 56.015 71.9199C56.015 71.5424 55.7089 71.2363 55.3314 71.2363Z" fill="#8585F2"/>
<path d="M75.0516 75.397V78.7589C72.4607 78.7589 70.3594 76.6589 70.3594 74.0681V74.0298H73.6844C74.4391 74.0298 75.0516 74.6423 75.0516 75.397Z" fill="#01ECA5"/>
</g>
<defs>
<linearGradient id="paint0_linear_41_2080" x1="27" y1="56.5655" x2="97" y2="56.5655" gradientUnits="userSpaceOnUse">
<stop stop-color="#FFB320"/>
<stop offset="1" stop-color="#FF842C"/>
</linearGradient>
<clipPath id="clip0_41_2080">
<rect width="70" height="70" fill="white" transform="translate(27 22)"/>
</clipPath>
</defs>
</svg>
