<svg width="486" height="282" viewBox="0 0 486 282" fill="none" xmlns="http://www.w3.org/2000/svg">
<rect width="486" height="282" rx="8" fill="#181818"/>
<rect x="0.5" y="0.5" width="485" height="281" rx="7.5" stroke="#F9893D" stroke-opacity="0.5"/>
<path d="M0 8C0 3.58173 3.58172 0 8 0H77V71.6719H0V8Z" fill="#F9893D" fill-opacity="0.5"/>
<rect x="16.5" y="16.6523" width="90" height="82.7855" rx="7.5" fill="#1A1A1A" stroke="#D6B88D"/>
<rect x="19" y="20.1895" width="84" height="74.7003" rx="8" fill="#1A1A1A"/>
<path d="M294.5 113.006L16 113.006L2 88.832" stroke="#F96B31" stroke-width="0.5" stroke-miterlimit="10"/>
<path d="M234.5 108.35C235.816 108.35 237 107.287 237 105.826C237 104.498 235.947 103.302 234.5 103.302C233.184 103.302 232 104.365 232 105.826C232 107.287 233.053 108.35 234.5 108.35Z" fill="#FF842C"/>
<path d="M17.5 105.994L41.3879 105.994L233 105.994" stroke="#F9893D" stroke-width="0.5" stroke-miterlimit="10"/>
<path d="M297.055 117.208C299.189 117.208 301.11 115.485 301.11 113.115C301.11 110.96 299.402 109.021 297.055 109.021C294.921 109.021 293 110.745 293 113.115C293.213 115.269 294.921 117.208 297.055 117.208Z" fill="#F96B31"/>
<g clip-path="url(#clip0_41_2081)">
<path d="M62 92C81.33 92 97 76.33 97 57C97 37.67 81.33 22 62 22C42.67 22 27 37.67 27 57C27 76.33 42.67 92 62 92Z" fill="#F9893D"/>
<path opacity="0.1" d="M82.2399 33.4864L82.2125 33.4645C81.5727 32.841 80.6922 32.4527 79.7242 32.4527C77.9797 32.4527 76.5195 33.7161 76.2133 35.373H66.6047L64.8164 33.5847C64.4883 33.1636 64.0727 32.8244 63.5969 32.5839C63.1157 32.3433 62.5742 32.2065 62 32.2065C60.168 32.2065 58.6531 33.5956 58.4508 35.373H48.6672L46.8789 33.5847L46.8735 33.59C46.2227 32.8957 45.3039 32.4527 44.2758 32.4527C42.307 32.4527 40.6992 34.0549 40.6992 36.0293C40.6992 37.0411 41.1258 37.9543 41.8039 38.6104L46.6274 43.4284C44.8336 46.1794 43.7563 49.4331 43.6469 52.9168C41.9734 53.2174 40.6992 54.6778 40.6992 56.4333C40.6992 57.4504 41.1258 58.3636 41.8039 59.0144L56.7282 73.9333V81.8026C56.7282 82.4371 57.0016 83.0002 57.4336 83.3941L57.4281 83.3994L65.8178 91.7889C83.352 89.8872 97.0018 75.0398 97.0018 56.9999C97.0018 53.4177 96.4611 49.9621 95.4611 46.7075L82.2672 33.5136C82.2563 33.508 82.2453 33.4971 82.2399 33.4864Z" fill="black"/>
<path d="M56.7266 52.5586H67.2758V75.392H56.7266V52.5586Z" fill="#7D7DDE"/>
<path d="M56.7266 52.5586H60.243V75.392H56.7266V52.5586Z" fill="#7D7DDE"/>
<path d="M60.2422 52.5586H63.7586V75.392H60.2422V52.5586Z" fill="#8585F2"/>
<path d="M62.0977 41.9248L59.6441 46.1521L56.7266 52.5587H67.2757L64.3582 46.1521L62.0977 41.9248Z" fill="#FED35B"/>
<path d="M59.6445 46.152H64.3585L62.0015 40.9761L59.6445 46.152Z" fill="#344D5B"/>
<path d="M44.2763 60.0116C42.304 60.0116 40.6992 58.4069 40.6992 56.4345C40.6992 54.4621 42.304 52.8574 44.2763 52.8574C46.2486 52.8574 47.8534 54.4621 47.8534 56.4345C47.8534 58.4069 46.2486 60.0116 44.2763 60.0116ZM44.2763 54.1644C43.0244 54.1644 42.0062 55.1828 42.0062 56.4345C42.0062 57.6862 43.0244 58.7046 44.2763 58.7046C45.5281 58.7046 46.5464 57.6862 46.5464 56.4345C46.5464 55.1828 45.5281 54.1644 44.2763 54.1644Z" fill="#EDEDED"/>
<path d="M79.7255 60.0116C77.7532 60.0116 76.1484 58.4069 76.1484 56.4345C76.1484 54.4621 77.7532 52.8574 79.7255 52.8574C81.6978 52.8574 83.3024 54.4621 83.3024 56.4345C83.3024 58.4069 81.6978 60.0116 79.7255 60.0116ZM79.7255 54.1644C78.4737 54.1644 77.4554 55.1828 77.4554 56.4345C77.4554 57.6862 78.4737 58.7046 79.7255 58.7046C80.9771 58.7046 81.9954 57.6862 81.9954 56.4345C81.9954 55.1828 80.9771 54.1644 79.7255 54.1644Z" fill="#EDEDED"/>
<path d="M44.2763 39.6053C42.304 39.6053 40.6992 38.0007 40.6992 36.0282C40.6992 34.0558 42.304 32.4512 44.2763 32.4512C46.2486 32.4512 47.8534 34.0558 47.8534 36.0282C47.8534 38.0007 46.2486 39.6053 44.2763 39.6053ZM44.2763 33.7581C43.0244 33.7581 42.0062 34.7765 42.0062 36.0282C42.0062 37.28 43.0244 38.2984 44.2763 38.2984C45.5281 38.2984 46.5464 37.28 46.5464 36.0282C46.5464 34.7765 45.5281 33.7581 44.2763 33.7581Z" fill="#EDEDED"/>
<path d="M79.7255 39.6053C77.7532 39.6053 76.1484 38.0007 76.1484 36.0282C76.1484 34.0558 77.7532 32.4512 79.7255 32.4512C81.6978 32.4512 83.3024 34.0558 83.3024 36.0282C83.3024 38.0007 81.6978 39.6053 79.7255 39.6053ZM79.7255 33.7581C78.4737 33.7581 77.4554 34.7765 77.4554 36.0282C77.4554 37.28 78.4737 38.2984 79.7255 38.2984C80.9771 38.2984 81.9954 37.28 81.9954 36.0282C81.9954 34.7765 80.9771 33.7581 79.7255 33.7581Z" fill="#EDEDED"/>
<path d="M61.9989 39.3631C60.0266 39.3631 58.4219 37.7585 58.4219 35.7861C58.4219 33.8137 60.0266 32.209 61.9989 32.209C63.9713 32.209 65.576 33.8137 65.576 35.7861C65.576 37.7585 63.9713 39.3631 61.9989 39.3631ZM61.9989 33.5159C60.7471 33.5159 59.7288 34.5343 59.7288 35.7861C59.7288 37.0378 60.7471 38.0562 61.9989 38.0562C63.2508 38.0562 64.2691 37.0378 64.2691 35.7861C64.2691 34.5343 63.2508 33.5159 61.9989 33.5159Z" fill="#EDEDED"/>
<path d="M44.928 53.5105H43.6211C43.6211 46.0467 48.0322 39.5448 54.5865 36.6815H47.1982V35.3745H59.0879L59.1944 36.6727C50.928 38.0394 44.928 45.1207 44.928 53.5105Z" fill="#EDEDED"/>
<path d="M80.3778 53.5105H79.0709C79.0709 45.1206 73.0711 38.0393 64.8047 36.6727L64.9113 35.3745H76.8009V36.6815H69.4124C75.9667 39.5448 80.3778 46.0467 80.3778 53.5105Z" fill="#EDEDED"/>
<path d="M56.7266 77.2188V81.8005C56.7266 83.0034 57.7018 83.9787 58.9048 83.9787H65.0976C66.3006 83.9787 67.2758 83.0034 67.2758 81.8005V77.2188H56.7266Z" fill="#D6B24E"/>
<path d="M56.7266 75.0762H67.2758V77.4374H56.7266V75.0762Z" fill="#EDEDED"/>
</g>
<defs>
<clipPath id="clip0_41_2081">
<rect width="70" height="70" fill="white" transform="translate(27 22)"/>
</clipPath>
</defs>
</svg>
