<svg width="486" height="282" viewBox="0 0 486 282" fill="none" xmlns="http://www.w3.org/2000/svg">
<rect width="486" height="282" rx="8" fill="#181818"/>
<rect x="0.5" y="0.5" width="485" height="281" rx="7.5" stroke="#F9893D" stroke-opacity="0.5"/>
<path d="M0 8C0 3.58173 3.58172 0 8 0H77V71.6719H0V8Z" fill="#F9893D" fill-opacity="0.5"/>
<rect x="16.5" y="16.6523" width="90" height="82.7855" rx="7.5" fill="#1A1A1A" stroke="#D6B88D"/>
<rect x="19" y="20.1895" width="84" height="74.7003" rx="8" fill="#1A1A1A"/>
<path d="M294.5 113.006L16 113.006L2 88.832" stroke="#F96B31" stroke-width="0.5" stroke-miterlimit="10"/>
<path d="M234.5 108.35C235.816 108.35 237 107.287 237 105.826C237 104.498 235.947 103.302 234.5 103.302C233.184 103.302 232 104.365 232 105.826C232 107.287 233.053 108.35 234.5 108.35Z" fill="#FF842C"/>
<path d="M17.5 105.994L41.3879 105.994L233 105.994" stroke="#F9893D" stroke-width="0.5" stroke-miterlimit="10"/>
<path d="M297.055 117.208C299.189 117.208 301.11 115.485 301.11 113.115C301.11 110.96 299.402 109.021 297.055 109.021C294.921 109.021 293 110.745 293 113.115C293.213 115.269 294.921 117.208 297.055 117.208Z" fill="#F96B31"/>
<g clip-path="url(#clip0_41_2082)">
<circle cx="62" cy="57" r="30" fill="white"/>
<path fill-rule="evenodd" clip-rule="evenodd" d="M62.0116 22.0088C81.3414 22.0088 97.0124 37.6847 97.0124 57.0139C97.0124 76.343 81.3414 92.0085 62.0116 92.0085C42.6817 92.0085 27.0117 76.3423 27.0117 57.0139C27.0117 37.6854 42.6824 22.0088 62.0116 22.0088ZM70.0001 64.345L71.2659 65.6135L72.2859 64.5939L71.0201 63.3256C70.8588 63.5033 70.6895 63.6771 70.5201 63.8469C70.3507 64.0167 70.177 64.1826 70.0001 64.345ZM57.0032 69.5987C56.9436 69.5172 56.9093 69.4201 56.9043 69.3193C56.8993 69.2185 56.9238 69.1184 56.975 69.0314C57.3375 68.4182 57.6116 67.7568 57.7893 67.0669C57.815 66.9691 57.8688 66.881 57.9442 66.8135C58.0195 66.7461 58.1131 66.7022 58.2131 66.6875L59.7652 66.4541V63.9145L58.2131 63.6811C58.113 63.6665 58.0194 63.6228 57.944 63.5553C57.8686 63.4878 57.8148 63.3996 57.7893 63.3017C57.6131 62.6113 57.3389 61.9498 56.975 61.3373C56.9239 61.2505 56.8994 61.1507 56.9044 61.0501C56.9094 60.9495 56.9437 60.8526 57.0032 60.7713L57.9426 59.5058L56.1444 57.7091L54.8787 58.6448C54.798 58.7048 54.7013 58.7396 54.6009 58.7448C54.5005 58.7499 54.4007 58.7252 54.3143 58.6738C53.7005 58.3104 53.0381 58.0363 52.3471 57.8595C52.2498 57.8337 52.1621 57.7801 52.0948 57.7053C52.0275 57.6305 51.9835 57.5377 51.9681 57.4382L51.7343 55.8829H49.1945L48.9607 57.4382C48.946 57.5379 48.9022 57.6311 48.8348 57.706C48.7674 57.781 48.6793 57.8343 48.5817 57.8595C47.8917 58.0355 47.2306 58.3098 46.6186 58.6738C46.5314 58.7253 46.431 58.75 46.33 58.7448C46.2289 58.7397 46.1315 58.7049 46.0501 58.6448L44.7883 57.7091L42.9903 59.5058L43.9256 60.7713C43.985 60.8526 44.0193 60.9495 44.0243 61.0501C44.0293 61.1507 44.0048 61.2505 43.9538 61.3373C43.5912 61.9505 43.3171 62.6118 43.1395 63.3017C43.1144 63.399 43.0613 63.4869 42.9868 63.5543C42.9122 63.6218 42.8195 63.6659 42.7202 63.6811L41.1648 63.9145V66.4546L42.7208 66.6879C42.8201 66.7035 42.9126 66.7477 42.9871 66.8151C43.0616 66.8825 43.1148 66.9701 43.1402 67.0673C43.318 67.7569 43.5919 68.4181 43.9539 69.0314C44.005 69.1184 44.0295 69.2183 44.0245 69.3191C44.0195 69.4198 43.9852 69.5168 43.9257 69.5983L42.9904 70.8628L44.7879 72.6599L46.0497 71.7244C46.1312 71.6644 46.2285 71.6297 46.3295 71.6245C46.4306 71.6194 46.5309 71.644 46.6181 71.6953C47.2304 72.059 47.8915 72.3335 48.5813 72.5105C48.6789 72.5354 48.767 72.5886 48.8344 72.6634C48.9018 72.7382 48.9456 72.8313 48.9603 72.9309L49.1941 74.4862H51.7339L51.9677 72.9309C51.9829 72.8315 52.0269 72.7387 52.0942 72.664C52.1616 72.5893 52.2493 72.5359 52.3467 72.5105C53.0377 72.3331 53.7 72.0586 54.3139 71.6953C54.4004 71.644 54.5001 71.6194 54.6005 71.6246C54.7009 71.6298 54.7975 71.6645 54.8783 71.7244L56.144 72.6599L57.9426 70.8635L57.0032 69.5987ZM48.8357 42.1607C46.9765 44.0169 45.6448 46.3344 44.9774 48.8754C44.3101 51.4164 44.331 54.0892 45.0382 56.6194C45.0382 56.6206 45.0382 56.6215 45.0423 56.6223L46.3927 57.6228C46.9034 57.3468 47.441 57.1241 47.9972 56.9581L48.2471 55.2952C48.2492 55.276 48.2532 55.257 48.2592 55.2387C47.8932 53.6795 47.8611 52.0604 48.1651 50.4879C48.469 48.9154 49.1022 47.425 50.0229 46.1145C50.9436 44.804 52.131 43.703 53.5073 42.8838C54.8836 42.0647 56.4176 41.5459 58.0085 41.3615C59.5995 41.1771 61.2115 41.3313 62.7386 41.814C64.2658 42.2967 65.6736 43.0968 66.8696 44.1621C68.0657 45.2273 69.0229 46.5334 69.6784 47.9947C70.334 49.456 70.6731 51.0394 70.6734 52.641C70.6731 55.3973 69.6706 58.0595 67.8527 60.1313C66.0348 62.2031 63.5255 63.5432 60.7926 63.9017V66.8966C60.7926 67.0199 60.7482 67.139 60.6675 67.2323C60.5868 67.3255 60.4752 67.3865 60.3532 67.4041L60.0993 67.4429C62.5001 67.3157 64.834 66.6064 66.8996 65.3762C68.9652 64.1459 70.7005 62.4317 71.9559 60.3813C73.2112 58.3309 73.949 56.0058 74.1054 53.6067C74.2619 51.2076 73.8324 48.8065 72.854 46.6104C71.8756 44.4143 70.3777 42.4891 68.4894 41.001C66.6011 39.5129 64.3791 38.5065 62.0151 38.0685C59.6512 37.6306 57.2161 37.7743 54.9201 38.4872C52.624 39.2002 50.5359 40.4608 48.8357 42.1607ZM80.7638 71.3638L75.9706 66.573L73.2454 69.2986L78.0386 74.09L80.7638 71.3638ZM74.2286 63.3778C74.1322 63.282 74.0018 63.2281 73.8658 63.2281C73.7298 63.2281 73.5994 63.282 73.5029 63.3778L73.0107 63.8684L71.6884 62.5449C73.3863 60.423 74.5101 57.9 74.9516 55.2184C75.3931 52.5368 75.1376 49.7867 74.2096 47.2324C73.2817 44.678 71.7124 42.4052 69.6526 40.6323C67.5928 38.8595 65.1117 37.6461 62.4477 37.1088C59.7836 36.5714 57.0261 36.7283 54.4402 37.5641C51.8542 38.4 49.5267 39.8868 47.6811 41.8818C45.8356 43.8767 44.5341 46.3128 43.9017 48.9558C43.2693 51.5989 43.3272 54.3602 44.0698 56.9745L41.9495 59.0936C41.8636 59.181 41.8116 59.2961 41.8028 59.4183C41.7939 59.5405 41.8287 59.6619 41.9011 59.7608L42.9008 61.1143C42.6271 61.6255 42.4043 62.1624 42.2356 62.7172L40.5756 62.9659C40.4536 62.9833 40.342 63.0442 40.2613 63.1373C40.1806 63.2304 40.1361 63.3495 40.1362 63.4727V66.8964C40.136 67.0198 40.1803 67.1391 40.2611 67.2325C40.3418 67.3258 40.4535 67.3869 40.5756 67.4045L42.2364 67.6533C42.4052 68.2082 42.628 68.7451 42.9016 69.2565L41.9019 70.609C41.8296 70.7079 41.7947 70.8293 41.8036 70.9515C41.8124 71.0737 41.8644 71.1888 41.9503 71.2762L44.3731 73.6982C44.4604 73.7852 44.576 73.838 44.6989 73.847C44.8218 73.8561 44.9439 73.8207 45.043 73.7474L46.3934 72.7468C46.9042 73.0227 47.4418 73.2457 47.9979 73.4124L48.2469 75.0744C48.2649 75.1954 48.3256 75.3059 48.4181 75.3859C48.5105 75.466 48.6285 75.5103 48.7508 75.5109H52.1774C52.3002 75.5105 52.4187 75.4663 52.5118 75.3863C52.6049 75.3063 52.6664 75.1957 52.6853 75.0744L52.9314 73.4115C53.4875 73.2448 54.0251 73.0217 54.5359 72.7458L55.8904 73.7464C55.9887 73.8196 56.11 73.8549 56.2322 73.8458C56.3543 73.8368 56.4691 73.784 56.5555 73.6972L58.9783 71.2753C59.0642 71.1878 59.1162 71.0728 59.125 70.9505C59.1339 70.8283 59.0991 70.707 59.0267 70.6081L58.0271 69.2555C58.1658 68.9976 58.291 68.7325 58.4019 68.4614C58.7083 68.4795 59.0147 68.488 59.317 68.488C62.9165 68.4894 66.409 67.2635 69.2179 65.0126L70.5441 66.3372L70.0519 66.8279C70.004 66.8754 69.9661 66.9318 69.9402 66.994C69.9143 67.0562 69.9009 67.1229 69.9009 67.1902C69.9009 67.2576 69.9143 67.3243 69.9402 67.3865C69.9661 67.4487 70.004 67.5051 70.0519 67.5525L78.8482 76.3514C79.4035 76.8978 80.1521 77.2028 80.9312 77.1998C81.7102 77.1967 82.4565 76.886 83.0075 76.3352C83.5585 75.7845 83.8695 75.0383 83.8728 74.2593C83.8762 73.4802 83.5715 72.7314 83.0253 72.176L74.2286 63.3778ZM50.4639 59.9735C49.433 59.9736 48.4253 60.2793 47.5682 60.8521C46.7111 61.4248 46.0431 62.2389 45.6486 63.1913C45.2541 64.1437 45.151 65.1917 45.3521 66.2028C45.5532 67.2138 46.0497 68.1426 46.7786 68.8715C47.5075 69.6004 48.4363 70.0968 49.4473 70.2979C50.4584 70.499 51.5064 70.3958 52.4588 70.0013C53.4112 69.6068 54.2252 68.9388 54.798 68.0817C55.3707 67.2245 55.6764 66.2168 55.6764 65.1859C55.675 63.8039 55.1254 62.479 54.1481 61.5018C53.1709 60.5246 51.8459 59.9749 50.4639 59.9735ZM53.1246 52.2923L57.4859 56.6536C57.5329 56.701 57.5888 56.7386 57.6504 56.7642C57.712 56.7899 57.7781 56.8031 57.8448 56.8032C57.9819 56.8032 58.1136 56.7495 58.2116 56.6536L65.5042 49.3577C65.5993 49.2613 65.6523 49.1312 65.6519 48.9957C65.6514 48.8603 65.5973 48.7306 65.5015 48.6348C65.4058 48.5391 65.276 48.4851 65.1406 48.4847C65.0052 48.4842 64.875 48.5373 64.7786 48.6324L57.8458 55.5646L53.8507 51.5664C53.7545 51.4702 53.6241 51.4161 53.488 51.4161C53.3519 51.416 53.2214 51.47 53.1252 51.5662C53.029 51.6624 52.9749 51.7929 52.9748 51.9289C52.9748 52.065 53.0284 52.196 53.1246 52.2923ZM52.403 65.554H50.4966V62.3906C50.4944 62.2557 50.4393 62.1271 50.3431 62.0325C50.247 61.9379 50.1175 61.8849 49.9826 61.8849C49.8477 61.8849 49.7182 61.9379 49.6221 62.0325C49.5259 62.1271 49.4708 62.2557 49.4686 62.3906V66.066C49.4686 66.2019 49.5226 66.3322 49.6185 66.4283C49.7145 66.5244 49.8447 66.5786 49.9806 66.5788H52.4031C52.5371 66.5757 52.6644 66.5204 52.7581 66.4246C52.8517 66.3287 52.9041 66.2001 52.9041 66.0661C52.9041 65.9322 52.8517 65.8035 52.7581 65.7077C52.6644 65.6119 52.5369 65.5571 52.403 65.554Z" fill="#F9893D"/>
</g>
<defs>
<clipPath id="clip0_41_2082">
<rect width="70" height="70" fill="white" transform="translate(27 22)"/>
</clipPath>
</defs>
</svg>
