<svg width="486" height="282" viewBox="0 0 486 282" fill="none" xmlns="http://www.w3.org/2000/svg">
<rect width="486" height="282" rx="8" fill="#181818"/>
<rect x="0.5" y="0.5" width="485" height="281" rx="7.5" stroke="#F9893D" stroke-opacity="0.5"/>
<path d="M0 8C0 3.58173 3.58172 0 8 0H77V71.6719H0V8Z" fill="#F9893D" fill-opacity="0.5"/>
<rect x="16.5" y="16.6523" width="90" height="82.7855" rx="7.5" fill="#1A1A1A" stroke="#D6B88D"/>
<rect x="19" y="20.1895" width="84" height="74.7003" rx="8" fill="#1A1A1A"/>
<path d="M294.5 113.006L16 113.006L2 88.832" stroke="#F96B31" stroke-width="0.5" stroke-miterlimit="10"/>
<path d="M234.5 108.35C235.816 108.35 237 107.287 237 105.826C237 104.498 235.947 103.302 234.5 103.302C233.184 103.302 232 104.365 232 105.826C232 107.287 233.053 108.35 234.5 108.35Z" fill="#FF842C"/>
<path d="M17.5 105.994L41.3879 105.994L233 105.994" stroke="#F9893D" stroke-width="0.5" stroke-miterlimit="10"/>
<path d="M297.055 117.208C299.189 117.208 301.11 115.485 301.11 113.115C301.11 110.96 299.402 109.021 297.055 109.021C294.921 109.021 293 110.745 293 113.115C293.213 115.269 294.921 117.208 297.055 117.208Z" fill="#F96B31"/>
<g clip-path="url(#clip0_39_1726)">
<path d="M39.5002 36.7166L33.2502 29.3354L27 36.7166H30.2689V47.4882H36.2313V36.7166H39.5002Z" fill="#EEEEEE"/>
<path d="M32.0485 34.3877L34.9179 31.3049L33.2502 29.3354L27 36.7166H30.2689V47.4882H32.5616V35.9525C31.8345 35.8143 31.5443 34.9295 32.0485 34.3877Z" fill="#E0E0E0"/>
<path d="M74.8049 36.7166L68.5547 29.3354L62.3047 36.7166H65.5736V47.4882H71.536V36.7166H74.8049Z" fill="#EEEEEE"/>
<path d="M67.3532 34.3877L70.2226 31.3049L68.5547 29.3354L62.3047 36.7166H65.5736V47.4882H67.8662V35.9525C67.139 35.8143 66.849 34.9295 67.3532 34.3877Z" fill="#E0E0E0"/>
<path d="M57.0784 29.3811L50.8283 22L44.5781 29.3811H47.847V40.1527H53.8094V29.3811H57.0784Z" fill="#EEEEEE"/>
<path d="M49.6267 27.0523L52.4961 23.9694L50.8283 22L44.5781 29.3811H47.847V40.1527H50.1397V28.6171C49.4125 28.4789 49.1224 27.594 49.6267 27.0523Z" fill="#E0E0E0"/>
<path d="M61.8414 55.7097V48.1576C61.8414 43.7769 58.7326 40.0082 54.4207 39.1617C47.8501 35.2254 39.4844 39.9428 39.4844 47.5842V55.7096C39.4844 58.8965 42.0762 61.4799 45.2733 61.4799H56.0525C59.2497 61.4801 61.8414 58.8965 61.8414 55.7097Z" fill="#4C4C4C"/>
<path d="M55.1834 63.2008V55.6074H45.8501V63.2008L42.0262 64.6645C39.7891 65.5208 38.3125 67.6627 38.3125 70.0514V80.4743H63.3994V70.1712C63.3994 67.7234 61.8502 65.5419 59.534 64.7287L55.1834 63.2008Z" fill="#F9893D"/>
<path d="M40.758 71.7324C40.758 69.3437 42.2346 67.2018 44.4718 66.3455L48.2956 64.8818V57.2885H55.1834V55.6074H45.8501V63.2008L42.0262 64.6645C39.7891 65.5208 38.3125 67.6627 38.3125 70.0514V80.4743H40.7579L40.758 71.7324Z" fill="#F96B31"/>
<path d="M55.1819 55.6072H45.8485V63.2005L45.8438 63.2023L50.1476 69.0443L50.1438 75.476C50.1434 75.8889 50.478 76.2241 50.8909 76.2244H50.8917C51.3045 76.2244 51.6391 75.89 51.6395 75.4772L51.6433 68.8653L55.1817 63.2001L55.1819 55.6072Z" fill="#F9B995"/>
<path d="M50.8552 59.961C54.775 59.961 57.9526 56.3487 57.9526 51.8927C57.9526 47.4367 54.775 43.8245 50.8552 43.8245C46.9354 43.8245 43.7578 47.4367 43.7578 51.8927C43.7578 56.3487 46.9354 59.961 50.8552 59.961Z" fill="#FDD2B5"/>
<path d="M54.4207 39.1617C47.8501 35.2254 39.4844 39.9428 39.4844 47.5842V50.3583L41.5742 49.9794C45.5409 49.2603 49.0841 47.0625 51.4835 43.8329C54.7008 47.5725 58.1645 51.0958 61.8414 54.3872V48.1576C61.8414 43.7769 58.7326 40.0082 54.4207 39.1617Z" fill="#3A3A3A"/>
<path d="M63.7898 91.9999H37.9241L34.4414 72.1604H67.2726L63.7898 91.9999Z" fill="#8585F2"/>
<path d="M40.1991 74.9112H66.7898L67.2726 72.1604H34.4414L37.9242 91.9999H40.6509L38.0916 77.4204C37.8617 76.1109 38.8694 74.9112 40.1991 74.9112Z" fill="#6868DD"/>
<path d="M52.904 82.757H48.8065C48.3933 82.757 48.0586 82.4221 48.0586 82.0091C48.0586 81.5961 48.3933 81.2612 48.8065 81.2612H52.904C53.3171 81.2612 53.6519 81.5961 53.6519 82.0091C53.6519 82.4221 53.3171 82.757 52.904 82.757Z" fill="white"/>
<path d="M96.9982 66.8619V62.2601L93.7173 61.4613C93.4779 60.6184 93.1422 59.8161 92.7239 59.0657L94.4825 56.1803L91.2159 52.9263L88.3272 54.6734C87.5751 54.2544 86.7706 53.9177 85.9253 53.6768L85.1209 50.3992H80.5011L79.6991 53.6673C78.8529 53.9059 78.0475 54.2402 77.2942 54.6569L74.3975 52.9051L71.1308 56.1591L72.8845 59.0364C72.4639 59.7856 72.1259 60.587 71.884 61.4288L68.5938 62.2301V66.8318L71.8746 67.6307C72.1141 68.4735 72.4497 69.2758 72.8681 70.0262L71.1094 72.9117L74.3761 76.1656L77.2648 74.4186C78.0168 74.8375 78.8214 75.1742 79.6666 75.4152L80.471 78.6928H85.0909L85.8929 75.4246C86.739 75.1861 87.5445 74.8518 88.2979 74.435L91.1946 76.1868L94.4613 72.9329L92.7076 70.0556C93.1282 69.3064 93.4662 68.5049 93.708 67.6631L96.9982 66.8619Z" fill="#F9893D"/>
<path d="M78.8084 73.1474C78.5882 73.046 78.3694 72.9349 78.158 72.817C77.5828 72.4963 76.8795 72.5086 76.3157 72.8496L74.6544 73.8543L73.4275 72.6323L74.4343 70.9806C74.7781 70.4162 74.7919 69.7106 74.4702 69.1334C74.1161 68.4983 73.8364 67.8241 73.639 67.1294C73.4584 66.4943 72.9504 66.0052 72.3088 65.849L70.428 65.391V63.6708L72.3183 63.2104C72.958 63.0546 73.4652 62.5679 73.6469 61.9352C73.8461 61.2417 74.1278 60.5685 74.4841 59.9339C74.8085 59.3559 74.7959 58.6479 74.4509 58.0819L73.449 56.4382L74.6758 55.2162L76.3452 56.2258C76.907 56.5655 77.6077 56.579 78.1823 56.2613C78.8212 55.9078 79.4989 55.6287 80.1969 55.432C80.8327 55.2529 81.323 54.7455 81.4805 54.104L81.9397 52.2327H83.6826L84.1441 54.1134C84.3011 54.753 84.789 55.2593 85.4225 55.44C85.5795 55.4847 85.7376 55.5344 85.8923 55.5873C86.8026 55.8993 87.7881 55.4534 88.1662 54.5864C87.4604 54.2079 86.7107 53.9004 85.9253 53.6764L85.1209 50.3989H80.5011L79.6991 53.6671C78.8531 53.9057 78.0475 54.24 77.2942 54.6567L74.3975 52.9049L71.1308 56.1588L72.8845 59.0363C72.4639 59.7855 72.1259 60.5868 71.884 61.4287L68.5938 62.23V66.8319L71.8748 67.6307C72.1142 68.4736 72.4499 69.2759 72.8682 70.0263L71.1096 72.9117L74.3762 76.1657L77.2649 74.4186C78.017 74.8376 78.8215 75.1743 79.6668 75.4153L79.707 75.5793C80.1301 74.6598 79.7281 73.5712 78.8084 73.1474Z" fill="#F9893D"/>
<path d="M78.1016 60.3624H81.2468C81.7093 60.2693 81.9697 59.7354 81.7163 59.3027C81.0212 58.3629 81.1829 57.0018 82.1994 56.3688C82.8373 55.9646 83.6498 55.9646 84.2877 56.3688C85.3044 57.0019 85.4659 58.3629 84.7709 59.3027C84.5175 59.7354 84.7779 60.2692 85.2404 60.3624H88.3937V63.6301C88.3006 64.0926 87.7666 64.353 87.3339 64.0996C86.394 63.4047 85.0328 63.5664 84.3998 64.5827C83.9955 65.2206 83.9955 66.033 84.3998 66.6709C85.0331 67.6872 86.394 67.8489 87.3339 67.154C87.7666 66.9006 88.3006 67.161 88.3937 67.6235V70.7158H78.1156L78.1016 60.3624Z" fill="#EEEEEE"/>
<path d="M80.4054 66.287L80.3974 60.3623H78.1016L78.1158 70.7157H88.3938V68.4234H82.5452C81.3645 68.4235 80.4071 67.4675 80.4054 66.287Z" fill="#E0E0E0"/>
<path d="M59.7442 82.2632C60.6622 82.2632 61.4064 81.0983 61.4064 79.6615C61.4064 78.2246 60.6622 77.0598 59.7442 77.0598C58.8262 77.0598 58.082 78.2246 58.082 79.6615C58.082 81.0983 58.8262 82.2632 59.7442 82.2632Z" fill="white"/>
<path d="M56.289 85.2439C56.3347 86.1844 55.8572 86.9233 55.2227 86.8943C54.5882 86.8653 54.0369 86.0793 53.9913 85.1388C53.9457 84.1982 54.4231 83.4594 55.0576 83.4884C55.6921 83.5174 56.2434 84.3034 56.289 85.2439Z" fill="white"/>
</g>
<defs>
<clipPath id="clip0_39_1726">
<rect width="70" height="70" fill="white" transform="translate(27 22)"/>
</clipPath>
</defs>
</svg>
