<svg width="302" height="118" viewBox="0 0 302 118" fill="none" xmlns="http://www.w3.org/2000/svg">
<path d="M0 8C0 3.58173 3.58172 0 8 0H77V71.6719H0V8Z" fill="#F9893D" fill-opacity="0.5"/>
<rect x="16.5" y="16.6523" width="90" height="82.7855" rx="7.5" fill="#1A1A1A" stroke="#D6B88D"/>
<rect x="19" y="20.1895" width="84" height="74.7003" rx="8" fill="#1A1A1A"/>
<path d="M294.5 113.006L16 113.006L2 88.832" stroke="#F96B31" stroke-width="0.5" stroke-miterlimit="10"/>
<path d="M234.5 108.35C235.816 108.35 237 107.287 237 105.826C237 104.498 235.947 103.302 234.5 103.302C233.184 103.302 232 104.365 232 105.826C232 107.287 233.053 108.35 234.5 108.35Z" fill="#FF842C"/>
<path d="M17.5 105.994L41.3879 105.994L233 105.994" stroke="#F9893D" stroke-width="0.5" stroke-miterlimit="10"/>
<path d="M297.055 117.208C299.189 117.208 301.11 115.485 301.11 113.115C301.11 110.96 299.402 109.021 297.055 109.021C294.921 109.021 293 110.745 293 113.115C293.213 115.269 294.921 117.208 297.055 117.208Z" fill="#F96B31"/>
<path d="M71.8438 38.4062V69.0312H32.4688C31.8891 69.0295 31.3337 68.7985 30.9239 68.3886C30.514 67.9788 30.283 67.4234 30.2812 66.8438V38.4062H71.8438Z" fill="#8585F2"/>
<path d="M56.5312 84.3438H52.1562V88.7188H56.5312V84.3438Z" fill="#E6E7E8"/>
<path d="M71.8438 40.5938V69.0312H43.4062L71.8438 40.5938Z" fill="#8585F2"/>
<path d="M56.5312 79.9688V84.3438H52.1562V69.0312V59.1875L53.25 55.9062H54.3438H55.4375L56.5312 59.1875V69.0312V79.9688Z" fill="#FFA733"/>
<path d="M45.5938 83.25V88.7188H36.8438V69.0312V51.5312H45.5938V57V63.5625V69.0312V70.125V76.6875V83.25Z" fill="#FFDE55"/>
<path d="M90.0875 61.8891C89.8312 62.8971 89.4296 63.8624 88.8953 64.7547L91.1047 67.6969L88.0094 70.7922L85.0672 68.5828C84.1749 69.1171 83.2096 69.5187 82.2016 69.775L81.6875 73.4062H77.3125L76.7984 69.775C75.7904 69.5187 74.8251 69.1171 73.9328 68.5828L70.9906 70.7922L69.2297 69.0312L67.8953 67.6969L70.1047 64.7547C69.5704 63.8624 69.1688 62.8971 68.9125 61.8891L65.2812 61.375V57L68.9125 56.4859C69.1688 55.4779 69.5704 54.5126 70.1047 53.6203L67.8953 50.6781L70.9906 47.5828L71.8438 48.2281L73.9328 49.7922C74.8251 49.2579 75.7904 48.8563 76.7984 48.6L77.3125 44.9688H81.6875L82.2016 48.6C83.2096 48.8563 84.1749 49.2579 85.0672 49.7922L88.0094 47.5828L91.1047 50.6781L88.8953 53.6203C89.4296 54.5126 89.8312 55.4779 90.0875 56.4859L93.7188 57V61.375L90.0875 61.8891Z" fill="#FFA733"/>
<path d="M79.5 64.6562C82.5203 64.6562 84.9688 62.2078 84.9688 59.1875C84.9688 56.1672 82.5203 53.7188 79.5 53.7188C76.4797 53.7188 74.0312 56.1672 74.0312 59.1875C74.0312 62.2078 76.4797 64.6562 79.5 64.6562Z" fill="#FF6243"/>
<path d="M45.5938 69.0312H42.3125V71.2188H45.5938V69.0312Z" fill="#F9893D"/>
<path d="M45.5938 62.4688H42.3125V64.6562H45.5938V62.4688Z" fill="#F9893D"/>
<path d="M45.5938 75.5938H42.3125V77.7812H45.5938V75.5938Z" fill="#F9893D"/>
<path d="M45.5938 82.1562H42.3125V84.3438H45.5938V82.1562Z" fill="#F9893D"/>
<path d="M70.75 58.0938H68.5625V60.2812H70.75V58.0938Z" fill="#EE8700"/>
<path d="M72.539 64.6016L70.9922 66.1484L72.539 67.6952L74.0858 66.1484L72.539 64.6016Z" fill="#EE8700"/>
<path d="M80.5938 67.9375H78.4062V70.125H80.5938V67.9375Z" fill="#EE8700"/>
<path d="M86.4611 64.6019L84.9141 66.1484L86.4606 67.6955L88.0077 66.149L86.4611 64.6019Z" fill="#EE8700"/>
<path d="M90.4375 58.0938H88.25V60.2812H90.4375V58.0938Z" fill="#EE8700"/>
<path d="M59.8125 81.0625H56.5312V78.875H58.7188V74.5H60.9062V79.9688C60.9062 80.2588 60.791 80.537 60.5859 80.7421C60.3808 80.9473 60.1026 81.0625 59.8125 81.0625Z" fill="#EE8700"/>
</svg>
