<svg width="302" height="118" viewBox="0 0 302 118" fill="none" xmlns="http://www.w3.org/2000/svg">
<path d="M0 8C0 3.58173 3.58172 0 8 0H77V71.6719H0V8Z" fill="#F9893D" fill-opacity="0.5"/>
<rect x="16.5" y="16.6523" width="90" height="82.7855" rx="7.5" fill="#1A1A1A" stroke="#D6B88D"/>
<rect x="19" y="20.1895" width="84" height="74.7003" rx="8" fill="#1A1A1A"/>
<path d="M294.5 113.006L16 113.006L2 88.832" stroke="#F96B31" stroke-width="0.5" stroke-miterlimit="10"/>
<path d="M234.5 108.35C235.816 108.35 237 107.287 237 105.826C237 104.498 235.947 103.302 234.5 103.302C233.184 103.302 232 104.365 232 105.826C232 107.287 233.053 108.35 234.5 108.35Z" fill="#FF842C"/>
<path d="M17.5 105.994L41.3879 105.994L233 105.994" stroke="#F9893D" stroke-width="0.5" stroke-miterlimit="10"/>
<path d="M297.055 117.208C299.189 117.208 301.11 115.485 301.11 113.115C301.11 110.96 299.402 109.021 297.055 109.021C294.921 109.021 293 110.745 293 113.115C293.213 115.269 294.921 117.208 297.055 117.208Z" fill="#F96B31"/>
<g clip-path="url(#clip0_144_5724)">
<path d="M29.7804 39.8196C26.5037 45.206 26.1583 54.5323 28.5586 60.3624C30.6609 65.4689 34.843 70.2622 40.3328 70.8625C42.3516 71.0833 44.4149 70.7225 46.4129 71.0864C53.284 72.3377 55.84 80.8058 61.1799 85.3071C64.8962 88.4398 70.0527 89.5483 74.8756 88.9448C79.6985 88.3413 84.2138 86.1608 88.1887 83.3634C91.3274 81.1544 94.264 78.4385 95.8127 74.9269C99.059 67.5661 95.2398 58.7256 89.3067 53.2926C87.4588 51.6005 85.3991 50.1079 83.855 48.1347C82.311 46.1613 81.3284 43.5279 82.0641 41.1327C82.6511 39.2218 84.231 37.7405 84.8295 35.8331C85.6441 33.2376 84.4146 30.3259 82.3957 28.5028C80.3767 26.6797 77.7051 25.7631 75.0585 25.134C63.9702 22.498 39.6726 23.5584 29.7804 39.8196Z" fill="url(#paint0_linear_144_5724)"/>
<path opacity="0.1" d="M74.8837 89.9716H49.1172C46.8519 89.9716 45.0156 88.1353 45.0156 85.87V33.8242C45.0156 31.5589 46.8519 29.7227 49.1172 29.7227H74.8837C77.149 29.7227 78.9853 31.5589 78.9853 33.8242V85.87C78.9853 88.1352 77.149 89.9716 74.8837 89.9716Z" fill="#1A1A1A"/>
<path d="M74.8837 86.6904H49.1172C46.8519 86.6904 45.0156 84.8541 45.0156 82.5888V30.543C45.0156 28.2777 46.8519 26.4414 49.1172 26.4414H74.8837C77.149 26.4414 78.9853 28.2777 78.9853 30.543V82.5888C78.9853 84.8539 77.149 86.6904 74.8837 86.6904Z" fill="#8585F2"/>
<path d="M45.0156 32.3086H78.9848V80.8246H45.0156V32.3086Z" fill="white"/>
<path d="M74.8837 87.3739H49.1172C46.4787 87.3739 44.332 85.2273 44.332 82.5888V30.543C44.332 27.9044 46.4787 25.7578 49.1172 25.7578H74.8839C77.5224 25.7578 79.669 27.9044 79.669 30.543V82.5888C79.6689 85.2273 77.5223 87.3739 74.8837 87.3739ZM49.1172 27.125C47.2325 27.125 45.6992 28.6583 45.6992 30.543V82.5888C45.6992 84.4735 47.2325 86.0068 49.1172 86.0068H74.8839C76.7686 86.0068 78.3019 84.4735 78.3019 82.5888V30.543C78.3019 28.6583 76.7686 27.125 74.8839 27.125H49.1172Z" fill="#1A1A1A"/>
<path d="M64.3899 30.1836H59.6094C59.2319 30.1836 58.9258 29.8775 58.9258 29.5C58.9258 29.1225 59.2319 28.8164 59.6094 28.8164H64.3899C64.7674 28.8164 65.0735 29.1225 65.0735 29.5C65.0735 29.8775 64.7674 30.1836 64.3899 30.1836Z" fill="#B7C5FF"/>
<path d="M67.5823 30.1841C67.96 30.1841 68.2662 29.878 68.2662 29.5003C68.2662 29.1226 67.96 28.8164 67.5823 28.8164C67.2046 28.8164 66.8984 29.1226 66.8984 29.5003C66.8984 29.878 67.2046 30.1841 67.5823 30.1841Z" fill="#B7C5FF"/>
<path d="M75.0488 36.9375V48.5449C75.0488 49.2996 74.4363 49.9121 73.6816 49.9121H50.3164C49.5617 49.9121 48.9492 49.2996 48.9492 48.5449V36.9375C48.9492 36.1828 49.5617 35.5703 50.3164 35.5703H73.6816C74.4363 35.5703 75.0488 36.1828 75.0488 36.9375Z" fill="#8585F2"/>
<path d="M75.0484 39.5398V48.5441C75.0484 49.2988 74.4359 49.9113 73.6813 49.9113H57.018C56.9674 49.482 56.9414 49.0445 56.9414 48.6016C56.9414 42.3494 62.0096 37.2812 68.2631 37.2812C70.8074 37.2812 73.1576 38.1221 75.0484 39.5398Z" fill="#8585F2"/>
<path d="M75.0488 75.3984V80.8248H48.9492V75.3984C48.9492 74.6438 49.5617 74.0312 50.3164 74.0312H73.6816C74.4363 74.0312 75.0488 74.6438 75.0488 75.3984Z" fill="#02FFB3"/>
<path d="M59.683 77.4287C59.683 78.651 59.3904 79.8049 58.8723 80.8248H48.9492V75.3984C48.9492 74.6438 49.5617 74.0312 50.3164 74.0312H58.8723C59.3904 75.0525 59.683 76.2064 59.683 77.4287Z" fill="#97FFD2"/>
<path d="M60.3983 59.9448H49.6328C49.2553 59.9448 48.9492 59.6387 48.9492 59.2612V53.8281C48.9492 53.4506 49.2553 53.1445 49.6328 53.1445H60.3983C60.7758 53.1445 61.0819 53.4506 61.0819 53.8281V59.2612C61.0819 59.6388 60.7758 59.9448 60.3983 59.9448Z" fill="#F9893D"/>
<path d="M74.3632 59.9448H63.5977C63.2202 59.9448 62.9141 59.6387 62.9141 59.2612V53.8281C62.9141 53.4506 63.2202 53.1445 63.5977 53.1445H74.3632C74.7406 53.1445 75.0468 53.4506 75.0468 53.8281V59.2612C75.0468 59.6388 74.7406 59.9448 74.3632 59.9448Z" fill="#02FFB3"/>
<path d="M60.3983 68.3374H49.6328C49.2553 68.3374 48.9492 68.0313 48.9492 67.6538V62.2207C48.9492 61.8432 49.2553 61.5371 49.6328 61.5371H60.3983C60.7758 61.5371 61.0819 61.8432 61.0819 62.2207V67.6538C61.0819 68.0313 60.7758 68.3374 60.3983 68.3374Z" fill="#8585F2"/>
<path d="M74.3632 68.3374H63.5977C63.2202 68.3374 62.9141 68.0313 62.9141 67.6538V62.2207C62.9141 61.8432 63.2202 61.5371 63.5977 61.5371H74.3632C74.7406 61.5371 75.0468 61.8432 75.0468 62.2207V67.6538C75.0468 68.0313 74.7406 68.3374 74.3632 68.3374Z" fill="#FCAF40"/>
<path d="M61.4095 43.5996H52.4297C52.0522 43.5996 51.7461 43.9057 51.7461 44.2832C51.7461 44.6607 52.0522 44.9668 52.4297 44.9668H61.4095C61.787 44.9668 62.0931 44.6607 62.0931 44.2832C62.0931 43.9057 61.7871 43.5996 61.4095 43.5996Z" fill="white"/>
<path d="M61.4095 40.9434H52.4297C52.0522 40.9434 51.7461 41.2495 51.7461 41.627C51.7461 42.0044 52.0522 42.3105 52.4297 42.3105H61.4095C61.787 42.3105 62.0931 42.0044 62.0931 41.627C62.0931 41.2495 61.7871 40.9434 61.4095 40.9434Z" fill="white"/>
<path d="M54.0267 37.752H52.4297C52.0522 37.752 51.7461 38.0581 51.7461 38.4355C51.7461 38.813 52.0522 39.1191 52.4297 39.1191H54.0267C54.4042 39.1191 54.7103 38.813 54.7103 38.4355C54.7103 38.0581 54.4043 37.752 54.0267 37.752Z" fill="#FFC4DF"/>
<path d="M55.3314 71.2363H49.6328C49.2553 71.2363 48.9492 71.5424 48.9492 71.9199C48.9492 72.2974 49.2553 72.6035 49.6328 72.6035H55.3314C55.7089 72.6035 56.015 72.2974 56.015 71.9199C56.015 71.5424 55.7089 71.2363 55.3314 71.2363Z" fill="#8585F2"/>
<path d="M75.0516 75.3984V78.7604C72.4607 78.7604 70.3594 76.6604 70.3594 74.0695V74.0312H73.6844C74.4391 74.0312 75.0516 74.6438 75.0516 75.3984Z" fill="#01ECA5"/>
</g>
<defs>
<linearGradient id="paint0_linear_144_5724" x1="27" y1="56.566" x2="97" y2="56.566" gradientUnits="userSpaceOnUse">
<stop stop-color="#FFB320"/>
<stop offset="1" stop-color="#FF842C"/>
</linearGradient>
<clipPath id="clip0_144_5724">
<rect width="70" height="70" fill="white" transform="translate(27 22)"/>
</clipPath>
</defs>
</svg>
