<svg width="302" height="118" viewBox="0 0 302 118" fill="none" xmlns="http://www.w3.org/2000/svg">
<path d="M0 8C0 3.58173 3.58172 0 8 0H77V71.6719H0V8Z" fill="#F9893D" fill-opacity="0.5"/>
<rect x="16.5" y="16.6523" width="90" height="82.7855" rx="7.5" fill="#1A1A1A" stroke="#D6B88D"/>
<rect x="19" y="20.1895" width="84" height="74.7003" rx="8" fill="#1A1A1A"/>
<path d="M294.5 113.006L16 113.006L2 88.832" stroke="#F96B31" stroke-width="0.5" stroke-miterlimit="10"/>
<path d="M234.5 108.35C235.816 108.35 237 107.287 237 105.826C237 104.498 235.947 103.302 234.5 103.302C233.184 103.302 232 104.365 232 105.826C232 107.287 233.053 108.35 234.5 108.35Z" fill="#FF842C"/>
<path d="M17.5 105.994L41.3879 105.994L233 105.994" stroke="#F9893D" stroke-width="0.5" stroke-miterlimit="10"/>
<path d="M297.055 117.208C299.189 117.208 301.11 115.485 301.11 113.115C301.11 110.96 299.402 109.021 297.055 109.021C294.921 109.021 293 110.745 293 113.115C293.213 115.269 294.921 117.208 297.055 117.208Z" fill="#F96B31"/>
<g clip-path="url(#clip0_144_5823)">
<circle cx="62" cy="57" r="30" fill="white"/>
<path fill-rule="evenodd" clip-rule="evenodd" d="M62.0116 22.0078C81.3414 22.0078 97.0124 37.6837 97.0124 57.0129C97.0124 76.342 81.3414 92.0075 62.0116 92.0075C42.6817 92.0075 27.0117 76.3414 27.0117 57.0129C27.0117 37.6844 42.6824 22.0078 62.0116 22.0078ZM70.0001 64.344L71.2659 65.6125L72.2859 64.593L71.0201 63.3246C70.8588 63.5024 70.6895 63.6761 70.5201 63.8459C70.3507 64.0157 70.177 64.1816 70.0001 64.344ZM57.0032 69.5977C56.9436 69.5162 56.9093 69.4191 56.9043 69.3183C56.8993 69.2175 56.9238 69.1174 56.975 69.0305C57.3375 68.4172 57.6116 67.7558 57.7893 67.0659C57.815 66.9681 57.8688 66.88 57.9442 66.8125C58.0195 66.7451 58.1131 66.7013 58.2131 66.6865L59.7652 66.4532V63.9135L58.2131 63.6801C58.113 63.6656 58.0194 63.6218 57.944 63.5543C57.8686 63.4868 57.8148 63.3986 57.7893 63.3007C57.6131 62.6104 57.3389 61.9489 56.975 61.3363C56.9239 61.2495 56.8994 61.1497 56.9044 61.0491C56.9094 60.9485 56.9437 60.8516 57.0032 60.7703L57.9426 59.5048L56.1444 57.7081L54.8787 58.6438C54.798 58.7038 54.7013 58.7386 54.6009 58.7438C54.5005 58.7489 54.4007 58.7242 54.3143 58.6728C53.7005 58.3095 53.0381 58.0353 52.3471 57.8585C52.2498 57.8327 52.1621 57.7791 52.0948 57.7043C52.0275 57.6295 51.9835 57.5367 51.9681 57.4373L51.7343 55.8819H49.1945L48.9607 57.4373C48.946 57.537 48.9022 57.6301 48.8348 57.7051C48.7674 57.78 48.6793 57.8334 48.5817 57.8585C47.8917 58.0346 47.2306 58.3088 46.6186 58.6728C46.5314 58.7243 46.431 58.749 46.33 58.7439C46.2289 58.7387 46.1315 58.7039 46.0501 58.6438L44.7883 57.7081L42.9903 59.5048L43.9256 60.7703C43.985 60.8516 44.0193 60.9485 44.0243 61.0491C44.0293 61.1497 44.0048 61.2495 43.9538 61.3363C43.5912 61.9495 43.3171 62.6109 43.1395 63.3007C43.1144 63.3981 43.0613 63.4859 42.9868 63.5534C42.9122 63.6208 42.8195 63.6649 42.7202 63.6801L41.1648 63.9135V66.4536L42.7208 66.687C42.8201 66.7025 42.9126 66.7467 42.9871 66.8141C43.0616 66.8815 43.1148 66.9692 43.1402 67.0663C43.318 67.756 43.5919 68.4171 43.9539 69.0305C44.005 69.1174 44.0295 69.2174 44.0245 69.3181C44.0195 69.4188 43.9852 69.5158 43.9257 69.5973L42.9904 70.8618L44.7879 72.659L46.0497 71.7234C46.1312 71.6635 46.2285 71.6287 46.3295 71.6236C46.4306 71.6184 46.5309 71.643 46.6181 71.6943C47.2304 72.058 47.8915 72.3325 48.5813 72.5095C48.6789 72.5344 48.767 72.5876 48.8344 72.6624C48.9018 72.7372 48.9456 72.8303 48.9603 72.9299L49.1941 74.4853H51.7339L51.9677 72.9299C51.9829 72.8305 52.0269 72.7377 52.0942 72.663C52.1616 72.5883 52.2493 72.5349 52.3467 72.5095C53.0377 72.3321 53.7 72.0577 54.3139 71.6943C54.4004 71.643 54.5001 71.6185 54.6005 71.6237C54.7009 71.6288 54.7975 71.6635 54.8783 71.7234L56.144 72.659L57.9426 70.8625L57.0032 69.5977ZM48.8357 42.1597C46.9765 44.0159 45.6448 46.3334 44.9774 48.8744C44.3101 51.4154 44.331 54.0882 45.0382 56.6184C45.0382 56.6197 45.0382 56.6205 45.0423 56.6213L46.3927 57.6218C46.9034 57.3459 47.441 57.1231 47.9972 56.9571L48.2471 55.2942C48.2492 55.275 48.2532 55.2561 48.2592 55.2377C47.8932 53.6785 47.8611 52.0595 48.1651 50.487C48.469 48.9145 49.1022 47.424 50.0229 46.1135C50.9436 44.803 52.131 43.702 53.5073 42.8829C54.8836 42.0637 56.4176 41.5449 58.0085 41.3606C59.5995 41.1762 61.2115 41.3304 62.7386 41.813C64.2658 42.2957 65.6736 43.0959 66.8696 44.1611C68.0657 45.2263 69.0229 46.5324 69.6784 47.9937C70.334 49.455 70.6731 51.0384 70.6734 52.6401C70.6731 55.3964 69.6706 58.0585 67.8527 60.1303C66.0348 62.2021 63.5255 63.5422 60.7926 63.9008V66.8956C60.7926 67.0189 60.7482 67.1381 60.6675 67.2313C60.5868 67.3245 60.4752 67.3855 60.3532 67.4031L60.0993 67.4419C62.5001 67.3148 64.834 66.6055 66.8996 65.3752C68.9652 64.145 70.7005 62.4307 71.9559 60.3803C73.2112 58.3299 73.949 56.0049 74.1054 53.6058C74.2619 51.2067 73.8324 48.8055 72.854 46.6094C71.8756 44.4133 70.3777 42.4882 68.4894 41C66.6011 39.5119 64.3791 38.5055 62.0151 38.0675C59.6512 37.6296 57.2161 37.7733 54.9201 38.4863C52.624 39.1992 50.5359 40.4599 48.8357 42.1597ZM80.7638 71.3629L75.9706 66.572L73.2454 69.2976L78.0386 74.089L80.7638 71.3629ZM74.2286 63.3769C74.1322 63.281 74.0018 63.2272 73.8658 63.2272C73.7298 63.2272 73.5994 63.281 73.5029 63.3769L73.0107 63.8674L71.6884 62.544C73.3863 60.422 74.5101 57.899 74.9516 55.2174C75.3931 52.5358 75.1376 49.7857 74.2096 47.2314C73.2817 44.677 71.7124 42.4043 69.6526 40.6314C67.5928 38.8585 65.1117 37.6451 62.4477 37.1078C59.7836 36.5705 57.0261 36.7273 54.4402 37.5631C51.8542 38.399 49.5267 39.8858 47.6811 41.8808C45.8356 43.8757 44.5341 46.3118 43.9017 48.9549C43.2693 51.5979 43.3272 54.3592 44.0698 56.9735L41.9495 59.0926C41.8636 59.1801 41.8116 59.2951 41.8028 59.4173C41.7939 59.5396 41.8287 59.6609 41.9011 59.7598L42.9008 61.1133C42.6271 61.6246 42.4043 62.1614 42.2356 62.7162L40.5756 62.9649C40.4536 62.9824 40.342 63.0432 40.2613 63.1363C40.1806 63.2294 40.1361 63.3485 40.1362 63.4717V66.8955C40.136 67.0188 40.1803 67.1382 40.2611 67.2315C40.3418 67.3248 40.4535 67.3859 40.5756 67.4035L42.2364 67.6523C42.4052 68.2072 42.628 68.7441 42.9016 69.2555L41.9019 70.6081C41.8296 70.7069 41.7947 70.8283 41.8036 70.9505C41.8124 71.0727 41.8644 71.1878 41.9503 71.2752L44.3731 73.6972C44.4604 73.7842 44.576 73.837 44.6989 73.8461C44.8218 73.8551 44.9439 73.8197 45.043 73.7464L46.3934 72.7458C46.9042 73.0217 47.4418 73.2448 47.9979 73.4115L48.2469 75.0734C48.2649 75.1944 48.3256 75.3049 48.4181 75.385C48.5105 75.465 48.6285 75.5094 48.7508 75.51H52.1774C52.3002 75.5095 52.4187 75.4653 52.5118 75.3853C52.6049 75.3053 52.6664 75.1947 52.6853 75.0734L52.9314 73.4105C53.4875 73.2438 54.0251 73.0208 54.5359 72.7448L55.8904 73.7455C55.9887 73.8186 56.11 73.8539 56.2322 73.8449C56.3543 73.8358 56.4691 73.7831 56.5555 73.6963L58.9783 71.2743C59.0642 71.1869 59.1162 71.0718 59.125 70.9496C59.1339 70.8274 59.0991 70.706 59.0267 70.6071L58.0271 69.2545C58.1658 68.9966 58.291 68.7315 58.4019 68.4605C58.7083 68.4785 59.0147 68.487 59.317 68.487C62.9165 68.4884 66.409 67.2625 69.2179 65.0116L70.5441 66.3363L70.0519 66.827C70.004 66.8744 69.9661 66.9308 69.9402 66.993C69.9143 67.0552 69.9009 67.1219 69.9009 67.1893C69.9009 67.2566 69.9143 67.3233 69.9402 67.3855C69.9661 67.4477 70.004 67.5041 70.0519 67.5516L78.8482 76.3504C79.4035 76.8969 80.1521 77.2018 80.9312 77.1988C81.7102 77.1958 82.4565 76.885 83.0075 76.3343C83.5585 75.7835 83.8695 75.0373 83.8728 74.2583C83.8762 73.4792 83.5715 72.7304 83.0253 72.175L74.2286 63.3769ZM50.4639 59.9726C49.433 59.9726 48.4253 60.2784 47.5682 60.8511C46.7111 61.4239 46.0431 62.2379 45.6486 63.1903C45.2541 64.1428 45.151 65.1908 45.3521 66.2018C45.5532 67.2129 46.0497 68.1416 46.7786 68.8705C47.5075 69.5994 48.4363 70.0958 49.4473 70.2969C50.4584 70.4981 51.5064 70.3948 52.4588 70.0003C53.4112 69.6059 54.2252 68.9378 54.798 68.0807C55.3707 67.2235 55.6764 66.2158 55.6764 65.185C55.675 63.803 55.1254 62.478 54.1481 61.5008C53.1709 60.5236 51.8459 59.974 50.4639 59.9726ZM53.1246 52.2913L57.4859 56.6526C57.5329 56.7 57.5888 56.7376 57.6504 56.7633C57.712 56.7889 57.7781 56.8022 57.8448 56.8022C57.9819 56.8022 58.1136 56.7485 58.2116 56.6526L65.5042 49.3568C65.5993 49.2603 65.6523 49.1302 65.6519 48.9948C65.6514 48.8593 65.5973 48.7296 65.5015 48.6338C65.4058 48.5381 65.276 48.4841 65.1406 48.4837C65.0052 48.4832 64.875 48.5364 64.7786 48.6315L57.8458 55.5637L53.8507 51.5655C53.7545 51.4692 53.6241 51.4151 53.488 51.4151C53.3519 51.4151 53.2214 51.4691 53.1252 51.5652C53.029 51.6614 52.9749 51.7919 52.9748 51.928C52.9748 52.064 53.0284 52.1951 53.1246 52.2913ZM52.403 65.553H50.4966V62.3896C50.4944 62.2547 50.4393 62.1261 50.3431 62.0315C50.247 61.937 50.1175 61.8839 49.9826 61.8839C49.8477 61.8839 49.7182 61.937 49.6221 62.0315C49.5259 62.1261 49.4708 62.2547 49.4686 62.3896V66.065C49.4686 66.2009 49.5226 66.3312 49.6185 66.4273C49.7145 66.5235 49.8447 66.5776 49.9806 66.5779H52.4031C52.5371 66.5748 52.6644 66.5194 52.7581 66.4236C52.8517 66.3278 52.9041 66.1991 52.9041 66.0652C52.9041 65.9312 52.8517 65.8026 52.7581 65.7067C52.6644 65.6109 52.5369 65.5561 52.403 65.553Z" fill="#F9893D"/>
</g>
<defs>
<clipPath id="clip0_144_5823">
<rect width="70" height="70" fill="white" transform="translate(27 22)"/>
</clipPath>
</defs>
</svg>
