<svg width="302" height="118" viewBox="0 0 302 118" fill="none" xmlns="http://www.w3.org/2000/svg">
<path d="M0 8C0 3.58173 3.58172 0 8 0H77V71.6719H0V8Z" fill="#F9893D" fill-opacity="0.5"/>
<rect x="16.5" y="16.6523" width="90" height="82.7855" rx="7.5" fill="#1A1A1A" stroke="#D6B88D"/>
<rect x="19" y="20.1895" width="84" height="74.7003" rx="8" fill="#1A1A1A"/>
<path d="M294.5 113.006L16 113.006L2 88.832" stroke="#F96B31" stroke-width="0.5" stroke-miterlimit="10"/>
<path d="M234.5 108.35C235.816 108.35 237 107.287 237 105.826C237 104.498 235.947 103.302 234.5 103.302C233.184 103.302 232 104.365 232 105.826C232 107.287 233.053 108.35 234.5 108.35Z" fill="#FF842C"/>
<path d="M17.5 105.994L41.3879 105.994L233 105.994" stroke="#F9893D" stroke-width="0.5" stroke-miterlimit="10"/>
<path d="M297.055 117.208C299.189 117.208 301.11 115.485 301.11 113.115C301.11 110.96 299.402 109.021 297.055 109.021C294.921 109.021 293 110.745 293 113.115C293.213 115.269 294.921 117.208 297.055 117.208Z" fill="#F96B31"/>
<g clip-path="url(#clip0_144_6111)">
<path d="M61.9982 91.6273C81.1223 91.6273 96.6254 76.1242 96.6254 57.0002C96.6254 37.8761 81.1223 22.373 61.9982 22.373C42.8742 22.373 27.3711 37.8761 27.3711 57.0002C27.3711 76.1242 42.8742 91.6273 61.9982 91.6273Z" fill="#F96B31"/>
<path d="M61.9967 86.9583C78.5419 86.9583 91.9544 73.5458 91.9544 57.0007C91.9544 40.4555 78.5419 27.043 61.9967 27.043C45.4516 27.043 32.0391 40.4555 32.0391 57.0007C32.0391 73.5458 45.4516 86.9583 61.9967 86.9583Z" fill="#F9893D"/>
<path d="M84.3364 62.3832C84.3364 62.3505 84.3361 62.3174 84.3358 62.2846C84.3358 62.2745 84.3355 62.2643 84.3355 62.2545C84.3352 62.2307 84.3347 62.2069 84.3341 62.1831C84.3338 62.173 84.3335 62.1631 84.3332 62.153C84.3323 62.1251 84.3315 62.097 84.3306 62.0691C84.3303 62.0642 84.3303 62.059 84.33 62.0541C84.3289 62.0219 84.3274 61.9897 84.3257 61.9575C84.3251 61.9471 84.3245 61.9366 84.3239 61.9262C84.3228 61.9041 84.3216 61.8821 84.3202 61.8603C84.3193 61.8479 84.3187 61.8354 84.3178 61.8226C84.3164 61.8012 84.3149 61.7797 84.3132 61.7583C84.3123 61.7475 84.3118 61.7365 84.3109 61.7258C84.3086 61.6953 84.306 61.6649 84.3033 61.6347C84.3022 61.6225 84.301 61.6106 84.3002 61.5988C84.2984 61.5787 84.2964 61.5587 84.2944 61.5387C84.2929 61.5248 84.2915 61.5112 84.29 61.4972C84.288 61.4793 84.2862 61.4616 84.2842 61.4436C84.2828 61.4291 84.281 61.4146 84.2793 61.4001C84.2767 61.3778 84.2741 61.3557 84.2712 61.3334C84.2688 61.3145 84.2662 61.2954 84.2639 61.2765C84.2616 61.2577 84.259 61.2386 84.2564 61.2197C84.2543 61.2046 84.252 61.1893 84.25 61.1742C84.2477 61.1582 84.2453 61.1423 84.243 61.1266C84.2407 61.1107 84.2381 61.0947 84.2358 61.0788C84.2337 61.0651 84.2314 61.0515 84.2291 61.0376C84.2233 61.0022 84.2175 60.9671 84.2114 60.9317C84.21 60.9233 84.2085 60.9149 84.2071 60.9065C84.2036 60.8862 84.1998 60.8662 84.196 60.8462C84.1943 60.8372 84.1926 60.8282 84.1911 60.8189C84.1871 60.7977 84.1833 60.7769 84.1789 60.7557C84.1778 60.7493 84.1763 60.7429 84.1752 60.7366C84.1612 60.6655 84.1462 60.5947 84.1305 60.5243C84.1293 60.519 84.1282 60.5135 84.127 60.5083C84.1221 60.4863 84.1169 60.4642 84.1116 60.4422C84.1102 60.4361 84.1087 60.43 84.1073 60.4239C84.0838 60.325 84.0586 60.2264 84.0313 60.1287C84.0304 60.1258 84.0296 60.1229 84.029 60.12C84.0012 60.0202 83.9719 59.921 83.9405 59.8227C83.9403 59.8216 83.9397 59.8204 83.9394 59.8193C82.8542 56.4119 79.6638 53.9437 75.8966 53.9437C75.8458 53.9437 75.795 53.9442 75.7443 53.9451C74.9952 50.0512 71.5696 47.1096 67.4573 47.1096C66.2111 47.1096 65.0282 47.3799 63.9635 47.8645C62.5802 45.092 59.7163 43.1875 56.4073 43.1875C51.7463 43.1875 47.9681 46.966 47.9681 51.6268C47.9681 52.431 48.0806 53.2088 48.2905 53.9454C48.2273 53.944 48.1641 53.9431 48.1006 53.9431C44.2223 53.9431 40.955 56.5593 39.9673 60.1232C39.967 60.1238 39.967 60.1246 39.9667 60.1252C39.9389 60.2253 39.913 60.3262 39.889 60.428C39.8881 60.4318 39.8872 60.4352 39.8864 60.439C39.8809 60.4625 39.8753 60.4863 39.8701 60.5098C39.8693 60.5135 39.8684 60.5173 39.8675 60.5208C39.8513 60.5924 39.8362 60.6641 39.822 60.7363C39.8208 60.7426 39.8194 60.749 39.8182 60.7554C39.8142 60.7766 39.8101 60.7975 39.806 60.8186C39.8043 60.8276 39.8026 60.8366 39.8011 60.8459C39.7973 60.8659 39.7936 60.8862 39.7901 60.9062C39.7886 60.9146 39.7872 60.923 39.7857 60.9314C39.7793 60.9683 39.7733 61.0054 39.7672 61.0422C39.7654 61.0535 39.7634 61.0646 39.7617 61.0759C39.7588 61.0938 39.7561 61.1115 39.7535 61.1295C39.7515 61.1434 39.7495 61.1571 39.7474 61.171C39.7451 61.1872 39.7428 61.2035 39.7405 61.2194C39.7379 61.2383 39.7353 61.2571 39.7329 61.276C39.7303 61.2948 39.728 61.3137 39.7257 61.3328C39.7231 61.3549 39.7202 61.3772 39.7176 61.3995C39.7158 61.414 39.7144 61.4285 39.7126 61.443C39.7106 61.4607 39.7086 61.4787 39.7068 61.4967C39.7054 61.5106 39.7039 61.5242 39.7025 61.5381C39.7005 61.5582 39.6987 61.5782 39.6967 61.5982C39.6955 61.6104 39.6944 61.6222 39.6932 61.6341C39.6906 61.6643 39.688 61.6947 39.6857 61.7252C39.6848 61.7362 39.6842 61.7469 39.6834 61.7577C39.6819 61.7791 39.6802 61.8006 39.6787 61.8221C39.6778 61.8345 39.6773 61.847 39.6764 61.8598C39.6749 61.8818 39.6738 61.9038 39.6726 61.9256C39.672 61.936 39.6715 61.9465 39.6709 61.9569C39.6691 61.9891 39.6677 62.0213 39.6665 62.0535C39.6662 62.0584 39.6662 62.0636 39.666 62.0686C39.6648 62.0964 39.6639 62.1245 39.6633 62.1524C39.6631 62.1625 39.6628 62.1724 39.6625 62.1825C39.6619 62.2063 39.6616 62.2301 39.661 62.2539C39.661 62.264 39.6607 62.2742 39.6607 62.284C39.6604 62.3168 39.6602 62.3496 39.6602 62.3826C39.6602 67.0437 43.4387 70.8219 48.0994 70.8219H51.4888V73.8253C51.4888 74.4032 51.9574 74.8716 52.5354 74.8716H71.46C72.038 74.8716 72.5063 74.403 72.5063 73.8253V70.8219H75.8957C80.5579 70.8228 84.3364 67.0443 84.3364 62.3832Z" fill="#F96B31"/>
<path d="M75.8954 51.9141C75.8446 51.9141 75.7939 51.9147 75.7431 51.9155C74.994 48.0216 71.5684 45.08 67.4561 45.08C66.2099 45.08 65.027 45.3503 63.9624 45.8349C62.579 43.0624 59.7152 41.1582 56.4062 41.1582C51.7451 41.1582 47.9669 44.9367 47.9669 49.5975C47.9669 50.4017 48.0794 51.1795 48.2894 51.9161C48.2262 51.9147 48.1629 51.9138 48.0994 51.9138C43.4384 51.9138 39.6602 55.6923 39.6602 60.3531C39.6602 65.0141 43.4387 68.7923 48.0994 68.7923H75.8954C80.5564 68.7923 84.3347 65.0138 84.3347 60.3531C84.3347 55.6926 80.5561 51.9141 75.8954 51.9141Z" fill="white"/>
<path d="M75.896 63.6647H48.0997C44.3328 63.6647 41.1424 61.1964 40.0569 57.7891C39.7994 58.5976 39.6602 59.4589 39.6602 60.3527C39.6602 65.0138 43.4387 68.792 48.0994 68.792H75.8954C80.5564 68.792 84.3347 65.0135 84.3347 60.3527C84.3347 59.4589 84.1955 58.5973 83.9379 57.7891C82.8533 61.1964 79.6629 63.6647 75.896 63.6647Z" fill="#D1D3D4"/>
<path d="M71.4592 72.842H52.5349C51.9569 72.842 51.4883 72.3734 51.4883 71.7954V56.185C51.4883 55.607 51.9569 55.1387 52.5349 55.1387H71.4595C72.0375 55.1387 72.5061 55.6073 72.5061 56.185V71.7957C72.5058 72.3736 72.0372 72.842 71.4592 72.842Z" fill="#136DA0"/>
<path d="M71.4592 72.0435H52.5349C51.9569 72.0435 51.4883 71.5748 51.4883 70.9971V55.3865C51.4883 54.8085 51.9569 54.3398 52.5349 54.3398H71.4595C72.0375 54.3398 72.5061 54.8085 72.5061 55.3865V70.9971C72.5058 71.5751 72.0372 72.0435 71.4592 72.0435Z" fill="#8585F2"/>
<path d="M58.379 68.7777C58.1992 68.7777 58.0194 68.7093 57.8823 68.5718L54.8856 65.5751C54.7536 65.4435 54.6797 65.2645 54.6797 65.0783C54.6797 64.8919 54.7536 64.7132 54.8853 64.5816L57.882 61.5849C58.1566 61.3102 58.6012 61.3102 58.8758 61.5849C59.1502 61.8592 59.1502 62.3041 58.8758 62.5785L56.376 65.0783L58.8758 67.5782C59.1505 67.8526 59.1505 68.2974 58.8761 68.5718C58.7384 68.7093 58.5586 68.7777 58.379 68.7777Z" fill="#8585F2"/>
<path d="M65.6169 68.7777C65.4371 68.7777 65.2573 68.7093 65.1198 68.5718C64.8454 68.2974 64.8454 67.8526 65.1201 67.5782L67.62 65.0783L65.1201 62.5785C64.8457 62.3041 64.8457 61.8592 65.1201 61.5849C65.3947 61.3102 65.8393 61.3102 66.1139 61.5849L69.1106 64.5816C69.2423 64.7132 69.3162 64.8921 69.3162 65.0783C69.3162 65.2645 69.2423 65.4435 69.1103 65.5751L66.1137 68.5718C65.9765 68.7093 65.7967 68.7777 65.6169 68.7777Z" fill="#8585F2"/>
<path d="M60.4759 68.778C60.3689 68.778 60.2601 68.7533 60.158 68.7017C59.8121 68.526 59.674 68.1028 59.8498 67.7569L62.8946 61.7635C63.0706 61.4175 63.4934 61.2795 63.8394 61.4552C64.1854 61.631 64.3234 62.0538 64.1477 62.4001L61.1029 68.3934C60.9791 68.6373 60.7323 68.778 60.4759 68.778Z" fill="#8585F2"/>
<path d="M58.379 68.0492C58.1992 68.0492 58.0194 67.9807 57.8823 67.8433L54.8856 64.8466C54.7536 64.7149 54.6797 64.536 54.6797 64.3498C54.6797 64.1636 54.7536 63.9847 54.8853 63.853L57.882 60.8564C58.1566 60.5817 58.6012 60.5817 58.8758 60.8564C59.1502 61.1307 59.1502 61.5756 58.8758 61.8499L56.376 64.3498L58.8758 66.8497C59.1505 67.1241 59.1505 67.5689 58.8761 67.8436C58.7384 67.9807 58.5586 68.0492 58.379 68.0492Z" fill="white"/>
<path d="M56.3748 64.3497L58.8747 61.8498C59.1491 61.5755 59.1491 61.1306 58.8747 60.8563C58.6172 60.599 58.2106 60.5828 57.9345 60.8078C57.9531 60.8229 57.9711 60.8392 57.9882 60.8563C58.2625 61.1306 58.2625 61.5755 57.9882 61.8498L55.4883 64.3497L57.9882 66.8496C58.2628 67.124 58.2628 67.5688 57.9885 67.8435C57.9713 67.8606 57.9534 67.8768 57.9348 67.8919C58.0636 67.9969 58.2207 68.0494 58.3779 68.0494C58.5577 68.0494 58.7375 67.9809 58.875 67.8435C59.1494 67.5691 59.1494 67.1243 58.8747 66.8496L56.3748 64.3497Z" fill="#E6E7E8"/>
<path d="M65.6169 68.0495C65.4371 68.0495 65.2573 67.981 65.1198 67.8436C64.8454 67.5692 64.8454 67.1243 65.1201 66.8497L67.62 64.3498L65.1201 61.8499C64.8457 61.5756 64.8457 61.1307 65.1201 60.8564C65.3947 60.5817 65.8393 60.5817 66.1139 60.8564L69.1106 63.853C69.2423 63.9847 69.3162 64.1636 69.3162 64.3498C69.3162 64.536 69.2423 64.7149 69.1103 64.8466L66.1137 67.8433C65.9765 67.981 65.7967 68.0495 65.6169 68.0495Z" fill="white"/>
<path d="M66.0063 67.8434C65.732 67.569 65.732 67.1241 66.0066 66.8495L68.5065 64.3496L66.0066 61.8497C65.7323 61.5754 65.7323 61.1305 66.0066 60.8562C66.024 60.8388 66.0417 60.8228 66.0603 60.8077C65.7842 60.583 65.3776 60.5989 65.1201 60.8562C64.8457 61.1305 64.8457 61.5754 65.1201 61.8497L67.62 64.3496L65.1201 66.8495C64.8454 67.1238 64.8454 67.5687 65.1198 67.8434C65.257 67.9805 65.4368 68.0493 65.6169 68.0493C65.774 68.0493 65.9312 67.9968 66.06 67.8918C66.0414 67.8767 66.0235 67.8605 66.0063 67.8434Z" fill="#E6E7E8"/>
<path d="M60.4759 68.0495C60.3689 68.0495 60.2601 68.0248 60.158 67.9732C59.8121 67.7974 59.674 67.3743 59.8498 67.0283L62.8946 61.035C63.0706 60.689 63.4934 60.551 63.8394 60.7267C64.1854 60.9025 64.3234 61.3253 64.1477 61.6716L61.1029 67.6649C60.9791 67.9088 60.7323 68.0495 60.4759 68.0495Z" fill="white"/>
<path d="M63.8386 60.7262C63.7893 60.7012 63.7385 60.6827 63.6872 60.6699C63.7258 60.8277 63.7104 60.9994 63.6312 61.1554L60.5864 67.1487C60.4626 67.3926 60.2155 67.5333 59.9594 67.5333C59.904 67.5333 59.8481 67.5266 59.793 67.513C59.84 67.7047 59.9673 67.8758 60.1572 67.9724C60.2593 68.0243 60.3678 68.0486 60.4751 68.0486C60.7311 68.0486 60.9782 67.908 61.1021 67.6641L64.1469 61.6707C64.3226 61.3248 64.1846 60.9019 63.8386 60.7262Z" fill="#E6E7E8"/>
<path d="M71.4589 54.3398H52.5346C51.9566 54.3398 51.4883 54.8085 51.4883 55.3865V57.436H72.5058V55.3865C72.5056 54.8085 72.0369 54.3398 71.4589 54.3398Z" fill="#136DA0"/>
<path d="M53.3195 56.3676C53.5844 56.3676 53.7992 56.1528 53.7992 55.8879C53.7992 55.623 53.5844 55.4082 53.3195 55.4082C53.0546 55.4082 52.8398 55.623 52.8398 55.8879C52.8398 56.1528 53.0546 56.3676 53.3195 56.3676Z" fill="white"/>
<path d="M55.6312 55.8879C55.6312 56.1527 55.4166 56.3676 55.1516 56.3676C54.8868 56.3676 54.6719 56.1527 54.6719 55.8879C54.6719 55.6231 54.8865 55.4082 55.1516 55.4082C55.4163 55.4082 55.6312 55.6231 55.6312 55.8879Z" fill="white"/>
<path d="M57.4633 55.8879C57.4633 56.1527 57.2484 56.3676 56.9836 56.3676C56.7188 56.3676 56.5039 56.1527 56.5039 55.8879C56.5039 55.6231 56.7188 55.4082 56.9836 55.4082C57.2484 55.4082 57.4633 55.6231 57.4633 55.8879Z" fill="white"/>
</g>
<defs>
<clipPath id="clip0_144_6111">
<rect width="70" height="70" fill="white" transform="translate(27 22)"/>
</clipPath>
</defs>
</svg>
