<svg width="302" height="118" viewBox="0 0 302 118" fill="none" xmlns="http://www.w3.org/2000/svg">
<path d="M0 8C0 3.58173 3.58172 0 8 0H77V71.6719H0V8Z" fill="#F9893D" fill-opacity="0.5"/>
<rect x="16.5" y="16.6523" width="90" height="82.7855" rx="7.5" fill="#1A1A1A" stroke="#D6B88D"/>
<rect x="19" y="20.1895" width="84" height="74.7003" rx="8" fill="#1A1A1A"/>
<path d="M294.5 113.006L16 113.006L2 88.832" stroke="#F96B31" stroke-width="0.5" stroke-miterlimit="10"/>
<path d="M234.5 108.35C235.816 108.35 237 107.287 237 105.826C237 104.498 235.947 103.302 234.5 103.302C233.184 103.302 232 104.365 232 105.826C232 107.287 233.053 108.35 234.5 108.35Z" fill="#FF842C"/>
<path d="M17.5 105.994L41.3879 105.994L233 105.994" stroke="#F9893D" stroke-width="0.5" stroke-miterlimit="10"/>
<path d="M297.055 117.208C299.189 117.208 301.11 115.485 301.11 113.115C301.11 110.96 299.402 109.021 297.055 109.021C294.921 109.021 293 110.745 293 113.115C293.213 115.269 294.921 117.208 297.055 117.208Z" fill="#F96B31"/>
<path d="M62 92C81.33 92 97 76.33 97 57C97 37.67 81.33 22 62 22C42.67 22 27 37.67 27 57C27 76.33 42.67 92 62 92Z" fill="#F9893D"/>
<path d="M61.9982 37.8594C57.7874 37.8594 53.7489 39.5321 50.7714 42.5097C47.7939 45.4872 46.1211 49.5256 46.1211 53.7365V65.8088C46.1209 66.2521 46.2081 66.6912 46.3777 67.1008C46.5473 67.5104 46.7959 67.8826 47.1094 68.1961C47.4229 68.5096 47.7951 68.7582 48.2047 68.9278C48.6143 69.0974 49.0533 69.1846 49.4967 69.1844H51.9439C52.8392 69.1844 53.6978 68.8287 54.3308 68.1957C54.9639 67.5626 55.3195 66.704 55.3195 65.8088V59.6045C55.3195 58.7092 54.9639 57.8506 54.3308 57.2176C53.6978 56.5845 52.8392 56.2289 51.9439 56.2289H50.0436V53.7365C50.0436 50.5659 51.3031 47.5252 53.545 45.2833C55.7869 43.0413 58.8277 41.7818 61.9982 41.7818C65.1688 41.7818 68.2095 43.0413 70.4515 45.2833C72.6934 47.5252 73.9529 50.5659 73.9529 53.7365V56.2289H72.0525C71.1573 56.2289 70.2987 56.5845 69.6656 57.2176C69.0326 57.8506 68.677 58.7092 68.677 59.6045V65.8088C68.6774 66.6639 69.0021 67.487 69.5858 68.112C70.1694 68.737 70.9684 69.1173 71.8215 69.1762C71.4413 69.9289 70.8599 70.5614 70.1419 71.0036C69.4239 71.4457 68.5973 71.6802 67.7541 71.6809H66.875C66.6696 71.3316 66.3764 71.0422 66.0246 70.8412C65.6728 70.6402 65.2745 70.5347 64.8693 70.5352H61.6975C61.081 70.5352 60.4899 70.78 60.054 71.2159C59.6181 71.6518 59.3732 72.243 59.3732 72.8594V73.8164C59.3732 74.4328 59.6181 75.024 60.054 75.4599C60.4899 75.8958 61.081 76.1406 61.6975 76.1406H64.8693C65.274 76.1406 65.6717 76.0348 66.023 75.8339C66.3743 75.6329 66.6671 75.3437 66.8723 74.9949H67.7514C69.4999 74.9928 71.198 74.4094 72.5786 73.3365C73.9592 72.2636 74.9438 70.762 75.3775 69.0682C76.0935 68.8742 76.7256 68.4499 77.1763 67.8608C77.6271 67.2716 77.8713 66.5505 77.8713 65.8088V53.7365C77.8713 49.5264 76.1991 45.4886 73.2224 42.5111C70.2458 39.5337 66.2084 37.8605 61.9982 37.8594Z" fill="white"/>
</svg>
