<svg width="320" height="5321" viewBox="0 0 320 5321" fill="none" xmlns="http://www.w3.org/2000/svg">
<rect width="320" height="5321" fill="#1A1A1A"/>
<g clip-path="url(#clip0_146_12230)">
<g opacity="0.18">
<path d="M165.094 83.4051V11.3266H163.032L151.688 37.5838H135.703L152.719 0H180.047V83.4051H165.094Z" fill="#F9893D" fill-opacity="0.5"/>
<path d="M161.485 209.027C151.688 209.027 143.953 206.453 137.766 200.79C131.578 195.126 129 187.404 129 176.077V155.483C129 144.671 132.094 136.949 137.766 131.285C143.438 125.622 151.688 123.048 161.485 123.048C171.282 123.048 179.016 125.622 185.204 131.285C190.876 136.949 193.969 145.186 193.969 155.483V176.077C193.969 186.889 190.876 195.126 185.204 200.79C179.016 206.453 171.282 209.027 161.485 209.027ZM161.485 195.641C167.157 195.641 171.797 194.097 174.376 191.008C176.954 187.918 178.501 183.285 178.501 177.107V154.968C178.501 148.79 176.954 144.157 173.86 141.067C170.766 137.978 166.641 136.434 161.485 136.434C155.813 136.434 151.688 137.978 148.594 141.067C145.5 144.157 143.953 148.79 143.953 154.453V176.592C143.953 182.77 145.5 187.404 148.078 190.493C151.172 194.097 155.813 195.641 161.485 195.641Z" fill="#F9893D" fill-opacity="0.5"/>
<path d="M165.094 332.076V259.998H163.032L151.688 286.255H135.703L152.719 248.671H180.047V331.561H165.094V332.076Z" fill="#F9893D" fill-opacity="0.5"/>
<path d="M165.094 456.154V384.59H163.032L151.688 410.847H135.703L152.719 373.264H180.047V456.154H165.094Z" fill="#F9893D" fill-opacity="0.5"/>
<path d="M165.094 580.747V508.668H163.032L151.688 534.925H135.703L153.235 497.856H180.563V580.747H165.094Z" fill="#F9893D" fill-opacity="0.5"/>
<path d="M161.485 706.369C151.688 706.369 143.953 703.795 137.766 698.131C131.578 692.468 129 684.745 129 673.419V652.825C129 642.013 132.094 634.29 137.766 628.627C143.438 622.964 151.688 620.39 161.485 620.39C171.282 620.39 179.016 622.964 185.204 628.627C190.876 634.29 193.969 642.528 193.969 652.825V673.419C193.969 684.231 190.876 692.468 185.204 698.131C179.016 703.795 171.282 706.369 161.485 706.369ZM161.485 692.983C167.157 692.983 171.797 691.438 174.376 688.349C176.954 685.26 178.501 680.627 178.501 674.448V652.31C178.501 646.132 176.954 641.498 173.86 638.409C170.766 635.32 166.641 633.776 161.485 633.776C155.813 633.776 151.688 635.32 148.594 638.409C145.5 641.498 143.953 646.132 143.953 651.795V673.934C143.953 680.112 145.5 684.745 148.078 687.834C151.172 691.438 155.813 692.983 161.485 692.983Z" fill="#F9893D" fill-opacity="0.5"/>
<path d="M161.485 830.962C151.688 830.962 143.953 828.388 137.766 822.724C131.578 817.061 129 809.338 129 798.012V777.418C129 766.606 132.094 758.883 137.766 753.22C143.438 747.557 151.688 744.982 161.485 744.982C171.282 744.982 179.016 747.557 185.204 753.22C190.876 758.883 193.969 767.121 193.969 777.418V798.012C193.969 808.823 190.876 817.061 185.204 822.724C179.016 828.388 171.282 830.962 161.485 830.962ZM161.485 817.576C167.157 817.576 171.797 816.031 174.376 812.942C176.954 809.853 178.501 805.219 178.501 799.041V776.903C178.501 770.725 176.954 766.091 173.86 763.002C170.766 759.913 166.641 758.368 161.485 758.368C155.813 758.368 151.688 759.913 148.594 763.002C145.5 766.091 143.953 770.725 143.953 776.388V798.526C143.953 804.705 145.5 809.338 148.078 812.427C151.172 816.031 155.813 817.576 161.485 817.576Z" fill="#F9893D" fill-opacity="0.5"/>
<path d="M165.094 953.495V881.931H163.032L151.688 908.188H135.703L152.719 870.604H180.047V953.495H165.094Z" fill="#F9893D" fill-opacity="0.5"/>
<path d="M161.485 1079.63C151.688 1079.63 143.953 1077.06 137.766 1071.4C131.578 1065.73 129 1058.01 129 1046.68V1026.09C129 1015.28 132.094 1007.55 137.766 1001.89C143.438 996.228 151.688 993.653 161.485 993.653C171.282 993.653 179.016 996.228 185.204 1001.89C190.876 1007.55 193.969 1015.79 193.969 1026.09V1046.68C193.969 1057.49 190.876 1065.73 185.204 1071.4C179.016 1077.06 171.282 1079.63 161.485 1079.63ZM161.485 1066.25C167.157 1066.25 171.797 1064.7 174.376 1061.61C176.954 1058.52 178.501 1053.89 178.501 1047.71V1025.57C178.501 1019.4 176.954 1014.76 173.86 1011.67C170.766 1008.58 166.641 1007.04 161.485 1007.04C155.813 1007.04 151.688 1008.58 148.594 1011.67C145.5 1014.76 143.953 1019.4 143.953 1025.06V1047.2C143.953 1053.38 145.5 1058.01 148.078 1061.1C151.172 1064.7 155.813 1066.25 161.485 1066.25Z" fill="#F9893D" fill-opacity="0.5"/>
<path opacity="0.78" d="M165.094 1202.17V1130.6H163.032L151.688 1156.86H135.703L152.719 1119.28H180.047V1202.17H165.094Z" fill="#F9893D" fill-opacity="0.5"/>
<path opacity="0.78" d="M161.485 1328.3C151.688 1328.3 143.953 1325.73 137.766 1320.07C131.578 1314.4 129 1306.68 129 1295.35V1274.76C129 1263.95 132.094 1256.23 137.766 1250.56C143.438 1244.9 151.688 1242.32 161.485 1242.32C171.282 1242.32 179.016 1244.9 185.204 1250.56C190.876 1256.23 193.969 1264.46 193.969 1274.76V1295.35C193.969 1306.17 190.876 1314.4 185.204 1320.07C179.016 1325.73 171.282 1328.3 161.485 1328.3ZM161.485 1314.92C167.157 1314.92 171.797 1313.37 174.376 1310.28C176.954 1307.19 178.501 1302.56 178.501 1296.38V1274.24C178.501 1268.07 176.954 1263.43 173.86 1260.34C170.766 1257.25 166.641 1255.71 161.485 1255.71C155.813 1255.71 151.688 1257.25 148.594 1260.34C145.5 1263.43 143.953 1268.07 143.953 1273.73V1295.87C143.953 1302.05 145.5 1306.68 148.078 1309.77C151.172 1313.37 155.813 1314.92 161.485 1314.92Z" fill="#F9893D" fill-opacity="0.5"/>
<path opacity="0.78" d="M161.485 1452.38C151.688 1452.38 143.953 1449.81 137.766 1444.14C131.578 1438.48 129 1430.76 129 1419.43V1398.84C129 1388.02 132.094 1380.3 137.766 1374.64C143.438 1368.98 151.688 1366.4 161.485 1366.4C171.282 1366.4 179.016 1368.98 185.204 1374.64C190.876 1380.3 193.969 1388.54 193.969 1398.84V1419.43C193.969 1430.24 190.876 1438.48 185.204 1444.14C179.016 1449.81 171.282 1452.38 161.485 1452.38ZM161.485 1438.99C167.157 1438.99 171.797 1437.45 174.376 1434.36C176.954 1431.27 178.501 1426.64 178.501 1420.46V1398.32C178.501 1392.14 176.954 1387.51 173.86 1384.42C170.766 1381.33 166.641 1379.79 161.485 1379.79C155.813 1379.79 151.688 1381.33 148.594 1384.42C145.5 1387.51 143.953 1392.14 143.953 1397.81V1419.95C143.953 1426.12 145.5 1430.76 148.078 1433.85C151.172 1437.45 155.813 1438.99 161.485 1438.99Z" fill="#F9893D" fill-opacity="0.5"/>
<path d="M165.094 1575.43V1503.87H163.032L151.688 1530.12H135.703L152.719 1492.54H180.047V1575.43H165.094Z" fill="#F9893D" fill-opacity="0.5"/>
<path d="M161.485 1701.05C151.688 1701.05 143.953 1698.48 137.766 1692.81C131.578 1687.15 129 1679.43 129 1668.1V1647.51C129 1636.7 132.094 1628.97 137.766 1623.31C143.438 1617.65 151.688 1615.07 161.485 1615.07C171.282 1615.07 179.016 1617.65 185.204 1623.31C190.876 1628.97 193.969 1637.21 193.969 1647.51V1668.1C193.969 1678.91 190.876 1687.15 185.204 1692.81C179.016 1698.48 171.282 1701.05 161.485 1701.05ZM161.485 1687.67C167.157 1687.67 171.797 1686.12 174.376 1683.03C176.954 1679.94 178.501 1675.31 178.501 1669.13V1646.99C178.501 1640.81 176.954 1636.18 173.86 1633.09C170.766 1630 166.641 1628.46 161.485 1628.46C155.813 1628.46 151.688 1630 148.594 1633.09C145.5 1636.18 143.953 1640.81 143.953 1646.48V1668.62C143.953 1674.79 145.5 1679.43 148.078 1682.52C151.172 1686.12 155.813 1687.67 161.485 1687.67Z" fill="#F9893D" fill-opacity="0.5"/>
<path d="M165.094 1824.1V1752.54H163.032L151.688 1778.79H135.703L152.719 1741.21H180.047V1824.1H165.094Z" fill="#F9893D" fill-opacity="0.5"/>
<path d="M161.485 1949.72C151.688 1949.72 143.953 1947.15 137.766 1941.48C131.578 1935.82 129 1928.1 129 1916.77V1896.18C129 1885.37 132.094 1877.64 137.766 1871.98C143.438 1866.32 151.688 1863.74 161.485 1863.74C171.282 1863.74 179.016 1866.32 185.204 1871.98C190.876 1877.64 193.969 1885.88 193.969 1896.18V1916.77C193.969 1927.58 190.876 1935.82 185.204 1941.48C179.016 1947.15 171.282 1949.72 161.485 1949.72ZM161.485 1936.34C167.157 1936.34 171.797 1934.79 174.376 1931.7C176.954 1928.61 178.501 1923.98 178.501 1917.8V1895.66C178.501 1889.48 176.954 1884.85 173.86 1881.76C170.766 1878.67 166.641 1877.13 161.485 1877.13C155.813 1877.13 151.688 1878.67 148.594 1881.76C145.5 1884.85 143.953 1889.48 143.953 1895.15V1917.29C143.953 1923.46 145.5 1928.1 148.078 1931.19C151.172 1934.79 155.813 1936.34 161.485 1936.34Z" fill="#F9893D" fill-opacity="0.5"/>
<path d="M165.094 2072.77V2001.21H163.032L151.688 2027.46H135.703L152.719 1989.88H180.047V2072.77H165.094Z" fill="#F9893D" fill-opacity="0.5"/>
<path d="M161.485 2198.39C151.688 2198.39 143.953 2195.82 137.766 2190.16C131.578 2184.49 129 2176.77 129 2165.44V2144.85C129 2134.04 132.094 2126.31 137.766 2120.65C143.438 2114.99 151.688 2112.41 161.485 2112.41C171.282 2112.41 179.016 2114.99 185.204 2120.65C190.876 2126.31 193.969 2134.55 193.969 2144.85V2165.44C193.969 2176.25 190.876 2184.49 185.204 2190.16C179.016 2195.82 171.282 2198.39 161.485 2198.39ZM161.485 2185.01C167.157 2185.01 171.797 2183.46 174.376 2180.37C176.954 2177.28 178.501 2172.65 178.501 2166.47V2144.33C178.501 2138.16 176.954 2133.52 173.86 2130.43C170.766 2127.34 166.641 2125.8 161.485 2125.8C155.813 2125.8 151.688 2127.34 148.594 2130.43C145.5 2133.52 143.953 2138.16 143.953 2143.82V2165.96C143.953 2172.14 145.5 2176.77 148.078 2179.86C151.172 2183.46 155.813 2185.01 161.485 2185.01Z" fill="#F9893D" fill-opacity="0.5"/>
<path d="M165.094 2321.44V2249.88H163.032L151.688 2276.13H135.703L152.719 2238.55H180.047V2321.44H165.094Z" fill="#F9893D" fill-opacity="0.5"/>
</g>
<g opacity="0.18">
<path d="M56.4847 85.9792C46.6877 85.9792 38.9532 83.4051 32.7656 77.7418C27.0937 72.5933 24 64.3557 24 53.0291V32.4352C24 21.6235 27.0937 13.9009 32.7656 8.23757C38.4376 2.57426 46.6877 0 56.4847 0C66.2817 0 74.0162 2.57426 80.2037 8.23757C85.8757 13.9009 88.9694 22.1383 88.9694 32.4352V53.0291C88.9694 63.8409 85.8757 72.0785 80.2037 77.7418C74.5318 83.4051 66.7973 85.9792 56.4847 85.9792ZM56.4847 72.5933C62.1566 72.5933 66.7973 71.0487 69.3755 67.9596C71.9536 64.8705 73.5004 60.237 73.5004 54.0588V31.9204C73.5004 25.7422 71.9536 21.1087 68.8598 18.0196C65.766 14.9305 61.641 13.386 56.4847 13.386C50.8127 13.386 46.6877 14.9305 43.5939 18.0196C40.5001 21.1087 38.9533 25.7423 38.9533 31.4056V53.544C38.9533 59.7221 40.5001 64.3558 43.0783 67.4449C46.6877 71.0488 50.8127 72.5933 56.4847 72.5933Z" fill="#F9893D" fill-opacity="0.5"/>
<path d="M60.6096 205.938V134.375H58.5471L47.2033 160.632H31.2188L48.2345 123.048H75.563V205.938H60.6096Z" fill="#F9893D" fill-opacity="0.5"/>
<path d="M56.4847 328.986C46.6877 328.986 38.9532 326.412 32.7656 320.749C27.0937 315.085 24 307.363 24 296.036V275.442C24 264.63 27.0937 256.908 32.7656 251.245C38.4376 245.581 46.6877 243.007 56.4847 243.007C66.2817 243.007 74.0162 245.581 80.2037 251.245C85.8757 256.908 88.9694 265.145 88.9694 275.442V296.036C88.9694 306.848 85.8757 315.085 80.2037 320.749C74.5318 325.897 66.7973 328.986 56.4847 328.986ZM56.4847 315.085C62.1566 315.085 66.7973 313.541 69.3755 310.452C71.9536 307.363 73.5004 302.729 73.5004 296.551V274.413C73.5004 268.234 71.9536 263.601 68.8598 260.512C65.766 257.423 61.641 255.878 56.4847 255.878C50.8127 255.878 46.6877 257.423 43.5939 260.512C40.5001 263.601 38.9533 268.234 38.9533 273.898V296.036C38.9533 302.214 40.5001 306.848 43.0783 309.937C46.6877 313.541 50.8127 315.085 56.4847 315.085Z" fill="#F9893D" fill-opacity="0.5"/>
<path d="M60.6096 448.431V376.868H58.5471L47.2033 403.125H31.2188L48.2345 365.541H75.563V448.431H60.6096Z" fill="#F9893D" fill-opacity="0.5"/>
<path d="M56.4847 571.479C46.6877 571.479 38.9532 568.905 32.7656 563.242C27.0937 558.093 24 549.856 24 538.529V517.935C24 507.123 27.0937 499.401 32.7656 493.737C38.4376 488.074 46.6877 485.5 56.4847 485.5C66.2817 485.5 74.0162 488.074 80.2037 493.737C85.8757 499.401 88.9694 507.638 88.9694 517.935V538.529C88.9694 549.341 85.8757 557.578 80.2037 563.242C74.5318 568.905 66.7973 571.479 56.4847 571.479ZM56.4847 558.093C62.1566 558.093 66.7973 556.549 69.3755 553.459C71.9536 550.37 73.5004 545.737 73.5004 539.559V517.42C73.5004 511.242 71.9536 506.609 68.8598 503.52C65.766 500.431 61.641 498.886 56.4847 498.886C50.8127 498.886 46.6877 500.431 43.5939 503.52C40.5001 506.609 38.9533 511.242 38.9533 516.905V539.044C38.9533 545.222 40.5001 549.856 43.0783 552.945C46.6877 556.549 50.8127 558.093 56.4847 558.093Z" fill="#F9893D" fill-opacity="0.5"/>
<path d="M60.6096 691.438V619.875H58.5471L47.2033 646.132H31.2188L48.2345 608.548H75.563V691.438H60.6096Z" fill="#F9893D" fill-opacity="0.5"/>
<path d="M56.4847 814.486C46.6877 814.486 38.9532 811.912 32.7656 806.249C27.0937 801.1 24 792.863 24 781.536V760.942C24 750.131 27.0937 742.408 32.7656 736.745C38.4376 731.081 46.6877 728.507 56.4847 728.507C66.2817 728.507 74.0162 731.081 80.2037 736.745C85.8757 742.408 88.9694 750.645 88.9694 760.942V781.536C88.9694 792.348 85.8757 800.585 80.2037 806.249C74.5318 811.397 66.7973 814.486 56.4847 814.486ZM56.4847 800.585C62.1566 800.585 66.7973 799.041 69.3755 795.952C71.9536 792.863 73.5004 788.229 73.5004 782.051V759.913C73.5004 753.734 71.9536 749.101 68.8598 746.012C65.766 742.923 61.641 741.378 56.4847 741.378C50.8127 741.378 46.6877 742.923 43.5939 746.012C40.5001 749.101 38.9533 753.734 38.9533 759.398V781.536C38.9533 787.714 40.5001 792.348 43.0783 795.437C46.6877 799.041 50.8127 800.585 56.4847 800.585Z" fill="#F9893D" fill-opacity="0.5"/>
<path d="M60.6096 933.931V862.367H58.5471L47.2033 888.625H31.2188L48.2345 851.041H75.563V933.931H60.6096Z" fill="#F9893D" fill-opacity="0.5"/>
<path d="M56.4847 1056.98C46.6877 1056.98 38.9532 1054.4 32.7656 1048.74C27.0937 1043.08 24 1035.36 24 1024.03V1003.44C24 992.623 27.0937 984.901 32.7656 979.237C38.4376 973.574 46.6877 971 56.4847 971C66.2817 971 74.0162 973.574 80.2037 979.237C85.8757 984.901 88.9694 993.138 88.9694 1003.44V1024.03C88.9694 1034.84 85.8757 1043.08 80.2037 1048.74C74.5318 1054.4 66.7973 1056.98 56.4847 1056.98ZM56.4847 1043.59C62.1566 1043.59 66.7973 1042.05 69.3755 1038.96C71.9536 1035.87 73.5004 1031.24 73.5004 1025.06V1002.92C73.5004 996.742 71.9536 992.109 68.8598 989.02C65.766 985.931 61.641 984.386 56.4847 984.386C50.8127 984.386 46.6877 985.931 43.5939 989.02C40.5001 992.109 38.9533 996.742 38.9533 1002.41V1024.54C38.9533 1030.72 40.5001 1035.36 43.0783 1038.44C46.6877 1042.05 50.8127 1043.59 56.4847 1043.59Z" fill="#F9893D" fill-opacity="0.5"/>
<path d="M60.6096 1176.94V1105.37H58.5471L47.2033 1131.63H31.2188L48.2345 1094.05H75.563V1176.94H60.6096Z" fill="#F9893D" fill-opacity="0.5"/>
<path d="M56.4847 1299.99C46.6877 1299.99 38.9532 1297.41 32.7656 1291.75C27.0937 1286.6 24 1278.36 24 1267.04V1246.44C24 1235.63 27.0937 1227.91 32.7656 1222.25C38.4376 1216.58 46.6877 1214.01 56.4847 1214.01C66.2817 1214.01 74.0162 1216.58 80.2037 1222.25C85.8757 1227.91 88.9694 1236.15 88.9694 1246.44V1267.04C88.9694 1277.85 85.8757 1286.09 80.2037 1291.75C74.5318 1296.9 66.7973 1299.99 56.4847 1299.99ZM56.4847 1286.09C62.1566 1286.09 66.7973 1284.54 69.3755 1281.45C71.9536 1278.36 73.5004 1273.73 73.5004 1267.55V1245.41C73.5004 1239.24 71.9536 1234.6 68.8598 1231.51C65.766 1228.42 61.641 1226.88 56.4847 1226.88C50.8127 1226.88 46.6877 1228.42 43.5939 1231.51C40.5001 1234.6 38.9533 1239.24 38.9533 1244.9V1267.04C38.9533 1273.22 40.5001 1277.85 43.0783 1280.94C46.6877 1284.54 50.8127 1286.09 56.4847 1286.09Z" fill="#F9893D" fill-opacity="0.5"/>
<path d="M60.6096 1419.43V1347.87H58.5471L47.2033 1374.12H31.2188L48.2345 1336.54H75.563V1419.43H60.6096Z" fill="#F9893D" fill-opacity="0.5"/>
<path d="M60.6096 1540.93V1469.37H58.5471L47.2033 1495.63H31.2188L48.2345 1458.04H75.563V1540.93H60.6096Z" fill="#F9893D" fill-opacity="0.5"/>
<path d="M60.6096 1662.44V1590.36H58.5471L47.2033 1616.62H31.2188L48.2345 1579.03H75.563V1662.44H60.6096Z" fill="#F9893D" fill-opacity="0.5"/>
<path d="M56.4847 1785.49C46.6877 1785.49 38.9532 1782.91 32.7656 1777.25C27.0937 1772.1 24 1763.86 24 1752.54V1731.94C24 1721.13 27.0937 1713.41 32.7656 1707.74C38.4376 1702.08 46.6877 1699.51 56.4847 1699.51C66.2817 1699.51 74.0162 1702.08 80.2037 1707.74C85.8757 1713.41 88.9694 1721.65 88.9694 1731.94V1752.54C88.9694 1763.35 85.8757 1771.59 80.2037 1777.25C74.5318 1782.4 66.7973 1785.49 56.4847 1785.49ZM56.4847 1771.59C62.1566 1771.59 66.7973 1770.04 69.3755 1766.95C71.9536 1763.86 73.5004 1759.23 73.5004 1753.05V1730.91C73.5004 1724.73 71.9536 1720.1 68.8598 1717.01C65.766 1713.92 61.641 1712.38 56.4847 1712.38C50.8127 1712.38 46.6877 1713.92 43.5939 1717.01C40.5001 1720.1 38.9533 1724.73 38.9533 1730.4V1752.54C38.9533 1758.71 40.5001 1763.35 43.0783 1766.44C46.6877 1770.04 50.8127 1771.59 56.4847 1771.59Z" fill="#F9893D" fill-opacity="0.5"/>
<path d="M56.4847 1906.48C46.6877 1906.48 38.9532 1903.9 32.7656 1898.24C27.0937 1893.09 24 1884.85 24 1873.53V1852.93C24 1842.12 27.0937 1834.4 32.7656 1828.73C38.4376 1823.07 46.6877 1820.5 56.4847 1820.5C66.2817 1820.5 74.0162 1823.07 80.2037 1828.73C85.8757 1834.4 88.9694 1842.63 88.9694 1852.93V1873.53C88.9694 1884.34 85.8757 1892.57 80.2037 1898.24C74.5318 1903.9 66.7973 1906.48 56.4847 1906.48ZM56.4847 1893.09C62.1566 1893.09 66.7973 1891.54 69.3755 1888.46C71.9536 1885.37 73.5004 1880.73 73.5004 1874.55V1852.42C73.5004 1846.24 71.9536 1841.6 68.8598 1838.52C65.766 1835.43 61.641 1833.88 56.4847 1833.88C50.8127 1833.88 46.6877 1835.43 43.5939 1838.52C40.5001 1841.6 38.9533 1846.24 38.9533 1851.9V1874.04C38.9533 1880.22 40.5001 1884.85 43.0783 1887.94C46.6877 1891.54 50.8127 1893.09 56.4847 1893.09Z" fill="#F9893D" fill-opacity="0.5"/>
<path d="M60.6096 2026.43V1954.87H58.5471L47.2033 1981.13H31.2188L48.2345 1943.54H75.563V2026.43H60.6096Z" fill="#F9893D" fill-opacity="0.5"/>
<path d="M56.4847 2149.48C46.6877 2149.48 38.9532 2146.91 32.7656 2141.25C27.0937 2135.58 24 2127.86 24 2116.53V2095.94C24 2085.13 27.0937 2077.4 32.7656 2071.74C38.4376 2066.08 46.6877 2063.5 56.4847 2063.5C66.2817 2063.5 74.0162 2066.08 80.2037 2071.74C85.8757 2077.4 88.9694 2085.64 88.9694 2095.94V2116.53C88.9694 2127.34 85.8757 2135.58 80.2037 2141.25C74.5318 2146.91 66.7973 2149.48 56.4847 2149.48ZM56.4847 2136.1C62.1566 2136.1 66.7973 2134.55 69.3755 2131.46C71.9536 2128.37 73.5004 2123.74 73.5004 2117.56V2095.42C73.5004 2089.25 71.9536 2084.61 68.8598 2081.52C65.766 2078.43 61.641 2076.89 56.4847 2076.89C50.8127 2076.89 46.6877 2078.43 43.5939 2081.52C40.5001 2084.61 38.9533 2089.25 38.9533 2094.91V2117.05C38.9533 2123.23 40.5001 2127.86 43.0783 2130.95C46.6877 2134.55 50.8127 2136.1 56.4847 2136.1Z" fill="#F9893D" fill-opacity="0.5"/>
<path opacity="0.78" d="M60.6096 2268.93V2197.36H58.5471L47.2033 2223.62H31.2188L48.2345 2186.04H75.563V2268.93H60.6096Z" fill="#F9893D" fill-opacity="0.5"/>
<path opacity="0.78" d="M56.4847 2391.98C46.6877 2391.98 38.9532 2389.4 32.7656 2383.74C27.0937 2378.59 24 2370.35 24 2359.03V2338.43C24 2327.62 27.0937 2319.9 32.7656 2314.23C38.4376 2308.57 46.6877 2306 56.4847 2306C66.2817 2306 74.0162 2308.57 80.2037 2314.23C85.8757 2319.9 88.9694 2328.13 88.9694 2338.43V2359.03C88.9694 2369.84 85.8757 2378.07 80.2037 2383.74C74.5318 2389.4 66.7973 2391.98 56.4847 2391.98ZM56.4847 2378.59C62.1566 2378.59 66.7973 2377.04 69.3755 2373.96C71.9536 2370.87 73.5004 2366.23 73.5004 2360.05V2337.92C73.5004 2331.74 71.9536 2327.1 68.8598 2324.02C65.766 2320.93 61.641 2319.38 56.4847 2319.38C50.8127 2319.38 46.6877 2320.93 43.5939 2324.02C40.5001 2327.1 38.9533 2331.74 38.9533 2337.4V2359.54C38.9533 2365.72 40.5001 2370.35 43.0783 2373.44C46.6877 2377.04 50.8127 2378.59 56.4847 2378.59Z" fill="#F9893D" fill-opacity="0.5"/>
<path opacity="0.78" d="M56.4847 2513.48C46.6877 2513.48 38.9532 2510.91 32.7656 2505.24C27.0937 2500.09 24 2491.86 24 2480.53V2459.94C24 2449.12 27.0937 2441.4 32.7656 2435.74C38.4376 2430.07 46.6877 2427.5 56.4847 2427.5C66.2817 2427.5 74.0162 2430.07 80.2037 2435.74C85.8757 2441.4 88.9694 2449.64 88.9694 2459.94V2480.53C88.9694 2491.34 85.8757 2499.58 80.2037 2505.24C74.5318 2510.91 66.7973 2513.48 56.4847 2513.48ZM56.4847 2500.09C62.1566 2500.09 66.7973 2498.55 69.3755 2495.46C71.9536 2492.37 73.5004 2487.74 73.5004 2481.56V2459.42C73.5004 2453.24 71.9536 2448.61 68.8598 2445.52C65.766 2442.43 61.641 2440.89 56.4847 2440.89C50.8127 2440.89 46.6877 2442.43 43.5939 2445.52C40.5001 2448.61 38.9533 2453.24 38.9533 2458.91V2481.04C38.9533 2487.22 40.5001 2491.86 43.0783 2494.95C46.6877 2498.55 50.8127 2500.09 56.4847 2500.09Z" fill="#F9893D" fill-opacity="0.5"/>
<path opacity="0.78" d="M60.6096 2633.44V2561.87H58.5471L47.2033 2588.13H31.2188L48.2345 2550.55H75.563V2633.44H60.6096Z" fill="#F9893D" fill-opacity="0.5"/>
<path opacity="0.78" d="M56.4847 2756.49C46.6877 2756.49 38.9532 2753.91 32.7656 2748.25C27.0937 2742.58 24 2734.86 24 2723.53V2702.94C24 2692.13 27.0937 2684.41 32.7656 2678.74C38.4376 2673.08 46.6877 2670.51 56.4847 2670.51C66.2817 2670.51 74.0162 2673.08 80.2037 2678.74C85.8757 2684.41 88.9694 2692.64 88.9694 2702.94V2723.53C88.9694 2734.35 85.8757 2742.58 80.2037 2748.25C74.5318 2753.4 66.7973 2756.49 56.4847 2756.49ZM56.4847 2742.58C62.1566 2742.58 66.7973 2741.04 69.3755 2737.95C71.9536 2734.86 73.5004 2730.23 73.5004 2724.05V2701.91C73.5004 2695.73 71.9536 2691.1 68.8598 2688.01C65.766 2684.92 61.641 2683.38 56.4847 2683.38C50.8127 2683.38 46.6877 2684.92 43.5939 2688.01C40.5001 2691.1 38.9533 2695.73 38.9533 2701.4V2723.53C38.9533 2729.71 40.5001 2734.35 43.0783 2737.44C46.6877 2741.04 50.8127 2742.58 56.4847 2742.58Z" fill="#F9893D" fill-opacity="0.5"/>
<path opacity="0.78" d="M60.6096 2875.93V2804.37H58.5471L47.2033 2830.62H31.2188L48.2345 2793.04H75.563V2875.93H60.6096Z" fill="#F9893D" fill-opacity="0.5"/>
<path opacity="0.78" d="M56.4847 2998.98C46.6877 2998.98 38.9532 2996.4 32.7656 2990.74C27.0937 2985.59 24 2977.36 24 2966.03V2945.43C24 2934.62 27.0937 2926.9 32.7656 2921.24C38.4376 2915.57 46.6877 2913 56.4847 2913C66.2817 2913 74.0162 2915.57 80.2037 2921.24C85.8757 2926.9 88.9694 2935.14 88.9694 2945.43V2966.03C88.9694 2976.84 85.8757 2985.08 80.2037 2990.74C74.5318 2996.4 66.7973 2998.98 56.4847 2998.98ZM56.4847 2985.59C62.1566 2985.59 66.7973 2984.05 69.3755 2980.96C71.9536 2977.87 73.5004 2973.24 73.5004 2967.06V2944.92C73.5004 2938.74 71.9536 2934.11 68.8598 2931.02C65.766 2927.93 61.641 2926.39 56.4847 2926.39C50.8127 2926.39 46.6877 2927.93 43.5939 2931.02C40.5001 2934.11 38.9533 2938.74 38.9533 2944.41V2966.54C38.9533 2972.72 40.5001 2977.36 43.0783 2980.44C46.6877 2984.05 50.8127 2985.59 56.4847 2985.59Z" fill="#F9893D" fill-opacity="0.5"/>
<path opacity="0.78" d="M60.6096 3118.94V3047.38H58.5471L47.2033 3073.63H31.2188L48.2345 3036.05H75.563V3118.94H60.6096Z" fill="#F9893D" fill-opacity="0.5"/>
<path opacity="0.78" d="M56.4847 3241.99C46.6877 3241.99 38.9532 3239.41 32.7656 3233.75C27.0937 3228.6 24 3220.36 24 3209.04V3188.44C24 3177.63 27.0937 3169.91 32.7656 3164.25C38.4376 3158.58 46.6877 3156.01 56.4847 3156.01C66.2817 3156.01 74.0162 3158.58 80.2037 3164.25C85.8757 3169.91 88.9694 3178.15 88.9694 3188.44V3209.04C88.9694 3219.85 85.8757 3228.09 80.2037 3233.75C74.5318 3238.9 66.7973 3241.99 56.4847 3241.99ZM56.4847 3228.09C62.1566 3228.09 66.7973 3226.54 69.3755 3223.45C71.9536 3220.36 73.5004 3215.73 73.5004 3209.55V3187.41C73.5004 3181.24 71.9536 3176.6 68.8598 3173.51C65.766 3170.42 61.641 3168.88 56.4847 3168.88C50.8127 3168.88 46.6877 3170.42 43.5939 3173.51C40.5001 3176.6 38.9533 3181.24 38.9533 3186.9V3209.04C38.9533 3215.22 40.5001 3219.85 43.0783 3222.94C46.6877 3226.54 50.8127 3228.09 56.4847 3228.09Z" fill="#F9893D" fill-opacity="0.5"/>
<path opacity="0.78" d="M60.6096 3361.43V3289.87H58.5471L47.2033 3316.12H31.2188L48.2345 3278.54H75.563V3361.43H60.6096Z" fill="#F9893D" fill-opacity="0.5"/>
</g>
<g opacity="0.18">
<path d="M271.448 209.048V150.241H269.765L260.51 171.664H247.469L261.351 141H283.648V209.048H271.448Z" fill="#F9893D" fill-opacity="0.5"/>
<path d="M268.503 311.54C260.51 311.54 254.2 309.439 249.152 304.819C244.103 300.198 242 293.898 242 284.657V267.855C242 259.034 244.524 252.733 249.152 248.112C253.779 243.492 260.51 241.392 268.503 241.392C276.497 241.392 282.807 243.492 287.855 248.112C292.483 252.733 295.007 259.454 295.007 267.855V284.657C295.007 293.478 292.483 300.198 287.855 304.819C282.807 309.439 276.497 311.54 268.503 311.54ZM268.503 300.618C273.131 300.618 276.917 299.358 279.021 296.838C281.124 294.318 282.386 290.537 282.386 285.497V267.435C282.386 262.394 281.124 258.614 278.6 256.093C276.076 253.573 272.71 252.313 268.503 252.313C263.876 252.313 260.51 253.573 257.986 256.093C255.462 258.614 254.2 262.394 254.2 267.015V285.077C254.2 290.117 255.462 293.898 257.565 296.418C260.09 299.358 263.876 300.618 268.503 300.618Z" fill="#F9893D" fill-opacity="0.5"/>
<path d="M271.448 411.932V353.125H269.765L260.51 374.547H247.469L261.351 343.884H283.648V411.512H271.448V411.932Z" fill="#F9893D" fill-opacity="0.5"/>
<path d="M271.448 513.163V454.776H269.765L260.51 476.199H247.469L261.351 445.535H283.648V513.163H271.448Z" fill="#F9893D" fill-opacity="0.5"/>
<path d="M271.448 614.815V556.009H269.765L260.51 577.431H247.469L261.772 547.188H284.069V614.815H271.448Z" fill="#F9893D" fill-opacity="0.5"/>
<path d="M268.503 717.307C260.51 717.307 254.2 715.207 249.152 710.587C244.103 705.966 242 699.665 242 690.424V673.622C242 664.801 244.524 658.5 249.152 653.88C253.779 649.259 260.51 647.159 268.503 647.159C276.497 647.159 282.807 649.259 287.855 653.88C292.483 658.5 295.007 665.221 295.007 673.622V690.424C295.007 699.245 292.483 705.966 287.855 710.587C282.807 715.207 276.497 717.307 268.503 717.307ZM268.503 706.386C273.131 706.386 276.917 705.126 279.021 702.606C281.124 700.085 282.386 696.305 282.386 691.264V673.202C282.386 668.162 281.124 664.381 278.6 661.861C276.076 659.341 272.71 658.08 268.503 658.08C263.876 658.08 260.51 659.341 257.986 661.861C255.462 664.381 254.2 668.162 254.2 672.782V690.844C254.2 695.885 255.462 699.665 257.565 702.186C260.09 705.126 263.876 706.386 268.503 706.386Z" fill="#F9893D" fill-opacity="0.5"/>
<path d="M268.503 818.959C260.51 818.959 254.2 816.858 249.152 812.238C244.103 807.617 242 801.317 242 792.076V775.274C242 766.453 244.524 760.152 249.152 755.531C253.779 750.911 260.51 748.811 268.503 748.811C276.497 748.811 282.807 750.911 287.855 755.531C292.483 760.152 295.007 766.873 295.007 775.274V792.076C295.007 800.897 292.483 807.617 287.855 812.238C282.807 816.858 276.497 818.959 268.503 818.959ZM268.503 808.037C273.131 808.037 276.917 806.777 279.021 804.257C281.124 801.737 282.386 797.956 282.386 792.916V774.854C282.386 769.813 281.124 766.033 278.6 763.512C276.076 760.992 272.71 759.732 268.503 759.732C263.876 759.732 260.51 760.992 257.986 763.512C255.462 766.033 254.2 769.813 254.2 774.434V792.496C254.2 797.536 255.462 801.317 257.565 803.837C260.09 806.777 263.876 808.037 268.503 808.037Z" fill="#F9893D" fill-opacity="0.5"/>
<path d="M271.448 918.931V860.544H269.765L260.51 881.966H247.469L261.351 851.303H283.648V918.931H271.448Z" fill="#F9893D" fill-opacity="0.5"/>
<path d="M268.503 1021.84C260.51 1021.84 254.2 1019.74 249.152 1015.12C244.103 1010.5 242 1004.2 242 994.959V978.157C242 969.336 244.524 963.036 249.152 958.415C253.779 953.795 260.51 951.694 268.503 951.694C276.497 951.694 282.807 953.795 287.855 958.415C292.483 963.036 295.007 969.756 295.007 978.157V994.959C295.007 1003.78 292.483 1010.5 287.855 1015.12C282.807 1019.74 276.497 1021.84 268.503 1021.84ZM268.503 1010.92C273.131 1010.92 276.917 1009.66 279.021 1007.14C281.124 1004.62 282.386 1000.84 282.386 995.799V977.737C282.386 972.697 281.124 968.916 278.6 966.396C276.076 963.876 272.71 962.616 268.503 962.616C263.876 962.616 260.51 963.876 257.986 966.396C255.462 968.916 254.2 972.697 254.2 977.317V995.379C254.2 1000.42 255.462 1004.2 257.565 1006.72C260.09 1009.66 263.876 1010.92 268.503 1010.92Z" fill="#F9893D" fill-opacity="0.5"/>
<path opacity="0.78" d="M271.448 1121.81V1063.43H269.765L260.51 1084.85H247.469L261.351 1054.19H283.648V1121.81H271.448Z" fill="#F9893D" fill-opacity="0.5"/>
<path opacity="0.78" d="M268.503 1224.73C260.51 1224.73 254.2 1222.63 249.152 1218.01C244.103 1213.38 242 1207.08 242 1197.84V1181.04C242 1172.22 244.524 1165.92 249.152 1161.3C253.779 1156.68 260.51 1154.58 268.503 1154.58C276.497 1154.58 282.807 1156.68 287.855 1161.3C292.483 1165.92 295.007 1172.64 295.007 1181.04V1197.84C295.007 1206.66 292.483 1213.38 287.855 1218.01C282.807 1222.63 276.497 1224.73 268.503 1224.73ZM268.503 1213.8C273.131 1213.8 276.917 1212.54 279.021 1210.02C281.124 1207.5 282.386 1203.72 282.386 1198.68V1180.62C282.386 1175.58 281.124 1171.8 278.6 1169.28C276.076 1166.76 272.71 1165.5 268.503 1165.5C263.876 1165.5 260.51 1166.76 257.986 1169.28C255.462 1171.8 254.2 1175.58 254.2 1180.2V1198.26C254.2 1203.3 255.462 1207.08 257.565 1209.6C260.09 1212.54 263.876 1213.8 268.503 1213.8Z" fill="#F9893D" fill-opacity="0.5"/>
<path opacity="0.78" d="M268.503 1325.96C260.51 1325.96 254.2 1323.86 249.152 1319.24C244.103 1314.62 242 1308.32 242 1299.07V1282.27C242 1273.45 244.524 1267.15 249.152 1262.53C253.779 1257.91 260.51 1255.81 268.503 1255.81C276.497 1255.81 282.807 1257.91 287.855 1262.53C292.483 1267.15 295.007 1273.87 295.007 1282.27V1299.07C295.007 1307.9 292.483 1314.62 287.855 1319.24C282.807 1323.86 276.497 1325.96 268.503 1325.96ZM268.503 1315.04C273.131 1315.04 276.917 1313.78 279.021 1311.26C281.124 1308.74 282.386 1304.96 282.386 1299.91V1281.85C282.386 1276.81 281.124 1273.03 278.6 1270.51C276.076 1267.99 272.71 1266.73 268.503 1266.73C263.876 1266.73 260.51 1267.99 257.986 1270.51C255.462 1273.03 254.2 1276.81 254.2 1281.43V1299.49C254.2 1304.54 255.462 1308.32 257.565 1310.84C260.09 1313.78 263.876 1315.04 268.503 1315.04Z" fill="#F9893D" fill-opacity="0.5"/>
<path d="M271.448 1426.35V1367.96H269.765L260.51 1389.39H247.469L261.351 1358.72H283.648V1426.35H271.448Z" fill="#F9893D" fill-opacity="0.5"/>
<path d="M268.503 1528.84C260.51 1528.84 254.2 1526.74 249.152 1522.12C244.103 1517.5 242 1511.2 242 1501.96V1485.16C242 1476.34 244.524 1470.03 249.152 1465.41C253.779 1460.79 260.51 1458.69 268.503 1458.69C276.497 1458.69 282.807 1460.79 287.855 1465.41C292.483 1470.03 295.007 1476.76 295.007 1485.16V1501.96C295.007 1510.78 292.483 1517.5 287.855 1522.12C282.807 1526.74 276.497 1528.84 268.503 1528.84ZM268.503 1517.92C273.131 1517.92 276.917 1516.66 279.021 1514.14C281.124 1511.62 282.386 1507.84 282.386 1502.8V1484.74C282.386 1479.7 281.124 1475.92 278.6 1473.4C276.076 1470.87 272.71 1469.61 268.503 1469.61C263.876 1469.61 260.51 1470.87 257.986 1473.4C255.462 1475.92 254.2 1479.7 254.2 1484.32V1502.38C254.2 1507.42 255.462 1511.2 257.565 1513.72C260.09 1516.66 263.876 1517.92 268.503 1517.92Z" fill="#F9893D" fill-opacity="0.5"/>
<path d="M271.448 1629.23V1570.85H269.765L260.51 1592.27H247.469L261.351 1561.61H283.648V1629.23H271.448Z" fill="#F9893D" fill-opacity="0.5"/>
<path d="M268.503 1731.72C260.51 1731.72 254.2 1729.62 249.152 1725C244.103 1720.38 242 1714.08 242 1704.84V1688.04C242 1679.22 244.524 1672.92 249.152 1668.3C253.779 1663.68 260.51 1661.58 268.503 1661.58C276.497 1661.58 282.807 1663.68 287.855 1668.3C292.483 1672.92 295.007 1679.64 295.007 1688.04V1704.84C295.007 1713.66 292.483 1720.38 287.855 1725C282.807 1729.62 276.497 1731.72 268.503 1731.72ZM268.503 1720.8C273.131 1720.8 276.917 1719.54 279.021 1717.02C281.124 1714.5 282.386 1710.72 282.386 1705.68V1687.62C282.386 1682.58 281.124 1678.8 278.6 1676.28C276.076 1673.76 272.71 1672.5 268.503 1672.5C263.876 1672.5 260.51 1673.76 257.986 1676.28C255.462 1678.8 254.2 1682.58 254.2 1687.2V1705.26C254.2 1710.3 255.462 1714.08 257.565 1716.6C260.09 1719.54 263.876 1720.8 268.503 1720.8Z" fill="#F9893D" fill-opacity="0.5"/>
<path d="M271.448 1832.12V1773.73H269.765L260.51 1795.15H247.469L261.351 1764.49H283.648V1832.12H271.448Z" fill="#F9893D" fill-opacity="0.5"/>
<path d="M268.503 1934.61C260.51 1934.61 254.2 1932.51 249.152 1927.89C244.103 1923.27 242 1916.97 242 1907.73V1890.92C242 1882.1 244.524 1875.8 249.152 1871.18C253.779 1866.56 260.51 1864.46 268.503 1864.46C276.497 1864.46 282.807 1866.56 287.855 1871.18C292.483 1875.8 295.007 1882.52 295.007 1890.92V1907.73C295.007 1916.55 292.483 1923.27 287.855 1927.89C282.807 1932.51 276.497 1934.61 268.503 1934.61ZM268.503 1923.69C273.131 1923.69 276.917 1922.43 279.021 1919.91C281.124 1917.39 282.386 1913.61 282.386 1908.57V1890.5C282.386 1885.46 281.124 1881.68 278.6 1879.16C276.076 1876.64 272.71 1875.38 268.503 1875.38C263.876 1875.38 260.51 1876.64 257.986 1879.16C255.462 1881.68 254.2 1885.46 254.2 1890.08V1908.15C254.2 1913.19 255.462 1916.97 257.565 1919.49C260.09 1922.43 263.876 1923.69 268.503 1923.69Z" fill="#F9893D" fill-opacity="0.5"/>
<path d="M271.448 2035V1976.61H269.765L260.51 1998.03H247.469L261.351 1967.37H283.648V2035H271.448Z" fill="#F9893D" fill-opacity="0.5"/>
</g>
<g opacity="0.18">
<path d="M263.485 2854.98C253.688 2854.98 245.953 2852.41 239.766 2846.74C233.578 2841.08 231 2833.36 231 2822.03V2801.44C231 2790.62 234.094 2782.9 239.766 2777.24C245.438 2771.57 253.688 2769 263.485 2769C273.282 2769 281.016 2771.57 287.204 2777.24C292.876 2782.9 295.97 2791.14 295.97 2801.44V2822.03C295.97 2832.84 292.876 2841.08 287.204 2846.74C281.016 2852.41 273.282 2854.98 263.485 2854.98ZM263.485 2841.59C269.157 2841.59 273.797 2840.05 276.376 2836.96C278.954 2833.87 280.501 2829.24 280.501 2823.06V2800.92C280.501 2794.74 278.954 2790.11 275.86 2787.02C272.766 2783.93 268.641 2782.39 263.485 2782.39C257.813 2782.39 253.688 2783.93 250.594 2787.02C247.5 2790.11 245.953 2794.74 245.953 2800.41V2822.54C245.953 2828.72 247.5 2833.36 250.078 2836.45C253.172 2840.05 257.297 2841.59 263.485 2841.59Z" fill="#F9893D" fill-opacity="0.5"/>
<path d="M267.094 2978.03V2906.46H265.032L253.688 2932.72H237.703L254.719 2895.14H282.047V2978.03H267.094Z" fill="#F9893D" fill-opacity="0.5"/>
<path d="M263.485 3103.65C253.688 3103.65 245.953 3101.07 239.766 3095.41C233.578 3089.75 231 3082.03 231 3070.7V3050.11C231 3039.29 234.094 3031.57 239.766 3025.91C245.438 3020.24 253.688 3017.67 263.485 3017.67C273.282 3017.67 281.016 3020.24 287.204 3025.91C292.876 3031.57 295.97 3039.81 295.97 3050.11V3070.7C295.97 3081.51 292.876 3089.75 287.204 3095.41C281.016 3101.07 273.282 3103.65 263.485 3103.65ZM263.485 3090.26C269.157 3090.26 273.797 3088.72 276.376 3085.63C278.954 3082.54 280.501 3077.91 280.501 3071.73V3049.59C280.501 3043.41 278.954 3038.78 275.86 3035.69C272.766 3032.6 268.641 3031.06 263.485 3031.06C257.813 3031.06 253.688 3032.6 250.594 3035.69C247.5 3038.78 245.953 3043.41 245.953 3049.08V3071.21C245.953 3077.39 247.5 3082.03 250.078 3085.11C253.172 3088.72 257.297 3090.26 263.485 3090.26Z" fill="#F9893D" fill-opacity="0.5"/>
<path d="M267.094 3226.7V3154.62H265.032L253.688 3180.88H237.703L254.719 3143.29H282.047V3226.7H267.094Z" fill="#F9893D" fill-opacity="0.5"/>
<path d="M263.485 3352.32C253.688 3352.32 245.953 3349.75 239.766 3344.08C233.578 3338.42 231 3330.7 231 3319.37V3298.78C231 3287.97 234.094 3280.24 239.766 3274.58C245.438 3268.92 253.688 3266.34 263.485 3266.34C273.282 3266.34 281.016 3268.92 287.204 3274.58C292.876 3280.24 295.97 3288.48 295.97 3298.78V3319.37C295.97 3330.18 292.876 3338.42 287.204 3344.08C281.016 3349.75 273.282 3352.32 263.485 3352.32ZM263.485 3338.93C269.157 3338.93 273.797 3337.39 276.376 3334.3C278.954 3331.21 280.501 3326.58 280.501 3320.4V3298.26C280.501 3292.08 278.954 3287.45 275.86 3284.36C272.766 3281.27 268.641 3279.73 263.485 3279.73C257.813 3279.73 253.688 3281.27 250.594 3284.36C247.5 3287.45 245.953 3292.08 245.953 3297.75V3319.89C245.953 3326.06 247.5 3330.7 250.078 3333.79C253.172 3337.39 257.297 3338.93 263.485 3338.93Z" fill="#F9893D" fill-opacity="0.5"/>
<path d="M267.094 3475.37V3403.81H265.032L253.688 3430.06H237.703L254.719 3392.48H282.047V3475.37H267.094Z" fill="#F9893D" fill-opacity="0.5"/>
<path d="M263.485 3600.99C253.688 3600.99 245.953 3598.42 239.766 3592.75C233.578 3587.09 231 3579.37 231 3568.04V3547.45C231 3536.64 234.094 3528.91 239.766 3523.25C245.438 3517.59 253.688 3515.01 263.485 3515.01C273.282 3515.01 281.016 3517.59 287.204 3523.25C292.876 3528.91 295.97 3537.15 295.97 3547.45V3568.04C295.97 3578.85 292.876 3587.09 287.204 3592.75C281.016 3598.42 273.282 3600.99 263.485 3600.99ZM263.485 3587.6C269.157 3587.6 273.797 3586.06 276.376 3582.97C278.954 3579.88 280.501 3575.25 280.501 3569.07V3546.93C280.501 3540.75 278.954 3536.12 275.86 3533.03C272.766 3529.94 268.641 3528.4 263.485 3528.4C257.813 3528.4 253.688 3529.94 250.594 3533.03C247.5 3536.12 245.953 3540.75 245.953 3546.42V3568.56C245.953 3574.73 247.5 3579.37 250.078 3582.46C253.172 3586.06 257.297 3587.6 263.485 3587.6Z" fill="#F9893D" fill-opacity="0.5"/>
<path d="M267.094 3724.04V3652.48H265.032L253.688 3678.73H237.703L254.719 3641.15H282.047V3724.04H267.094Z" fill="#F9893D" fill-opacity="0.5"/>
<path d="M263.485 3849.66C253.688 3849.66 245.953 3847.09 239.766 3841.43C234.094 3836.28 231 3828.04 231 3816.71V3796.12C231 3785.31 234.094 3777.58 239.766 3771.92C245.438 3766.26 253.688 3763.68 263.485 3763.68C273.282 3763.68 281.016 3766.26 287.204 3771.92C292.876 3777.58 295.97 3785.82 295.97 3796.12V3816.71C295.97 3827.52 292.876 3835.76 287.204 3841.43C281.016 3847.09 273.282 3849.66 263.485 3849.66ZM263.485 3836.28C269.157 3836.28 273.797 3834.73 276.376 3831.64C278.954 3828.55 280.501 3823.92 280.501 3817.74V3795.6C280.501 3789.43 278.954 3784.79 275.86 3781.7C272.766 3778.61 268.641 3777.07 263.485 3777.07C257.813 3777.07 253.688 3778.61 250.594 3781.7C247.5 3784.79 245.953 3789.43 245.953 3795.09V3817.23C245.953 3823.41 247.5 3828.04 250.078 3831.13C253.172 3834.73 257.297 3836.28 263.485 3836.28Z" fill="#F9893D" fill-opacity="0.5"/>
<path d="M267.094 3972.71V3901.15H265.032L253.688 3927.4H237.703L254.719 3889.82H282.047V3972.71H267.094Z" fill="#F9893D" fill-opacity="0.5"/>
<path d="M263.485 4098.33C253.688 4098.33 245.953 4095.76 239.766 4090.1C234.094 4084.95 231 4076.71 231 4065.38V4044.79C231 4033.98 234.094 4026.25 239.766 4020.59C245.438 4014.93 253.688 4012.35 263.485 4012.35C273.282 4012.35 281.016 4014.93 287.204 4020.59C292.876 4026.25 295.97 4034.49 295.97 4044.79V4065.38C295.97 4076.19 292.876 4084.43 287.204 4090.1C281.016 4095.76 273.282 4098.33 263.485 4098.33ZM263.485 4084.95C269.157 4084.95 273.797 4083.4 276.376 4080.31C278.954 4077.22 280.501 4072.59 280.501 4066.41V4044.27C280.501 4038.1 278.954 4033.46 275.86 4030.37C272.766 4027.28 268.641 4025.74 263.485 4025.74C257.813 4025.74 253.688 4027.28 250.594 4030.37C247.5 4033.46 245.953 4038.1 245.953 4043.76V4065.9C245.953 4072.08 247.5 4076.71 250.078 4079.8C253.172 4083.4 257.297 4084.95 263.485 4084.95Z" fill="#F9893D" fill-opacity="0.5"/>
<path d="M267.094 4221.38V4149.82H265.032L253.688 4176.07H237.703L254.719 4138.49H282.047V4221.38H267.094Z" fill="#F9893D" fill-opacity="0.5"/>
<path d="M267.094 4345.46V4273.9H265.032L253.688 4300.15H237.703L254.719 4262.57H282.047V4345.46H267.094Z" fill="#F9893D" fill-opacity="0.5"/>
<path d="M267.094 4470.05V4398.49H265.032L253.688 4424.75H237.703L254.719 4387.16H282.047V4470.05H267.094Z" fill="#F9893D" fill-opacity="0.5"/>
<path d="M263.485 4595.67C253.688 4595.67 245.953 4593.1 239.766 4587.44C234.094 4581.77 231 4574.05 231 4562.72V4542.13C231 4531.32 234.094 4523.6 239.766 4517.93C245.438 4512.27 253.688 4509.7 263.485 4509.7C273.282 4509.7 281.016 4512.27 287.204 4517.93C292.876 4523.6 295.969 4531.83 295.969 4542.13V4562.72C295.969 4573.54 292.876 4581.77 287.204 4587.44C281.016 4593.1 273.282 4595.67 263.485 4595.67ZM263.485 4582.29C269.157 4582.29 273.797 4580.74 276.376 4577.65C278.954 4574.57 280.501 4569.93 280.501 4563.75V4541.62C280.501 4535.44 278.954 4530.8 275.86 4527.71C272.766 4524.63 268.641 4523.08 263.485 4523.08C257.813 4523.08 253.688 4524.63 250.594 4527.71C247.5 4530.8 245.953 4535.44 245.953 4541.1V4563.24C245.953 4569.42 247.5 4574.05 250.078 4577.14C253.172 4580.74 257.297 4582.29 263.485 4582.29Z" fill="#F9893D" fill-opacity="0.5"/>
<path opacity="0.78" d="M263.485 4720.27C253.688 4720.27 245.953 4717.69 239.766 4712.03C234.094 4706.88 231 4698.64 231 4687.32V4666.72C231 4655.91 234.094 4648.19 239.766 4642.52C245.438 4636.86 253.688 4634.29 263.485 4634.29C273.282 4634.29 281.016 4636.86 287.204 4642.52C292.876 4648.19 295.97 4656.43 295.97 4666.72V4687.32C295.97 4698.13 292.876 4706.37 287.204 4712.03C281.016 4717.69 273.282 4720.27 263.485 4720.27ZM263.485 4706.88C269.157 4706.88 273.797 4705.34 276.376 4702.25C278.954 4699.16 280.501 4694.52 280.501 4688.35V4666.21C280.501 4660.03 278.954 4655.4 275.86 4652.31C272.766 4649.22 268.641 4647.67 263.485 4647.67C257.813 4647.67 253.688 4649.22 250.594 4652.31C247.5 4655.4 245.953 4660.03 245.953 4665.69V4687.83C245.953 4694.01 247.5 4698.64 250.078 4701.73C253.172 4705.34 257.297 4706.88 263.485 4706.88Z" fill="#F9893D" fill-opacity="0.5"/>
<path opacity="0.78" d="M267.094 4842.8V4771.24H265.032L253.688 4797.49H237.703L254.719 4759.91H282.047V4842.8H267.094Z" fill="#F9893D" fill-opacity="0.5"/>
<path opacity="0.78" d="M263.485 4968.94C253.688 4968.94 245.953 4966.36 239.766 4960.7C234.094 4955.55 231 4947.31 231 4935.99V4915.39C231 4904.58 234.094 4896.86 239.766 4891.2C245.438 4885.53 253.688 4882.96 263.485 4882.96C273.282 4882.96 281.016 4885.53 287.204 4891.2C292.876 4896.86 295.97 4905.1 295.97 4915.39V4935.99C295.97 4946.8 292.876 4955.04 287.204 4960.7C281.016 4966.36 273.282 4968.94 263.485 4968.94ZM263.485 4955.55C269.157 4955.55 273.797 4954.01 276.376 4950.92C278.954 4947.83 280.501 4943.2 280.501 4937.02V4914.88C280.501 4908.7 278.954 4904.07 275.86 4900.98C272.766 4897.89 268.641 4896.34 263.485 4896.34C257.813 4896.34 253.688 4897.89 250.594 4900.98C247.5 4904.07 245.953 4908.7 245.953 4914.36V4936.5C245.953 4942.68 247.5 4947.31 250.078 4950.4C253.172 4954.01 257.297 4955.55 263.485 4955.55Z" fill="#F9893D" fill-opacity="0.5"/>
<path opacity="0.78" d="M267.094 5091.47V5019.91H265.032L253.688 5046.17H237.703L254.719 5008.58H282.047V5091.47H267.094Z" fill="#F9893D" fill-opacity="0.5"/>
<path opacity="0.78" d="M263.485 5217.61C253.688 5217.61 245.953 5215.03 239.766 5209.37C234.094 5203.71 231 5195.98 231 5184.66V5164.06C231 5153.25 234.094 5145.53 239.766 5139.87C245.438 5134.2 253.688 5131.63 263.485 5131.63C273.282 5131.63 281.016 5134.2 287.204 5139.87C292.876 5145.53 295.969 5153.77 295.969 5164.06V5184.66C295.969 5195.47 292.876 5203.71 287.204 5209.37C281.016 5215.03 273.282 5217.61 263.485 5217.61ZM263.485 5204.22C269.157 5204.22 273.797 5202.68 276.376 5199.59C278.954 5196.5 280.501 5191.87 280.501 5185.69V5163.55C280.501 5157.37 278.954 5152.74 275.86 5149.65C272.766 5146.56 268.641 5145.01 263.485 5145.01C257.813 5145.01 253.688 5146.56 250.594 5149.65C247.5 5152.74 245.953 5157.37 245.953 5163.03V5185.17C245.953 5191.35 247.5 5195.98 250.078 5199.07C253.172 5202.68 257.297 5204.22 263.485 5204.22Z" fill="#F9893D" fill-opacity="0.5"/>
<path opacity="0.78" d="M263.485 5341.69C253.688 5341.69 245.953 5339.11 239.766 5333.45C234.094 5328.3 231 5320.06 231 5308.74V5288.14C231 5277.33 234.094 5269.61 239.766 5263.94C245.438 5258.28 253.688 5255.71 263.485 5255.71C273.282 5255.71 281.016 5258.28 287.204 5263.94C292.876 5269.61 295.97 5277.85 295.97 5288.14V5308.74C295.97 5319.55 292.876 5327.79 287.204 5333.45C281.016 5339.11 273.282 5341.69 263.485 5341.69ZM263.485 5328.3C269.157 5328.3 273.797 5326.76 276.376 5323.67C278.954 5320.58 280.501 5315.94 280.501 5309.77V5287.63C280.501 5281.45 278.954 5276.82 275.86 5273.73C272.766 5270.64 268.641 5269.09 263.485 5269.09C257.813 5269.09 253.688 5270.64 250.594 5273.73C247.5 5276.82 245.953 5281.45 245.953 5287.11V5309.25C245.953 5315.43 247.5 5320.06 250.078 5323.15C253.172 5326.76 257.297 5328.3 263.485 5328.3Z" fill="#F9893D" fill-opacity="0.5"/>
</g>
<g opacity="0.46">
<path d="M62.1567 5243.91C50.8128 5243.91 41.5315 5240.82 34.3126 5234.64C27.0938 5228.46 24 5218.68 24 5205.81V5181.1C24 5168.74 27.6094 5158.96 34.3126 5152.78C41.0158 5146.6 50.2972 5143 62.1567 5143C74.0162 5143 82.7819 5146.09 90.0008 5152.78C97.2196 5159.48 100.313 5168.74 100.313 5181.1V5205.81C100.313 5218.68 96.704 5228.46 90.0008 5234.64C83.2976 5240.82 73.5006 5243.91 62.1567 5243.91ZM62.1567 5227.95C69.3755 5227.95 74.0162 5225.89 77.6256 5222.29C80.7194 5218.68 82.7819 5213.02 82.7819 5205.81V5180.07C82.7819 5172.86 80.7194 5167.71 77.11 5164.11C73.5006 5160.5 68.3443 5158.45 62.1567 5158.45C55.9691 5158.45 50.8128 5160.5 47.2034 5164.11C43.594 5167.71 42.0471 5173.38 42.0471 5180.07V5205.81C42.0471 5213.02 43.594 5218.68 47.2034 5222.29C50.2972 5226.41 55.4535 5227.95 62.1567 5227.95Z" fill="#F9893D" fill-opacity="0.5"/>
<path opacity="0.73" d="M66.2816 5388.07V5303.63H63.7035L50.8127 5334.52H32.25L52.3596 5290.76H84.3287V5388.07H66.2816Z" fill="#F9893D" fill-opacity="0.5"/>
</g>
<g opacity="0.46">
<path d="M152.469 4521.91C141.125 4521.91 131.844 4518.82 124.625 4512.64C117.406 4506.46 114.312 4496.68 114.312 4483.81V4459.1C114.312 4446.74 117.922 4436.96 124.625 4430.78C131.328 4424.6 140.61 4421 152.469 4421C164.329 4421 173.094 4424.09 180.313 4430.78C187.532 4437.48 190.626 4446.74 190.626 4459.1V4483.81C190.626 4496.68 187.016 4506.46 180.313 4512.64C173.61 4518.82 163.813 4521.91 152.469 4521.91ZM152.469 4505.95C159.688 4505.95 164.329 4503.89 167.938 4500.29C171.032 4496.68 173.094 4491.02 173.094 4483.81V4458.07C173.094 4450.86 171.032 4445.71 167.422 4442.11C163.813 4438.5 158.657 4436.45 152.469 4436.45C146.282 4436.45 141.125 4438.5 137.516 4442.11C133.906 4445.71 132.36 4451.38 132.36 4458.07V4483.81C132.36 4491.02 133.906 4496.68 137.516 4500.29C140.61 4504.41 145.766 4505.95 152.469 4505.95Z" fill="#F9893D" fill-opacity="0.5"/>
<path opacity="0.73" d="M156.594 4666.07V4581.63H154.016L141.125 4612.52H122.562L142.672 4568.76H174.641V4666.07H156.594Z" fill="#F9893D" fill-opacity="0.5"/>
<path opacity="0.73" d="M152.469 4813.83C141.125 4813.83 131.844 4810.74 124.625 4804.56C117.406 4798.38 114.312 4788.6 114.312 4775.73V4751.02C114.312 4738.66 117.922 4728.88 124.625 4722.7C131.328 4716.52 140.61 4712.92 152.469 4712.92C164.329 4712.92 173.094 4716.01 180.313 4722.7C187.532 4729.39 190.626 4738.66 190.626 4751.02V4775.73C190.626 4788.6 187.016 4798.38 180.313 4804.56C173.094 4810.74 163.813 4813.83 152.469 4813.83ZM152.469 4797.87C159.688 4797.87 164.329 4795.81 167.938 4792.2C171.032 4788.6 173.094 4782.94 173.094 4775.73V4749.99C173.094 4742.78 171.032 4737.63 167.422 4734.03C163.813 4730.42 158.657 4728.36 152.469 4728.36C146.282 4728.36 141.125 4730.42 137.516 4734.03C133.906 4737.63 132.36 4743.29 132.36 4749.99V4775.73C132.36 4782.94 133.906 4788.6 137.516 4792.2C140.61 4796.32 145.766 4797.87 152.469 4797.87Z" fill="#F9893D" fill-opacity="0.5"/>
<path opacity="0.73" d="M156.594 4957.99V4873.55H154.016L141.125 4904.44H122.562L142.672 4860.68H174.641V4957.99H156.594Z" fill="#F9893D" fill-opacity="0.5"/>
<path opacity="0.73" d="M152.469 5105.75C141.125 5105.75 131.844 5102.66 124.625 5096.48C117.406 5090.3 114.312 5080.52 114.312 5067.65V5042.93C114.312 5030.58 117.922 5020.8 124.625 5014.62C131.844 5007.93 140.61 5004.84 152.469 5004.84C164.329 5004.84 173.094 5007.93 180.313 5014.62C187.016 5021.31 190.626 5030.58 190.626 5042.93V5067.65C190.626 5080.52 187.016 5090.3 180.313 5096.48C173.094 5102.66 163.813 5105.75 152.469 5105.75ZM152.469 5089.79C159.688 5089.79 164.329 5087.73 167.938 5084.12C171.032 5080.52 173.094 5074.86 173.094 5067.65V5041.9C173.094 5034.7 171.032 5029.55 167.422 5025.94C163.813 5022.34 158.657 5020.28 152.469 5020.28C146.282 5020.28 141.125 5022.34 137.516 5025.94C133.906 5029.55 132.36 5035.21 132.36 5041.9V5067.65C132.36 5074.86 133.906 5080.52 137.516 5084.12C140.61 5088.24 145.766 5089.79 152.469 5089.79Z" fill="#F9893D" fill-opacity="0.5"/>
<path d="M156.594 5249.9V5165.47H154.016L141.125 5196.36H122.562L142.672 5152.6H174.641V5249.9H156.594Z" fill="#F9893D" fill-opacity="0.5"/>
<path d="M152.469 5397.66C141.125 5397.66 131.844 5394.57 124.625 5388.4C117.406 5382.22 114.312 5372.44 114.312 5359.57V5334.85C114.312 5322.5 117.922 5312.71 124.625 5306.54C131.844 5299.84 140.61 5296.75 152.469 5296.75C164.329 5296.75 173.094 5299.84 180.313 5306.54C187.016 5313.23 190.626 5322.5 190.626 5334.85V5359.57C190.626 5372.44 187.016 5382.22 180.313 5388.4C173.094 5394.57 163.813 5397.66 152.469 5397.66ZM152.469 5381.7C159.688 5381.7 164.329 5379.64 167.938 5376.04C171.032 5372.44 173.094 5366.77 173.094 5359.57V5333.82C173.094 5326.62 171.032 5321.47 167.422 5317.86C163.813 5314.26 158.657 5312.2 152.469 5312.2C146.282 5312.2 141.125 5314.26 137.516 5317.86C133.906 5321.47 132.36 5327.13 132.36 5333.82V5359.57C132.36 5366.77 133.906 5372.44 137.516 5376.04C140.61 5380.16 145.766 5381.7 152.469 5381.7Z" fill="#F9893D" fill-opacity="0.5"/>
</g>
</g>
<defs>
<clipPath id="clip0_146_12230">
<rect width="320" height="5314" fill="white"/>
</clipPath>
</defs>
</svg>
