<svg width="428" height="5311" viewBox="0 0 428 5311" fill="none" xmlns="http://www.w3.org/2000/svg">
<rect width="428" height="5311" fill="#1A1A1A"/>
<g clip-path="url(#clip0_146_11036)">
<g opacity="0.18">
<path d="M165.094 83.3912V11.3247H163.032L151.688 37.5775H135.703L152.719 0H180.047V83.3912H165.094Z" fill="#F9893D" fill-opacity="0.5"/>
<path d="M161.485 208.992C151.688 208.992 143.953 206.419 137.766 200.756C131.578 195.094 129 187.372 129 176.048V155.457C129 144.647 132.094 136.926 137.766 131.264C143.438 125.601 151.688 123.027 161.485 123.027C171.282 123.027 179.016 125.601 185.204 131.264C190.876 136.926 193.969 145.162 193.969 155.457V176.048C193.969 186.858 190.876 195.094 185.204 200.756C179.016 206.419 171.282 208.992 161.485 208.992ZM161.485 195.609C167.157 195.609 171.797 194.064 174.376 190.976C176.954 187.887 178.501 183.254 178.501 177.077V154.942C178.501 148.765 176.954 144.133 173.86 141.044C170.766 137.955 166.641 136.411 161.485 136.411C155.813 136.411 151.688 137.955 148.594 141.044C145.5 144.133 143.953 148.765 143.953 154.428V176.562C143.953 182.74 145.5 187.372 148.078 190.461C151.172 194.064 155.813 195.609 161.485 195.609Z" fill="#F9893D" fill-opacity="0.5"/>
<path d="M165.094 332.02V259.954H163.032L151.688 286.206H135.703L152.719 248.629H180.047V331.505H165.094V332.02Z" fill="#F9893D" fill-opacity="0.5"/>
<path d="M165.094 456.078V384.526H163.032L151.688 410.779H135.703L152.719 373.201H180.047V456.078H165.094Z" fill="#F9893D" fill-opacity="0.5"/>
<path d="M165.094 580.65V508.583H163.032L151.688 534.836H135.703L153.235 497.773H180.563V580.65H165.094Z" fill="#F9893D" fill-opacity="0.5"/>
<path d="M161.485 706.252C151.688 706.252 143.953 703.678 137.766 698.016C131.578 692.354 129 684.632 129 673.307V652.717C129 641.907 132.094 634.186 137.766 628.523C143.438 622.861 151.688 620.287 161.485 620.287C171.282 620.287 179.016 622.861 185.204 628.523C190.876 634.186 193.969 642.422 193.969 652.717V673.307C193.969 684.117 190.876 692.354 185.204 698.016C179.016 703.678 171.282 706.252 161.485 706.252ZM161.485 692.868C167.157 692.868 171.797 691.324 174.376 688.235C176.954 685.147 178.501 680.514 178.501 674.337V652.202C178.501 646.025 176.954 641.392 173.86 638.304C170.766 635.215 166.641 633.671 161.485 633.671C155.813 633.671 151.688 635.215 148.594 638.304C145.5 641.392 143.953 646.025 143.953 651.687V673.822C143.953 679.999 145.5 684.632 148.078 687.721C151.172 691.324 155.813 692.868 161.485 692.868Z" fill="#F9893D" fill-opacity="0.5"/>
<path d="M161.485 830.824C151.688 830.824 143.953 828.251 137.766 822.588C131.578 816.926 129 809.204 129 797.88V777.289C129 766.479 132.094 758.758 137.766 753.096C143.438 747.433 151.688 744.859 161.485 744.859C171.282 744.859 179.016 747.433 185.204 753.096C190.876 758.758 193.969 766.994 193.969 777.289V797.88C193.969 808.69 190.876 816.926 185.204 822.588C179.016 828.251 171.282 830.824 161.485 830.824ZM161.485 817.441C167.157 817.441 171.797 815.896 174.376 812.808C176.954 809.719 178.501 805.086 178.501 798.909V776.775C178.501 770.597 176.954 765.965 173.86 762.876C170.766 759.787 166.641 758.243 161.485 758.243C155.813 758.243 151.688 759.787 148.594 762.876C145.5 765.965 143.953 770.597 143.953 776.26V798.394C143.953 804.572 145.5 809.204 148.078 812.293C151.172 815.896 155.813 817.441 161.485 817.441Z" fill="#F9893D" fill-opacity="0.5"/>
<path d="M165.094 953.335V881.784H163.032L151.688 908.037H135.703L152.719 870.459H180.047V953.335H165.094Z" fill="#F9893D" fill-opacity="0.5"/>
<path d="M161.485 1079.45C151.688 1079.45 143.953 1076.88 137.766 1071.22C131.578 1065.55 129 1057.83 129 1046.51V1025.92C129 1015.11 132.094 1007.39 137.766 1001.72C143.438 996.062 151.688 993.488 161.485 993.488C171.282 993.488 179.016 996.062 185.204 1001.72C190.876 1007.39 193.969 1015.62 193.969 1025.92V1046.51C193.969 1057.32 190.876 1065.55 185.204 1071.22C179.016 1076.88 171.282 1079.45 161.485 1079.45ZM161.485 1066.07C167.157 1066.07 171.797 1064.53 174.376 1061.44C176.954 1058.35 178.501 1053.72 178.501 1047.54V1025.4C178.501 1019.23 176.954 1014.59 173.86 1011.5C170.766 1008.42 166.641 1006.87 161.485 1006.87C155.813 1006.87 151.688 1008.42 148.594 1011.5C145.5 1014.59 143.953 1019.23 143.953 1024.89V1047.02C143.953 1053.2 145.5 1057.83 148.078 1060.92C151.172 1064.53 155.813 1066.07 161.485 1066.07Z" fill="#F9893D" fill-opacity="0.5"/>
<path opacity="0.78" d="M165.094 1201.97V1130.41H163.032L151.688 1156.67H135.703L152.719 1119.09H180.047V1201.97H165.094Z" fill="#F9893D" fill-opacity="0.5"/>
<path opacity="0.78" d="M161.485 1328.08C151.688 1328.08 143.953 1325.51 137.766 1319.85C131.578 1314.18 129 1306.46 129 1295.14V1274.55C129 1263.74 132.094 1256.02 137.766 1250.35C143.438 1244.69 151.688 1242.12 161.485 1242.12C171.282 1242.12 179.016 1244.69 185.204 1250.35C190.876 1256.02 193.969 1264.25 193.969 1274.55V1295.14C193.969 1305.95 190.876 1314.18 185.204 1319.85C179.016 1325.51 171.282 1328.08 161.485 1328.08ZM161.485 1314.7C167.157 1314.7 171.797 1313.15 174.376 1310.07C176.954 1306.98 178.501 1302.34 178.501 1296.17V1274.03C178.501 1267.86 176.954 1263.22 173.86 1260.13C170.766 1257.05 166.641 1255.5 161.485 1255.5C155.813 1255.5 151.688 1257.05 148.594 1260.13C145.5 1263.22 143.953 1267.86 143.953 1273.52V1295.65C143.953 1301.83 145.5 1306.46 148.078 1309.55C151.172 1313.15 155.813 1314.7 161.485 1314.7Z" fill="#F9893D" fill-opacity="0.5"/>
<path opacity="0.78" d="M161.485 1452.14C151.688 1452.14 143.953 1449.56 137.766 1443.9C131.578 1438.24 129 1430.52 129 1419.19V1398.6C129 1387.79 132.094 1380.07 137.766 1374.41C143.438 1368.75 151.688 1366.17 161.485 1366.17C171.282 1366.17 179.016 1368.75 185.204 1374.41C190.876 1380.07 193.969 1388.31 193.969 1398.6V1419.19C193.969 1430 190.876 1438.24 185.204 1443.9C179.016 1449.56 171.282 1452.14 161.485 1452.14ZM161.485 1438.76C167.157 1438.76 171.797 1437.21 174.376 1434.12C176.954 1431.03 178.501 1426.4 178.501 1420.22V1398.09C178.501 1391.91 176.954 1387.28 173.86 1384.19C170.766 1381.1 166.641 1379.56 161.485 1379.56C155.813 1379.56 151.688 1381.1 148.594 1384.19C145.5 1387.28 143.953 1391.91 143.953 1397.57V1419.71C143.953 1425.89 145.5 1430.52 148.078 1433.61C151.172 1437.21 155.813 1438.76 161.485 1438.76Z" fill="#F9893D" fill-opacity="0.5"/>
<path d="M165.094 1575.17V1503.62H163.032L151.688 1529.87H135.703L152.719 1492.29H180.047V1575.17H165.094Z" fill="#F9893D" fill-opacity="0.5"/>
<path d="M161.485 1700.77C151.688 1700.77 143.953 1698.2 137.766 1692.53C131.578 1686.87 129 1679.15 129 1667.82V1647.23C129 1636.42 132.094 1628.7 137.766 1623.04C143.438 1617.38 151.688 1614.8 161.485 1614.8C171.282 1614.8 179.016 1617.38 185.204 1623.04C190.876 1628.7 193.969 1636.94 193.969 1647.23V1667.82C193.969 1678.63 190.876 1686.87 185.204 1692.53C179.016 1698.2 171.282 1700.77 161.485 1700.77ZM161.485 1687.39C167.157 1687.39 171.797 1685.84 174.376 1682.75C176.954 1679.66 178.501 1675.03 178.501 1668.85V1646.72C178.501 1640.54 176.954 1635.91 173.86 1632.82C170.766 1629.73 166.641 1628.19 161.485 1628.19C155.813 1628.19 151.688 1629.73 148.594 1632.82C145.5 1635.91 143.953 1640.54 143.953 1646.21V1668.34C143.953 1674.52 145.5 1679.15 148.078 1682.24C151.172 1685.84 155.813 1687.39 161.485 1687.39Z" fill="#F9893D" fill-opacity="0.5"/>
<path d="M165.094 1823.8V1752.24H163.032L151.688 1778.5H135.703L152.719 1740.92H180.047V1823.8H165.094Z" fill="#F9893D" fill-opacity="0.5"/>
<path d="M161.485 1949.4C151.688 1949.4 143.953 1946.82 137.766 1941.16C131.578 1935.5 129 1927.78 129 1916.45V1895.86C129 1885.05 132.094 1877.33 137.766 1871.67C143.438 1866.01 151.688 1863.43 161.485 1863.43C171.282 1863.43 179.016 1866.01 185.204 1871.67C190.876 1877.33 193.969 1885.57 193.969 1895.86V1916.45C193.969 1927.26 190.876 1935.5 185.204 1941.16C179.016 1946.82 171.282 1949.4 161.485 1949.4ZM161.485 1936.01C167.157 1936.01 171.797 1934.47 174.376 1931.38C176.954 1928.29 178.501 1923.66 178.501 1917.48V1895.35C178.501 1889.17 176.954 1884.54 173.86 1881.45C170.766 1878.36 166.641 1876.82 161.485 1876.82C155.813 1876.82 151.688 1878.36 148.594 1881.45C145.5 1884.54 143.953 1889.17 143.953 1894.83V1916.97C143.953 1923.15 145.5 1927.78 148.078 1930.87C151.172 1934.47 155.813 1936.01 161.485 1936.01Z" fill="#F9893D" fill-opacity="0.5"/>
<path d="M165.094 2072.43V2000.87H163.032L151.688 2027.13H135.703L152.719 1989.55H180.047V2072.43H165.094Z" fill="#F9893D" fill-opacity="0.5"/>
<path d="M161.485 2198.03C151.688 2198.03 143.953 2195.45 137.766 2189.79C131.578 2184.13 129 2176.41 129 2165.08V2144.49C129 2133.68 132.094 2125.96 137.766 2120.3C143.438 2114.64 151.688 2112.06 161.485 2112.06C171.282 2112.06 179.016 2114.64 185.204 2120.3C190.876 2125.96 193.969 2134.2 193.969 2144.49V2165.08C193.969 2175.89 190.876 2184.13 185.204 2189.79C179.016 2195.45 171.282 2198.03 161.485 2198.03ZM161.485 2184.64C167.157 2184.64 171.797 2183.1 174.376 2180.01C176.954 2176.92 178.501 2172.29 178.501 2166.11V2143.98C178.501 2137.8 176.954 2133.17 173.86 2130.08C170.766 2126.99 166.641 2125.45 161.485 2125.45C155.813 2125.45 151.688 2126.99 148.594 2130.08C145.5 2133.17 143.953 2137.8 143.953 2143.46V2165.6C143.953 2171.77 145.5 2176.41 148.078 2179.5C151.172 2183.1 155.813 2184.64 161.485 2184.64Z" fill="#F9893D" fill-opacity="0.5"/>
<path d="M165.094 2321.05V2249.5H163.032L151.688 2275.76H135.703L152.719 2238.18H180.047V2321.05H165.094Z" fill="#F9893D" fill-opacity="0.5"/>
</g>
<g opacity="0.18">
<path d="M56.4847 85.9649C46.6877 85.9649 38.9532 83.3912 32.7656 77.7289C27.0937 72.5813 24 64.345 24 53.0203V32.4298C24 21.6199 27.0937 13.8986 32.7656 8.2362C38.4376 2.57383 46.6877 0 56.4847 0C66.2817 0 74.0162 2.57383 80.2037 8.2362C85.8757 13.8986 88.9694 22.1346 88.9694 32.4298V53.0203C88.9694 63.8302 85.8757 72.0665 80.2037 77.7289C74.5318 83.3912 66.7973 85.9649 56.4847 85.9649ZM56.4847 72.5813C62.1566 72.5813 66.7973 71.0369 69.3755 67.9483C71.9536 64.8597 73.5004 60.227 73.5004 54.0499V31.9151C73.5004 25.7379 71.9536 21.1052 68.8598 18.0166C65.766 14.9281 61.641 13.3838 56.4847 13.3838C50.8127 13.3838 46.6877 14.9281 43.5939 18.0166C40.5001 21.1052 38.9533 25.7381 38.9533 31.4004V53.5351C38.9533 59.7122 40.5001 64.3451 43.0783 67.4337C46.6877 71.037 50.8127 72.5813 56.4847 72.5813Z" fill="#F9893D" fill-opacity="0.5"/>
<path d="M60.6096 205.904V134.352H58.5471L47.2033 160.605H31.2188L48.2345 123.027H75.563V205.904H60.6096Z" fill="#F9893D" fill-opacity="0.5"/>
<path d="M56.4847 328.932C46.6877 328.932 38.9532 326.358 32.7656 320.696C27.0937 315.033 24 307.312 24 295.987V275.397C24 264.587 27.0937 256.866 32.7656 251.203C38.4376 245.541 46.6877 242.967 56.4847 242.967C66.2817 242.967 74.0162 245.541 80.2037 251.203C85.8757 256.866 88.9694 265.101 88.9694 275.397V295.987C88.9694 306.797 85.8757 315.033 80.2037 320.696C74.5318 325.843 66.7973 328.932 56.4847 328.932ZM56.4847 315.033C62.1566 315.033 66.7973 313.489 69.3755 310.401C71.9536 307.312 73.5004 302.679 73.5004 296.502V274.367C73.5004 268.19 71.9536 263.557 68.8598 260.469C65.766 257.38 61.641 255.836 56.4847 255.836C50.8127 255.836 46.6877 257.38 43.5939 260.469C40.5001 263.557 38.9533 268.19 38.9533 273.852V295.987C38.9533 302.164 40.5001 306.797 43.0783 309.886C46.6877 313.489 50.8127 315.033 56.4847 315.033Z" fill="#F9893D" fill-opacity="0.5"/>
<path d="M60.6096 448.357V376.805H58.5471L47.2033 403.058H31.2188L48.2345 365.48H75.563V448.357H60.6096Z" fill="#F9893D" fill-opacity="0.5"/>
<path d="M56.4847 571.385C46.6877 571.385 38.9532 568.811 32.7656 563.149C27.0937 558.001 24 549.765 24 538.44V517.85C24 507.04 27.0937 499.318 32.7656 493.656C38.4376 487.994 46.6877 485.42 56.4847 485.42C66.2817 485.42 74.0162 487.994 80.2037 493.656C85.8757 499.318 88.9694 507.555 88.9694 517.85V538.44C88.9694 549.25 85.8757 557.486 80.2037 563.149C74.5318 568.811 66.7973 571.385 56.4847 571.385ZM56.4847 558.001C62.1566 558.001 66.7973 556.457 69.3755 553.368C71.9536 550.279 73.5004 545.647 73.5004 539.47V517.335C73.5004 511.158 71.9536 506.525 68.8598 503.437C65.766 500.348 61.641 498.804 56.4847 498.804C50.8127 498.804 46.6877 500.348 43.5939 503.437C40.5001 506.525 38.9533 511.158 38.9533 516.82V538.955C38.9533 545.132 40.5001 549.765 43.0783 552.853C46.6877 556.457 50.8127 558.001 56.4847 558.001Z" fill="#F9893D" fill-opacity="0.5"/>
<path d="M60.6096 691.324V619.772H58.5471L47.2033 646.025H31.2188L48.2345 608.447H75.563V691.324H60.6096Z" fill="#F9893D" fill-opacity="0.5"/>
<path d="M56.4847 814.35C46.6877 814.35 38.9532 811.776 32.7656 806.114C27.0937 800.966 24 792.73 24 781.405V760.815C24 750.005 27.0937 742.283 32.7656 736.621C38.4376 730.959 46.6877 728.385 56.4847 728.385C66.2817 728.385 74.0162 730.959 80.2037 736.621C85.8757 742.283 88.9694 750.52 88.9694 760.815V781.405C88.9694 792.215 85.8757 800.451 80.2037 806.114C74.5318 811.261 66.7973 814.35 56.4847 814.35ZM56.4847 800.451C62.1566 800.451 66.7973 798.907 69.3755 795.819C71.9536 792.73 73.5004 788.097 73.5004 781.92V759.785C73.5004 753.608 71.9536 748.975 68.8598 745.887C65.766 742.798 61.641 741.254 56.4847 741.254C50.8127 741.254 46.6877 742.798 43.5939 745.887C40.5001 748.975 38.9533 753.608 38.9533 759.27V781.405C38.9533 787.582 40.5001 792.215 43.0783 795.304C46.6877 798.907 50.8127 800.451 56.4847 800.451Z" fill="#F9893D" fill-opacity="0.5"/>
<path d="M60.6096 933.775V862.223H58.5471L47.2033 888.476H31.2188L48.2345 850.898H75.563V933.775H60.6096Z" fill="#F9893D" fill-opacity="0.5"/>
<path d="M56.4847 1056.8C46.6877 1056.8 38.9532 1054.23 32.7656 1048.57C27.0937 1042.9 24 1035.18 24 1023.86V1003.27C24 992.458 27.0937 984.736 32.7656 979.074C38.4376 973.412 46.6877 970.838 56.4847 970.838C66.2817 970.838 74.0162 973.412 80.2037 979.074C85.8757 984.736 88.9694 992.973 88.9694 1003.27V1023.86C88.9694 1034.67 85.8757 1042.9 80.2037 1048.57C74.5318 1054.23 66.7973 1056.8 56.4847 1056.8ZM56.4847 1043.42C62.1566 1043.42 66.7973 1041.87 69.3755 1038.79C71.9536 1035.7 73.5004 1031.06 73.5004 1024.89V1002.75C73.5004 996.576 71.9536 991.943 68.8598 988.855C65.766 985.766 61.641 984.222 56.4847 984.222C50.8127 984.222 46.6877 985.766 43.5939 988.855C40.5001 991.943 38.9533 996.576 38.9533 1002.24V1024.37C38.9533 1030.55 40.5001 1035.18 43.0783 1038.27C46.6877 1041.87 50.8127 1043.42 56.4847 1043.42Z" fill="#F9893D" fill-opacity="0.5"/>
<path d="M60.6096 1176.74V1105.19H58.5471L47.2033 1131.44H31.2188L48.2345 1093.87H75.563V1176.74H60.6096Z" fill="#F9893D" fill-opacity="0.5"/>
<path d="M56.4847 1299.77C46.6877 1299.77 38.9532 1297.2 32.7656 1291.54C27.0937 1286.39 24 1278.15 24 1266.83V1246.24C24 1235.43 27.0937 1227.71 32.7656 1222.04C38.4376 1216.38 46.6877 1213.81 56.4847 1213.81C66.2817 1213.81 74.0162 1216.38 80.2037 1222.04C85.8757 1227.71 88.9694 1235.94 88.9694 1246.24V1266.83C88.9694 1277.64 85.8757 1285.87 80.2037 1291.54C74.5318 1296.68 66.7973 1299.77 56.4847 1299.77ZM56.4847 1285.87C62.1566 1285.87 66.7973 1284.33 69.3755 1281.24C71.9536 1278.15 73.5004 1273.52 73.5004 1267.34V1245.21C73.5004 1239.03 71.9536 1234.4 68.8598 1231.31C65.766 1228.22 61.641 1226.68 56.4847 1226.68C50.8127 1226.68 46.6877 1228.22 43.5939 1231.31C40.5001 1234.4 38.9533 1239.03 38.9533 1244.69V1266.83C38.9533 1273 40.5001 1277.64 43.0783 1280.73C46.6877 1284.33 50.8127 1285.87 56.4847 1285.87Z" fill="#F9893D" fill-opacity="0.5"/>
<path d="M60.6096 1419.19V1347.64H58.5471L47.2033 1373.9H31.2188L48.2345 1336.32H75.563V1419.19H60.6096Z" fill="#F9893D" fill-opacity="0.5"/>
<path d="M60.6096 1540.68V1469.13H58.5471L47.2033 1495.38H31.2188L48.2345 1457.8H75.563V1540.68H60.6096Z" fill="#F9893D" fill-opacity="0.5"/>
<path d="M60.6096 1662.16V1590.09H58.5471L47.2033 1616.35H31.2188L48.2345 1578.77H75.563V1662.16H60.6096Z" fill="#F9893D" fill-opacity="0.5"/>
<path d="M56.4847 1785.19C46.6877 1785.19 38.9532 1782.62 32.7656 1776.95C27.0937 1771.81 24 1763.57 24 1752.24V1731.65C24 1720.84 27.0937 1713.12 32.7656 1707.46C38.4376 1701.8 46.6877 1699.22 56.4847 1699.22C66.2817 1699.22 74.0162 1701.8 80.2037 1707.46C85.8757 1713.12 88.9694 1721.36 88.9694 1731.65V1752.24C88.9694 1763.05 85.8757 1771.29 80.2037 1776.95C74.5318 1782.1 66.7973 1785.19 56.4847 1785.19ZM56.4847 1771.29C62.1566 1771.29 66.7973 1769.75 69.3755 1766.66C71.9536 1763.57 73.5004 1758.94 73.5004 1752.76V1730.62C73.5004 1724.45 71.9536 1719.81 68.8598 1716.73C65.766 1713.64 61.641 1712.09 56.4847 1712.09C50.8127 1712.09 46.6877 1713.64 43.5939 1716.73C40.5001 1719.81 38.9533 1724.45 38.9533 1730.11V1752.24C38.9533 1758.42 40.5001 1763.05 43.0783 1766.14C46.6877 1769.75 50.8127 1771.29 56.4847 1771.29Z" fill="#F9893D" fill-opacity="0.5"/>
<path d="M56.4847 1906.16C46.6877 1906.16 38.9532 1903.58 32.7656 1897.92C27.0937 1892.77 24 1884.54 24 1873.21V1852.62C24 1841.81 27.0937 1834.09 32.7656 1828.43C38.4376 1822.77 46.6877 1820.19 56.4847 1820.19C66.2817 1820.19 74.0162 1822.77 80.2037 1828.43C85.8757 1834.09 88.9694 1842.33 88.9694 1852.62V1873.21C88.9694 1884.02 85.8757 1892.26 80.2037 1897.92C74.5318 1903.58 66.7973 1906.16 56.4847 1906.16ZM56.4847 1892.77C62.1566 1892.77 66.7973 1891.23 69.3755 1888.14C71.9536 1885.05 73.5004 1880.42 73.5004 1874.24V1852.11C73.5004 1845.93 71.9536 1841.3 68.8598 1838.21C65.766 1835.12 61.641 1833.58 56.4847 1833.58C50.8127 1833.58 46.6877 1835.12 43.5939 1838.21C40.5001 1841.3 38.9533 1845.93 38.9533 1851.59V1873.73C38.9533 1879.91 40.5001 1884.54 43.0783 1887.63C46.6877 1891.23 50.8127 1892.77 56.4847 1892.77Z" fill="#F9893D" fill-opacity="0.5"/>
<path d="M60.6096 2026.1V1954.55H58.5471L47.2033 1980.8H31.2188L48.2345 1943.22H75.563V2026.1H60.6096Z" fill="#F9893D" fill-opacity="0.5"/>
<path d="M56.4847 2149.12C46.6877 2149.12 38.9532 2146.55 32.7656 2140.89C27.0937 2135.23 24 2127.51 24 2116.18V2095.59C24 2084.78 27.0937 2077.06 32.7656 2071.4C38.4376 2065.73 46.6877 2063.16 56.4847 2063.16C66.2817 2063.16 74.0162 2065.73 80.2037 2071.4C85.8757 2077.06 88.9694 2085.29 88.9694 2095.59V2116.18C88.9694 2126.99 85.8757 2135.23 80.2037 2140.89C74.5318 2146.55 66.7973 2149.12 56.4847 2149.12ZM56.4847 2135.74C62.1566 2135.74 66.7973 2134.2 69.3755 2131.11C71.9536 2128.02 73.5004 2123.39 73.5004 2117.21V2095.08C73.5004 2088.9 71.9536 2084.27 68.8598 2081.18C65.766 2078.09 61.641 2076.54 56.4847 2076.54C50.8127 2076.54 46.6877 2078.09 43.5939 2081.18C40.5001 2084.27 38.9533 2088.9 38.9533 2094.56V2116.7C38.9533 2122.87 40.5001 2127.51 43.0783 2130.59C46.6877 2134.2 50.8127 2135.74 56.4847 2135.74Z" fill="#F9893D" fill-opacity="0.5"/>
<path opacity="0.78" d="M60.6096 2268.55V2197H58.5471L47.2033 2223.25H31.2188L48.2345 2185.67H75.563V2268.55H60.6096Z" fill="#F9893D" fill-opacity="0.5"/>
<path opacity="0.78" d="M56.4847 2391.58C46.6877 2391.58 38.9532 2389 32.7656 2383.34C27.0937 2378.19 24 2369.96 24 2358.63V2338.04C24 2327.23 27.0937 2319.51 32.7656 2313.85C38.4376 2308.19 46.6877 2305.61 56.4847 2305.61C66.2817 2305.61 74.0162 2308.19 80.2037 2313.85C85.8757 2319.51 88.9694 2327.75 88.9694 2338.04V2358.63C88.9694 2369.44 85.8757 2377.68 80.2037 2383.34C74.5318 2389 66.7973 2391.58 56.4847 2391.58ZM56.4847 2378.19C62.1566 2378.19 66.7973 2376.65 69.3755 2373.56C71.9536 2370.47 73.5004 2365.84 73.5004 2359.66V2337.53C73.5004 2331.35 71.9536 2326.72 68.8598 2323.63C65.766 2320.54 61.641 2319 56.4847 2319C50.8127 2319 46.6877 2320.54 43.5939 2323.63C40.5001 2326.72 38.9533 2331.35 38.9533 2337.01V2359.15C38.9533 2365.33 40.5001 2369.96 43.0783 2373.05C46.6877 2376.65 50.8127 2378.19 56.4847 2378.19Z" fill="#F9893D" fill-opacity="0.5"/>
<path opacity="0.78" d="M56.4847 2513.06C46.6877 2513.06 38.9532 2510.49 32.7656 2504.82C27.0937 2499.68 24 2491.44 24 2480.12V2459.53C24 2448.72 27.0937 2440.99 32.7656 2435.33C38.4376 2429.67 46.6877 2427.1 56.4847 2427.1C66.2817 2427.1 74.0162 2429.67 80.2037 2435.33C85.8757 2440.99 88.9694 2449.23 88.9694 2459.53V2480.12C88.9694 2490.93 85.8757 2499.16 80.2037 2504.82C74.5318 2510.49 66.7973 2513.06 56.4847 2513.06ZM56.4847 2499.68C62.1566 2499.68 66.7973 2498.13 69.3755 2495.04C71.9536 2491.96 73.5004 2487.32 73.5004 2481.15V2459.01C73.5004 2452.83 71.9536 2448.2 68.8598 2445.11C65.766 2442.02 61.641 2440.48 56.4847 2440.48C50.8127 2440.48 46.6877 2442.02 43.5939 2445.11C40.5001 2448.2 38.9533 2452.83 38.9533 2458.5V2480.63C38.9533 2486.81 40.5001 2491.44 43.0783 2494.53C46.6877 2498.13 50.8127 2499.68 56.4847 2499.68Z" fill="#F9893D" fill-opacity="0.5"/>
<path opacity="0.78" d="M60.6096 2633V2561.45H58.5471L47.2033 2587.7H31.2188L48.2345 2550.12H75.563V2633H60.6096Z" fill="#F9893D" fill-opacity="0.5"/>
<path opacity="0.78" d="M56.4847 2756.03C46.6877 2756.03 38.9532 2753.45 32.7656 2747.79C27.0937 2742.13 24 2734.41 24 2723.08V2702.49C24 2691.68 27.0937 2683.96 32.7656 2678.3C38.4376 2672.64 46.6877 2670.06 56.4847 2670.06C66.2817 2670.06 74.0162 2672.64 80.2037 2678.3C85.8757 2683.96 88.9694 2692.2 88.9694 2702.49V2723.08C88.9694 2733.89 85.8757 2742.13 80.2037 2747.79C74.5318 2752.94 66.7973 2756.03 56.4847 2756.03ZM56.4847 2742.13C62.1566 2742.13 66.7973 2740.58 69.3755 2737.5C71.9536 2734.41 73.5004 2729.77 73.5004 2723.6V2701.46C73.5004 2695.29 71.9536 2690.65 68.8598 2687.56C65.766 2684.48 61.641 2682.93 56.4847 2682.93C50.8127 2682.93 46.6877 2684.48 43.5939 2687.56C40.5001 2690.65 38.9533 2695.29 38.9533 2700.95V2723.08C38.9533 2729.26 40.5001 2733.89 43.0783 2736.98C46.6877 2740.58 50.8127 2742.13 56.4847 2742.13Z" fill="#F9893D" fill-opacity="0.5"/>
<path opacity="0.78" d="M60.6096 2875.45V2803.9H58.5471L47.2033 2830.15H31.2188L48.2345 2792.58H75.563V2875.45H60.6096Z" fill="#F9893D" fill-opacity="0.5"/>
<path opacity="0.78" d="M56.4847 2998.48C46.6877 2998.48 38.9532 2995.91 32.7656 2990.24C27.0937 2985.1 24 2976.86 24 2965.54V2944.95C24 2934.14 27.0937 2926.41 32.7656 2920.75C38.4376 2915.09 46.6877 2912.52 56.4847 2912.52C66.2817 2912.52 74.0162 2915.09 80.2037 2920.75C85.8757 2926.41 88.9694 2934.65 88.9694 2944.95V2965.54C88.9694 2976.35 85.8757 2984.58 80.2037 2990.24C74.5318 2995.91 66.7973 2998.48 56.4847 2998.48ZM56.4847 2985.1C62.1566 2985.1 66.7973 2983.55 69.3755 2980.46C71.9536 2977.38 73.5004 2972.74 73.5004 2966.57V2944.43C73.5004 2938.25 71.9536 2933.62 68.8598 2930.53C65.766 2927.44 61.641 2925.9 56.4847 2925.9C50.8127 2925.9 46.6877 2927.44 43.5939 2930.53C40.5001 2933.62 38.9533 2938.25 38.9533 2943.92V2966.05C38.9533 2972.23 40.5001 2976.86 43.0783 2979.95C46.6877 2983.55 50.8127 2985.1 56.4847 2985.1Z" fill="#F9893D" fill-opacity="0.5"/>
<path opacity="0.78" d="M60.6096 3118.42V3046.87H58.5471L47.2033 3073.12H31.2188L48.2345 3035.54H75.563V3118.42H60.6096Z" fill="#F9893D" fill-opacity="0.5"/>
<path opacity="0.78" d="M56.4847 3241.45C46.6877 3241.45 38.9532 3238.87 32.7656 3233.21C27.0937 3228.06 24 3219.83 24 3208.5V3187.91C24 3177.1 27.0937 3169.38 32.7656 3163.72C38.4376 3158.06 46.6877 3155.48 56.4847 3155.48C66.2817 3155.48 74.0162 3158.06 80.2037 3163.72C85.8757 3169.38 88.9694 3177.62 88.9694 3187.91V3208.5C88.9694 3219.31 85.8757 3227.55 80.2037 3233.21C74.5318 3238.36 66.7973 3241.45 56.4847 3241.45ZM56.4847 3227.55C62.1566 3227.55 66.7973 3226 69.3755 3222.92C71.9536 3219.83 73.5004 3215.19 73.5004 3209.02V3186.88C73.5004 3180.71 71.9536 3176.07 68.8598 3172.98C65.766 3169.9 61.641 3168.35 56.4847 3168.35C50.8127 3168.35 46.6877 3169.9 43.5939 3172.98C40.5001 3176.07 38.9533 3180.71 38.9533 3186.37V3208.5C38.9533 3214.68 40.5001 3219.31 43.0783 3222.4C46.6877 3226 50.8127 3227.55 56.4847 3227.55Z" fill="#F9893D" fill-opacity="0.5"/>
<path opacity="0.78" d="M60.6096 3360.87V3289.32H58.5471L47.2033 3315.57H31.2188L48.2345 3278H75.563V3360.87H60.6096Z" fill="#F9893D" fill-opacity="0.5"/>
</g>
<g opacity="0.18">
<path d="M379.448 193.016V134.219H377.765L368.51 155.638H355.469L369.351 124.979H391.648V193.016H379.448Z" fill="#F9893D" fill-opacity="0.5"/>
<path d="M376.503 295.49C368.51 295.49 362.2 293.39 357.152 288.77C352.103 284.151 350 277.851 350 268.611V251.812C350 242.993 352.524 236.693 357.152 232.073C361.779 227.453 368.51 225.354 376.503 225.354C384.497 225.354 390.807 227.453 395.855 232.073C400.483 236.693 403.007 243.413 403.007 251.812V268.611C403.007 277.431 400.483 284.151 395.855 288.77C390.807 293.39 384.497 295.49 376.503 295.49ZM376.503 284.571C381.131 284.571 384.917 283.311 387.021 280.791C389.124 278.271 390.386 274.491 390.386 269.451V251.392C390.386 246.352 389.124 242.573 386.6 240.053C384.076 237.533 380.71 236.273 376.503 236.273C371.876 236.273 368.51 237.533 365.986 240.053C363.462 242.573 362.2 246.352 362.2 250.972V269.031C362.2 274.071 363.462 277.851 365.565 280.371C368.09 283.311 371.876 284.571 376.503 284.571Z" fill="#F9893D" fill-opacity="0.5"/>
<path d="M379.448 395.867V337.07H377.765L368.51 358.489H355.469L369.351 327.83H391.648V395.447H379.448V395.867Z" fill="#F9893D" fill-opacity="0.5"/>
<path d="M379.448 497.081V438.704H377.765L368.51 460.123H355.469L369.351 429.465H391.648V497.081H379.448Z" fill="#F9893D" fill-opacity="0.5"/>
<path d="M379.448 598.716V539.919H377.765L368.51 561.338H355.469L369.772 531.1H392.069V598.716H379.448Z" fill="#F9893D" fill-opacity="0.5"/>
<path d="M376.503 701.191C368.51 701.191 362.2 699.091 357.152 694.471C352.103 689.852 350 683.552 350 674.312V657.513C350 648.694 352.524 642.394 357.152 637.774C361.779 633.155 368.51 631.055 376.503 631.055C384.497 631.055 390.807 633.155 395.855 637.774C400.483 642.394 403.007 649.114 403.007 657.513V674.312C403.007 683.132 400.483 689.852 395.855 694.471C390.807 699.091 384.497 701.191 376.503 701.191ZM376.503 690.272C381.131 690.272 384.917 689.012 387.021 686.492C389.124 683.972 390.386 680.192 390.386 675.152V657.093C390.386 652.054 389.124 648.274 386.6 645.754C384.076 643.234 380.71 641.974 376.503 641.974C371.876 641.974 368.51 643.234 365.986 645.754C363.462 648.274 362.2 652.054 362.2 656.673V674.732C362.2 679.772 363.462 683.552 365.565 686.072C368.09 689.012 371.876 690.272 376.503 690.272Z" fill="#F9893D" fill-opacity="0.5"/>
<path d="M376.503 802.826C368.51 802.826 362.2 800.726 357.152 796.106C352.103 791.487 350 785.187 350 775.947V759.148C350 750.329 352.524 744.029 357.152 739.409C361.779 734.789 368.51 732.689 376.503 732.689C384.497 732.689 390.807 734.789 395.855 739.409C400.483 744.029 403.007 750.749 403.007 759.148V775.947C403.007 784.767 400.483 791.487 395.855 796.106C390.807 800.726 384.497 802.826 376.503 802.826ZM376.503 791.906C381.131 791.906 384.917 790.647 387.021 788.127C389.124 785.607 390.386 781.827 390.386 776.787V758.728C390.386 753.688 389.124 749.909 386.6 747.389C384.076 744.869 380.71 743.609 376.503 743.609C371.876 743.609 368.51 744.869 365.986 747.389C363.462 749.909 362.2 753.688 362.2 758.308V776.367C362.2 781.407 363.462 785.187 365.565 787.707C368.09 790.647 371.876 791.906 376.503 791.906Z" fill="#F9893D" fill-opacity="0.5"/>
<path d="M379.448 902.781V844.404H377.765L368.51 865.823H355.469L369.351 835.164H391.648V902.781H379.448Z" fill="#F9893D" fill-opacity="0.5"/>
<path d="M376.503 1005.68C368.51 1005.68 362.2 1003.58 357.152 998.956C352.103 994.336 350 988.036 350 978.797V961.998C350 953.178 352.524 946.878 357.152 942.259C361.779 937.639 368.51 935.539 376.503 935.539C384.497 935.539 390.807 937.639 395.855 942.259C400.483 946.878 403.007 953.598 403.007 961.998V978.797C403.007 987.616 400.483 994.336 395.855 998.956C390.807 1003.58 384.497 1005.68 376.503 1005.68ZM376.503 994.756C381.131 994.756 384.917 993.496 387.021 990.976C389.124 988.456 390.386 984.677 390.386 979.637V961.578C390.386 956.538 389.124 952.758 386.6 950.238C384.076 947.718 380.71 946.458 376.503 946.458C371.876 946.458 368.51 947.718 365.986 950.238C363.462 952.758 362.2 956.538 362.2 961.158V979.217C362.2 984.257 363.462 988.036 365.565 990.556C368.09 993.496 371.876 994.756 376.503 994.756Z" fill="#F9893D" fill-opacity="0.5"/>
<path opacity="0.78" d="M379.448 1105.63V1047.25H377.765L368.51 1068.67H355.469L369.351 1038.01H391.648V1105.63H379.448Z" fill="#F9893D" fill-opacity="0.5"/>
<path opacity="0.78" d="M376.503 1208.53C368.51 1208.53 362.2 1206.43 357.152 1201.81C352.103 1197.19 350 1190.89 350 1181.65V1164.85C350 1156.03 352.524 1149.73 357.152 1145.11C361.779 1140.49 368.51 1138.39 376.503 1138.39C384.497 1138.39 390.807 1140.49 395.855 1145.11C400.483 1149.73 403.007 1156.45 403.007 1164.85V1181.65C403.007 1190.47 400.483 1197.19 395.855 1201.81C390.807 1206.43 384.497 1208.53 376.503 1208.53ZM376.503 1197.61C381.131 1197.61 384.917 1196.35 387.021 1193.83C389.124 1191.31 390.386 1187.53 390.386 1182.49V1164.43C390.386 1159.39 389.124 1155.61 386.6 1153.09C384.076 1150.57 380.71 1149.31 376.503 1149.31C371.876 1149.31 368.51 1150.57 365.986 1153.09C363.462 1155.61 362.2 1159.39 362.2 1164.01V1182.07C362.2 1187.11 363.462 1190.89 365.565 1193.41C368.09 1196.35 371.876 1197.61 376.503 1197.61Z" fill="#F9893D" fill-opacity="0.5"/>
<path opacity="0.78" d="M376.503 1309.74C368.51 1309.74 362.2 1307.64 357.152 1303.02C352.103 1298.4 350 1292.1 350 1282.86V1266.06C350 1257.24 352.524 1250.94 357.152 1246.32C361.779 1241.7 368.51 1239.6 376.503 1239.6C384.497 1239.6 390.807 1241.7 395.855 1246.32C400.483 1250.94 403.007 1257.66 403.007 1266.06V1282.86C403.007 1291.68 400.483 1298.4 395.855 1303.02C390.807 1307.64 384.497 1309.74 376.503 1309.74ZM376.503 1298.82C381.131 1298.82 384.917 1297.56 387.021 1295.04C389.124 1292.52 390.386 1288.74 390.386 1283.7V1265.64C390.386 1260.6 389.124 1256.82 386.6 1254.3C384.076 1251.78 380.71 1250.52 376.503 1250.52C371.876 1250.52 368.51 1251.78 365.986 1254.3C363.462 1256.82 362.2 1260.6 362.2 1265.22V1283.28C362.2 1288.32 363.462 1292.1 365.565 1294.62C368.09 1297.56 371.876 1298.82 376.503 1298.82Z" fill="#F9893D" fill-opacity="0.5"/>
<path d="M379.448 1410.11V1351.74H377.765L368.51 1373.16H355.469L369.351 1342.5H391.648V1410.11H379.448Z" fill="#F9893D" fill-opacity="0.5"/>
<path d="M376.503 1512.59C368.51 1512.59 362.2 1510.49 357.152 1505.87C352.103 1501.25 350 1494.95 350 1485.71V1468.91C350 1460.09 352.524 1453.79 357.152 1449.17C361.779 1444.55 368.51 1442.45 376.503 1442.45C384.497 1442.45 390.807 1444.55 395.855 1449.17C400.483 1453.79 403.007 1460.51 403.007 1468.91V1485.71C403.007 1494.53 400.483 1501.25 395.855 1505.87C390.807 1510.49 384.497 1512.59 376.503 1512.59ZM376.503 1501.67C381.131 1501.67 384.917 1500.41 387.021 1497.89C389.124 1495.37 390.386 1491.59 390.386 1486.55V1468.49C390.386 1463.45 389.124 1459.67 386.6 1457.15C384.076 1454.63 380.71 1453.37 376.503 1453.37C371.876 1453.37 368.51 1454.63 365.986 1457.15C363.462 1459.67 362.2 1463.45 362.2 1468.07V1486.13C362.2 1491.17 363.462 1494.95 365.565 1497.47C368.09 1500.41 371.876 1501.67 376.503 1501.67Z" fill="#F9893D" fill-opacity="0.5"/>
<path d="M379.448 1612.96V1554.59H377.765L368.51 1576.01H355.469L369.351 1545.35H391.648V1612.96H379.448Z" fill="#F9893D" fill-opacity="0.5"/>
<path d="M376.503 1715.44C368.51 1715.44 362.2 1713.34 357.152 1708.72C352.103 1704.1 350 1697.8 350 1688.56V1671.76C350 1662.94 352.524 1656.64 357.152 1652.02C361.779 1647.4 368.51 1645.3 376.503 1645.3C384.497 1645.3 390.807 1647.4 395.855 1652.02C400.483 1656.64 403.007 1663.36 403.007 1671.76V1688.56C403.007 1697.38 400.483 1704.1 395.855 1708.72C390.807 1713.34 384.497 1715.44 376.503 1715.44ZM376.503 1704.52C381.131 1704.52 384.917 1703.26 387.021 1700.74C389.124 1698.22 390.386 1694.44 390.386 1689.4V1671.34C390.386 1666.3 389.124 1662.52 386.6 1660C384.076 1657.48 380.71 1656.22 376.503 1656.22C371.876 1656.22 368.51 1657.48 365.986 1660C363.462 1662.52 362.2 1666.3 362.2 1670.92V1688.98C362.2 1694.02 363.462 1697.8 365.565 1700.32C368.09 1703.26 371.876 1704.52 376.503 1704.52Z" fill="#F9893D" fill-opacity="0.5"/>
<path d="M379.448 1815.81V1757.44H377.765L368.51 1778.86H355.469L369.351 1748.2H391.648V1815.81H379.448Z" fill="#F9893D" fill-opacity="0.5"/>
<path d="M376.503 1918.29C368.51 1918.29 362.2 1916.19 357.152 1911.57C352.103 1906.95 350 1900.65 350 1891.41V1874.61C350 1865.79 352.524 1859.49 357.152 1854.87C361.779 1850.25 368.51 1848.15 376.503 1848.15C384.497 1848.15 390.807 1850.25 395.855 1854.87C400.483 1859.49 403.007 1866.21 403.007 1874.61V1891.41C403.007 1900.23 400.483 1906.95 395.855 1911.57C390.807 1916.19 384.497 1918.29 376.503 1918.29ZM376.503 1907.37C381.131 1907.37 384.917 1906.11 387.021 1903.59C389.124 1901.07 390.386 1897.29 390.386 1892.25V1874.19C390.386 1869.15 389.124 1865.37 386.6 1862.85C384.076 1860.33 380.71 1859.07 376.503 1859.07C371.876 1859.07 368.51 1860.33 365.986 1862.85C363.462 1865.37 362.2 1869.15 362.2 1873.77V1891.83C362.2 1896.87 363.462 1900.65 365.565 1903.17C368.09 1906.11 371.876 1907.37 376.503 1907.37Z" fill="#F9893D" fill-opacity="0.5"/>
<path d="M379.448 2018.66V1960.29H377.765L368.51 1981.71H355.469L369.351 1951.05H391.648V2018.66H379.448Z" fill="#F9893D" fill-opacity="0.5"/>
</g>
<g opacity="0.18">
<path d="M371.485 2854.5C361.688 2854.5 353.953 2851.93 347.766 2846.27C341.578 2840.61 339 2832.88 339 2821.56V2800.97C339 2790.16 342.094 2782.44 347.766 2776.78C353.438 2771.11 361.688 2768.54 371.485 2768.54C381.282 2768.54 389.016 2771.11 395.204 2776.78C400.876 2782.44 403.97 2790.67 403.97 2800.97V2821.56C403.97 2832.37 400.876 2840.61 395.204 2846.27C389.016 2851.93 381.282 2854.5 371.485 2854.5ZM371.485 2841.12C377.157 2841.12 381.797 2839.58 384.376 2836.49C386.954 2833.4 388.501 2828.77 388.501 2822.59V2800.45C388.501 2794.28 386.954 2789.64 383.86 2786.56C380.766 2783.47 376.641 2781.92 371.485 2781.92C365.813 2781.92 361.688 2783.47 358.594 2786.56C355.5 2789.64 353.953 2794.28 353.953 2799.94V2822.07C353.953 2828.25 355.5 2832.88 358.078 2835.97C361.172 2839.58 365.297 2841.12 371.485 2841.12Z" fill="#F9893D" fill-opacity="0.5"/>
<path d="M375.094 2977.53V2905.98H373.032L361.688 2932.23H345.703L362.719 2894.66H390.047V2977.53H375.094Z" fill="#F9893D" fill-opacity="0.5"/>
<path d="M371.485 3103.13C361.688 3103.13 353.953 3100.56 347.766 3094.9C341.578 3089.23 339 3081.51 339 3070.19V3049.6C339 3038.79 342.094 3031.07 347.766 3025.4C353.438 3019.74 361.688 3017.17 371.485 3017.17C381.282 3017.17 389.016 3019.74 395.204 3025.4C400.876 3031.07 403.97 3039.3 403.97 3049.6V3070.19C403.97 3081 400.876 3089.23 395.204 3094.9C389.016 3100.56 381.282 3103.13 371.485 3103.13ZM371.485 3089.75C377.157 3089.75 381.797 3088.2 384.376 3085.12C386.954 3082.03 388.501 3077.39 388.501 3071.22V3049.08C388.501 3042.91 386.954 3038.27 383.86 3035.18C380.766 3032.1 376.641 3030.55 371.485 3030.55C365.813 3030.55 361.688 3032.1 358.594 3035.18C355.5 3038.27 353.953 3042.91 353.953 3048.57V3070.7C353.953 3076.88 355.5 3081.51 358.078 3084.6C361.172 3088.2 365.297 3089.75 371.485 3089.75Z" fill="#F9893D" fill-opacity="0.5"/>
<path d="M375.094 3226.16V3154.09H373.032L361.688 3180.35H345.703L362.719 3142.77H390.047V3226.16H375.094Z" fill="#F9893D" fill-opacity="0.5"/>
<path d="M371.485 3351.76C361.688 3351.76 353.953 3349.19 347.766 3343.53C341.578 3337.87 339 3330.14 339 3318.82V3298.23C339 3287.42 342.094 3279.7 347.766 3274.03C353.438 3268.37 361.688 3265.8 371.485 3265.8C381.282 3265.8 389.016 3268.37 395.204 3274.03C400.876 3279.7 403.97 3287.93 403.97 3298.23V3318.82C403.97 3329.63 400.876 3337.87 395.204 3343.53C389.016 3349.19 381.282 3351.76 371.485 3351.76ZM371.485 3338.38C377.157 3338.38 381.797 3336.84 384.376 3333.75C386.954 3330.66 388.501 3326.03 388.501 3319.85V3297.71C388.501 3291.54 386.954 3286.9 383.86 3283.82C380.766 3280.73 376.641 3279.18 371.485 3279.18C365.813 3279.18 361.688 3280.73 358.594 3283.82C355.5 3286.9 353.953 3291.54 353.953 3297.2V3319.33C353.953 3325.51 355.5 3330.14 358.078 3333.23C361.172 3336.84 365.297 3338.38 371.485 3338.38Z" fill="#F9893D" fill-opacity="0.5"/>
<path d="M375.094 3474.79V3403.24H373.032L361.688 3429.49H345.703L362.719 3391.91H390.047V3474.79H375.094Z" fill="#F9893D" fill-opacity="0.5"/>
<path d="M371.485 3600.39C361.688 3600.39 353.953 3597.82 347.766 3592.15C341.578 3586.49 339 3578.77 339 3567.45V3546.86C339 3536.05 342.094 3528.32 347.766 3522.66C353.438 3517 361.688 3514.43 371.485 3514.43C381.282 3514.43 389.016 3517 395.204 3522.66C400.876 3528.32 403.97 3536.56 403.97 3546.86V3567.45C403.97 3578.26 400.876 3586.49 395.204 3592.15C389.016 3597.82 381.282 3600.39 371.485 3600.39ZM371.485 3587.01C377.157 3587.01 381.797 3585.46 384.376 3582.37C386.954 3579.29 388.501 3574.65 388.501 3568.48V3546.34C388.501 3540.16 386.954 3535.53 383.86 3532.44C380.766 3529.35 376.641 3527.81 371.485 3527.81C365.813 3527.81 361.688 3529.35 358.594 3532.44C355.5 3535.53 353.953 3540.16 353.953 3545.83V3567.96C353.953 3574.14 355.5 3578.77 358.078 3581.86C361.172 3585.46 365.297 3587.01 371.485 3587.01Z" fill="#F9893D" fill-opacity="0.5"/>
<path d="M375.094 3723.42V3651.87H373.032L361.688 3678.12H345.703L362.719 3640.54H390.047V3723.42H375.094Z" fill="#F9893D" fill-opacity="0.5"/>
<path d="M371.485 3849.02C361.688 3849.02 353.953 3846.45 347.766 3840.79C342.094 3835.64 339 3827.4 339 3816.08V3795.49C339 3784.68 342.094 3776.96 347.766 3771.29C353.438 3765.63 361.688 3763.06 371.485 3763.06C381.282 3763.06 389.016 3765.63 395.204 3771.29C400.876 3776.96 403.97 3785.19 403.97 3795.49V3816.08C403.97 3826.89 400.876 3835.12 395.204 3840.79C389.016 3846.45 381.282 3849.02 371.485 3849.02ZM371.485 3835.64C377.157 3835.64 381.797 3834.09 384.376 3831.01C386.954 3827.92 388.501 3823.28 388.501 3817.11V3794.97C388.501 3788.79 386.954 3784.16 383.86 3781.07C380.766 3777.98 376.641 3776.44 371.485 3776.44C365.813 3776.44 361.688 3777.98 358.594 3781.07C355.5 3784.16 353.953 3788.79 353.953 3794.46V3816.59C353.953 3822.77 355.5 3827.4 358.078 3830.49C361.172 3834.09 365.297 3835.64 371.485 3835.64Z" fill="#F9893D" fill-opacity="0.5"/>
<path d="M375.094 3972.05V3900.5H373.032L361.688 3926.75H345.703L362.719 3889.17H390.047V3972.05H375.094Z" fill="#F9893D" fill-opacity="0.5"/>
<path d="M371.485 4097.65C361.688 4097.65 353.953 4095.08 347.766 4089.41C342.094 4084.27 339 4076.03 339 4064.71V4044.12C339 4033.31 342.094 4025.58 347.766 4019.92C353.438 4014.26 361.688 4011.69 371.485 4011.69C381.282 4011.69 389.016 4014.26 395.204 4019.92C400.876 4025.58 403.97 4033.82 403.97 4044.12V4064.71C403.97 4075.52 400.876 4083.75 395.204 4089.41C389.016 4095.08 381.282 4097.65 371.485 4097.65ZM371.485 4084.27C377.157 4084.27 381.797 4082.72 384.376 4079.63C386.954 4076.55 388.501 4071.91 388.501 4065.74V4043.6C388.501 4037.42 386.954 4032.79 383.86 4029.7C380.766 4026.61 376.641 4025.07 371.485 4025.07C365.813 4025.07 361.688 4026.61 358.594 4029.7C355.5 4032.79 353.953 4037.42 353.953 4043.09V4065.22C353.953 4071.4 355.5 4076.03 358.078 4079.12C361.172 4082.72 365.297 4084.27 371.485 4084.27Z" fill="#F9893D" fill-opacity="0.5"/>
<path d="M375.094 4220.68V4149.13H373.032L361.688 4175.38H345.703L362.719 4137.8H390.047V4220.68H375.094Z" fill="#F9893D" fill-opacity="0.5"/>
<path d="M375.094 4344.74V4273.18H373.032L361.688 4299.44H345.703L362.719 4261.86H390.047V4344.74H375.094Z" fill="#F9893D" fill-opacity="0.5"/>
<path d="M375.094 4469.31V4397.76H373.032L361.688 4424.01H345.703L362.719 4386.43H390.047V4469.31H375.094Z" fill="#F9893D" fill-opacity="0.5"/>
<path d="M371.485 4594.91C361.688 4594.91 353.953 4592.34 347.766 4586.67C342.094 4581.01 339 4573.29 339 4561.97V4541.38C339 4530.57 342.094 4522.84 347.766 4517.18C353.438 4511.52 361.688 4508.95 371.485 4508.95C381.282 4508.95 389.016 4511.52 395.204 4517.18C400.876 4522.84 403.969 4531.08 403.969 4541.38V4561.97C403.969 4572.78 400.876 4581.01 395.204 4586.67C389.016 4592.34 381.282 4594.91 371.485 4594.91ZM371.485 4581.53C377.157 4581.53 381.797 4579.98 384.376 4576.89C386.954 4573.8 388.501 4569.17 388.501 4562.99V4540.86C388.501 4534.68 386.954 4530.05 383.86 4526.96C380.766 4523.87 376.641 4522.33 371.485 4522.33C365.813 4522.33 361.688 4523.87 358.594 4526.96C355.5 4530.05 353.953 4534.68 353.953 4540.35V4562.48C353.953 4568.66 355.5 4573.29 358.078 4576.38C361.172 4579.98 365.297 4581.53 371.485 4581.53Z" fill="#F9893D" fill-opacity="0.5"/>
<path opacity="0.78" d="M371.485 4719.48C361.688 4719.48 353.953 4716.91 347.766 4711.24C342.094 4706.1 339 4697.86 339 4686.54V4665.95C339 4655.14 342.094 4647.41 347.766 4641.75C353.438 4636.09 361.688 4633.52 371.485 4633.52C381.282 4633.52 389.016 4636.09 395.204 4641.75C400.876 4647.41 403.97 4655.65 403.97 4665.95V4686.54C403.97 4697.35 400.876 4705.58 395.204 4711.24C389.016 4716.91 381.282 4719.48 371.485 4719.48ZM371.485 4706.1C377.157 4706.1 381.797 4704.55 384.376 4701.46C386.954 4698.38 388.501 4693.74 388.501 4687.57V4665.43C388.501 4659.25 386.954 4654.62 383.86 4651.53C380.766 4648.44 376.641 4646.9 371.485 4646.9C365.813 4646.9 361.688 4648.44 358.594 4651.53C355.5 4654.62 353.953 4659.25 353.953 4664.92V4687.05C353.953 4693.23 355.5 4697.86 358.078 4700.95C361.172 4704.55 365.297 4706.1 371.485 4706.1Z" fill="#F9893D" fill-opacity="0.5"/>
<path opacity="0.78" d="M375.094 4841.99V4770.44H373.032L361.688 4796.69H345.703L362.719 4759.12H390.047V4841.99H375.094Z" fill="#F9893D" fill-opacity="0.5"/>
<path opacity="0.78" d="M371.485 4968.11C361.688 4968.11 353.953 4965.54 347.766 4959.88C342.094 4954.73 339 4946.49 339 4935.17V4914.58C339 4903.77 342.094 4896.04 347.766 4890.38C353.438 4884.72 361.688 4882.15 371.485 4882.15C381.282 4882.15 389.016 4884.72 395.204 4890.38C400.876 4896.04 403.97 4904.28 403.97 4914.58V4935.17C403.97 4945.98 400.876 4954.21 395.204 4959.88C389.016 4965.54 381.282 4968.11 371.485 4968.11ZM371.485 4954.73C377.157 4954.73 381.797 4953.18 384.376 4950.09C386.954 4947.01 388.501 4942.37 388.501 4936.2V4914.06C388.501 4907.88 386.954 4903.25 383.86 4900.16C380.766 4897.07 376.641 4895.53 371.485 4895.53C365.813 4895.53 361.688 4897.07 358.594 4900.16C355.5 4903.25 353.953 4907.88 353.953 4913.55V4935.68C353.953 4941.86 355.5 4946.49 358.078 4949.58C361.172 4953.18 365.297 4954.73 371.485 4954.73Z" fill="#F9893D" fill-opacity="0.5"/>
<path opacity="0.78" d="M375.094 5090.62V5019.07H373.032L361.688 5045.33H345.703L362.719 5007.75H390.047V5090.62H375.094Z" fill="#F9893D" fill-opacity="0.5"/>
<path opacity="0.78" d="M371.485 5216.74C361.688 5216.74 353.953 5214.17 347.766 5208.5C342.094 5202.84 339 5195.12 339 5183.8V5163.21C339 5152.4 342.094 5144.67 347.766 5139.01C353.438 5133.35 361.688 5130.78 371.485 5130.78C381.282 5130.78 389.016 5133.35 395.204 5139.01C400.876 5144.67 403.969 5152.91 403.969 5163.21V5183.8C403.969 5194.61 400.876 5202.84 395.204 5208.5C389.016 5214.17 381.282 5216.74 371.485 5216.74ZM371.485 5203.36C377.157 5203.36 381.797 5201.81 384.376 5198.72C386.954 5195.63 388.501 5191 388.501 5184.83V5162.69C388.501 5156.51 386.954 5151.88 383.86 5148.79C380.766 5145.7 376.641 5144.16 371.485 5144.16C365.813 5144.16 361.688 5145.7 358.594 5148.79C355.5 5151.88 353.953 5156.51 353.953 5162.18V5184.31C353.953 5190.49 355.5 5195.12 358.078 5198.21C361.172 5201.81 365.297 5203.36 371.485 5203.36Z" fill="#F9893D" fill-opacity="0.5"/>
<path opacity="0.78" d="M371.485 5340.8C361.688 5340.8 353.953 5338.22 347.766 5332.56C342.094 5327.41 339 5319.18 339 5307.85V5287.26C339 5276.45 342.094 5268.73 347.766 5263.07C353.438 5257.41 361.688 5254.83 371.485 5254.83C381.282 5254.83 389.016 5257.41 395.204 5263.07C400.876 5268.73 403.97 5276.97 403.97 5287.26V5307.85C403.97 5318.66 400.876 5326.9 395.204 5332.56C389.016 5338.22 381.282 5340.8 371.485 5340.8ZM371.485 5327.41C377.157 5327.41 381.797 5325.87 384.376 5322.78C386.954 5319.69 388.501 5315.06 388.501 5308.88V5286.75C388.501 5280.57 386.954 5275.94 383.86 5272.85C380.766 5269.76 376.641 5268.22 371.485 5268.22C365.813 5268.22 361.688 5269.76 358.594 5272.85C355.5 5275.94 353.953 5280.57 353.953 5286.23V5308.37C353.953 5314.54 355.5 5319.18 358.078 5322.27C361.172 5325.87 365.297 5327.41 371.485 5327.41Z" fill="#F9893D" fill-opacity="0.5"/>
</g>
<g opacity="0.46">
<path d="M108.157 5243.04C96.8128 5243.04 87.5315 5239.95 80.3126 5233.77C73.0938 5227.6 70 5217.81 70 5204.95V5180.24C70 5167.88 73.6094 5158.1 80.3126 5151.93C87.0158 5145.75 96.2972 5142.14 108.157 5142.14C120.016 5142.14 128.782 5145.23 136.001 5151.93C143.22 5158.62 146.313 5167.88 146.313 5180.24V5204.95C146.313 5217.81 142.704 5227.6 136.001 5233.77C129.298 5239.95 119.501 5243.04 108.157 5243.04ZM108.157 5227.08C115.376 5227.08 120.016 5225.02 123.626 5221.42C126.719 5217.81 128.782 5212.15 128.782 5204.95V5179.21C128.782 5172 126.719 5166.85 123.11 5163.25C119.501 5159.65 114.344 5157.59 108.157 5157.59C101.969 5157.59 96.8128 5159.65 93.2034 5163.25C89.594 5166.85 88.0471 5172.52 88.0471 5179.21V5204.95C88.0471 5212.15 89.594 5217.81 93.2034 5221.42C96.2972 5225.54 101.453 5227.08 108.157 5227.08Z" fill="#F9893D" fill-opacity="0.5"/>
<path opacity="0.73" d="M112.282 5387.17V5302.75H109.703L96.8127 5333.64H78.25L98.3596 5289.88H130.329V5387.17H112.282Z" fill="#F9893D" fill-opacity="0.5"/>
</g>
<g opacity="0.46">
<path d="M224.469 4521.16C213.125 4521.16 203.844 4518.07 196.625 4511.89C189.406 4505.72 186.312 4495.94 186.312 4483.07V4458.36C186.312 4446 189.922 4436.22 196.625 4430.05C203.328 4423.87 212.61 4420.27 224.469 4420.27C236.329 4420.27 245.094 4423.35 252.313 4430.05C259.532 4436.74 262.626 4446 262.626 4458.36V4483.07C262.626 4495.94 259.016 4505.72 252.313 4511.89C245.61 4518.07 235.813 4521.16 224.469 4521.16ZM224.469 4505.2C231.688 4505.2 236.329 4503.14 239.938 4499.54C243.032 4495.94 245.094 4490.27 245.094 4483.07V4457.33C245.094 4450.12 243.032 4444.97 239.422 4441.37C235.813 4437.77 230.657 4435.71 224.469 4435.71C218.282 4435.71 213.125 4437.77 209.516 4441.37C205.906 4444.97 204.36 4450.64 204.36 4457.33V4483.07C204.36 4490.27 205.906 4495.94 209.516 4499.54C212.61 4503.66 217.766 4505.2 224.469 4505.2Z" fill="#F9893D" fill-opacity="0.5"/>
<path opacity="0.73" d="M228.594 4665.29V4580.87H226.016L213.125 4611.76H194.562L214.672 4568H246.641V4665.29H228.594Z" fill="#F9893D" fill-opacity="0.5"/>
<path opacity="0.73" d="M224.469 4813.03C213.125 4813.03 203.844 4809.94 196.625 4803.76C189.406 4797.58 186.312 4787.8 186.312 4774.94V4750.23C186.312 4737.87 189.922 4728.09 196.625 4721.92C203.328 4715.74 212.61 4712.13 224.469 4712.13C236.329 4712.13 245.094 4715.22 252.313 4721.92C259.532 4728.61 262.626 4737.87 262.626 4750.23V4774.94C262.626 4787.8 259.016 4797.58 252.313 4803.76C245.094 4809.94 235.813 4813.03 224.469 4813.03ZM224.469 4797.07C231.688 4797.07 236.329 4795.01 239.938 4791.41C243.032 4787.8 245.094 4782.14 245.094 4774.94V4749.2C245.094 4741.99 243.032 4736.84 239.422 4733.24C235.813 4729.64 230.657 4727.58 224.469 4727.58C218.282 4727.58 213.125 4729.64 209.516 4733.24C205.906 4736.84 204.36 4742.51 204.36 4749.2V4774.94C204.36 4782.14 205.906 4787.8 209.516 4791.41C212.61 4795.53 217.766 4797.07 224.469 4797.07Z" fill="#F9893D" fill-opacity="0.5"/>
<path opacity="0.73" d="M228.594 4957.16V4872.74H226.016L213.125 4903.63H194.562L214.672 4859.87H246.641V4957.16H228.594Z" fill="#F9893D" fill-opacity="0.5"/>
<path opacity="0.73" d="M224.469 5104.9C213.125 5104.9 203.844 5101.81 196.625 5095.63C189.406 5089.45 186.312 5079.67 186.312 5066.8V5042.1C186.312 5029.74 189.922 5019.96 196.625 5013.78C203.844 5007.09 212.61 5004 224.469 5004C236.329 5004 245.094 5007.09 252.313 5013.78C259.016 5020.48 262.626 5029.74 262.626 5042.1V5066.8C262.626 5079.67 259.016 5089.45 252.313 5095.63C245.094 5101.81 235.813 5104.9 224.469 5104.9ZM224.469 5088.94C231.688 5088.94 236.329 5086.88 239.938 5083.28C243.032 5079.67 245.094 5074.01 245.094 5066.8V5041.07C245.094 5033.86 243.032 5028.71 239.422 5025.11C235.813 5021.51 230.657 5019.45 224.469 5019.45C218.282 5019.45 213.125 5021.51 209.516 5025.11C205.906 5028.71 204.36 5034.37 204.36 5041.07V5066.8C204.36 5074.01 205.906 5079.67 209.516 5083.28C212.61 5087.4 217.766 5088.94 224.469 5088.94Z" fill="#F9893D" fill-opacity="0.5"/>
<path d="M228.594 5249.03V5164.61H226.016L213.125 5195.49H194.562L214.672 5151.74H246.641V5249.03H228.594Z" fill="#F9893D" fill-opacity="0.5"/>
<path d="M224.469 5396.77C213.125 5396.77 203.844 5393.68 196.625 5387.5C189.406 5381.32 186.312 5371.54 186.312 5358.67V5333.97C186.312 5321.61 189.922 5311.83 196.625 5305.65C203.844 5298.96 212.61 5295.87 224.469 5295.87C236.329 5295.87 245.094 5298.96 252.313 5305.65C259.016 5312.35 262.626 5321.61 262.626 5333.97V5358.67C262.626 5371.54 259.016 5381.32 252.313 5387.5C245.094 5393.68 235.813 5396.77 224.469 5396.77ZM224.469 5380.81C231.688 5380.81 236.329 5378.75 239.938 5375.15C243.032 5371.54 245.094 5365.88 245.094 5358.67V5332.94C245.094 5325.73 243.032 5320.58 239.422 5316.98C235.813 5313.38 230.657 5311.32 224.469 5311.32C218.282 5311.32 213.125 5313.38 209.516 5316.98C205.906 5320.58 204.36 5326.24 204.36 5332.94V5358.67C204.36 5365.88 205.906 5371.54 209.516 5375.15C212.61 5379.26 217.766 5380.81 224.469 5380.81Z" fill="#F9893D" fill-opacity="0.5"/>
</g>
</g>
<defs>
<clipPath id="clip0_146_11036">
<rect width="428" height="5304" fill="white"/>
</clipPath>
</defs>
</svg>
