<svg width="968" height="3257" viewBox="0 0 968 3257" fill="none" xmlns="http://www.w3.org/2000/svg">
<rect width="968" height="3257" fill="#1A1A1A"/>
<g clip-path="url(#clip0_146_8750)">
<g opacity="0.18">
<path d="M300.035 84.4051V12.3266H297.976L286.648 38.5838H270.688L287.678 1H314.966V84.4051H300.035Z" fill="#F9893D" fill-opacity="0.5"/>
<path d="M296.437 210.026C286.654 210.026 278.931 207.452 272.753 201.789C266.574 196.125 264 188.403 264 177.076V156.482C264 145.67 267.089 137.948 272.753 132.284C278.416 126.621 286.654 124.047 296.437 124.047C306.219 124.047 313.942 126.621 320.121 132.284C325.784 137.948 328.874 146.185 328.874 156.482V177.076C328.874 187.888 325.784 196.125 320.121 201.789C313.942 207.452 306.219 210.026 296.437 210.026ZM296.437 196.64C302.1 196.64 306.734 195.096 309.309 192.007C311.883 188.917 313.428 184.284 313.428 178.106V155.967C313.428 149.789 311.883 145.156 308.794 142.066C305.704 138.977 301.586 137.433 296.437 137.433C290.773 137.433 286.654 138.977 283.565 142.066C280.476 145.156 278.931 149.789 278.931 155.452V177.591C278.931 183.769 280.476 188.403 283.05 191.492C286.139 195.096 290.773 196.64 296.437 196.64Z" fill="#F9893D" fill-opacity="0.5"/>
<path d="M300.035 333.077V260.998H297.976L286.648 287.256H270.688L287.678 249.672H314.966V332.562H300.035V333.077Z" fill="#F9893D" fill-opacity="0.5"/>
<path d="M300.035 457.154V385.59H297.976L286.648 411.847H270.688L287.678 374.264H314.966V457.154H300.035Z" fill="#F9893D" fill-opacity="0.5"/>
<path d="M300.035 581.746V509.667H297.976L286.648 535.924H270.688L288.193 498.855H315.481V581.746H300.035Z" fill="#F9893D" fill-opacity="0.5"/>
<path d="M296.437 707.37C286.654 707.37 278.931 704.796 272.753 699.132C266.574 693.469 264 685.746 264 674.42V653.826C264 643.014 267.089 635.291 272.753 629.628C278.416 623.965 286.654 621.391 296.437 621.391C306.219 621.391 313.942 623.965 320.121 629.628C325.784 635.291 328.874 643.529 328.874 653.826V674.42C328.874 685.232 325.784 693.469 320.121 699.132C313.942 704.796 306.219 707.37 296.437 707.37ZM296.437 693.984C302.1 693.984 306.734 692.439 309.309 689.35C311.883 686.261 313.428 681.628 313.428 675.449V653.311C313.428 647.133 311.883 642.499 308.794 639.41C305.704 636.321 301.586 634.777 296.437 634.777C290.773 634.777 286.654 636.321 283.565 639.41C280.476 642.499 278.931 647.133 278.931 652.796V674.935C278.931 681.113 280.476 685.746 283.05 688.835C286.139 692.439 290.773 693.984 296.437 693.984Z" fill="#F9893D" fill-opacity="0.5"/>
<path d="M296.437 831.962C286.654 831.962 278.931 829.388 272.753 823.724C266.574 818.061 264 810.338 264 799.012V778.418C264 767.606 267.089 759.883 272.753 754.22C278.416 748.557 286.654 745.982 296.437 745.982C306.219 745.982 313.942 748.557 320.121 754.22C325.784 759.883 328.874 768.121 328.874 778.418V799.012C328.874 809.823 325.784 818.061 320.121 823.724C313.942 829.388 306.219 831.962 296.437 831.962ZM296.437 818.576C302.1 818.576 306.734 817.031 309.309 813.942C311.883 810.853 313.428 806.219 313.428 800.041V777.903C313.428 771.725 311.883 767.091 308.794 764.002C305.704 760.913 301.586 759.368 296.437 759.368C290.773 759.368 286.654 760.913 283.565 764.002C280.476 767.091 278.931 771.725 278.931 777.388V799.526C278.931 805.705 280.476 810.338 283.05 813.427C286.139 817.031 290.773 818.576 296.437 818.576Z" fill="#F9893D" fill-opacity="0.5"/>
<path d="M300.035 954.496V882.932H297.976L286.648 909.189H270.688L287.678 871.605H314.966V954.496H300.035Z" fill="#F9893D" fill-opacity="0.5"/>
<path d="M296.437 1080.63C286.654 1080.63 278.931 1078.06 272.753 1072.39C266.574 1066.73 264 1059.01 264 1047.68V1027.09C264 1016.28 267.089 1008.55 272.753 1002.89C278.416 997.227 286.654 994.652 296.437 994.652C306.219 994.652 313.942 997.227 320.121 1002.89C325.784 1008.55 328.874 1016.79 328.874 1027.09V1047.68C328.874 1058.49 325.784 1066.73 320.121 1072.39C313.942 1078.06 306.219 1080.63 296.437 1080.63ZM296.437 1067.25C302.1 1067.25 306.734 1065.7 309.309 1062.61C311.883 1059.52 313.428 1054.89 313.428 1048.71V1026.57C313.428 1020.39 311.883 1015.76 308.794 1012.67C305.704 1009.58 301.586 1008.04 296.437 1008.04C290.773 1008.04 286.654 1009.58 283.565 1012.67C280.476 1015.76 278.931 1020.39 278.931 1026.06V1048.2C278.931 1054.37 280.476 1059.01 283.05 1062.1C286.139 1065.7 290.773 1067.25 296.437 1067.25Z" fill="#F9893D" fill-opacity="0.5"/>
<path opacity="0.78" d="M300.035 1203.17V1131.6H297.976L286.648 1157.86H270.688L287.678 1120.28H314.966V1203.17H300.035Z" fill="#F9893D" fill-opacity="0.5"/>
<path opacity="0.78" d="M296.437 1329.3C286.654 1329.3 278.931 1326.73 272.753 1321.07C266.574 1315.4 264 1307.68 264 1296.35V1275.76C264 1264.95 267.089 1257.23 272.753 1251.56C278.416 1245.9 286.654 1243.32 296.437 1243.32C306.219 1243.32 313.942 1245.9 320.121 1251.56C325.784 1257.23 328.874 1265.46 328.874 1275.76V1296.35C328.874 1307.17 325.784 1315.4 320.121 1321.07C313.942 1326.73 306.219 1329.3 296.437 1329.3ZM296.437 1315.92C302.1 1315.92 306.734 1314.37 309.309 1311.28C311.883 1308.19 313.428 1303.56 313.428 1297.38V1275.24C313.428 1269.07 311.883 1264.43 308.794 1261.34C305.704 1258.25 301.586 1256.71 296.437 1256.71C290.773 1256.71 286.654 1258.25 283.565 1261.34C280.476 1264.43 278.931 1269.07 278.931 1274.73V1296.87C278.931 1303.05 280.476 1307.68 283.05 1310.77C286.139 1314.37 290.773 1315.92 296.437 1315.92Z" fill="#F9893D" fill-opacity="0.5"/>
<path opacity="0.78" d="M296.437 1453.38C286.654 1453.38 278.931 1450.81 272.753 1445.14C266.574 1439.48 264 1431.76 264 1420.43V1399.84C264 1389.03 267.089 1381.3 272.753 1375.64C278.416 1369.98 286.654 1367.4 296.437 1367.4C306.219 1367.4 313.942 1369.98 320.121 1375.64C325.784 1381.3 328.874 1389.54 328.874 1399.84V1420.43C328.874 1431.24 325.784 1439.48 320.121 1445.14C313.942 1450.81 306.219 1453.38 296.437 1453.38ZM296.437 1440C302.1 1440 306.734 1438.45 309.309 1435.36C311.883 1432.27 313.428 1427.64 313.428 1421.46V1399.32C313.428 1393.14 311.883 1388.51 308.794 1385.42C305.704 1382.33 301.586 1380.79 296.437 1380.79C290.773 1380.79 286.654 1382.33 283.565 1385.42C280.476 1388.51 278.931 1393.14 278.931 1398.81V1420.95C278.931 1427.12 280.476 1431.76 283.05 1434.85C286.139 1438.45 290.773 1440 296.437 1440Z" fill="#F9893D" fill-opacity="0.5"/>
<path d="M300.035 1576.43V1504.87H297.976L286.648 1531.12H270.688L287.678 1493.54H314.966V1576.43H300.035Z" fill="#F9893D" fill-opacity="0.5"/>
<path d="M296.437 1702.05C286.654 1702.05 278.931 1699.48 272.753 1693.81C266.574 1688.15 264 1680.43 264 1669.1V1648.51C264 1637.7 267.089 1629.97 272.753 1624.31C278.416 1618.65 286.654 1616.07 296.437 1616.07C306.219 1616.07 313.942 1618.65 320.121 1624.31C325.784 1629.97 328.874 1638.21 328.874 1648.51V1669.1C328.874 1679.91 325.784 1688.15 320.121 1693.81C313.942 1699.48 306.219 1702.05 296.437 1702.05ZM296.437 1688.67C302.1 1688.67 306.734 1687.12 309.309 1684.03C311.883 1680.94 313.428 1676.31 313.428 1670.13V1647.99C313.428 1641.81 311.883 1637.18 308.794 1634.09C305.704 1631 301.586 1629.46 296.437 1629.46C290.773 1629.46 286.654 1631 283.565 1634.09C280.476 1637.18 278.931 1641.81 278.931 1647.48V1669.62C278.931 1675.79 280.476 1680.43 283.05 1683.52C286.139 1687.12 290.773 1688.67 296.437 1688.67Z" fill="#F9893D" fill-opacity="0.5"/>
<path d="M300.035 1825.1V1753.54H297.976L286.648 1779.79H270.688L287.678 1742.21H314.966V1825.1H300.035Z" fill="#F9893D" fill-opacity="0.5"/>
<path d="M296.437 1950.72C286.654 1950.72 278.931 1948.15 272.753 1942.48C266.574 1936.82 264 1929.1 264 1917.77V1897.18C264 1886.37 267.089 1878.64 272.753 1872.98C278.416 1867.32 286.654 1864.74 296.437 1864.74C306.219 1864.74 313.942 1867.32 320.121 1872.98C325.784 1878.64 328.874 1886.88 328.874 1897.18V1917.77C328.874 1928.58 325.784 1936.82 320.121 1942.48C313.942 1948.15 306.219 1950.72 296.437 1950.72ZM296.437 1937.34C302.1 1937.34 306.734 1935.79 309.309 1932.7C311.883 1929.61 313.428 1924.98 313.428 1918.8V1896.66C313.428 1890.48 311.883 1885.85 308.794 1882.76C305.704 1879.67 301.586 1878.13 296.437 1878.13C290.773 1878.13 286.654 1879.67 283.565 1882.76C280.476 1885.85 278.931 1890.48 278.931 1896.15V1918.29C278.931 1924.46 280.476 1929.1 283.05 1932.19C286.139 1935.79 290.773 1937.34 296.437 1937.34Z" fill="#F9893D" fill-opacity="0.5"/>
<path d="M300.035 2073.77V2002.21H297.976L286.648 2028.46H270.688L287.678 1990.88H314.966V2073.77H300.035Z" fill="#F9893D" fill-opacity="0.5"/>
<path d="M296.437 2199.39C286.654 2199.39 278.931 2196.82 272.753 2191.16C266.574 2185.49 264 2177.77 264 2166.44V2145.85C264 2135.04 267.089 2127.31 272.753 2121.65C278.416 2115.99 286.654 2113.41 296.437 2113.41C306.219 2113.41 313.942 2115.99 320.121 2121.65C325.784 2127.31 328.874 2135.55 328.874 2145.85V2166.44C328.874 2177.25 325.784 2185.49 320.121 2191.16C313.942 2196.82 306.219 2199.39 296.437 2199.39ZM296.437 2186.01C302.1 2186.01 306.734 2184.46 309.309 2181.37C311.883 2178.28 313.428 2173.65 313.428 2167.47V2145.33C313.428 2139.16 311.883 2134.52 308.794 2131.43C305.704 2128.34 301.586 2126.8 296.437 2126.8C290.773 2126.8 286.654 2128.34 283.565 2131.43C280.476 2134.52 278.931 2139.16 278.931 2144.82V2166.96C278.931 2173.14 280.476 2177.77 283.05 2180.86C286.139 2184.46 290.773 2186.01 296.437 2186.01Z" fill="#F9893D" fill-opacity="0.5"/>
<path d="M300.035 2322.44V2250.88H297.976L286.648 2277.13H270.688L287.678 2239.55H314.966V2322.44H300.035Z" fill="#F9893D" fill-opacity="0.5"/>
</g>
<g opacity="0.18">
<path d="M844.405 215.048V156.241H842.725L833.483 177.664H820.461L834.323 147H856.587V215.048H844.405Z" fill="#F9893D" fill-opacity="0.5"/>
<path d="M841.464 317.541C833.483 317.541 827.182 315.44 822.141 310.82C817.1 306.199 815 299.899 815 290.658V273.856C815 265.035 817.52 258.734 822.141 254.113C826.762 249.493 833.483 247.393 841.464 247.393C849.446 247.393 855.747 249.493 860.787 254.113C865.408 258.734 867.929 265.455 867.929 273.856V290.658C867.929 299.479 865.408 306.199 860.787 310.82C855.747 315.44 849.446 317.541 841.464 317.541ZM841.464 306.619C846.085 306.619 849.866 305.359 851.966 302.839C854.066 300.319 855.327 296.538 855.327 291.498V273.436C855.327 268.395 854.066 264.615 851.546 262.094C849.026 259.574 845.665 258.314 841.464 258.314C836.844 258.314 833.483 259.574 830.963 262.094C828.442 264.615 827.182 268.395 827.182 273.016V291.078C827.182 296.118 828.442 299.899 830.543 302.419C833.063 305.359 836.844 306.619 841.464 306.619Z" fill="#F9893D" fill-opacity="0.5"/>
<path d="M844.405 417.931V359.124H842.725L833.483 380.546H820.461L834.323 349.883H856.587V417.511H844.405V417.931Z" fill="#F9893D" fill-opacity="0.5"/>
<path d="M844.405 519.163V460.776H842.725L833.483 482.199H820.461L834.323 451.535H856.587V519.163H844.405Z" fill="#F9893D" fill-opacity="0.5"/>
<path d="M844.405 620.815V562.009H842.725L833.483 583.431H820.461L834.743 553.188H857.007V620.815H844.405Z" fill="#F9893D" fill-opacity="0.5"/>
<path d="M841.464 723.308C833.483 723.308 827.182 721.208 822.141 716.588C817.1 711.967 815 705.666 815 696.425V679.623C815 670.802 817.52 664.501 822.141 659.881C826.762 655.26 833.483 653.16 841.464 653.16C849.446 653.16 855.747 655.26 860.787 659.881C865.408 664.501 867.929 671.222 867.929 679.623V696.425C867.929 705.246 865.408 711.967 860.787 716.588C855.747 721.208 849.446 723.308 841.464 723.308ZM841.464 712.387C846.085 712.387 849.866 711.127 851.966 708.607C854.066 706.086 855.327 702.306 855.327 697.265V679.203C855.327 674.163 854.066 670.382 851.546 667.862C849.026 665.342 845.665 664.081 841.464 664.081C836.844 664.081 833.483 665.342 830.963 667.862C828.442 670.382 827.182 674.163 827.182 678.783V696.845C827.182 701.886 828.442 705.666 830.543 708.187C833.063 711.127 836.844 712.387 841.464 712.387Z" fill="#F9893D" fill-opacity="0.5"/>
<path d="M841.464 824.959C833.483 824.959 827.182 822.858 822.141 818.238C817.1 813.617 815 807.317 815 798.076V781.274C815 772.453 817.52 766.152 822.141 761.531C826.762 756.911 833.483 754.811 841.464 754.811C849.446 754.811 855.747 756.911 860.787 761.531C865.408 766.152 867.929 772.873 867.929 781.274V798.076C867.929 806.897 865.408 813.617 860.787 818.238C855.747 822.858 849.446 824.959 841.464 824.959ZM841.464 814.037C846.085 814.037 849.866 812.777 851.966 810.257C854.066 807.737 855.327 803.956 855.327 798.916V780.854C855.327 775.813 854.066 772.033 851.546 769.512C849.026 766.992 845.665 765.732 841.464 765.732C836.844 765.732 833.483 766.992 830.963 769.512C828.442 772.033 827.182 775.813 827.182 780.434V798.496C827.182 803.536 828.442 807.317 830.543 809.837C833.063 812.777 836.844 814.037 841.464 814.037Z" fill="#F9893D" fill-opacity="0.5"/>
<path d="M844.405 924.931V866.544H842.725L833.483 887.966H820.461L834.323 857.303H856.587V924.931H844.405Z" fill="#F9893D" fill-opacity="0.5"/>
<path d="M841.464 1027.84C833.483 1027.84 827.182 1025.74 822.141 1021.12C817.1 1016.5 815 1010.2 815 1000.96V984.156C815 975.335 817.52 969.035 822.141 964.414C826.762 959.794 833.483 957.693 841.464 957.693C849.446 957.693 855.747 959.794 860.787 964.414C865.408 969.035 867.929 975.755 867.929 984.156V1000.96C867.929 1009.78 865.408 1016.5 860.787 1021.12C855.747 1025.74 849.446 1027.84 841.464 1027.84ZM841.464 1016.92C846.085 1016.92 849.866 1015.66 851.966 1013.14C854.066 1010.62 855.327 1006.84 855.327 1001.8V983.736C855.327 978.696 854.066 974.915 851.546 972.395C849.026 969.875 845.665 968.615 841.464 968.615C836.844 968.615 833.483 969.875 830.963 972.395C828.442 974.915 827.182 978.696 827.182 983.316V1001.38C827.182 1006.42 828.442 1010.2 830.543 1012.72C833.063 1015.66 836.844 1016.92 841.464 1016.92Z" fill="#F9893D" fill-opacity="0.5"/>
<path opacity="0.78" d="M844.405 1127.81V1069.43H842.725L833.483 1090.85H820.461L834.323 1060.19H856.587V1127.81H844.405Z" fill="#F9893D" fill-opacity="0.5"/>
<path opacity="0.78" d="M841.464 1230.73C833.483 1230.73 827.182 1228.63 822.141 1224.01C817.1 1219.38 815 1213.08 815 1203.84V1187.04C815 1178.22 817.52 1171.92 822.141 1167.3C826.762 1162.68 833.483 1160.58 841.464 1160.58C849.446 1160.58 855.747 1162.68 860.787 1167.3C865.408 1171.92 867.929 1178.64 867.929 1187.04V1203.84C867.929 1212.66 865.408 1219.38 860.787 1224.01C855.747 1228.63 849.446 1230.73 841.464 1230.73ZM841.464 1219.8C846.085 1219.8 849.866 1218.54 851.966 1216.02C854.066 1213.5 855.327 1209.72 855.327 1204.68V1186.62C855.327 1181.58 854.066 1177.8 851.546 1175.28C849.026 1172.76 845.665 1171.5 841.464 1171.5C836.844 1171.5 833.483 1172.76 830.963 1175.28C828.442 1177.8 827.182 1181.58 827.182 1186.2V1204.26C827.182 1209.3 828.442 1213.08 830.543 1215.6C833.063 1218.54 836.844 1219.8 841.464 1219.8Z" fill="#F9893D" fill-opacity="0.5"/>
<path opacity="0.78" d="M841.464 1331.96C833.483 1331.96 827.182 1329.86 822.141 1325.24C817.1 1320.62 815 1314.31 815 1305.07V1288.27C815 1279.45 817.52 1273.15 822.141 1268.53C826.762 1263.91 833.483 1261.81 841.464 1261.81C849.446 1261.81 855.747 1263.91 860.787 1268.53C865.408 1273.15 867.929 1279.87 867.929 1288.27V1305.07C867.929 1313.89 865.408 1320.62 860.787 1325.24C855.747 1329.86 849.446 1331.96 841.464 1331.96ZM841.464 1321.04C846.085 1321.04 849.866 1319.78 851.966 1317.26C854.066 1314.73 855.327 1310.95 855.327 1305.91V1287.85C855.327 1282.81 854.066 1279.03 851.546 1276.51C849.026 1273.99 845.665 1272.73 841.464 1272.73C836.844 1272.73 833.483 1273.99 830.963 1276.51C828.442 1279.03 827.182 1282.81 827.182 1287.43V1305.49C827.182 1310.53 828.442 1314.31 830.543 1316.83C833.063 1319.78 836.844 1321.04 841.464 1321.04Z" fill="#F9893D" fill-opacity="0.5"/>
<path d="M844.405 1432.35V1373.96H842.725L833.483 1395.38H820.461L834.323 1364.72H856.587V1432.35H844.405Z" fill="#F9893D" fill-opacity="0.5"/>
<path d="M841.464 1534.84C833.483 1534.84 827.182 1532.74 822.141 1528.12C817.1 1523.5 815 1517.2 815 1507.96V1491.16C815 1482.34 817.52 1476.03 822.141 1471.41C826.762 1466.79 833.483 1464.69 841.464 1464.69C849.446 1464.69 855.747 1466.79 860.787 1471.41C865.408 1476.03 867.929 1482.76 867.929 1491.16V1507.96C867.929 1516.78 865.408 1523.5 860.787 1528.12C855.747 1532.74 849.446 1534.84 841.464 1534.84ZM841.464 1523.92C846.085 1523.92 849.866 1522.66 851.966 1520.14C854.066 1517.62 855.327 1513.84 855.327 1508.8V1490.74C855.327 1485.7 854.066 1481.92 851.546 1479.4C849.026 1476.87 845.665 1475.61 841.464 1475.61C836.844 1475.61 833.483 1476.87 830.963 1479.4C828.442 1481.92 827.182 1485.7 827.182 1490.32V1508.38C827.182 1513.42 828.442 1517.2 830.543 1519.72C833.063 1522.66 836.844 1523.92 841.464 1523.92Z" fill="#F9893D" fill-opacity="0.5"/>
<path d="M844.405 1635.23V1576.85H842.725L833.483 1598.27H820.461L834.323 1567.61H856.587V1635.23H844.405Z" fill="#F9893D" fill-opacity="0.5"/>
<path d="M841.464 1737.72C833.483 1737.72 827.182 1735.62 822.141 1731C817.1 1726.38 815 1720.08 815 1710.84V1694.04C815 1685.22 817.52 1678.92 822.141 1674.3C826.762 1669.68 833.483 1667.58 841.464 1667.58C849.446 1667.58 855.747 1669.68 860.787 1674.3C865.408 1678.92 867.929 1685.64 867.929 1694.04V1710.84C867.929 1719.66 865.408 1726.38 860.787 1731C855.747 1735.62 849.446 1737.72 841.464 1737.72ZM841.464 1726.8C846.085 1726.8 849.866 1725.54 851.966 1723.02C854.066 1720.5 855.327 1716.72 855.327 1711.68V1693.62C855.327 1688.58 854.066 1684.8 851.546 1682.28C849.026 1679.76 845.665 1678.5 841.464 1678.5C836.844 1678.5 833.483 1679.76 830.963 1682.28C828.442 1684.8 827.182 1688.58 827.182 1693.2V1711.26C827.182 1716.3 828.442 1720.08 830.543 1722.6C833.063 1725.54 836.844 1726.8 841.464 1726.8Z" fill="#F9893D" fill-opacity="0.5"/>
<path d="M844.405 1838.12V1779.73H842.725L833.483 1801.15H820.461L834.323 1770.49H856.587V1838.12H844.405Z" fill="#F9893D" fill-opacity="0.5"/>
<path d="M841.464 1940.61C833.483 1940.61 827.182 1938.51 822.141 1933.89C817.1 1929.27 815 1922.97 815 1913.73V1896.92C815 1888.1 817.52 1881.8 822.141 1877.18C826.762 1872.56 833.483 1870.46 841.464 1870.46C849.446 1870.46 855.747 1872.56 860.787 1877.18C865.408 1881.8 867.929 1888.52 867.929 1896.92V1913.73C867.929 1922.55 865.408 1929.27 860.787 1933.89C855.747 1938.51 849.446 1940.61 841.464 1940.61ZM841.464 1929.69C846.085 1929.69 849.866 1928.43 851.966 1925.91C854.066 1923.39 855.327 1919.61 855.327 1914.57V1896.5C855.327 1891.46 854.066 1887.68 851.546 1885.16C849.026 1882.64 845.665 1881.38 841.464 1881.38C836.844 1881.38 833.483 1882.64 830.963 1885.16C828.442 1887.68 827.182 1891.46 827.182 1896.08V1914.15C827.182 1919.19 828.442 1922.97 830.543 1925.49C833.063 1928.43 836.844 1929.69 841.464 1929.69Z" fill="#F9893D" fill-opacity="0.5"/>
<path d="M844.405 2041V1982.61H842.725L833.483 2004.03H820.461L834.323 1973.37H856.587V2041H844.405Z" fill="#F9893D" fill-opacity="0.5"/>
</g>
<g opacity="0.18">
<path d="M835.312 2601.5C825.529 2601.5 817.806 2598.92 811.628 2593.26C805.964 2588.11 802.875 2579.88 802.875 2568.55V2547.95C802.875 2537.14 805.964 2529.42 811.628 2523.76C817.291 2518.09 825.529 2515.52 835.312 2515.52C845.094 2515.52 852.817 2518.09 858.996 2523.76C864.659 2529.42 867.749 2537.66 867.749 2547.95V2568.55C867.749 2579.36 864.659 2587.6 858.996 2593.26C853.332 2598.92 845.609 2601.5 835.312 2601.5ZM835.312 2588.11C840.975 2588.11 845.609 2586.57 848.184 2583.48C850.758 2580.39 852.302 2575.76 852.302 2569.58V2547.44C852.302 2541.26 850.758 2536.63 847.669 2533.54C844.579 2530.45 840.46 2528.91 835.312 2528.91C829.648 2528.91 825.529 2530.45 822.44 2533.54C819.351 2536.63 817.806 2541.26 817.806 2546.93V2569.06C817.806 2575.24 819.351 2579.88 821.925 2582.96C825.529 2586.57 829.648 2588.11 835.312 2588.11Z" fill="#F9893D" fill-opacity="0.5"/>
<path d="M839.426 2721.46V2649.89H837.366L826.039 2676.15H810.078L827.069 2638.57H854.357V2721.46H839.426Z" fill="#F9893D" fill-opacity="0.5"/>
<path d="M835.312 2844.51C825.529 2844.51 817.806 2841.93 811.628 2836.27C805.964 2830.61 802.875 2822.88 802.875 2811.56V2790.96C802.875 2780.15 805.964 2772.43 811.628 2766.77C817.291 2761.1 825.529 2758.53 835.312 2758.53C845.094 2758.53 852.817 2761.1 858.996 2766.77C864.659 2772.43 867.749 2780.67 867.749 2790.96V2811.56C867.749 2822.37 864.659 2830.61 858.996 2836.27C853.332 2841.42 845.609 2844.51 835.312 2844.51ZM835.312 2830.61C840.975 2830.61 845.609 2829.06 848.184 2825.97C850.758 2822.88 852.302 2818.25 852.302 2812.07V2789.93C852.302 2783.75 850.758 2779.12 847.669 2776.03C844.579 2772.94 840.46 2771.4 835.312 2771.4C829.648 2771.4 825.529 2772.94 822.44 2776.03C819.351 2779.12 817.806 2783.75 817.806 2789.42V2811.56C817.806 2817.73 819.351 2822.37 821.925 2825.46C825.529 2829.06 829.648 2830.61 835.312 2830.61Z" fill="#F9893D" fill-opacity="0.5"/>
<path d="M839.426 2963.95V2892.39H837.366L826.039 2918.64H810.078L827.069 2881.06H854.357V2963.95H839.426Z" fill="#F9893D" fill-opacity="0.5"/>
<path d="M835.312 3087C825.529 3087 817.806 3084.42 811.628 3078.76C805.964 3073.61 802.875 3065.38 802.875 3054.05V3033.45C802.875 3022.64 805.964 3014.92 811.628 3009.26C817.291 3003.59 825.529 3001.02 835.312 3001.02C845.094 3001.02 852.817 3003.59 858.996 3009.26C864.659 3014.92 867.749 3023.16 867.749 3033.45V3054.05C867.749 3064.86 864.659 3073.1 858.996 3078.76C853.332 3084.42 845.609 3087 835.312 3087ZM835.312 3073.61C840.975 3073.61 845.609 3072.07 848.184 3068.98C850.758 3065.89 852.302 3061.26 852.302 3055.08V3032.94C852.302 3026.76 850.758 3022.13 847.669 3019.04C844.579 3015.95 840.46 3014.41 835.312 3014.41C829.648 3014.41 825.529 3015.95 822.44 3019.04C819.351 3022.13 817.806 3026.76 817.806 3032.43V3054.56C817.806 3060.74 819.351 3065.38 821.925 3068.46C825.529 3072.07 829.648 3073.61 835.312 3073.61Z" fill="#F9893D" fill-opacity="0.5"/>
<path d="M839.426 3206.96V3135.4H837.366L826.039 3161.65H810.078L827.069 3124.07H854.357V3206.96H839.426Z" fill="#F9893D" fill-opacity="0.5"/>
</g>
<g opacity="0.18">
<path d="M670.437 2853.77C660.654 2853.77 652.931 2851.2 646.753 2845.53C640.574 2839.87 638 2832.15 638 2820.82V2800.23C638 2789.42 641.089 2781.69 646.753 2776.03C652.416 2770.37 660.654 2767.79 670.437 2767.79C680.219 2767.79 687.943 2770.37 694.121 2776.03C699.785 2781.69 702.874 2789.93 702.874 2800.23V2820.82C702.874 2831.63 699.785 2839.87 694.121 2845.53C687.943 2851.2 680.219 2853.77 670.437 2853.77ZM670.437 2840.39C676.101 2840.39 680.734 2838.84 683.309 2835.75C685.883 2832.66 687.428 2828.03 687.428 2821.85V2799.71C687.428 2793.54 685.883 2788.9 682.794 2785.81C679.705 2782.72 675.586 2781.18 670.437 2781.18C664.773 2781.18 660.654 2782.72 657.565 2785.81C654.476 2788.9 652.931 2793.54 652.931 2799.2V2821.34C652.931 2827.52 654.476 2832.15 657.05 2835.24C660.139 2838.84 664.258 2840.39 670.437 2840.39Z" fill="#F9893D" fill-opacity="0.5"/>
<path d="M674.043 2976.82V2905.26H671.983L660.656 2931.51H644.695L661.686 2893.93H688.974V2976.82H674.043Z" fill="#F9893D" fill-opacity="0.5"/>
<path d="M670.437 3102.44C660.654 3102.44 652.931 3099.87 646.753 3094.2C640.574 3088.54 638 3080.82 638 3069.49V3048.9C638 3038.09 641.089 3030.36 646.753 3024.7C652.416 3019.04 660.654 3016.46 670.437 3016.46C680.219 3016.46 687.943 3019.04 694.121 3024.7C699.785 3030.36 702.874 3038.6 702.874 3048.9V3069.49C702.874 3080.3 699.785 3088.54 694.121 3094.2C687.943 3099.87 680.219 3102.44 670.437 3102.44ZM670.437 3089.06C676.101 3089.06 680.734 3087.51 683.309 3084.42C685.883 3081.33 687.428 3076.7 687.428 3070.52V3048.38C687.428 3042.2 685.883 3037.57 682.794 3034.48C679.705 3031.39 675.586 3029.85 670.437 3029.85C664.773 3029.85 660.654 3031.39 657.565 3034.48C654.476 3037.57 652.931 3042.21 652.931 3047.87V3070.01C652.931 3076.18 654.476 3080.82 657.05 3083.91C660.139 3087.51 664.258 3089.06 670.437 3089.06Z" fill="#F9893D" fill-opacity="0.5"/>
<path d="M674.043 3225.49V3153.41H671.983L660.656 3179.67H644.695L661.686 3142.09H688.974V3225.49H674.043Z" fill="#F9893D" fill-opacity="0.5"/>
</g>
<g opacity="0.18">
<path d="M132.437 86.9792C122.654 86.9792 114.931 84.4051 108.753 78.7418C103.089 73.5933 100 65.3557 100 54.0291V33.4352C100 22.6235 103.089 14.9009 108.753 9.23757C114.416 3.57426 122.654 1 132.437 1C142.219 1 149.942 3.57426 156.121 9.23757C161.784 14.9009 164.874 23.1383 164.874 33.4352V54.0291C164.874 64.8409 161.784 73.0785 156.121 78.7418C150.457 84.4051 142.734 86.9792 132.437 86.9792ZM132.437 73.5933C138.1 73.5933 142.734 72.0487 145.309 68.9596C147.883 65.8705 149.427 61.237 149.427 55.0588V32.9204C149.427 26.7422 147.883 22.1087 144.794 19.0196C141.704 15.9305 137.585 14.386 132.437 14.386C126.773 14.386 122.654 15.9305 119.565 19.0196C116.476 22.1087 114.931 26.7423 114.931 32.4056V54.544C114.931 60.7221 116.476 65.3558 119.05 68.4449C122.654 72.0488 126.773 73.5933 132.437 73.5933Z" fill="#F9893D" fill-opacity="0.5"/>
<path d="M136.551 206.937V135.374H134.491L123.164 161.631H107.203L124.194 124.047H151.482V206.937H136.551Z" fill="#F9893D" fill-opacity="0.5"/>
<path d="M132.437 329.987C122.654 329.987 114.931 327.413 108.753 321.75C103.089 316.086 100 308.364 100 297.037V276.443C100 265.631 103.089 257.909 108.753 252.246C114.416 246.582 122.654 244.008 132.437 244.008C142.219 244.008 149.942 246.582 156.121 252.246C161.784 257.909 164.874 266.146 164.874 276.443V297.037C164.874 307.849 161.784 316.086 156.121 321.75C150.457 326.898 142.734 329.987 132.437 329.987ZM132.437 316.086C138.1 316.086 142.734 314.542 145.309 311.453C147.883 308.364 149.427 303.73 149.427 297.552V275.414C149.427 269.235 147.883 264.602 144.794 261.513C141.704 258.424 137.585 256.879 132.437 256.879C126.773 256.879 122.654 258.424 119.565 261.513C116.476 264.602 114.931 269.235 114.931 274.899V297.037C114.931 303.215 116.476 307.849 119.05 310.938C122.654 314.542 126.773 316.086 132.437 316.086Z" fill="#F9893D" fill-opacity="0.5"/>
<path d="M136.551 449.431V377.868H134.491L123.164 404.125H107.203L124.194 366.541H151.482V449.431H136.551Z" fill="#F9893D" fill-opacity="0.5"/>
<path d="M132.437 572.479C122.654 572.479 114.931 569.905 108.753 564.242C103.089 559.093 100 550.856 100 539.529V518.935C100 508.123 103.089 500.401 108.753 494.737C114.416 489.074 122.654 486.5 132.437 486.5C142.219 486.5 149.942 489.074 156.121 494.737C161.784 500.401 164.874 508.638 164.874 518.935V539.529C164.874 550.341 161.784 558.578 156.121 564.242C150.457 569.905 142.734 572.479 132.437 572.479ZM132.437 559.093C138.1 559.093 142.734 557.549 145.309 554.459C147.883 551.37 149.427 546.737 149.427 540.559V518.42C149.427 512.242 147.883 507.609 144.794 504.52C141.704 501.431 137.585 499.886 132.437 499.886C126.773 499.886 122.654 501.431 119.565 504.52C116.476 507.609 114.931 512.242 114.931 517.905V540.044C114.931 546.222 116.476 550.856 119.05 553.945C122.654 557.549 126.773 559.093 132.437 559.093Z" fill="#F9893D" fill-opacity="0.5"/>
<path d="M136.551 692.439V620.876H134.491L123.164 647.133H107.203L124.194 609.549H151.482V692.439H136.551Z" fill="#F9893D" fill-opacity="0.5"/>
<path d="M132.437 815.487C122.654 815.487 114.931 812.913 108.753 807.25C103.089 802.101 100 793.864 100 782.537V761.943C100 751.132 103.089 743.409 108.753 737.746C114.416 732.082 122.654 729.508 132.437 729.508C142.219 729.508 149.942 732.082 156.121 737.746C161.784 743.409 164.874 751.646 164.874 761.943V782.537C164.874 793.349 161.784 801.586 156.121 807.25C150.457 812.398 142.734 815.487 132.437 815.487ZM132.437 801.586C138.1 801.586 142.734 800.042 145.309 796.953C147.883 793.864 149.427 789.23 149.427 783.052V760.914C149.427 754.735 147.883 750.102 144.794 747.013C141.704 743.924 137.585 742.379 132.437 742.379C126.773 742.379 122.654 743.924 119.565 747.013C116.476 750.102 114.931 754.735 114.931 760.399V782.537C114.931 788.715 116.476 793.349 119.05 796.438C122.654 800.042 126.773 801.586 132.437 801.586Z" fill="#F9893D" fill-opacity="0.5"/>
<path d="M136.551 934.931V863.367H134.491L123.164 889.625H107.203L124.194 852.041H151.482V934.931H136.551Z" fill="#F9893D" fill-opacity="0.5"/>
<path d="M132.437 1057.98C122.654 1057.98 114.931 1055.4 108.753 1049.74C103.089 1044.08 100 1036.36 100 1025.03V1004.44C100 993.623 103.089 985.901 108.753 980.237C114.416 974.574 122.654 972 132.437 972C142.219 972 149.942 974.574 156.121 980.237C161.784 985.901 164.874 994.138 164.874 1004.44V1025.03C164.874 1035.84 161.784 1044.08 156.121 1049.74C150.457 1055.4 142.734 1057.98 132.437 1057.98ZM132.437 1044.59C138.1 1044.59 142.734 1043.05 145.309 1039.96C147.883 1036.87 149.427 1032.24 149.427 1026.06V1003.92C149.427 997.742 147.883 993.109 144.794 990.02C141.704 986.931 137.585 985.386 132.437 985.386C126.773 985.386 122.654 986.931 119.565 990.02C116.476 993.109 114.931 997.742 114.931 1003.41V1025.54C114.931 1031.72 116.476 1036.36 119.05 1039.44C122.654 1043.05 126.773 1044.59 132.437 1044.59Z" fill="#F9893D" fill-opacity="0.5"/>
<path d="M136.551 1177.94V1106.37H134.491L123.164 1132.63H107.203L124.194 1095.05H151.482V1177.94H136.551Z" fill="#F9893D" fill-opacity="0.5"/>
<path d="M132.437 1300.99C122.654 1300.99 114.931 1298.41 108.753 1292.75C103.089 1287.6 100 1279.36 100 1268.04V1247.44C100 1236.63 103.089 1228.91 108.753 1223.25C114.416 1217.58 122.654 1215.01 132.437 1215.01C142.219 1215.01 149.942 1217.58 156.121 1223.25C161.784 1228.91 164.874 1237.15 164.874 1247.44V1268.04C164.874 1278.85 161.784 1287.09 156.121 1292.75C150.457 1297.9 142.734 1300.99 132.437 1300.99ZM132.437 1287.09C138.1 1287.09 142.734 1285.54 145.309 1282.45C147.883 1279.36 149.427 1274.73 149.427 1268.55V1246.41C149.427 1240.24 147.883 1235.6 144.794 1232.51C141.704 1229.42 137.585 1227.88 132.437 1227.88C126.773 1227.88 122.654 1229.42 119.565 1232.51C116.476 1235.6 114.931 1240.24 114.931 1245.9V1268.04C114.931 1274.22 116.476 1278.85 119.05 1281.94C122.654 1285.54 126.773 1287.09 132.437 1287.09Z" fill="#F9893D" fill-opacity="0.5"/>
<path d="M136.551 1420.43V1348.87H134.491L123.164 1375.12H107.203L124.194 1337.54H151.482V1420.43H136.551Z" fill="#F9893D" fill-opacity="0.5"/>
<path d="M136.551 1541.94V1470.37H134.491L123.164 1496.63H107.203L124.194 1459.04H151.482V1541.94H136.551Z" fill="#F9893D" fill-opacity="0.5"/>
<path d="M136.551 1663.44V1591.36H134.491L123.164 1617.62H107.203L124.194 1580.03H151.482V1663.44H136.551Z" fill="#F9893D" fill-opacity="0.5"/>
<path d="M132.437 1786.49C122.654 1786.49 114.931 1783.91 108.753 1778.25C103.089 1773.1 100 1764.86 100 1753.54V1732.94C100 1722.13 103.089 1714.41 108.753 1708.75C114.416 1703.08 122.654 1700.51 132.437 1700.51C142.219 1700.51 149.942 1703.08 156.121 1708.75C161.784 1714.41 164.874 1722.65 164.874 1732.94V1753.54C164.874 1764.35 161.784 1772.59 156.121 1778.25C150.457 1783.4 142.734 1786.49 132.437 1786.49ZM132.437 1772.59C138.1 1772.59 142.734 1771.04 145.309 1767.95C147.883 1764.86 149.427 1760.23 149.427 1754.05V1731.91C149.427 1725.74 147.883 1721.1 144.794 1718.01C141.704 1714.92 137.585 1713.38 132.437 1713.38C126.773 1713.38 122.654 1714.92 119.565 1718.01C116.476 1721.1 114.931 1725.74 114.931 1731.4V1753.54C114.931 1759.72 116.476 1764.35 119.05 1767.44C122.654 1771.04 126.773 1772.59 132.437 1772.59Z" fill="#F9893D" fill-opacity="0.5"/>
<path d="M132.437 1907.48C122.654 1907.48 114.931 1904.9 108.753 1899.24C103.089 1894.09 100 1885.85 100 1874.53V1853.93C100 1843.12 103.089 1835.4 108.753 1829.73C114.416 1824.07 122.654 1821.5 132.437 1821.5C142.219 1821.5 149.942 1824.07 156.121 1829.73C161.784 1835.4 164.874 1843.63 164.874 1853.93V1874.53C164.874 1885.34 161.784 1893.57 156.121 1899.24C150.457 1904.9 142.734 1907.48 132.437 1907.48ZM132.437 1894.09C138.1 1894.09 142.734 1892.54 145.309 1889.46C147.883 1886.37 149.427 1881.73 149.427 1875.55V1853.42C149.427 1847.24 147.883 1842.6 144.794 1839.52C141.704 1836.43 137.585 1834.88 132.437 1834.88C126.773 1834.88 122.654 1836.43 119.565 1839.52C116.476 1842.6 114.931 1847.24 114.931 1852.9V1875.04C114.931 1881.22 116.476 1885.85 119.05 1888.94C122.654 1892.54 126.773 1894.09 132.437 1894.09Z" fill="#F9893D" fill-opacity="0.5"/>
<path d="M136.551 2027.44V1955.87H134.491L123.164 1982.13H107.203L124.194 1944.54H151.482V2027.44H136.551Z" fill="#F9893D" fill-opacity="0.5"/>
<path d="M132.437 2150.48C122.654 2150.48 114.931 2147.91 108.753 2142.25C103.089 2136.58 100 2128.86 100 2117.53V2096.94C100 2086.13 103.089 2078.4 108.753 2072.74C114.416 2067.08 122.654 2064.5 132.437 2064.5C142.219 2064.5 149.942 2067.08 156.121 2072.74C161.784 2078.4 164.874 2086.64 164.874 2096.94V2117.53C164.874 2128.34 161.784 2136.58 156.121 2142.25C150.457 2147.91 142.734 2150.48 132.437 2150.48ZM132.437 2137.1C138.1 2137.1 142.734 2135.55 145.309 2132.46C147.883 2129.37 149.427 2124.74 149.427 2118.56V2096.42C149.427 2090.25 147.883 2085.61 144.794 2082.52C141.704 2079.43 137.585 2077.89 132.437 2077.89C126.773 2077.89 122.654 2079.43 119.565 2082.52C116.476 2085.61 114.931 2090.25 114.931 2095.91V2118.05C114.931 2124.23 116.476 2128.86 119.05 2131.95C122.654 2135.55 126.773 2137.1 132.437 2137.1Z" fill="#F9893D" fill-opacity="0.5"/>
<path opacity="0.78" d="M136.551 2269.93V2198.36H134.491L123.164 2224.62H107.203L124.194 2187.04H151.482V2269.93H136.551Z" fill="#F9893D" fill-opacity="0.5"/>
<path opacity="0.78" d="M132.437 2392.98C122.654 2392.98 114.931 2390.4 108.753 2384.74C103.089 2379.59 100 2371.35 100 2360.03V2339.43C100 2328.62 103.089 2320.9 108.753 2315.23C114.416 2309.57 122.654 2307 132.437 2307C142.219 2307 149.942 2309.57 156.121 2315.23C161.784 2320.9 164.874 2329.13 164.874 2339.43V2360.03C164.874 2370.84 161.784 2379.07 156.121 2384.74C150.457 2390.4 142.734 2392.98 132.437 2392.98ZM132.437 2379.59C138.1 2379.59 142.734 2378.04 145.309 2374.96C147.883 2371.87 149.427 2367.23 149.427 2361.05V2338.92C149.427 2332.74 147.883 2328.1 144.794 2325.02C141.704 2321.93 137.585 2320.38 132.437 2320.38C126.773 2320.38 122.654 2321.93 119.565 2325.02C116.476 2328.1 114.931 2332.74 114.931 2338.4V2360.54C114.931 2366.72 116.476 2371.35 119.05 2374.44C122.654 2378.04 126.773 2379.59 132.437 2379.59Z" fill="#F9893D" fill-opacity="0.5"/>
<path opacity="0.78" d="M132.437 2514.48C122.654 2514.48 114.931 2511.91 108.753 2506.24C103.089 2501.09 100 2492.86 100 2481.53V2460.94C100 2450.12 103.089 2442.4 108.753 2436.74C114.416 2431.07 122.654 2428.5 132.437 2428.5C142.219 2428.5 149.942 2431.07 156.121 2436.74C161.784 2442.4 164.874 2450.64 164.874 2460.94V2481.53C164.874 2492.34 161.784 2500.58 156.121 2506.24C150.457 2511.91 142.734 2514.48 132.437 2514.48ZM132.437 2501.09C138.1 2501.09 142.734 2499.55 145.309 2496.46C147.883 2493.37 149.427 2488.74 149.427 2482.56V2460.42C149.427 2454.24 147.883 2449.61 144.794 2446.52C141.704 2443.43 137.585 2441.89 132.437 2441.89C126.773 2441.89 122.654 2443.43 119.565 2446.52C116.476 2449.61 114.931 2454.24 114.931 2459.91V2482.04C114.931 2488.22 116.476 2492.86 119.05 2495.95C122.654 2499.55 126.773 2501.09 132.437 2501.09Z" fill="#F9893D" fill-opacity="0.5"/>
<path opacity="0.78" d="M136.551 2634.44V2562.87H134.491L123.164 2589.13H107.203L124.194 2551.55H151.482V2634.44H136.551Z" fill="#F9893D" fill-opacity="0.5"/>
<path opacity="0.78" d="M132.437 2757.49C122.654 2757.49 114.931 2754.91 108.753 2749.25C103.089 2743.58 100 2735.86 100 2724.53V2703.94C100 2693.13 103.089 2685.41 108.753 2679.74C114.416 2674.08 122.654 2671.51 132.437 2671.51C142.219 2671.51 149.942 2674.08 156.121 2679.74C161.784 2685.41 164.874 2693.64 164.874 2703.94V2724.53C164.874 2735.35 161.784 2743.58 156.121 2749.25C150.457 2754.4 142.734 2757.49 132.437 2757.49ZM132.437 2743.58C138.1 2743.58 142.734 2742.04 145.309 2738.95C147.883 2735.86 149.427 2731.23 149.427 2725.05V2702.91C149.427 2696.73 147.883 2692.1 144.794 2689.01C141.704 2685.92 137.585 2684.38 132.437 2684.38C126.773 2684.38 122.654 2685.92 119.565 2689.01C116.476 2692.1 114.931 2696.73 114.931 2702.4V2724.53C114.931 2730.71 116.476 2735.35 119.05 2738.44C122.654 2742.04 126.773 2743.58 132.437 2743.58Z" fill="#F9893D" fill-opacity="0.5"/>
<path opacity="0.78" d="M136.551 2876.93V2805.37H134.491L123.164 2831.63H107.203L124.194 2794.04H151.482V2876.93H136.551Z" fill="#F9893D" fill-opacity="0.5"/>
<path opacity="0.78" d="M132.437 2999.98C122.654 2999.98 114.931 2997.4 108.753 2991.74C103.089 2986.59 100 2978.36 100 2967.03V2946.43C100 2935.62 103.089 2927.9 108.753 2922.24C114.416 2916.57 122.654 2914 132.437 2914C142.219 2914 149.942 2916.57 156.121 2922.24C161.784 2927.9 164.874 2936.14 164.874 2946.43V2967.03C164.874 2977.84 161.784 2986.08 156.121 2991.74C150.457 2997.4 142.734 2999.98 132.437 2999.98ZM132.437 2986.59C138.1 2986.59 142.734 2985.05 145.309 2981.96C147.883 2978.87 149.427 2974.24 149.427 2968.06V2945.92C149.427 2939.74 147.883 2935.11 144.794 2932.02C141.704 2928.93 137.585 2927.39 132.437 2927.39C126.773 2927.39 122.654 2928.93 119.565 2932.02C116.476 2935.11 114.931 2939.74 114.931 2945.41V2967.54C114.931 2973.72 116.476 2978.36 119.05 2981.44C122.654 2985.05 126.773 2986.59 132.437 2986.59Z" fill="#F9893D" fill-opacity="0.5"/>
<path opacity="0.78" d="M136.551 3119.94V3048.38H134.491L123.164 3074.63H107.203L124.194 3037.05H151.482V3119.94H136.551Z" fill="#F9893D" fill-opacity="0.5"/>
<path opacity="0.78" d="M132.437 3242.99C122.654 3242.99 114.931 3240.41 108.753 3234.75C103.089 3229.6 100 3221.36 100 3210.04V3189.44C100 3178.63 103.089 3170.91 108.753 3165.25C114.416 3159.58 122.654 3157.01 132.437 3157.01C142.219 3157.01 149.942 3159.58 156.121 3165.25C161.784 3170.91 164.874 3179.15 164.874 3189.44V3210.04C164.874 3220.85 161.784 3229.09 156.121 3234.75C150.457 3239.9 142.734 3242.99 132.437 3242.99ZM132.437 3229.09C138.1 3229.09 142.734 3227.54 145.309 3224.45C147.883 3221.36 149.427 3216.73 149.427 3210.55V3188.41C149.427 3182.24 147.883 3177.6 144.794 3174.51C141.704 3171.42 137.585 3169.88 132.437 3169.88C126.773 3169.88 122.654 3171.42 119.565 3174.51C116.476 3177.6 114.931 3182.24 114.931 3187.9V3210.04C114.931 3216.22 116.476 3220.85 119.05 3223.94C122.654 3227.54 126.773 3229.09 132.437 3229.09Z" fill="#F9893D" fill-opacity="0.5"/>
</g>
</g>
<defs>
<clipPath id="clip0_146_8750">
<rect width="968" height="3243" fill="white" transform="translate(0 1)"/>
</clipPath>
</defs>
</svg>
