<svg width="204" height="118" viewBox="0 0 204 118" fill="none" xmlns="http://www.w3.org/2000/svg">
<path d="M4.04671 10.6315C1.21265 9.82887 -0.434131 6.88076 0.368501 4.04671C1.17113 1.21265 4.11924 -0.434142 6.9533 0.368493C9.78736 1.17113 11.4341 4.11924 10.6315 6.95329C9.82888 9.78735 6.88077 11.4341 4.04671 10.6315ZM153.643 10.1529L152.735 10.5713L153.643 10.1529ZM146.377 5.5L146.377 4.5L146.377 5.5ZM202.092 117.717L152.735 10.5713L154.552 9.73448L203.908 116.881L202.092 117.717ZM146.377 6.5L5.5 6.5L5.50001 4.5L146.377 4.5L146.377 6.5ZM152.735 10.5713C151.592 8.08968 149.109 6.5 146.377 6.5L146.377 4.5C149.89 4.5 153.082 6.54388 154.552 9.73448L152.735 10.5713Z" fill="#D6B88D"/>
</svg>
