<svg width="181" height="124" viewBox="0 0 181 124" fill="none" xmlns="http://www.w3.org/2000/svg">
<path d="M0.666667 6C0.666667 8.94552 3.05448 11.3333 6 11.3333C8.94552 11.3333 11.3333 8.94552 11.3333 6C11.3333 3.05448 8.94552 0.666667 6 0.666667C3.05448 0.666667 0.666667 3.05448 0.666667 6ZM127.149 10.6338L126.242 11.0546L127.149 10.6338ZM6 7H119.892V5H6V7ZM126.242 11.0546L178.593 123.921L180.407 123.079L128.056 10.2131L126.242 11.0546ZM119.892 7C122.618 7 125.095 8.58205 126.242 11.0546L128.056 10.2131C126.582 7.03406 123.396 5 119.892 5V7Z" fill="#D6B88D"/>
</svg>
