<svg width="157" height="119" viewBox="0 0 157 119" fill="none" xmlns="http://www.w3.org/2000/svg">
<path d="M147.581 108.961C145.32 110.849 145.018 114.212 146.906 116.473C148.794 118.734 152.158 119.036 154.418 117.148C156.679 115.26 156.981 111.896 155.093 109.636C153.205 107.375 149.842 107.073 147.581 108.961ZM77.6073 109.664L76.79 110.241L77.6073 109.664ZM84.1459 113.055L84.1459 112.055L84.1459 113.055ZM0.18256 1.57565L76.79 110.241L78.4246 109.088L1.81718 0.423258L0.18256 1.57565ZM84.1459 114.055L151 114.054L151 112.054L84.1459 112.055L84.1459 114.055ZM76.79 110.241C78.4761 112.632 81.2196 114.055 84.1459 114.055L84.1459 112.055C81.8699 112.055 79.736 110.948 78.4246 109.088L76.79 110.241Z" fill="#D6B88D"/>
</svg>
