<svg width="339" height="52" viewBox="0 0 339 52" fill="none" xmlns="http://www.w3.org/2000/svg">
<path d="M328.577 8.051C329.71 10.7699 332.833 12.0557 335.552 10.9228C338.27 9.7899 339.556 6.66737 338.423 3.94843C337.29 1.22949 334.168 -0.0562574 331.449 1.07664C328.73 2.20953 327.444 5.33206 328.577 8.051ZM61.9274 7.46091L61.3513 6.64353L61.9274 7.46091ZM66.5361 6L66.5361 7L66.5361 6ZM1.38316 51.3556L62.5035 8.2783L61.3513 6.64353L0.23098 49.7209L1.38316 51.3556ZM66.5361 7L333.5 6.99972L333.5 4.99971L66.5361 5L66.5361 7ZM62.5035 8.2783C63.6837 7.44649 65.0922 7 66.5361 7L66.5361 5C64.6797 5 62.8687 5.57407 61.3513 6.64353L62.5035 8.2783Z" fill="#D6B88D"/>
</svg>
