<svg width="370" height="79" viewBox="0 0 370 79" fill="none" xmlns="http://www.w3.org/2000/svg">
<path d="M9.97984 70.339C8.3815 67.8649 5.0801 67.1549 2.60595 68.7532C0.1318 70.3516 -0.578188 73.653 1.02016 76.1271C2.6185 78.6013 5.9199 79.3112 8.39405 77.7129C10.8682 76.1146 11.5782 72.8132 9.97984 70.339ZM253.678 73.2331L253.678 72.2331L253.678 73.2331ZM368.736 0.575354L257.426 71.145L258.497 72.8342L369.807 2.26449L368.736 0.575354ZM253.678 72.2331L5.5 72.2331L5.5 74.2331L253.678 74.2331L253.678 72.2331ZM257.426 71.145C256.305 71.8557 255.005 72.2331 253.678 72.2331L253.678 74.2331C255.384 74.2331 257.056 73.7479 258.497 72.8342L257.426 71.145Z" fill="#D6B88D"/>
</svg>
