<svg width="333" height="102" viewBox="0 0 333 102" fill="none" xmlns="http://www.w3.org/2000/svg">
<path d="M323.582 91.9092C321.321 93.7973 321.019 97.1607 322.907 99.4214C324.795 101.682 328.159 101.984 330.419 100.096C332.68 98.2081 332.982 94.8447 331.094 92.584C329.206 90.3232 325.843 90.0211 323.582 91.9092ZM79.6063 93.1931L78.8453 93.8419L79.6063 93.1931ZM85.6939 96.0026L85.6939 95.0026L85.6939 96.0026ZM0.239512 1.64892L78.8453 93.8419L80.3672 92.5443L1.76143 0.351298L0.239512 1.64892ZM85.6939 97.0026L327.001 97.0027L327.001 95.0027L85.6939 95.0026L85.6939 97.0026ZM78.8453 93.8419C80.5553 95.8474 83.0584 97.0026 85.6939 97.0026L85.6939 95.0026C83.6441 95.0026 81.6972 94.1041 80.3672 92.5443L78.8453 93.8419Z" fill="#D6B88D"/>
</svg>
