<svg width="206" height="150" viewBox="0 0 206 150" fill="none" xmlns="http://www.w3.org/2000/svg">
<path d="M199.842 138.669C202.786 138.582 205.244 140.898 205.331 143.842C205.418 146.786 203.102 149.244 200.158 149.331C197.214 149.418 194.756 147.102 194.669 144.158C194.582 141.214 196.898 138.756 199.842 138.669ZM54.0265 138.875L53.0932 139.234L54.0265 138.875ZM1.93321 0.80643L54.9597 138.515L53.0932 139.234L0.066794 1.52511L1.93321 0.80643ZM61.4921 143L200 143L200 145L61.4921 145L61.4921 143ZM54.9597 138.515C56.0001 141.217 58.5967 143 61.4921 143L61.4921 145C57.7694 145 54.431 142.708 53.0932 139.234L54.9597 138.515Z" fill="#D6B88D"/>
</svg>
