<svg width="116" height="100" viewBox="0 0 116 100" fill="none" xmlns="http://www.w3.org/2000/svg">
<path d="M29.1876 0.5L86.4089 0.5L115.019 50L86.4089 99.5H29.1876L0.577509 50L29.1876 0.5Z" fill="#181818" stroke="#D6B88D"/>
<circle cx="58" cy="50" r="42" fill="#1A1A1A"/>
<g clip-path="url(#clip0_121_1880)">
<path fill-rule="evenodd" clip-rule="evenodd" d="M76.3265 55.2806H85.2251C85.9356 55.282 86.6166 55.5563 87.119 56.0435C87.6214 56.5306 87.9043 57.1909 87.9058 57.8799V73.7356C87.9043 74.4246 87.6214 75.085 87.119 75.5721C86.6166 76.0593 85.9356 76.3336 85.2251 76.335H84.2871V77.3885C84.2855 78.0774 84.0025 78.7376 83.5001 79.2246C82.9977 79.7117 82.3168 79.9859 81.6064 79.9874H55.1502C54.4397 79.9859 53.7587 79.7115 53.2563 79.2244C52.754 78.7372 52.4711 78.0769 52.4695 77.3879V75.2686H30.4912C30.274 75.2686 30.0658 75.1849 29.9123 75.036C29.7587 74.8872 29.6724 74.6852 29.6724 74.4747V71.2996C29.6724 71.089 29.7587 70.8871 29.9123 70.7382C30.0658 70.5893 30.274 70.5056 30.4912 70.5056H34.0502V68.1267C34.0502 68.0224 34.0713 67.9192 34.1125 67.8228C34.1536 67.7265 34.2139 67.639 34.2899 67.5652C34.3659 67.4915 34.4562 67.433 34.5555 67.3931C34.6548 67.3532 34.7613 67.3326 34.8688 67.3326H36.2275L36.5823 44.4757H36.3753C36.1581 44.4757 35.9498 44.3921 35.7963 44.2432C35.6427 44.0943 35.5564 43.8923 35.5564 43.6818V40.9397H29.2288C29.1213 40.9397 29.0148 40.9191 28.9155 40.8792C28.8162 40.8393 28.7259 40.7808 28.6499 40.7071C28.5739 40.6334 28.5136 40.5459 28.4724 40.4495C28.4313 40.3532 28.4101 40.25 28.4102 40.1457V36.6635C28.4101 36.5592 28.4313 36.456 28.4724 36.3597C28.5136 36.2633 28.5739 36.1758 28.6499 36.1021C28.7259 36.0283 28.8162 35.9699 28.9155 35.93C29.0148 35.8901 29.1213 35.8695 29.2288 35.8695H32.8633L55.8988 20.4685C56.0374 20.3757 56.2021 20.3268 56.3705 20.3283C56.5389 20.3299 56.7027 20.3819 56.8394 20.4772L79.7934 35.8239C79.8147 35.8381 79.8353 35.8533 79.855 35.8695H83.4967C83.6042 35.8695 83.7107 35.89 83.8101 35.9299C83.9094 35.9698 83.9997 36.0283 84.0757 36.102C84.1518 36.1757 84.2121 36.2633 84.2533 36.3596C84.2944 36.4559 84.3156 36.5592 84.3156 36.6635V40.1457C84.3156 40.25 84.2944 40.3532 84.2533 40.4496C84.2121 40.5459 84.1518 40.6334 84.0757 40.7072C83.9997 40.7809 83.9094 40.8394 83.8101 40.8793C83.7107 40.9192 83.6042 40.9397 83.4967 40.9397H77.1688V43.6824C77.1688 43.8929 77.0825 44.0949 76.9289 44.2438C76.7754 44.3927 76.5671 44.4763 76.35 44.4763H76.1162L76.3265 55.2806ZM52.4695 67.2506C52.4695 59.6224 52.6224 52.0251 52.7437 44.3937H52.5366C52.429 44.3937 52.3225 44.3731 52.2232 44.3332C52.1238 44.2933 52.0336 44.2348 51.9575 44.1611C51.8815 44.0874 51.8212 43.9998 51.78 43.9035C51.7389 43.8071 51.7177 43.7039 51.7177 43.5996V40.8571H44.8464V43.6001C44.8464 43.8107 44.7601 44.0126 44.6065 44.1616C44.4529 44.3105 44.2447 44.3941 44.0275 44.3942H43.82L44.1749 67.2511H45.5335C45.7507 67.2511 45.9589 67.3347 46.1125 67.4836C46.266 67.6325 46.3523 67.8345 46.3523 68.045V70.4241H50.2114V68.0445C50.2114 67.9403 50.2325 67.837 50.2737 67.7407C50.3148 67.6444 50.3751 67.5569 50.4511 67.4831C50.5271 67.4094 50.6174 67.3509 50.7167 67.311C50.816 67.2711 50.9225 67.2506 51.03 67.2506H52.4695ZM60.1491 55.1981H68.8582L68.9109 44.3942H68.6979C68.4807 44.3941 68.2724 44.3105 68.1189 44.1616C67.9653 44.0126 67.879 43.8107 67.879 43.6001V40.8571H61.0077V43.6001C61.0077 43.8107 60.9214 44.0126 60.7678 44.1616C60.6143 44.3105 60.406 44.3941 60.1888 44.3942H59.9813L60.1491 55.1981Z" fill="#F96B31"/>
<path fill-rule="evenodd" clip-rule="evenodd" d="M82.6495 61.4505C82.648 61.1826 82.5376 60.9262 82.3423 60.7368C82.147 60.5474 81.8825 60.4404 81.6062 60.439H55.15C54.8738 60.4404 54.6093 60.5474 54.414 60.7368C54.2187 60.9262 54.1084 61.1827 54.1069 61.4505V77.3054C54.1083 77.5732 54.2187 77.8297 54.414 78.0191C54.6093 78.2086 54.8738 78.3156 55.15 78.317H81.6062C81.8825 78.3156 82.147 78.2086 82.3423 78.0192C82.5377 77.8298 82.648 77.5733 82.6495 77.3054V61.4505ZM67.1612 75.2271C66.944 75.2271 66.7358 75.1435 66.5822 74.9946C66.4287 74.8457 66.3424 74.6438 66.3424 74.4332C66.3424 74.2226 66.4287 74.0207 66.5822 73.8718C66.7358 73.7229 66.944 73.6392 67.1612 73.6392H69.5949C69.8121 73.6392 70.0204 73.7229 70.1739 73.8718C70.3275 74.0207 70.4137 74.2226 70.4137 74.4332C70.4137 74.6438 70.3275 74.8457 70.1739 74.9946C70.0204 75.1435 69.8121 75.2271 69.5949 75.2271H67.1612ZM72.3153 75.2271C72.0982 75.2271 71.8899 75.1435 71.7363 74.9946C71.5828 74.8457 71.4965 74.6438 71.4965 74.4332C71.4965 74.2226 71.5828 74.0207 71.7363 73.8718C71.8899 73.7229 72.0982 73.6392 72.3153 73.6392H74.7492C74.9664 73.6392 75.1746 73.7229 75.3282 73.8718C75.4817 74.0207 75.568 74.2226 75.568 74.4332C75.568 74.6438 75.4817 74.8457 75.3282 74.9946C75.1746 75.1435 74.9664 75.2271 74.7492 75.2271H72.3153ZM77.4694 75.2271C77.2523 75.2271 77.044 75.1435 76.8905 74.9946C76.7369 74.8457 76.6507 74.6438 76.6507 74.4332C76.6507 74.2226 76.7369 74.0207 76.8905 73.8718C77.044 73.7229 77.2523 73.6392 77.4694 73.6392H79.9032C80.1204 73.6392 80.3286 73.7229 80.4822 73.8718C80.6357 74.0207 80.722 74.2226 80.722 74.4332C80.722 74.6438 80.6357 74.8457 80.4822 74.9946C80.3286 75.1435 80.1204 75.2271 79.9032 75.2271H77.4694ZM62.0071 75.2271C61.7899 75.2271 61.5816 75.1435 61.4281 74.9946C61.2745 74.8457 61.1883 74.6438 61.1883 74.4332C61.1883 74.2226 61.2745 74.0207 61.4281 73.8718C61.5816 73.7229 61.7899 73.6392 62.0071 73.6392H64.441C64.6581 73.6392 64.8664 73.7229 65.0199 73.8718C65.1735 74.0207 65.2597 74.2226 65.2597 74.4332C65.2597 74.6438 65.1735 74.8457 65.0199 74.9946C64.8664 75.1435 64.6581 75.2271 64.441 75.2271H62.0071ZM56.8531 75.2271C56.6359 75.2271 56.4276 75.1435 56.2741 74.9946C56.1205 74.8457 56.0343 74.6438 56.0343 74.4332C56.0343 74.2226 56.1205 74.0207 56.2741 73.8718C56.4276 73.7229 56.6359 73.6392 56.8531 73.6392H59.2871C59.5042 73.6392 59.7125 73.7229 59.866 73.8718C60.0196 74.0207 60.1059 74.2226 60.1059 74.4332C60.1059 74.6438 60.0196 74.8457 59.866 74.9946C59.7125 75.1435 59.5042 75.2271 59.2871 75.2271H56.8531ZM65.0466 66.3448C64.9382 66.3461 64.8306 66.3265 64.7301 66.2872C64.6295 66.2479 64.538 66.1896 64.4609 66.1158C64.3838 66.0419 64.3225 65.9539 64.2807 65.8569C64.2389 65.7599 64.2174 65.6559 64.2174 65.5508C64.2174 65.4456 64.2389 65.3416 64.2807 65.2446C64.3225 65.1476 64.3838 65.0596 64.4609 64.9857C64.538 64.9119 64.6295 64.8536 64.7301 64.8143C64.8306 64.775 64.9382 64.7554 65.0466 64.7567H78.3137C78.5291 64.7593 78.7348 64.8441 78.8861 64.9928C79.0375 65.1414 79.1224 65.3419 79.1224 65.5508C79.1224 65.7596 79.0375 65.9601 78.8861 66.1087C78.7348 66.2574 78.5291 66.3422 78.3137 66.3448H65.0466ZM56.827 62.9977H60.8917C61.1089 62.9977 61.3171 63.0813 61.4707 63.2302C61.6243 63.3791 61.7106 63.581 61.7106 63.7916V67.7332C61.7106 67.8375 61.6894 67.9407 61.6483 68.0371C61.6071 68.1334 61.5468 68.221 61.4707 68.2947C61.3947 68.3684 61.3044 68.4269 61.2051 68.4668C61.1057 68.5067 60.9992 68.5272 60.8917 68.5272H56.827C56.7195 68.5272 56.613 68.5067 56.5137 68.4668C56.4143 68.4269 56.3241 68.3684 56.248 68.2947C56.172 68.2209 56.1117 68.1334 56.0706 68.0371C56.0294 67.9407 56.0082 67.8375 56.0083 67.7332V63.7916C56.0083 63.5811 56.0946 63.3791 56.2481 63.2302C56.4017 63.0813 56.6099 62.9977 56.827 62.9977Z" fill="#1A1A1A"/>
<path fill-rule="evenodd" clip-rule="evenodd" d="M37.8599 67.2506H42.5438L42.1891 44.3942H38.2146L37.8599 67.2506Z" fill="#F9893D"/>
<path d="M35.688 68.8385H44.7151V70.4234H35.688V68.8385Z" fill="#F9893D"/>
<path fill-rule="evenodd" clip-rule="evenodd" d="M35.7393 35.787H76.986L56.3627 21.9988L35.7393 35.787Z" fill="#F9893D"/>
<path d="M37.1943 40.8571H43.209V42.8061H37.1943V40.8571Z" fill="#F9893D"/>
<path d="M53.3555 40.8571H59.3702V42.8061H53.3555V40.8571Z" fill="#F9893D"/>
<path d="M69.5171 40.8571H75.5318V42.8061H69.5171V40.8571Z" fill="#F9893D"/>
<path fill-rule="evenodd" clip-rule="evenodd" d="M30.0474 39.2694H82.6784V37.3751H30.0474V39.2694Z" fill="#F9893D"/>
<path d="M51.8491 68.8385H52.4696V70.4234H51.8491V68.8385Z" fill="#F9893D"/>
<path fill-rule="evenodd" clip-rule="evenodd" d="M52.47 73.598V72.0116H45.5341H34.8693H31.3105V73.598H52.47Z" fill="#F9893D"/>
<path d="M57.6465 64.5857H60.0736V66.9392H57.6465V64.5857Z" fill="#F9893D"/>
<path fill-rule="evenodd" clip-rule="evenodd" d="M84.2871 74.664H85.2252C85.5014 74.6627 85.7659 74.5557 85.9613 74.3663C86.1566 74.1769 86.2669 73.9204 86.2683 73.6526V64.915H84.2871V74.664Z" fill="#1A1A1A"/>
<path fill-rule="evenodd" clip-rule="evenodd" d="M70.4897 55.1981H74.6953L74.4848 44.3942H70.5424L70.4897 55.1981Z" fill="#F9893D"/>
<path fill-rule="evenodd" clip-rule="evenodd" d="M56.0883 58.851V57.7975C56.0899 57.1507 56.3394 56.5275 56.7885 56.0492C57.2375 55.5709 57.8539 55.2715 58.5179 55.2094L58.35 44.3942H54.3753L54.1426 59.0424C54.4625 58.9157 54.8047 58.8507 55.1503 58.851H56.0883Z" fill="#F9893D"/>
<path d="M84.2871 61.8583H86.2683V63.3269H84.2871V61.8583Z" fill="#F9893D"/>
<path fill-rule="evenodd" clip-rule="evenodd" d="M83.9937 60.2704H86.2681V57.797C86.2667 57.5291 86.1564 57.2727 85.9611 57.0833C85.7657 56.8939 85.5012 56.7869 85.225 56.7855H58.7689C58.4927 56.7869 58.2281 56.8938 58.0328 57.0832C57.8374 57.2726 57.727 57.5291 57.7256 57.797V58.8505H81.6063C81.9582 58.8504 82.3067 58.9178 82.6317 59.0488C82.9567 59.1797 83.2519 59.3715 83.5002 59.6134C83.6989 59.8062 83.8654 60.0278 83.9937 60.2704Z" fill="#1A1A1A"/>
</g>
<defs>
<clipPath id="clip0_121_1880">
<rect width="60" height="60" fill="white" transform="translate(28.1577 20.1579)"/>
</clipPath>
</defs>
</svg>
