<svg width="116" height="100" viewBox="0 0 116 100" fill="none" xmlns="http://www.w3.org/2000/svg">
<path d="M29.1876 0.5L86.4089 0.5L115.019 50L86.4089 99.5H29.1876L0.577509 50L29.1876 0.5Z" fill="#181818" stroke="#D6B88D"/>
<path d="M88.4725 63.6418C87.9921 62.4707 87.0668 61.5379 85.8997 61.0479C84.7325 60.5579 83.4187 60.5508 82.2462 61.0281L68.7206 65.7881C68.83 65.1366 68.7964 64.4692 68.6223 63.832C68.4481 63.1948 68.1376 62.6031 67.7121 62.0978C67.2867 61.5925 66.7565 61.1857 66.1582 60.9056C65.56 60.6255 64.908 60.4788 64.2475 60.4756H56.5975C56.2005 60.4763 55.8097 60.3776 55.4606 60.1887L48.1294 56.3106C47.4734 55.9683 46.7443 55.7897 46.0044 55.79H36.5481V51.9756C36.5481 51.6938 36.4362 51.4235 36.2369 51.2243C36.0377 51.025 35.7674 50.9131 35.4856 50.9131H28.25C27.9682 50.9131 27.698 51.025 27.4987 51.2243C27.2994 51.4235 27.1875 51.6938 27.1875 51.9756V78.0068C27.1875 78.2886 27.2994 78.5589 27.4987 78.7581C27.698 78.9574 27.9682 79.0693 28.25 79.0693H35.4856C35.7674 79.0693 36.0377 78.9574 36.2369 78.7581C36.4362 78.5589 36.5481 78.2886 36.5481 78.0068V75.5737C39.5019 75.4462 42.6681 75.6587 45.2819 77.1568L54.1219 79.7493C55.4027 80.4117 56.8237 80.7574 58.2656 80.7574C59.7076 80.7574 61.1286 80.4117 62.4094 79.7493L86.2413 69.56C87.275 69.0196 88.0738 68.1178 88.4853 67.0263C88.8968 65.9349 88.8922 64.7302 88.4725 63.6418ZM34.4231 76.9443H29.3125V53.0381H34.4231V76.9443Z" fill="#F96B31"/>
<path d="M60.7098 28.8032C60.8147 29.2751 61.0146 29.7206 61.2973 30.1127C61.58 30.5047 61.9396 30.8351 62.3542 31.0837C62.7687 31.3322 63.2296 31.4937 63.7086 31.5583C64.1877 31.6229 64.6748 31.5893 65.1404 31.4594C65.6292 31.8638 66.2223 32.1218 66.8513 32.2039C67.4804 32.286 68.1198 32.1888 68.696 31.9234C69.2722 31.6581 69.7617 31.2354 70.1083 30.7041C70.4548 30.1727 70.6443 29.5543 70.6548 28.9201C70.6556 28.4352 70.5504 27.956 70.3465 27.5161C70.1426 27.0762 69.845 26.6862 69.4745 26.3734C69.1041 26.0607 68.6697 25.8327 68.2018 25.7055C67.7339 25.5782 67.2439 25.5548 66.7661 25.6369C66.3462 25.1851 65.8149 24.8517 65.2254 24.6701C65.2016 23.8977 64.9567 23.1483 64.5197 22.511C64.0826 21.8737 63.4719 21.3751 62.7599 21.0746C62.048 20.7741 61.2647 20.6842 60.5032 20.8157C59.7417 20.9471 59.0339 21.2943 58.4638 21.816C57.8938 22.3378 57.4854 23.0122 57.2873 23.7591C57.0892 24.5061 57.1096 25.2942 57.346 26.0299C57.5825 26.7656 58.0252 27.418 58.6214 27.9096C59.2177 28.4012 59.9425 28.7113 60.7098 28.8032ZM61.1879 22.8851C61.4764 22.8863 61.7609 22.952 62.0206 23.0775C62.2804 23.2029 62.5088 23.3848 62.6891 23.61C62.8694 23.8351 62.997 24.0977 63.0627 24.3786C63.1284 24.6595 63.1304 24.9515 63.0686 25.2332C63.0149 25.397 63.0019 25.5714 63.0307 25.7413C63.0595 25.9112 63.1292 26.0716 63.2337 26.2086C63.3383 26.3456 63.4746 26.4551 63.631 26.5276C63.7873 26.6002 63.9589 26.6336 64.1311 26.6251C64.3909 26.6234 64.6466 26.6903 64.8723 26.819C65.0981 26.9477 65.2858 27.1337 65.4167 27.3582C65.5474 27.5959 65.7641 27.7745 66.0223 27.8576C66.4686 28.0382 66.8404 27.6982 67.2973 27.6982C67.5077 27.6984 67.7145 27.753 67.8977 27.8567C68.0808 27.9603 68.2341 28.1095 68.3427 28.2898C68.4512 28.47 68.5114 28.6753 68.5173 28.8856C68.5232 29.096 68.4747 29.3043 68.3765 29.4904C68.2783 29.6765 68.1337 29.8341 67.9567 29.9479C67.7797 30.0617 67.5763 30.1278 67.3662 30.1399C67.1561 30.152 66.9464 30.1097 66.7575 30.0169C66.5686 29.9242 66.4069 29.7843 66.2879 29.6107C66.126 29.4049 65.9027 29.256 65.6504 29.1857C65.1192 29.0476 64.6836 29.5044 64.1629 29.4726C63.9464 29.4665 63.7338 29.4128 63.5404 29.3153C63.3469 29.2179 63.1772 29.0791 63.0434 28.9087C62.9096 28.7384 62.8148 28.5407 62.7659 28.3297C62.717 28.1186 62.7151 27.8994 62.7604 27.6876C62.7629 27.488 62.7055 27.2922 62.5957 27.1256C62.4858 26.9589 62.3286 26.829 62.1442 26.7526C61.8467 26.5826 61.5173 26.6888 61.1879 26.6888C60.7324 26.6205 60.3165 26.391 60.0159 26.042C59.7152 25.6929 59.5499 25.2476 59.5499 24.7869C59.5499 24.3263 59.7152 23.881 60.0159 23.5319C60.3165 23.1829 60.7324 22.9534 61.1879 22.8851Z" fill="#F9893D"/>
<path d="M52.6875 56.6403H87.75C88.0318 56.6403 88.302 56.5283 88.5013 56.3291C88.7006 56.1298 88.8125 55.8596 88.8125 55.5778C88.8125 55.296 88.7006 55.0257 88.5013 54.8265C88.302 54.6272 88.0318 54.5153 87.75 54.5153H86.4431L84.0419 32.0965C84.0154 31.8335 83.8919 31.5898 83.6955 31.413C83.499 31.2362 83.2437 31.1389 82.9794 31.1403H81.5344C82.3773 30.879 83.0896 30.3076 83.5277 29.5415C83.9658 28.7755 84.0969 27.8717 83.8946 27.0128C83.6923 26.1538 83.1717 25.4035 82.4379 24.9134C81.704 24.4233 80.8116 24.2299 79.9406 24.3721C79.4928 23.8714 78.9156 23.5038 78.2725 23.3096C78.2682 22.4886 78.0261 21.6864 77.5756 21C77.1251 20.3136 76.4854 19.7724 75.7339 19.4418C74.9823 19.1112 74.1511 19.0054 73.3407 19.1371C72.5303 19.2688 71.7754 19.6325 71.1673 20.1841C70.5591 20.7357 70.1238 21.4516 69.9138 22.2454C69.7039 23.0391 69.7284 23.8767 69.9843 24.6568C70.2402 25.4369 70.7167 26.1262 71.356 26.6414C71.9953 27.1565 72.7702 27.4755 73.5869 27.5596C73.6913 28.0615 73.8981 28.5365 74.1944 28.9549C74.4906 29.3733 74.8699 29.7261 75.3086 29.9913C75.7473 30.2565 76.236 30.4284 76.7441 30.4963C77.2523 30.5642 77.7689 30.5266 78.2619 30.3859C78.6398 30.7058 79.0818 30.9413 79.5581 31.0765C78.8463 31.0128 78.0919 31.1934 77.9856 32.0221L76.8275 41.829L75.4887 35.8896C75.4348 35.65 75.2994 35.4364 75.1057 35.2853C74.912 35.1342 74.6719 35.0549 74.4262 35.0609H65.9262C65.6806 35.0549 65.4405 35.1342 65.2468 35.2853C65.0531 35.4364 64.9177 35.65 64.8637 35.8896L63.6312 41.8928L62.4731 32.0859C62.4442 31.8248 62.3197 31.5837 62.1234 31.4091C61.9272 31.2344 61.6733 31.1387 61.4106 31.1403H57.4794C57.2151 31.1389 56.9597 31.2362 56.7633 31.413C56.5668 31.5898 56.4433 31.8335 56.4169 32.0965L54.0156 54.5153H52.6875C52.4057 54.5153 52.1355 54.6272 51.9362 54.8265C51.7369 55.0257 51.625 55.296 51.625 55.5778C51.625 55.8596 51.7369 56.1298 51.9362 56.3291C52.1355 56.5283 52.4057 56.6403 52.6875 56.6403ZM79.4094 28.5796C79.2884 28.4175 79.1256 28.2914 78.9385 28.2146C78.7513 28.1379 78.5468 28.1135 78.3469 28.144C77.9893 28.3174 77.6049 28.4288 77.21 28.4734C77.0021 28.4734 76.7962 28.4324 76.6042 28.3529C76.4121 28.2733 76.2376 28.1567 76.0906 28.0097C75.9436 27.8627 75.8269 27.6882 75.7474 27.4961C75.6678 27.304 75.6269 27.0982 75.6269 26.8903C75.6856 26.6063 75.6336 26.3106 75.4815 26.0638C75.3294 25.8169 75.0888 25.6374 74.8087 25.5621C74.5542 25.5411 74.2983 25.5411 74.0437 25.5621C73.6008 25.573 73.1656 25.4451 72.799 25.1964C72.4323 24.9477 72.1526 24.5906 71.9989 24.1751C71.8451 23.7596 71.8251 23.3065 71.9416 22.879C72.0581 22.4516 72.3053 22.0712 72.6486 21.7912C72.9919 21.5111 73.4141 21.3454 73.8562 21.3171C74.2984 21.2888 74.7383 21.3995 75.1144 21.6335C75.4906 21.8675 75.7842 22.2133 75.9542 22.6224C76.1242 23.0315 76.162 23.4836 76.0625 23.9153C76.0061 24.0845 75.9932 24.2652 76.025 24.4407C76.0568 24.6162 76.1323 24.7809 76.2445 24.9196C76.3567 25.0583 76.502 25.1664 76.667 25.2342C76.8321 25.3019 77.0115 25.327 77.1888 25.3071C77.4713 25.3072 77.7488 25.382 77.9932 25.5238C78.2377 25.6656 78.4403 25.8694 78.5806 26.1146C78.6516 26.2408 78.7476 26.351 78.8627 26.4387C78.9778 26.5264 79.1096 26.5897 79.25 26.6246C79.7069 26.8265 80.1425 26.4546 80.5994 26.4653C80.8368 26.464 81.0706 26.5244 81.2777 26.6406C81.4847 26.7568 81.6581 26.9249 81.7807 27.1283C81.9033 27.3316 81.9709 27.5634 81.977 27.8008C81.9831 28.0382 81.9274 28.2731 81.8154 28.4824C81.7033 28.6918 81.5388 28.8685 81.338 28.9952C81.1371 29.1219 80.9068 29.1942 80.6696 29.2051C80.4324 29.2159 80.1964 29.165 79.9848 29.0572C79.7732 28.9494 79.5932 28.7885 79.4625 28.5903L79.4094 28.5796ZM66.8613 37.2496H73.6081L77.5075 54.5153H62.9619L66.8613 37.2496Z" fill="#F9893D"/>
</svg>
