<svg width="116" height="100" viewBox="0 0 116 100" fill="none" xmlns="http://www.w3.org/2000/svg">
<path d="M29.1876 0.5L86.4089 0.5L115.019 50L86.4089 99.5H29.1876L0.577509 50L29.1876 0.5Z" fill="#181818" stroke="#D6B88D"/>
<path d="M55.8125 69.6876V80.6251C55.8125 81.8278 54.8277 82.8126 53.625 82.8126H40.5C39.2973 82.8126 38.3125 81.8278 38.3125 80.6251V76.2501L26.7405 64.6781C25.8871 63.8247 25.1875 62.1403 25.1875 60.9376V34.6876C25.1875 32.2811 27.156 30.3126 29.5625 30.3126C31.969 30.3126 33.9375 32.2811 33.9375 34.6876V47.0254C33.303 47.3971 32.691 47.8564 32.1655 48.4033C30.4811 50.0439 29.5625 52.2314 29.5625 54.5716C29.5411 56.9129 30.4597 59.1218 32.1003 60.7624L37.5253 66.2974C38.3563 67.1497 39.7566 67.1497 40.6089 66.2974L42.146 64.7604L35.2278 57.6991C33.4996 55.973 33.4996 53.2151 35.2278 51.5104C36.0812 50.6559 37.1974 50.218 38.3125 50.218C39.4276 50.218 40.5438 50.6559 41.3972 51.5104L52.6519 62.2877C54.3908 63.9518 55.8125 67.2822 55.8125 69.6876ZM63.3491 62.2877L74.6028 51.5104C75.4573 50.6559 76.5724 50.218 77.6875 50.218C78.8026 50.218 79.9177 50.6559 80.7722 51.5104C82.5004 53.2151 82.5004 55.973 80.7722 57.6991L73.8551 64.7604L75.3911 66.2974C76.2434 67.1497 77.6448 67.1497 78.4736 66.2974L83.8997 60.7624C85.5403 59.1218 86.4589 56.9129 86.4375 54.5716C86.4375 52.2314 85.5189 50.0439 83.8356 48.4033C83.3101 47.8564 82.697 47.3971 82.0625 47.0254V34.6876C82.0625 32.2811 84.0321 30.3126 86.4375 30.3126C88.8429 30.3126 90.8125 32.2811 90.8125 34.6876V60.9376C90.8125 62.1403 90.1118 63.8247 89.2595 64.6781L77.6875 76.2501V80.6251C77.6875 81.8278 76.7027 82.8126 75.5 82.8126H62.375C61.1723 82.8126 60.1875 81.8278 60.1875 80.6251V69.6876C60.1875 67.2822 61.6102 63.9518 63.3491 62.2877ZM73.6393 19.5214C71.6911 17.994 69.2003 17.1865 66.4402 17.1865C63.2402 17.1865 60.1683 18.2728 58 20.0758C55.8317 18.2728 52.7588 17.1865 49.5587 17.1865C46.7976 17.1865 44.3089 17.994 42.3607 19.5225C36.8513 23.8441 37.7229 31.1329 40.375 36.513C43.2066 42.2573 50.6076 49.9894 56.8742 53.7492C57.2213 53.9575 57.6101 54.0611 58 54.0611C58.3899 54.0611 58.7787 53.9575 59.1258 53.7492C65.3892 49.9915 72.7891 42.2605 75.6239 36.5141C78.2771 31.1329 79.1487 23.8441 73.6393 19.5214ZM64.5625 36.8751H60.1875V41.2501C60.1875 42.4581 59.208 43.4376 58 43.4376C56.792 43.4376 55.8125 42.4581 55.8125 41.2501V36.8751H51.4375C50.2295 36.8751 49.25 35.8956 49.25 34.6876C49.25 33.4796 50.2295 32.5001 51.4375 32.5001H55.8125V28.1251C55.8125 26.9171 56.792 25.9376 58 25.9376C59.208 25.9376 60.1875 26.9171 60.1875 28.1251V32.5001H64.5625C65.7716 32.5001 66.75 33.4796 66.75 34.6876C66.75 35.8956 65.7716 36.8751 64.5625 36.8751Z" fill="#F9893D"/>
</svg>
