<svg width="116" height="100" viewBox="0 0 116 100" fill="none" xmlns="http://www.w3.org/2000/svg">
<path d="M29.1876 0.5L86.4089 0.5L115.019 50L86.4089 99.5H29.1876L0.577509 50L29.1876 0.5Z" fill="#181818" stroke="#D6B88D"/>
<path d="M46.9142 56.4055C48.561 56.4055 50.3738 56.5663 52.0287 56.8703V51.913H64.0856V60.7604C65.504 61.2812 66.5397 61.8429 67.5121 62.5493C69.3554 63.8883 70.3684 65.6461 70.4292 67.574C72.7755 67.0196 74.9276 66.0796 76.7898 64.7992C77.4626 64.3368 78.2702 63.9321 78.743 63.5848V49.8156L58.0011 26.6387L36.8984 49.9553V58.288C38.3169 57.9285 39.6096 57.5419 41.1079 57.1334C42.8801 56.6504 44.8468 56.4055 46.9142 56.4055Z" fill="#F9893D"/>
<path d="M58.0934 20.9842L81.5414 47.1846H86.8893L58.0463 15L46.1164 28.1378V22.8344H37.3692V37.8027L28.957 47.1846H34.381L58.0934 20.9842Z" fill="#F9893D"/>
<path d="M84.2495 65.8117C82.9507 65.8117 81.2022 66.3885 78.9801 67.916C74.9182 70.7082 69.9457 71.9378 65.4024 71.9378C61.709 71.9378 58.2995 71.1257 55.8917 69.681C54.6987 68.9652 54.7023 68.7261 55.3942 68.7261C56.7839 68.7261 60.9508 69.6905 63.7747 69.6905C65.1644 69.6905 66.2284 69.4571 66.4774 68.7604C67.628 65.5386 63.1674 64.5013 58.5033 62.6138C55.0886 61.2312 50.9209 60.1877 46.9521 60.1875C45.2974 60.1875 43.6626 60.3688 42.1454 60.7825C35.2562 62.6608 30.2778 64.0757 28.8594 64.5351V82.6157C31.6963 81.5724 34.9824 80.5726 36.8524 80.5726C40.2841 80.5726 54.1701 84.9997 62.0324 84.9997C63.1336 84.9997 64.1197 84.9129 64.9398 84.715C71.6129 83.1041 83.1982 73.6688 86.3427 70.4474C87.8524 68.9009 87.2552 65.8117 84.2495 65.8117Z" fill="#F96B31"/>
</svg>
