<svg width="116" height="100" viewBox="0 0 116 100" fill="none" xmlns="http://www.w3.org/2000/svg">
<path d="M29.1876 0.5L86.4089 0.5L115.019 50L86.4089 99.5H29.1876L0.577509 50L29.1876 0.5Z" fill="#181818" stroke="#D6B88D"/>
<g clip-path="url(#clip0_197_10787)">
<path d="M40.7693 58.2568C41.0458 57.9449 41.174 57.5277 41.1226 57.1131C40.7152 53.7991 40.5071 50.4253 40.5071 47.0828C40.5071 43.7403 40.7151 40.3665 41.1226 37.0524C41.1739 36.638 41.0456 36.2207 40.7693 35.9088C40.4902 35.5954 40.0939 35.416 39.6752 35.416H26.2398C25.6214 35.416 25.0716 35.8048 24.8635 36.3873C23.6269 39.8752 23 43.4741 23 47.0829C23 50.6831 23.6269 54.2806 24.8636 57.7768C25.0716 58.3607 25.6216 58.7495 26.24 58.7495H39.6753C40.0941 58.7495 40.4902 58.5702 40.7693 58.2568Z" fill="#F9893D"/>
<path d="M45.4322 31.9518C45.7086 32.2978 46.1274 32.5 46.572 32.5H63.6233C64.0678 32.5 64.4867 32.2978 64.7631 31.9518C65.0396 31.6042 65.145 31.1499 65.0452 30.7184C62.8682 21.1694 58.9643 15 55.0976 15C51.231 15 47.3271 21.1694 45.1501 30.7184C45.0504 31.1499 45.1559 31.6042 45.4322 31.9518Z" fill="#F9893D"/>
<path d="M68.134 31.3334C68.2736 32.0127 68.872 32.4997 69.5645 32.4997H81.1562C81.6862 32.4997 82.1735 32.2134 82.4298 31.752C82.6892 31.2906 82.6748 30.7252 82.3985 30.2752C78.5148 23.9847 72.5451 19.1938 65.5838 16.7855C65.0167 16.5847 64.3756 16.7642 63.9909 17.227C63.6005 17.6898 63.5378 18.3449 63.8342 18.8734C65.6437 22.1233 67.131 26.4328 68.134 31.3334Z" fill="#F9893D"/>
<path d="M42.0557 62.8333C41.9161 62.154 41.3177 61.667 40.6252 61.667H29.0335C28.5034 61.667 28.0162 61.9533 27.7598 62.4147C27.5004 62.8761 27.5148 63.4415 27.7911 63.8915C31.675 70.182 37.6446 74.9729 44.6059 77.3812C44.7597 77.4353 44.9221 77.4609 45.0818 77.4609C45.5063 77.4609 45.9167 77.2758 46.1988 76.9396C46.5891 76.4768 46.6519 75.8216 46.3555 75.2932C44.546 72.0433 43.0586 67.7337 42.0557 62.8333Z" fill="#F9893D"/>
<path d="M29.0335 32.4996H40.6252C41.3177 32.4996 41.916 32.0124 42.0557 31.3332C43.0587 26.4327 44.5462 22.1232 46.3555 18.8734C46.6519 18.3449 46.5892 17.6899 46.1988 17.227C45.8085 16.7642 45.1673 16.5847 44.6059 16.7855C37.6446 19.1938 31.6749 23.9846 27.7912 30.2752C27.5147 30.7252 27.5005 31.2906 27.7599 31.752C28.0163 32.2133 28.5036 32.4996 29.0335 32.4996Z" fill="#F9893D"/>
<path d="M92.6879 75.8801L85.2651 62.869C87.3879 60.4436 89.3997 56.8563 89.3997 54.1732C89.3997 52.8686 88.9038 52.0995 88.4879 51.6823C86.1741 49.3836 80.7316 51.8774 77.2752 54.8952L63.9625 47.3272C62.6147 46.8103 61.0788 47.1364 60.0559 48.1547L58.5115 49.6941C58.2237 49.9818 58.067 50.3791 58.0841 50.7865C58.1012 51.1953 58.2893 51.5769 58.6027 51.8403L70.4509 61.8421C69.9408 62.4474 69.3965 63.0868 68.8353 63.7448C66.8578 66.0691 64.6522 68.6582 63.0793 70.7488L60.1927 69.3104C59.6371 69.027 58.9589 69.1395 58.5115 69.5825L55.5224 72.5647C55.2147 72.8737 55.058 73.3053 55.1007 73.741C55.1462 74.1769 55.3827 74.5684 55.7446 74.8119L61.4835 78.6272L65.3075 84.3523C65.5498 84.7154 65.943 84.9505 66.3761 84.9933C66.4245 84.9975 66.4731 85.0004 66.5215 85.0004C66.9062 85.0004 67.2766 84.8479 67.553 84.5745L70.545 81.5909C70.9894 81.1465 71.1006 80.4672 70.8185 79.9047L69.3767 77.0336C71.4824 75.4571 74.0925 73.2454 76.4348 71.2601C77.0816 70.7133 77.7113 70.1792 78.3069 69.6779L88.3343 81.5012C88.6078 81.8217 89.001 82.0081 89.4199 82.0167C89.9556 82.0167 90.2434 81.8501 90.5256 81.5425L91.9503 79.9831C92.9757 78.9619 93.3034 77.4282 92.6879 75.8801Z" fill="#F96B31"/>
<path d="M69.4258 35.9082C69.1466 36.2216 69.0184 36.6388 69.0697 37.0532C69.4344 40.0255 69.6339 43.1572 69.6623 46.363C69.6681 46.8828 69.9473 47.3599 70.3975 47.6176L76.219 50.9344C76.4441 51.0612 76.6949 51.1253 76.9428 51.1253C77.2248 51.1253 77.507 51.0441 77.752 50.8818C80.5074 49.0489 83.4224 47.9566 85.7504 47.8868C86.5512 47.8611 87.1809 47.1961 87.1638 46.3958C87.0869 42.9807 86.4714 39.614 85.3288 36.3882C85.1209 35.8058 84.5708 35.417 83.9525 35.417H70.5171C70.0983 35.4169 69.7023 35.5964 69.4258 35.9082Z" fill="#F9893D"/>
<path d="M58.0008 46.0882C59.7076 44.3805 62.067 43.6443 64.7199 44.5272C65.1758 44.6782 65.6802 44.5942 66.062 44.3051C66.4468 44.0146 66.6633 43.5531 66.6376 43.0732C66.5209 40.6052 66.347 38.516 66.1076 36.6859C66.0106 35.9595 65.3924 35.417 64.66 35.417H45.5344C44.8021 35.417 44.1837 35.9596 44.0868 36.6859C43.6479 40.0468 43.4258 43.5446 43.4258 47.0836C43.4258 50.6226 43.6481 54.1204 44.0868 57.4813C44.1837 58.2077 44.802 58.7502 45.5344 58.7502H58.2773C58.8899 58.7502 59.4371 58.3685 59.6479 57.7932C59.8587 57.2179 59.6878 56.5727 59.2176 56.1781L56.7215 54.0704V54.069C55.7869 53.2815 55.2227 52.1292 55.1743 50.9074C55.123 49.6869 55.5903 48.492 56.4566 47.629L58.0008 46.0882Z" fill="#F9893D"/>
<path d="M56.4541 67.5188C57.7051 66.2726 59.6597 65.8995 61.2726 66.5946C61.8766 66.8538 62.5691 66.6814 62.9794 66.1802C63.4924 65.555 64.0252 64.9227 64.7375 64.0795C64.897 63.8873 65.0053 63.6594 65.0537 63.4159C65.0708 63.3205 65.0821 63.2208 65.0821 63.1254C65.0821 62.3193 64.4296 61.667 63.6232 61.667H46.5721C46.1276 61.667 45.7087 61.8692 45.4322 62.2152C45.1558 62.5628 45.0504 63.0171 45.1502 63.4499C46.213 68.1041 47.7204 72.0632 49.5156 74.8988C49.7892 75.3303 50.2594 75.5766 50.7495 75.5766C50.9062 75.5766 51.063 75.5509 51.2168 75.4996C51.8552 75.2832 52.2626 74.6594 52.2027 73.9886C52.0858 72.6884 52.5475 71.4165 53.465 70.5009L56.4541 67.5188Z" fill="#F9893D"/>
</g>
<defs>
<clipPath id="clip0_197_10787">
<rect width="70" height="70" fill="white" transform="translate(23 15)"/>
</clipPath>
</defs>
</svg>
