<svg width="116" height="100" viewBox="0 0 116 100" fill="none" xmlns="http://www.w3.org/2000/svg">
<path d="M29.1876 0.5L86.4089 0.5L115.019 50L86.4089 99.5H29.1876L0.577509 50L29.1876 0.5Z" fill="#181818" stroke="#D6B88D"/>
<circle cx="58" cy="50" r="42" fill="#1A1A1A"/>
<g clip-path="url(#clip0_197_11020)">
<path d="M84.8203 40.9297V73.7422H31.5V40.9297C31.5 39.8419 31.9321 38.7986 32.7013 38.0294C33.4705 37.2603 34.5138 36.8281 35.6016 36.8281H80.7188C81.8066 36.8281 82.8498 37.2603 83.619 38.0294C84.3882 38.7986 84.8203 39.8419 84.8203 40.9297Z" fill="#8585F2"/>
<path d="M83.7949 65.5391H65.3379C64.7573 65.5386 64.1837 65.4126 63.6562 65.1699C63.9785 65.8905 64.5023 66.5024 65.1646 66.9318C65.8269 67.3612 66.5994 67.5897 67.3887 67.5898H84.8203V65.4058C84.4863 65.4973 84.1412 65.5422 83.7949 65.5391Z" fill="#1E81CE"/>
<path d="M84.8184 73.7422H28.4219V77.8438C28.4235 78.3872 28.6401 78.9078 29.0243 79.2921C29.4086 79.6763 29.9293 79.8929 30.4727 79.8945H85.8438C86.3872 79.8929 86.9078 79.6763 87.2921 79.2921C87.6763 78.9078 87.8929 78.3872 87.8945 77.8438V73.7422H84.8184Z" fill="#58595B"/>
<path d="M87.8945 24.5234V61.4375C87.8904 62.3454 87.5866 63.2265 87.0303 63.944C86.4741 64.6616 85.6965 65.1754 84.8184 65.4058C84.4844 65.4973 84.1393 65.5422 83.793 65.5391H65.3359C64.2481 65.5391 63.2049 65.1069 62.4357 64.3377C61.6665 63.5685 61.2344 62.5253 61.2344 61.4375V24.5234C61.2376 23.4366 61.6708 22.3953 62.4393 21.6268C63.2078 20.8583 64.2491 20.4251 65.3359 20.4219H83.793C84.8808 20.4219 85.924 20.854 86.6932 21.6232C87.4624 22.3924 87.8945 23.4356 87.8945 24.5234Z" fill="#F9893D"/>
<path d="M80.7188 20.4219V23.498C80.7188 23.77 80.6107 24.0308 80.4184 24.2231C80.2261 24.4154 79.9653 24.5234 79.6934 24.5234H69.4395C69.1675 24.5234 68.9067 24.4154 68.7144 24.2231C68.5221 24.0308 68.4141 23.77 68.4141 23.498V20.4219H80.7188Z" fill="#FF9811"/>
<path d="M63.2852 73.7422V75.793C63.2852 76.0649 63.1771 76.3257 62.9848 76.518C62.7925 76.7103 62.5317 76.8184 62.2598 76.8184H54.0566C53.7847 76.8184 53.5239 76.7103 53.3316 76.518C53.1393 76.3257 53.0312 76.0649 53.0312 75.793V73.7422H63.2852Z" fill="#F1F2F2"/>
<path d="M58.1572 50.1582L56.3936 60.7505C56.3124 61.2281 56.0653 61.6617 55.6958 61.975C55.3262 62.2883 54.858 62.461 54.3735 62.4629H43.4839C42.9994 62.461 42.5312 62.2883 42.1617 61.975C41.7921 61.6617 41.545 61.2281 41.4639 60.7505L41.4023 60.4121H52.3228C52.8072 60.4103 53.2754 60.2375 53.645 59.9242C54.0145 59.611 54.2616 59.1773 54.3428 58.6997L55.7681 50.1582H58.1572Z" fill="#1E81CE"/>
<path d="M78.668 44.0059L76.6172 42.9805V41.4014C77.2415 41.0433 77.76 40.5266 78.1202 39.9035C78.4803 39.2804 78.6693 38.5732 78.668 37.8535V35.8027L79.6934 33.752V32.7266C80.2368 32.7282 80.7574 32.9448 81.1417 33.329C81.5259 33.7133 81.7425 34.2339 81.7441 34.7773V35.8027L80.7188 37.8535V39.9043C80.7201 40.624 80.5311 41.3312 80.171 41.9543C79.8108 42.5774 79.2923 43.0941 78.668 43.4521V44.0059Z" fill="#F96B31"/>
<path d="M84.8164 50.6396V55.2847H66.3594V53.2339H82.7656V48.5889C82.7644 48.0006 82.635 47.4198 82.3862 46.8867L82.5503 46.9687C83.2302 47.3116 83.8019 47.8361 84.2019 48.4841C84.6019 49.1321 84.8146 49.8782 84.8164 50.6396Z" fill="#F96B31"/>
<path d="M56.1055 48.1074L54.3418 58.6997C54.2607 59.1773 54.0135 59.611 53.644 59.9242C53.2745 60.2375 52.8062 60.4103 52.3218 60.4121H41.4321C40.9477 60.4103 40.4794 60.2375 40.1099 59.9242C39.7404 59.611 39.4933 59.1773 39.4121 58.6997L37.6484 48.1074H56.1055Z" fill="#FF9811"/>
<path d="M82.7656 48.5894V53.2344H66.3594V48.5894C66.3612 47.8279 66.5739 47.0818 66.9739 46.4338C67.3739 45.7858 67.9455 45.2613 68.6255 44.9185L72.5117 42.9805C72.5117 43.5244 72.7278 44.046 73.1124 44.4306C73.497 44.8152 74.0186 45.0312 74.5625 45.0312C75.1064 45.0312 75.628 44.8152 76.0126 44.4306C76.3972 44.046 76.6133 43.5244 76.6133 42.9805L80.4995 44.9185C81.1795 45.2613 81.7511 45.7858 82.1511 46.4338C82.5511 47.0818 82.7638 47.8279 82.7656 48.5894Z" fill="#D6B88D"/>
<path d="M76.6172 40.9297V42.9805C76.6172 43.5244 76.4011 44.046 76.0165 44.4306C75.6319 44.8152 75.1103 45.0312 74.5664 45.0312C74.0225 45.0312 73.5009 44.8152 73.1163 44.4306C72.7317 44.046 72.5156 43.5244 72.5156 42.9805V40.9297H76.6172Z" fill="#FFC477"/>
<path d="M76.6172 40.9297V42.4268C75.9946 42.7894 75.2869 42.9804 74.5664 42.9804C73.8459 42.9804 73.1382 42.7894 72.5156 42.4268V40.9297H76.6172Z" fill="#FFB655"/>
<path d="M79.6934 32.7266V33.752L78.668 35.8027L75.5918 33.752L73.541 35.8027H70.4648L69.4395 34.7773V32.7266L68.4141 30.6758H77.6426C78.186 30.6774 78.7067 30.894 79.0909 31.2782C79.4752 31.6625 79.6917 32.1832 79.6934 32.7266Z" fill="#57565C"/>
<path d="M75.5879 33.752L73.5371 35.8027H70.4609V37.8535C70.4609 38.9413 70.8931 39.9846 71.6623 40.7538C72.4315 41.5229 73.4747 41.9551 74.5625 41.9551C75.6503 41.9551 76.6935 41.5229 77.4627 40.7538C78.2319 39.9846 78.6641 38.9413 78.6641 37.8535V35.8027L75.5879 33.752Z" fill="#FFC477"/>
<path d="M45.8516 51.1836H47.9023V57.3359H45.8516V51.1836Z" fill="#EE8700"/>
<path d="M49.9531 51.1836H52.0039V57.3359H49.9531V51.1836Z" fill="#EE8700"/>
<path d="M41.75 51.1836H43.8008V57.3359H41.75V51.1836Z" fill="#EE8700"/>
<path d="M41.8895 43.8192C41.7966 43.2609 41.2686 42.8835 40.7103 42.9764C40.1519 43.0692 39.7745 43.5972 39.8674 44.1556L40.554 48.2836C40.6469 48.842 41.1748 49.2194 41.7332 49.1265C42.2916 49.0336 42.6689 48.5057 42.5761 47.9473L41.8895 43.8192Z" fill="#EE8700"/>
<path d="M51.8561 43.8453L51.1653 47.9733C51.0718 48.5317 51.4487 49.0601 52.0071 49.1536C52.5655 49.247 53.0939 48.8701 53.1874 48.3117L53.8782 44.1837C53.9716 43.6253 53.5947 43.0969 53.0363 43.0034C52.4779 42.91 51.9495 43.2869 51.8561 43.8453Z" fill="#EE8700"/>
<path d="M39.7031 63.4883H43.8047V65.5391H39.7031V63.4883Z" fill="#FF842C"/>
<path d="M45.8516 63.4883H54.0547V65.5391H45.8516V63.4883Z" fill="#FF842C"/>
<path d="M39.7031 67.5898H54.0586V69.6406H39.7031V67.5898Z" fill="#FF842C"/>
<path d="M64.3125 52.209H84.8203V54.2598H64.3125V52.209Z" fill="#1E81CE"/>
</g>
<defs>
<clipPath id="clip0_197_11020">
<rect width="60" height="60" fill="white" transform="translate(28.1562 20.1582)"/>
</clipPath>
</defs>
</svg>
