<svg width="116" height="100" viewBox="0 0 116 100" fill="none" xmlns="http://www.w3.org/2000/svg">
<path d="M29.1876 0.5L86.4089 0.5L115.019 50L86.4089 99.5H29.1876L0.577509 50L29.1876 0.5Z" fill="#181818" stroke="#D6B88D"/>
<g clip-path="url(#clip0_200_6587)">
<path d="M52.7922 70.0884C67.6992 70.0884 79.7837 58.0039 79.7837 43.0969C79.7837 28.19 67.6992 16.1055 52.7922 16.1055C37.8853 16.1055 25.8008 28.19 25.8008 43.0969C25.8008 58.0039 37.8853 70.0884 52.7922 70.0884Z" fill="#F9893D"/>
<path d="M61.5278 17.5518C66.3433 31.6695 58.8024 47.0179 44.6847 51.8334C39.0318 53.7617 32.899 53.7617 27.2461 51.8334C32.0733 65.9395 47.4217 73.4614 61.5278 68.6344C75.6339 63.8073 83.1558 48.4587 78.3286 34.3527C75.6264 26.4564 69.424 20.2539 61.5278 17.5518Z" fill="#F9893D"/>
<path d="M89.9293 63.3679C90.4499 61.8775 90.8498 60.3475 91.1248 58.7928C91.3437 57.5348 90.8171 56.2636 89.7729 55.5289C88.4788 54.6238 87.1139 53.8246 85.6914 53.1387L86.6804 58.2533L89.9293 63.3679Z" fill="#B56959"/>
<path d="M50.2004 81.9538C47.8755 81.0599 45.6736 79.8741 43.6479 78.4246C42.6344 77.693 42.1204 76.452 42.3197 75.2179C42.7262 72.7669 43.442 70.3773 44.4498 68.1064L48.7352 75.0301L50.2004 81.9538Z" fill="#A85B4A"/>
<path d="M54.785 83.307C59.6567 84.3176 65.7176 84.2536 72.5858 81.4088C80.5947 78.0914 85.1967 72.8584 87.8383 68.0671L85.6918 58.9606L80.8977 51.2972C75.6412 49.7756 68.6843 49.3276 60.6721 52.6463C53.8035 55.4915 49.4723 59.7324 46.7422 63.8922L49.6177 74.0596L54.785 83.307Z" fill="#B56959"/>
<path d="M73.5682 78.1567C62.0951 78.1565 52.7212 68.9956 52.4573 57.5254C50.243 59.3484 48.3163 61.4949 46.7422 63.8925L49.6177 74.0599L54.7851 83.3071C59.6569 84.3178 65.7177 84.2539 72.586 81.409C75.245 80.322 77.7491 78.889 80.0334 77.147C77.944 77.8178 75.7627 78.1584 73.5682 78.1567Z" fill="#A85B4A"/>
<path d="M80.8867 51.2959L87.8334 68.0666C88.6625 66.5616 89.3625 64.989 89.9264 63.3657L85.6907 53.14C84.1443 52.3908 82.5373 51.774 80.8867 51.2959Z" fill="#F2F2FF"/>
<path d="M50.1809 81.9463C51.6754 82.5249 53.215 82.9796 54.7841 83.3058L46.7429 63.8926C45.864 65.2327 45.0968 66.6428 44.4492 68.1088L50.1809 81.9463Z" fill="#CCCCF0"/>
<path d="M34.3938 80.7807C40.7813 80.7807 45.9594 75.6026 45.9594 69.2151C45.9594 62.8275 40.7813 57.6494 34.3938 57.6494C28.0062 57.6494 22.8281 62.8275 22.8281 69.2151C22.8281 75.6026 28.0062 80.7807 34.3938 80.7807Z" fill="#F2F2FF"/>
<path d="M39.6006 58.8857C38.5726 67 31.7137 73.1105 23.5352 73.1982C25.7363 79.1947 32.3817 82.2714 38.3782 80.0703C44.3747 77.8691 47.4514 71.2237 45.2502 65.2272C44.2393 62.4735 42.2198 60.2067 39.6006 58.8857Z" fill="#E6E6FF"/>
<path d="M90.249 54.8519C88.9185 53.9205 87.5148 53.0983 86.0518 52.3935C84.4711 51.6284 82.8289 50.9976 81.1425 50.5079C81.1372 50.5062 81.1326 50.5033 81.1271 50.5017C80.657 50.3656 80.1861 50.2415 79.7144 50.1294C80.3119 47.8331 80.6138 45.4698 80.613 43.0971C80.613 27.7573 68.1332 15.2773 52.7933 15.2773C37.4534 15.2773 24.9736 27.7574 24.9736 43.0972C24.964 48.3485 26.4492 53.4942 29.2556 57.9329C28.3404 58.3522 27.4794 58.8805 26.6912 59.5066C21.3289 63.7608 20.4308 71.5566 24.685 76.9187C28.9392 82.2808 36.7349 83.1791 42.0971 78.9249C42.2505 78.8032 42.4009 78.6779 42.5483 78.5492C43.0485 79.0908 55.5254 89.372 72.9021 82.174C79.8708 79.2876 85.1399 74.6759 88.5628 68.4673L88.5616 68.4666C89.4126 66.9212 90.1315 65.3064 90.7106 63.6398C91.2466 62.1072 91.6579 60.5338 91.9405 58.9351C92.2099 57.3618 91.5521 55.7736 90.249 54.8519ZM90.3085 58.6509C90.1779 59.4006 90.0113 60.1583 89.8111 60.9183L87.341 54.955C88.0201 55.3509 88.6737 55.7689 89.2959 56.2067C90.0759 56.7585 90.4698 57.7092 90.3085 58.6509ZM78.0907 49.7875C77.4449 49.6697 76.7978 49.5735 76.1494 49.4989C75.9372 39.7146 70.821 33.8484 67.249 29.5534C65.5534 27.5146 64.052 25.7068 63.1755 23.9081C67.3024 24.1165 70.5447 25.3951 73.3522 26.9331C78.4311 33.3853 80.1857 41.8479 78.0907 49.7875ZM63.0553 50.885C62.8861 44.3447 61.4829 34.4146 54.4383 24.9312C56.6953 24.3165 59.016 23.966 61.3539 23.8869C62.256 26.1377 63.9897 28.2249 65.9756 30.6126C69.7709 35.1761 74.2543 40.5699 74.497 49.3556C70.6209 49.1444 66.7397 49.6632 63.0553 50.885ZM70.3973 23.759C67.8889 22.7934 65.2332 22.2662 62.5462 22.2003C62.2864 21.0835 62.2686 19.9239 62.4941 18.7997C65.4038 19.967 68.0806 21.6467 70.3973 23.759ZM60.9201 18.2277C60.6214 19.5381 60.5986 20.8963 60.8533 22.2159C58.3035 22.347 55.7783 22.7799 53.3304 23.5053C51.553 21.2915 49.5354 19.2817 47.3148 17.5128C51.8334 16.5467 56.5275 16.7934 60.9201 18.2277ZM45.2499 18.0442C46.1219 18.652 48.7404 20.6091 51.617 24.0331C49.9033 24.598 47.363 25.4239 43.5405 27.9325C40.4028 25.0855 36.8145 24.5561 34.2689 24.6393C37.3269 21.5661 41.1001 19.2999 45.2499 18.0442ZM32.6089 26.4683C34.5772 26.1558 38.6665 25.9786 42.1352 28.9039C33.3648 35.2662 29.3577 44.1129 27.7218 50.5919C25.2298 42.2387 27.0623 33.1931 32.6089 26.4683ZM28.7883 53.5199C29.5271 49.2739 32.4657 37.8398 43.332 30.0846C45.5652 32.7315 44.8752 35.5223 43.777 39.9634C42.5817 44.7971 41.0544 50.9841 42.6115 59.947C39.4057 57.0994 34.9552 56.1118 30.8457 57.3364C30.0551 56.1236 29.367 54.8469 28.7883 53.5199ZM23.7277 67.9871C24.0031 65.5364 25.1199 63.257 26.8879 61.5377C27.1068 62.1446 27.2911 62.7634 27.4397 63.3912L26.2311 64.1366C25.2896 64.7176 26.178 66.115 27.1008 65.5466L27.7819 65.1264C27.9105 65.9619 27.9926 66.804 28.0283 67.6487L26.8381 67.5116C25.7503 67.3868 25.5593 69.0319 26.6485 69.1572L28.0418 69.3177C28.0137 70.3727 27.9208 71.425 27.7635 72.4686L26.67 71.8391C25.7201 71.2915 24.8948 72.7284 25.8435 73.2747L27.4468 74.1977C27.2268 75.2155 26.9893 76.0543 26.7638 76.7693C24.4662 74.4578 23.3481 71.2243 23.7277 67.9871ZM33.166 79.8826C31.3475 79.6766 29.6127 79.0066 28.1277 77.9369C28.373 77.2054 28.6727 76.2486 28.9526 75.0643L29.6408 75.4605C30.5816 76.0027 31.4261 74.5771 30.4673 74.0249L29.304 73.3552C29.528 72.0842 29.6625 70.7991 29.7067 69.5093L30.9424 69.6517C32.0304 69.7774 32.2214 68.1314 31.1319 68.0062L29.7077 67.8422C29.6709 66.6133 29.5401 65.389 29.3163 64.1801L30.921 63.1902C31.8532 62.6151 30.985 61.2053 30.0514 61.7802L28.9265 62.4741C28.7418 61.7757 28.5107 61.0905 28.235 60.4227C32.6849 57.3002 38.7675 58.0028 42.3883 62.0575C41.9694 62.6439 41.5899 63.2574 41.2522 63.894L40.3143 62.9624C39.5367 62.1893 38.3698 63.3658 39.1469 64.1375L40.4857 65.4674C39.9931 66.5936 39.5876 67.7558 39.2725 68.9439L37.8469 68.7797C36.7591 68.653 36.5679 70.2999 37.6574 70.4252L38.896 70.5679C38.6448 71.8337 38.483 73.1155 38.4117 74.4041L37.1259 74.7921C36.0729 75.1099 36.5588 76.694 37.6043 76.3781L38.3649 76.1486C38.3682 77.3688 38.4394 78.3313 38.5154 79.1331C36.8259 79.837 34.9838 80.0951 33.166 79.8826ZM40.1082 78.3058C40.0523 77.5633 40.0132 76.6976 40.0315 75.6455L41.7988 75.1123C42.8498 74.7951 42.3667 73.2099 41.3203 73.5263L40.1177 73.889C40.2028 72.8379 40.3523 71.7929 40.5656 70.76L41.9512 70.9196C43.0392 71.0453 43.2302 69.3993 42.1407 69.2741L40.9591 69.1379C41.1859 68.3257 41.4569 67.5265 41.7711 66.7438L42.3316 67.3006C43.0991 68.0635 44.2857 66.9067 43.499 66.1255L42.4975 65.1305C42.7833 64.5548 43.101 63.9953 43.4489 63.4549C46.6341 68.4486 45.168 75.0789 40.1743 78.264C40.1522 78.2781 40.1302 78.292 40.1082 78.3058ZM43.7208 77.3784C44.6511 76.3209 45.392 75.1108 45.911 73.8014L48.6389 80.3872C46.3105 79.2968 44.1481 77.8655 43.7208 77.3784ZM50.8094 81.2988L46.6274 71.2027C46.9056 69.4994 46.8227 67.7566 46.3839 66.0875C46.455 65.9602 46.5247 65.8323 46.5977 65.706L53.3989 82.1258C52.525 81.8918 51.659 81.6153 50.8094 81.2988ZM72.268 80.6437C66.6029 82.9903 60.9233 83.6405 55.3805 82.5807L47.6782 63.9859C48.8015 62.3307 50.1007 60.8019 51.553 59.4264C52.3494 58.673 51.2101 57.4697 50.4146 58.2232C48.7623 59.7865 47.2972 61.5365 46.0487 63.4381C46.0457 63.4428 46.0441 63.448 46.0411 63.4529C45.9114 63.6505 45.7841 63.8507 45.6587 64.0532C45.4291 63.5564 45.1669 63.0754 44.874 62.6133C42.5209 52.7149 43.9144 46.3078 45.3848 40.3613C46.4738 35.9574 47.3481 32.4116 44.707 29.1527C48.413 26.7652 50.984 25.965 52.7321 25.4215C59.8506 34.6979 61.2814 44.5682 61.4044 51.4666C59.4619 52.198 57.5876 53.099 55.8031 54.1589C54.8519 54.7271 55.7226 56.1367 56.6527 55.5808C61.6946 52.5688 70.3532 49.2579 80.2774 51.985L86.9165 68.0132C83.6757 73.7097 78.75 77.9586 72.268 80.6437ZM87.9158 66.0962L82.3396 52.6338C83.2595 52.961 84.1655 53.3345 85.0495 53.7511L89.0422 63.3902C88.7115 64.3097 88.3349 65.2144 87.9158 66.0962Z" fill="black"/>
<path d="M53.5158 57.5169C53.9732 57.5169 54.344 57.146 54.344 56.6886C54.344 56.2312 53.9732 55.8604 53.5158 55.8604C53.0583 55.8604 52.6875 56.2312 52.6875 56.6886C52.6875 57.146 53.0583 57.5169 53.5158 57.5169Z" fill="black"/>
<path d="M77.5973 56.0143C75.7893 56.3111 73.9568 56.7092 72.0996 57.209L71.5566 55.8981C71.1373 54.8865 69.6065 55.5189 70.0261 56.5319L70.4946 57.6631C68.5516 58.2413 66.5942 58.9252 64.6222 59.7149L64.1701 58.6235C63.7506 57.6098 62.2208 58.246 62.6398 59.2573L63.0917 60.3482C61.1436 61.1813 59.2759 62.0818 57.4885 63.0498L57.0201 61.9192C56.5998 60.9046 55.0713 61.543 55.4898 62.553L56.0323 63.8627C54.9258 64.5006 53.8578 65.1629 52.8281 65.8496C51.9052 66.4651 52.8475 67.8283 53.7472 67.2275C54.6876 66.6003 55.6625 65.9937 56.6721 65.4073L57.2946 66.9102C57.7133 67.9214 59.2464 67.2934 58.8249 66.2764L58.1256 64.5882C59.9044 63.6189 61.771 62.7156 63.7256 61.8786L64.4446 63.6145C64.8633 64.6257 66.3964 63.9977 65.9749 62.9807L65.256 61.2451C67.2276 60.4553 69.1862 59.774 71.1318 59.2011L71.8309 60.8891C72.2502 61.9009 73.7823 61.2715 73.3614 60.2553L72.7388 58.7522C74.4684 58.2947 76.1773 57.9269 77.8657 57.6485C78.9463 57.4715 78.6803 55.8374 77.5973 56.0143Z" fill="black"/>
</g>
<defs>
<clipPath id="clip0_200_6587">
<rect width="70" height="70" fill="white" transform="translate(22 15)"/>
</clipPath>
</defs>
</svg>
