<svg width="116" height="100" viewBox="0 0 116 100" fill="none" xmlns="http://www.w3.org/2000/svg">
<path d="M29.1876 0.5L86.4089 0.5L115.019 50L86.4089 99.5H29.1876L0.577509 50L29.1876 0.5Z" fill="#181818" stroke="#D6B88D"/>
<g clip-path="url(#clip0_200_6600)">
<path d="M64.1758 26.6016H75.2362L71.9197 19.3008L75.2362 12H64.1758V26.6016Z" fill="#F9893D"/>
<path d="M60.0508 28.7493V12H55.9492V28.7493C56.6263 28.6808 57.3104 28.6455 58.0001 28.6455C58.6896 28.6455 59.3737 28.6808 60.0508 28.7493Z" fill="#F9893D"/>
<path d="M78.0078 67.6393H84.7925C85.7666 67.6393 86.7143 67.7536 87.6238 67.9683V47.2285H78.0156L78.0078 67.6393Z" fill="#F9893D"/>
<path d="M31.2101 67.6384H37.9947L38.0451 47.2275H28.3789V67.9675C29.2882 67.7527 30.236 67.6384 31.2101 67.6384Z" fill="#F9893D"/>
<path d="M73.8417 47.228C73.1213 39.1112 66.305 32.7471 58.0009 32.7471C49.6969 32.7471 42.8805 39.1112 42.1602 47.228H73.8417Z" fill="#F9893D"/>
<path d="M53.4727 51.3301H62.5301V67.6394H53.4727V51.3301Z" fill="#F9893D"/>
<path d="M66.6289 51.3301H73.9036V67.6394H66.6289V51.3301Z" fill="#F9893D"/>
<path d="M42.0938 51.3301H49.3684V67.6394H42.0938V51.3301Z" fill="#F9893D"/>
<path d="M84.7911 71.7402H31.2089C26.6824 71.7402 23 75.4228 23 79.9491V81.9999H93V79.9491C93 75.4228 89.3175 71.7402 84.7911 71.7402Z" fill="#58595B"/>
</g>
<defs>
<clipPath id="clip0_200_6600">
<rect width="70" height="70" fill="white" transform="translate(23 12)"/>
</clipPath>
</defs>
</svg>
