<svg width="116" height="100" viewBox="0 0 116 100" fill="none" xmlns="http://www.w3.org/2000/svg">
<path d="M29.1876 0.5L86.4089 0.5L115.019 50L86.4089 99.5H29.1876L0.577509 50L29.1876 0.5Z" fill="#181818" stroke="#D6B88D"/>
<g clip-path="url(#clip0_201_6615)">
<path d="M59.1197 25.5146C46.3165 25.5146 35.9375 35.8937 35.9375 48.6968C35.9375 61.5 46.3165 71.879 59.1197 71.879C71.9228 71.879 82.3018 61.5 82.3018 48.6968C82.3018 35.8937 71.9228 25.5146 59.1197 25.5146ZM59.1195 66.2869C49.4204 66.2869 41.5296 58.3961 41.5296 48.697C41.5296 38.9979 49.4204 31.107 59.1195 31.107C68.8186 31.107 76.7095 38.9979 76.7095 48.697C76.7095 58.3961 68.8188 66.2869 59.1195 66.2869Z" fill="#F96B31"/>
<path d="M59.1171 35.8223C52.0179 35.8223 46.2422 41.598 46.2422 48.6972C46.2422 55.7965 52.0179 61.5721 59.1171 61.5721C66.2164 61.5721 71.9921 55.7965 71.9921 48.6972C71.9921 41.598 66.2165 35.8223 59.1171 35.8223Z" fill="#F96B31"/>
<path d="M91.5391 50.6407V22.4702C91.5391 22.1984 91.3656 21.9568 91.1077 21.87C90.8502 21.7833 90.5659 21.8709 90.4014 22.0875C86.8867 26.7227 84.9844 32.3801 84.9844 38.1971V48.5026C84.9844 49.6846 85.9425 50.6428 87.1246 50.6428H88.0168C87.1373 59.7268 86.5561 72.4317 86.5561 73.9194C86.5561 76.263 87.9986 78.1628 89.778 78.1628C91.5574 78.1628 92.9999 76.2628 92.9999 73.9194C92.9999 72.4316 92.4187 59.7247 91.5391 50.6407Z" fill="#F9893D"/>
<path d="M32.3539 45.0567C34.137 43.9766 35.3288 42.0183 35.3288 39.7813L34.4455 25.3409C34.4118 24.7905 33.9555 24.3613 33.404 24.3613C32.8075 24.3613 32.3323 24.861 32.362 25.4564L32.9363 37.0378C32.9363 37.6888 32.4084 38.2164 31.7577 38.2164C31.1067 38.2164 30.579 37.6885 30.579 37.0378L30.292 25.4612C30.2769 24.8494 29.7766 24.3615 29.1645 24.3615C28.5524 24.3615 28.0523 24.8496 28.037 25.4612L27.75 37.0378C27.75 37.6888 27.2221 38.2164 26.5714 38.2164C25.9204 38.2164 25.3927 37.6885 25.3927 37.0378L25.9671 25.4564C25.9966 24.8608 25.5211 24.3613 24.925 24.3613C24.3735 24.3613 23.9172 24.7905 23.8836 25.3409L23 39.7814C23 42.0184 24.1916 43.9766 25.9749 45.0569C27.1353 45.7597 27.7823 47.0739 27.6327 48.4225C26.6261 57.4948 25.9425 72.3063 25.9425 73.9197C25.9425 76.2633 27.385 78.1632 29.1644 78.1632C30.9438 78.1632 32.3863 76.2632 32.3863 73.9197C32.3863 72.3063 31.7026 57.4948 30.696 48.4225C30.5463 47.0745 31.194 45.7593 32.3539 45.0567Z" fill="#F9893D"/>
</g>
<defs>
<clipPath id="clip0_201_6615">
<rect width="70" height="70" fill="white" transform="translate(23 15)"/>
</clipPath>
</defs>
</svg>
