<svg width="116" height="100" viewBox="0 0 116 100" fill="none" xmlns="http://www.w3.org/2000/svg">
<path d="M29.1876 0.5L86.4089 0.5L115.019 50L86.4089 99.5H29.1876L0.577509 50L29.1876 0.5Z" fill="#181818" stroke="#D6B88D"/>
<path d="M25.1211 75.0201H35.462V40.4443H25.1211V75.0201ZM28.3135 44.6974H32.2696V55.7489H28.3135V44.6974ZM28.3135 59.7049H32.2696V70.7565H28.3135V59.7049Z" fill="#F9893D"/>
<path d="M32.8438 21.7773H72.7331V27.2183H32.8438V21.7773Z" fill="#F9893D"/>
<path d="M75.4564 37.3467C66.9503 37.3467 60.0352 44.2618 60.0352 52.7679C60.0352 61.274 75.4564 78.2224 75.4564 78.2224C75.4564 78.2224 90.8776 61.274 90.8776 52.7679C90.8776 44.2618 83.9624 37.3467 75.4564 37.3467ZM75.4564 61.5391C70.6094 61.5391 66.6852 57.6149 66.6852 52.7679C66.6852 47.9209 70.6094 43.9967 75.4564 43.9967C80.3033 43.9967 84.2276 47.9209 84.2276 52.7679C84.2276 57.6149 80.3033 61.5391 75.4564 61.5391Z" fill="#F96B31"/>
<path d="M78.026 47.752C77.4426 47.752 76.9654 48.2292 76.9654 48.8126V51.708H73.9532V48.8126C73.9532 48.2292 73.476 47.752 72.8926 47.752C72.3093 47.752 71.832 48.2292 71.832 48.8126V56.7247C71.832 57.308 72.3093 57.7853 72.8926 57.7853C73.476 57.7853 73.9532 57.308 73.9532 56.7247V53.8292H76.9654V56.7247C76.9654 57.308 77.4426 57.7853 78.026 57.7853C78.6093 57.7853 79.0866 57.308 79.0866 56.7247V48.8126C79.0866 48.2186 78.6093 47.752 78.026 47.752Z" fill="#F9893D"/>
<path d="M46.6094 65.4004H51.7321V75.0201H46.6094V65.4004Z" fill="#F9893D"/>
<path d="M53.8516 65.4004H58.9743V75.0201H53.8516V65.4004Z" fill="#F9893D"/>
<path d="M54.9134 59.355V53.9671H57.9998C57.9362 53.5535 57.915 53.1505 57.915 52.7686C57.915 51.7186 58.0104 50.7005 58.1907 49.7035H54.9134V44.3156H60.0892C60.9695 42.7247 62.0831 41.2823 63.3983 40.052H54.9134V34.6641H63.7271V39.7444C64.9998 38.5989 66.4316 37.6338 67.9907 36.902V29.3398H37.5938V75.0201H44.4877V64.3398C44.4877 63.7565 44.9544 63.2792 45.5483 63.2792H60.0362C60.6195 63.2792 61.0968 63.7565 61.0968 64.3398V75.0201H67.9907V72.5808C64.9998 68.7095 61.6165 63.8308 59.6331 59.355H54.9134ZM50.6604 59.355H41.8468V53.9671H50.6604V59.355ZM50.6604 49.7035H41.8468V44.3156H50.6604V49.7035ZM50.6604 40.052H41.8468V34.6641H50.6604V40.052Z" fill="#F9893D"/>
<path d="M63.7272 40.0517V39.7441C63.6212 39.8396 63.5045 39.9351 63.3984 40.0517H63.7272Z" fill="#F9893D"/>
</svg>
