<svg width="23" height="499" viewBox="0 0 23 499" fill="none" xmlns="http://www.w3.org/2000/svg">
<path d="M4.0467 11.1315C1.21264 10.3289 -0.434136 7.38076 0.368499 4.5467C1.17113 1.71264 4.11924 0.0658374 6.9533 0.868472C9.78736 1.67111 11.4341 4.61922 10.6315 7.45328C9.82887 10.2873 6.88077 11.9341 4.0467 11.1315ZM21.7144 14L22.7144 14L21.7144 14ZM13.7144 6L13.7144 5L13.7144 6ZM20.7144 498.5L20.7144 14L22.7144 14L22.7144 498.5L20.7144 498.5ZM13.7143 7L5.5 6.99999L5.5 4.99999L13.7144 5L13.7143 7ZM20.7144 14C20.7144 10.134 17.5803 6.99999 13.7143 7L13.7144 5C18.6849 4.99998 22.7144 9.02942 22.7144 14L20.7144 14Z" fill="#D6B88D"/>
</svg>
