<svg width="116" height="100" viewBox="0 0 116 100" fill="none" xmlns="http://www.w3.org/2000/svg">
<path d="M29.1876 0.5L86.4089 0.5L115.019 50L86.4089 99.5H29.1876L0.577509 50L29.1876 0.5Z" fill="#181818" stroke="#D6B88D"/>
<path d="M87.9944 28.6411V63.1768H68.4356C67.9226 63.184 67.4178 63.3183 66.9589 63.5696C66.5001 63.8209 66.0991 64.1826 65.7861 64.6278C65.666 64.7558 65.5228 64.8548 65.3656 64.9184C65.2085 64.9821 65.0409 65.009 64.8737 64.9974H51.1263C50.9591 65.009 50.7915 64.9821 50.6344 64.9184C50.4772 64.8548 50.334 64.7558 50.2139 64.6278C49.9009 64.1826 49.4999 63.8209 49.0411 63.5696C48.5822 63.3183 48.0774 63.184 47.5644 63.1768H28.0056V28.6411C27.9563 27.7345 28.236 26.8433 28.7836 26.1614C29.3313 25.4795 30.1027 25.0621 30.93 25H85.07C85.8973 25.0621 86.6687 25.4795 87.2163 26.1614C87.764 26.8433 88.0437 27.7345 87.9944 28.6411Z" fill="#F9893D"/>
<path d="M93 66.6941C92.9312 68.6992 92.1324 70.5931 90.7784 71.9615C89.4244 73.3299 87.6254 74.0614 85.775 73.996H30.225C28.3319 74.0117 26.5042 73.2465 25.1125 71.8555C24.4521 71.1986 23.9237 70.4012 23.5603 69.5132C23.1968 68.6252 23.0061 67.6655 23 66.6941C23.0147 66.2311 23.1977 65.7932 23.5092 65.476C23.8206 65.1587 24.2352 64.9879 24.6625 65.0007H47.5625C47.6969 65.0065 47.8283 65.0448 47.9473 65.1127C48.0662 65.1807 48.1697 65.2767 48.25 65.3935C48.6005 65.8477 49.0411 66.2102 49.5389 66.4542C50.0367 66.6981 50.5789 66.8172 51.125 66.8024H64.875C65.4211 66.8172 65.9633 66.6981 66.4611 66.4542C66.9589 66.2102 67.3995 65.8477 67.75 65.3935C67.8303 65.2767 67.9338 65.1807 68.0527 65.1127C68.1717 65.0448 68.3031 65.0065 68.4375 65.0007H91.3375C91.7648 64.9879 92.1794 65.1587 92.4908 65.476C92.8023 65.7932 92.9853 66.2311 93 66.6941Z" fill="#58595B"/>
<circle cx="58" cy="45" r="12" fill="white"/>
<g clip-path="url(#clip0_202_6641)">
<path d="M51.9869 48.0847V41.2822C51.747 41.3457 51.507 41.4234 51.2812 41.4939V50.0816C53.1753 49.5581 55.1881 49.6621 57.0181 50.378C55.7745 49.1205 54.0801 48.4118 52.3115 48.4093C52.1338 48.4055 51.9907 48.2624 51.9869 48.0847Z" fill="#8585F2"/>
<path d="M52.6501 39.4268L52.6289 47.7957C54.7061 47.9033 56.6433 48.8757 57.9706 50.4772V42.4963C56.7589 40.7144 54.7992 39.5838 52.6501 39.4268Z" fill="#8585F2"/>
<path d="M64.5757 41.2969V48.0922C64.572 48.2699 64.4288 48.4131 64.2511 48.4168C62.4865 48.4184 60.7961 49.1276 59.5586 50.3856V50.3926C61.3827 49.6742 63.3903 49.5652 65.2814 50.0821V41.5085C65.0556 41.4309 64.8227 41.3533 64.5757 41.2969Z" fill="#8585F2"/>
<path d="M63.9402 39.4268C61.7824 39.5682 59.8121 40.7019 58.6055 42.4963V50.4772C59.9311 48.8775 61.8655 47.9052 63.9402 47.7957V39.4268Z" fill="#8585F2"/>
</g>
<defs>
<clipPath id="clip0_202_6641">
<rect width="14" height="12" fill="white" transform="translate(51 39)"/>
</clipPath>
</defs>
</svg>
