<svg width="67" height="355" viewBox="0 0 67 355" fill="none" xmlns="http://www.w3.org/2000/svg">
<path d="M4.54671 10.6315C1.71265 9.82891 0.0658667 6.8808 0.868501 4.04673C1.67114 1.21267 4.61924 -0.434124 7.4533 0.36851C10.2874 1.17115 11.9341 4.11926 11.1315 6.95332C10.3289 9.78738 7.38077 11.4342 4.54671 10.6315ZM65.5 13.5L64.5 13.5L65.5 13.5ZM57.5 5.50002L57.5 6.50002L57.5 5.50002ZM64.5 355L64.5 13.5L66.5 13.5L66.5 355L64.5 355ZM57.5 6.50002L6 6.50003L6.00001 4.50003L57.5 4.50002L57.5 6.50002ZM64.5 13.5C64.5 9.63404 61.366 6.50004 57.5 6.50002L57.5 4.50002C62.4706 4.50003 66.5 8.52947 66.5 13.5L64.5 13.5Z" fill="#D6B88D"/>
</svg>
