<svg width="95" height="355" viewBox="0 0 95 355" fill="none" xmlns="http://www.w3.org/2000/svg">
<path d="M88.0448 11.1326C90.8789 11.9353 93.827 10.2885 94.6296 7.4544C95.4323 4.62034 93.7855 1.67222 90.9514 0.86959C88.1173 0.0669578 85.1692 1.71375 84.3666 4.54781C83.564 7.38187 85.2108 10.33 88.0448 11.1326ZM63.4968 6.00109L63.4968 7.00109L63.4968 7.00109L63.4968 6.00109ZM1.99919 355L1.99692 14.0006L-0.00308251 14.0007L-0.000817801 355L1.99919 355ZM8.99698 7.0006L63.4968 7.00109L63.4969 5.0011L8.997 5.0006L8.99698 7.0006ZM63.4968 7.00109L89.4981 7.00111L89.4981 5.00111L63.4968 5.00109L63.4968 7.00109ZM1.99692 14.0006C1.99689 10.1346 5.13095 7.00057 8.99698 7.0006L8.997 5.0006C4.02639 5.00054 -0.00310977 9.03003 -0.00308251 14.0007L1.99692 14.0006Z" fill="url(#paint0_linear_121_31733)"/>
<defs>
<linearGradient id="paint0_linear_121_31733" x1="15.9598" y1="344.384" x2="142.088" y2="330.874" gradientUnits="userSpaceOnUse">
<stop stop-color="#D6B88D"/>
<stop offset="0.131803" stop-color="#FFB320"/>
<stop offset="0.36731" stop-color="#AA0000"/>
<stop offset="0.580267" stop-color="#FFB320"/>
<stop offset="0.766666" stop-color="#F96B31"/>
</linearGradient>
</defs>
</svg>
