<svg width="59" height="195" viewBox="0 0 59 195" fill="none" xmlns="http://www.w3.org/2000/svg">
<path d="M9.98179 186.105C8.38345 183.631 5.08206 182.921 2.60791 184.52C0.133762 186.118 -0.576205 189.419 1.02214 191.893C2.62048 194.368 5.92187 195.078 8.39602 193.479C10.8702 191.881 11.5801 188.579 9.98179 186.105ZM26.9553 189L26.9553 188L26.9553 189ZM57.0091 0.374103L33.8993 181.884L35.8833 182.136L58.9931 0.626706L57.0091 0.374103ZM26.9553 188L5.50198 187.999L5.50195 189.999L26.9552 190L26.9553 188ZM33.8993 181.884C33.4542 185.38 30.4795 188 26.9553 188L26.9552 190C31.4864 190 35.311 186.631 35.8833 182.136L33.8993 181.884Z" fill="#D6B88D"/>
</svg>
