<svg width="53" height="162" viewBox="0 0 53 162" fill="none" xmlns="http://www.w3.org/2000/svg">
<path d="M44.0813 152.407C41.8205 154.295 41.5184 157.658 43.4065 159.919C45.2946 162.18 48.658 162.482 50.9187 160.593C53.1795 158.705 53.4816 155.342 51.5935 153.081C49.7054 150.82 46.342 150.518 44.0813 152.407ZM23.2654 156.5L23.2654 157.5L23.2654 156.5ZM0.00462036 1.09602L14.307 149.364L16.2978 149.172L1.99538 0.903983L0.00462036 1.09602ZM23.2654 157.5L47.5 157.5L47.5 155.5L23.2654 155.5L23.2654 157.5ZM14.307 149.364C14.7521 153.979 18.6296 157.5 23.2654 157.5L23.2654 155.5C19.6598 155.5 16.644 152.761 16.2978 149.172L14.307 149.364Z" fill="#D6B88D"/>
</svg>
