<svg width="355" height="355" viewBox="0 0 355 355" fill="none" xmlns="http://www.w3.org/2000/svg">
<path d="M113.108 65.9695L241.892 65.9695L306.284 177.5L241.892 289.031L113.108 289.031L48.7156 177.5L113.108 65.9695Z" fill="#1A1A1A" stroke="#D6B88D" stroke-width="2" stroke-linecap="round" stroke-linejoin="round"/>
<path d="M187.489 183.235H202.645V148.543L187.489 163.982V183.235Z" fill="url(#paint0_linear_121_1853)"/>
<path d="M152.144 183.235H167.299V163.982L152.144 148.543V183.235Z" fill="url(#paint1_linear_121_1853)"/>
<path d="M177.394 163.965H172.36V183.237H182.427V163.965H177.394Z" fill="url(#paint2_linear_121_1853)"/>
<path d="M187.434 159.422L202.645 144.011L202.635 128L182.437 148.552H172.36L152.162 128L152.144 144.011L167.354 159.422H187.434Z" fill="url(#paint3_linear_121_1853)"/>
<path d="M200.145 218.023C198.391 216.506 191.472 215.85 190.126 214.729C187.726 211.44 196.399 211.27 196.443 214.542L201.05 213.636C199.869 209.662 197.271 208.525 192.879 208.508C186.877 207.783 182.011 214.491 187.302 218.38C189.039 219.569 193.039 220.452 195.654 221.091C200.151 224.063 189.508 226.141 189.332 221.137L184.433 221.924C185.663 228.473 195.483 229.435 199.555 225.977C201.911 224.029 202.611 219.937 200.145 218.023Z" fill="#E8E8E8"/>
<path d="M222.942 217.797C222.627 205.468 204.04 205.683 204.079 218.052C203.549 231.53 223.659 231.038 222.942 217.797ZM216.9 221.896C212.051 226.068 205.756 219.456 210.125 214.712C215.008 210.546 221.22 217.146 216.9 221.896Z" fill="#E8E8E8"/>
<path d="M232.464 209.577C232.332 206.956 234.864 207.347 236.635 207.754L237.292 204.296C229.055 202.173 227.146 205.252 227.719 213.359H225.353V218.221H227.719V227.952H232.459V218.221H234.825V213.359H232.459C232.459 213.24 232.459 209.775 232.464 209.583V209.577Z" fill="#E8E8E8"/>
<path d="M247.592 223.074C243.443 224.896 244.397 221.308 244.303 218.206H246.681V213.354H244.303C244.303 211.498 244.314 205.384 244.27 203.635L239.581 208.497V213.36H237.214V218.211H239.581C239.25 225.598 239.868 229.759 248.005 227.178L247.592 223.079V223.074Z" fill="#E8E8E8"/>
<path d="M123.022 203.668L118.829 219.71L114.63 203.668H107V227.941H111.739V208.525L116.462 227.941H121.201L125.929 208.525V227.941H130.668V203.668H123.027H123.022Z" fill="#E8E8E8"/>
<path d="M149.338 225.212C148.638 221.98 149.835 214.231 148.511 211.315C145.708 206.747 135.148 207.404 133.703 213.246L137.769 214.791C138.387 211.355 144.847 211.406 144.4 215.17C143.087 215.906 137.521 216.642 135.854 217.621C127.474 223.95 139.021 231.886 144.787 225.694C144.941 226.226 145.272 227.471 145.421 227.805H150.204C149.785 226.888 149.493 226.016 149.338 225.207V225.212ZM144.4 219.552C145.498 224.284 138.486 227.171 137.769 222.054C137.67 219.218 142.668 219.342 144.4 218.51V219.552Z" fill="#E8E8E8"/>
<path d="M160.543 208.564C158.64 208.723 157.961 209.164 156.709 211.095V208.564H156.703L151.98 213.41V227.947H156.72C157.216 223.763 154.529 209.646 162.231 213.829C162.584 212.799 163.362 210.551 163.726 209.504C162.706 208.876 161.646 208.57 160.543 208.57V208.564Z" fill="#E8E8E8"/>
<path d="M174.474 217.055L182.761 208.553H175.974L170.921 213.761V193.977L166.182 198.833V227.941H170.921V220.69L171.13 220.486L178.391 227.941H185.122L174.474 217.055Z" fill="#E8E8E8"/>
<defs>
<linearGradient id="paint0_linear_121_1853" x1="195.067" y1="183.07" x2="195.067" y2="154.853" gradientUnits="userSpaceOnUse">
<stop stop-color="#F96B31"/>
<stop offset="1" stop-color="#F9893D"/>
</linearGradient>
<linearGradient id="paint1_linear_121_1853" x1="159.721" y1="183.07" x2="159.721" y2="154.853" gradientUnits="userSpaceOnUse">
<stop stop-color="#F96B31"/>
<stop offset="1" stop-color="#F9893D"/>
</linearGradient>
<linearGradient id="paint2_linear_121_1853" x1="177.394" y1="183.071" x2="177.394" y2="154.854" gradientUnits="userSpaceOnUse">
<stop stop-color="#F96B31"/>
<stop offset="1" stop-color="#F9893D"/>
</linearGradient>
<linearGradient id="paint3_linear_121_1853" x1="177.394" y1="183.07" x2="177.394" y2="154.853" gradientUnits="userSpaceOnUse">
<stop stop-color="#F96B31"/>
<stop offset="1" stop-color="#F9893D"/>
</linearGradient>
</defs>
</svg>
