<svg width="1440" height="6825" viewBox="0 0 1440 6825" fill="none" xmlns="http://www.w3.org/2000/svg">
<rect width="1440" height="6825" fill="#1A1A1A"/>
<g clip-path="url(#clip0_255_6686)">
<g opacity="0.46">
<path d="M196.1 4462.91C184.773 4462.91 175.506 4459.82 168.297 4453.64C161.089 4447.46 158 4437.68 158 4424.81V4400.1C158 4387.74 161.604 4377.96 168.297 4371.78C174.991 4365.6 184.258 4362 196.1 4362C207.942 4362 216.695 4365.09 223.903 4371.78C231.112 4378.48 234.201 4387.74 234.201 4400.1V4424.81C234.201 4437.68 230.597 4447.46 223.903 4453.64C217.21 4459.82 207.428 4462.91 196.1 4462.91ZM196.1 4446.95C203.309 4446.95 207.942 4444.89 211.547 4441.29C214.636 4437.68 216.695 4432.02 216.695 4424.81V4399.07C216.695 4391.86 214.636 4386.71 211.032 4383.11C207.428 4379.5 202.279 4377.45 196.1 4377.45C189.922 4377.45 184.773 4379.5 181.169 4383.11C177.565 4386.71 176.02 4392.38 176.02 4399.07V4424.81C176.02 4432.02 177.565 4437.68 181.169 4441.29C184.258 4445.41 189.407 4446.95 196.1 4446.95Z" fill="#F9893D" fill-opacity="0.5"/>
<path opacity="0.73" d="M200.22 4607.07V4522.63H197.645L184.774 4553.52H166.238L186.318 4509.76H218.24V4607.07H200.22Z" fill="#F9893D" fill-opacity="0.5"/>
<path opacity="0.73" d="M196.1 4754.83C184.773 4754.83 175.506 4751.74 168.297 4745.56C161.089 4739.38 158 4729.6 158 4716.73V4692.02C158 4679.66 161.604 4669.88 168.297 4663.7C174.991 4657.52 184.258 4653.92 196.1 4653.92C207.942 4653.92 216.695 4657.01 223.903 4663.7C231.112 4670.39 234.201 4679.66 234.201 4692.02V4716.73C234.201 4729.6 230.597 4739.38 223.903 4745.56C216.695 4751.74 207.428 4754.83 196.1 4754.83ZM196.1 4738.87C203.309 4738.87 207.942 4736.81 211.547 4733.2C214.636 4729.6 216.695 4723.94 216.695 4716.73V4690.99C216.695 4683.78 214.636 4678.63 211.032 4675.03C207.428 4671.42 202.279 4669.36 196.1 4669.36C189.922 4669.36 184.773 4671.42 181.169 4675.03C177.565 4678.63 176.02 4684.29 176.02 4690.99V4716.73C176.02 4723.94 177.565 4729.6 181.169 4733.2C184.258 4737.32 189.407 4738.87 196.1 4738.87Z" fill="#F9893D" fill-opacity="0.5"/>
<path opacity="0.73" d="M200.22 4898.99V4814.55H197.645L184.774 4845.44H166.238L186.318 4801.68H218.24V4898.99H200.22Z" fill="#F9893D" fill-opacity="0.5"/>
<path opacity="0.73" d="M196.1 5046.75C184.773 5046.75 175.506 5043.66 168.297 5037.48C161.089 5031.3 158 5021.52 158 5008.65V4983.93C158 4971.58 161.604 4961.8 168.297 4955.62C175.506 4948.93 184.258 4945.84 196.1 4945.84C207.942 4945.84 216.695 4948.93 223.903 4955.62C230.597 4962.31 234.201 4971.58 234.201 4983.93V5008.65C234.201 5021.52 230.597 5031.3 223.903 5037.48C216.695 5043.66 207.428 5046.75 196.1 5046.75ZM196.1 5030.79C203.309 5030.79 207.942 5028.73 211.547 5025.12C214.636 5021.52 216.695 5015.86 216.695 5008.65V4982.9C216.695 4975.7 214.636 4970.55 211.032 4966.94C207.428 4963.34 202.279 4961.28 196.1 4961.28C189.922 4961.28 184.773 4963.34 181.169 4966.94C177.565 4970.55 176.02 4976.21 176.02 4982.9V5008.65C176.02 5015.86 177.565 5021.52 181.169 5025.12C184.258 5029.24 189.407 5030.79 196.1 5030.79Z" fill="#F9893D" fill-opacity="0.5"/>
<path d="M200.22 5190.9V5106.47H197.645L184.774 5137.36H166.238L186.318 5093.6H218.24V5190.9H200.22Z" fill="#F9893D" fill-opacity="0.5"/>
<path d="M196.1 5338.66C184.773 5338.66 175.506 5335.57 168.297 5329.4C161.089 5323.22 158 5313.44 158 5300.57V5275.85C158 5263.5 161.604 5253.71 168.297 5247.54C175.506 5240.84 184.258 5237.75 196.1 5237.75C207.942 5237.75 216.695 5240.84 223.903 5247.54C230.597 5254.23 234.201 5263.5 234.201 5275.85V5300.57C234.201 5313.44 230.597 5323.22 223.903 5329.4C216.695 5335.57 207.428 5338.66 196.1 5338.66ZM196.1 5322.7C203.309 5322.7 207.942 5320.64 211.547 5317.04C214.636 5313.44 216.695 5307.77 216.695 5300.57V5274.82C216.695 5267.62 214.636 5262.47 211.032 5258.86C207.428 5255.26 202.279 5253.2 196.1 5253.2C189.922 5253.2 184.773 5255.26 181.169 5258.86C177.565 5262.47 176.02 5268.13 176.02 5274.82V5300.57C176.02 5307.77 177.565 5313.44 181.169 5317.04C184.258 5321.16 189.407 5322.7 196.1 5322.7Z" fill="#F9893D" fill-opacity="0.5"/>
<path opacity="0.78" d="M200.22 5482.82V5398.39H197.645L184.774 5429.28H166.238L186.318 5385.52H218.24V5482.82H200.22Z" fill="#F9893D" fill-opacity="0.5"/>
<path opacity="0.78" d="M196.1 5630.58C184.773 5630.58 175.506 5627.49 168.297 5621.31C161.089 5615.14 158 5605.35 158 5592.48V5567.77C158 5555.41 161.604 5545.63 168.297 5539.45C174.991 5533.28 184.258 5529.67 196.1 5529.67C207.942 5529.67 216.695 5532.76 223.903 5539.45C231.112 5546.15 234.201 5555.41 234.201 5567.77V5592.48C234.201 5605.35 230.597 5615.14 223.903 5621.31C216.695 5627.49 207.428 5630.58 196.1 5630.58ZM196.1 5614.62C203.309 5614.62 207.942 5612.56 211.547 5608.96C214.636 5605.35 216.695 5599.69 216.695 5592.48V5566.74C216.695 5559.53 214.636 5554.38 211.032 5550.78C207.428 5547.18 202.279 5545.12 196.1 5545.12C189.922 5545.12 184.773 5547.18 181.169 5550.78C177.565 5554.38 176.02 5560.05 176.02 5566.74V5592.48C176.02 5599.69 177.565 5605.35 181.169 5608.96C184.258 5613.08 189.407 5614.62 196.1 5614.62Z" fill="#F9893D" fill-opacity="0.5"/>
<path opacity="0.78" d="M200.22 5774.74V5690.3H197.645L184.774 5721.2H166.238L186.318 5677.43H218.24V5774.74H200.22Z" fill="#F9893D" fill-opacity="0.5"/>
<path opacity="0.78" d="M196.1 5922.5C184.773 5922.5 175.506 5919.41 168.297 5913.23C161.089 5907.05 158 5897.27 158 5884.4V5859.69C158 5847.33 161.604 5837.55 168.297 5831.37C174.991 5825.19 184.258 5821.59 196.1 5821.59C207.942 5821.59 216.695 5824.68 223.903 5831.37C231.112 5838.07 234.201 5847.33 234.201 5859.69V5884.4C234.201 5897.27 230.597 5907.05 223.903 5913.23C217.21 5919.41 207.428 5922.5 196.1 5922.5ZM196.1 5906.54C203.309 5906.54 207.942 5904.48 211.547 5900.88C214.636 5897.27 216.695 5891.61 216.695 5884.4V5858.66C216.695 5851.45 214.636 5846.3 211.032 5842.7C207.428 5839.09 202.279 5837.04 196.1 5837.04C189.922 5837.04 184.773 5839.09 181.169 5842.7C177.565 5846.3 176.02 5851.97 176.02 5858.66V5884.4C176.02 5891.61 177.565 5897.27 181.169 5900.88C184.258 5905 189.407 5906.54 196.1 5906.54Z" fill="#F9893D" fill-opacity="0.5"/>
<path d="M200.22 6066.66V5982.22H197.645L184.774 6013.11H166.238L186.318 5969.35H218.24V6066.66H200.22Z" fill="#F9893D" fill-opacity="0.5"/>
<path d="M200.22 6212.36V6127.92H197.645L184.774 6158.81H166.238L186.318 6115.05H218.24V6212.36H200.22Z" fill="#F9893D" fill-opacity="0.5"/>
<path d="M200.22 6358.57V6274.14H197.645L184.774 6305.03H166.238L186.318 6261.27H218.24V6358.57H200.22Z" fill="#F9893D" fill-opacity="0.5"/>
<path d="M196.1 6506.34C184.773 6506.34 175.506 6503.25 168.297 6497.07C161.089 6490.89 158 6481.11 158 6468.24V6443.52C158 6431.17 161.604 6421.39 168.297 6415.21C175.506 6408.51 184.258 6405.43 196.1 6405.43C207.942 6405.43 216.695 6408.51 223.903 6415.21C230.597 6421.9 234.201 6431.17 234.201 6443.52V6468.24C234.201 6481.11 230.597 6490.89 223.903 6497.07C216.695 6503.25 207.428 6506.34 196.1 6506.34ZM196.1 6490.38C203.309 6490.38 207.942 6488.32 211.547 6484.71C214.636 6481.11 216.695 6475.44 216.695 6468.24V6442.49C216.695 6435.29 214.636 6430.14 211.032 6426.53C207.428 6422.93 202.279 6420.87 196.1 6420.87C189.922 6420.87 184.773 6422.93 181.169 6426.53C177.565 6430.14 176.02 6435.8 176.02 6442.49V6468.24C176.02 6475.44 177.565 6481.11 181.169 6484.71C184.258 6488.83 189.407 6490.38 196.1 6490.38Z" fill="#F9893D" fill-opacity="0.5"/>
<path d="M196.1 6652.55C184.773 6652.55 175.506 6649.46 168.297 6643.28C161.089 6637.1 158 6627.32 158 6614.45V6589.74C158 6577.38 161.604 6567.6 168.297 6561.42C174.991 6555.24 184.258 6551.64 196.1 6551.64C207.942 6551.64 216.695 6554.73 223.903 6561.42C231.112 6568.12 234.201 6577.38 234.201 6589.74V6614.45C234.201 6627.32 230.597 6637.1 223.903 6643.28C217.21 6649.46 207.428 6652.55 196.1 6652.55ZM196.1 6636.59C203.309 6636.59 207.942 6634.53 211.547 6630.93C214.636 6627.32 216.695 6621.66 216.695 6614.45V6588.71C216.695 6581.5 214.636 6576.35 211.032 6572.75C207.428 6569.15 202.279 6567.09 196.1 6567.09C189.922 6567.09 184.773 6569.15 181.169 6572.75C177.565 6576.35 176.02 6582.02 176.02 6588.71V6614.45C176.02 6621.66 177.565 6627.32 181.169 6630.93C184.258 6634.53 189.407 6636.59 196.1 6636.59Z" fill="#F9893D" fill-opacity="0.5"/>
<path d="M200.22 6796.19V6711.76H197.645L184.774 6742.65H166.238L186.318 6698.89H218.24V6796.19H200.22Z" fill="#F9893D" fill-opacity="0.5"/>
</g>
<g opacity="0.46">
<path d="M372.3 3740.91C360.972 3740.91 351.705 3737.82 344.497 3731.64C337.288 3725.46 334.199 3715.68 334.199 3702.81V3678.1C334.199 3665.74 337.803 3655.96 344.497 3649.78C351.19 3643.6 360.458 3640 372.3 3640C384.142 3640 392.894 3643.09 400.103 3649.78C407.311 3656.48 410.4 3665.74 410.4 3678.1V3702.81C410.4 3715.68 406.796 3725.46 400.103 3731.64C393.409 3737.82 383.627 3740.91 372.3 3740.91ZM372.3 3724.95C379.508 3724.95 384.142 3722.89 387.746 3719.29C390.835 3715.68 392.894 3710.02 392.894 3702.81V3677.07C392.894 3669.86 390.835 3664.71 387.231 3661.11C383.627 3657.5 378.478 3655.45 372.3 3655.45C366.121 3655.45 360.972 3657.5 357.368 3661.11C353.764 3664.71 352.22 3670.38 352.22 3677.07V3702.81C352.22 3710.02 353.764 3715.68 357.368 3719.29C360.458 3723.41 365.606 3724.95 372.3 3724.95Z" fill="#F9893D" fill-opacity="0.5"/>
<path opacity="0.73" d="M376.419 3885.07V3800.63H373.845L360.973 3831.52H342.438L362.517 3787.76H394.439V3885.07H376.419Z" fill="#F9893D" fill-opacity="0.5"/>
<path opacity="0.73" d="M372.3 4032.83C360.972 4032.83 351.705 4029.74 344.497 4023.56C337.288 4017.38 334.199 4007.6 334.199 3994.73V3970.02C334.199 3957.66 337.803 3947.88 344.497 3941.7C351.19 3935.52 360.458 3931.92 372.3 3931.92C384.142 3931.92 392.894 3935.01 400.103 3941.7C407.311 3948.39 410.4 3957.66 410.4 3970.02V3994.73C410.4 4007.6 406.796 4017.38 400.103 4023.56C392.894 4029.74 383.627 4032.83 372.3 4032.83ZM372.3 4016.87C379.508 4016.87 384.142 4014.81 387.746 4011.2C390.835 4007.6 392.894 4001.94 392.894 3994.73V3968.99C392.894 3961.78 390.835 3956.63 387.231 3953.03C383.627 3949.42 378.478 3947.36 372.3 3947.36C366.121 3947.36 360.972 3949.42 357.368 3953.03C353.764 3956.63 352.22 3962.29 352.22 3968.99V3994.73C352.22 4001.94 353.764 4007.6 357.368 4011.2C360.458 4015.32 365.606 4016.87 372.3 4016.87Z" fill="#F9893D" fill-opacity="0.5"/>
<path opacity="0.73" d="M376.419 4176.99V4092.55H373.845L360.973 4123.44H342.438L362.517 4079.68H394.439V4176.99H376.419Z" fill="#F9893D" fill-opacity="0.5"/>
<path opacity="0.73" d="M372.3 4324.75C360.972 4324.75 351.705 4321.66 344.497 4315.48C337.288 4309.3 334.199 4299.52 334.199 4286.65V4261.93C334.199 4249.58 337.803 4239.8 344.497 4233.62C351.705 4226.93 360.458 4223.84 372.3 4223.84C384.142 4223.84 392.894 4226.93 400.103 4233.62C406.796 4240.31 410.4 4249.58 410.4 4261.93V4286.65C410.4 4299.52 406.796 4309.3 400.103 4315.48C392.894 4321.66 383.627 4324.75 372.3 4324.75ZM372.3 4308.79C379.508 4308.79 384.142 4306.73 387.746 4303.12C390.835 4299.52 392.894 4293.86 392.894 4286.65V4260.9C392.894 4253.7 390.835 4248.55 387.231 4244.94C383.627 4241.34 378.478 4239.28 372.3 4239.28C366.121 4239.28 360.972 4241.34 357.368 4244.94C353.764 4248.55 352.22 4254.21 352.22 4260.9V4286.65C352.22 4293.86 353.764 4299.52 357.368 4303.12C360.458 4307.24 365.606 4308.79 372.3 4308.79Z" fill="#F9893D" fill-opacity="0.5"/>
<path d="M376.419 4468.9V4384.47H373.845L360.973 4415.36H342.438L362.517 4371.6H394.439V4468.9H376.419Z" fill="#F9893D" fill-opacity="0.5"/>
<path d="M372.3 4616.66C360.972 4616.66 351.705 4613.57 344.497 4607.4C337.288 4601.22 334.199 4591.44 334.199 4578.57V4553.85C334.199 4541.5 337.803 4531.71 344.497 4525.54C351.705 4518.84 360.458 4515.75 372.3 4515.75C384.142 4515.75 392.894 4518.84 400.103 4525.54C406.796 4532.23 410.4 4541.5 410.4 4553.85V4578.57C410.4 4591.44 406.796 4601.22 400.103 4607.4C392.894 4613.57 383.627 4616.66 372.3 4616.66ZM372.3 4600.7C379.508 4600.7 384.142 4598.64 387.746 4595.04C390.835 4591.44 392.894 4585.77 392.894 4578.57V4552.82C392.894 4545.62 390.835 4540.47 387.231 4536.86C383.627 4533.26 378.478 4531.2 372.3 4531.2C366.121 4531.2 360.972 4533.26 357.368 4536.86C353.764 4540.47 352.22 4546.13 352.22 4552.82V4578.57C352.22 4585.77 353.764 4591.44 357.368 4595.04C360.458 4599.16 365.606 4600.7 372.3 4600.7Z" fill="#F9893D" fill-opacity="0.5"/>
<path opacity="0.78" d="M376.419 4760.82V4676.39H373.845L360.973 4707.28H342.438L362.517 4663.52H394.439V4760.82H376.419Z" fill="#F9893D" fill-opacity="0.5"/>
<path opacity="0.78" d="M372.3 4908.58C360.972 4908.58 351.705 4905.49 344.497 4899.31C337.288 4893.14 334.199 4883.35 334.199 4870.48V4845.77C334.199 4833.41 337.803 4823.63 344.497 4817.45C351.19 4811.28 360.458 4807.67 372.3 4807.67C384.142 4807.67 392.894 4810.76 400.103 4817.45C407.311 4824.15 410.4 4833.41 410.4 4845.77V4870.48C410.4 4883.35 406.796 4893.14 400.103 4899.31C392.894 4905.49 383.627 4908.58 372.3 4908.58ZM372.3 4892.62C379.508 4892.62 384.142 4890.56 387.746 4886.96C390.835 4883.35 392.894 4877.69 392.894 4870.48V4844.74C392.894 4837.53 390.835 4832.38 387.231 4828.78C383.627 4825.18 378.478 4823.12 372.3 4823.12C366.121 4823.12 360.972 4825.18 357.368 4828.78C353.764 4832.38 352.22 4838.05 352.22 4844.74V4870.48C352.22 4877.69 353.764 4883.35 357.368 4886.96C360.458 4891.08 365.606 4892.62 372.3 4892.62Z" fill="#F9893D" fill-opacity="0.5"/>
<path opacity="0.78" d="M376.419 5052.74V4968.3H373.845L360.973 4999.2H342.438L362.517 4955.43H394.439V5052.74H376.419Z" fill="#F9893D" fill-opacity="0.5"/>
<path opacity="0.78" d="M372.3 5200.5C360.972 5200.5 351.705 5197.41 344.497 5191.23C337.288 5185.05 334.199 5175.27 334.199 5162.4V5137.69C334.199 5125.33 337.803 5115.55 344.497 5109.37C351.19 5103.19 360.458 5099.59 372.3 5099.59C384.142 5099.59 392.894 5102.68 400.103 5109.37C407.311 5116.07 410.4 5125.33 410.4 5137.69V5162.4C410.4 5175.27 406.796 5185.05 400.103 5191.23C393.409 5197.41 383.627 5200.5 372.3 5200.5ZM372.3 5184.54C379.508 5184.54 384.142 5182.48 387.746 5178.88C390.835 5175.27 392.894 5169.61 392.894 5162.4V5136.66C392.894 5129.45 390.835 5124.3 387.231 5120.7C383.627 5117.09 378.478 5115.04 372.3 5115.04C366.121 5115.04 360.972 5117.09 357.368 5120.7C353.764 5124.3 352.22 5129.97 352.22 5136.66V5162.4C352.22 5169.61 353.764 5175.27 357.368 5178.88C360.458 5183 365.606 5184.54 372.3 5184.54Z" fill="#F9893D" fill-opacity="0.5"/>
<path d="M376.419 5344.66V5260.22H373.845L360.973 5291.11H342.438L362.517 5247.35H394.439V5344.66H376.419Z" fill="#F9893D" fill-opacity="0.5"/>
<path d="M376.419 5490.36V5405.92H373.845L360.973 5436.81H342.438L362.517 5393.05H394.439V5490.36H376.419Z" fill="#F9893D" fill-opacity="0.5"/>
<path d="M376.419 5636.57V5552.14H373.845L360.973 5583.03H342.438L362.517 5539.27H394.439V5636.57H376.419Z" fill="#F9893D" fill-opacity="0.5"/>
<path d="M372.3 5784.34C360.972 5784.34 351.705 5781.25 344.497 5775.07C337.288 5768.89 334.199 5759.11 334.199 5746.24V5721.52C334.199 5709.17 337.803 5699.39 344.497 5693.21C351.705 5686.51 360.458 5683.43 372.3 5683.43C384.142 5683.43 392.894 5686.51 400.103 5693.21C406.796 5699.9 410.4 5709.17 410.4 5721.52V5746.24C410.4 5759.11 406.796 5768.89 400.103 5775.07C392.894 5781.25 383.627 5784.34 372.3 5784.34ZM372.3 5768.38C379.508 5768.38 384.142 5766.32 387.746 5762.71C390.835 5759.11 392.894 5753.44 392.894 5746.24V5720.49C392.894 5713.29 390.835 5708.14 387.231 5704.53C383.627 5700.93 378.478 5698.87 372.3 5698.87C366.121 5698.87 360.972 5700.93 357.368 5704.53C353.764 5708.14 352.22 5713.8 352.22 5720.49V5746.24C352.22 5753.44 353.764 5759.11 357.368 5762.71C360.458 5766.83 365.606 5768.38 372.3 5768.38Z" fill="#F9893D" fill-opacity="0.5"/>
<path d="M372.3 5930.55C360.972 5930.55 351.705 5927.46 344.497 5921.28C337.288 5915.1 334.199 5905.32 334.199 5892.45V5867.74C334.199 5855.38 337.803 5845.6 344.497 5839.42C351.19 5833.24 360.458 5829.64 372.3 5829.64C384.142 5829.64 392.894 5832.73 400.103 5839.42C407.311 5846.12 410.4 5855.38 410.4 5867.74V5892.45C410.4 5905.32 406.796 5915.1 400.103 5921.28C393.409 5927.46 383.627 5930.55 372.3 5930.55ZM372.3 5914.59C379.508 5914.59 384.142 5912.53 387.746 5908.93C390.835 5905.32 392.894 5899.66 392.894 5892.45V5866.71C392.894 5859.5 390.835 5854.35 387.231 5850.75C383.627 5847.15 378.478 5845.09 372.3 5845.09C366.121 5845.09 360.972 5847.15 357.368 5850.75C353.764 5854.35 352.22 5860.02 352.22 5866.71V5892.45C352.22 5899.66 353.764 5905.32 357.368 5908.93C360.458 5912.53 365.606 5914.59 372.3 5914.59Z" fill="#F9893D" fill-opacity="0.5"/>
<path d="M376.419 6074.19V5989.76H373.845L360.973 6020.65H342.438L362.517 5976.89H394.439V6074.19H376.419Z" fill="#F9893D" fill-opacity="0.5"/>
</g>
<g opacity="0.18">
<path d="M350.039 84.4051V12.3266H347.98L336.652 38.5838H320.691L337.682 1H364.97V84.4051H350.039Z" fill="#F9893D" fill-opacity="0.5"/>
<path d="M346.437 210.028C336.654 210.028 328.931 207.454 322.753 201.791C316.574 196.127 314 188.405 314 177.078V156.484C314 145.672 317.089 137.95 322.753 132.286C328.416 126.623 336.654 124.049 346.437 124.049C356.219 124.049 363.942 126.623 370.121 132.286C375.784 137.95 378.874 146.187 378.874 156.484V177.078C378.874 187.89 375.784 196.127 370.121 201.791C363.942 207.454 356.219 210.028 346.437 210.028ZM346.437 196.642C352.1 196.642 356.734 195.098 359.309 192.009C361.883 188.919 363.428 184.286 363.428 178.108V155.969C363.428 149.791 361.883 145.158 358.794 142.068C355.704 138.979 351.586 137.435 346.437 137.435C340.773 137.435 336.654 138.979 333.565 142.068C330.476 145.158 328.931 149.791 328.931 155.454V177.593C328.931 183.771 330.476 188.405 333.05 191.494C336.139 195.098 340.773 196.642 346.437 196.642Z" fill="#F9893D" fill-opacity="0.5"/>
<path d="M350.039 333.075V260.997H347.98L336.652 287.254H320.691L337.682 249.67H364.97V332.56H350.039V333.075Z" fill="#F9893D" fill-opacity="0.5"/>
<path d="M350.039 457.154V385.59H347.98L336.652 411.847H320.691L337.682 374.264H364.97V457.154H350.039Z" fill="#F9893D" fill-opacity="0.5"/>
<path d="M350.039 581.746V509.667H347.98L336.652 535.924H320.691L338.197 498.855H365.485V581.746H350.039Z" fill="#F9893D" fill-opacity="0.5"/>
<path d="M346.437 707.37C336.654 707.37 328.931 704.796 322.753 699.132C316.574 693.469 314 685.746 314 674.42V653.826C314 643.014 317.089 635.291 322.753 629.628C328.416 623.965 336.654 621.391 346.437 621.391C356.219 621.391 363.942 623.965 370.121 629.628C375.784 635.291 378.874 643.529 378.874 653.826V674.42C378.874 685.232 375.784 693.469 370.121 699.132C363.942 704.796 356.219 707.37 346.437 707.37ZM346.437 693.984C352.1 693.984 356.734 692.439 359.309 689.35C361.883 686.261 363.428 681.628 363.428 675.449V653.311C363.428 647.133 361.883 642.499 358.794 639.41C355.704 636.321 351.586 634.777 346.437 634.777C340.773 634.777 336.654 636.321 333.565 639.41C330.476 642.499 328.931 647.133 328.931 652.796V674.935C328.931 681.113 330.476 685.746 333.05 688.835C336.139 692.439 340.773 693.984 346.437 693.984Z" fill="#F9893D" fill-opacity="0.5"/>
<path d="M346.437 831.962C336.654 831.962 328.931 829.388 322.753 823.724C316.574 818.061 314 810.338 314 799.012V778.418C314 767.606 317.089 759.883 322.753 754.22C328.416 748.557 336.654 745.982 346.437 745.982C356.219 745.982 363.942 748.557 370.121 754.22C375.784 759.883 378.874 768.121 378.874 778.418V799.012C378.874 809.823 375.784 818.061 370.121 823.724C363.942 829.388 356.219 831.962 346.437 831.962ZM346.437 818.576C352.1 818.576 356.734 817.031 359.309 813.942C361.883 810.853 363.428 806.219 363.428 800.041V777.903C363.428 771.725 361.883 767.091 358.794 764.002C355.704 760.913 351.586 759.368 346.437 759.368C340.773 759.368 336.654 760.913 333.565 764.002C330.476 767.091 328.931 771.725 328.931 777.388V799.526C328.931 805.705 330.476 810.338 333.05 813.427C336.139 817.031 340.773 818.576 346.437 818.576Z" fill="#F9893D" fill-opacity="0.5"/>
<path d="M350.039 954.496V882.932H347.98L336.652 909.189H320.691L337.682 871.605H364.97V954.496H350.039Z" fill="#F9893D" fill-opacity="0.5"/>
<path d="M346.437 1080.63C336.654 1080.63 328.931 1078.06 322.753 1072.39C316.574 1066.73 314 1059.01 314 1047.68V1027.09C314 1016.28 317.089 1008.55 322.753 1002.89C328.416 997.227 336.654 994.652 346.437 994.652C356.219 994.652 363.942 997.227 370.121 1002.89C375.784 1008.55 378.874 1016.79 378.874 1027.09V1047.68C378.874 1058.49 375.784 1066.73 370.121 1072.39C363.942 1078.06 356.219 1080.63 346.437 1080.63ZM346.437 1067.25C352.1 1067.25 356.734 1065.7 359.309 1062.61C361.883 1059.52 363.428 1054.89 363.428 1048.71V1026.57C363.428 1020.39 361.883 1015.76 358.794 1012.67C355.704 1009.58 351.586 1008.04 346.437 1008.04C340.773 1008.04 336.654 1009.58 333.565 1012.67C330.476 1015.76 328.931 1020.39 328.931 1026.06V1048.2C328.931 1054.37 330.476 1059.01 333.05 1062.1C336.139 1065.7 340.773 1067.25 346.437 1067.25Z" fill="#F9893D" fill-opacity="0.5"/>
<path opacity="0.78" d="M350.039 1203.17V1131.6H347.98L336.652 1157.86H320.691L337.682 1120.28H364.97V1203.17H350.039Z" fill="#F9893D" fill-opacity="0.5"/>
<path opacity="0.78" d="M346.437 1329.3C336.654 1329.3 328.931 1326.73 322.753 1321.07C316.574 1315.4 314 1307.68 314 1296.35V1275.76C314 1264.95 317.089 1257.23 322.753 1251.56C328.416 1245.9 336.654 1243.32 346.437 1243.32C356.219 1243.32 363.942 1245.9 370.121 1251.56C375.784 1257.23 378.874 1265.46 378.874 1275.76V1296.35C378.874 1307.17 375.784 1315.4 370.121 1321.07C363.942 1326.73 356.219 1329.3 346.437 1329.3ZM346.437 1315.92C352.1 1315.92 356.734 1314.37 359.309 1311.28C361.883 1308.19 363.428 1303.56 363.428 1297.38V1275.24C363.428 1269.07 361.883 1264.43 358.794 1261.34C355.704 1258.25 351.586 1256.71 346.437 1256.71C340.773 1256.71 336.654 1258.25 333.565 1261.34C330.476 1264.43 328.931 1269.07 328.931 1274.73V1296.87C328.931 1303.05 330.476 1307.68 333.05 1310.77C336.139 1314.37 340.773 1315.92 346.437 1315.92Z" fill="#F9893D" fill-opacity="0.5"/>
<path opacity="0.78" d="M346.437 1453.38C336.654 1453.38 328.931 1450.81 322.753 1445.14C316.574 1439.48 314 1431.76 314 1420.43V1399.84C314 1389.03 317.089 1381.3 322.753 1375.64C328.416 1369.98 336.654 1367.4 346.437 1367.4C356.219 1367.4 363.942 1369.98 370.121 1375.64C375.784 1381.3 378.874 1389.54 378.874 1399.84V1420.43C378.874 1431.24 375.784 1439.48 370.121 1445.14C363.942 1450.81 356.219 1453.38 346.437 1453.38ZM346.437 1440C352.1 1440 356.734 1438.45 359.309 1435.36C361.883 1432.27 363.428 1427.64 363.428 1421.46V1399.32C363.428 1393.14 361.883 1388.51 358.794 1385.42C355.704 1382.33 351.586 1380.79 346.437 1380.79C340.773 1380.79 336.654 1382.33 333.565 1385.42C330.476 1388.51 328.931 1393.14 328.931 1398.81V1420.95C328.931 1427.12 330.476 1431.76 333.05 1434.85C336.139 1438.45 340.773 1440 346.437 1440Z" fill="#F9893D" fill-opacity="0.5"/>
<path d="M350.039 1576.43V1504.87H347.98L336.652 1531.12H320.691L337.682 1493.54H364.97V1576.43H350.039Z" fill="#F9893D" fill-opacity="0.5"/>
<path d="M346.437 1702.05C336.654 1702.05 328.931 1699.48 322.753 1693.81C316.574 1688.15 314 1680.43 314 1669.1V1648.51C314 1637.7 317.089 1629.97 322.753 1624.31C328.416 1618.65 336.654 1616.07 346.437 1616.07C356.219 1616.07 363.942 1618.65 370.121 1624.31C375.784 1629.97 378.874 1638.21 378.874 1648.51V1669.1C378.874 1679.91 375.784 1688.15 370.121 1693.81C363.942 1699.48 356.219 1702.05 346.437 1702.05ZM346.437 1688.67C352.1 1688.67 356.734 1687.12 359.309 1684.03C361.883 1680.94 363.428 1676.31 363.428 1670.13V1647.99C363.428 1641.81 361.883 1637.18 358.794 1634.09C355.704 1631 351.586 1629.46 346.437 1629.46C340.773 1629.46 336.654 1631 333.565 1634.09C330.476 1637.18 328.931 1641.81 328.931 1647.48V1669.62C328.931 1675.79 330.476 1680.43 333.05 1683.52C336.139 1687.12 340.773 1688.67 346.437 1688.67Z" fill="#F9893D" fill-opacity="0.5"/>
<path d="M350.039 1825.1V1753.54H347.98L336.652 1779.79H320.691L337.682 1742.21H364.97V1825.1H350.039Z" fill="#F9893D" fill-opacity="0.5"/>
<path d="M346.437 1950.72C336.654 1950.72 328.931 1948.15 322.753 1942.48C316.574 1936.82 314 1929.1 314 1917.77V1897.18C314 1886.37 317.089 1878.64 322.753 1872.98C328.416 1867.32 336.654 1864.74 346.437 1864.74C356.219 1864.74 363.942 1867.32 370.121 1872.98C375.784 1878.64 378.874 1886.88 378.874 1897.18V1917.77C378.874 1928.58 375.784 1936.82 370.121 1942.48C363.942 1948.15 356.219 1950.72 346.437 1950.72ZM346.437 1937.34C352.1 1937.34 356.734 1935.79 359.309 1932.7C361.883 1929.61 363.428 1924.98 363.428 1918.8V1896.66C363.428 1890.48 361.883 1885.85 358.794 1882.76C355.704 1879.67 351.586 1878.13 346.437 1878.13C340.773 1878.13 336.654 1879.67 333.565 1882.76C330.476 1885.85 328.931 1890.48 328.931 1896.15V1918.29C328.931 1924.46 330.476 1929.1 333.05 1932.19C336.139 1935.79 340.773 1937.34 346.437 1937.34Z" fill="#F9893D" fill-opacity="0.5"/>
<path d="M350.039 2073.77V2002.21H347.98L336.652 2028.46H320.691L337.682 1990.88H364.97V2073.77H350.039Z" fill="#F9893D" fill-opacity="0.5"/>
<path d="M346.437 2199.39C336.654 2199.39 328.931 2196.82 322.753 2191.16C316.574 2185.49 314 2177.77 314 2166.44V2145.85C314 2135.04 317.089 2127.31 322.753 2121.65C328.416 2115.99 336.654 2113.41 346.437 2113.41C356.219 2113.41 363.942 2115.99 370.121 2121.65C375.784 2127.31 378.874 2135.55 378.874 2145.85V2166.44C378.874 2177.25 375.784 2185.49 370.121 2191.16C363.942 2196.82 356.219 2199.39 346.437 2199.39ZM346.437 2186.01C352.1 2186.01 356.734 2184.46 359.309 2181.37C361.883 2178.28 363.428 2173.65 363.428 2167.47V2145.33C363.428 2139.16 361.883 2134.52 358.794 2131.43C355.704 2128.34 351.586 2126.8 346.437 2126.8C340.773 2126.8 336.654 2128.34 333.565 2131.43C330.476 2134.52 328.931 2139.16 328.931 2144.82V2166.96C328.931 2173.14 330.476 2177.77 333.05 2180.86C336.139 2184.46 340.773 2186.01 346.437 2186.01Z" fill="#F9893D" fill-opacity="0.5"/>
<path d="M350.039 2322.44V2250.88H347.98L336.652 2277.13H320.691L337.682 2239.55H364.97V2322.44H350.039Z" fill="#F9893D" fill-opacity="0.5"/>
</g>
<g opacity="0.18">
<path d="M1266.38 165.048V106.241H1264.7L1255.46 127.664H1242.43L1256.3 97H1278.56V165.048H1266.38Z" fill="#F9893D" fill-opacity="0.5"/>
<path d="M1263.44 267.541C1255.46 267.541 1249.15 265.44 1244.11 260.82C1239.07 256.199 1236.97 249.899 1236.97 240.658V223.856C1236.97 215.035 1239.49 208.734 1244.11 204.113C1248.73 199.493 1255.46 197.393 1263.44 197.393C1271.42 197.393 1277.72 199.493 1282.76 204.113C1287.38 208.734 1289.9 215.455 1289.9 223.856V240.658C1289.9 249.479 1287.38 256.199 1282.76 260.82C1277.72 265.44 1271.42 267.541 1263.44 267.541ZM1263.44 256.619C1268.06 256.619 1271.84 255.359 1273.94 252.839C1276.04 250.319 1277.3 246.538 1277.3 241.498V223.436C1277.3 218.395 1276.04 214.615 1273.52 212.094C1271 209.574 1267.64 208.314 1263.44 208.314C1258.82 208.314 1255.46 209.574 1252.94 212.094C1250.41 214.615 1249.15 218.395 1249.15 223.016V241.078C1249.15 246.118 1250.41 249.899 1252.52 252.419C1255.04 255.359 1258.82 256.619 1263.44 256.619Z" fill="#F9893D" fill-opacity="0.5"/>
<path d="M1266.38 367.931V309.124H1264.7L1255.46 330.546H1242.43L1256.3 299.883H1278.56V367.511H1266.38V367.931Z" fill="#F9893D" fill-opacity="0.5"/>
<path d="M1266.38 469.163V410.776H1264.7L1255.46 432.199H1242.43L1256.3 401.535H1278.56V469.163H1266.38Z" fill="#F9893D" fill-opacity="0.5"/>
<path d="M1266.38 570.815V512.009H1264.7L1255.46 533.431H1242.43L1256.72 503.188H1278.98V570.815H1266.38Z" fill="#F9893D" fill-opacity="0.5"/>
<path d="M1263.44 673.306C1255.46 673.306 1249.15 671.206 1244.11 666.586C1239.07 661.965 1236.97 655.664 1236.97 646.423V629.621C1236.97 620.8 1239.49 614.5 1244.11 609.879C1248.73 605.258 1255.46 603.158 1263.44 603.158C1271.42 603.158 1277.72 605.258 1282.76 609.879C1287.38 614.5 1289.9 621.22 1289.9 629.621V646.423C1289.9 655.244 1287.38 661.965 1282.76 666.586C1277.72 671.206 1271.42 673.306 1263.44 673.306ZM1263.44 662.385C1268.06 662.385 1271.84 661.125 1273.94 658.605C1276.04 656.084 1277.3 652.304 1277.3 647.263V629.201C1277.3 624.161 1276.04 620.38 1273.52 617.86C1271 615.34 1267.64 614.079 1263.44 614.079C1258.82 614.079 1255.46 615.34 1252.94 617.86C1250.41 620.38 1249.15 624.161 1249.15 628.781V646.843C1249.15 651.884 1250.41 655.664 1252.52 658.185C1255.04 661.125 1258.82 662.385 1263.44 662.385Z" fill="#F9893D" fill-opacity="0.5"/>
<path d="M1263.44 774.959C1255.46 774.959 1249.15 772.858 1244.11 768.238C1239.07 763.617 1236.97 757.317 1236.97 748.076V731.274C1236.97 722.453 1239.49 716.152 1244.11 711.531C1248.73 706.911 1255.46 704.811 1263.44 704.811C1271.42 704.811 1277.72 706.911 1282.76 711.531C1287.38 716.152 1289.9 722.873 1289.9 731.274V748.076C1289.9 756.897 1287.38 763.617 1282.76 768.238C1277.72 772.858 1271.42 774.959 1263.44 774.959ZM1263.44 764.037C1268.06 764.037 1271.84 762.777 1273.94 760.257C1276.04 757.737 1277.3 753.956 1277.3 748.916V730.854C1277.3 725.813 1276.04 722.033 1273.52 719.512C1271 716.992 1267.64 715.732 1263.44 715.732C1258.82 715.732 1255.46 716.992 1252.94 719.512C1250.41 722.033 1249.15 725.813 1249.15 730.434V748.496C1249.15 753.536 1250.41 757.317 1252.52 759.837C1255.04 762.777 1258.82 764.037 1263.44 764.037Z" fill="#F9893D" fill-opacity="0.5"/>
<path d="M1266.38 874.931V816.544H1264.7L1255.46 837.966H1242.43L1256.3 807.303H1278.56V874.931H1266.38Z" fill="#F9893D" fill-opacity="0.5"/>
<path d="M1263.44 977.841C1255.46 977.841 1249.15 975.741 1244.11 971.121C1239.07 966.5 1236.97 960.199 1236.97 950.958V934.156C1236.97 925.335 1239.49 919.035 1244.11 914.414C1248.73 909.794 1255.46 907.693 1263.44 907.693C1271.42 907.693 1277.72 909.794 1282.76 914.414C1287.38 919.035 1289.9 925.755 1289.9 934.156V950.958C1289.9 959.779 1287.38 966.5 1282.76 971.121C1277.72 975.741 1271.42 977.841 1263.44 977.841ZM1263.44 966.92C1268.06 966.92 1271.84 965.66 1273.94 963.14C1276.04 960.619 1277.3 956.839 1277.3 951.798V933.736C1277.3 928.696 1276.04 924.915 1273.52 922.395C1271 919.875 1267.64 918.615 1263.44 918.615C1258.82 918.615 1255.46 919.875 1252.94 922.395C1250.41 924.915 1249.15 928.696 1249.15 933.316V951.378C1249.15 956.419 1250.41 960.199 1252.52 962.72C1255.04 965.66 1258.82 966.92 1263.44 966.92Z" fill="#F9893D" fill-opacity="0.5"/>
<path opacity="0.78" d="M1266.38 1077.81V1019.43H1264.7L1255.46 1040.85H1242.43L1256.3 1010.19H1278.56V1077.81H1266.38Z" fill="#F9893D" fill-opacity="0.5"/>
<path opacity="0.78" d="M1263.44 1180.73C1255.46 1180.73 1249.15 1178.63 1244.11 1174.01C1239.07 1169.38 1236.97 1163.08 1236.97 1153.84V1137.04C1236.97 1128.22 1239.49 1121.92 1244.11 1117.3C1248.73 1112.68 1255.46 1110.58 1263.44 1110.58C1271.42 1110.58 1277.72 1112.68 1282.76 1117.3C1287.38 1121.92 1289.9 1128.64 1289.9 1137.04V1153.84C1289.9 1162.66 1287.38 1169.38 1282.76 1174.01C1277.72 1178.63 1271.42 1180.73 1263.44 1180.73ZM1263.44 1169.8C1268.06 1169.8 1271.84 1168.54 1273.94 1166.02C1276.04 1163.5 1277.3 1159.72 1277.3 1154.68V1136.62C1277.3 1131.58 1276.04 1127.8 1273.52 1125.28C1271 1122.76 1267.64 1121.5 1263.44 1121.5C1258.82 1121.5 1255.46 1122.76 1252.94 1125.28C1250.41 1127.8 1249.15 1131.58 1249.15 1136.2V1154.26C1249.15 1159.3 1250.41 1163.08 1252.52 1165.6C1255.04 1168.54 1258.82 1169.8 1263.44 1169.8Z" fill="#F9893D" fill-opacity="0.5"/>
<path opacity="0.78" d="M1263.44 1281.96C1255.46 1281.96 1249.15 1279.86 1244.11 1275.24C1239.07 1270.62 1236.97 1264.31 1236.97 1255.07V1238.27C1236.97 1229.45 1239.49 1223.15 1244.11 1218.53C1248.73 1213.91 1255.46 1211.81 1263.44 1211.81C1271.42 1211.81 1277.72 1213.91 1282.76 1218.53C1287.38 1223.15 1289.9 1229.87 1289.9 1238.27V1255.07C1289.9 1263.89 1287.38 1270.62 1282.76 1275.24C1277.72 1279.86 1271.42 1281.96 1263.44 1281.96ZM1263.44 1271.04C1268.06 1271.04 1271.84 1269.78 1273.94 1267.26C1276.04 1264.73 1277.3 1260.95 1277.3 1255.91V1237.85C1277.3 1232.81 1276.04 1229.03 1273.52 1226.51C1271 1223.99 1267.64 1222.73 1263.44 1222.73C1258.82 1222.73 1255.46 1223.99 1252.94 1226.51C1250.41 1229.03 1249.15 1232.81 1249.15 1237.43V1255.49C1249.15 1260.53 1250.41 1264.31 1252.52 1266.83C1255.04 1269.78 1258.82 1271.04 1263.44 1271.04Z" fill="#F9893D" fill-opacity="0.5"/>
<path d="M1266.38 1382.35V1323.96H1264.7L1255.46 1345.38H1242.43L1256.3 1314.72H1278.56V1382.35H1266.38Z" fill="#F9893D" fill-opacity="0.5"/>
<path d="M1263.44 1484.84C1255.46 1484.84 1249.15 1482.74 1244.11 1478.12C1239.07 1473.5 1236.97 1467.2 1236.97 1457.96V1441.16C1236.97 1432.34 1239.49 1426.03 1244.11 1421.41C1248.73 1416.79 1255.46 1414.69 1263.44 1414.69C1271.42 1414.69 1277.72 1416.79 1282.76 1421.41C1287.38 1426.03 1289.9 1432.76 1289.9 1441.16V1457.96C1289.9 1466.78 1287.38 1473.5 1282.76 1478.12C1277.72 1482.74 1271.42 1484.84 1263.44 1484.84ZM1263.44 1473.92C1268.06 1473.92 1271.84 1472.66 1273.94 1470.14C1276.04 1467.62 1277.3 1463.84 1277.3 1458.8V1440.74C1277.3 1435.7 1276.04 1431.92 1273.52 1429.4C1271 1426.87 1267.64 1425.61 1263.44 1425.61C1258.82 1425.61 1255.46 1426.87 1252.94 1429.4C1250.41 1431.92 1249.15 1435.7 1249.15 1440.32V1458.38C1249.15 1463.42 1250.41 1467.2 1252.52 1469.72C1255.04 1472.66 1258.82 1473.92 1263.44 1473.92Z" fill="#F9893D" fill-opacity="0.5"/>
<path d="M1266.38 1585.23V1526.85H1264.7L1255.46 1548.27H1242.43L1256.3 1517.61H1278.56V1585.23H1266.38Z" fill="#F9893D" fill-opacity="0.5"/>
<path d="M1263.44 1687.72C1255.46 1687.72 1249.15 1685.62 1244.11 1681C1239.07 1676.38 1236.97 1670.08 1236.97 1660.84V1644.04C1236.97 1635.22 1239.49 1628.92 1244.11 1624.3C1248.73 1619.68 1255.46 1617.58 1263.44 1617.58C1271.42 1617.58 1277.72 1619.68 1282.76 1624.3C1287.38 1628.92 1289.9 1635.64 1289.9 1644.04V1660.84C1289.9 1669.66 1287.38 1676.38 1282.76 1681C1277.72 1685.62 1271.42 1687.72 1263.44 1687.72ZM1263.44 1676.8C1268.06 1676.8 1271.84 1675.54 1273.94 1673.02C1276.04 1670.5 1277.3 1666.72 1277.3 1661.68V1643.62C1277.3 1638.58 1276.04 1634.8 1273.52 1632.28C1271 1629.76 1267.64 1628.5 1263.44 1628.5C1258.82 1628.5 1255.46 1629.76 1252.94 1632.28C1250.41 1634.8 1249.15 1638.58 1249.15 1643.2V1661.26C1249.15 1666.3 1250.41 1670.08 1252.52 1672.6C1255.04 1675.54 1258.82 1676.8 1263.44 1676.8Z" fill="#F9893D" fill-opacity="0.5"/>
<path d="M1266.38 1788.12V1729.73H1264.7L1255.46 1751.15H1242.43L1256.3 1720.49H1278.56V1788.12H1266.38Z" fill="#F9893D" fill-opacity="0.5"/>
<path d="M1263.44 1890.61C1255.46 1890.61 1249.15 1888.51 1244.11 1883.89C1239.07 1879.27 1236.97 1872.97 1236.97 1863.73V1846.92C1236.97 1838.1 1239.49 1831.8 1244.11 1827.18C1248.73 1822.56 1255.46 1820.46 1263.44 1820.46C1271.42 1820.46 1277.72 1822.56 1282.76 1827.18C1287.38 1831.8 1289.9 1838.52 1289.9 1846.92V1863.73C1289.9 1872.55 1287.38 1879.27 1282.76 1883.89C1277.72 1888.51 1271.42 1890.61 1263.44 1890.61ZM1263.44 1879.69C1268.06 1879.69 1271.84 1878.43 1273.94 1875.91C1276.04 1873.39 1277.3 1869.61 1277.3 1864.57V1846.5C1277.3 1841.46 1276.04 1837.68 1273.52 1835.16C1271 1832.64 1267.64 1831.38 1263.44 1831.38C1258.82 1831.38 1255.46 1832.64 1252.94 1835.16C1250.41 1837.68 1249.15 1841.46 1249.15 1846.08V1864.15C1249.15 1869.19 1250.41 1872.97 1252.52 1875.49C1255.04 1878.43 1258.82 1879.69 1263.44 1879.69Z" fill="#F9893D" fill-opacity="0.5"/>
<path d="M1266.38 1991V1932.61H1264.7L1255.46 1954.03H1242.43L1256.3 1923.37H1278.56V1991H1266.38Z" fill="#F9893D" fill-opacity="0.5"/>
</g>
<g opacity="0.18">
<path d="M1257.33 2551.5C1247.55 2551.5 1239.83 2548.92 1233.65 2543.26C1227.98 2538.11 1224.89 2529.88 1224.89 2518.55V2497.95C1224.89 2487.14 1227.98 2479.42 1233.65 2473.76C1239.31 2468.09 1247.55 2465.52 1257.33 2465.52C1267.11 2465.52 1274.84 2468.09 1281.02 2473.76C1286.68 2479.42 1289.77 2487.66 1289.77 2497.95V2518.55C1289.77 2529.36 1286.68 2537.6 1281.02 2543.26C1275.35 2548.92 1267.63 2551.5 1257.33 2551.5ZM1257.33 2538.11C1262.99 2538.11 1267.63 2536.57 1270.2 2533.48C1272.78 2530.39 1274.32 2525.76 1274.32 2519.58V2497.44C1274.32 2491.26 1272.78 2486.63 1269.69 2483.54C1266.6 2480.45 1262.48 2478.91 1257.33 2478.91C1251.67 2478.91 1247.55 2480.45 1244.46 2483.54C1241.37 2486.63 1239.83 2491.26 1239.83 2496.93V2519.06C1239.83 2525.24 1241.37 2529.88 1243.94 2532.96C1247.55 2536.57 1251.67 2538.11 1257.33 2538.11Z" fill="#F9893D" fill-opacity="0.5"/>
<path d="M1261.45 2671.46V2599.9H1259.39L1248.06 2626.15H1232.1L1249.09 2588.57H1276.38V2671.46H1261.45Z" fill="#F9893D" fill-opacity="0.5"/>
<path d="M1257.33 2794.51C1247.55 2794.51 1239.83 2791.93 1233.65 2786.27C1227.98 2780.61 1224.89 2772.88 1224.89 2761.56V2740.96C1224.89 2730.15 1227.98 2722.43 1233.65 2716.77C1239.31 2711.1 1247.55 2708.53 1257.33 2708.53C1267.11 2708.53 1274.84 2711.1 1281.02 2716.77C1286.68 2722.43 1289.77 2730.67 1289.77 2740.96V2761.56C1289.77 2772.37 1286.68 2780.61 1281.02 2786.27C1275.35 2791.42 1267.63 2794.51 1257.33 2794.51ZM1257.33 2780.61C1262.99 2780.61 1267.63 2779.06 1270.2 2775.97C1272.78 2772.88 1274.32 2768.25 1274.32 2762.07V2739.93C1274.32 2733.75 1272.78 2729.12 1269.69 2726.03C1266.6 2722.94 1262.48 2721.4 1257.33 2721.4C1251.67 2721.4 1247.55 2722.94 1244.46 2726.03C1241.37 2729.12 1239.83 2733.75 1239.83 2739.42V2761.56C1239.83 2767.73 1241.37 2772.37 1243.94 2775.46C1247.55 2779.06 1251.67 2780.61 1257.33 2780.61Z" fill="#F9893D" fill-opacity="0.5"/>
<path d="M1261.45 2913.95V2842.39H1259.39L1248.06 2868.64H1232.1L1249.09 2831.06H1276.38V2913.95H1261.45Z" fill="#F9893D" fill-opacity="0.5"/>
<path d="M1257.33 3037C1247.55 3037 1239.83 3034.42 1233.65 3028.76C1227.98 3023.61 1224.89 3015.38 1224.89 3004.05V2983.45C1224.89 2972.64 1227.98 2964.92 1233.65 2959.26C1239.31 2953.59 1247.55 2951.02 1257.33 2951.02C1267.11 2951.02 1274.84 2953.59 1281.02 2959.26C1286.68 2964.92 1289.77 2973.16 1289.77 2983.45V3004.05C1289.77 3014.86 1286.68 3023.1 1281.02 3028.76C1275.35 3034.42 1267.63 3037 1257.33 3037ZM1257.33 3023.61C1262.99 3023.61 1267.63 3022.07 1270.2 3018.98C1272.78 3015.89 1274.32 3011.26 1274.32 3005.08V2982.94C1274.32 2976.76 1272.78 2972.13 1269.69 2969.04C1266.6 2965.95 1262.48 2964.41 1257.33 2964.41C1251.67 2964.41 1247.55 2965.95 1244.46 2969.04C1241.37 2972.13 1239.83 2976.76 1239.83 2982.43V3004.56C1239.83 3010.74 1241.37 3015.38 1243.94 3018.46C1247.55 3022.07 1251.67 3023.61 1257.33 3023.61Z" fill="#F9893D" fill-opacity="0.5"/>
<path d="M1261.45 3156.96V3085.39H1259.39L1248.06 3111.65H1232.1L1249.09 3074.07H1276.38V3156.96H1261.45Z" fill="#F9893D" fill-opacity="0.5"/>
<path d="M1257.33 3280.01C1247.55 3280.01 1239.83 3277.43 1233.65 3271.77C1227.98 3266.62 1224.89 3258.38 1224.89 3247.06V3226.46C1224.89 3215.65 1227.98 3207.93 1233.65 3202.27C1239.31 3196.6 1247.55 3194.03 1257.33 3194.03C1267.11 3194.03 1274.84 3196.6 1281.02 3202.27C1286.68 3207.93 1289.77 3216.17 1289.77 3226.46V3247.06C1289.77 3257.87 1286.68 3266.11 1281.02 3271.77C1275.35 3276.92 1267.63 3280.01 1257.33 3280.01ZM1257.33 3266.11C1262.99 3266.11 1267.63 3264.56 1270.2 3261.47C1272.78 3258.38 1274.32 3253.75 1274.32 3247.57V3225.43C1274.32 3219.25 1272.78 3214.62 1269.69 3211.53C1266.6 3208.44 1262.48 3206.9 1257.33 3206.9C1251.67 3206.9 1247.55 3208.44 1244.46 3211.53C1241.37 3214.62 1239.83 3219.25 1239.83 3224.92V3247.06C1239.83 3253.23 1241.37 3257.87 1243.94 3260.96C1247.55 3264.56 1251.67 3266.11 1257.33 3266.11Z" fill="#F9893D" fill-opacity="0.5"/>
<path d="M1261.45 3399.45V3327.88H1259.39L1248.06 3354.14H1232.1L1249.09 3316.56H1276.38V3399.45H1261.45Z" fill="#F9893D" fill-opacity="0.5"/>
<path d="M1257.33 3522.5C1247.55 3522.5 1239.83 3519.92 1233.65 3514.26C1227.98 3508.6 1224.89 3500.88 1224.89 3489.55V3468.95C1224.89 3458.14 1227.98 3450.42 1233.65 3444.76C1239.31 3439.09 1247.55 3436.52 1257.33 3436.52C1267.11 3436.52 1274.84 3439.09 1281.02 3444.76C1286.68 3450.42 1289.77 3458.66 1289.77 3468.95V3489.55C1289.77 3500.36 1286.68 3508.6 1281.02 3514.26C1275.35 3519.92 1267.63 3522.5 1257.33 3522.5ZM1257.33 3509.11C1262.99 3509.11 1267.63 3507.57 1270.2 3504.48C1272.78 3501.39 1274.32 3496.76 1274.32 3490.58V3468.44C1274.32 3462.26 1272.78 3457.63 1269.69 3454.54C1266.6 3451.45 1262.48 3449.91 1257.33 3449.91C1251.67 3449.91 1247.55 3451.45 1244.46 3454.54C1241.37 3457.63 1239.83 3462.26 1239.83 3467.93V3490.06C1239.83 3496.24 1241.37 3500.88 1243.94 3503.96C1247.55 3507.57 1251.67 3509.11 1257.33 3509.11Z" fill="#F9893D" fill-opacity="0.5"/>
<path d="M1261.45 3642.46V3570.89H1259.39L1248.06 3597.15H1232.1L1249.09 3559.57H1276.38V3642.46H1261.45Z" fill="#F9893D" fill-opacity="0.5"/>
<path d="M1257.33 3765.51C1247.55 3765.51 1239.83 3762.93 1233.65 3757.27C1227.98 3752.12 1224.89 3743.88 1224.89 3732.56V3711.96C1224.89 3701.15 1227.98 3693.43 1233.65 3687.76C1239.31 3682.1 1247.55 3679.53 1257.33 3679.53C1267.11 3679.53 1274.84 3682.1 1281.02 3687.76C1286.68 3693.43 1289.77 3701.67 1289.77 3711.96V3732.56C1289.77 3743.37 1286.68 3751.61 1281.02 3757.27C1275.35 3762.42 1267.63 3765.51 1257.33 3765.51ZM1257.33 3751.61C1262.99 3751.61 1267.63 3750.06 1270.2 3746.97C1272.78 3743.88 1274.32 3739.25 1274.32 3733.07V3710.93C1274.32 3704.75 1272.78 3700.12 1269.69 3697.03C1266.6 3693.94 1262.48 3692.4 1257.33 3692.4C1251.67 3692.4 1247.55 3693.94 1244.46 3697.03C1241.37 3700.12 1239.83 3704.75 1239.83 3710.42V3732.56C1239.83 3738.73 1241.37 3743.37 1243.94 3746.46C1247.55 3750.06 1251.67 3751.61 1257.33 3751.61Z" fill="#F9893D" fill-opacity="0.5"/>
<path d="M1261.45 3884.95V3813.39H1259.39L1248.06 3839.64H1232.1L1249.09 3802.06H1276.38V3884.95H1261.45Z" fill="#F9893D" fill-opacity="0.5"/>
<path d="M1261.45 4006.45V3934.89H1259.39L1248.06 3961.15H1232.1L1249.09 3923.56H1276.38V4006.45H1261.45Z" fill="#F9893D" fill-opacity="0.5"/>
<path d="M1261.45 4127.96V4055.88H1259.39L1248.06 4082.13H1232.1L1249.09 4044.55H1276.38V4127.96H1261.45Z" fill="#F9893D" fill-opacity="0.5"/>
<path d="M1257.33 4251.01C1247.55 4251.01 1239.83 4248.43 1233.65 4242.77C1227.98 4237.62 1224.89 4229.38 1224.89 4218.06V4197.46C1224.89 4186.65 1227.98 4178.93 1233.65 4173.26C1239.31 4167.6 1247.55 4165.03 1257.33 4165.03C1267.11 4165.03 1274.84 4167.6 1281.02 4173.26C1286.68 4178.93 1289.77 4187.17 1289.77 4197.46V4218.06C1289.77 4228.87 1286.68 4237.11 1281.02 4242.77C1275.35 4247.92 1267.63 4251.01 1257.33 4251.01ZM1257.33 4237.11C1262.99 4237.11 1267.63 4235.56 1270.2 4232.47C1272.78 4229.38 1274.32 4224.75 1274.32 4218.57V4196.43C1274.32 4190.25 1272.78 4185.62 1269.69 4182.53C1266.6 4179.44 1262.48 4177.9 1257.33 4177.9C1251.67 4177.9 1247.55 4179.44 1244.46 4182.53C1241.37 4185.62 1239.83 4190.25 1239.83 4195.92V4218.06C1239.83 4224.23 1241.37 4228.87 1243.94 4231.96C1247.55 4235.56 1251.67 4237.11 1257.33 4237.11Z" fill="#F9893D" fill-opacity="0.5"/>
<path d="M1257.33 4371.99C1247.55 4371.99 1239.83 4369.42 1233.65 4363.76C1227.98 4358.61 1224.89 4350.37 1224.89 4339.04V4318.45C1224.89 4307.64 1227.98 4299.92 1233.65 4294.25C1239.31 4288.59 1247.55 4286.02 1257.33 4286.02C1267.11 4286.02 1274.84 4288.59 1281.02 4294.25C1286.68 4299.92 1289.77 4308.15 1289.77 4318.45V4339.04C1289.77 4349.86 1286.68 4358.09 1281.02 4363.76C1275.35 4369.42 1267.63 4371.99 1257.33 4371.99ZM1257.33 4358.61C1262.99 4358.61 1267.63 4357.06 1270.2 4353.98C1272.78 4350.89 1274.32 4346.25 1274.32 4340.07V4317.94C1274.32 4311.76 1272.78 4307.12 1269.69 4304.04C1266.6 4300.95 1262.48 4299.4 1257.33 4299.4C1251.67 4299.4 1247.55 4300.95 1244.46 4304.04C1241.37 4307.12 1239.83 4311.76 1239.83 4317.42V4339.56C1239.83 4345.74 1241.37 4350.37 1243.94 4353.46C1247.55 4357.06 1251.67 4358.61 1257.33 4358.61Z" fill="#F9893D" fill-opacity="0.5"/>
<path d="M1261.45 4491.95V4420.39H1259.39L1248.06 4446.65H1232.1L1249.09 4409.06H1276.38V4491.95H1261.45Z" fill="#F9893D" fill-opacity="0.5"/>
<path d="M1257.33 4615C1247.55 4615 1239.83 4612.43 1233.65 4606.77C1227.98 4601.1 1224.89 4593.38 1224.89 4582.05V4561.46C1224.89 4550.65 1227.98 4542.92 1233.65 4537.26C1239.31 4531.6 1247.55 4529.02 1257.33 4529.02C1267.11 4529.02 1274.84 4531.6 1281.02 4537.26C1286.68 4542.92 1289.77 4551.16 1289.77 4561.46V4582.05C1289.77 4592.86 1286.68 4601.1 1281.02 4606.77C1275.35 4612.43 1267.63 4615 1257.33 4615ZM1257.33 4601.62C1262.99 4601.62 1267.63 4600.07 1270.2 4596.98C1272.78 4593.89 1274.32 4589.26 1274.32 4583.08V4560.94C1274.32 4554.77 1272.78 4550.13 1269.69 4547.04C1266.6 4543.95 1262.48 4542.41 1257.33 4542.41C1251.67 4542.41 1247.55 4543.95 1244.46 4547.04C1241.37 4550.13 1239.83 4554.77 1239.83 4560.43V4582.57C1239.83 4588.75 1241.37 4593.38 1243.94 4596.47C1247.55 4600.07 1251.67 4601.62 1257.33 4601.62Z" fill="#F9893D" fill-opacity="0.5"/>
<path opacity="0.78" d="M1261.45 4734.44V4662.88H1259.39L1248.06 4689.14H1232.1L1249.09 4651.55H1276.38V4734.44H1261.45Z" fill="#F9893D" fill-opacity="0.5"/>
<path opacity="0.78" d="M1257.33 4857.49C1247.55 4857.49 1239.83 4854.92 1233.65 4849.26C1227.98 4844.11 1224.89 4835.87 1224.89 4824.54V4803.95C1224.89 4793.14 1227.98 4785.42 1233.65 4779.75C1239.31 4774.09 1247.55 4771.52 1257.33 4771.52C1267.11 4771.52 1274.84 4774.09 1281.02 4779.75C1286.68 4785.42 1289.77 4793.65 1289.77 4803.95V4824.54C1289.77 4835.36 1286.68 4843.59 1281.02 4849.26C1275.35 4854.92 1267.63 4857.49 1257.33 4857.49ZM1257.33 4844.11C1262.99 4844.11 1267.63 4842.56 1270.2 4839.48C1272.78 4836.39 1274.32 4831.75 1274.32 4825.57V4803.44C1274.32 4797.26 1272.78 4792.62 1269.69 4789.54C1266.6 4786.45 1262.48 4784.9 1257.33 4784.9C1251.67 4784.9 1247.55 4786.45 1244.46 4789.54C1241.37 4792.62 1239.83 4797.26 1239.83 4802.92V4825.06C1239.83 4831.24 1241.37 4835.87 1243.94 4838.96C1247.55 4842.56 1251.67 4844.11 1257.33 4844.11Z" fill="#F9893D" fill-opacity="0.5"/>
<path opacity="0.78" d="M1257.33 4979C1247.55 4979 1239.83 4976.42 1233.65 4970.76C1227.98 4965.61 1224.89 4957.38 1224.89 4946.05V4925.46C1224.89 4914.64 1227.98 4906.92 1233.65 4901.26C1239.31 4895.59 1247.55 4893.02 1257.33 4893.02C1267.11 4893.02 1274.84 4895.59 1281.02 4901.26C1286.68 4906.92 1289.77 4915.16 1289.77 4925.46V4946.05C1289.77 4956.86 1286.68 4965.1 1281.02 4970.76C1275.35 4976.42 1267.63 4979 1257.33 4979ZM1257.33 4965.61C1262.99 4965.61 1267.63 4964.07 1270.2 4960.98C1272.78 4957.89 1274.32 4953.26 1274.32 4947.08V4924.94C1274.32 4918.76 1272.78 4914.13 1269.69 4911.04C1266.6 4907.95 1262.48 4906.41 1257.33 4906.41C1251.67 4906.41 1247.55 4907.95 1244.46 4911.04C1241.37 4914.13 1239.83 4918.76 1239.83 4924.43V4946.56C1239.83 4952.74 1241.37 4957.38 1243.94 4960.46C1247.55 4964.07 1251.67 4965.61 1257.33 4965.61Z" fill="#F9893D" fill-opacity="0.5"/>
<path opacity="0.78" d="M1261.45 5098.96V5027.39H1259.39L1248.06 5053.65H1232.1L1249.09 5016.07H1276.38V5098.96H1261.45Z" fill="#F9893D" fill-opacity="0.5"/>
<path opacity="0.78" d="M1257.33 5222.01C1247.55 5222.01 1239.83 5219.43 1233.65 5213.77C1227.98 5208.11 1224.89 5200.38 1224.89 5189.06V5168.46C1224.89 5157.65 1227.98 5149.93 1233.65 5144.27C1239.31 5138.6 1247.55 5136.03 1257.33 5136.03C1267.11 5136.03 1274.84 5138.6 1281.02 5144.27C1286.68 5149.93 1289.77 5158.17 1289.77 5168.46V5189.06C1289.77 5199.87 1286.68 5208.11 1281.02 5213.77C1275.35 5218.92 1267.63 5222.01 1257.33 5222.01ZM1257.33 5208.11C1262.99 5208.11 1267.63 5206.56 1270.2 5203.47C1272.78 5200.38 1274.32 5195.75 1274.32 5189.57V5167.43C1274.32 5161.25 1272.78 5156.62 1269.69 5153.53C1266.6 5150.44 1262.48 5148.9 1257.33 5148.9C1251.67 5148.9 1247.55 5150.44 1244.46 5153.53C1241.37 5156.62 1239.83 5161.25 1239.83 5166.92V5189.06C1239.83 5195.23 1241.37 5199.87 1243.94 5202.96C1247.55 5206.56 1251.67 5208.11 1257.33 5208.11Z" fill="#F9893D" fill-opacity="0.5"/>
<path opacity="0.78" d="M1261.45 5341.45V5269.89H1259.39L1248.06 5296.14H1232.1L1249.09 5258.56H1276.38V5341.45H1261.45Z" fill="#F9893D" fill-opacity="0.5"/>
<path opacity="0.78" d="M1257.33 5464.5C1247.55 5464.5 1239.83 5461.92 1233.65 5456.26C1227.98 5451.11 1224.89 5442.87 1224.89 5431.55V5410.95C1224.89 5400.14 1227.98 5392.42 1233.65 5386.76C1239.31 5381.09 1247.55 5378.52 1257.33 5378.52C1267.11 5378.52 1274.84 5381.09 1281.02 5386.76C1286.68 5392.42 1289.77 5400.66 1289.77 5410.95V5431.55C1289.77 5442.36 1286.68 5450.6 1281.02 5456.26C1275.35 5461.92 1267.63 5464.5 1257.33 5464.5ZM1257.33 5451.11C1262.99 5451.11 1267.63 5449.57 1270.2 5446.48C1272.78 5443.39 1274.32 5438.76 1274.32 5432.58V5410.44C1274.32 5404.26 1272.78 5399.63 1269.69 5396.54C1266.6 5393.45 1262.48 5391.91 1257.33 5391.91C1251.67 5391.91 1247.55 5393.45 1244.46 5396.54C1241.37 5399.63 1239.83 5404.26 1239.83 5409.93V5432.06C1239.83 5438.24 1241.37 5442.88 1243.94 5445.96C1247.55 5449.57 1251.67 5451.11 1257.33 5451.11Z" fill="#F9893D" fill-opacity="0.5"/>
<path opacity="0.78" d="M1261.45 5584.46V5512.89H1259.39L1248.06 5539.15H1232.1L1249.09 5501.57H1276.38V5584.46H1261.45Z" fill="#F9893D" fill-opacity="0.5"/>
<path opacity="0.78" d="M1257.33 5707.51C1247.55 5707.51 1239.83 5704.93 1233.65 5699.27C1227.98 5694.12 1224.89 5685.88 1224.89 5674.56V5653.96C1224.89 5643.15 1227.98 5635.43 1233.65 5629.76C1239.31 5624.1 1247.55 5621.53 1257.33 5621.53C1267.11 5621.53 1274.84 5624.1 1281.02 5629.76C1286.68 5635.43 1289.77 5643.67 1289.77 5653.96V5674.56C1289.77 5685.37 1286.68 5693.61 1281.02 5699.27C1275.35 5704.42 1267.63 5707.51 1257.33 5707.51ZM1257.33 5693.61C1262.99 5693.61 1267.63 5692.06 1270.2 5688.97C1272.78 5685.88 1274.32 5681.25 1274.32 5675.07V5652.93C1274.32 5646.75 1272.78 5642.12 1269.69 5639.03C1266.6 5635.94 1262.48 5634.4 1257.33 5634.4C1251.67 5634.4 1247.55 5635.94 1244.46 5639.03C1241.37 5642.12 1239.83 5646.75 1239.83 5652.42V5674.56C1239.83 5680.73 1241.37 5685.37 1243.94 5688.46C1247.55 5692.06 1251.67 5693.61 1257.33 5693.61Z" fill="#F9893D" fill-opacity="0.5"/>
<path opacity="0.78" d="M1261.45 5826.95V5755.38H1259.39L1248.06 5781.64H1232.1L1249.09 5744.06H1276.38V5826.95H1261.45Z" fill="#F9893D" fill-opacity="0.5"/>
</g>
<g opacity="0.18">
<path d="M1092.46 2803.77C1082.68 2803.77 1074.95 2801.2 1068.78 2795.53C1062.6 2789.87 1060.02 2782.15 1060.02 2770.82V2750.23C1060.02 2739.42 1063.11 2731.69 1068.78 2726.03C1074.44 2720.37 1082.68 2717.79 1092.46 2717.79C1102.24 2717.79 1109.97 2720.37 1116.14 2726.03C1121.81 2731.69 1124.9 2739.93 1124.9 2750.23V2770.82C1124.9 2781.63 1121.81 2789.87 1116.14 2795.53C1109.97 2801.2 1102.24 2803.77 1092.46 2803.77ZM1092.46 2790.39C1098.12 2790.39 1102.76 2788.84 1105.33 2785.75C1107.91 2782.66 1109.45 2778.03 1109.45 2771.85V2749.71C1109.45 2743.54 1107.91 2738.9 1104.82 2735.81C1101.73 2732.72 1097.61 2731.18 1092.46 2731.18C1086.8 2731.18 1082.68 2732.72 1079.59 2735.81C1076.5 2738.9 1074.95 2743.54 1074.95 2749.2V2771.34C1074.95 2777.52 1076.5 2782.15 1079.07 2785.24C1082.16 2788.84 1086.28 2790.39 1092.46 2790.39Z" fill="#F9893D" fill-opacity="0.5"/>
<path d="M1096.07 2926.82V2855.26H1094.01L1082.68 2881.51H1066.72L1083.71 2843.93H1111V2926.82H1096.07Z" fill="#F9893D" fill-opacity="0.5"/>
<path d="M1092.46 3052.44C1082.68 3052.44 1074.95 3049.87 1068.78 3044.21C1062.6 3038.54 1060.02 3030.82 1060.02 3019.49V2998.9C1060.02 2988.09 1063.11 2980.37 1068.78 2974.7C1074.44 2969.04 1082.68 2966.46 1092.46 2966.46C1102.24 2966.46 1109.97 2969.04 1116.14 2974.7C1121.81 2980.37 1124.9 2988.6 1124.9 2998.9V3019.49C1124.9 3030.31 1121.81 3038.54 1116.14 3044.21C1109.97 3049.87 1102.24 3052.44 1092.46 3052.44ZM1092.46 3039.06C1098.12 3039.06 1102.76 3037.51 1105.33 3034.42C1107.91 3031.34 1109.45 3026.7 1109.45 3020.52V2998.39C1109.45 2992.21 1107.91 2987.57 1104.82 2984.48C1101.73 2981.4 1097.61 2979.85 1092.46 2979.85C1086.8 2979.85 1082.68 2981.4 1079.59 2984.48C1076.5 2987.57 1074.95 2992.21 1074.95 2997.87V3020.01C1074.95 3026.19 1076.5 3030.82 1079.07 3033.91C1082.16 3037.51 1086.28 3039.06 1092.46 3039.06Z" fill="#F9893D" fill-opacity="0.5"/>
<path d="M1096.07 3175.49V3103.41H1094.01L1082.68 3129.67H1066.72L1083.71 3092.09H1111V3175.49H1096.07Z" fill="#F9893D" fill-opacity="0.5"/>
<path d="M1092.46 3301.11C1082.68 3301.11 1074.95 3298.54 1068.78 3292.87C1062.6 3287.21 1060.02 3279.49 1060.02 3268.16V3247.57C1060.02 3236.76 1063.11 3229.03 1068.78 3223.37C1074.44 3217.71 1082.68 3215.13 1092.46 3215.13C1102.24 3215.13 1109.97 3217.71 1116.14 3223.37C1121.81 3229.03 1124.9 3237.27 1124.9 3247.57V3268.16C1124.9 3278.97 1121.81 3287.21 1116.14 3292.87C1109.97 3298.54 1102.24 3301.11 1092.46 3301.11ZM1092.46 3287.73C1098.12 3287.73 1102.76 3286.18 1105.33 3283.09C1107.91 3280 1109.45 3275.37 1109.45 3269.19V3247.05C1109.45 3240.88 1107.91 3236.24 1104.82 3233.15C1101.73 3230.06 1097.61 3228.52 1092.46 3228.52C1086.8 3228.52 1082.68 3230.06 1079.59 3233.15C1076.5 3236.24 1074.95 3240.87 1074.95 3246.54V3268.68C1074.95 3274.85 1076.5 3279.49 1079.07 3282.58C1082.16 3286.18 1086.28 3287.73 1092.46 3287.73Z" fill="#F9893D" fill-opacity="0.5"/>
<path d="M1096.07 3424.16V3352.6H1094.01L1082.68 3378.86H1066.72L1083.71 3341.27H1111V3424.16H1096.07Z" fill="#F9893D" fill-opacity="0.5"/>
<path d="M1092.46 3549.78C1082.68 3549.78 1074.95 3547.21 1068.78 3541.55C1062.6 3535.88 1060.02 3528.16 1060.02 3516.83V3496.24C1060.02 3485.43 1063.11 3477.71 1068.78 3472.04C1074.44 3466.38 1082.68 3463.8 1092.46 3463.8C1102.24 3463.8 1109.97 3466.38 1116.14 3472.04C1121.81 3477.71 1124.9 3485.94 1124.9 3496.24V3516.83C1124.9 3527.65 1121.81 3535.88 1116.14 3541.55C1109.97 3547.21 1102.24 3549.78 1092.46 3549.78ZM1092.46 3536.4C1098.12 3536.4 1102.76 3534.85 1105.33 3531.76C1107.91 3528.68 1109.45 3524.04 1109.45 3517.86V3495.73C1109.45 3489.55 1107.91 3484.91 1104.82 3481.82C1101.73 3478.74 1097.61 3477.19 1092.46 3477.19C1086.8 3477.19 1082.68 3478.74 1079.59 3481.82C1076.5 3484.91 1074.95 3489.55 1074.95 3495.21V3517.35C1074.95 3523.53 1076.5 3528.16 1079.07 3531.25C1082.16 3534.85 1086.28 3536.4 1092.46 3536.4Z" fill="#F9893D" fill-opacity="0.5"/>
<path d="M1096.07 3672.83V3601.27H1094.01L1082.68 3627.53H1066.72L1083.71 3589.94H1111V3672.83H1096.07Z" fill="#F9893D" fill-opacity="0.5"/>
<path d="M1092.46 3798.46C1082.68 3798.46 1074.95 3795.88 1068.78 3790.22C1063.11 3785.07 1060.02 3776.83 1060.02 3765.51V3744.91C1060.02 3734.1 1063.11 3726.38 1068.78 3720.71C1074.44 3715.05 1082.68 3712.48 1092.46 3712.48C1102.24 3712.48 1109.97 3715.05 1116.14 3720.71C1121.81 3726.38 1124.9 3734.61 1124.9 3744.91V3765.51C1124.9 3776.32 1121.81 3784.56 1116.14 3790.22C1109.97 3795.88 1102.24 3798.46 1092.46 3798.46ZM1092.46 3785.07C1098.12 3785.07 1102.76 3783.53 1105.33 3780.44C1107.91 3777.35 1109.45 3772.71 1109.45 3766.54V3744.4C1109.45 3738.22 1107.91 3733.59 1104.82 3730.5C1101.73 3727.41 1097.61 3725.86 1092.46 3725.86C1086.8 3725.86 1082.68 3727.41 1079.59 3730.5C1076.5 3733.59 1074.95 3738.22 1074.95 3743.88V3766.02C1074.95 3772.2 1076.5 3776.83 1079.07 3779.92C1082.16 3783.53 1086.28 3785.07 1092.46 3785.07Z" fill="#F9893D" fill-opacity="0.5"/>
<path d="M1096.07 3921.5V3849.94H1094.01L1082.68 3876.2H1066.72L1083.71 3838.61H1111V3921.5H1096.07Z" fill="#F9893D" fill-opacity="0.5"/>
<path d="M1092.46 4047.12C1082.68 4047.12 1074.95 4044.55 1068.78 4038.89C1063.11 4033.74 1060.02 4025.5 1060.02 4014.17V3993.58C1060.02 3982.77 1063.11 3975.05 1068.78 3969.38C1074.44 3963.72 1082.68 3961.14 1092.46 3961.14C1102.24 3961.14 1109.97 3963.72 1116.14 3969.38C1121.81 3975.05 1124.9 3983.28 1124.9 3993.58V4014.17C1124.9 4024.99 1121.81 4033.22 1116.14 4038.89C1109.97 4044.55 1102.24 4047.12 1092.46 4047.12ZM1092.46 4033.74C1098.12 4033.74 1102.76 4032.19 1105.33 4029.1C1107.91 4026.02 1109.45 4021.38 1109.45 4015.2V3993.07C1109.45 3986.89 1107.91 3982.25 1104.82 3979.16C1101.73 3976.08 1097.61 3974.53 1092.46 3974.53C1086.8 3974.53 1082.68 3976.08 1079.59 3979.16C1076.5 3982.25 1074.95 3986.89 1074.95 3992.55V4014.69C1074.95 4020.87 1076.5 4025.5 1079.07 4028.59C1082.16 4032.19 1086.28 4033.74 1092.46 4033.74Z" fill="#F9893D" fill-opacity="0.5"/>
<path d="M1096.07 4170.18V4098.61H1094.01L1082.68 4124.87H1066.72L1083.71 4087.29H1111V4170.18H1096.07Z" fill="#F9893D" fill-opacity="0.5"/>
<path d="M1096.07 4294.25V4222.69H1094.01L1082.68 4248.95H1066.72L1083.71 4211.36H1111V4294.25H1096.07Z" fill="#F9893D" fill-opacity="0.5"/>
<path d="M1096.07 4418.84V4347.28H1094.01L1082.68 4373.54H1066.72L1083.71 4335.95H1111V4418.84H1096.07Z" fill="#F9893D" fill-opacity="0.5"/>
<path d="M1092.46 4544.47C1082.68 4544.47 1074.95 4541.89 1068.78 4536.23C1063.11 4530.57 1060.02 4522.84 1060.02 4511.52V4490.92C1060.02 4480.11 1063.11 4472.39 1068.78 4466.73C1074.44 4461.06 1082.68 4458.49 1092.46 4458.49C1102.24 4458.49 1109.97 4461.06 1116.14 4466.73C1121.81 4472.39 1124.9 4480.63 1124.9 4490.92V4511.52C1124.9 4522.33 1121.81 4530.57 1116.14 4536.23C1109.97 4541.89 1102.24 4544.47 1092.46 4544.47ZM1092.46 4531.08C1098.12 4531.08 1102.76 4529.54 1105.33 4526.45C1107.91 4523.36 1109.45 4518.73 1109.45 4512.55V4490.41C1109.45 4484.23 1107.91 4479.6 1104.82 4476.51C1101.73 4473.42 1097.61 4471.87 1092.46 4471.87C1086.8 4471.87 1082.68 4473.42 1079.59 4476.51C1076.5 4479.6 1074.95 4484.23 1074.95 4489.89V4512.03C1074.95 4518.21 1076.5 4522.84 1079.07 4525.93C1082.16 4529.54 1086.28 4531.08 1092.46 4531.08Z" fill="#F9893D" fill-opacity="0.5"/>
<path opacity="0.78" d="M1092.46 4669.06C1082.68 4669.06 1074.95 4666.49 1068.78 4660.82C1063.11 4655.68 1060.02 4647.44 1060.02 4636.11V4615.52C1060.02 4604.71 1063.11 4596.98 1068.78 4591.32C1074.44 4585.66 1082.68 4583.08 1092.46 4583.08C1102.24 4583.08 1109.97 4585.66 1116.14 4591.32C1121.81 4596.98 1124.9 4605.22 1124.9 4615.52V4636.11C1124.9 4646.92 1121.81 4655.16 1116.14 4660.82C1109.97 4666.49 1102.24 4669.06 1092.46 4669.06ZM1092.46 4655.68C1098.12 4655.68 1102.76 4654.13 1105.33 4651.04C1107.91 4647.95 1109.45 4643.32 1109.45 4637.14V4615C1109.45 4608.82 1107.91 4604.19 1104.82 4601.1C1101.73 4598.01 1097.61 4596.47 1092.46 4596.47C1086.8 4596.47 1082.68 4598.01 1079.59 4601.1C1076.5 4604.19 1074.95 4608.82 1074.95 4614.49V4636.63C1074.95 4642.8 1076.5 4647.44 1079.07 4650.53C1082.16 4654.13 1086.28 4655.68 1092.46 4655.68Z" fill="#F9893D" fill-opacity="0.5"/>
<path opacity="0.78" d="M1096.07 4791.59V4720.03H1094.01L1082.68 4746.29H1066.72L1083.71 4708.7H1111V4791.59H1096.07Z" fill="#F9893D" fill-opacity="0.5"/>
<path opacity="0.78" d="M1092.46 4917.73C1082.68 4917.73 1074.95 4915.15 1068.78 4909.49C1063.11 4904.34 1060.02 4896.11 1060.02 4884.78V4864.19C1060.02 4853.37 1063.11 4845.65 1068.78 4839.99C1074.44 4834.32 1082.68 4831.75 1092.46 4831.75C1102.24 4831.75 1109.97 4834.32 1116.14 4839.99C1121.81 4845.65 1124.9 4853.89 1124.9 4864.19V4884.78C1124.9 4895.59 1121.81 4903.83 1116.14 4909.49C1109.97 4915.15 1102.24 4917.73 1092.46 4917.73ZM1092.46 4904.34C1098.12 4904.34 1102.76 4902.8 1105.33 4899.71C1107.91 4896.62 1109.45 4891.99 1109.45 4885.81V4863.67C1109.45 4857.49 1107.91 4852.86 1104.82 4849.77C1101.73 4846.68 1097.61 4845.14 1092.46 4845.14C1086.8 4845.14 1082.68 4846.68 1079.59 4849.77C1076.5 4852.86 1074.95 4857.49 1074.95 4863.16V4885.29C1074.95 4891.47 1076.5 4896.11 1079.07 4899.19C1082.16 4902.8 1086.28 4904.34 1092.46 4904.34Z" fill="#F9893D" fill-opacity="0.5"/>
<path opacity="0.78" d="M1096.07 5040.27V4968.7H1094.01L1082.68 4994.96H1066.72L1083.71 4957.38H1111V5040.27H1096.07Z" fill="#F9893D" fill-opacity="0.5"/>
<path opacity="0.78" d="M1092.46 5166.4C1082.68 5166.4 1074.95 5163.83 1068.78 5158.16C1063.11 5152.5 1060.02 5144.78 1060.02 5133.45V5112.86C1060.02 5102.05 1063.11 5094.32 1068.78 5088.66C1074.44 5083 1082.68 5080.42 1092.46 5080.42C1102.24 5080.42 1109.97 5083 1116.14 5088.66C1121.81 5094.32 1124.9 5102.56 1124.9 5112.86V5133.45C1124.9 5144.26 1121.81 5152.5 1116.14 5158.16C1109.97 5163.83 1102.24 5166.4 1092.46 5166.4ZM1092.46 5153.01C1098.12 5153.01 1102.76 5151.47 1105.33 5148.38C1107.91 5145.29 1109.45 5140.66 1109.45 5134.48V5112.34C1109.45 5106.16 1107.91 5101.53 1104.82 5098.44C1101.73 5095.35 1097.61 5093.81 1092.46 5093.81C1086.8 5093.81 1082.68 5095.35 1079.59 5098.44C1076.5 5101.53 1074.95 5106.16 1074.95 5111.83V5133.97C1074.95 5140.14 1076.5 5144.78 1079.07 5147.87C1082.16 5151.47 1086.28 5153.01 1092.46 5153.01Z" fill="#F9893D" fill-opacity="0.5"/>
<path opacity="0.78" d="M1092.46 5290.48C1082.68 5290.48 1074.95 5287.9 1068.78 5282.24C1063.11 5277.09 1060.02 5268.86 1060.02 5257.53V5236.94C1060.02 5226.12 1063.11 5218.4 1068.78 5212.74C1074.44 5207.07 1082.68 5204.5 1092.46 5204.5C1102.24 5204.5 1109.97 5207.07 1116.14 5212.74C1121.81 5218.4 1124.9 5226.64 1124.9 5236.94V5257.53C1124.9 5268.34 1121.81 5276.58 1116.14 5282.24C1109.97 5287.9 1102.24 5290.48 1092.46 5290.48ZM1092.46 5277.09C1098.12 5277.09 1102.76 5275.55 1105.33 5272.46C1107.91 5269.37 1109.45 5264.74 1109.45 5258.56V5236.42C1109.45 5230.24 1107.91 5225.61 1104.82 5222.52C1101.73 5219.43 1097.61 5217.89 1092.46 5217.89C1086.8 5217.89 1082.68 5219.43 1079.59 5222.52C1076.5 5225.61 1074.95 5230.24 1074.95 5235.91V5258.04C1074.95 5264.22 1076.5 5268.86 1079.07 5271.94C1082.16 5275.55 1086.28 5277.09 1092.46 5277.09Z" fill="#F9893D" fill-opacity="0.5"/>
<path opacity="0.78" d="M1096.07 5413.53V5341.96H1094.01L1082.68 5368.22H1066.72L1083.71 5330.64H1111V5413.53H1096.07Z" fill="#F9893D" fill-opacity="0.5"/>
<path opacity="0.78" d="M1092.46 5539.15C1082.68 5539.15 1074.95 5536.58 1068.78 5530.91C1063.11 5525.77 1060.02 5517.53 1060.02 5506.2V5485.61C1060.02 5474.8 1063.11 5467.07 1068.78 5461.41C1074.44 5455.75 1082.68 5453.17 1092.46 5453.17C1102.24 5453.17 1109.97 5455.75 1116.14 5461.41C1121.81 5467.07 1124.9 5475.31 1124.9 5485.61V5506.2C1124.9 5517.01 1121.81 5525.25 1116.14 5530.91C1109.97 5536.58 1102.24 5539.15 1092.46 5539.15ZM1092.46 5525.77C1098.12 5525.77 1102.76 5524.22 1105.33 5521.13C1107.91 5518.04 1109.45 5513.41 1109.45 5507.23V5485.09C1109.45 5478.91 1107.91 5474.28 1104.82 5471.19C1101.73 5468.1 1097.61 5466.56 1092.46 5466.56C1086.8 5466.56 1082.68 5468.1 1079.59 5471.19C1076.5 5474.28 1074.95 5478.91 1074.95 5484.58V5506.72C1074.95 5512.89 1076.5 5517.53 1079.07 5520.62C1082.16 5524.22 1086.28 5525.77 1092.46 5525.77Z" fill="#F9893D" fill-opacity="0.5"/>
<path opacity="0.78" d="M1096.07 5662.2V5590.12H1094.01L1082.68 5616.38H1066.72L1083.71 5578.79H1111V5661.68H1096.07V5662.2Z" fill="#F9893D" fill-opacity="0.5"/>
<path opacity="0.78" d="M1092.46 5787.82C1082.68 5787.82 1074.95 5785.25 1068.78 5779.58C1063.11 5773.92 1060.02 5766.2 1060.02 5754.87V5734.28C1060.02 5723.46 1063.11 5715.74 1068.78 5710.08C1074.44 5704.41 1082.68 5701.84 1092.46 5701.84C1102.24 5701.84 1109.97 5704.41 1116.14 5710.08C1121.81 5715.74 1124.9 5723.98 1124.9 5734.28V5754.87C1124.9 5765.68 1121.81 5773.92 1116.14 5779.58C1109.97 5785.25 1102.24 5787.82 1092.46 5787.82ZM1092.46 5774.43C1098.12 5774.43 1102.76 5772.89 1105.33 5769.8C1107.91 5766.71 1109.45 5762.08 1109.45 5755.9V5733.76C1109.45 5727.58 1107.91 5722.95 1104.82 5719.86C1101.73 5716.77 1097.61 5715.23 1092.46 5715.23C1086.8 5715.23 1082.68 5716.77 1079.59 5719.86C1076.5 5722.95 1074.95 5727.58 1074.95 5733.25V5755.38C1074.95 5761.56 1076.5 5766.2 1079.07 5769.29C1082.16 5772.89 1086.28 5774.43 1092.46 5774.43Z" fill="#F9893D" fill-opacity="0.5"/>
<path opacity="0.78" d="M1096.07 5910.87V5839.3H1094.01L1082.68 5865.56H1066.72L1083.71 5827.98H1111V5910.87H1096.07Z" fill="#F9893D" fill-opacity="0.5"/>
<path d="M1092.46 6036.49C1082.68 6036.49 1074.95 6033.92 1068.78 6028.25C1063.11 6022.59 1060.02 6014.87 1060.02 6003.54V5982.95C1060.02 5972.14 1063.11 5964.41 1068.78 5958.75C1074.44 5953.09 1082.68 5950.51 1092.46 5950.51C1102.24 5950.51 1109.97 5953.09 1116.14 5958.75C1121.81 5964.41 1124.9 5972.65 1124.9 5982.95V6003.54C1124.9 6014.35 1121.81 6022.59 1116.14 6028.25C1109.97 6033.92 1102.24 6036.49 1092.46 6036.49ZM1092.46 6023.1C1098.12 6023.1 1102.76 6021.56 1105.33 6018.47C1107.91 6015.38 1109.45 6010.75 1109.45 6004.57V5982.43C1109.45 5976.25 1107.91 5971.62 1104.82 5968.53C1101.73 5965.44 1097.61 5963.9 1092.46 5963.9C1086.8 5963.9 1082.68 5965.44 1079.59 5968.53C1076.5 5971.62 1074.95 5976.25 1074.95 5981.92V6004.06C1074.95 6010.23 1076.5 6014.87 1079.07 6017.96C1082.16 6021.56 1086.28 6023.1 1092.46 6023.1Z" fill="#F9893D" fill-opacity="0.5"/>
<path d="M1096.07 6159.54V6087.97H1094.01L1082.68 6114.23H1066.72L1083.71 6076.65H1111V6159.54H1096.07Z" fill="#F9893D" fill-opacity="0.5"/>
</g>
<g opacity="0.18">
<path d="M182.437 86.9792C172.654 86.9792 164.931 84.4051 158.753 78.7418C153.089 73.5933 150 65.3557 150 54.0291V33.4352C150 22.6235 153.089 14.9009 158.753 9.23757C164.416 3.57426 172.654 1 182.437 1C192.219 1 199.942 3.57426 206.121 9.23757C211.784 14.9009 214.874 23.1383 214.874 33.4352V54.0291C214.874 64.8409 211.784 73.0785 206.121 78.7418C200.457 84.4051 192.734 86.9792 182.437 86.9792ZM182.437 73.5933C188.1 73.5933 192.734 72.0487 195.309 68.9596C197.883 65.8705 199.427 61.237 199.427 55.0588V32.9204C199.427 26.7422 197.883 22.1087 194.794 19.0196C191.704 15.9305 187.585 14.386 182.437 14.386C176.773 14.386 172.654 15.9305 169.565 19.0196C166.476 22.1087 164.931 26.7423 164.931 32.4056V54.544C164.931 60.7221 166.476 65.3558 169.05 68.4449C172.654 72.0488 176.773 73.5933 182.437 73.5933Z" fill="#F9893D" fill-opacity="0.5"/>
<path d="M186.555 206.939V135.376H184.495L173.168 161.633H157.207L174.198 124.049H201.486V206.939H186.555Z" fill="#F9893D" fill-opacity="0.5"/>
<path d="M182.437 329.987C172.654 329.987 164.931 327.413 158.753 321.75C153.089 316.086 150 308.364 150 297.037V276.443C150 265.631 153.089 257.909 158.753 252.246C164.416 246.582 172.654 244.008 182.437 244.008C192.219 244.008 199.942 246.582 206.121 252.246C211.784 257.909 214.874 266.146 214.874 276.443V297.037C214.874 307.849 211.784 316.086 206.121 321.75C200.457 326.898 192.734 329.987 182.437 329.987ZM182.437 316.086C188.1 316.086 192.734 314.542 195.309 311.453C197.883 308.364 199.427 303.73 199.427 297.552V275.414C199.427 269.235 197.883 264.602 194.794 261.513C191.704 258.424 187.585 256.879 182.437 256.879C176.773 256.879 172.654 258.424 169.565 261.513C166.476 264.602 164.931 269.235 164.931 274.899V297.037C164.931 303.215 166.476 307.849 169.05 310.938C172.654 314.542 176.773 316.086 182.437 316.086Z" fill="#F9893D" fill-opacity="0.5"/>
<path d="M186.555 449.431V377.868H184.495L173.168 404.125H157.207L174.198 366.541H201.486V449.431H186.555Z" fill="#F9893D" fill-opacity="0.5"/>
<path d="M182.437 572.479C172.654 572.479 164.931 569.905 158.753 564.242C153.089 559.093 150 550.856 150 539.529V518.935C150 508.123 153.089 500.401 158.753 494.737C164.416 489.074 172.654 486.5 182.437 486.5C192.219 486.5 199.942 489.074 206.121 494.737C211.784 500.401 214.874 508.638 214.874 518.935V539.529C214.874 550.341 211.784 558.578 206.121 564.242C200.457 569.905 192.734 572.479 182.437 572.479ZM182.437 559.093C188.1 559.093 192.734 557.549 195.309 554.459C197.883 551.37 199.427 546.737 199.427 540.559V518.42C199.427 512.242 197.883 507.609 194.794 504.52C191.704 501.431 187.585 499.886 182.437 499.886C176.773 499.886 172.654 501.431 169.565 504.52C166.476 507.609 164.931 512.242 164.931 517.905V540.044C164.931 546.222 166.476 550.856 169.05 553.945C172.654 557.549 176.773 559.093 182.437 559.093Z" fill="#F9893D" fill-opacity="0.5"/>
<path d="M186.555 692.439V620.876H184.495L173.168 647.133H157.207L174.198 609.549H201.486V692.439H186.555Z" fill="#F9893D" fill-opacity="0.5"/>
<path d="M182.437 815.487C172.654 815.487 164.931 812.913 158.753 807.25C153.089 802.101 150 793.864 150 782.537V761.943C150 751.132 153.089 743.409 158.753 737.746C164.416 732.082 172.654 729.508 182.437 729.508C192.219 729.508 199.942 732.082 206.121 737.746C211.784 743.409 214.874 751.646 214.874 761.943V782.537C214.874 793.349 211.784 801.586 206.121 807.25C200.457 812.398 192.734 815.487 182.437 815.487ZM182.437 801.586C188.1 801.586 192.734 800.042 195.309 796.953C197.883 793.864 199.427 789.23 199.427 783.052V760.914C199.427 754.735 197.883 750.102 194.794 747.013C191.704 743.924 187.585 742.379 182.437 742.379C176.773 742.379 172.654 743.924 169.565 747.013C166.476 750.102 164.931 754.735 164.931 760.399V782.537C164.931 788.715 166.476 793.349 169.05 796.438C172.654 800.042 176.773 801.586 182.437 801.586Z" fill="#F9893D" fill-opacity="0.5"/>
<path d="M186.555 934.931V863.367H184.495L173.168 889.625H157.207L174.198 852.041H201.486V934.931H186.555Z" fill="#F9893D" fill-opacity="0.5"/>
<path d="M182.437 1057.98C172.654 1057.98 164.931 1055.4 158.753 1049.74C153.089 1044.08 150 1036.36 150 1025.03V1004.44C150 993.623 153.089 985.901 158.753 980.237C164.416 974.574 172.654 972 182.437 972C192.219 972 199.942 974.574 206.121 980.237C211.784 985.901 214.874 994.138 214.874 1004.44V1025.03C214.874 1035.84 211.784 1044.08 206.121 1049.74C200.457 1055.4 192.734 1057.98 182.437 1057.98ZM182.437 1044.59C188.1 1044.59 192.734 1043.05 195.309 1039.96C197.883 1036.87 199.427 1032.24 199.427 1026.06V1003.92C199.427 997.742 197.883 993.109 194.794 990.02C191.704 986.931 187.585 985.386 182.437 985.386C176.773 985.386 172.654 986.931 169.565 990.02C166.476 993.109 164.931 997.742 164.931 1003.41V1025.54C164.931 1031.72 166.476 1036.36 169.05 1039.44C172.654 1043.05 176.773 1044.59 182.437 1044.59Z" fill="#F9893D" fill-opacity="0.5"/>
<path d="M186.555 1177.94V1106.37H184.495L173.168 1132.63H157.207L174.198 1095.05H201.486V1177.94H186.555Z" fill="#F9893D" fill-opacity="0.5"/>
<path d="M182.437 1300.99C172.654 1300.99 164.931 1298.41 158.753 1292.75C153.089 1287.6 150 1279.36 150 1268.04V1247.44C150 1236.63 153.089 1228.91 158.753 1223.25C164.416 1217.58 172.654 1215.01 182.437 1215.01C192.219 1215.01 199.942 1217.58 206.121 1223.25C211.784 1228.91 214.874 1237.15 214.874 1247.44V1268.04C214.874 1278.85 211.784 1287.09 206.121 1292.75C200.457 1297.9 192.734 1300.99 182.437 1300.99ZM182.437 1287.09C188.1 1287.09 192.734 1285.54 195.309 1282.45C197.883 1279.36 199.427 1274.73 199.427 1268.55V1246.41C199.427 1240.24 197.883 1235.6 194.794 1232.51C191.704 1229.42 187.585 1227.88 182.437 1227.88C176.773 1227.88 172.654 1229.42 169.565 1232.51C166.476 1235.6 164.931 1240.24 164.931 1245.9V1268.04C164.931 1274.22 166.476 1278.85 169.05 1281.94C172.654 1285.54 176.773 1287.09 182.437 1287.09Z" fill="#F9893D" fill-opacity="0.5"/>
<path d="M186.555 1420.43V1348.87H184.495L173.168 1375.12H157.207L174.198 1337.54H201.486V1420.43H186.555Z" fill="#F9893D" fill-opacity="0.5"/>
<path d="M186.555 1541.94V1470.37H184.495L173.168 1496.63H157.207L174.198 1459.04H201.486V1541.94H186.555Z" fill="#F9893D" fill-opacity="0.5"/>
<path d="M186.555 1663.44V1591.36H184.495L173.168 1617.62H157.207L174.198 1580.03H201.486V1663.44H186.555Z" fill="#F9893D" fill-opacity="0.5"/>
<path d="M182.437 1786.49C172.654 1786.49 164.931 1783.91 158.753 1778.25C153.089 1773.1 150 1764.86 150 1753.54V1732.94C150 1722.13 153.089 1714.41 158.753 1708.75C164.416 1703.08 172.654 1700.51 182.437 1700.51C192.219 1700.51 199.942 1703.08 206.121 1708.75C211.784 1714.41 214.874 1722.65 214.874 1732.94V1753.54C214.874 1764.35 211.784 1772.59 206.121 1778.25C200.457 1783.4 192.734 1786.49 182.437 1786.49ZM182.437 1772.59C188.1 1772.59 192.734 1771.04 195.309 1767.95C197.883 1764.86 199.427 1760.23 199.427 1754.05V1731.91C199.427 1725.74 197.883 1721.1 194.794 1718.01C191.704 1714.92 187.585 1713.38 182.437 1713.38C176.773 1713.38 172.654 1714.92 169.565 1718.01C166.476 1721.1 164.931 1725.74 164.931 1731.4V1753.54C164.931 1759.72 166.476 1764.35 169.05 1767.44C172.654 1771.04 176.773 1772.59 182.437 1772.59Z" fill="#F9893D" fill-opacity="0.5"/>
<path d="M182.437 1907.48C172.654 1907.48 164.931 1904.9 158.753 1899.24C153.089 1894.09 150 1885.85 150 1874.53V1853.93C150 1843.12 153.089 1835.4 158.753 1829.73C164.416 1824.07 172.654 1821.5 182.437 1821.5C192.219 1821.5 199.942 1824.07 206.121 1829.73C211.784 1835.4 214.874 1843.63 214.874 1853.93V1874.53C214.874 1885.34 211.784 1893.57 206.121 1899.24C200.457 1904.9 192.734 1907.48 182.437 1907.48ZM182.437 1894.09C188.1 1894.09 192.734 1892.54 195.309 1889.46C197.883 1886.37 199.427 1881.73 199.427 1875.55V1853.42C199.427 1847.24 197.883 1842.6 194.794 1839.52C191.704 1836.43 187.585 1834.88 182.437 1834.88C176.773 1834.88 172.654 1836.43 169.565 1839.52C166.476 1842.6 164.931 1847.24 164.931 1852.9V1875.04C164.931 1881.22 166.476 1885.85 169.05 1888.94C172.654 1892.54 176.773 1894.09 182.437 1894.09Z" fill="#F9893D" fill-opacity="0.5"/>
<path d="M186.555 2027.44V1955.87H184.495L173.168 1982.13H157.207L174.198 1944.54H201.486V2027.44H186.555Z" fill="#F9893D" fill-opacity="0.5"/>
<path d="M182.437 2150.48C172.654 2150.48 164.931 2147.91 158.753 2142.25C153.089 2136.58 150 2128.86 150 2117.53V2096.94C150 2086.13 153.089 2078.4 158.753 2072.74C164.416 2067.08 172.654 2064.5 182.437 2064.5C192.219 2064.5 199.942 2067.08 206.121 2072.74C211.784 2078.4 214.874 2086.64 214.874 2096.94V2117.53C214.874 2128.34 211.784 2136.58 206.121 2142.25C200.457 2147.91 192.734 2150.48 182.437 2150.48ZM182.437 2137.1C188.1 2137.1 192.734 2135.55 195.309 2132.46C197.883 2129.37 199.427 2124.74 199.427 2118.56V2096.42C199.427 2090.25 197.883 2085.61 194.794 2082.52C191.704 2079.43 187.585 2077.89 182.437 2077.89C176.773 2077.89 172.654 2079.43 169.565 2082.52C166.476 2085.61 164.931 2090.25 164.931 2095.91V2118.05C164.931 2124.23 166.476 2128.86 169.05 2131.95C172.654 2135.55 176.773 2137.1 182.437 2137.1Z" fill="#F9893D" fill-opacity="0.5"/>
<path opacity="0.78" d="M186.555 2269.93V2198.36H184.495L173.168 2224.62H157.207L174.198 2187.04H201.486V2269.93H186.555Z" fill="#F9893D" fill-opacity="0.5"/>
<path opacity="0.78" d="M182.437 2392.98C172.654 2392.98 164.931 2390.4 158.753 2384.74C153.089 2379.59 150 2371.35 150 2360.03V2339.43C150 2328.62 153.089 2320.9 158.753 2315.23C164.416 2309.57 172.654 2307 182.437 2307C192.219 2307 199.942 2309.57 206.121 2315.23C211.784 2320.9 214.874 2329.13 214.874 2339.43V2360.03C214.874 2370.84 211.784 2379.07 206.121 2384.74C200.457 2390.4 192.734 2392.98 182.437 2392.98ZM182.437 2379.59C188.1 2379.59 192.734 2378.04 195.309 2374.96C197.883 2371.87 199.427 2367.23 199.427 2361.05V2338.92C199.427 2332.74 197.883 2328.1 194.794 2325.02C191.704 2321.93 187.585 2320.38 182.437 2320.38C176.773 2320.38 172.654 2321.93 169.565 2325.02C166.476 2328.1 164.931 2332.74 164.931 2338.4V2360.54C164.931 2366.72 166.476 2371.35 169.05 2374.44C172.654 2378.04 176.773 2379.59 182.437 2379.59Z" fill="#F9893D" fill-opacity="0.5"/>
<path opacity="0.78" d="M182.437 2514.48C172.654 2514.48 164.931 2511.91 158.753 2506.24C153.089 2501.09 150 2492.86 150 2481.53V2460.94C150 2450.12 153.089 2442.4 158.753 2436.74C164.416 2431.07 172.654 2428.5 182.437 2428.5C192.219 2428.5 199.942 2431.07 206.121 2436.74C211.784 2442.4 214.874 2450.64 214.874 2460.94V2481.53C214.874 2492.34 211.784 2500.58 206.121 2506.24C200.457 2511.91 192.734 2514.48 182.437 2514.48ZM182.437 2501.09C188.1 2501.09 192.734 2499.55 195.309 2496.46C197.883 2493.37 199.427 2488.74 199.427 2482.56V2460.42C199.427 2454.24 197.883 2449.61 194.794 2446.52C191.704 2443.43 187.585 2441.89 182.437 2441.89C176.773 2441.89 172.654 2443.43 169.565 2446.52C166.476 2449.61 164.931 2454.24 164.931 2459.91V2482.04C164.931 2488.22 166.476 2492.86 169.05 2495.95C172.654 2499.55 176.773 2501.09 182.437 2501.09Z" fill="#F9893D" fill-opacity="0.5"/>
<path opacity="0.78" d="M186.555 2634.44V2562.87H184.495L173.168 2589.13H157.207L174.198 2551.55H201.486V2634.44H186.555Z" fill="#F9893D" fill-opacity="0.5"/>
<path opacity="0.78" d="M182.437 2757.49C172.654 2757.49 164.931 2754.91 158.753 2749.25C153.089 2743.59 150 2735.86 150 2724.54V2703.94C150 2693.13 153.089 2685.41 158.753 2679.75C164.416 2674.08 172.654 2671.51 182.437 2671.51C192.219 2671.51 199.942 2674.08 206.121 2679.75C211.784 2685.41 214.874 2693.65 214.874 2703.94V2724.54C214.874 2735.35 211.784 2743.59 206.121 2749.25C200.457 2754.4 192.734 2757.49 182.437 2757.49ZM182.437 2743.59C188.1 2743.59 192.734 2742.04 195.309 2738.95C197.883 2735.86 199.427 2731.23 199.427 2725.05V2702.91C199.427 2696.74 197.883 2692.1 194.794 2689.01C191.704 2685.92 187.585 2684.38 182.437 2684.38C176.773 2684.38 172.654 2685.92 169.565 2689.01C166.476 2692.1 164.931 2696.74 164.931 2702.4V2724.54C164.931 2730.72 166.476 2735.35 169.05 2738.44C172.654 2742.04 176.773 2743.59 182.437 2743.59Z" fill="#F9893D" fill-opacity="0.5"/>
<path opacity="0.78" d="M186.555 2876.93V2805.37H184.495L173.168 2831.62H157.207L174.198 2794.04H201.486V2876.93H186.555Z" fill="#F9893D" fill-opacity="0.5"/>
<path opacity="0.78" d="M182.437 2999.98C172.654 2999.98 164.931 2997.4 158.753 2991.74C153.089 2986.59 150 2978.36 150 2967.03V2946.43C150 2935.62 153.089 2927.9 158.753 2922.24C164.416 2916.57 172.654 2914 182.437 2914C192.219 2914 199.942 2916.57 206.121 2922.24C211.784 2927.9 214.874 2936.14 214.874 2946.43V2967.03C214.874 2977.84 211.784 2986.08 206.121 2991.74C200.457 2997.4 192.734 2999.98 182.437 2999.98ZM182.437 2986.59C188.1 2986.59 192.734 2985.05 195.309 2981.96C197.883 2978.87 199.427 2974.24 199.427 2968.06V2945.92C199.427 2939.74 197.883 2935.11 194.794 2932.02C191.704 2928.93 187.585 2927.39 182.437 2927.39C176.773 2927.39 172.654 2928.93 169.565 2932.02C166.476 2935.11 164.931 2939.74 164.931 2945.41V2967.54C164.931 2973.72 166.476 2978.36 169.05 2981.44C172.654 2985.05 176.773 2986.59 182.437 2986.59Z" fill="#F9893D" fill-opacity="0.5"/>
<path opacity="0.78" d="M186.555 3119.94V3048.37H184.495L173.168 3074.63H157.207L174.198 3037.05H201.486V3119.94H186.555Z" fill="#F9893D" fill-opacity="0.5"/>
<path opacity="0.78" d="M182.437 3242.99C172.654 3242.99 164.931 3240.41 158.753 3234.75C153.089 3229.6 150 3221.36 150 3210.04V3189.44C150 3178.63 153.089 3170.91 158.753 3165.25C164.416 3159.58 172.654 3157.01 182.437 3157.01C192.219 3157.01 199.942 3159.58 206.121 3165.25C211.784 3170.91 214.874 3179.15 214.874 3189.44V3210.04C214.874 3220.85 211.784 3229.09 206.121 3234.75C200.457 3239.9 192.734 3242.99 182.437 3242.99ZM182.437 3229.09C188.1 3229.09 192.734 3227.54 195.309 3224.45C197.883 3221.36 199.427 3216.73 199.427 3210.55V3188.41C199.427 3182.24 197.883 3177.6 194.794 3174.51C191.704 3171.42 187.585 3169.88 182.437 3169.88C176.773 3169.88 172.654 3171.42 169.565 3174.51C166.476 3177.6 164.931 3182.24 164.931 3187.9V3210.04C164.931 3216.22 166.476 3220.85 169.05 3223.94C172.654 3227.54 176.773 3229.09 182.437 3229.09Z" fill="#F9893D" fill-opacity="0.5"/>
<path opacity="0.78" d="M186.555 3362.43V3290.87H184.495L173.168 3317.12H157.207L174.198 3279.54H201.486V3362.43H186.555Z" fill="#F9893D" fill-opacity="0.5"/>
</g>
</g>
<g clip-path="url(#clip1_255_6686)">
<g clip-path="url(#clip2_255_6686)">
<rect width="1459.13" height="717.595" transform="matrix(0.990317 -0.138822 0 1 -5 4788.56)" fill="#181818"/>
<path d="M950 5263L1440 5263V5303L946 5303L950 5263Z" fill="#F96B31"/>
</g>
<rect width="490.185" height="40" transform="matrix(0.990779 -0.135486 0.0311794 0.999514 -0.316406 4745.41)" fill="#F96B31"/>
<rect width="160.881" height="40" transform="matrix(0.990779 -0.135486 0.0311794 0.999514 257.707 4679.33)" fill="#F9893D"/>
</g>
<defs>
<clipPath id="clip0_255_6686">
<rect width="1440" height="6788" fill="white" transform="translate(0 1)"/>
</clipPath>
<clipPath id="clip1_255_6686">
<rect width="1440" height="723" fill="white" transform="translate(0 4586)"/>
</clipPath>
<clipPath id="clip2_255_6686">
<rect width="1459.13" height="717.595" fill="white" transform="matrix(0.990317 -0.138822 0 1 -5 4788.56)"/>
</clipPath>
</defs>
</svg>
