<svg width="116" height="100" viewBox="0 0 116 100" fill="none" xmlns="http://www.w3.org/2000/svg">
<path d="M29.1876 0.5L86.4089 0.5L115.019 50L86.4089 99.5H29.1876L0.577509 50L29.1876 0.5Z" fill="#181818" stroke="#D6B88D"/>
<path fill-rule="evenodd" clip-rule="evenodd" d="M50.1902 29.8003C48.0595 29.8003 46.991 32.3817 48.497 33.8882C48.6302 34.0216 48.7051 34.2023 48.7051 34.3908C48.7051 34.5793 48.6302 34.7601 48.497 34.8934L46.9664 36.4241C46.8331 36.5573 46.6523 36.6322 46.4638 36.6322C46.2753 36.6322 46.0945 36.5573 45.9612 36.4241C44.4546 34.9175 41.8733 35.9866 41.8733 38.1174C41.8733 38.3059 41.7984 38.4867 41.6651 38.6201C41.5318 38.7534 41.351 38.8283 41.1624 38.8283H38.9991C38.8106 38.8283 38.6297 38.7534 38.4964 38.6201C38.3631 38.4867 38.2882 38.3059 38.2882 38.1174C38.2882 35.9846 35.7087 34.9155 34.2003 36.4241C34.067 36.5573 33.8862 36.6322 33.6977 36.6322C33.5092 36.6322 33.3284 36.5573 33.1951 36.4241L31.6651 34.8935C31.5319 34.7602 31.457 34.5794 31.457 34.391C31.457 34.2025 31.5319 34.0217 31.6651 33.8884C33.1717 32.3817 32.1026 29.8005 29.9718 29.8005C29.7833 29.8005 29.6025 29.7256 29.4691 29.5923C29.3358 29.4589 29.2609 29.2781 29.2609 29.0895V26.9257C29.2609 26.7371 29.3358 26.5563 29.4691 26.423C29.6025 26.2897 29.7833 26.2148 29.9718 26.2148C32.1026 26.2148 33.1717 23.6334 31.6651 22.1269C31.5318 21.9936 31.4569 21.8127 31.4569 21.6242C31.4569 21.4357 31.5318 21.2549 31.6651 21.1216L33.1953 19.5917C33.3286 19.4585 33.5093 19.3836 33.6978 19.3836C33.8863 19.3836 34.0671 19.4585 34.2004 19.5917C35.7071 21.0983 38.2883 20.0292 38.2883 17.8984C38.2883 17.7099 38.3632 17.5291 38.4965 17.3957C38.6299 17.2624 38.8107 17.1875 38.9992 17.1875H41.1631C41.3516 17.1875 41.5325 17.2624 41.6658 17.3957C41.7991 17.5291 41.874 17.7099 41.874 17.8984C41.874 20.0292 44.4553 21.0983 45.9619 19.5917C46.0952 19.4585 46.276 19.3836 46.4645 19.3836C46.653 19.3836 46.8338 19.4585 46.9671 19.5917L48.4976 21.1219C48.6309 21.2552 48.7058 21.436 48.7058 21.6245C48.7058 21.813 48.6309 21.9938 48.4976 22.1271C46.9911 23.6337 48.0601 26.215 50.1909 26.215C50.3794 26.215 50.5603 26.2899 50.6936 26.4233C50.8269 26.5566 50.9018 26.7374 50.9018 26.926V29.0898C50.9018 29.2784 50.8269 29.4592 50.6936 29.5925C50.5603 29.7259 50.3788 29.8003 50.1902 29.8003ZM41.0847 80.6899L36.3444 82.6587C35.8491 82.8633 35.2929 82.8634 34.7974 82.659C34.302 82.4546 33.9077 82.0623 33.7007 81.5679C31.0251 75.1426 28.3494 68.7176 25.6737 62.2928C25.5703 62.0475 25.5166 61.7842 25.5156 61.518C25.5147 61.2518 25.5664 60.9881 25.6679 60.742C25.7695 60.496 25.9187 60.2725 26.1071 60.0844C26.2955 59.8964 26.5193 59.7475 26.7655 59.6465L31.5058 57.6777C32.0011 57.4731 32.5573 57.4729 33.0527 57.6773C33.5482 57.8817 33.9425 58.274 34.1494 58.7683C36.8251 65.1933 39.5008 71.6183 42.1764 78.0433C42.2798 78.2886 42.3335 78.5519 42.3345 78.8181C42.3355 79.0843 42.2838 79.348 42.1823 79.594C42.0808 79.8401 41.9315 80.0636 41.7431 80.2516C41.5548 80.4396 41.331 80.5889 41.0847 80.6899ZM59.472 75.6149C62.0752 76.3707 65.4711 75.0492 68.1649 74.0008C74.5245 71.5262 80.9031 69.0906 87.2712 66.6366C88.7599 66.0624 89.8336 64.5817 90.1136 63.0844C90.3128 62.0199 90.1059 60.9285 89.2069 60.2424C88.081 59.3833 85.9409 59.1278 82.4303 60.1577L70.0471 63.7905C70.0827 64.359 70.0349 64.9297 69.9053 65.4844C69.3389 68.1655 66.1456 69.8711 63.5301 69.1703L51.7007 66.0006C51.457 65.9341 51.2495 65.7738 51.1236 65.5548C50.9977 65.3358 50.9636 65.0758 51.0288 64.8318C51.094 64.5877 51.2532 64.3794 51.4716 64.2524C51.6899 64.1253 51.9497 64.0899 52.1941 64.1538L64.075 67.3374C64.4881 67.4546 64.9204 67.4884 65.3467 67.437C65.773 67.3856 66.1849 67.25 66.5583 67.038C66.9318 66.826 67.2594 66.5419 67.522 66.2022C67.7847 65.8626 67.9773 65.474 68.0885 65.0593C68.1997 64.6445 68.2274 64.2118 68.1699 63.7862C68.1124 63.3607 67.9709 62.9508 67.7536 62.5804C67.5363 62.2101 67.2475 61.8866 66.9041 61.6288C66.5607 61.371 66.1695 61.184 65.7532 61.0787L56.8131 58.6831C56.7031 58.6533 56.5992 58.6039 56.5066 58.5374C53.6492 56.5112 51.5325 55.7769 49.5943 55.827C47.6431 55.8771 45.7493 56.7293 43.4282 57.8647C41.2762 58.9175 39.1819 59.9183 37.1101 60.8999L42.648 74.1977L44.7782 73.1619C46.2766 72.4081 48.0079 72.2611 49.6119 72.7518L59.472 75.6149ZM85.0543 18.1568L86.3121 21.3526C86.3399 21.4258 86.3884 21.4894 86.4517 21.5354C86.5151 21.5814 86.5905 21.6079 86.6687 21.6117L90.0971 21.8212C90.1793 21.8261 90.2582 21.8556 90.3234 21.906C90.3887 21.9563 90.4372 22.0252 90.4627 22.1036C90.4883 22.1819 90.4896 22.2661 90.4666 22.3453C90.4435 22.4244 90.3972 22.4947 90.3336 22.5471L87.6831 24.7315C87.622 24.7805 87.5765 24.8462 87.5522 24.9207C87.5279 24.9952 87.5259 25.0751 87.5464 25.1507L88.4068 28.476C88.4274 28.5557 88.4235 28.6397 88.3957 28.7172C88.3679 28.7947 88.3174 28.862 88.2508 28.9104C88.1842 28.9588 88.1045 28.986 88.0223 28.9885C87.94 28.991 87.8588 28.9687 87.7894 28.9245L84.8927 27.0788C84.8272 27.0359 84.7506 27.013 84.6723 27.013C84.594 27.013 84.5174 27.0359 84.4519 27.0788L81.5553 28.9245C81.4858 28.9687 81.4047 28.991 81.3224 28.9885C81.2401 28.986 81.1605 28.9588 81.0939 28.9104C81.0273 28.862 80.9768 28.7947 80.949 28.7172C80.9211 28.6397 80.9173 28.5557 80.9379 28.476L81.7981 25.1507C81.8186 25.0751 81.8166 24.9951 81.7923 24.9207C81.768 24.8462 81.7225 24.7805 81.6614 24.7315L79.0118 22.5471C78.9482 22.4948 78.902 22.4245 78.8789 22.3454C78.8559 22.2664 78.8572 22.1823 78.8826 22.104C78.9081 22.0256 78.9565 21.9568 79.0216 21.9064C79.0867 21.856 79.1654 21.8263 79.2476 21.8213L82.676 21.6119C82.7542 21.6081 82.8296 21.5816 82.893 21.5355C82.9563 21.4895 83.0049 21.426 83.0327 21.3528L84.2905 18.157C84.3207 18.0804 84.3732 18.0147 84.4413 17.9683C84.5093 17.922 84.5897 17.8972 84.6721 17.8972C84.7544 17.8972 84.8348 17.922 84.9029 17.9683C84.9709 18.0147 85.0241 18.0802 85.0543 18.1568ZM67.4496 55.8942H64.5866C64.4631 55.8942 64.3408 55.8699 64.2267 55.8227C64.1126 55.7754 64.009 55.7062 63.9216 55.6189C63.8343 55.5316 63.7651 55.4279 63.7178 55.3138C63.6705 55.1998 63.6462 55.0775 63.6462 54.954C63.6462 52.1313 60.2334 50.7178 58.2376 52.7136C58.0612 52.89 57.822 52.989 57.5726 52.989C57.3232 52.989 57.084 52.89 56.9076 52.7136L54.8831 50.6891C54.7068 50.5127 54.6078 50.2735 54.6078 50.0241C54.6078 49.7748 54.7068 49.5356 54.8831 49.3592C56.8764 47.3658 55.462 43.9505 52.6428 43.9505C52.3934 43.9505 52.1542 43.8514 51.9779 43.675C51.8015 43.4987 51.7025 43.2595 51.7025 43.0101V40.1471C51.7025 39.8977 51.8015 39.6585 51.9779 39.4822C52.1542 39.3058 52.3934 39.2067 52.6428 39.2067C55.462 39.2067 56.8764 35.7914 54.8831 33.798C54.7068 33.6216 54.6078 33.3824 54.6078 33.1331C54.6078 32.8837 54.7068 32.6445 54.8831 32.4681L56.9076 30.4436C57.084 30.2673 57.3232 30.1682 57.5726 30.1682C57.822 30.1682 58.0612 30.2673 58.2376 30.4436C60.231 32.437 63.6462 31.0225 63.6462 28.2033C63.6462 27.9539 63.7453 27.7148 63.9216 27.5384C64.098 27.3621 64.3372 27.263 64.5866 27.263H67.4496C67.5731 27.263 67.6954 27.2872 67.8095 27.3345C67.9237 27.3817 68.0273 27.451 68.1147 27.5383C68.202 27.6256 68.2713 27.7293 68.3186 27.8434C68.3659 27.9575 68.3902 28.0798 68.3902 28.2033C68.3902 31.0225 71.8056 32.437 73.7989 30.4436C73.8863 30.3563 73.9899 30.287 74.104 30.2398C74.2181 30.1925 74.3404 30.1682 74.4639 30.1682C74.5874 30.1682 74.7096 30.1925 74.8237 30.2398C74.9378 30.287 75.0415 30.3563 75.1288 30.4436L77.1533 32.4681C77.2407 32.5555 77.3099 32.6591 77.3572 32.7732C77.4044 32.8873 77.4288 33.0096 77.4288 33.1331C77.4288 33.2566 77.4044 33.3788 77.3572 33.4929C77.3099 33.607 77.2407 33.7107 77.1533 33.798C75.1601 35.7914 76.5746 39.2067 79.3938 39.2067C79.6431 39.2067 79.8823 39.3058 80.0587 39.4822C80.235 39.6585 80.3341 39.8977 80.3341 40.1471V43.0101C80.3341 43.2595 80.235 43.4987 80.0587 43.675C79.8823 43.8514 79.6431 43.9505 79.3938 43.9505C76.5746 43.9505 75.1601 47.3658 77.1533 49.3592C77.2407 49.4465 77.3099 49.5502 77.3572 49.6643C77.4044 49.7784 77.4288 49.9006 77.4288 50.0241C77.4288 50.1476 77.4044 50.2699 77.3572 50.384C77.3099 50.4981 77.2407 50.6017 77.1533 50.6891L75.1288 52.7136C75.0415 52.8009 74.9378 52.8702 74.8237 52.9174C74.7096 52.9647 74.5874 52.989 74.4639 52.989C74.3404 52.989 74.2181 52.9647 74.104 52.9174C73.9899 52.8702 73.8863 52.8009 73.7989 52.7136C71.8053 50.7204 68.3902 52.1347 68.3902 54.954C68.3902 55.0775 68.3659 55.1998 68.3186 55.3138C68.2714 55.4279 68.2021 55.5316 68.1148 55.6189C68.0275 55.7062 67.9238 55.7754 67.8097 55.8227C67.6956 55.8699 67.5731 55.8942 67.4496 55.8942ZM66.0181 33.67C64.454 33.6701 62.925 34.1341 61.6245 35.0032C60.324 35.8723 59.3104 37.1075 58.7119 38.5526C58.1134 39.9977 57.9569 41.5879 58.2621 43.122C58.5673 44.6561 59.3206 46.0652 60.4267 47.1712C61.5328 48.2772 62.942 49.0303 64.4762 49.3354C66.0103 49.6405 67.6004 49.4838 69.0455 48.8852C70.4906 48.2865 71.7257 47.2728 72.5947 45.9722C73.4636 44.6716 73.9274 43.1426 73.9273 41.5784C73.9273 40.5398 73.7228 39.5114 73.3253 38.5519C72.9279 37.5924 72.3453 36.7206 71.6109 35.9862C70.8765 35.2518 70.0047 34.6693 69.0452 34.2719C68.0857 33.8744 67.0567 33.67 66.0181 33.67ZM33.7259 42.9628L34.9837 46.1586C35.0113 46.2319 35.0598 46.2956 35.1232 46.3417C35.1865 46.3879 35.262 46.4145 35.3402 46.4184L38.7686 46.6277C38.8508 46.6327 38.9295 46.6624 38.9946 46.7128C39.0597 46.7632 39.1081 46.832 39.1336 46.9103C39.159 46.9886 39.1603 47.0728 39.1373 47.1518C39.1142 47.2309 39.068 47.3012 39.0044 47.3535L36.3547 49.5375C36.2936 49.5865 36.248 49.6522 36.2238 49.7267C36.1995 49.8012 36.1975 49.8812 36.218 49.9568L37.0788 53.2815C37.0994 53.3612 37.0955 53.4453 37.0677 53.5228C37.0399 53.6004 36.9893 53.6677 36.9227 53.7161C36.8561 53.7645 36.7764 53.7917 36.6941 53.7942C36.6118 53.7967 36.5306 53.7744 36.4612 53.7301L33.5647 51.8844C33.4992 51.8415 33.4226 51.8187 33.3443 51.8187C33.266 51.8187 33.1894 51.8415 33.1239 51.8844L30.2272 53.7301C30.1578 53.7744 30.0766 53.7967 29.9943 53.7942C29.912 53.7917 29.8323 53.7645 29.7657 53.7161C29.6991 53.6677 29.6486 53.6004 29.6207 53.5228C29.5929 53.4453 29.589 53.3612 29.6097 53.2815L30.47 49.9564C30.4906 49.8808 30.4886 49.8008 30.4643 49.7263C30.44 49.6518 30.3945 49.586 30.3333 49.5371L27.6833 47.353C27.6198 47.3006 27.5735 47.2303 27.5505 47.1513C27.5274 47.0722 27.5287 46.9881 27.5542 46.9098C27.5796 46.8315 27.628 46.7627 27.6931 46.7122C27.7582 46.6618 27.837 46.6322 27.9191 46.6271L31.3475 46.4182C31.4258 46.4144 31.5012 46.3877 31.5646 46.3416C31.6279 46.2955 31.6764 46.2318 31.7041 46.1585L32.9619 42.9627C32.992 42.886 33.0446 42.8203 33.1126 42.7739C33.1807 42.7275 33.2612 42.7028 33.3435 42.7028C33.4259 42.7028 33.5063 42.7275 33.5744 42.7739C33.6425 42.8203 33.6957 42.8862 33.7259 42.9628ZM40.0811 22.0302C38.8989 22.0302 37.7432 22.3807 36.7601 23.0375C35.7771 23.6943 35.011 24.6279 34.5585 25.7201C34.1061 26.8124 33.9877 28.0142 34.2183 29.1738C34.4489 30.3333 35.0182 31.3984 35.8542 32.2344C36.6902 33.0703 37.7552 33.6397 38.9148 33.8703C40.0743 34.101 41.2762 33.9826 42.3684 33.5302C43.4607 33.0778 44.3942 32.3116 45.051 31.3286C45.7079 30.3456 46.0584 29.1899 46.0584 28.0077C46.0584 26.4224 45.4286 24.902 44.3077 23.7811C43.1867 22.6601 41.6664 22.0303 40.0811 22.0302Z" fill="#F9893D"/>
</svg>
