<svg width="527" height="57" viewBox="0 0 527 57" fill="none" xmlns="http://www.w3.org/2000/svg">
<path d="M516.077 8.04963C517.21 10.7686 520.333 12.0543 523.052 10.9214C525.771 9.78852 527.056 6.666 525.923 3.94706C524.791 1.22811 521.668 -0.0576247 518.949 1.07527C516.23 2.20816 514.944 5.33068 516.077 8.04963ZM144.747 6.42466L145.069 7.37137L144.747 6.42466ZM147.324 5.99834L147.324 4.99834L147.324 5.99834ZM0.822086 56.4465L145.069 7.37137L144.425 5.47795L0.177914 54.553L0.822086 56.4465ZM147.324 6.99835L521 6.99834L521 4.99834L147.324 4.99834L147.324 6.99835ZM145.069 7.37137C145.795 7.12436 146.557 6.99834 147.324 6.99835L147.324 4.99834C146.338 4.99835 145.358 5.16037 144.425 5.47795L145.069 7.37137Z" fill="#D6B88D"/>
</svg>
