<svg width="316" height="151" viewBox="0 0 316 151" fill="none" xmlns="http://www.w3.org/2000/svg">
<path d="M6 140.167C3.05447 140.167 0.666656 142.554 0.666656 145.5C0.666656 148.446 3.05447 150.833 6 150.833C8.94553 150.833 11.3333 148.446 11.3333 145.5C11.3333 142.554 8.94553 140.167 6 140.167ZM105.035 144.118L104.473 143.291L105.035 144.118ZM314.438 0.672783L104.473 143.291L105.597 144.945L315.562 2.32722L314.438 0.672783ZM100.54 144.5L6 144.5V146.5L100.54 146.5V144.5ZM104.473 143.291C103.313 144.079 101.943 144.5 100.54 144.5V146.5C102.343 146.5 104.105 145.958 105.597 144.945L104.473 143.291Z" fill="#D6B88D"/>
</svg>
