<svg width="530" height="91" viewBox="0 0 530 91" fill="none" xmlns="http://www.w3.org/2000/svg">
<path d="M520.581 80.91C518.32 82.7981 518.018 86.1614 519.907 88.4222C521.795 90.683 525.158 90.9851 527.419 89.097C529.68 87.2088 529.982 83.8455 528.093 81.5847C526.205 79.3239 522.842 79.0218 520.581 80.91ZM145.148 83.9378L144.649 84.8045L145.148 83.9378ZM149.137 85.0036L149.137 86.0036L149.137 85.0036ZM0.501728 1.86679L144.649 84.8045L145.646 83.071L1.49915 0.133252L0.501728 1.86679ZM149.137 86.0036L524 86.0035L524 84.0035L149.137 84.0036L149.137 86.0036ZM144.649 84.8045C146.014 85.5902 147.562 86.0036 149.137 86.0036L149.137 84.0036C147.912 84.0036 146.708 83.682 145.646 83.071L144.649 84.8045Z" fill="#D6B88D"/>
</svg>
