<svg width="302" height="118" viewBox="0 0 302 118" fill="none" xmlns="http://www.w3.org/2000/svg">
<path d="M0 8C0 3.58173 3.58172 0 8 0H77V71.6719H0V8Z" fill="#F9893D" fill-opacity="0.5"/>
<rect x="16.5" y="16.6523" width="90" height="82.7855" rx="7.5" fill="#1A1A1A" stroke="#D6B88D"/>
<rect x="19" y="20.1895" width="84" height="74.7003" rx="8" fill="#1A1A1A"/>
<path d="M294.5 113.006L16 113.006L2 88.832" stroke="#F96B31" stroke-width="0.5" stroke-miterlimit="10"/>
<path d="M234.5 108.35C235.816 108.35 237 107.287 237 105.826C237 104.498 235.947 103.302 234.5 103.302C233.184 103.302 232 104.365 232 105.826C232 107.287 233.053 108.35 234.5 108.35Z" fill="#FF842C"/>
<path d="M17.5 105.994L41.3879 105.994L233 105.994" stroke="#F9893D" stroke-width="0.5" stroke-miterlimit="10"/>
<path d="M297.055 117.208C299.189 117.208 301.11 115.485 301.11 113.115C301.11 110.96 299.402 109.021 297.055 109.021C294.921 109.021 293 110.745 293 113.115C293.213 115.269 294.921 117.208 297.055 117.208Z" fill="#F96B31"/>
<g clip-path="url(#clip0_69_2598)">
<path d="M39.5002 36.7161L33.2502 29.335L27 36.7161H30.2689V47.4877H36.2313V36.7161H39.5002Z" fill="#EEEEEE"/>
<path d="M32.0485 34.3872L34.9179 31.3044L33.2502 29.335L27 36.7161H30.2689V47.4877H32.5616V35.9521C31.8345 35.8138 31.5443 34.929 32.0485 34.3872Z" fill="#E0E0E0"/>
<path d="M74.8049 36.7161L68.5547 29.335L62.3047 36.7161H65.5736V47.4877H71.536V36.7161H74.8049Z" fill="#EEEEEE"/>
<path d="M67.3532 34.3872L70.2226 31.3044L68.5547 29.335L62.3047 36.7161H65.5736V47.4877H67.8662V35.9521C67.139 35.8138 66.849 34.929 67.3532 34.3872Z" fill="#E0E0E0"/>
<path d="M57.0784 29.3811L50.8283 22L44.5781 29.3811H47.847V40.1527H53.8094V29.3811H57.0784Z" fill="#EEEEEE"/>
<path d="M49.6267 27.0523L52.4961 23.9694L50.8283 22L44.5781 29.3811H47.847V40.1527H50.1397V28.6171C49.4125 28.4789 49.1224 27.594 49.6267 27.0523Z" fill="#E0E0E0"/>
<path d="M61.8493 55.7095V48.1574C61.8493 43.7767 58.7404 40.0079 54.4285 39.1615C47.8579 35.2252 39.4922 39.9426 39.4922 47.5839V55.7093C39.4922 58.8963 42.084 61.4797 45.2811 61.4797H56.0604C59.2575 61.4798 61.8493 58.8963 61.8493 55.7095Z" fill="#4C4C4C"/>
<path d="M55.1912 63.2008V55.6074H45.8579V63.2008L42.0341 64.6645C39.7969 65.5208 38.3203 67.6627 38.3203 70.0514V80.4743H63.4072V70.1712C63.4072 67.7234 61.858 65.5419 59.5418 64.7287L55.1912 63.2008Z" fill="#F9893D"/>
<path d="M40.7658 71.7324C40.7658 69.3437 42.2424 67.2018 44.4796 66.3455L48.3034 64.8818V57.2885H55.1912V55.6074H45.8579V63.2008L42.0341 64.6645C39.7969 65.5208 38.3203 67.6627 38.3203 70.0514V80.4743H40.7657L40.7658 71.7324Z" fill="#F96B31"/>
<path d="M55.1897 55.6074H45.8563V63.2008L45.8516 63.2026L50.1554 69.0446L50.1516 75.4762C50.1512 75.8892 50.4858 76.2244 50.8987 76.2247H50.8995C51.3123 76.2247 51.6469 75.8902 51.6474 75.4774L51.6511 68.8655L55.1895 63.2003L55.1897 55.6074Z" fill="#F9B995"/>
<path d="M50.863 59.9607C54.7828 59.9607 57.9604 56.3484 57.9604 51.8925C57.9604 47.4365 54.7828 43.8242 50.863 43.8242C46.9432 43.8242 43.7656 47.4365 43.7656 51.8925C43.7656 56.3484 46.9432 59.9607 50.863 59.9607Z" fill="#FDD2B5"/>
<path d="M54.4285 39.1615C47.8579 35.2252 39.4922 39.9426 39.4922 47.5839V50.358L41.582 49.9792C45.5487 49.26 49.0919 47.0622 51.4914 43.8326C54.7087 47.5723 58.1723 51.0956 61.8493 54.3869V48.1574C61.8493 43.7767 58.7404 40.0079 54.4285 39.1615Z" fill="#3A3A3A"/>
<path d="M63.7937 91.9996H37.928L34.4453 72.1602H67.2765L63.7937 91.9996Z" fill="#8585F2"/>
<path d="M40.203 74.9109H66.7937L67.2765 72.1602H34.4453L37.9281 91.9996H40.6548L38.0955 77.4202C37.8656 76.1107 38.8733 74.9109 40.203 74.9109Z" fill="#6868DD"/>
<path d="M52.9079 82.7565H48.8104C48.3972 82.7565 48.0625 82.4216 48.0625 82.0086C48.0625 81.5956 48.3972 81.2607 48.8104 81.2607H52.9079C53.321 81.2607 53.6558 81.5956 53.6558 82.0086C53.6558 82.4216 53.321 82.7565 52.9079 82.7565Z" fill="white"/>
<path d="M96.9982 66.8612V62.2594L93.7173 61.4605C93.4779 60.6177 93.1422 59.8154 92.7239 59.065L94.4825 56.1796L91.2159 52.9256L88.3272 54.6726C87.5751 54.2537 86.7706 53.917 85.9253 53.676L85.1209 50.3984H80.5011L79.6991 53.6666C78.8529 53.9052 78.0475 54.2395 77.2942 54.6562L74.3975 52.9044L71.1308 56.1583L72.8845 59.0357C72.4639 59.7849 72.1259 60.5863 71.884 61.4281L68.5938 62.2293V66.8311L71.8746 67.63C72.1141 68.4728 72.4497 69.2751 72.8681 70.0255L71.1094 72.9109L74.3761 76.1649L77.2648 74.4179C78.0168 74.8368 78.8214 75.1735 79.6666 75.4145L80.471 78.6921H85.0909L85.8929 75.4239C86.739 75.1853 87.5445 74.851 88.2979 74.4343L91.1946 76.1861L94.4613 72.9322L92.7076 70.0548C93.1282 69.3056 93.4662 68.5042 93.708 67.6624L96.9982 66.8612Z" fill="#F9893D"/>
<path d="M78.8084 73.1469C78.5882 73.0455 78.3694 72.9344 78.158 72.8165C77.5828 72.4959 76.8795 72.5081 76.3157 72.8491L74.6544 73.8538L73.4275 72.6318L74.4343 70.9801C74.7781 70.4157 74.7919 69.7101 74.4702 69.1329C74.1161 68.4978 73.8364 67.8237 73.639 67.1289C73.4584 66.4938 72.9504 66.0047 72.3088 65.8485L70.428 65.3906V63.6703L72.3183 63.2099C72.958 63.0541 73.4652 62.5674 73.6469 61.9347C73.8461 61.2413 74.1278 60.568 74.4841 59.9334C74.8085 59.3554 74.7959 58.6474 74.4509 58.0814L73.449 56.4377L74.6758 55.2157L76.3452 56.2253C76.907 56.565 77.6077 56.5785 78.1823 56.2608C78.8212 55.9073 79.4989 55.6282 80.1969 55.4316C80.8327 55.2524 81.323 54.745 81.4805 54.1035L81.9397 52.2322H83.6826L84.1441 54.1129C84.3011 54.7525 84.789 55.2588 85.4225 55.4395C85.5795 55.4842 85.7376 55.5339 85.8923 55.5868C86.8026 55.8988 87.7881 55.4529 88.1662 54.5859C87.4604 54.2075 86.7107 53.8999 85.9253 53.6759L85.1209 50.3984H80.5011L79.6991 53.6666C78.8531 53.9052 78.0475 54.2395 77.2942 54.6562L74.3975 52.9044L71.1308 56.1583L72.8845 59.0358C72.4639 59.785 72.1259 60.5863 71.884 61.4282L68.5938 62.2295V66.8314L71.8748 67.6303C72.1142 68.4731 72.4499 69.2754 72.8682 70.0258L71.1096 72.9112L74.3762 76.1652L77.2649 74.4182C78.017 74.8371 78.8215 75.1738 79.6668 75.4148L79.707 75.5788C80.1301 74.6593 79.7281 73.5707 78.8084 73.1469Z" fill="#F9893D"/>
<path d="M78.1016 60.3621H81.2468C81.7093 60.2691 81.9697 59.7351 81.7163 59.3024C81.0212 58.3626 81.1829 57.0015 82.1994 56.3685C82.8373 55.9644 83.6498 55.9644 84.2877 56.3685C85.3044 57.0017 85.4659 58.3626 84.7709 59.3024C84.5175 59.7351 84.7779 60.2689 85.2404 60.3621H88.3937V63.6298C88.3006 64.0923 87.7666 64.3527 87.3339 64.0994C86.394 63.4044 85.0328 63.5661 84.3998 64.5825C83.9955 65.2204 83.9955 66.0327 84.3998 66.6707C85.0331 67.687 86.394 67.8487 87.3339 67.1538C87.7666 66.9004 88.3006 67.1608 88.3937 67.6233V70.7155H78.1156L78.1016 60.3621Z" fill="#EEEEEE"/>
<path d="M80.4054 66.287L80.3974 60.3623H78.1016L78.1158 70.7157H88.3938V68.4234H82.5452C81.3645 68.4235 80.4071 67.4675 80.4054 66.287Z" fill="#E0E0E0"/>
<path d="M59.7403 82.2629C60.6583 82.2629 61.4025 81.0981 61.4025 79.6612C61.4025 78.2244 60.6583 77.0596 59.7403 77.0596C58.8223 77.0596 58.0781 78.2244 58.0781 79.6612C58.0781 81.0981 58.8223 82.2629 59.7403 82.2629Z" fill="white"/>
<path d="M56.2851 85.2437C56.3307 86.1842 55.8533 86.9231 55.2188 86.894C54.5843 86.865 54.033 86.079 53.9874 85.1385C53.9418 84.198 54.4192 83.4591 55.0537 83.4881C55.6882 83.5171 56.2395 84.3032 56.2851 85.2437Z" fill="white"/>
</g>
<defs>
<clipPath id="clip0_69_2598">
<rect width="70" height="70" fill="white" transform="translate(27 22)"/>
</clipPath>
</defs>
</svg>
