<svg width="302" height="117" viewBox="0 0 302 117" fill="none" xmlns="http://www.w3.org/2000/svg">
<path d="M297.055 116.11C299.189 116.11 301.11 114.402 301.11 112.055C301.11 109.921 299.402 108 297.055 108C294.921 108 293 109.707 293 112.055C293.213 114.189 294.921 116.11 297.055 116.11Z" fill="#F96B31"/>
<path d="M0 8C0 3.58172 3.58172 0 8 0H77V71H0V8Z" fill="#F9893D" fill-opacity="0.5"/>
<rect x="16.5" y="16.5" width="90" height="82" rx="7.5" fill="#1A1A1A" stroke="#D6B88D"/>
<path d="M294.5 111.945L16 111.945L2 87.9981" stroke="#F96B31" stroke-width="0.5" stroke-miterlimit="10"/>
<path d="M234.5 107.332C235.816 107.332 237 106.279 237 104.832C237 103.516 235.947 102.332 234.5 102.332C233.184 102.332 232 103.385 232 104.832C232 106.279 233.053 107.332 234.5 107.332Z" fill="#FF842C"/>
<path d="M209.5 59C210.816 59 212 57.9474 212 56.5C212 55.1842 210.947 54 209.5 54C208.184 54 207 55.0526 207 56.5C207 57.9474 208.053 59 209.5 59Z" fill="#FF842C"/>
<path d="M225.792 50.736C228.8 50.736 230.48 52.752 230.48 56.4C230.48 60.048 228.8 62.08 225.792 62.08C222.768 62.08 221.104 60.048 221.104 56.4C221.104 52.752 222.768 50.736 225.792 50.736ZM225.792 51.952C223.744 51.952 222.688 53.424 222.688 56.4C222.688 59.36 223.744 60.848 225.792 60.848C227.84 60.848 228.896 59.36 228.896 56.4C228.896 53.424 227.84 51.952 225.792 51.952ZM231.471 50.8H235.551V62H234.015V52.192H231.471V50.8Z" fill="white"/>
<path d="M19 105L42.8879 105L234.5 105" stroke="#F9893D" stroke-width="0.5" stroke-miterlimit="10"/>
<path d="M121 57L130.533 57L207 57" stroke="#F9893D" stroke-width="0.5" stroke-miterlimit="10"/>
<g clip-path="url(#clip0_125_8452)">
<path d="M61.2852 22C59.9093 22 58.5487 22.2859 57.284 22.8341L37.8325 31.2642C35.2711 32.3747 33.6016 34.9335 33.6016 37.7525V62.2565C33.6016 64.7087 34.4531 67.5968 35.7914 69.6473C40.3619 76.6503 45.5606 83.9578 57.1759 90.8968C58.428 91.6448 59.8742 92.0113 61.2852 92.0113C62.6951 92.0113 64.1419 91.6435 65.3945 90.8968C76.8919 84.0434 82.187 76.7065 86.7857 69.6473C88.1235 67.5939 88.9688 64.7056 88.9688 62.2565V37.7525C88.9688 34.9335 87.2993 32.3747 84.7379 31.2642L65.2863 22.8341C64.0217 22.2859 62.6611 22 61.2852 22Z" fill="#F9893D"/>
<ellipse cx="61" cy="56.5959" rx="14" ry="14.1623" fill="white"/>
<g clip-path="url(#clip1_125_8452)">
<path d="M66.2769 55.4615H65.9651V54.0023C65.9651 51.3036 63.8234 49.0491 61.1466 49.001C61.0735 48.9997 60.9273 48.9997 60.8542 49.001C58.1773 49.0491 56.0357 51.3036 56.0357 54.0023V55.4615H55.7239C55.2435 55.4615 54.8516 55.9572 54.8516 56.5696V63.888C54.8516 64.4996 55.2435 65 55.724 65H66.2769C66.7573 65 67.1493 64.4996 67.1493 63.888V56.5696C67.1493 55.9573 66.7574 55.4615 66.2769 55.4615ZM61.9891 60.2213V62.4327C61.9891 62.6859 61.7771 62.9002 61.5237 62.9002H60.4772C60.2238 62.9002 60.0118 62.6859 60.0118 62.4327V60.2213C59.766 59.9794 59.6229 59.6449 59.6229 59.2748C59.6229 58.5735 60.165 57.9709 60.8543 57.943C60.9273 57.9401 61.0736 57.9401 61.1467 57.943C61.8359 57.9709 62.378 58.5735 62.378 59.2748C62.378 59.6449 62.2349 59.9794 61.9891 60.2213ZM63.9103 55.4615H61.1466H60.8542H58.0906V54.0023C58.0906 52.3947 59.3971 51.0655 61.0004 51.0655C62.6038 51.0655 63.9103 52.3947 63.9103 54.0023V55.4615H63.9103Z" fill="#8585F2"/>
</g>
</g>
<defs>
<clipPath id="clip0_125_8452">
<rect width="55" height="71" fill="white" transform="translate(34 22)"/>
</clipPath>
<clipPath id="clip1_125_8452">
<rect width="16" height="16.1855" fill="white" transform="translate(53 48.5)"/>
</clipPath>
</defs>
</svg>
