<svg width="302" height="117" viewBox="0 0 302 117" fill="none" xmlns="http://www.w3.org/2000/svg">
<path d="M297.055 116.11C299.189 116.11 301.11 114.402 301.11 112.055C301.11 109.921 299.402 108 297.055 108C294.921 108 293 109.707 293 112.055C293.213 114.189 294.921 116.11 297.055 116.11Z" fill="#F96B31"/>
<path d="M0 8C0 3.58172 3.58172 0 8 0H77V71H0V8Z" fill="#F9893D" fill-opacity="0.5"/>
<rect x="16.5" y="16.5" width="90" height="82" rx="7.5" fill="#1A1A1A" stroke="#D6B88D"/>
<path d="M294.5 111.945L16 111.945L2 87.9981" stroke="#F96B31" stroke-width="0.5" stroke-miterlimit="10"/>
<path d="M234.5 107.332C235.816 107.332 237 106.279 237 104.832C237 103.516 235.947 102.332 234.5 102.332C233.184 102.332 232 103.385 232 104.832C232 106.279 233.053 107.332 234.5 107.332Z" fill="#FF842C"/>
<path d="M209.5 59C210.816 59 212 57.9474 212 56.5C212 55.1842 210.947 54 209.5 54C208.184 54 207 55.0526 207 56.5C207 57.9474 208.053 59 209.5 59Z" fill="#FF842C"/>
<path d="M225.792 50.736C228.8 50.736 230.48 52.752 230.48 56.4C230.48 60.048 228.8 62.08 225.792 62.08C222.768 62.08 221.104 60.048 221.104 56.4C221.104 52.752 222.768 50.736 225.792 50.736ZM225.792 51.952C223.744 51.952 222.688 53.424 222.688 56.4C222.688 59.36 223.744 60.848 225.792 60.848C227.84 60.848 228.896 59.36 228.896 56.4C228.896 53.424 227.84 51.952 225.792 51.952ZM233.999 60.608H240.079V62H231.983V60.816L236.319 56.32C237.247 55.392 237.855 54.4 237.855 53.712C237.855 52.704 237.039 52.096 235.663 52.096C234.623 52.096 233.423 52.608 232.495 53.456L231.839 52.288C233.023 51.328 234.447 50.736 235.855 50.736C238.015 50.736 239.455 51.808 239.455 53.504C239.455 54.592 238.607 55.872 237.375 57.152L233.999 60.608Z" fill="white"/>
<path d="M19 105L42.8879 105L234.5 105" stroke="#F9893D" stroke-width="0.5" stroke-miterlimit="10"/>
<path d="M121 57L130.533 57L207 57" stroke="#F9893D" stroke-width="0.5" stroke-miterlimit="10"/>
<g clip-path="url(#clip0_125_8566)">
<path d="M61.2852 22.8008C59.9093 22.8008 58.5487 23.0834 57.284 23.6253L37.8325 31.9588C35.2711 33.0566 33.6016 35.5861 33.6016 38.3728V62.596C33.6016 65.0201 34.4531 67.8751 35.7914 69.9021C40.3619 76.8249 45.5606 84.0486 57.1759 90.9082C58.428 91.6476 59.8742 92.0098 61.2852 92.0098C62.6951 92.0098 64.1419 91.6462 65.3945 90.9082C76.8919 84.1333 82.187 76.8804 86.7857 69.9021C88.1235 67.8722 88.9688 65.017 88.9688 62.596V38.3728C88.9688 35.5861 87.2993 33.0566 84.7379 31.9588L65.2863 23.6253C64.0217 23.0834 62.6611 22.8008 61.2852 22.8008Z" fill="#F9893D"/>
<circle cx="61" cy="57" r="14" fill="white"/>
<path d="M61.3651 62.9121C60.945 63.4823 60.2907 63.8327 59.5834 63.8675C58.876 63.9027 58.1909 63.6176 57.717 63.0912L53.4696 58.3778C52.7945 57.6291 52.8545 56.4751 53.6031 55.8C54.3525 55.125 55.5058 55.1853 56.1809 55.9343L59.1859 59.2693C59.2304 59.3189 59.2951 59.3455 59.3615 59.3422C59.4283 59.339 59.4893 59.3056 59.5292 59.2525L65.7058 50.8751C66.3037 50.0636 67.4462 49.8909 68.2581 50.4891C69.0692 51.0873 69.2416 52.2298 68.6434 53.041L61.3651 62.9121Z" fill="#8585F2"/>
</g>
<defs>
<clipPath id="clip0_125_8566">
<rect width="55" height="71" fill="white" transform="translate(34 22)"/>
</clipPath>
</defs>
</svg>
