<svg width="302" height="117" viewBox="0 0 302 117" fill="none" xmlns="http://www.w3.org/2000/svg">
<path d="M297.055 116.11C299.189 116.11 301.11 114.402 301.11 112.055C301.11 109.921 299.402 108 297.055 108C294.921 108 293 109.707 293 112.055C293.213 114.189 294.921 116.11 297.055 116.11Z" fill="#F96B31"/>
<path d="M0 8C0 3.58172 3.58172 0 8 0H77V71H0V8Z" fill="#F9893D" fill-opacity="0.5"/>
<rect x="16.5" y="16.5" width="90" height="82" rx="7.5" fill="#1A1A1A" stroke="#D6B88D"/>
<path d="M294.5 111.945L16 111.945L2 87.9981" stroke="#F96B31" stroke-width="0.5" stroke-miterlimit="10"/>
<path d="M234.5 107.332C235.816 107.332 237 106.279 237 104.832C237 103.516 235.947 102.332 234.5 102.332C233.184 102.332 232 103.385 232 104.832C232 106.279 233.053 107.332 234.5 107.332Z" fill="#FF842C"/>
<path d="M209.5 59C210.816 59 212 57.9474 212 56.5C212 55.1842 210.947 54 209.5 54C208.184 54 207 55.0526 207 56.5C207 57.9474 208.053 59 209.5 59Z" fill="#FF842C"/>
<path d="M225.792 50.736C228.8 50.736 230.48 52.752 230.48 56.4C230.48 60.048 228.8 62.08 225.792 62.08C222.768 62.08 221.104 60.048 221.104 56.4C221.104 52.752 222.768 50.736 225.792 50.736ZM225.792 51.952C223.744 51.952 222.688 53.424 222.688 56.4C222.688 59.36 223.744 60.848 225.792 60.848C227.84 60.848 228.896 59.36 228.896 56.4C228.896 53.424 227.84 51.952 225.792 51.952ZM236.255 55.552C238.447 55.68 239.919 56.752 239.919 58.544C239.919 60.624 238.239 62.08 235.567 62.08C234.127 62.08 232.623 61.6 231.615 60.912L232.271 59.664C233.151 60.352 234.319 60.768 235.471 60.768C237.327 60.768 238.415 59.888 238.415 58.592C238.415 57.248 237.295 56.56 235.423 56.56H233.887V55.584L237.327 52.192H232.159L232.143 50.8H239.343V51.776L235.583 55.504L236.255 55.552Z" fill="white"/>
<path d="M19 105L42.8879 105L234.5 105" stroke="#F9893D" stroke-width="0.5" stroke-miterlimit="10"/>
<path d="M121 57L130.533 57L207 57" stroke="#F9893D" stroke-width="0.5" stroke-miterlimit="10"/>
<g clip-path="url(#clip0_125_8632)">
<path d="M61.2852 22.8008C59.9093 22.8008 58.5487 23.0834 57.284 23.6253L37.8325 31.9588C35.2711 33.0566 33.6016 35.5861 33.6016 38.3728V62.596C33.6016 65.0201 34.4531 67.8751 35.7914 69.9021C40.3619 76.8249 45.5606 84.0486 57.1759 90.9082C58.428 91.6476 59.8742 92.0098 61.2852 92.0098C62.6951 92.0098 64.1419 91.6462 65.3945 90.9082C76.8919 84.1333 82.187 76.8804 86.7857 69.9021C88.1235 67.8722 88.9688 65.017 88.9688 62.596V38.3728C88.9688 35.5861 87.2993 33.0566 84.7379 31.9588L65.2863 23.6253C64.0217 23.0834 62.6611 22.8008 61.2852 22.8008Z" fill="#F9893D"/>
<circle cx="61" cy="57" r="14" fill="white"/>
<g clip-path="url(#clip1_125_8632)">
<path d="M58.3333 57C56.1273 57 54.3333 55.206 54.3333 53C54.3333 50.794 56.1273 49 58.3333 49C60.5393 49 62.3333 50.794 62.3333 53C62.3333 55.206 60.5393 57 58.3333 57ZM67.6667 58.3333V57.6667C67.6667 56.196 66.4707 55 65 55C63.5293 55 62.3333 56.196 62.3333 57.6667V58.3333H61V63C61 64.1027 61.8973 65 63 65H67C68.1027 65 69 64.1027 69 63V58.3333H67.6667ZM63.6667 57.6667C63.6667 56.9313 64.2647 56.3333 65 56.3333C65.7353 56.3333 66.3333 56.9313 66.3333 57.6667V58.3333H63.6667V57.6667ZM65.6667 62.3333H64.3333V61H65.6667V62.3333ZM59.6667 63V58.3333H56.3333C54.4953 58.3333 53 59.8287 53 61.6667V65H60.3353C59.916 64.4427 59.6667 63.75 59.6667 63Z" fill="#8585F2"/>
</g>
</g>
<defs>
<clipPath id="clip0_125_8632">
<rect width="55" height="71" fill="white" transform="translate(34 22)"/>
</clipPath>
<clipPath id="clip1_125_8632">
<rect width="16" height="16" fill="white" transform="translate(53 49)"/>
</clipPath>
</defs>
</svg>
