<svg width="65" height="803" viewBox="0 0 65 803" fill="none" xmlns="http://www.w3.org/2000/svg">
<g opacity="0.18">
<path d="M32.4368 85.9792C22.6542 85.9792 14.9311 83.4051 8.7527 77.7418C3.08913 72.5933 0 64.3557 0 53.0291V32.4352C0 21.6235 3.08913 13.9009 8.7527 8.23757C14.4163 2.57426 22.6542 0 32.4368 0C42.2193 0 49.9424 2.57426 56.1208 8.23757C61.7844 13.9009 64.8736 22.1383 64.8736 32.4352V53.0291C64.8736 63.8409 61.7844 72.0785 56.1208 77.7418C50.4573 83.4051 42.7342 85.9792 32.4368 85.9792ZM32.4368 72.5933C38.1004 72.5933 42.7342 71.0487 45.3085 67.9596C47.8829 64.8705 49.4274 60.237 49.4274 54.0588V31.9204C49.4274 25.7422 47.8829 21.1087 44.7936 18.0196C41.7044 14.9305 37.5855 13.386 32.4368 13.386C26.7732 13.386 22.6542 14.9305 19.565 18.0196C16.4758 21.1087 14.9312 25.7423 14.9312 31.4056V53.544C14.9312 59.7221 16.4758 64.3558 19.0501 67.4449C22.6542 71.0488 26.7732 72.5933 32.4368 72.5933Z" fill="#F9893D" fill-opacity="0.5"/>
<path d="M36.5506 205.939V134.376H34.4912L23.1641 160.633H7.20312L24.1938 123.049H51.482V205.939H36.5506Z" fill="#F9893D" fill-opacity="0.5"/>
<path d="M32.4368 328.987C22.6542 328.987 14.9311 326.413 8.7527 320.75C3.08913 315.086 0 307.364 0 296.037V275.443C0 264.631 3.08913 256.909 8.7527 251.246C14.4163 245.582 22.6542 243.008 32.4368 243.008C42.2193 243.008 49.9424 245.582 56.1208 251.246C61.7844 256.909 64.8736 265.146 64.8736 275.443V296.037C64.8736 306.849 61.7844 315.086 56.1208 320.75C50.4573 325.898 42.7342 328.987 32.4368 328.987ZM32.4368 315.086C38.1004 315.086 42.7342 313.542 45.3085 310.453C47.8829 307.364 49.4274 302.73 49.4274 296.552V274.414C49.4274 268.235 47.8829 263.602 44.7936 260.513C41.7044 257.424 37.5855 255.879 32.4368 255.879C26.7732 255.879 22.6542 257.424 19.565 260.513C16.4758 263.602 14.9312 268.235 14.9312 273.899V296.037C14.9312 302.215 16.4758 306.849 19.0501 309.938C22.6542 313.542 26.7732 315.086 32.4368 315.086Z" fill="#F9893D" fill-opacity="0.5"/>
<path d="M36.5506 448.431V376.868H34.4912L23.1641 403.125H7.20312L24.1938 365.541H51.482V448.431H36.5506Z" fill="#F9893D" fill-opacity="0.5"/>
<path d="M32.4368 571.479C22.6542 571.479 14.9311 568.905 8.7527 563.242C3.08913 558.093 0 549.856 0 538.529V517.935C0 507.123 3.08913 499.401 8.7527 493.737C14.4163 488.074 22.6542 485.5 32.4368 485.5C42.2193 485.5 49.9424 488.074 56.1208 493.737C61.7844 499.401 64.8736 507.638 64.8736 517.935V538.529C64.8736 549.341 61.7844 557.578 56.1208 563.242C50.4573 568.905 42.7342 571.479 32.4368 571.479ZM32.4368 558.093C38.1004 558.093 42.7342 556.549 45.3085 553.459C47.8829 550.37 49.4274 545.737 49.4274 539.559V517.42C49.4274 511.242 47.8829 506.609 44.7936 503.52C41.7044 500.431 37.5855 498.886 32.4368 498.886C26.7732 498.886 22.6542 500.431 19.565 503.52C16.4758 506.609 14.9312 511.242 14.9312 516.905V539.044C14.9312 545.222 16.4758 549.856 19.0501 552.945C22.6542 556.549 26.7732 558.093 32.4368 558.093Z" fill="#F9893D" fill-opacity="0.5"/>
<path d="M36.5506 691.439V619.876H34.4912L23.1641 646.133H7.20312L24.1938 608.549H51.482V691.439H36.5506Z" fill="#F9893D" fill-opacity="0.5"/>
<path d="M32.4368 814.487C22.6542 814.487 14.9311 811.913 8.7527 806.25C3.08913 801.101 0 792.864 0 781.537V760.943C0 750.132 3.08913 742.409 8.7527 736.746C14.4163 731.082 22.6542 728.508 32.4368 728.508C42.2193 728.508 49.9424 731.082 56.1208 736.746C61.7844 742.409 64.8736 750.646 64.8736 760.943V781.537C64.8736 792.349 61.7844 800.586 56.1208 806.25C50.4573 811.398 42.7342 814.487 32.4368 814.487ZM32.4368 800.586C38.1004 800.586 42.7342 799.042 45.3085 795.953C47.8829 792.864 49.4274 788.23 49.4274 782.052V759.914C49.4274 753.735 47.8829 749.102 44.7936 746.013C41.7044 742.924 37.5855 741.379 32.4368 741.379C26.7732 741.379 22.6542 742.924 19.565 746.013C16.4758 749.102 14.9312 753.735 14.9312 759.399V781.537C14.9312 787.715 16.4758 792.349 19.0501 795.438C22.6542 799.042 26.7732 800.586 32.4368 800.586Z" fill="#F9893D" fill-opacity="0.5"/>
</g>
</svg>
