<svg width="302" height="118" viewBox="0 0 302 118" fill="none" xmlns="http://www.w3.org/2000/svg">
<path d="M0 8C0 3.58173 3.58172 0 8 0H77V71.6719H0V8Z" fill="#F9893D" fill-opacity="0.5"/>
<rect x="16.5" y="16.6523" width="90" height="82.7855" rx="7.5" fill="#1A1A1A" stroke="#D6B88D"/>
<rect x="19" y="20.1895" width="84" height="74.7003" rx="8" fill="#1A1A1A"/>
<path d="M294.5 113.006L16 113.006L2 88.832" stroke="#F96B31" stroke-width="0.5" stroke-miterlimit="10"/>
<path d="M234.5 108.35C235.816 108.35 237 107.287 237 105.826C237 104.498 235.947 103.302 234.5 103.302C233.184 103.302 232 104.365 232 105.826C232 107.287 233.053 108.35 234.5 108.35Z" fill="#FF842C"/>
<path d="M17.5 105.994L41.3879 105.994L233 105.994" stroke="#F9893D" stroke-width="0.5" stroke-miterlimit="10"/>
<path d="M297.055 117.208C299.189 117.208 301.11 115.485 301.11 113.115C301.11 110.96 299.402 109.021 297.055 109.021C294.921 109.021 293 110.745 293 113.115C293.213 115.269 294.921 117.208 297.055 117.208Z" fill="#F96B31"/>
<path d="M36.8438 36.2188H87.1562C88.3166 36.2188 89.4294 36.6797 90.2498 37.5002C91.0703 38.3206 91.5312 39.4334 91.5312 40.5938V79.9688H32.4688V40.5938C32.4688 39.4334 32.9297 38.3206 33.7502 37.5002C34.5706 36.6797 35.6834 36.2188 36.8438 36.2188Z" fill="#8585F2"/>
<path d="M36.8438 40.5938H87.1562V75.5938H36.8438V40.5938Z" fill="#FFDAAA"/>
<path d="M32.4688 79.9688H30.2812V84.3438C30.2812 85.5041 30.7422 86.6169 31.5627 87.4373C32.3831 88.2578 33.4959 88.7188 34.6562 88.7188H89.3438C90.5041 88.7188 91.6169 88.2578 92.4373 87.4373C93.2578 86.6169 93.7188 85.5041 93.7188 84.3438V79.9688H32.4688Z" fill="#58595B"/>
<path d="M57.625 84.3438H66.375C66.9552 84.3438 67.5116 84.1133 67.9218 83.703C68.332 83.2928 68.5625 82.7364 68.5625 82.1562V79.9688H55.4375V82.1562C55.4375 82.7364 55.668 83.2928 56.0782 83.703C56.4884 84.1133 57.0448 84.3438 57.625 84.3438Z" fill="#F1F2F2"/>
<path d="M41.2188 44.9688H52.1562V53.7188H41.2188V44.9688Z" fill="#D80027"/>
<path d="M56.5312 51.5312H67.4688V62.4688H56.5312V51.5312Z" fill="#FFCD00"/>
<path d="M87.1562 34.0312C86.3556 34.0295 85.5616 34.1779 84.8156 34.4687C84.9169 33.9646 84.9682 33.4517 84.9688 32.9375C84.9688 30.9069 84.1621 28.9595 82.7263 27.5237C81.2905 26.0879 79.3431 25.2812 77.3125 25.2812C75.2819 25.2812 73.3345 26.0879 71.8987 27.5237C70.4629 28.9595 69.6562 30.9069 69.6562 32.9375C69.6568 33.4517 69.7081 33.9646 69.8094 34.4687C69.0634 34.1779 68.2694 34.0295 67.4688 34.0312C65.7283 34.0313 64.0591 34.7227 62.8284 35.9534C61.5977 37.1841 60.9062 38.8533 60.9062 40.5938C60.9062 42.3342 61.5977 44.0034 62.8284 45.2341C64.0591 46.4648 65.7283 47.1562 67.4688 47.1562H87.1562C88.8967 47.1562 90.5659 46.4648 91.7966 45.2341C93.0273 44.0034 93.7188 42.3342 93.7188 40.5938C93.7188 38.8533 93.0273 37.1841 91.7966 35.9534C90.5659 34.7227 88.8967 34.0313 87.1562 34.0312Z" fill="#F96B31"/>
<path d="M71.8438 51.5312H82.7812V62.4688H71.8438V51.5312Z" fill="#7ED63E"/>
<path d="M36.8438 41.6875V75.5938H70.75C66.2966 75.5963 61.8864 74.7211 57.7716 73.0181C53.6567 71.315 49.9179 68.8176 46.7689 65.6686C43.6199 62.5196 41.1225 58.7808 39.4194 54.6659C37.7164 50.5511 36.8412 46.1409 36.8438 41.6875Z" fill="#FFC477"/>
<path d="M44.5 61.375H53.25V63.5625H44.5V61.375Z" fill="#FF9811"/>
<path d="M44.5 65.75H53.25V67.9375H44.5V65.75Z" fill="#FF9811"/>
<path d="M44.5 70.125H53.25V72.3125H44.5V70.125Z" fill="#FF9811"/>
<path d="M59.8125 65.75H68.5625V67.9375H59.8125V65.75Z" fill="#FF9811"/>
<path d="M59.8125 70.125H68.5625V72.3125H59.8125V70.125Z" fill="#FF9811"/>
<path d="M70.75 65.75H83.875V67.9375H70.75V65.75Z" fill="#FF9811"/>
<path d="M70.75 70.125H83.875V72.3125H70.75V70.125Z" fill="#FF9811"/>
<path d="M55.4375 65.75H57.625V67.9375H55.4375V65.75Z" fill="#FF9811"/>
<path d="M55.4375 70.125H57.625V72.3125H55.4375V70.125Z" fill="#FF9811"/>
<path d="M72.9373 43.8752C72.6472 43.8752 72.3691 43.7599 72.164 43.5548L68.8827 40.2735C68.6777 40.0684 68.5625 39.7903 68.5625 39.5002C68.5625 39.2102 68.6777 38.9321 68.8827 38.727L72.164 35.4457C72.3703 35.2465 72.6466 35.1362 72.9333 35.1387C73.2201 35.1412 73.4944 35.2562 73.6972 35.459C73.9 35.6618 74.015 35.9361 74.0175 36.2229C74.02 36.5097 73.9098 36.786 73.7105 36.9923L71.2026 39.5002L73.7105 42.0082C73.8635 42.1612 73.9676 42.356 74.0098 42.5682C74.052 42.7803 74.0303 43.0002 73.9475 43.2C73.8648 43.3998 73.7246 43.5706 73.5448 43.6908C73.365 43.811 73.1536 43.8752 72.9373 43.8752Z" fill="#F1F2F2"/>
<path d="M81.6873 43.8752C81.471 43.8752 81.2596 43.811 81.0797 43.6908C80.8999 43.5706 80.7598 43.3998 80.677 43.2C80.5942 43.0002 80.5726 42.7803 80.6148 42.5682C80.6569 42.356 80.7611 42.1612 80.914 42.0082L83.422 39.5002L80.914 36.9923C80.7147 36.786 80.6045 36.5097 80.607 36.2229C80.6095 35.9361 80.7245 35.6618 80.9273 35.459C81.1301 35.2562 81.4044 35.1412 81.6912 35.1387C81.978 35.1362 82.2543 35.2465 82.4605 35.4457L85.7418 38.727C85.9468 38.9321 86.062 39.2102 86.062 39.5002C86.062 39.7903 85.9468 40.0684 85.7418 40.2735L82.4605 43.5548C82.2555 43.7599 81.9773 43.8752 81.6873 43.8752Z" fill="#F1F2F2"/>
<path d="M76.2198 44.969C76.1298 44.9693 76.0402 44.9583 75.9529 44.9362C75.6716 44.8657 75.4297 44.6863 75.2806 44.4375C75.1315 44.1887 75.0873 43.8908 75.1578 43.6095L77.3453 34.8595C77.4174 34.5799 77.5972 34.3402 77.8454 34.1927C78.0936 34.0451 78.39 34.0017 78.6701 34.0719C78.9502 34.142 79.1912 34.3201 79.3405 34.5672C79.4898 34.8143 79.5353 35.1105 79.4672 35.391L77.2797 44.141C77.2205 44.3774 77.084 44.5872 76.892 44.7372C76.7 44.8871 76.4635 44.9687 76.2198 44.969Z" fill="#F1F2F2"/>
<path d="M44.5 57H53.25V59.1875H44.5V57Z" fill="#FF9811"/>
<path d="M40.125 57H42.3125V59.1875H40.125V57Z" fill="#FF9811"/>
<path d="M40.125 61.375H42.3125V63.5625H40.125V61.375Z" fill="#FF9811"/>
<path d="M40.125 65.75H42.3125V67.9375H40.125V65.75Z" fill="#FF9811"/>
<path d="M40.125 70.125H42.3125V72.3125H40.125V70.125Z" fill="#FF9811"/>
</svg>
