<svg width="295" height="114" viewBox="0 0 295 114" fill="none" xmlns="http://www.w3.org/2000/svg">
<path d="M0 8C0 3.58173 3.58172 0 8 0H77V71.6719H0V8Z" fill="#F9893D" fill-opacity="0.5"/>
<rect x="16.5" y="16.6523" width="90" height="82.7855" rx="7.5" fill="#1A1A1A" stroke="#D6B88D"/>
<rect x="19" y="20.1895" width="84" height="74.7003" rx="8" fill="#1A1A1A"/>
<path d="M294.5 113.006L16 113.006L2 88.832" stroke="#F96B31" stroke-width="0.5" stroke-miterlimit="10"/>
<path d="M234.5 108.35C235.816 108.35 237 107.287 237 105.826C237 104.498 235.947 103.302 234.5 103.302C233.184 103.302 232 104.365 232 105.826C232 107.287 233.053 108.35 234.5 108.35Z" fill="#FF842C"/>
<path d="M17.5 105.994L41.3879 105.994L233 105.994" stroke="#F9893D" stroke-width="0.5" stroke-miterlimit="10"/>
<g clip-path="url(#clip0_71_2894)">
<path d="M29.7804 39.8191C26.5037 45.2055 26.1583 54.5318 28.5586 60.3619C30.6609 65.4685 34.843 70.2617 40.3328 70.862C42.3516 71.0828 44.4149 70.722 46.4129 71.086C53.284 72.3372 55.84 80.8053 61.1799 85.3066C64.8962 88.4393 70.0527 89.5478 74.8756 88.9443C79.6985 88.3408 84.2138 86.1603 88.1887 83.3629C91.3274 81.1539 94.264 78.438 95.8127 74.9264C99.059 67.5656 95.2398 58.7251 89.3067 53.2922C87.4588 51.6 85.3991 50.1074 83.855 48.1342C82.311 46.1608 81.3284 43.5274 82.0641 41.1323C82.6511 39.2213 84.231 37.74 84.8295 35.8326C85.6441 33.2372 84.4146 30.3255 82.3957 28.5023C80.3767 26.6792 77.7051 25.7626 75.0585 25.1336C63.9702 22.4975 39.6726 23.5579 29.7804 39.8191Z" fill="url(#paint0_linear_71_2894)"/>
<path opacity="0.1" d="M74.8837 89.9711H49.1172C46.8519 89.9711 45.0156 88.1348 45.0156 85.8696V33.8237C45.0156 31.5584 46.8519 29.7222 49.1172 29.7222H74.8837C77.149 29.7222 78.9853 31.5584 78.9853 33.8237V85.8696C78.9853 88.1347 77.149 89.9711 74.8837 89.9711Z" fill="#1A1A1A"/>
<path d="M74.8837 86.6899H49.1172C46.8519 86.6899 45.0156 84.8536 45.0156 82.5883V30.5425C45.0156 28.2772 46.8519 26.4409 49.1172 26.4409H74.8837C77.149 26.4409 78.9853 28.2772 78.9853 30.5425V82.5883C78.9853 84.8535 77.149 86.6899 74.8837 86.6899Z" fill="#8585F2"/>
<path d="M45.0156 32.3076H78.9848V80.8236H45.0156V32.3076Z" fill="white"/>
<path d="M74.8798 87.3735H49.1133C46.4747 87.3735 44.3281 85.2268 44.3281 82.5883V30.5425C44.3281 27.9039 46.4747 25.7573 49.1133 25.7573H74.88C77.5185 25.7573 79.6651 27.9039 79.6651 30.5425V82.5883C79.665 85.2268 77.5184 87.3735 74.8798 87.3735ZM49.1133 27.1245C47.2286 27.1245 45.6953 28.6578 45.6953 30.5425V82.5883C45.6953 84.473 47.2286 86.0063 49.1133 86.0063H74.88C76.7646 86.0063 78.2979 84.473 78.2979 82.5883V30.5425C78.2979 28.6578 76.7646 27.1245 74.88 27.1245H49.1133Z" fill="#1A1A1A"/>
<path d="M64.386 30.1831H59.6055C59.228 30.1831 58.9219 29.877 58.9219 29.4995C58.9219 29.122 59.228 28.8159 59.6055 28.8159H64.386C64.7635 28.8159 65.0696 29.122 65.0696 29.4995C65.0696 29.877 64.7635 30.1831 64.386 30.1831Z" fill="#B7C5FF"/>
<path d="M67.5745 30.1827C67.9522 30.1827 68.2584 29.8765 68.2584 29.4988C68.2584 29.1211 67.9522 28.8149 67.5745 28.8149C67.1968 28.8149 66.8906 29.1211 66.8906 29.4988C66.8906 29.8765 67.1968 30.1827 67.5745 30.1827Z" fill="#B7C5FF"/>
<path d="M75.0449 36.9365V48.5439C75.0449 49.2986 74.4324 49.9111 73.6777 49.9111H50.3125C49.5578 49.9111 48.9453 49.2986 48.9453 48.5439V36.9365C48.9453 36.1818 49.5578 35.5693 50.3125 35.5693H73.6777C74.4324 35.5693 75.0449 36.1818 75.0449 36.9365Z" fill="#8585F2"/>
<path d="M75.0445 39.5398V48.5441C75.0445 49.2988 74.432 49.9113 73.6773 49.9113H57.0141C56.9635 49.482 56.9375 49.0445 56.9375 48.6016C56.9375 42.3494 62.0057 37.2812 68.2592 37.2812C70.8035 37.2812 73.1537 38.1221 75.0445 39.5398Z" fill="#8585F2"/>
<path d="M75.0449 75.397V80.8233H48.9453V75.397C48.9453 74.6423 49.5578 74.0298 50.3125 74.0298H73.6777C74.4324 74.0298 75.0449 74.6423 75.0449 75.397Z" fill="#02FFB3"/>
<path d="M59.6791 77.4272C59.6791 78.6495 59.3865 79.8034 58.8684 80.8233H48.9453V75.397C48.9453 74.6423 49.5578 74.0298 50.3125 74.0298H58.8684C59.3865 75.0511 59.6791 76.205 59.6791 77.4272Z" fill="#97FFD2"/>
<path d="M60.3944 59.9438H49.6289C49.2514 59.9438 48.9453 59.6377 48.9453 59.2602V53.8271C48.9453 53.4497 49.2514 53.1436 49.6289 53.1436H60.3944C60.7719 53.1436 61.078 53.4497 61.078 53.8271V59.2602C61.078 59.6378 60.7719 59.9438 60.3944 59.9438Z" fill="#F9893D"/>
<path d="M74.3632 59.9438H63.5977C63.2202 59.9438 62.9141 59.6377 62.9141 59.2602V53.8271C62.9141 53.4497 63.2202 53.1436 63.5977 53.1436H74.3632C74.7406 53.1436 75.0468 53.4497 75.0468 53.8271V59.2602C75.0468 59.6378 74.7406 59.9438 74.3632 59.9438Z" fill="#02FFB3"/>
<path d="M60.3944 68.3364H49.6289C49.2514 68.3364 48.9453 68.0303 48.9453 67.6528V62.2197C48.9453 61.8422 49.2514 61.5361 49.6289 61.5361H60.3944C60.7719 61.5361 61.078 61.8422 61.078 62.2197V67.6528C61.078 68.0303 60.7719 68.3364 60.3944 68.3364Z" fill="#8585F2"/>
<path d="M74.3632 68.3364H63.5977C63.2202 68.3364 62.9141 68.0303 62.9141 67.6528V62.2197C62.9141 61.8422 63.2202 61.5361 63.5977 61.5361H74.3632C74.7406 61.5361 75.0468 61.8422 75.0468 62.2197V67.6528C75.0468 68.0303 74.7406 68.3364 74.3632 68.3364Z" fill="#FCAF40"/>
<path d="M61.4056 43.5986H52.4258C52.0483 43.5986 51.7422 43.9047 51.7422 44.2822C51.7422 44.6597 52.0483 44.9658 52.4258 44.9658H61.4056C61.7831 44.9658 62.0892 44.6597 62.0892 44.2822C62.0892 43.9047 61.7832 43.5986 61.4056 43.5986Z" fill="white"/>
<path d="M61.4056 40.9429H52.4258C52.0483 40.9429 51.7422 41.249 51.7422 41.6265C51.7422 42.0039 52.0483 42.3101 52.4258 42.3101H61.4056C61.7831 42.3101 62.0892 42.0039 62.0892 41.6265C62.0892 41.249 61.7832 40.9429 61.4056 40.9429Z" fill="white"/>
<path d="M54.0228 37.751H52.4258C52.0483 37.751 51.7422 38.0571 51.7422 38.4346C51.7422 38.8121 52.0483 39.1182 52.4258 39.1182H54.0228C54.4003 39.1182 54.7064 38.8121 54.7064 38.4346C54.7064 38.0571 54.4004 37.751 54.0228 37.751Z" fill="#FFC4DF"/>
<path d="M55.3275 71.2363H49.6289C49.2514 71.2363 48.9453 71.5424 48.9453 71.9199C48.9453 72.2974 49.2514 72.6035 49.6289 72.6035H55.3275C55.705 72.6035 56.0111 72.2974 56.0111 71.9199C56.0111 71.5424 55.705 71.2363 55.3275 71.2363Z" fill="#8585F2"/>
<path d="M75.0438 75.397V78.7589C72.4529 78.7589 70.3516 76.6589 70.3516 74.0681V74.0298H73.6766C74.4313 74.0298 75.0438 74.6423 75.0438 75.397Z" fill="#01ECA5"/>
</g>
<defs>
<linearGradient id="paint0_linear_71_2894" x1="27" y1="56.5655" x2="97" y2="56.5655" gradientUnits="userSpaceOnUse">
<stop stop-color="#FFB320"/>
<stop offset="1" stop-color="#FF842C"/>
</linearGradient>
<clipPath id="clip0_71_2894">
<rect width="70" height="70" fill="white" transform="translate(27 22)"/>
</clipPath>
</defs>
</svg>
