<svg width="295" height="114" viewBox="0 0 295 114" fill="none" xmlns="http://www.w3.org/2000/svg">
<path d="M0 8C0 3.58173 3.58172 0 8 0H77V71.6719H0V8Z" fill="#F9893D" fill-opacity="0.5"/>
<rect x="16.5" y="16.6523" width="90" height="82.7855" rx="7.5" fill="#1A1A1A" stroke="#D6B88D"/>
<rect x="19" y="20.1895" width="84" height="74.7003" rx="8" fill="#1A1A1A"/>
<path d="M294.5 113.006L16 113.006L2 88.832" stroke="#F96B31" stroke-width="0.5" stroke-miterlimit="10"/>
<path d="M234.5 108.35C235.816 108.35 237 107.287 237 105.826C237 104.498 235.947 103.302 234.5 103.302C233.184 103.302 232 104.365 232 105.826C232 107.287 233.053 108.35 234.5 108.35Z" fill="#FF842C"/>
<path d="M17.5 105.994L41.3879 105.994L233 105.994" stroke="#F9893D" stroke-width="0.5" stroke-miterlimit="10"/>
<g clip-path="url(#clip0_71_2956)">
<path d="M62 92C81.33 92 97 76.33 97 57C97 37.67 81.33 22 62 22C42.67 22 27 37.67 27 57C27 76.33 42.67 92 62 92Z" fill="#F9893D"/>
<path opacity="0.1" d="M82.2359 33.4864L82.2086 33.4645C81.5688 32.841 80.6883 32.4527 79.7203 32.4527C77.9758 32.4527 76.5156 33.7161 76.2094 35.373H66.6008L64.8125 33.5847C64.4844 33.1636 64.0688 32.8244 63.593 32.5839C63.1117 32.3433 62.5703 32.2065 61.9961 32.2065C60.1641 32.2065 58.6492 33.5956 58.4469 35.373H48.6633L46.875 33.5847L46.8696 33.59C46.2188 32.8957 45.3 32.4527 44.2719 32.4527C42.3031 32.4527 40.6953 34.0549 40.6953 36.0293C40.6953 37.0411 41.1219 37.9543 41.8 38.6104L46.6235 43.4284C44.8297 46.1794 43.7524 49.4331 43.643 52.9168C41.9695 53.2174 40.6953 54.6778 40.6953 56.4333C40.6953 57.4504 41.1219 58.3636 41.8 59.0144L56.7243 73.9333V81.8026C56.7243 82.4371 56.9977 83.0002 57.4297 83.3941L57.4242 83.3994L65.8139 91.7889C83.3481 89.8872 96.9979 75.0398 96.9979 56.9999C96.9979 53.4177 96.4572 49.9621 95.4572 46.7075L82.2633 33.5136C82.2524 33.508 82.2414 33.4971 82.2359 33.4864Z" fill="black"/>
<path d="M56.7266 52.5586H67.2758V75.392H56.7266V52.5586Z" fill="#7D7DDE"/>
<path d="M56.7266 52.5586H60.243V75.392H56.7266V52.5586Z" fill="#7D7DDE"/>
<path d="M60.2422 52.5586H63.7586V75.392H60.2422V52.5586Z" fill="#8585F2"/>
<path d="M62.0977 41.9248L59.6441 46.1521L56.7266 52.5587H67.2757L64.3582 46.1521L62.0977 41.9248Z" fill="#FED35B"/>
<path d="M59.6406 46.152H64.3546L61.9976 40.9761L59.6406 46.152Z" fill="#344D5B"/>
<path d="M44.2724 60.0116C42.3001 60.0116 40.6953 58.4069 40.6953 56.4345C40.6953 54.4621 42.3001 52.8574 44.2724 52.8574C46.2447 52.8574 47.8495 54.4621 47.8495 56.4345C47.8495 58.4069 46.2447 60.0116 44.2724 60.0116ZM44.2724 54.1644C43.0205 54.1644 42.0023 55.1828 42.0023 56.4345C42.0023 57.6862 43.0205 58.7046 44.2724 58.7046C45.5242 58.7046 46.5425 57.6862 46.5425 56.4345C46.5425 55.1828 45.5242 54.1644 44.2724 54.1644Z" fill="#EDEDED"/>
<path d="M79.7255 60.0116C77.7532 60.0116 76.1484 58.4069 76.1484 56.4345C76.1484 54.4621 77.7532 52.8574 79.7255 52.8574C81.6978 52.8574 83.3024 54.4621 83.3024 56.4345C83.3024 58.4069 81.6978 60.0116 79.7255 60.0116ZM79.7255 54.1644C78.4737 54.1644 77.4554 55.1828 77.4554 56.4345C77.4554 57.6862 78.4737 58.7046 79.7255 58.7046C80.9771 58.7046 81.9954 57.6862 81.9954 56.4345C81.9954 55.1828 80.9771 54.1644 79.7255 54.1644Z" fill="#EDEDED"/>
<path d="M44.2724 39.6053C42.3001 39.6053 40.6953 38.0007 40.6953 36.0282C40.6953 34.0558 42.3001 32.4512 44.2724 32.4512C46.2447 32.4512 47.8495 34.0558 47.8495 36.0282C47.8495 38.0007 46.2447 39.6053 44.2724 39.6053ZM44.2724 33.7581C43.0205 33.7581 42.0023 34.7765 42.0023 36.0282C42.0023 37.28 43.0205 38.2984 44.2724 38.2984C45.5242 38.2984 46.5425 37.28 46.5425 36.0282C46.5425 34.7765 45.5242 33.7581 44.2724 33.7581Z" fill="#EDEDED"/>
<path d="M79.7255 39.6053C77.7532 39.6053 76.1484 38.0007 76.1484 36.0282C76.1484 34.0558 77.7532 32.4512 79.7255 32.4512C81.6978 32.4512 83.3024 34.0558 83.3024 36.0282C83.3024 38.0007 81.6978 39.6053 79.7255 39.6053ZM79.7255 33.7581C78.4737 33.7581 77.4554 34.7765 77.4554 36.0282C77.4554 37.28 78.4737 38.2984 79.7255 38.2984C80.9771 38.2984 81.9954 37.28 81.9954 36.0282C81.9954 34.7765 80.9771 33.7581 79.7255 33.7581Z" fill="#EDEDED"/>
<path d="M61.9989 39.3631C60.0266 39.3631 58.4219 37.7585 58.4219 35.7861C58.4219 33.8137 60.0266 32.209 61.9989 32.209C63.9713 32.209 65.576 33.8137 65.576 35.7861C65.576 37.7585 63.9713 39.3631 61.9989 39.3631ZM61.9989 33.5159C60.7471 33.5159 59.7288 34.5343 59.7288 35.7861C59.7288 37.0378 60.7471 38.0562 61.9989 38.0562C63.2508 38.0562 64.2691 37.0378 64.2691 35.7861C64.2691 34.5343 63.2508 33.5159 61.9989 33.5159Z" fill="#EDEDED"/>
<path d="M44.9241 53.5105H43.6172C43.6172 46.0467 48.0283 39.5448 54.5826 36.6815H47.1943V35.3745H59.084L59.1905 36.6727C50.9241 38.0394 44.9241 45.1207 44.9241 53.5105Z" fill="#EDEDED"/>
<path d="M80.3778 53.5105H79.0709C79.0709 45.1206 73.0711 38.0393 64.8047 36.6727L64.9113 35.3745H76.8009V36.6815H69.4124C75.9667 39.5448 80.3778 46.0467 80.3778 53.5105Z" fill="#EDEDED"/>
<path d="M56.7266 77.2188V81.8005C56.7266 83.0034 57.7018 83.9787 58.9048 83.9787H65.0976C66.3006 83.9787 67.2758 83.0034 67.2758 81.8005V77.2188H56.7266Z" fill="#D6B24E"/>
<path d="M56.7266 75.0762H67.2758V77.4374H56.7266V75.0762Z" fill="#EDEDED"/>
</g>
<defs>
<clipPath id="clip0_71_2956">
<rect width="70" height="70" fill="white" transform="translate(27 22)"/>
</clipPath>
</defs>
</svg>
