<svg width="295" height="114" viewBox="0 0 295 114" fill="none" xmlns="http://www.w3.org/2000/svg">
<path d="M0 8C0 3.58173 3.58172 0 8 0H77V71.6719H0V8Z" fill="#F9893D" fill-opacity="0.5"/>
<rect x="16.5" y="16.6523" width="90" height="82.7855" rx="7.5" fill="#1A1A1A" stroke="#D6B88D"/>
<rect x="19" y="20.1895" width="84" height="74.7003" rx="8" fill="#1A1A1A"/>
<path d="M294.5 113.006L16 113.006L2 88.832" stroke="#F96B31" stroke-width="0.5" stroke-miterlimit="10"/>
<path d="M234.5 108.35C235.816 108.35 237 107.287 237 105.826C237 104.498 235.947 103.302 234.5 103.302C233.184 103.302 232 104.365 232 105.826C232 107.287 233.053 108.35 234.5 108.35Z" fill="#FF842C"/>
<path d="M17.5 105.994L41.3879 105.994L233 105.994" stroke="#F9893D" stroke-width="0.5" stroke-miterlimit="10"/>
<g clip-path="url(#clip0_71_2990)">
<circle cx="62" cy="57" r="30" fill="white"/>
<path fill-rule="evenodd" clip-rule="evenodd" d="M62.0077 22.0088C81.3375 22.0088 97.0085 37.6847 97.0085 57.0139C97.0085 76.343 81.3375 92.0085 62.0077 92.0085C42.6778 92.0085 27.0078 76.3423 27.0078 57.0139C27.0078 37.6854 42.6785 22.0088 62.0077 22.0088ZM69.9962 64.345L71.262 65.6135L72.282 64.5939L71.0162 63.3256C70.8549 63.5033 70.6856 63.6771 70.5162 63.8469C70.3468 64.0167 70.1731 64.1826 69.9962 64.345ZM56.9993 69.5987C56.9397 69.5172 56.9054 69.4201 56.9003 69.3193C56.8953 69.2185 56.9199 69.1184 56.9711 69.0314C57.3336 68.4182 57.6077 67.7568 57.7854 67.0669C57.8111 66.9691 57.8649 66.881 57.9403 66.8135C58.0156 66.7461 58.1092 66.7022 58.2092 66.6875L59.7613 66.4541V63.9145L58.2092 63.6811C58.1091 63.6665 58.0155 63.6228 57.9401 63.5553C57.8647 63.4878 57.8109 63.3996 57.7854 63.3017C57.6092 62.6113 57.335 61.9498 56.9711 61.3373C56.92 61.2505 56.8955 61.1507 56.9005 61.0501C56.9055 60.9495 56.9398 60.8526 56.9993 60.7713L57.9387 59.5058L56.1405 57.7091L54.8748 58.6448C54.7941 58.7048 54.6974 58.7396 54.597 58.7448C54.4965 58.7499 54.3968 58.7252 54.3104 58.6738C53.6966 58.3104 53.0342 58.0363 52.3432 57.8595C52.2459 57.8337 52.1582 57.7801 52.0909 57.7053C52.0236 57.6305 51.9796 57.5377 51.9642 57.4382L51.7304 55.8829H49.1906L48.9568 57.4382C48.9421 57.5379 48.8983 57.6311 48.8309 57.706C48.7634 57.781 48.6754 57.8343 48.5778 57.8595C47.8878 58.0355 47.2267 58.3098 46.6146 58.6738C46.5275 58.7253 46.4271 58.75 46.326 58.7448C46.225 58.7397 46.1276 58.7049 46.0462 58.6448L44.7844 57.7091L42.9864 59.5058L43.9217 60.7713C43.9811 60.8526 44.0154 60.9495 44.0204 61.0501C44.0254 61.1507 44.0009 61.2505 43.9499 61.3373C43.5873 61.9505 43.3132 62.6118 43.1356 63.3017C43.1105 63.399 43.0574 63.4869 42.9829 63.5543C42.9083 63.6218 42.8156 63.6659 42.7163 63.6811L41.1609 63.9145V66.4546L42.7169 66.6879C42.8162 66.7035 42.9087 66.7477 42.9832 66.8151C43.0577 66.8825 43.1109 66.9701 43.1362 67.0673C43.3141 67.7569 43.588 68.4181 43.95 69.0314C44.0011 69.1184 44.0256 69.2183 44.0206 69.3191C44.0156 69.4198 43.9813 69.5168 43.9218 69.5983L42.9865 70.8628L44.784 72.6599L46.0458 71.7244C46.1273 71.6644 46.2246 71.6297 46.3256 71.6245C46.4267 71.6194 46.527 71.644 46.6142 71.6953C47.2265 72.059 47.8876 72.3335 48.5774 72.5105C48.675 72.5354 48.7631 72.5886 48.8305 72.6634C48.8979 72.7382 48.9417 72.8313 48.9564 72.9309L49.1902 74.4862H51.73L51.9638 72.9309C51.979 72.8315 52.023 72.7387 52.0903 72.664C52.1577 72.5893 52.2454 72.5359 52.3428 72.5105C53.0337 72.3331 53.6961 72.0586 54.31 71.6953C54.3965 71.644 54.4962 71.6194 54.5966 71.6246C54.697 71.6298 54.7936 71.6645 54.8744 71.7244L56.1401 72.6599L57.9387 70.8635L56.9993 69.5987ZM48.8318 42.1607C46.9726 44.0169 45.6409 46.3344 44.9735 48.8754C44.3061 51.4164 44.3271 54.0892 45.0343 56.6194C45.0343 56.6206 45.0343 56.6215 45.0384 56.6223L46.3888 57.6228C46.8994 57.3468 47.4371 57.1241 47.9933 56.9581L48.2432 55.2952C48.2452 55.276 48.2493 55.257 48.2553 55.2387C47.8893 53.6795 47.8572 52.0604 48.1612 50.4879C48.4651 48.9154 49.0982 47.425 50.0189 46.1145C50.9397 44.804 52.1271 43.703 53.5034 42.8838C54.8797 42.0647 56.4137 41.5459 58.0046 41.3615C59.5956 41.1771 61.2076 41.3313 62.7347 41.814C64.2619 42.2967 65.6697 43.0968 66.8657 44.1621C68.0618 45.2273 69.019 46.5334 69.6745 47.9947C70.3301 49.456 70.6692 51.0394 70.6695 52.641C70.6692 55.3973 69.6667 58.0595 67.8488 60.1313C66.0308 62.2031 63.5216 63.5432 60.7887 63.9017V66.8966C60.7887 67.0199 60.7443 67.139 60.6636 67.2323C60.5829 67.3255 60.4713 67.3865 60.3493 67.4041L60.0954 67.4429C62.4962 67.3157 64.8301 66.6064 66.8957 65.3762C68.9613 64.1459 70.6966 62.4317 71.9519 60.3813C73.2073 58.3309 73.9451 56.0058 74.1015 53.6067C74.258 51.2076 73.8285 48.8065 72.8501 46.6104C71.8717 44.4143 70.3738 42.4891 68.4855 41.001C66.5972 39.5129 64.3752 38.5065 62.0112 38.0685C59.6473 37.6306 57.2122 37.7743 54.9162 38.4872C52.6201 39.2002 50.532 40.4608 48.8318 42.1607ZM80.7599 71.3638L75.9667 66.573L73.2415 69.2986L78.0347 74.09L80.7599 71.3638ZM74.2247 63.3778C74.1283 63.282 73.9979 63.2281 73.8619 63.2281C73.7259 63.2281 73.5955 63.282 73.499 63.3778L73.0068 63.8684L71.6845 62.5449C73.3824 60.423 74.5061 57.9 74.9477 55.2184C75.3892 52.5368 75.1337 49.7867 74.2057 47.2324C73.2778 44.678 71.7085 42.4052 69.6487 40.6323C67.5889 38.8595 65.1078 37.6461 62.4438 37.1088C59.7797 36.5714 57.0222 36.7283 54.4363 37.5641C51.8503 38.4 49.5228 39.8868 47.6772 41.8818C45.8317 43.8767 44.5302 46.3128 43.8978 48.9558C43.2654 51.5989 43.3233 54.3602 44.0659 56.9745L41.9456 59.0936C41.8597 59.181 41.8077 59.2961 41.7989 59.4183C41.79 59.5405 41.8248 59.6619 41.8972 59.7608L42.8969 61.1143C42.6232 61.6255 42.4004 62.1624 42.2317 62.7172L40.5717 62.9659C40.4497 62.9833 40.3381 63.0442 40.2574 63.1373C40.1767 63.2304 40.1322 63.3495 40.1323 63.4727V66.8964C40.1321 67.0198 40.1764 67.1391 40.2572 67.2325C40.3379 67.3258 40.4496 67.3869 40.5717 67.4045L42.2325 67.6533C42.4013 68.2082 42.6241 68.7451 42.8977 69.2565L41.898 70.609C41.8257 70.7079 41.7908 70.8293 41.7997 70.9515C41.8085 71.0737 41.8605 71.1888 41.9464 71.2762L44.3692 73.6982C44.4565 73.7852 44.5721 73.838 44.695 73.847C44.8179 73.8561 44.94 73.8207 45.0391 73.7474L46.3895 72.7468C46.9003 73.0227 47.4379 73.2457 47.994 73.4124L48.243 75.0744C48.261 75.1954 48.3217 75.3059 48.4141 75.3859C48.5066 75.466 48.6246 75.5103 48.7469 75.5109H52.1735C52.2962 75.5105 52.4148 75.4663 52.5079 75.3863C52.601 75.3063 52.6625 75.1957 52.6814 75.0744L52.9275 73.4115C53.4836 73.2448 54.0212 73.0217 54.532 72.7458L55.8865 73.7464C55.9848 73.8196 56.1061 73.8549 56.2282 73.8458C56.3504 73.8368 56.4652 73.784 56.5516 73.6972L58.9744 71.2753C59.0603 71.1878 59.1123 71.0728 59.1211 70.9505C59.13 70.8283 59.0952 70.707 59.0228 70.6081L58.0231 69.2555C58.1619 68.9976 58.2871 68.7325 58.398 68.4614C58.7044 68.4795 59.0108 68.488 59.3131 68.488C62.9126 68.4894 66.4051 67.2635 69.214 65.0126L70.5402 66.3372L70.048 66.8279C70.0001 66.8754 69.9622 66.9318 69.9363 66.994C69.9103 67.0562 69.897 67.1229 69.897 67.1902C69.897 67.2576 69.9103 67.3243 69.9363 67.3865C69.9622 67.4487 70.0001 67.5051 70.048 67.5525L78.8443 76.3514C79.3996 76.8978 80.1482 77.2028 80.9273 77.1998C81.7063 77.1967 82.4526 76.886 83.0036 76.3352C83.5546 75.7845 83.8656 75.0383 83.8689 74.2593C83.8723 73.4802 83.5676 72.7314 83.0214 72.176L74.2247 63.3778ZM50.46 59.9735C49.4291 59.9736 48.4214 60.2793 47.5643 60.8521C46.7072 61.4248 46.0392 62.2389 45.6447 63.1913C45.2502 64.1437 45.147 65.1917 45.3482 66.2028C45.5493 67.2138 46.0457 68.1426 46.7747 68.8715C47.5036 69.6004 48.4324 70.0968 49.4434 70.2979C50.4545 70.499 51.5025 70.3958 52.4549 70.0013C53.4073 69.6068 54.2213 68.9388 54.7941 68.0817C55.3668 67.2245 55.6725 66.2168 55.6725 65.1859C55.6711 63.8039 55.1214 62.479 54.1442 61.5018C53.167 60.5246 51.842 59.9749 50.46 59.9735ZM53.1207 52.2923L57.482 56.6536C57.529 56.701 57.5849 56.7386 57.6465 56.7642C57.7081 56.7899 57.7742 56.8031 57.8409 56.8032C57.978 56.8032 58.1097 56.7495 58.2077 56.6536L65.5003 49.3577C65.5954 49.2613 65.6484 49.1312 65.6479 48.9957C65.6474 48.8603 65.5934 48.7306 65.4976 48.6348C65.4019 48.5391 65.2721 48.4851 65.1367 48.4847C65.0012 48.4842 64.8711 48.5373 64.7747 48.6324L57.8419 55.5646L53.8468 51.5664C53.7506 51.4702 53.6201 51.4161 53.4841 51.4161C53.348 51.416 53.2175 51.47 53.1213 51.5662C53.0251 51.6624 52.971 51.7929 52.9709 51.9289C52.9709 52.065 53.0245 52.196 53.1207 52.2923ZM52.3991 65.554H50.4927V62.3906C50.4905 62.2557 50.4354 62.1271 50.3392 62.0325C50.2431 61.9379 50.1136 61.8849 49.9787 61.8849C49.8438 61.8849 49.7143 61.9379 49.6182 62.0325C49.522 62.1271 49.4669 62.2557 49.4647 62.3906V66.066C49.4647 66.2019 49.5187 66.3322 49.6146 66.4283C49.7106 66.5244 49.8408 66.5786 49.9767 66.5788H52.3992C52.5331 66.5757 52.6605 66.5204 52.7542 66.4246C52.8478 66.3287 52.9002 66.2001 52.9002 66.0661C52.9002 65.9322 52.8478 65.8035 52.7542 65.7077C52.6605 65.6119 52.533 65.5571 52.3991 65.554Z" fill="#F9893D"/>
</g>
<defs>
<clipPath id="clip0_71_2990">
<rect width="70" height="70" fill="white" transform="translate(27 22)"/>
</clipPath>
</defs>
</svg>
