<svg width="187" height="36" viewBox="0 0 187 36" fill="none" xmlns="http://www.w3.org/2000/svg">
<path d="M22.8164 35.9797H32.6V13.3965L22.8164 23.4468V35.9797Z" fill="url(#paint0_linear_1_19577)"/>
<path d="M0 35.9797H9.78359V23.4468L0 13.3965V35.9797Z" fill="url(#paint1_linear_1_19577)"/>
<path d="M16.3003 23.4348H13.0508V35.9797H19.5498V23.4348H16.3003Z" fill="url(#paint2_linear_1_19577)"/>
<path d="M22.7816 20.4786L32.6003 10.4463L32.5944 0.0241699L19.5555 13.4026H13.0506L0.0116914 0.0241699L0 10.4463L9.81866 20.4786H22.7816Z" fill="url(#paint3_linear_1_19577)"/>
<path d="M136.301 25.4734C134.443 23.8663 127.114 23.1707 125.688 21.9834C123.145 18.4994 132.333 18.3195 132.38 21.7855L137.26 20.8261C136.009 16.6164 133.256 15.4111 128.604 15.3931C122.245 14.6256 117.091 21.7315 122.695 25.8512C124.536 27.1105 128.774 28.046 131.544 28.7236C136.307 31.8718 125.033 34.0725 124.846 28.7716L119.656 29.6051C120.96 36.5431 131.363 37.5626 135.676 33.8986C138.171 31.8358 138.914 27.5003 136.301 25.4734Z" fill="#E8E8E8"/>
<path d="M160.446 25.2336C160.113 12.173 140.423 12.4008 140.464 25.5034C139.903 39.7813 161.206 39.2596 160.446 25.2336ZM154.046 29.5751C148.909 33.9946 142.241 26.9905 146.87 21.9654C152.042 17.5519 158.623 24.5439 154.046 29.5751Z" fill="#E8E8E8"/>
<path d="M170.533 16.5266C170.393 13.7501 173.076 14.1639 174.952 14.5957L175.647 10.9317C166.922 8.683 164.899 11.9452 165.507 20.5323H163V25.6834H165.507V35.9915H170.528V25.6834H173.035V20.5323H170.528C170.528 20.4064 170.528 16.7364 170.533 16.5326V16.5266Z" fill="#E8E8E8"/>
<path d="M186.56 30.8228C182.165 32.7537 183.176 28.9519 183.077 25.6657H185.595V20.5266H183.077C183.077 18.5597 183.088 12.0834 183.041 10.2305L178.074 15.3815V20.5326H175.566V25.6717H178.074C177.723 33.4973 178.378 37.9048 186.998 35.1703L186.56 30.8288V30.8228Z" fill="#E8E8E8"/>
<path d="M54.5973 10.2664L50.1555 27.2607L45.7079 10.2664H37.625V35.9798H42.6454V15.4114L47.6482 35.9798H52.6686L57.6773 15.4114V35.9798H62.6976V10.2664H54.6031H54.5973Z" fill="#E8E8E8"/>
<path d="M82.4759 33.0891C81.7337 29.6651 83.0019 21.4557 81.5993 18.3675C78.6303 13.5282 67.444 14.2238 65.9128 20.4123L70.2201 22.0494C70.8747 18.4095 77.7186 18.4634 77.2452 22.4512C75.8542 23.2307 69.9571 24.0103 68.1921 25.0477C59.3144 31.7519 71.5468 40.1591 77.6543 33.5989C77.8179 34.1625 78.1686 35.4818 78.3264 35.8356H83.3935C82.9493 34.8641 82.6396 33.9407 82.4759 33.0832V33.0891ZM77.2452 27.0925C78.4082 32.1057 70.9799 35.164 70.2201 29.743C70.1149 26.7387 75.41 26.8707 77.2452 25.9892V27.0925Z" fill="#E8E8E8"/>
<path d="M94.344 15.4534C92.3277 15.6213 91.6088 16.089 90.2821 18.1339V15.4534H90.2763L85.2734 20.5865V35.9857H90.2938C90.8198 31.5542 87.9736 16.5987 96.1324 21.0302C96.5064 19.9388 97.3305 17.5582 97.7162 16.4488C96.635 15.7832 95.5129 15.4594 94.344 15.4594V15.4534Z" fill="#E8E8E8"/>
<path d="M109.105 24.4481L117.883 15.4412H110.694L105.341 20.9581V0L100.32 5.14508V35.9796H105.341V28.298L105.563 28.0821L113.254 35.9796H120.384L109.105 24.4481Z" fill="#E8E8E8"/>
<defs>
<linearGradient id="paint0_linear_1_19577" x1="27.7082" y1="35.8717" x2="27.7082" y2="17.5042" gradientUnits="userSpaceOnUse">
<stop stop-color="#F96B31"/>
<stop offset="1" stop-color="#F9893D"/>
</linearGradient>
<linearGradient id="paint1_linear_1_19577" x1="4.8918" y1="35.8717" x2="4.8918" y2="17.5042" gradientUnits="userSpaceOnUse">
<stop stop-color="#F96B31"/>
<stop offset="1" stop-color="#F9893D"/>
</linearGradient>
<linearGradient id="paint2_linear_1_19577" x1="16.3003" y1="35.8718" x2="16.3003" y2="17.5042" gradientUnits="userSpaceOnUse">
<stop stop-color="#F96B31"/>
<stop offset="1" stop-color="#F9893D"/>
</linearGradient>
<linearGradient id="paint3_linear_1_19577" x1="16.3001" y1="35.8718" x2="16.3001" y2="17.5043" gradientUnits="userSpaceOnUse">
<stop stop-color="#F96B31"/>
<stop offset="1" stop-color="#F9893D"/>
</linearGradient>
</defs>
</svg>
