<svg width="199" height="202" viewBox="0 0 199 202" fill="none" xmlns="http://www.w3.org/2000/svg">
<path d="M166.864 24.7467C156.582 29.4985 146.735 31.3252 137.595 30.183C130.309 29.2676 123.425 26.4767 117.135 21.8744C106.303 13.9544 100.902 3.28417 100.851 3.18042L99.2707 0L97.6912 3.18042C97.6373 3.28213 92.2365 13.9544 81.4046 21.8744C75.1119 26.4767 68.2262 29.2717 60.9429 30.183C51.8003 31.3252 41.9549 29.4985 31.6742 24.7467L29.1641 23.5903V78.7834C29.1641 96.4196 32.8307 111.985 40.0642 125.045C45.8615 135.521 53.9494 144.404 64.0928 151.442C81.3263 163.403 98.3116 165.857 99.0286 165.956L99.2676 165.988L99.5097 165.956C100.222 165.854 117.207 163.403 134.445 151.442C144.589 144.404 152.674 135.524 158.474 125.045C165.707 111.985 169.371 96.4196 169.371 78.7834V23.5903L166.864 24.7467Z" fill="url(#paint0_linear_531_6946)"/>
<path d="M99.2702 160.853C98.3772 160.703 94.4543 159.993 89.3333 158.319C83.7963 156.51 75.4257 153.124 66.992 147.269C57.4934 140.679 49.9304 132.375 44.5144 122.588C37.6999 110.291 34.25 95.5557 34.25 78.789V31.3593C41.5598 34.1726 48.7343 35.5985 55.5833 35.5985C57.5859 35.5993 59.5866 35.476 61.574 35.2293C69.731 34.2123 77.413 31.0969 84.4045 25.979C91.7143 20.6342 96.7468 14.1025 99.2682 10.3789C101.787 14.1014 106.816 20.6291 114.134 25.98C121.128 31.0979 128.81 34.2102 136.965 35.2293C138.951 35.4759 140.95 35.5992 142.951 35.5985C149.796 35.5985 156.97 34.1746 164.282 31.3593V78.784C164.282 95.5516 160.83 110.288 154.022 122.583C148.604 132.37 141.041 140.674 131.544 147.264C116.52 157.692 101.277 160.513 99.2702 160.853Z" fill="url(#paint1_linear_531_6946)"/>
<path d="M99.2724 158.782C96.1203 158.183 93.0106 157.379 89.963 156.376C84.5551 154.608 76.3808 151.302 68.1496 145.589C58.9093 139.181 51.5548 131.105 46.2914 121.594C39.6488 109.602 36.2812 95.1975 36.2812 78.7797V34.2578C42.872 36.4974 49.366 37.6315 55.5855 37.6315C57.6724 37.6323 59.7574 37.5039 61.8284 37.247C70.3332 36.1832 78.3336 32.9438 85.6078 27.6193C92.0409 22.9153 96.8202 17.1637 99.2703 13.8887C101.717 17.1657 106.492 22.9163 112.935 27.6254C120.212 32.9488 128.212 36.1872 136.715 37.2511C138.785 37.5065 140.868 37.6335 142.953 37.6315C149.168 37.6315 155.659 36.4974 162.25 34.2578V78.7827C162.25 95.2015 158.884 109.607 152.245 121.596C146.979 131.108 139.624 139.181 130.385 145.592C116.228 155.419 101.273 158.41 99.2724 158.782Z" fill="url(#paint2_radial_531_6946)"/>
<path d="M129.249 72.9792L94.5409 114.065L91.1113 118.125L86.8742 114.613L70.9141 101.382L80.8367 91.4596L90.0037 102.518L116.074 63.1094L129.249 72.9792Z" fill="white"/>
<path d="M164.463 134.152H33.5638C15.027 134.152 0 149.179 0 167.716C0 186.253 15.027 201.28 33.5638 201.28H164.463C182.999 201.28 198.026 186.253 198.026 167.716C198.026 149.179 182.999 134.152 164.463 134.152Z" fill="url(#paint3_linear_531_6946)"/>
<path d="M33.5648 199.247C25.2026 199.247 17.1829 195.925 11.27 190.012C5.35702 184.099 2.03516 176.079 2.03516 167.717C2.03516 159.355 5.35702 151.335 11.27 145.422C17.1829 139.509 25.2026 136.188 33.5648 136.188H164.464C172.826 136.188 180.845 139.509 186.758 145.422C192.671 151.335 195.993 159.355 195.993 167.717C195.993 176.079 192.671 184.099 186.758 190.012C180.845 195.925 172.826 199.247 164.464 199.247H33.5648Z" fill="url(#paint4_linear_531_6946)"/>
<path d="M33.563 198.026C25.5245 198.026 17.8153 194.833 12.1312 189.149C6.44718 183.465 3.25391 175.756 3.25391 167.717C3.25391 159.679 6.44718 151.97 12.1312 146.286C17.8153 140.601 25.5245 137.408 33.563 137.408H164.462C172.5 137.408 180.21 140.601 185.894 146.286C191.578 151.97 194.771 159.679 194.771 167.717C194.771 175.756 191.578 183.465 185.894 189.149C180.21 194.833 172.5 198.026 164.462 198.026H33.563Z" fill="url(#paint5_radial_531_6946)"/>
<path d="M34.4188 166.985C36.6688 167.723 37.0288 169.415 36.9748 170.711V174.383H34.5628V170.513V170.495C34.5628 169.289 33.7888 168.137 30.7288 168.137H27.3268V166.013H30.6748C32.6008 166.013 34.1308 165.797 34.1308 164.321C34.1308 163.331 33.0868 162.809 31.1068 162.809H31.0888H26.8048V160.685H31.0168H31.0708H31.0888C35.1568 160.721 36.5248 161.891 36.5248 164.303C36.5248 165.689 35.4988 166.769 34.4188 166.985ZM52.8204 172.727L51.5064 174.401L49.3464 172.565C48.4104 173.843 46.8624 174.563 44.8644 174.563C41.4444 174.563 39.3204 172.511 39.3204 169.199V160.757H41.7504V169.199C41.7504 171.197 42.9744 172.385 44.8644 172.385C46.7184 172.385 47.9064 171.215 47.9064 169.199V160.757H50.3364V169.199C50.3364 169.667 50.3004 170.099 50.2104 170.513L52.8204 172.727ZM56.5512 169.199C56.5512 171.197 57.7752 172.385 59.6652 172.385C61.5192 172.385 62.7072 171.215 62.7072 169.199V160.757H65.1372V169.199C65.1372 172.511 63.0312 174.563 59.6652 174.563C56.2452 174.563 54.1212 172.511 54.1212 169.199V160.757H56.5512V169.199ZM67.3788 169.559H69.7908C69.8448 171.521 71.3388 172.421 73.3908 172.457C75.5508 172.475 76.9188 171.827 76.9188 170.459C76.9548 167.165 67.9008 169.523 68.0088 164.087C68.0448 162.035 69.9528 160.505 73.4628 160.577C75.8568 160.631 78.7188 161.711 78.7188 164.429H76.3068C76.3428 163.583 75.3348 162.719 73.4628 162.683C71.6808 162.665 70.4388 163.187 70.4208 164.141C70.3668 167.165 79.4928 164.897 79.3308 170.675C79.2588 173.213 76.9728 174.581 73.3548 174.563C70.4208 174.527 67.2888 173.213 67.3788 169.559ZM95.0783 172.727L93.7643 174.401L91.6043 172.565C90.6683 173.843 89.1203 174.563 87.1223 174.563C83.7023 174.563 81.5783 172.511 81.5783 169.199V160.757H84.0083V169.199C84.0083 171.197 85.2323 172.385 87.1223 172.385C88.9763 172.385 90.1643 171.215 90.1643 169.199V160.757H92.5943V169.199C92.5943 169.667 92.5583 170.099 92.4683 170.513L95.0783 172.727ZM95.785 169.559H98.197C98.251 171.521 99.745 172.421 101.797 172.457C103.957 172.475 105.325 171.827 105.325 170.459C105.361 167.165 96.307 169.523 96.415 164.087C96.451 162.035 98.359 160.505 101.869 160.577C104.263 160.631 107.125 161.711 107.125 164.429H104.713C104.749 163.583 103.741 162.719 101.869 162.683C100.087 162.665 98.845 163.187 98.827 164.141C98.773 167.165 107.899 164.897 107.737 170.675C107.665 173.213 105.379 174.581 101.761 174.563C98.827 174.527 95.695 173.213 95.785 169.559ZM120.335 172.277H123.395V174.401H117.923V170.315C117.185 171.107 116.213 171.611 114.971 171.611C111.605 171.611 109.679 169.361 109.679 166.067V163.439H112.091V166.067C112.091 168.065 112.991 169.433 114.989 169.433C116.753 169.433 117.779 168.497 117.923 166.679V160.757H120.335V172.277ZM138.215 172.727L136.901 174.401L134.741 172.565C133.805 173.843 132.257 174.563 130.259 174.563C126.839 174.563 124.715 172.511 124.715 169.199V160.757H127.145V169.199C127.145 171.197 128.369 172.385 130.259 172.385C132.113 172.385 133.301 171.215 133.301 169.199V160.757H135.731V169.199C135.731 169.667 135.695 170.099 135.605 170.513L138.215 172.727ZM153.556 162.521V164.627H151.054C151.954 165.671 152.476 167.021 152.476 168.515C152.458 171.917 149.992 174.563 146.32 174.563C142.648 174.563 140.164 171.917 140.164 168.515C140.164 167.003 140.686 165.653 141.568 164.627H141.352C139.624 164.627 138.688 163.727 138.688 161.945V160.757H141.082V161.567C141.082 162.179 141.424 162.521 142.018 162.521H153.556ZM146.338 172.385C148.624 172.385 150.154 170.675 150.154 168.515C150.154 166.373 148.444 164.699 146.338 164.699C144.214 164.699 142.45 166.373 142.45 168.515C142.45 170.675 144.052 172.385 146.338 172.385ZM171.437 165.887H163.373V172.277H167.603C169.529 172.277 170.573 173.087 170.573 175.103V175.841H168.161V175.481C168.161 174.797 167.747 174.383 167.027 174.383H160.961V160.757H163.373V163.781H171.437V165.887Z" fill="white"/>
<defs>
<linearGradient id="paint0_linear_531_6946" x1="30.4771" y1="82.9941" x2="175.195" y2="82.9941" gradientUnits="userSpaceOnUse">
<stop stop-color="#999999"/>
<stop offset="0.23" stop-color="#F2F2F2"/>
<stop offset="0.52" stop-color="#A1A1A1"/>
<stop offset="0.69" stop-color="#6D6D6D"/>
<stop offset="1" stop-color="#E6E6E6"/>
</linearGradient>
<linearGradient id="paint1_linear_531_6946" x1="34.0812" y1="85.6137" x2="170.025" y2="85.6137" gradientUnits="userSpaceOnUse">
<stop stop-color="#E6E6E6"/>
<stop offset="0.31" stop-color="#6D6D6D"/>
<stop offset="0.48" stop-color="#A1A1A1"/>
<stop offset="0.77" stop-color="#F2F2F2"/>
<stop offset="1" stop-color="#999999"/>
</linearGradient>
<radialGradient id="paint2_radial_531_6946" cx="0" cy="0" r="1" gradientUnits="userSpaceOnUse" gradientTransform="translate(99.2693 86.3336) scale(67.8812 67.8812)">
<stop stop-color="#17AB15"/>
<stop offset="1" stop-color="#0C3522"/>
</radialGradient>
<linearGradient id="paint3_linear_531_6946" x1="99.0132" y1="134.901" x2="99.0132" y2="201.727" gradientUnits="userSpaceOnUse">
<stop stop-color="#999999"/>
<stop offset="0.23" stop-color="#F2F2F2"/>
<stop offset="0.52" stop-color="#A1A1A1"/>
<stop offset="0.69" stop-color="#6D6D6D"/>
<stop offset="1" stop-color="#E6E6E6"/>
</linearGradient>
<linearGradient id="paint4_linear_531_6946" x1="99.0142" y1="136.891" x2="99.0142" y2="199.668" gradientUnits="userSpaceOnUse">
<stop stop-color="#E6E6E6"/>
<stop offset="0.31" stop-color="#6D6D6D"/>
<stop offset="0.48" stop-color="#A1A1A1"/>
<stop offset="0.77" stop-color="#F2F2F2"/>
<stop offset="1" stop-color="#999999"/>
</linearGradient>
<radialGradient id="paint5_radial_531_6946" cx="0" cy="0" r="1" gradientUnits="userSpaceOnUse" gradientTransform="translate(99.0124 167.798) scale(100.281 31.0873)">
<stop stop-color="#17AB15"/>
<stop offset="1" stop-color="#0C3522"/>
</radialGradient>
</defs>
</svg>
