<svg width="560" height="433" viewBox="0 0 560 433" fill="none" xmlns="http://www.w3.org/2000/svg">
<g clip-path="url(#clip0_121_2214)">
<path d="M346.396 277.643C341.389 277.691 337.003 282.332 334.158 282.355C332.497 282.355 328.539 281.561 328.595 275.386L328.245 239.609L292.445 239.927C286.246 239.927 285.46 243.861 285.468 245.53C285.468 248.375 290.14 252.753 290.188 257.76C290.244 263.664 285.642 267.693 279.809 267.948C273.968 267.797 269.304 263.847 269.248 257.951C269.2 252.944 273.77 248.478 273.746 245.633C273.746 243.964 272.872 240.031 266.673 240.166L237.779 240.436L230.873 240.491L231.199 277.428C230.865 282.594 227.313 283.357 225.755 283.365C222.91 283.365 218.444 278.827 213.445 278.867C207.541 278.922 203.591 283.595 203.44 289.428C203.695 295.261 207.732 299.862 213.628 299.807C218.635 299.759 223.013 295.118 225.866 295.094C227.456 295.094 230.984 295.778 231.429 300.935L231.763 337.864L267.563 337.546C273.762 337.546 274.557 333.62 274.541 331.983C274.541 329.138 269.868 324.752 269.82 319.753C269.773 313.849 274.366 309.82 280.199 309.565C286.04 309.708 290.704 313.666 290.76 319.562C290.8 324.561 286.238 329.027 286.262 331.88C286.262 333.549 287.144 337.482 293.335 337.347L329.135 337.022L328.817 301.221C328.682 295.031 332.624 294.164 334.293 294.148C337.138 294.148 341.604 298.686 346.602 298.638C352.507 298.591 356.456 293.918 356.607 288.085C356.329 282.181 352.292 277.587 346.396 277.643Z" fill="#FAA75B"/>
<g style="mix-blend-mode:soft-light">
<path d="M236.364 274.847C239.074 283.97 261.071 268.148 265.362 258.159C266.514 255.489 267.953 251.007 267.571 248.074C267.214 245.253 264.885 244.101 262.35 243.561C258.56 242.766 248.928 243.362 240.838 243.783C236.912 243.99 236.07 243.823 236.134 248.289L236.364 274.847Z" fill="white"/>
</g>
<g style="mix-blend-mode:soft-light">
<path d="M295.202 248.75C296.251 252.588 299.136 256.172 299.215 260.257C299.217 264.525 297.673 268.649 294.869 271.867C293.096 273.838 288.94 276.548 293.144 278.812C294.532 279.402 296.052 279.61 297.547 279.416C300.066 279.281 302.561 279.027 305.096 278.979C309.61 278.892 316.706 278.876 319.488 274.529C321.824 270.89 321.467 265.319 321.475 261.171C321.475 256.895 321.681 251.865 320.139 247.796C318.455 243.346 310.174 243.084 306.296 243.028C302.553 242.996 293.613 242.869 295.202 248.75Z" fill="white"/>
</g>
<g style="mix-blend-mode:multiply">
<path d="M350.425 281.068C353.906 285.899 349.304 292.424 343.797 292.535C336.923 292.686 329.366 287.044 322.826 291.176C318.391 293.981 318.542 299.735 319.019 304.368C319.416 308.206 320.171 312.005 320.426 315.859C320.616 318.767 320.696 322.216 319.114 324.767C317.533 327.318 314.616 328.653 311.589 328.828C307.615 329.066 301.162 329.114 299.605 324.545C298.532 321.414 299.12 318.068 298.27 314.897C297.591 311.927 296.166 309.178 294.13 306.911C289.934 302.572 283.799 301.03 277.918 301.396C271.886 301.761 265.807 304.455 263.375 310.352C261.945 313.816 262.096 316.749 262.7 320.341C263.05 322.431 263.256 324.457 262.207 326.372C260.324 329.813 253.195 328.2 250.207 327.835C246.91 327.429 243.397 326.651 241.514 323.615C237.373 316.963 240.719 307.459 240.719 300.196C240.719 296.063 240.123 290.882 236.11 288.601C230.134 285.192 224.356 290.683 218.825 292.455C209.949 295.3 205.967 290.993 203.846 286.336C203.569 287.334 203.414 288.361 203.385 289.396C203.639 295.229 207.676 299.83 213.573 299.774C218.579 299.727 222.958 295.086 225.811 295.062C227.4 295.062 230.928 295.745 231.373 300.903L231.707 337.832L267.508 337.514C273.706 337.514 274.501 333.588 274.485 331.951C274.485 329.106 269.812 324.72 269.765 319.721C269.717 313.816 274.31 309.787 280.143 309.533C285.984 309.676 290.649 313.634 290.704 319.53C290.744 324.529 286.183 328.995 286.207 331.848C286.207 333.517 287.089 337.45 293.279 337.315L329.08 336.989L328.762 301.189C328.627 294.998 332.568 294.132 334.237 294.116C337.082 294.116 341.548 298.654 346.547 298.606C352.451 298.559 356.401 293.886 356.552 288.053C356.298 282.212 352.261 277.619 346.364 277.674C346.118 277.674 345.887 277.674 345.649 277.722C347.542 278.329 349.207 279.495 350.425 281.068Z" fill="#FBBEA9"/>
</g>
<path d="M291.062 238.871C291.062 233.864 286.373 229.486 286.35 226.641C286.35 224.972 287.144 221.014 293.327 221.038L329.127 220.712L328.801 184.952C328.801 178.753 324.876 177.959 323.239 177.974C320.386 177.974 316.007 182.639 311.001 182.687C305.104 182.743 301.067 178.149 300.821 172.308C300.964 166.475 304.913 161.811 310.818 161.755C315.824 161.707 320.282 166.277 323.127 166.245C324.796 166.245 328.738 165.371 328.603 159.172L328.341 130.278L328.277 123.372L291.348 123.698C286.175 123.364 285.42 119.812 285.404 118.262C285.404 115.417 289.941 110.943 289.902 105.944C289.846 100.048 285.181 96.0904 279.34 95.9473C273.507 96.1937 268.914 100.231 268.962 106.127C269.01 111.134 273.651 115.52 273.682 118.365C273.682 119.955 272.999 123.483 267.833 123.928L230.905 124.254L231.23 160.062C231.23 166.261 235.204 167.055 236.833 167.04C239.678 167.04 244.057 162.367 249.063 162.327C254.96 162.272 258.997 166.865 259.251 172.706C259.108 178.475 255.134 183.188 249.222 183.188C244.223 183.235 239.757 178.674 236.912 178.69C235.244 178.69 231.35 179.572 231.445 185.762L231.763 221.571L267.571 221.245C273.762 221.11 274.628 225.059 274.636 226.72C274.636 229.565 270.098 234.031 270.146 239.038C270.194 244.934 274.866 248.884 280.707 249.035C286.524 248.804 291.118 244.767 291.062 238.871Z" fill="#00BAD5"/>
<g style="mix-blend-mode:soft-light">
<path d="M293.859 128.838C284.736 131.556 300.566 153.545 310.548 157.836C313.218 158.989 317.66 160.427 320.632 160.046C323.453 159.688 324.606 157.368 325.146 154.825C325.941 151.034 325.345 141.402 324.916 133.32C324.709 129.387 324.916 128.552 320.418 128.608L293.859 128.838Z" fill="white"/>
</g>
<g style="mix-blend-mode:soft-light">
<path d="M319.965 187.686C316.118 188.727 312.542 191.612 308.45 191.659C304.178 191.651 300.055 190.092 296.847 187.273C294.876 185.508 292.159 181.344 289.902 185.556C289.305 186.939 289.096 188.458 289.298 189.951C289.425 192.47 289.679 194.973 289.727 197.5C289.814 202.022 289.83 209.11 294.177 211.9C297.817 214.228 303.395 213.871 307.544 213.879C311.811 213.879 316.849 214.093 320.91 212.551C325.36 210.859 325.623 202.578 325.678 198.708C325.71 195.029 325.861 186.089 319.965 187.686Z" fill="white"/>
</g>
<g style="mix-blend-mode:multiply">
<path d="M287.637 242.899C282.805 246.38 276.289 241.779 276.169 236.272C276.026 229.406 281.669 221.84 277.528 215.3C274.731 210.866 268.978 211.017 264.345 211.493C260.506 211.891 256.7 212.646 252.846 212.9C249.937 213.099 246.488 213.17 243.937 211.589C241.386 210.007 240.059 207.091 239.884 204.063C239.646 200.09 239.59 193.637 244.16 192.079C247.291 191.007 250.644 191.595 253.807 190.752C256.779 190.07 259.53 188.646 261.802 186.612C266.141 182.416 267.682 176.281 267.317 170.392C266.943 164.369 264.249 158.282 258.353 155.85C254.896 154.427 251.995 154.57 248.371 155.174C246.281 155.524 244.247 155.739 242.332 154.69C238.899 152.798 240.512 145.67 240.878 142.682C241.283 139.392 242.062 135.871 245.089 133.988C251.749 129.848 261.245 133.193 268.517 133.193C272.649 133.193 277.83 132.597 280.111 128.584C283.512 122.616 278.029 116.831 276.257 111.3C273.412 102.431 277.719 98.442 282.376 96.3202C281.376 96.0417 280.346 95.8895 279.308 95.8672C273.475 96.1135 268.882 100.151 268.93 106.047C268.978 111.054 273.619 115.44 273.65 118.285C273.65 119.875 272.967 123.403 267.801 123.848L230.873 124.174L231.198 159.982C231.198 166.181 235.172 166.975 236.801 166.959C239.646 166.959 244.025 162.287 249.031 162.247C254.928 162.191 258.965 166.785 259.219 172.626C259.108 178.474 255.134 183.187 249.222 183.187C244.223 183.235 239.757 178.673 236.912 178.689C235.243 178.689 231.349 179.571 231.445 185.762L231.763 221.57L267.571 221.244C273.762 221.109 274.628 225.059 274.636 226.72C274.636 229.565 270.098 234.031 270.146 239.037C270.193 244.934 274.866 248.883 280.707 249.034C286.54 248.78 291.133 244.743 291.038 238.846C291.038 238.608 291.038 238.37 290.99 238.131C290.388 240.027 289.217 241.691 287.637 242.899Z" fill="#D1D3D4"/>
</g>
<path d="M260.84 2V44.7778C251.185 53.9404 250.684 58.5416 246.536 66.5044C241.935 75.2459 231.89 82.4695 231.89 82.4695C228.107 90.9011 236.261 91.3382 236.261 91.3382C240.149 91.256 243.941 90.1105 247.225 88.0259C250.509 85.9414 253.159 82.9974 254.888 79.5133L255.039 144.185C254.888 152.131 260.705 152.608 260.705 152.608C268.191 153.49 269.447 148.174 269.447 148.174V151.718C269.447 159.729 276.797 159.665 276.797 159.665C283.886 160.102 284.363 152.568 284.363 152.568V142.85C284.363 149.946 290.029 149.056 290.029 149.056C298.063 149.056 296.641 141.522 296.641 141.522V129.101C296.641 135.308 302.76 134.378 302.76 134.378C309.371 134.378 309.165 127.782 309.165 127.782V61.6409C306.781 53.6941 298.039 47.4399 298.039 47.4399V2H260.84Z" fill="#EFBB8C"/>
<g style="mix-blend-mode:multiply">
<path d="M258.949 81.7392C258.838 79.7604 259.171 77.7022 258.854 75.7473C258.734 75.0162 258.496 74.0149 257.558 73.7526C255.818 73.2679 254.952 75.0082 254.729 75.342C251.018 80.5631 248.443 85.6252 241.935 87.4927C236.682 89.0105 232.645 86.0066 234.187 80.6584C232.78 81.8187 231.858 82.4862 231.858 82.4862C228.076 90.9178 236.229 91.3549 236.229 91.3549C240.118 91.2727 243.91 90.1272 247.193 88.0426C250.477 85.958 253.127 83.014 254.856 79.53L255.007 144.201C254.856 152.148 260.673 152.625 260.673 152.625C268.159 153.507 269.415 148.191 269.415 148.191V151.735C269.415 159.745 276.766 159.682 276.766 159.682C281.399 159.968 283.203 156.853 283.918 154.659C280.389 156.654 275.176 157.298 274.008 152.474C273.301 149.51 273.833 145.942 273.817 142.938C273.817 138.13 273.738 133.314 273.698 128.506C273.698 124.39 273.428 120.21 273.698 116.109V103.76C273.698 103.76 273.698 101.662 272.482 101.28C270.71 100.732 269.86 102.266 269.431 103.76L269.439 137.891C269.733 140.681 269.502 147.563 266.308 148.151C261.031 149.12 259.307 147.277 259.203 142.66L258.949 81.7392Z" fill="#F0CFBA"/>
</g>
<g style="mix-blend-mode:multiply">
<path d="M302.815 131.128C308.696 132.184 309.077 127.782 309.077 127.782C309.077 127.782 309.284 134.378 302.672 134.378C302.672 134.378 296.553 135.308 296.553 129.101V94.0795C296.553 93.8331 298.198 93.6503 298.429 93.7139C298.691 93.8146 298.925 93.9792 299.108 94.1929C299.291 94.4066 299.418 94.6626 299.478 94.9377C300.066 96.5271 299.875 98.3389 299.923 99.9601C300.105 107.057 300.121 119.327 299.994 126.423C300.018 126.423 299.263 130.484 302.815 131.128Z" fill="#F0CFBA"/>
</g>
<g style="mix-blend-mode:multiply">
<path d="M284.299 142.849C284.285 143.79 284.417 144.728 284.689 145.63C284.732 145.725 284.779 145.818 284.832 145.908C284.901 146.008 284.929 146.13 284.911 146.25C285.339 147.2 286.062 147.986 286.973 148.492C287.883 148.997 288.933 149.195 289.965 149.055C294.932 149.055 296.283 146.17 296.593 143.969C296.322 144.553 295.905 145.056 295.381 145.429C294.857 145.802 294.245 146.033 293.605 146.099C291.459 146.226 290.379 146.099 288.837 144.565C287.295 143.031 286.731 139.002 287.248 129.943C287.502 125.231 287.319 117.594 287.414 106.269C287.414 105.562 286.842 97.5915 284.848 100.397C283.902 101.724 284.252 104.14 284.252 105.689L284.299 142.849Z" fill="#F0CFBA"/>
</g>
<g style="mix-blend-mode:multiply">
<path d="M260.84 2V44.7778C251.185 53.9404 250.684 58.5416 246.536 66.5044C245.868 67.7611 245.117 68.9718 244.287 70.1281C244.97 69.5957 245.67 69.0871 246.369 68.5388C249.24 66.2345 251.818 63.587 254.046 60.6555C256.732 57.3496 259.132 53.7894 262.263 50.8571C264.575 48.5898 267.477 47.0175 270.639 46.3194C271.282 46.2002 276.734 44.6506 279.65 44.7301C281.852 44.7301 275.733 42.6003 275.001 40.3434C274.731 39.5487 274.135 16.2804 274.04 2H260.84Z" fill="#F0CFBA"/>
</g>
<path d="M269.566 153.633C269.677 154.022 269.788 154.427 269.931 154.785C270.34 155.827 270.912 156.798 271.624 157.662C270.513 156.583 269.789 155.166 269.566 153.633Z" fill="#EFBB8C"/>
<path d="M292.151 40.4551C291.916 40.4572 291.692 40.5519 291.526 40.7186C291.361 40.8852 291.269 41.1104 291.269 41.3451V51.7634C291.268 51.9594 291.332 52.1502 291.451 52.3056C291.571 52.461 291.738 52.5722 291.928 52.6217C302.076 55.3315 302.958 64.6849 303.014 75.7151C303.016 75.9498 303.111 76.1742 303.277 76.3394C303.444 76.5046 303.669 76.5972 303.904 76.5972C304.139 76.5951 304.363 76.5004 304.528 76.3337C304.693 76.1671 304.786 75.9419 304.786 75.7072C304.73 66.7908 304.667 54.6322 293.033 51.072V41.3451C293.033 41.1104 292.94 40.8852 292.775 40.7186C292.61 40.5519 292.385 40.4572 292.151 40.4551Z" fill="white"/>
<path d="M302.052 15.8984H258.138V33.1192H302.052V15.8984Z" fill="#E4DBDA"/>
<path d="M305.93 2H254.268V15.899H305.93V2Z" fill="#F9893D"/>
<path d="M297.873 24.8065C297.874 24.1005 297.666 23.4099 297.275 22.822C296.884 22.2342 296.327 21.7756 295.675 21.5044C295.024 21.2331 294.306 21.1613 293.613 21.2981C292.921 21.4348 292.284 21.774 291.784 22.2727C291.284 22.7714 290.944 23.4072 290.805 24.0996C290.667 24.7919 290.737 25.5098 291.007 26.1622C291.277 26.8147 291.734 27.3724 292.321 27.7648C292.908 28.1572 293.598 28.3667 294.304 28.3667C295.249 28.3667 296.156 27.9919 296.825 27.3244C297.494 26.657 297.87 25.7515 297.873 24.8065Z" fill="#D6CECE"/>
<path d="M296.545 24.8074C296.545 24.3642 296.414 23.9309 296.168 23.5624C295.921 23.1938 295.571 22.9066 295.162 22.737C294.752 22.5674 294.302 22.523 293.867 22.6095C293.432 22.6959 293.033 22.9094 292.72 23.2228C292.406 23.5362 292.193 23.9355 292.106 24.3702C292.02 24.8049 292.064 25.2555 292.234 25.665C292.403 26.0745 292.691 26.4245 293.059 26.6707C293.428 26.917 293.861 27.0484 294.304 27.0484C294.599 27.0484 294.89 26.9904 295.162 26.8778C295.434 26.7652 295.681 26.6001 295.889 26.392C296.097 26.1839 296.262 25.9369 296.375 25.665C296.487 25.3931 296.545 25.1017 296.545 24.8074Z" fill="#C9C2C2"/>
<path d="M294.074 24.8074C294.074 24.6738 294.021 24.5457 293.928 24.4505C293.834 24.3554 293.707 24.3009 293.573 24.2988C293.438 24.2988 293.309 24.3524 293.214 24.4477C293.118 24.5431 293.065 24.6725 293.065 24.8074C293.067 24.9409 293.121 25.0682 293.216 25.1619C293.311 25.2555 293.44 25.308 293.573 25.308C293.706 25.308 293.833 25.2553 293.927 25.1614C294.021 25.0675 294.074 24.9401 294.074 24.8074Z" fill="#ADA7A8"/>
<path d="M295.075 25.3081C295.351 25.3081 295.576 25.0839 295.576 24.8074C295.576 24.5309 295.351 24.3068 295.075 24.3068C294.798 24.3068 294.574 24.5309 294.574 24.8074C294.574 25.0839 294.798 25.3081 295.075 25.3081Z" fill="#ADA7A8"/>
<path d="M279.031 274.027C279.031 274.027 271.688 274.027 271.68 282.013V285.558C271.68 285.558 270.448 280.241 262.938 281.123C262.938 281.123 257.113 281.568 257.264 289.547L257.113 354.218C255.384 350.734 252.734 347.789 249.45 345.703C246.167 343.617 242.375 342.47 238.486 342.385C238.486 342.385 230.34 342.83 234.115 351.262C234.115 351.262 244.16 358.462 248.761 367.219C252.941 375.166 253.45 379.791 263.065 388.954V429.999H300.225V386.292C300.225 386.292 308.966 380.069 311.35 372.091V305.949C311.35 305.949 311.565 299.353 304.953 299.353C304.953 299.353 298.834 298.416 298.834 304.63V292.209C298.834 292.209 300.249 284.668 292.222 284.668C292.222 284.668 286.548 283.785 286.548 290.882V281.123C286.548 281.123 286.127 273.582 279.031 274.027Z" fill="#EFBB8C"/>
<g style="mix-blend-mode:multiply">
<path d="M261.238 351.995C261.126 353.974 261.468 356.032 261.15 357.987C261.031 358.718 260.785 359.711 259.847 359.973C258.114 360.466 257.248 358.726 257.026 358.384C253.315 353.163 250.732 348.101 244.231 346.225C238.978 344.716 234.934 347.719 236.483 353.06C235.077 351.899 234.147 351.24 234.147 351.24C230.372 342.808 238.518 342.363 238.518 342.363C242.407 342.448 246.198 343.595 249.482 345.681C252.765 347.767 255.415 350.712 257.145 354.196L257.296 289.525C257.145 281.578 262.97 281.101 262.97 281.101C270.448 280.219 271.711 285.536 271.711 285.536V281.991C271.711 273.981 279.062 274.005 279.062 274.005C283.695 273.719 285.491 276.834 286.214 279.027C282.678 277.032 277.473 276.389 276.297 281.212C275.589 284.177 276.13 287.745 276.114 290.749C276.114 295.564 276.035 300.38 275.995 305.188C275.955 309.297 275.717 313.485 275.995 317.585V329.942C275.995 329.942 276.035 332.04 274.787 332.422C273.007 332.97 272.164 331.436 271.735 329.942V295.835C272.037 293.045 271.799 286.163 268.612 285.575C263.328 284.606 261.603 286.449 261.508 291.067L261.238 351.995Z" fill="#F0CFBA"/>
</g>
<g style="mix-blend-mode:multiply">
<path d="M305.136 302.605C311.008 301.548 311.39 305.951 311.39 305.951C311.39 305.951 311.604 299.355 304.993 299.355C304.993 299.355 298.874 298.417 298.874 304.632V339.653C298.874 339.9 300.519 340.075 300.741 340.011C301.005 339.913 301.24 339.751 301.425 339.538C301.61 339.326 301.738 339.07 301.798 338.795C302.378 337.246 302.195 335.394 302.235 333.773C302.418 326.676 302.442 314.406 302.307 307.31C302.307 307.31 301.56 303.249 305.136 302.605Z" fill="#F0CFBA"/>
</g>
<g style="mix-blend-mode:multiply">
<path d="M286.588 290.884C286.573 289.942 286.704 289.004 286.977 288.102C287.033 288.007 287.072 287.912 287.128 287.824C287.194 287.723 287.222 287.602 287.208 287.483C287.635 286.532 288.357 285.745 289.268 285.238C290.179 284.731 291.229 284.532 292.262 284.669C297.229 284.669 298.579 287.562 298.889 289.763C298.617 289.181 298.198 288.679 297.675 288.306C297.152 287.933 296.541 287.701 295.901 287.634C293.748 287.506 292.675 287.634 291.133 289.167C289.592 290.701 289.019 294.73 289.544 303.782C289.806 308.502 289.623 316.139 289.719 327.463C289.719 328.17 289.139 336.141 287.152 333.336C286.206 332.009 286.556 329.593 286.548 328.043L286.588 290.884Z" fill="#F0CFBA"/>
</g>
<g style="mix-blend-mode:multiply">
<path d="M248.777 367.219C252.957 375.166 253.465 379.791 263.081 388.954V429.999H276.273C276.392 415.655 276.948 394.183 277.211 393.388C277.942 391.123 284.069 388.962 281.859 389.002C278.943 389.041 273.491 387.5 272.848 387.412C269.686 386.712 266.785 385.14 264.472 382.875C261.341 379.942 258.949 376.382 256.255 373.076C254.03 370.143 251.451 367.495 248.578 365.193C247.887 364.676 247.18 364.168 246.496 363.604C247.337 364.756 248.099 365.964 248.777 367.219Z" fill="#F0CFBA"/>
</g>
<path d="M271.823 280.139C271.934 279.749 272.045 279.344 272.188 278.986C272.6 277.943 273.171 276.97 273.881 276.102C272.772 277.186 272.049 278.604 271.823 280.139Z" fill="#EFBB8C"/>
<path d="M294.447 393.269C294.212 393.269 293.987 393.176 293.821 393.011C293.654 392.846 293.559 392.622 293.557 392.387V381.961C293.558 381.766 293.623 381.577 293.742 381.423C293.862 381.269 294.028 381.159 294.217 381.11C304.373 378.4 305.247 369.047 305.342 358.017C305.342 357.9 305.365 357.785 305.41 357.677C305.455 357.57 305.521 357.472 305.603 357.39C305.686 357.308 305.784 357.244 305.892 357.2C306 357.156 306.116 357.134 306.232 357.135C306.349 357.134 306.465 357.156 306.573 357.201C306.681 357.245 306.779 357.311 306.861 357.394C306.944 357.477 307.008 357.575 307.052 357.684C307.095 357.792 307.117 357.908 307.114 358.025C307.067 366.941 306.995 379.092 295.361 382.66V392.411C295.358 392.527 295.332 392.642 295.284 392.748C295.236 392.855 295.168 392.951 295.083 393.03C294.998 393.11 294.898 393.172 294.789 393.213C294.68 393.254 294.564 393.273 294.447 393.269Z" fill="white"/>
<path d="M304.341 400.613H260.427V417.834H304.341V400.613Z" fill="#E4DBDA"/>
<path d="M308.219 417.834H256.557V430.001H308.219V417.834Z" fill="#F9893D"/>
<path d="M300.161 408.925C300.163 409.632 299.955 410.323 299.563 410.911C299.172 411.499 298.614 411.957 297.962 412.228C297.31 412.499 296.592 412.571 295.899 412.433C295.206 412.296 294.569 411.956 294.07 411.456C293.57 410.957 293.231 410.32 293.093 409.628C292.956 408.935 293.027 408.217 293.298 407.564C293.569 406.912 294.028 406.355 294.616 405.963C295.204 405.572 295.895 405.364 296.601 405.365C297.545 405.365 298.451 405.74 299.118 406.408C299.786 407.076 300.161 407.981 300.161 408.925Z" fill="#D6CECE"/>
<path d="M298.842 408.925C298.842 409.368 298.71 409.801 298.464 410.17C298.218 410.538 297.868 410.825 297.458 410.995C297.049 411.165 296.598 411.209 296.164 411.123C295.729 411.036 295.33 410.823 295.016 410.509C294.703 410.196 294.489 409.797 294.403 409.362C294.316 408.927 294.361 408.477 294.53 408.067C294.7 407.658 294.987 407.308 295.356 407.061C295.724 406.815 296.158 406.684 296.601 406.684C297.195 406.684 297.765 406.92 298.186 407.34C298.606 407.76 298.842 408.33 298.842 408.925Z" fill="#C9C2C2"/>
<path d="M296.331 408.924C296.331 409.024 296.302 409.12 296.247 409.203C296.192 409.285 296.113 409.349 296.022 409.387C295.93 409.425 295.83 409.435 295.733 409.416C295.635 409.396 295.546 409.349 295.476 409.279C295.406 409.208 295.359 409.119 295.339 409.022C295.32 408.925 295.33 408.824 295.368 408.733C295.406 408.641 295.47 408.563 295.552 408.508C295.634 408.453 295.731 408.424 295.83 408.424C295.963 408.424 296.09 408.477 296.184 408.57C296.278 408.664 296.331 408.792 296.331 408.924Z" fill="#ADA7A8"/>
<path d="M297.872 408.924C297.872 409.057 297.82 409.185 297.726 409.279C297.632 409.372 297.505 409.425 297.372 409.425C297.239 409.425 297.112 409.372 297.018 409.279C296.924 409.185 296.871 409.057 296.871 408.924C296.871 408.792 296.924 408.664 297.018 408.57C297.112 408.477 297.239 408.424 297.372 408.424C297.505 408.424 297.632 408.477 297.726 408.57C297.82 408.664 297.872 408.792 297.872 408.924Z" fill="#ADA7A8"/>
<path d="M218.356 289.516C218.317 284.51 213.668 280.131 213.644 277.286C213.644 275.617 214.439 271.66 220.613 271.683L256.422 271.358L256.096 235.557C256.096 229.359 252.162 228.572 250.533 228.588C247.688 228.588 243.309 233.261 238.303 233.3C232.406 233.356 228.369 228.763 228.123 222.922C228.266 217.081 232.216 212.416 238.12 212.368C243.119 212.321 247.585 216.882 250.43 216.858C252.099 216.858 256.04 215.984 255.905 209.786L255.643 180.891L255.579 173.985L218.65 174.311C213.485 173.977 212.722 170.425 212.706 168.867C212.706 166.022 217.244 161.556 217.204 156.558C217.149 150.653 212.484 146.704 206.643 146.561C200.81 146.807 196.209 150.844 196.264 156.741C196.312 161.747 200.953 166.134 200.985 168.979C200.985 170.568 200.301 174.096 195.136 174.541L158.183 174.843L158.501 210.644C158.501 216.842 162.435 217.637 164.064 217.621C166.917 217.621 171.295 212.948 176.302 212.909C182.198 212.853 186.235 217.446 186.49 223.279C186.339 229.12 182.389 233.793 176.485 233.841C171.486 233.88 167.02 229.319 164.175 229.343C162.506 229.343 158.612 230.225 158.7 236.415L159.018 272.224L194.818 271.898C201.016 271.763 201.883 275.704 201.891 277.373C201.891 280.218 197.353 284.684 197.401 289.683C197.448 295.587 202.121 299.537 207.954 299.688C213.811 299.45 218.412 295.413 218.356 289.516Z" fill="#EB495A"/>
<g style="mix-blend-mode:soft-light">
<path d="M221.154 179.484C212.031 182.202 227.853 204.19 237.842 208.482C240.52 209.634 244.994 211.072 247.934 210.691C250.748 210.333 251.908 208.013 252.448 205.47C253.243 201.679 252.647 192.048 252.218 183.958C252.011 180.032 252.218 179.19 247.712 179.253L221.154 179.484Z" fill="white"/>
</g>
<g style="mix-blend-mode:soft-light">
<path d="M247.251 238.331C243.413 239.373 239.829 242.257 235.744 242.305C231.477 242.302 227.356 240.755 224.142 237.95C222.179 236.178 219.461 232.022 217.204 236.233C216.606 237.616 216.398 239.136 216.6 240.628C216.727 243.147 216.981 245.65 217.029 248.178C217.117 252.699 217.132 259.788 221.479 262.577C225.119 264.906 230.69 264.548 234.846 264.556C239.002 264.564 244.152 264.763 248.212 263.221C252.663 261.536 252.925 253.256 252.981 249.378C253.004 245.674 253.132 236.734 247.251 238.331Z" fill="white"/>
</g>
<g style="mix-blend-mode:multiply">
<path d="M214.931 293.544C210.1 297.025 203.583 292.424 203.464 286.917C203.313 280.051 208.963 272.485 204.823 265.953C202.018 261.511 196.264 261.662 191.639 262.138C187.801 262.536 183.994 263.291 180.14 263.545C177.232 263.736 173.783 263.815 171.232 262.234C168.681 260.652 167.354 257.744 167.171 254.708C166.941 250.774 166.885 244.282 171.454 242.724C174.585 241.651 177.939 242.24 181.102 241.389C184.078 240.707 186.831 239.273 189.096 237.225C193.435 233.037 194.977 226.894 194.611 221.014C194.238 214.99 191.544 208.911 185.647 206.471C182.19 205.048 179.29 205.191 175.658 205.795C173.576 206.145 171.542 206.352 169.627 205.303C166.186 203.419 167.799 196.291 168.164 193.303C168.57 190.013 169.348 186.493 172.384 184.609C179.044 180.469 188.54 183.814 195.811 183.814C199.944 183.814 205.125 183.218 207.406 179.205C210.807 173.237 205.316 167.452 203.552 161.921C200.707 153.044 205.014 149.063 209.663 146.941C208.666 146.663 207.638 146.511 206.603 146.488C200.77 146.735 196.169 150.772 196.225 156.668C196.272 161.675 200.913 166.061 200.945 168.906C200.945 170.496 200.262 174.024 195.096 174.469L158.183 174.843L158.501 210.643C158.501 216.841 162.435 217.636 164.064 217.62C166.917 217.62 171.295 212.948 176.302 212.908C182.198 212.852 186.235 217.445 186.49 223.278C186.339 229.119 182.389 233.792 176.485 233.84C171.486 233.879 167.02 229.318 164.175 229.342C162.506 229.342 158.612 230.224 158.7 236.415L159.018 272.223L194.818 271.897C201.016 271.762 201.883 275.704 201.891 277.372C201.891 280.217 197.353 284.684 197.401 289.682C197.448 295.587 202.121 299.536 207.954 299.687C213.795 299.433 218.388 295.396 218.333 289.499C218.333 289.261 218.333 289.023 218.285 288.784C217.673 290.673 216.504 292.332 214.931 293.544Z" fill="#D1D3D4"/>
</g>
<path d="M257.129 234.183C262.136 234.143 266.514 229.494 269.359 229.47C271.028 229.47 274.986 230.265 274.922 236.448L275.248 272.248L311.048 271.922C317.247 271.922 318.034 267.997 318.026 266.36C318.026 263.507 313.353 259.128 313.305 254.129C313.258 248.225 317.843 244.188 323.684 243.942C329.525 244.085 334.19 248.042 334.245 253.939C334.285 258.945 329.723 263.411 329.747 266.248C329.747 267.917 330.621 271.859 336.82 271.724L365.723 271.461L372.62 271.398L372.295 234.469C372.628 229.303 376.181 228.541 377.738 228.525C380.583 228.525 385.049 233.07 390.048 233.023C395.952 232.967 399.902 228.302 400.053 222.461C399.798 216.628 395.769 212.035 389.865 212.091C384.858 212.13 380.48 216.779 377.627 216.803C376.038 216.803 372.509 216.12 372.064 210.962L371.73 174.025L335.93 174.351C329.731 174.351 328.937 178.325 328.953 179.954C328.953 182.799 333.625 187.177 333.673 192.184C333.721 198.08 329.127 202.117 323.294 202.372C317.454 202.221 312.781 198.271 312.733 192.375C312.693 187.368 317.255 182.902 317.231 180.057C317.231 178.388 316.349 174.455 310.158 174.59L274.358 174.907L274.676 210.716C274.811 216.906 270.869 217.773 269.2 217.789C266.355 217.789 261.897 213.243 256.891 213.291C250.994 213.346 247.037 218.011 246.886 223.852C247.188 229.645 251.233 234.238 257.129 234.183Z" fill="#785D9E"/>
<g style="mix-blend-mode:soft-light">
<path d="M367.184 236.988C364.474 227.865 342.478 243.687 338.186 253.676C337.034 256.347 335.596 260.789 335.977 263.761C336.335 266.582 338.655 267.734 341.198 268.275C344.989 269.069 354.62 268.473 362.71 268.044C366.636 267.838 367.478 268.044 367.415 263.546L367.184 236.988Z" fill="white"/>
</g>
<g style="mix-blend-mode:soft-light">
<path d="M308.314 263.084C307.273 259.238 304.389 255.662 304.341 251.577C304.349 247.304 305.908 243.179 308.728 239.967C310.5 237.996 314.656 235.286 310.452 233.022C309.045 232.432 307.504 232.237 305.994 232.457C303.475 232.585 300.972 232.839 298.452 232.887C293.923 232.982 286.834 232.99 284.053 237.337C281.716 240.976 282.074 246.555 282.066 250.703C282.066 254.979 281.859 260.009 283.401 264.07C285.086 268.52 293.366 268.782 297.245 268.838C300.98 268.838 309.912 268.957 308.314 263.084Z" fill="white"/>
</g>
<g style="mix-blend-mode:multiply">
<path d="M253.1 230.756C249.619 225.925 254.22 219.408 259.728 219.289C266.594 219.146 274.159 224.788 280.699 220.656C285.134 217.851 284.983 212.097 284.506 207.464C284.108 203.626 283.353 199.819 283.099 195.965C282.908 193.057 282.829 189.608 284.41 187.057C285.992 184.506 288.908 183.179 291.944 183.004C295.87 182.766 302.362 182.718 303.92 187.279C304.993 190.41 304.405 193.764 305.255 196.927C305.937 199.899 307.362 202.649 309.395 204.921C313.591 209.26 319.726 210.802 325.615 210.436C331.503 210.071 337.718 207.369 340.165 201.464C341.596 198.008 341.445 195.107 340.841 191.483C340.491 189.393 340.285 187.359 341.333 185.444C343.217 182.011 350.345 183.624 353.333 183.989C356.631 184.395 360.144 185.174 362.035 188.201C366.167 194.861 362.83 204.365 362.79 211.628C362.79 215.761 363.394 220.942 367.399 223.223C373.367 226.632 379.16 221.141 384.683 219.369C393.56 216.524 397.541 220.831 399.671 225.488C399.946 224.487 400.098 223.457 400.124 222.42C399.87 216.587 395.841 211.994 389.936 212.05C384.93 212.089 380.551 216.738 377.698 216.762C376.109 216.762 372.58 216.079 372.135 210.921L371.802 173.984L336.001 174.31C329.803 174.31 329.008 178.284 329.024 179.913C329.024 182.758 333.697 187.136 333.744 192.143C333.792 198.039 329.199 202.076 323.366 202.331C317.525 202.18 312.852 198.23 312.804 192.334C312.765 187.327 317.326 182.861 317.302 180.016C317.302 178.347 316.42 174.414 310.23 174.549L274.429 174.866L274.747 210.675C274.882 216.865 270.941 217.732 269.272 217.748C266.427 217.748 261.969 213.202 256.962 213.25C251.066 213.305 247.108 217.97 246.957 223.811C247.211 229.644 251.248 234.237 257.145 234.182C257.383 234.182 257.63 234.182 257.86 234.142C255.966 233.523 254.306 232.342 253.1 230.756Z" fill="#D1D3D4"/>
</g>
<path d="M494 203.961H451.222C442.059 194.306 437.458 193.805 429.496 189.657C420.754 185.056 413.53 175.011 413.53 175.011C405.107 171.228 404.662 179.382 404.662 179.382C404.748 183.261 405.893 187.044 407.971 190.321C410.049 193.598 412.982 196.245 416.455 197.977L351.791 198.128C343.805 197.977 343.36 203.794 343.36 203.794C342.478 211.28 347.794 212.536 347.794 212.536H344.25C336.248 212.536 336.303 219.895 336.303 219.895C335.858 226.975 343.392 227.452 343.392 227.452H353.15C346.054 227.452 346.944 233.118 346.944 233.118C346.944 241.152 354.485 239.738 354.485 239.738H366.898C360.692 239.738 361.63 245.849 361.63 245.849C361.63 252.461 368.218 252.254 368.218 252.254H434.367C442.314 249.87 448.56 241.129 448.56 241.129H494V203.961Z" fill="#EFBB8C"/>
<g style="mix-blend-mode:multiply">
<path d="M414.269 202.069C416.248 201.957 418.298 202.299 420.253 201.973C420.984 201.854 421.986 201.616 422.248 200.678C422.733 198.938 420.992 198.079 420.659 197.849C415.438 194.138 410.375 191.563 408.508 185.054C406.998 179.802 409.994 175.765 415.342 177.306C414.182 175.9 413.514 174.978 413.514 174.978C405.091 171.195 404.646 179.349 404.646 179.349C404.728 183.235 405.872 187.025 407.953 190.309C410.035 193.592 412.975 196.243 416.455 197.976L351.791 198.127C343.805 197.976 343.36 203.793 343.36 203.793C342.478 211.279 347.794 212.535 347.794 212.535H344.25C336.247 212.535 336.303 219.893 336.303 219.893C336.009 224.526 339.124 226.322 341.325 227.045C339.323 223.517 338.679 218.304 343.503 217.136C346.475 216.429 350.043 216.961 353.039 216.945C357.855 216.945 362.668 216.905 367.478 216.826C371.587 216.826 375.767 216.556 379.868 216.826H392.233C392.233 216.826 394.323 216.826 394.712 215.61C395.261 213.838 393.719 212.995 392.233 212.558L358.125 212.598C355.328 212.892 348.446 212.662 347.866 209.467C346.896 204.19 348.732 202.466 353.357 202.363L414.269 202.069Z" fill="#F0CFBA"/>
</g>
<g style="mix-blend-mode:multiply">
<path d="M364.872 245.967C363.815 251.848 368.217 252.229 368.217 252.229C368.217 252.229 361.63 252.436 361.63 245.824C361.63 245.824 360.692 239.713 366.898 239.713H401.92C402.166 239.713 402.349 241.35 402.286 241.58C402.187 241.843 402.024 242.077 401.811 242.26C401.599 242.443 401.344 242.57 401.07 242.629C399.48 243.217 397.668 243.027 396.039 243.074C388.951 243.257 376.673 243.273 369.576 243.146C369.568 243.138 365.516 242.383 364.872 245.967Z" fill="#F0CFBA"/>
</g>
<g style="mix-blend-mode:multiply">
<path d="M353.15 227.42C352.209 227.406 351.271 227.537 350.369 227.809C350.276 227.853 350.185 227.904 350.099 227.96C349.994 228.024 349.871 228.049 349.749 228.031C348.801 228.461 348.016 229.184 347.511 230.095C347.006 231.005 346.807 232.054 346.944 233.086C346.944 238.06 349.829 239.403 352.03 239.713C351.446 239.443 350.944 239.026 350.572 238.502C350.199 237.977 349.971 237.365 349.908 236.725C349.773 234.58 349.908 233.499 351.434 231.957C352.96 230.416 356.997 229.843 366.056 230.368C370.769 230.622 378.405 230.439 389.738 230.543C390.437 230.543 398.416 229.963 395.61 227.968C394.275 227.022 391.859 227.372 390.31 227.372L353.15 227.42Z" fill="#F0CFBA"/>
</g>
<g style="mix-blend-mode:multiply">
<path d="M494 203.961H451.222C442.06 194.306 437.459 193.805 429.496 189.657C428.239 188.989 427.028 188.238 425.872 187.408C426.405 188.092 426.913 188.791 427.461 189.49C429.766 192.362 432.413 194.94 435.345 197.167C438.651 199.853 442.211 202.253 445.143 205.384C447.41 207.697 448.984 210.599 449.689 213.76C449.808 214.404 451.35 219.855 451.278 222.772C451.278 224.973 453.408 218.854 455.665 218.123C456.499 217.852 479.728 217.256 494.008 217.169L494 203.961Z" fill="#F0CFBA"/>
</g>
<path d="M342.367 212.686C341.985 212.797 341.572 212.908 341.223 213.051C340.178 213.46 339.204 214.031 338.338 214.744C339.418 213.634 340.834 212.91 342.367 212.686Z" fill="#EFBB8C"/>
<path d="M455.545 235.271C455.543 235.036 455.449 234.812 455.282 234.647C455.115 234.481 454.89 234.389 454.655 234.389H444.269C444.073 234.388 443.882 234.452 443.727 234.571C443.571 234.691 443.46 234.859 443.411 235.048C440.701 245.204 431.355 246.078 420.317 246.174C420.083 246.174 419.859 246.267 419.693 246.432C419.528 246.598 419.435 246.822 419.435 247.056C419.437 247.291 419.532 247.515 419.699 247.68C419.865 247.845 420.09 247.938 420.325 247.938C429.241 247.89 441.4 247.819 444.96 236.185H454.711C454.941 236.17 455.157 236.067 455.313 235.896C455.469 235.726 455.552 235.502 455.545 235.271Z" fill="white"/>
<path d="M480.101 201.258H462.88V245.172H480.101V201.258Z" fill="#E4DBDA"/>
<path d="M494 197.389H480.101V249.051H494V197.389Z" fill="#F9893D"/>
<path d="M471.193 240.994C471.899 240.995 472.589 240.787 473.177 240.396C473.765 240.005 474.223 239.448 474.495 238.797C474.766 238.145 474.838 237.427 474.701 236.734C474.564 236.042 474.225 235.405 473.726 234.905C473.228 234.406 472.592 234.065 471.899 233.927C471.207 233.788 470.489 233.858 469.837 234.128C469.184 234.398 468.627 234.855 468.234 235.442C467.842 236.029 467.632 236.719 467.632 237.426C467.632 238.37 468.007 239.277 468.675 239.946C469.342 240.615 470.248 240.992 471.193 240.994Z" fill="#D6CECE"/>
<path d="M471.193 239.666C471.636 239.666 472.069 239.534 472.438 239.288C472.806 239.042 473.093 238.692 473.263 238.282C473.433 237.873 473.477 237.422 473.391 236.987C473.304 236.553 473.091 236.153 472.777 235.84C472.464 235.527 472.065 235.313 471.63 235.227C471.195 235.14 470.745 235.185 470.335 235.354C469.926 235.524 469.576 235.811 469.329 236.18C469.083 236.548 468.952 236.981 468.952 237.425C468.954 238.018 469.191 238.587 469.61 239.007C470.03 239.427 470.599 239.664 471.193 239.666Z" fill="#C9C2C2"/>
<path d="M471.193 237.162C471.326 237.162 471.454 237.11 471.549 237.016C471.645 236.923 471.699 236.795 471.701 236.662C471.71 236.59 471.704 236.517 471.683 236.449C471.661 236.38 471.626 236.316 471.578 236.262C471.53 236.208 471.472 236.164 471.406 236.135C471.34 236.105 471.269 236.09 471.197 236.09C471.124 236.09 471.053 236.105 470.987 236.135C470.922 236.164 470.863 236.208 470.815 236.262C470.767 236.316 470.732 236.38 470.711 236.449C470.689 236.517 470.683 236.59 470.692 236.662C470.692 236.795 470.745 236.922 470.839 237.016C470.932 237.11 471.06 237.162 471.193 237.162Z" fill="#ADA7A8"/>
<path d="M471.193 238.697C471.469 238.697 471.693 238.472 471.693 238.196C471.693 237.919 471.469 237.695 471.193 237.695C470.916 237.695 470.692 237.919 470.692 238.196C470.692 238.472 470.916 238.697 471.193 238.697Z" fill="#ADA7A8"/>
<path d="M221.972 222.127C221.972 222.127 221.972 214.784 214.025 214.776H210.473C210.473 214.776 215.798 213.544 214.908 206.034C214.908 206.034 214.47 200.209 206.484 200.36L141.821 200.209C145.305 198.48 148.249 195.83 150.333 192.546C152.418 189.263 153.563 185.471 153.646 181.582C153.646 181.582 153.2 173.437 144.777 177.211C144.777 177.211 137.577 187.256 128.812 191.857C120.865 196.037 116.248 196.546 107.085 206.162H66V243.313H109.708C109.708 243.313 115.93 252.054 123.909 254.438H190.058C190.058 254.438 196.646 254.645 196.646 248.033C196.646 248.033 197.583 241.914 191.377 241.914H203.79C203.79 241.914 211.331 243.329 211.331 235.303C211.331 235.303 212.214 229.629 205.117 229.629H214.876C214.876 229.629 222.417 229.279 221.972 222.127Z" fill="#EFBB8C"/>
<g style="mix-blend-mode:multiply">
<path d="M144.006 204.359C142.027 204.255 139.969 204.589 138.022 204.271C137.291 204.152 136.29 203.906 136.028 202.968C135.543 201.236 137.283 200.369 137.617 200.147C142.838 196.436 147.948 193.853 149.776 187.352C151.285 182.1 148.289 178.055 142.941 179.604C144.102 178.198 144.769 177.268 144.769 177.268C153.193 173.493 153.638 181.639 153.638 181.639C153.556 185.527 152.41 189.319 150.325 192.603C148.241 195.887 145.297 198.537 141.813 200.266L206.476 200.417C214.423 200.266 214.9 206.091 214.9 206.091C215.79 213.569 210.465 214.833 210.465 214.833H214.018C222.02 214.833 221.964 222.183 221.964 222.183C222.259 226.816 219.135 228.612 216.942 229.335C218.937 225.799 219.588 220.594 214.765 219.418C211.793 218.711 208.224 219.251 205.228 219.235C200.413 219.235 195.605 219.156 190.789 219.116C186.681 219.076 182.501 218.838 178.4 219.116H166.027C166.027 219.116 163.929 219.156 163.547 217.908C162.999 216.128 164.533 215.285 166.027 214.856L200.135 214.896C202.924 215.19 209.814 214.952 210.394 211.765C211.363 206.48 209.528 204.756 204.903 204.661L144.006 204.359Z" fill="#F0CFBA"/>
</g>
<g style="mix-blend-mode:multiply">
<path d="M193.395 248.256C194.452 254.129 190.058 254.518 190.058 254.518C190.058 254.518 196.646 254.725 196.646 248.113C196.646 248.113 197.583 241.994 191.377 241.994H156.347C156.109 241.994 155.926 243.639 155.99 243.862C156.087 244.126 156.25 244.361 156.462 244.546C156.675 244.73 156.931 244.859 157.206 244.918C158.795 245.507 160.607 245.316 162.228 245.356C169.325 245.538 181.602 245.562 188.699 245.427C188.699 245.427 192.76 244.68 193.395 248.256Z" fill="#F0CFBA"/>
</g>
<g style="mix-blend-mode:multiply">
<path d="M205.117 229.708C206.062 229.692 207.004 229.826 207.907 230.105C207.994 230.153 208.089 230.193 208.177 230.248C208.28 230.315 208.404 230.343 208.526 230.328C209.475 230.756 210.261 231.479 210.766 232.39C211.272 233.3 211.47 234.35 211.332 235.382C211.332 240.349 208.447 241.7 206.246 242.01C206.827 241.737 207.328 241.319 207.7 240.795C208.072 240.271 208.302 239.66 208.367 239.022C208.503 236.868 208.367 235.795 206.834 234.253C205.3 232.712 201.271 232.148 192.219 232.664C187.507 232.926 179.862 232.744 168.538 232.839C167.831 232.839 159.86 232.259 162.665 230.272C163.992 229.326 166.416 229.676 167.966 229.668L205.117 229.708Z" fill="#F0CFBA"/>
</g>
<g style="mix-blend-mode:multiply">
<path d="M128.78 191.929C120.833 196.109 116.216 196.618 107.053 206.233H66V219.417C80.352 219.544 101.816 220.101 102.611 220.355C104.876 221.094 107.037 227.213 107.006 225.004C106.958 222.087 108.5 216.644 108.595 215.992C109.298 212.83 110.872 209.928 113.141 207.616C116.073 204.485 119.633 202.093 122.939 199.399C125.871 197.176 128.517 194.597 130.814 191.722C131.339 191.031 131.839 190.324 132.404 189.64C131.249 190.485 130.038 191.249 128.78 191.929Z" fill="#F0CFBA"/>
</g>
<path d="M215.909 214.975C216.29 215.086 216.703 215.197 217.053 215.34C218.095 215.755 219.067 216.326 219.938 217.033C218.855 215.926 217.44 215.203 215.909 214.975Z" fill="#EFBB8C"/>
<path d="M102.73 237.568C102.73 237.333 102.823 237.108 102.988 236.941C103.153 236.774 103.378 236.68 103.612 236.678H114.039C114.234 236.678 114.424 236.743 114.579 236.862C114.735 236.981 114.846 237.148 114.897 237.337C117.599 247.493 126.952 248.367 137.99 248.463C138.225 248.465 138.449 248.56 138.614 248.726C138.78 248.893 138.872 249.118 138.872 249.353C138.871 249.47 138.847 249.585 138.802 249.693C138.756 249.8 138.689 249.898 138.606 249.98C138.523 250.062 138.424 250.126 138.316 250.17C138.207 250.214 138.091 250.236 137.974 250.235C129.058 250.187 116.907 250.116 113.339 238.482H103.612C103.494 238.482 103.376 238.458 103.267 238.411C103.158 238.365 103.059 238.297 102.977 238.212C102.895 238.127 102.83 238.026 102.788 237.915C102.746 237.804 102.726 237.686 102.73 237.568Z" fill="white"/>
<path d="M95.3873 203.547H78.1665V247.461H95.3873V203.547Z" fill="#E4DBDA"/>
<path d="M78.1666 199.678H66V251.34H78.1666V199.678Z" fill="#F9893D"/>
<path d="M87.0748 243.281C86.3707 243.281 85.6824 243.072 85.0969 242.681C84.5114 242.289 84.0551 241.733 83.7857 241.083C83.5162 240.432 83.4457 239.716 83.5831 239.026C83.7204 238.335 84.0595 237.701 84.5574 237.203C85.0553 236.705 85.6897 236.366 86.3803 236.229C87.0709 236.091 87.7867 236.162 88.4372 236.431C89.0878 236.701 89.6438 237.157 90.035 237.742C90.4262 238.328 90.635 239.016 90.635 239.72C90.635 240.665 90.2599 241.57 89.5923 242.238C88.9246 242.905 88.019 243.281 87.0748 243.281Z" fill="#D6CECE"/>
<path d="M87.075 241.994C86.6318 241.994 86.1985 241.862 85.83 241.616C85.4614 241.37 85.1742 241.02 85.0046 240.61C84.835 240.201 84.7906 239.75 84.877 239.316C84.9635 238.881 85.177 238.482 85.4904 238.168C85.8038 237.855 86.2031 237.641 86.6378 237.555C87.0725 237.468 87.5231 237.513 87.9326 237.682C88.3421 237.852 88.6921 238.139 88.9383 238.508C89.1846 238.876 89.316 239.309 89.316 239.753C89.316 240.347 89.0799 240.917 88.6596 241.337C88.2394 241.758 87.6693 241.994 87.075 241.994Z" fill="#C9C2C2"/>
<path d="M87.0749 239.458C86.9414 239.456 86.814 239.402 86.7204 239.307C86.6267 239.212 86.5742 239.083 86.5742 238.95C86.5742 238.817 86.627 238.69 86.7209 238.596C86.8147 238.502 86.9421 238.449 87.0749 238.449C87.2084 238.449 87.3366 238.502 87.4317 238.595C87.5269 238.689 87.5814 238.816 87.5835 238.95C87.5835 239.085 87.5299 239.214 87.4345 239.31C87.3391 239.405 87.2098 239.458 87.0749 239.458Z" fill="#ADA7A8"/>
<path d="M87.0749 240.994C86.9421 240.994 86.8147 240.941 86.7209 240.847C86.627 240.753 86.5742 240.626 86.5742 240.493C86.5742 240.359 86.6267 240.231 86.7204 240.136C86.814 240.041 86.9414 239.986 87.0749 239.984C87.2098 239.984 87.3391 240.038 87.4345 240.133C87.5299 240.229 87.5835 240.358 87.5835 240.493C87.5814 240.626 87.5269 240.754 87.4317 240.847C87.3366 240.941 87.2084 240.994 87.0749 240.994Z" fill="#ADA7A8"/>
</g>
<defs>
<clipPath id="clip0_121_2214">
<rect width="428" height="428" fill="white" transform="translate(66 2)"/>
</clipPath>
</defs>
</svg>
