<svg width="30" height="30" viewBox="0 0 30 30" fill="none" xmlns="http://www.w3.org/2000/svg">
<g clip-path="url(#clip0_531_6078)">
<path d="M30 15C30 23.2842 23.2842 30 15 30C6.71579 30 0 23.2842 0 15C0 6.71579 6.71579 0 15 0C23.2842 0 30 6.71579 30 15Z" fill="#473080"/>
<path d="M23.1127 9.87553L26.1072 6.88101L24.2283 6.52853L23.8758 4.64958L20.8859 7.63533C19.2643 6.45639 17.2726 5.76077 15.1136 5.76077C9.68437 5.76077 5.28516 10.16 5.28516 15.5892V16.4203C5.28516 21.8492 9.68437 26.2484 15.1136 26.2484C17.3176 26.2484 19.3501 25.5213 20.9899 24.2974C21.2924 24.0716 21.5769 23.8321 21.8479 23.5746C22.0693 23.3623 22.2859 23.1456 22.4892 22.9108C22.7377 22.6307 22.9681 22.3326 23.1848 22.0253C24.2327 20.5214 24.8696 18.7102 24.9329 16.7544C24.9329 16.75 24.9329 16.7454 24.9329 16.741C24.9329 16.6913 24.9373 16.6414 24.9373 16.5917C24.9373 16.5602 24.9373 16.5287 24.9373 16.4968C24.9373 16.4743 24.9373 16.4472 24.9373 16.4247V15.5936C24.942 13.4573 24.2645 11.4879 23.1127 9.87553Z" fill="#382B73"/>
<path d="M24.942 14.6918V14.6871C24.942 9.25819 20.5425 4.85898 15.1136 4.85898C9.68437 4.85898 5.28516 9.25819 5.28516 14.6871V15.5182C5.28516 20.9475 9.68437 25.3467 15.1136 25.3467C17.3176 25.3467 19.3501 24.6195 20.9899 23.3956C21.2924 23.1696 21.5769 22.9304 21.8479 22.6728C22.0693 22.4605 22.2859 22.2438 22.4892 22.0087C22.7377 21.7287 22.9681 21.4308 23.1848 21.1236C24.2327 19.6196 24.8696 17.8084 24.9329 15.8526C24.9329 15.848 24.9329 15.8436 24.9329 15.8389C24.9329 15.7893 24.9373 15.7396 24.9373 15.69C24.9373 15.6584 24.9373 15.6266 24.9373 15.5951C24.9373 15.5726 24.9373 15.5454 24.9373 15.5229V14.7008C24.942 14.6962 24.942 14.6962 24.942 14.6918Z" fill="#F9893D"/>
<path d="M24.6219 14.6883C24.6219 16.7027 23.9943 18.5729 22.9237 20.1084C22.7161 20.4066 22.4901 20.6957 22.2509 20.9667C22.052 21.1881 21.8487 21.4048 21.632 21.608C21.3701 21.8565 21.09 22.0913 20.8009 22.308C19.2155 23.4914 17.2463 24.196 15.1144 24.196C9.86598 24.196 5.61133 19.9414 5.61133 14.6929C5.61133 12.3307 6.474 10.1673 7.90118 8.50503C9.64462 6.47714 12.2282 5.18985 15.1144 5.18985C18.0006 5.18985 20.5842 6.47714 22.3277 8.50503C23.7592 10.1626 24.6219 12.3263 24.6219 14.6883Z" fill="white"/>
<path d="M22.3316 8.50292C20.5385 6.56527 17.9686 5.35013 15.1183 5.35013C12.2684 5.35013 9.69845 6.56527 7.90536 8.50292C6.47791 10.1649 5.61523 12.3286 5.61523 14.6906C5.61523 19.939 9.86989 24.1939 15.1183 24.1939C17.2502 24.1939 19.2197 23.4937 20.8048 22.3059C21.0939 22.089 21.374 21.8542 21.636 21.6056C21.8529 21.4024 22.0562 21.1904 22.2548 20.9643C22.4942 20.6933 22.72 20.4042 22.9279 20.1063C23.9982 18.5705 24.6261 16.7006 24.6261 14.6862C24.6214 12.3286 23.7588 10.1649 22.3316 8.50292ZM15.1139 23.0465C10.7734 23.0465 7.24128 19.5147 7.24128 15.1739C7.24128 10.8334 10.7734 7.30149 15.1139 7.30149C19.4545 7.30149 22.9866 10.8334 22.9866 15.1739C22.9866 19.5147 19.4545 23.0465 15.1139 23.0465Z" fill="#F9893D"/>
<path d="M15.1136 4.85898C9.68437 4.85898 5.28516 9.25819 5.28516 14.6871C5.28516 20.1163 9.68903 24.5155 15.1136 24.5155C17.3176 24.5155 19.3501 23.7884 20.9899 22.5644C21.8388 21.9319 22.5797 21.1642 23.1848 20.2924C24.2914 18.7026 24.9373 16.7693 24.9373 14.6871C24.942 9.25819 20.5425 4.85898 15.1136 4.85898ZM15.1136 22.5598C10.7731 22.5598 7.24091 19.0279 7.24091 14.6871C7.24091 10.3466 10.7731 6.81473 15.1136 6.81473C19.4541 6.81473 22.9862 10.3466 22.9862 14.6871C22.9862 19.0279 19.4541 22.5598 15.1136 22.5598Z" fill="#F9893D"/>
<path d="M15.113 20.8491C11.983 20.8491 9.43555 18.3017 9.43555 15.1714C9.43555 12.0413 11.983 9.49393 15.113 9.49393C18.243 9.49393 20.7904 12.0413 20.7904 15.1714C20.7904 18.3017 18.2474 20.8491 15.113 20.8491ZM15.113 11.4316C13.0489 11.4316 11.3732 13.1119 11.3732 15.1714C11.3732 17.2355 13.0533 18.9112 15.113 18.9112C17.1771 18.9112 18.8528 17.2311 18.8528 15.1714C18.8572 13.1073 17.1771 11.4316 15.113 11.4316Z" fill="#F9893D"/>
<path d="M15.113 20.3657C11.983 20.3657 9.43555 17.8183 9.43555 14.688C9.43555 11.5579 11.983 9.01053 15.113 9.01053C18.243 9.01053 20.7904 11.5579 20.7904 14.688C20.7904 17.8183 18.2474 20.3657 15.113 20.3657ZM15.113 10.9482C13.0489 10.9482 11.3732 12.6285 11.3732 14.688C11.3732 16.7524 13.0533 18.428 15.113 18.428C17.1771 18.428 18.8528 16.7477 18.8528 14.688C18.8572 12.6239 17.1771 10.9482 15.113 10.9482Z" fill="#F9893D"/>
<path d="M16.8075 14.6902C16.8075 15.6258 16.0491 16.384 15.1137 16.384C14.1784 16.384 13.4199 15.6258 13.4199 14.6902C13.4199 13.7548 14.1784 12.9966 15.1137 12.9966C16.0491 12.9966 16.8075 13.7548 16.8075 14.6902Z" fill="#F9893D"/>
<path d="M16.6705 15.3652C16.5441 15.6543 16.3408 15.9026 16.0879 16.0833L17.5422 17.5377C17.777 17.3391 17.9847 17.1087 18.1654 16.8602L16.6705 15.3652Z" fill="#E6E7E8"/>
<path d="M19.7557 18.4466C19.5796 18.6995 19.3808 18.9343 19.1641 19.1557L20.4695 20.461C20.6952 20.2534 20.9075 20.032 21.1064 19.797L19.7557 18.4466Z" fill="#E6E7E8"/>
<path d="M22.4883 21.1932L22.4922 21.1893C22.4883 21.1893 22.4883 21.1893 22.4883 21.1932Z" fill="#E6E7E8"/>
<path d="M22.0137 21.6919C22.0176 21.6919 22.0176 21.6882 22.0212 21.6882C22.0176 21.6882 22.0137 21.6882 22.0137 21.6919Z" fill="#E6E7E8"/>
<path d="M22.4895 21.1865L22.4942 21.1818L21.1076 19.7952C20.9088 20.03 20.6965 20.2514 20.4707 20.459L21.8573 21.8459C21.8619 21.8412 21.8663 21.8368 21.8707 21.8322C21.9206 21.7872 21.9703 21.7373 22.0153 21.6923C22.0199 21.6876 22.0199 21.6876 22.0243 21.6876C22.1826 21.5206 22.3359 21.3535 22.4895 21.1865Z" fill="#F9893D"/>
<path d="M19.5437 18.2331L18.1662 16.8509C17.9854 17.1038 17.7778 17.3295 17.543 17.5284L18.9158 18.9016L19.1644 19.1498C19.381 18.9284 19.5799 18.6936 19.756 18.4407L19.5437 18.2331Z" fill="#F9893D"/>
<path d="M15.5824 14.2715C15.465 14.1538 15.3023 14.1132 15.1534 14.1494C15.1128 14.1585 15.0766 14.1719 15.036 14.1947H15.0313C15.0179 14.2037 14.9998 14.2128 14.9863 14.2216C14.9816 14.2262 14.9773 14.2262 14.9773 14.2306C14.9635 14.2443 14.9457 14.2534 14.932 14.2715C14.9229 14.2803 14.9095 14.294 14.9005 14.3074C14.765 14.4747 14.765 14.7186 14.9005 14.89C14.9095 14.9037 14.9229 14.9128 14.932 14.9262L16.0838 16.078C16.3413 15.8973 16.5446 15.649 16.6664 15.3599L15.5824 14.2715Z" fill="#F9893D"/>
<path d="M23.9931 6.50915L15.5647 14.9419C15.3977 15.109 15.1267 15.109 14.9596 14.9419L14.9143 14.8967C14.7473 14.7296 14.7473 14.4586 14.9143 14.2913L23.3425 5.86317C23.5098 5.69612 23.7808 5.69612 23.9478 5.86317L23.9931 5.90843C24.1645 6.07109 24.1645 6.3421 23.9931 6.50915Z" fill="#F96B31"/>
<path d="M23.6329 6.19016L15.2454 14.5777C15.128 14.6951 14.9654 14.7357 14.8164 14.6995C14.8345 14.7809 14.8751 14.8577 14.9385 14.9208C15.119 15.1016 15.4081 15.1016 15.5888 14.9208L23.9764 6.53331C24.1568 6.35282 24.1568 6.06371 23.9764 5.88294C23.913 5.81985 23.8362 5.77898 23.755 5.76115C23.7912 5.9101 23.7503 6.07276 23.6329 6.19016Z" fill="#F96B31"/>
<path d="M24.224 5.62895L26.1076 5.98115L23.0812 9.00749L21.2023 8.65502L20.8457 6.77607L23.8718 3.75L24.224 5.62895Z" fill="#F96B31"/>
<path d="M26.1065 5.98152L23.0801 9.00786L21.2012 8.65539L24.2229 5.62932L26.1065 5.98152Z" fill="#F96B31"/>
</g>
<defs>
<clipPath id="clip0_531_6078">
<rect width="30" height="30" fill="white"/>
</clipPath>
</defs>
</svg>
