<svg width="24" height="24" viewBox="0 0 24 24" fill="none" xmlns="http://www.w3.org/2000/svg">
<g clip-path="url(#clip0_531_2177)">
<path fill-rule="evenodd" clip-rule="evenodd" d="M12 0C5.38125 0 0 5.38125 0 12C0 18.6187 5.38125 24 12 24C18.6187 24 24 18.6187 24 12C24 5.38125 18.6187 0 12 0Z" fill="#4BAE4F"/>
<path fill-rule="evenodd" clip-rule="evenodd" d="M17.8047 7.95391C18.0953 8.24453 18.0953 8.72266 17.8047 9.01328L10.7734 16.0445C10.6281 16.1898 10.4359 16.2648 10.2438 16.2648C10.0516 16.2648 9.85938 16.1898 9.71406 16.0445L6.19844 12.5289C5.90781 12.2383 5.90781 11.7602 6.19844 11.4695C6.48906 11.1789 6.96719 11.1789 7.25781 11.4695L10.2438 14.4555L16.7453 7.95391C17.0359 7.65859 17.5141 7.65859 17.8047 7.95391Z" fill="white"/>
</g>
<defs>
<clipPath id="clip0_531_2177">
<rect width="24" height="24" fill="white"/>
</clipPath>
</defs>
</svg>
