<svg width="428" height="4208" viewBox="0 0 428 4208" fill="none" xmlns="http://www.w3.org/2000/svg">
<g clip-path="url(#clip0_174_6804)">
<rect width="428" height="4208" fill="#1A1A1A"/>
<g clip-path="url(#clip1_174_6804)">
<g opacity="0.18">
<path d="M165.094 112.405V40.3266H163.032L151.688 66.5838H135.703L152.719 29H180.047V112.405H165.094Z" fill="#F9893D" fill-opacity="0.5"/>
<path d="M161.485 238.026C151.688 238.026 143.953 235.452 137.766 229.789C131.578 224.125 129 216.403 129 205.076V184.482C129 173.67 132.094 165.948 137.766 160.284C143.438 154.621 151.688 152.047 161.485 152.047C171.282 152.047 179.016 154.621 185.204 160.284C190.876 165.948 193.969 174.185 193.969 184.482V205.076C193.969 215.888 190.876 224.125 185.204 229.789C179.016 235.452 171.282 238.026 161.485 238.026ZM161.485 224.64C167.157 224.64 171.797 223.096 174.376 220.007C176.954 216.917 178.501 212.284 178.501 206.106V183.967C178.501 177.789 176.954 173.156 173.86 170.066C170.766 166.977 166.641 165.433 161.485 165.433C155.813 165.433 151.688 166.977 148.594 170.066C145.5 173.156 143.953 177.789 143.953 183.452V205.591C143.953 211.769 145.5 216.403 148.078 219.492C151.172 223.096 155.813 224.64 161.485 224.64Z" fill="#F9893D" fill-opacity="0.5"/>
<path d="M165.094 361.077V288.998H163.032L151.688 315.256H135.703L152.719 277.672H180.047V360.562H165.094V361.077Z" fill="#F9893D" fill-opacity="0.5"/>
<path d="M165.094 485.156V413.592H163.032L151.688 439.849H135.703L152.719 402.266H180.047V485.156H165.094Z" fill="#F9893D" fill-opacity="0.5"/>
<path d="M165.094 609.746V537.667H163.032L151.688 563.924H135.703L153.235 526.855H180.563V609.746H165.094Z" fill="#F9893D" fill-opacity="0.5"/>
<path d="M161.485 735.37C151.688 735.37 143.953 732.796 137.766 727.132C131.578 721.469 129 713.746 129 702.42V681.826C129 671.014 132.094 663.291 137.766 657.628C143.438 651.965 151.688 649.391 161.485 649.391C171.282 649.391 179.016 651.965 185.204 657.628C190.876 663.291 193.969 671.529 193.969 681.826V702.42C193.969 713.232 190.876 721.469 185.204 727.132C179.016 732.796 171.282 735.37 161.485 735.37ZM161.485 721.984C167.157 721.984 171.797 720.439 174.376 717.35C176.954 714.261 178.501 709.628 178.501 703.449V681.311C178.501 675.133 176.954 670.499 173.86 667.41C170.766 664.321 166.641 662.777 161.485 662.777C155.813 662.777 151.688 664.321 148.594 667.41C145.5 670.499 143.953 675.133 143.953 680.796V702.935C143.953 709.113 145.5 713.746 148.078 716.835C151.172 720.439 155.813 721.984 161.485 721.984Z" fill="#F9893D" fill-opacity="0.5"/>
<path d="M161.485 859.964C151.688 859.964 143.953 857.389 137.766 851.726C131.578 846.063 129 838.34 129 827.014V806.42C129 795.608 132.094 787.885 137.766 782.222C143.438 776.559 151.688 773.984 161.485 773.984C171.282 773.984 179.016 776.559 185.204 782.222C190.876 787.885 193.969 796.123 193.969 806.42V827.014C193.969 837.825 190.876 846.063 185.204 851.726C179.016 857.389 171.282 859.964 161.485 859.964ZM161.485 846.578C167.157 846.578 171.797 845.033 174.376 841.944C176.954 838.855 178.501 834.221 178.501 828.043V805.905C178.501 799.727 176.954 795.093 173.86 792.004C170.766 788.915 166.641 787.37 161.485 787.37C155.813 787.37 151.688 788.915 148.594 792.004C145.5 795.093 143.953 799.727 143.953 805.39V827.528C143.953 833.706 145.5 838.34 148.078 841.429C151.172 845.033 155.813 846.578 161.485 846.578Z" fill="#F9893D" fill-opacity="0.5"/>
<path d="M165.094 982.496V910.932H163.032L151.688 937.189H135.703L152.719 899.605H180.047V982.496H165.094Z" fill="#F9893D" fill-opacity="0.5"/>
<path d="M161.485 1108.63C151.688 1108.63 143.953 1106.06 137.766 1100.39C131.578 1094.73 129 1087.01 129 1075.68V1055.09C129 1044.28 132.094 1036.55 137.766 1030.89C143.438 1025.23 151.688 1022.65 161.485 1022.65C171.282 1022.65 179.016 1025.23 185.204 1030.89C190.876 1036.55 193.969 1044.79 193.969 1055.09V1075.68C193.969 1086.49 190.876 1094.73 185.204 1100.39C179.016 1106.06 171.282 1108.63 161.485 1108.63ZM161.485 1095.25C167.157 1095.25 171.797 1093.7 174.376 1090.61C176.954 1087.52 178.501 1082.89 178.501 1076.71V1054.57C178.501 1048.39 176.954 1043.76 173.86 1040.67C170.766 1037.58 166.641 1036.04 161.485 1036.04C155.813 1036.04 151.688 1037.58 148.594 1040.67C145.5 1043.76 143.953 1048.39 143.953 1054.06V1076.2C143.953 1082.37 145.5 1087.01 148.078 1090.1C151.172 1093.7 155.813 1095.25 161.485 1095.25Z" fill="#F9893D" fill-opacity="0.5"/>
<path opacity="0.78" d="M165.094 1231.16V1159.6H163.032L151.688 1185.86H135.703L152.719 1148.27H180.047V1231.16H165.094Z" fill="#F9893D" fill-opacity="0.5"/>
<path opacity="0.78" d="M161.485 1357.3C151.688 1357.3 143.953 1354.73 137.766 1349.07C131.578 1343.4 129 1335.68 129 1324.35V1303.76C129 1292.95 132.094 1285.23 137.766 1279.56C143.438 1273.9 151.688 1271.32 161.485 1271.32C171.282 1271.32 179.016 1273.9 185.204 1279.56C190.876 1285.23 193.969 1293.46 193.969 1303.76V1324.35C193.969 1335.17 190.876 1343.4 185.204 1349.07C179.016 1354.73 171.282 1357.3 161.485 1357.3ZM161.485 1343.92C167.157 1343.92 171.797 1342.37 174.376 1339.28C176.954 1336.19 178.501 1331.56 178.501 1325.38V1303.24C178.501 1297.07 176.954 1292.43 173.86 1289.34C170.766 1286.25 166.641 1284.71 161.485 1284.71C155.813 1284.71 151.688 1286.25 148.594 1289.34C145.5 1292.43 143.953 1297.07 143.953 1302.73V1324.87C143.953 1331.05 145.5 1335.68 148.078 1338.77C151.172 1342.37 155.813 1343.92 161.485 1343.92Z" fill="#F9893D" fill-opacity="0.5"/>
<path opacity="0.78" d="M161.485 1481.38C151.688 1481.38 143.953 1478.81 137.766 1473.14C131.578 1467.48 129 1459.76 129 1448.43V1427.84C129 1417.03 132.094 1409.3 137.766 1403.64C143.438 1397.98 151.688 1395.4 161.485 1395.4C171.282 1395.4 179.016 1397.98 185.204 1403.64C190.876 1409.3 193.969 1417.54 193.969 1427.84V1448.43C193.969 1459.24 190.876 1467.48 185.204 1473.14C179.016 1478.81 171.282 1481.38 161.485 1481.38ZM161.485 1468C167.157 1468 171.797 1466.45 174.376 1463.36C176.954 1460.27 178.501 1455.64 178.501 1449.46V1427.32C178.501 1421.14 176.954 1416.51 173.86 1413.42C170.766 1410.33 166.641 1408.79 161.485 1408.79C155.813 1408.79 151.688 1410.33 148.594 1413.42C145.5 1416.51 143.953 1421.14 143.953 1426.81V1448.95C143.953 1455.12 145.5 1459.76 148.078 1462.85C151.172 1466.45 155.813 1468 161.485 1468Z" fill="#F9893D" fill-opacity="0.5"/>
<path d="M165.094 1604.43V1532.87H163.032L151.688 1559.12H135.703L152.719 1521.54H180.047V1604.43H165.094Z" fill="#F9893D" fill-opacity="0.5"/>
<path d="M161.485 1730.05C151.688 1730.05 143.953 1727.48 137.766 1721.82C131.578 1716.15 129 1708.43 129 1697.1V1676.51C129 1665.7 132.094 1657.98 137.766 1652.31C143.438 1646.65 151.688 1644.07 161.485 1644.07C171.282 1644.07 179.016 1646.65 185.204 1652.31C190.876 1657.98 193.969 1666.21 193.969 1676.51V1697.1C193.969 1707.92 190.876 1716.15 185.204 1721.82C179.016 1727.48 171.282 1730.05 161.485 1730.05ZM161.485 1716.67C167.157 1716.67 171.797 1715.12 174.376 1712.03C176.954 1708.94 178.501 1704.31 178.501 1698.13V1675.99C178.501 1669.82 176.954 1665.18 173.86 1662.09C170.766 1659 166.641 1657.46 161.485 1657.46C155.813 1657.46 151.688 1659 148.594 1662.09C145.5 1665.18 143.953 1669.82 143.953 1675.48V1697.62C143.953 1703.8 145.5 1708.43 148.078 1711.52C151.172 1715.12 155.813 1716.67 161.485 1716.67Z" fill="#F9893D" fill-opacity="0.5"/>
<path d="M165.094 1853.1V1781.54H163.032L151.688 1807.79H135.703L152.719 1770.21H180.047V1853.1H165.094Z" fill="#F9893D" fill-opacity="0.5"/>
<path d="M161.485 1978.72C151.688 1978.72 143.953 1976.15 137.766 1970.48C131.578 1964.82 129 1957.1 129 1945.77V1925.18C129 1914.37 132.094 1906.64 137.766 1900.98C143.438 1895.32 151.688 1892.74 161.485 1892.74C171.282 1892.74 179.016 1895.32 185.204 1900.98C190.876 1906.64 193.969 1914.88 193.969 1925.18V1945.77C193.969 1956.58 190.876 1964.82 185.204 1970.48C179.016 1976.15 171.282 1978.72 161.485 1978.72ZM161.485 1965.34C167.157 1965.34 171.797 1963.79 174.376 1960.7C176.954 1957.61 178.501 1952.98 178.501 1946.8V1924.66C178.501 1918.48 176.954 1913.85 173.86 1910.76C170.766 1907.67 166.641 1906.13 161.485 1906.13C155.813 1906.13 151.688 1907.67 148.594 1910.76C145.5 1913.85 143.953 1918.48 143.953 1924.15V1946.29C143.953 1952.46 145.5 1957.1 148.078 1960.19C151.172 1963.79 155.813 1965.34 161.485 1965.34Z" fill="#F9893D" fill-opacity="0.5"/>
<path d="M165.094 2101.77V2030.21H163.032L151.688 2056.46H135.703L152.719 2018.88H180.047V2101.77H165.094Z" fill="#F9893D" fill-opacity="0.5"/>
<path d="M161.485 2227.39C151.688 2227.39 143.953 2224.82 137.766 2219.16C131.578 2213.49 129 2205.77 129 2194.44V2173.85C129 2163.04 132.094 2155.31 137.766 2149.65C143.438 2143.99 151.688 2141.41 161.485 2141.41C171.282 2141.41 179.016 2143.99 185.204 2149.65C190.876 2155.31 193.969 2163.55 193.969 2173.85V2194.44C193.969 2205.25 190.876 2213.49 185.204 2219.16C179.016 2224.82 171.282 2227.39 161.485 2227.39ZM161.485 2214.01C167.157 2214.01 171.797 2212.46 174.376 2209.37C176.954 2206.28 178.501 2201.65 178.501 2195.47V2173.33C178.501 2167.16 176.954 2162.52 173.86 2159.43C170.766 2156.34 166.641 2154.8 161.485 2154.8C155.813 2154.8 151.688 2156.34 148.594 2159.43C145.5 2162.52 143.953 2167.16 143.953 2172.82V2194.96C143.953 2201.14 145.5 2205.77 148.078 2208.86C151.172 2212.46 155.813 2214.01 161.485 2214.01Z" fill="#F9893D" fill-opacity="0.5"/>
<path d="M165.094 2350.44V2278.88H163.032L151.688 2305.13H135.703L152.719 2267.55H180.047V2350.44H165.094Z" fill="#F9893D" fill-opacity="0.5"/>
</g>
<g opacity="0.18">
<path d="M56.4847 114.979C46.6877 114.979 38.9532 112.405 32.7656 106.742C27.0937 101.593 24 93.3557 24 82.0291V61.4352C24 50.6235 27.0937 42.9009 32.7656 37.2376C38.4376 31.5743 46.6877 29 56.4847 29C66.2817 29 74.0162 31.5743 80.2037 37.2376C85.8757 42.9009 88.9694 51.1383 88.9694 61.4352V82.0291C88.9694 92.8409 85.8757 101.078 80.2037 106.742C74.5318 112.405 66.7973 114.979 56.4847 114.979ZM56.4847 101.593C62.1566 101.593 66.7973 100.049 69.3755 96.9596C71.9536 93.8705 73.5004 89.237 73.5004 83.0588V60.9204C73.5004 54.7422 71.9536 50.1087 68.8598 47.0196C65.766 43.9305 61.641 42.386 56.4847 42.386C50.8127 42.386 46.6877 43.9305 43.5939 47.0196C40.5001 50.1087 38.9533 54.7423 38.9533 60.4056V82.544C38.9533 88.7221 40.5001 93.3558 43.0783 96.4449C46.6877 100.049 50.8127 101.593 56.4847 101.593Z" fill="#F9893D" fill-opacity="0.5"/>
<path d="M60.6096 234.937V163.374H58.5471L47.2033 189.631H31.2188L48.2345 152.047H75.563V234.937H60.6096Z" fill="#F9893D" fill-opacity="0.5"/>
<path d="M56.4847 357.987C46.6877 357.987 38.9532 355.413 32.7656 349.75C27.0937 344.086 24 336.364 24 325.037V304.443C24 293.631 27.0937 285.909 32.7656 280.246C38.4376 274.582 46.6877 272.008 56.4847 272.008C66.2817 272.008 74.0162 274.582 80.2037 280.246C85.8757 285.909 88.9694 294.146 88.9694 304.443V325.037C88.9694 335.849 85.8757 344.086 80.2037 349.75C74.5318 354.898 66.7973 357.987 56.4847 357.987ZM56.4847 344.086C62.1566 344.086 66.7973 342.542 69.3755 339.453C71.9536 336.364 73.5004 331.73 73.5004 325.552V303.414C73.5004 297.235 71.9536 292.602 68.8598 289.513C65.766 286.424 61.641 284.879 56.4847 284.879C50.8127 284.879 46.6877 286.424 43.5939 289.513C40.5001 292.602 38.9533 297.235 38.9533 302.899V325.037C38.9533 331.215 40.5001 335.849 43.0783 338.938C46.6877 342.542 50.8127 344.086 56.4847 344.086Z" fill="#F9893D" fill-opacity="0.5"/>
<path d="M60.6096 477.429V405.866H58.5471L47.2033 432.123H31.2188L48.2345 394.539H75.563V477.429H60.6096Z" fill="#F9893D" fill-opacity="0.5"/>
<path d="M56.4847 600.479C46.6877 600.479 38.9532 597.905 32.7656 592.242C27.0937 587.093 24 578.856 24 567.529V546.935C24 536.123 27.0937 528.401 32.7656 522.737C38.4376 517.074 46.6877 514.5 56.4847 514.5C66.2817 514.5 74.0162 517.074 80.2037 522.737C85.8757 528.401 88.9694 536.638 88.9694 546.935V567.529C88.9694 578.341 85.8757 586.578 80.2037 592.242C74.5318 597.905 66.7973 600.479 56.4847 600.479ZM56.4847 587.093C62.1566 587.093 66.7973 585.549 69.3755 582.459C71.9536 579.37 73.5004 574.737 73.5004 568.559V546.42C73.5004 540.242 71.9536 535.609 68.8598 532.52C65.766 529.431 61.641 527.886 56.4847 527.886C50.8127 527.886 46.6877 529.431 43.5939 532.52C40.5001 535.609 38.9533 540.242 38.9533 545.905V568.044C38.9533 574.222 40.5001 578.856 43.0783 581.945C46.6877 585.549 50.8127 587.093 56.4847 587.093Z" fill="#F9893D" fill-opacity="0.5"/>
<path d="M60.6096 720.437V648.874H58.5471L47.2033 675.131H31.2188L48.2345 637.547H75.563V720.437H60.6096Z" fill="#F9893D" fill-opacity="0.5"/>
<path d="M56.4847 843.487C46.6877 843.487 38.9532 840.913 32.7656 835.25C27.0937 830.101 24 821.864 24 810.537V789.943C24 779.132 27.0937 771.409 32.7656 765.746C38.4376 760.082 46.6877 757.508 56.4847 757.508C66.2817 757.508 74.0162 760.082 80.2037 765.746C85.8757 771.409 88.9694 779.646 88.9694 789.943V810.537C88.9694 821.349 85.8757 829.586 80.2037 835.25C74.5318 840.398 66.7973 843.487 56.4847 843.487ZM56.4847 829.586C62.1566 829.586 66.7973 828.042 69.3755 824.953C71.9536 821.864 73.5004 817.23 73.5004 811.052V788.914C73.5004 782.735 71.9536 778.102 68.8598 775.013C65.766 771.924 61.641 770.379 56.4847 770.379C50.8127 770.379 46.6877 771.924 43.5939 775.013C40.5001 778.102 38.9533 782.735 38.9533 788.399V810.537C38.9533 816.715 40.5001 821.349 43.0783 824.438C46.6877 828.042 50.8127 829.586 56.4847 829.586Z" fill="#F9893D" fill-opacity="0.5"/>
<path d="M60.6096 962.929V891.365H58.5471L47.2033 917.623H31.2188L48.2345 880.039H75.563V962.929H60.6096Z" fill="#F9893D" fill-opacity="0.5"/>
<path d="M56.4847 1085.98C46.6877 1085.98 38.9532 1083.4 32.7656 1077.74C27.0937 1072.08 24 1064.36 24 1053.03V1032.44C24 1021.62 27.0937 1013.9 32.7656 1008.24C38.4376 1002.57 46.6877 1000 56.4847 1000C66.2817 1000 74.0162 1002.57 80.2037 1008.24C85.8757 1013.9 88.9694 1022.14 88.9694 1032.44V1053.03C88.9694 1063.84 85.8757 1072.08 80.2037 1077.74C74.5318 1083.4 66.7973 1085.98 56.4847 1085.98ZM56.4847 1072.59C62.1566 1072.59 66.7973 1071.05 69.3755 1067.96C71.9536 1064.87 73.5004 1060.24 73.5004 1054.06V1031.92C73.5004 1025.74 71.9536 1021.11 68.8598 1018.02C65.766 1014.93 61.641 1013.39 56.4847 1013.39C50.8127 1013.39 46.6877 1014.93 43.5939 1018.02C40.5001 1021.11 38.9533 1025.74 38.9533 1031.41V1053.54C38.9533 1059.72 40.5001 1064.36 43.0783 1067.44C46.6877 1071.05 50.8127 1072.59 56.4847 1072.59Z" fill="#F9893D" fill-opacity="0.5"/>
<path d="M60.6096 1205.94V1134.37H58.5471L47.2033 1160.63H31.2188L48.2345 1123.05H75.563V1205.94H60.6096Z" fill="#F9893D" fill-opacity="0.5"/>
<path d="M56.4847 1328.99C46.6877 1328.99 38.9532 1326.41 32.7656 1320.75C27.0937 1315.6 24 1307.36 24 1296.04V1275.44C24 1264.63 27.0937 1256.91 32.7656 1251.25C38.4376 1245.58 46.6877 1243.01 56.4847 1243.01C66.2817 1243.01 74.0162 1245.58 80.2037 1251.25C85.8757 1256.91 88.9694 1265.15 88.9694 1275.44V1296.04C88.9694 1306.85 85.8757 1315.09 80.2037 1320.75C74.5318 1325.9 66.7973 1328.99 56.4847 1328.99ZM56.4847 1315.09C62.1566 1315.09 66.7973 1313.54 69.3755 1310.45C71.9536 1307.36 73.5004 1302.73 73.5004 1296.55V1274.41C73.5004 1268.24 71.9536 1263.6 68.8598 1260.51C65.766 1257.42 61.641 1255.88 56.4847 1255.88C50.8127 1255.88 46.6877 1257.42 43.5939 1260.51C40.5001 1263.6 38.9533 1268.24 38.9533 1273.9V1296.04C38.9533 1302.22 40.5001 1306.85 43.0783 1309.94C46.6877 1313.54 50.8127 1315.09 56.4847 1315.09Z" fill="#F9893D" fill-opacity="0.5"/>
<path d="M60.6096 1448.43V1376.87H58.5471L47.2033 1403.12H31.2188L48.2345 1365.54H75.563V1448.43H60.6096Z" fill="#F9893D" fill-opacity="0.5"/>
<path d="M60.6096 1569.93V1498.37H58.5471L47.2033 1524.63H31.2188L48.2345 1487.04H75.563V1569.93H60.6096Z" fill="#F9893D" fill-opacity="0.5"/>
<path d="M60.6096 1691.44V1619.36H58.5471L47.2033 1645.61H31.2188L48.2345 1608.03H75.563V1691.44H60.6096Z" fill="#F9893D" fill-opacity="0.5"/>
<path d="M56.4847 1814.49C46.6877 1814.49 38.9532 1811.91 32.7656 1806.25C27.0937 1801.1 24 1792.86 24 1781.54V1760.94C24 1750.13 27.0937 1742.41 32.7656 1736.75C38.4376 1731.08 46.6877 1728.51 56.4847 1728.51C66.2817 1728.51 74.0162 1731.08 80.2037 1736.75C85.8757 1742.41 88.9694 1750.65 88.9694 1760.94V1781.54C88.9694 1792.35 85.8757 1800.59 80.2037 1806.25C74.5318 1811.4 66.7973 1814.49 56.4847 1814.49ZM56.4847 1800.59C62.1566 1800.59 66.7973 1799.04 69.3755 1795.95C71.9536 1792.86 73.5004 1788.23 73.5004 1782.05V1759.91C73.5004 1753.74 71.9536 1749.1 68.8598 1746.01C65.766 1742.92 61.641 1741.38 56.4847 1741.38C50.8127 1741.38 46.6877 1742.92 43.5939 1746.01C40.5001 1749.1 38.9533 1753.74 38.9533 1759.4V1781.54C38.9533 1787.72 40.5001 1792.35 43.0783 1795.44C46.6877 1799.04 50.8127 1800.59 56.4847 1800.59Z" fill="#F9893D" fill-opacity="0.5"/>
<path d="M56.4847 1935.48C46.6877 1935.48 38.9532 1932.9 32.7656 1927.24C27.0937 1922.09 24 1913.85 24 1902.53V1881.93C24 1871.12 27.0937 1863.4 32.7656 1857.73C38.4376 1852.07 46.6877 1849.5 56.4847 1849.5C66.2817 1849.5 74.0162 1852.07 80.2037 1857.73C85.8757 1863.4 88.9694 1871.63 88.9694 1881.93V1902.53C88.9694 1913.34 85.8757 1921.57 80.2037 1927.24C74.5318 1932.9 66.7973 1935.48 56.4847 1935.48ZM56.4847 1922.09C62.1566 1922.09 66.7973 1920.54 69.3755 1917.46C71.9536 1914.37 73.5004 1909.73 73.5004 1903.55V1881.42C73.5004 1875.24 71.9536 1870.6 68.8598 1867.52C65.766 1864.43 61.641 1862.88 56.4847 1862.88C50.8127 1862.88 46.6877 1864.43 43.5939 1867.52C40.5001 1870.6 38.9533 1875.24 38.9533 1880.9V1903.04C38.9533 1909.22 40.5001 1913.85 43.0783 1916.94C46.6877 1920.54 50.8127 1922.09 56.4847 1922.09Z" fill="#F9893D" fill-opacity="0.5"/>
<path d="M60.6096 2055.43V1983.87H58.5471L47.2033 2010.13H31.2188L48.2345 1972.54H75.563V2055.43H60.6096Z" fill="#F9893D" fill-opacity="0.5"/>
<path d="M56.4847 2178.48C46.6877 2178.48 38.9532 2175.91 32.7656 2170.25C27.0937 2164.58 24 2156.86 24 2145.53V2124.94C24 2114.13 27.0937 2106.4 32.7656 2100.74C38.4376 2095.08 46.6877 2092.5 56.4847 2092.5C66.2817 2092.5 74.0162 2095.08 80.2037 2100.74C85.8757 2106.4 88.9694 2114.64 88.9694 2124.94V2145.53C88.9694 2156.34 85.8757 2164.58 80.2037 2170.25C74.5318 2175.91 66.7973 2178.48 56.4847 2178.48ZM56.4847 2165.1C62.1566 2165.1 66.7973 2163.55 69.3755 2160.46C71.9536 2157.37 73.5004 2152.74 73.5004 2146.56V2124.42C73.5004 2118.25 71.9536 2113.61 68.8598 2110.52C65.766 2107.43 61.641 2105.89 56.4847 2105.89C50.8127 2105.89 46.6877 2107.43 43.5939 2110.52C40.5001 2113.61 38.9533 2118.25 38.9533 2123.91V2146.05C38.9533 2152.23 40.5001 2156.86 43.0783 2159.95C46.6877 2163.55 50.8127 2165.1 56.4847 2165.1Z" fill="#F9893D" fill-opacity="0.5"/>
<path opacity="0.78" d="M60.6096 2297.93V2226.37H58.5471L47.2033 2252.62H31.2188L48.2345 2215.04H75.563V2297.93H60.6096Z" fill="#F9893D" fill-opacity="0.5"/>
<path opacity="0.78" d="M56.4847 2420.98C46.6877 2420.98 38.9532 2418.4 32.7656 2412.74C27.0937 2407.59 24 2399.35 24 2388.03V2367.43C24 2356.62 27.0937 2348.9 32.7656 2343.23C38.4376 2337.57 46.6877 2335 56.4847 2335C66.2817 2335 74.0162 2337.57 80.2037 2343.23C85.8757 2348.9 88.9694 2357.13 88.9694 2367.43V2388.03C88.9694 2398.84 85.8757 2407.07 80.2037 2412.74C74.5318 2418.4 66.7973 2420.98 56.4847 2420.98ZM56.4847 2407.59C62.1566 2407.59 66.7973 2406.04 69.3755 2402.96C71.9536 2399.87 73.5004 2395.23 73.5004 2389.05V2366.92C73.5004 2360.74 71.9536 2356.1 68.8598 2353.02C65.766 2349.93 61.641 2348.38 56.4847 2348.38C50.8127 2348.38 46.6877 2349.93 43.5939 2353.02C40.5001 2356.1 38.9533 2360.74 38.9533 2366.4V2388.54C38.9533 2394.72 40.5001 2399.35 43.0783 2402.44C46.6877 2406.04 50.8127 2407.59 56.4847 2407.59Z" fill="#F9893D" fill-opacity="0.5"/>
<path opacity="0.78" d="M56.4847 2542.48C46.6877 2542.48 38.9532 2539.91 32.7656 2534.24C27.0937 2529.09 24 2520.86 24 2509.53V2488.94C24 2478.12 27.0937 2470.4 32.7656 2464.74C38.4376 2459.07 46.6877 2456.5 56.4847 2456.5C66.2817 2456.5 74.0162 2459.07 80.2037 2464.74C85.8757 2470.4 88.9694 2478.64 88.9694 2488.94V2509.53C88.9694 2520.34 85.8757 2528.58 80.2037 2534.24C74.5318 2539.91 66.7973 2542.48 56.4847 2542.48ZM56.4847 2529.09C62.1566 2529.09 66.7973 2527.55 69.3755 2524.46C71.9536 2521.37 73.5004 2516.74 73.5004 2510.56V2488.42C73.5004 2482.24 71.9536 2477.61 68.8598 2474.52C65.766 2471.43 61.641 2469.89 56.4847 2469.89C50.8127 2469.89 46.6877 2471.43 43.5939 2474.52C40.5001 2477.61 38.9533 2482.24 38.9533 2487.91V2510.04C38.9533 2516.22 40.5001 2520.86 43.0783 2523.95C46.6877 2527.55 50.8127 2529.09 56.4847 2529.09Z" fill="#F9893D" fill-opacity="0.5"/>
<path opacity="0.78" d="M60.6096 2662.44V2590.87H58.5471L47.2033 2617.13H31.2188L48.2345 2579.55H75.563V2662.44H60.6096Z" fill="#F9893D" fill-opacity="0.5"/>
<path opacity="0.78" d="M56.4847 2785.49C46.6877 2785.49 38.9532 2782.91 32.7656 2777.25C27.0937 2771.59 24 2763.86 24 2752.54V2731.94C24 2721.13 27.0937 2713.41 32.7656 2707.75C38.4376 2702.08 46.6877 2699.51 56.4847 2699.51C66.2817 2699.51 74.0162 2702.08 80.2037 2707.75C85.8757 2713.41 88.9694 2721.65 88.9694 2731.94V2752.54C88.9694 2763.35 85.8757 2771.59 80.2037 2777.25C74.5318 2782.4 66.7973 2785.49 56.4847 2785.49ZM56.4847 2771.59C62.1566 2771.59 66.7973 2770.04 69.3755 2766.95C71.9536 2763.86 73.5004 2759.23 73.5004 2753.05V2730.91C73.5004 2724.74 71.9536 2720.1 68.8598 2717.01C65.766 2713.92 61.641 2712.38 56.4847 2712.38C50.8127 2712.38 46.6877 2713.92 43.5939 2717.01C40.5001 2720.1 38.9533 2724.74 38.9533 2730.4V2752.54C38.9533 2758.72 40.5001 2763.35 43.0783 2766.44C46.6877 2770.04 50.8127 2771.59 56.4847 2771.59Z" fill="#F9893D" fill-opacity="0.5"/>
<path opacity="0.78" d="M60.6096 2904.93V2833.37H58.5471L47.2033 2859.62H31.2188L48.2345 2822.04H75.563V2904.93H60.6096Z" fill="#F9893D" fill-opacity="0.5"/>
<path opacity="0.78" d="M56.4847 3027.98C46.6877 3027.98 38.9532 3025.4 32.7656 3019.74C27.0937 3014.59 24 3006.36 24 2995.03V2974.43C24 2963.62 27.0937 2955.9 32.7656 2950.24C38.4376 2944.57 46.6877 2942 56.4847 2942C66.2817 2942 74.0162 2944.57 80.2037 2950.24C85.8757 2955.9 88.9694 2964.14 88.9694 2974.43V2995.03C88.9694 3005.84 85.8757 3014.08 80.2037 3019.74C74.5318 3025.4 66.7973 3027.98 56.4847 3027.98ZM56.4847 3014.59C62.1566 3014.59 66.7973 3013.05 69.3755 3009.96C71.9536 3006.87 73.5004 3002.24 73.5004 2996.06V2973.92C73.5004 2967.74 71.9536 2963.11 68.8598 2960.02C65.766 2956.93 61.641 2955.39 56.4847 2955.39C50.8127 2955.39 46.6877 2956.93 43.5939 2960.02C40.5001 2963.11 38.9533 2967.74 38.9533 2973.41V2995.54C38.9533 3001.72 40.5001 3006.36 43.0783 3009.44C46.6877 3013.05 50.8127 3014.59 56.4847 3014.59Z" fill="#F9893D" fill-opacity="0.5"/>
<path opacity="0.78" d="M60.6096 3147.94V3076.37H58.5471L47.2033 3102.63H31.2188L48.2345 3065.05H75.563V3147.94H60.6096Z" fill="#F9893D" fill-opacity="0.5"/>
<path opacity="0.78" d="M56.4847 3270.99C46.6877 3270.99 38.9532 3268.41 32.7656 3262.75C27.0937 3257.6 24 3249.36 24 3238.04V3217.44C24 3206.63 27.0937 3198.91 32.7656 3193.25C38.4376 3187.58 46.6877 3185.01 56.4847 3185.01C66.2817 3185.01 74.0162 3187.58 80.2037 3193.25C85.8757 3198.91 88.9694 3207.15 88.9694 3217.44V3238.04C88.9694 3248.85 85.8757 3257.09 80.2037 3262.75C74.5318 3267.9 66.7973 3270.99 56.4847 3270.99ZM56.4847 3257.09C62.1566 3257.09 66.7973 3255.54 69.3755 3252.45C71.9536 3249.36 73.5004 3244.73 73.5004 3238.55V3216.41C73.5004 3210.24 71.9536 3205.6 68.8598 3202.51C65.766 3199.42 61.641 3197.88 56.4847 3197.88C50.8127 3197.88 46.6877 3199.42 43.5939 3202.51C40.5001 3205.6 38.9533 3210.24 38.9533 3215.9V3238.04C38.9533 3244.22 40.5001 3248.85 43.0783 3251.94C46.6877 3255.54 50.8127 3257.09 56.4847 3257.09Z" fill="#F9893D" fill-opacity="0.5"/>
<path opacity="0.78" d="M60.6096 3390.43V3318.87H58.5471L47.2033 3345.12H31.2188L48.2345 3307.54H75.563V3390.43H60.6096Z" fill="#F9893D" fill-opacity="0.5"/>
</g>
<g opacity="0.18">
<path d="M379.448 193.048V134.241H377.765L368.51 155.664H355.469L369.351 125H391.648V193.048H379.448Z" fill="#F9893D" fill-opacity="0.5"/>
<path d="M376.503 295.539C368.51 295.539 362.2 293.439 357.152 288.818C352.103 284.197 350 277.897 350 268.656V251.854C350 243.033 352.524 236.732 357.152 232.111C361.779 227.491 368.51 225.391 376.503 225.391C384.497 225.391 390.807 227.491 395.855 232.111C400.483 236.732 403.007 243.453 403.007 251.854V268.656C403.007 277.477 400.483 284.197 395.855 288.818C390.807 293.439 384.497 295.539 376.503 295.539ZM376.503 284.617C381.131 284.617 384.917 283.357 387.021 280.837C389.124 278.317 390.386 274.536 390.386 269.496V251.434C390.386 246.393 389.124 242.613 386.6 240.092C384.076 237.572 380.71 236.312 376.503 236.312C371.876 236.312 368.51 237.572 365.986 240.092C363.462 242.613 362.2 246.393 362.2 251.014V269.076C362.2 274.116 363.462 277.897 365.565 280.417C368.09 283.357 371.876 284.617 376.503 284.617Z" fill="#F9893D" fill-opacity="0.5"/>
<path d="M379.448 395.931V337.124H377.765L368.51 358.546H355.469L369.351 327.883H391.648V395.511H379.448V395.931Z" fill="#F9893D" fill-opacity="0.5"/>
<path d="M379.448 497.163V438.776H377.765L368.51 460.199H355.469L369.351 429.535H391.648V497.163H379.448Z" fill="#F9893D" fill-opacity="0.5"/>
<path d="M379.448 598.815V540.009H377.765L368.51 561.431H355.469L369.772 531.188H392.069V598.815H379.448Z" fill="#F9893D" fill-opacity="0.5"/>
<path d="M376.503 701.308C368.51 701.308 362.2 699.208 357.152 694.588C352.103 689.967 350 683.666 350 674.425V657.623C350 648.802 352.524 642.501 357.152 637.881C361.779 633.26 368.51 631.16 376.503 631.16C384.497 631.16 390.807 633.26 395.855 637.881C400.483 642.501 403.007 649.222 403.007 657.623V674.425C403.007 683.246 400.483 689.967 395.855 694.588C390.807 699.208 384.497 701.308 376.503 701.308ZM376.503 690.387C381.131 690.387 384.917 689.127 387.021 686.607C389.124 684.086 390.386 680.306 390.386 675.265V657.203C390.386 652.163 389.124 648.382 386.6 645.862C384.076 643.342 380.71 642.081 376.503 642.081C371.876 642.081 368.51 643.342 365.986 645.862C363.462 648.382 362.2 652.163 362.2 656.783V674.845C362.2 679.886 363.462 683.666 365.565 686.187C368.09 689.127 371.876 690.387 376.503 690.387Z" fill="#F9893D" fill-opacity="0.5"/>
<path d="M376.503 802.961C368.51 802.961 362.2 800.86 357.152 796.24C352.103 791.619 350 785.319 350 776.078V759.276C350 750.455 352.524 744.154 357.152 739.533C361.779 734.913 368.51 732.812 376.503 732.812C384.497 732.812 390.807 734.913 395.855 739.533C400.483 744.154 403.007 750.875 403.007 759.276V776.078C403.007 784.899 400.483 791.619 395.855 796.24C390.807 800.86 384.497 802.961 376.503 802.961ZM376.503 792.039C381.131 792.039 384.917 790.779 387.021 788.259C389.124 785.739 390.386 781.958 390.386 776.918V758.856C390.386 753.815 389.124 750.034 386.6 747.514C384.076 744.994 380.71 743.734 376.503 743.734C371.876 743.734 368.51 744.994 365.986 747.514C363.462 750.034 362.2 753.815 362.2 758.435V776.498C362.2 781.538 363.462 785.319 365.565 787.839C368.09 790.779 371.876 792.039 376.503 792.039Z" fill="#F9893D" fill-opacity="0.5"/>
<path d="M379.448 902.933V844.546H377.765L368.51 865.968H355.469L369.351 835.305H391.648V902.933H379.448Z" fill="#F9893D" fill-opacity="0.5"/>
<path d="M376.503 1005.84C368.51 1005.84 362.2 1003.74 357.152 999.123C352.103 994.502 350 988.201 350 978.96V962.158C350 953.337 352.524 947.037 357.152 942.416C361.779 937.796 368.51 935.695 376.503 935.695C384.497 935.695 390.807 937.796 395.855 942.416C400.483 947.037 403.007 953.757 403.007 962.158V978.96C403.007 987.781 400.483 994.502 395.855 999.123C390.807 1003.74 384.497 1005.84 376.503 1005.84ZM376.503 994.922C381.131 994.922 384.917 993.662 387.021 991.142C389.124 988.621 390.386 984.841 390.386 979.8V961.738C390.386 956.698 389.124 952.917 386.6 950.397C384.076 947.877 380.71 946.617 376.503 946.617C371.876 946.617 368.51 947.877 365.986 950.397C363.462 952.917 362.2 956.698 362.2 961.318V979.38C362.2 984.421 363.462 988.201 365.565 990.722C368.09 993.662 371.876 994.922 376.503 994.922Z" fill="#F9893D" fill-opacity="0.5"/>
<path opacity="0.78" d="M379.448 1105.82V1047.43H377.765L368.51 1068.85H355.469L369.351 1038.19H391.648V1105.82H379.448Z" fill="#F9893D" fill-opacity="0.5"/>
<path opacity="0.78" d="M376.503 1208.73C368.51 1208.73 362.2 1206.63 357.152 1202.01C352.103 1197.38 350 1191.08 350 1181.84V1165.04C350 1156.22 352.524 1149.92 357.152 1145.3C361.779 1140.68 368.51 1138.58 376.503 1138.58C384.497 1138.58 390.807 1140.68 395.855 1145.3C400.483 1149.92 403.007 1156.64 403.007 1165.04V1181.84C403.007 1190.66 400.483 1197.38 395.855 1202.01C390.807 1206.63 384.497 1208.73 376.503 1208.73ZM376.503 1197.8C381.131 1197.8 384.917 1196.54 387.021 1194.02C389.124 1191.5 390.386 1187.72 390.386 1182.68V1164.62C390.386 1159.58 389.124 1155.8 386.6 1153.28C384.076 1150.76 380.71 1149.5 376.503 1149.5C371.876 1149.5 368.51 1150.76 365.986 1153.28C363.462 1155.8 362.2 1159.58 362.2 1164.2V1182.26C362.2 1187.3 363.462 1191.08 365.565 1193.6C368.09 1196.54 371.876 1197.8 376.503 1197.8Z" fill="#F9893D" fill-opacity="0.5"/>
<path opacity="0.78" d="M376.503 1309.96C368.51 1309.96 362.2 1307.86 357.152 1303.24C352.103 1298.62 350 1292.31 350 1283.07V1266.27C350 1257.45 352.524 1251.15 357.152 1246.53C361.779 1241.91 368.51 1239.81 376.503 1239.81C384.497 1239.81 390.807 1241.91 395.855 1246.53C400.483 1251.15 403.007 1257.87 403.007 1266.27V1283.07C403.007 1291.89 400.483 1298.62 395.855 1303.24C390.807 1307.86 384.497 1309.96 376.503 1309.96ZM376.503 1299.04C381.131 1299.04 384.917 1297.78 387.021 1295.26C389.124 1292.73 390.386 1288.95 390.386 1283.91V1265.85C390.386 1260.81 389.124 1257.03 386.6 1254.51C384.076 1251.99 380.71 1250.73 376.503 1250.73C371.876 1250.73 368.51 1251.99 365.986 1254.51C363.462 1257.03 362.2 1260.81 362.2 1265.43V1283.49C362.2 1288.53 363.462 1292.31 365.565 1294.83C368.09 1297.78 371.876 1299.04 376.503 1299.04Z" fill="#F9893D" fill-opacity="0.5"/>
<path d="M379.448 1410.35V1351.96H377.765L368.51 1373.39H355.469L369.351 1342.72H391.648V1410.35H379.448Z" fill="#F9893D" fill-opacity="0.5"/>
<path d="M376.503 1512.84C368.51 1512.84 362.2 1510.74 357.152 1506.12C352.103 1501.5 350 1495.2 350 1485.96V1469.15C350 1460.33 352.524 1454.03 357.152 1449.41C361.779 1444.79 368.51 1442.69 376.503 1442.69C384.497 1442.69 390.807 1444.79 395.855 1449.41C400.483 1454.03 403.007 1460.75 403.007 1469.15V1485.96C403.007 1494.78 400.483 1501.5 395.855 1506.12C390.807 1510.74 384.497 1512.84 376.503 1512.84ZM376.503 1501.92C381.131 1501.92 384.917 1500.66 387.021 1498.14C389.124 1495.62 390.386 1491.84 390.386 1486.8V1468.73C390.386 1463.69 389.124 1459.91 386.6 1457.39C384.076 1454.87 380.71 1453.61 376.503 1453.61C371.876 1453.61 368.51 1454.87 365.986 1457.39C363.462 1459.91 362.2 1463.69 362.2 1468.31V1486.38C362.2 1491.42 363.462 1495.2 365.565 1497.72C368.09 1500.66 371.876 1501.92 376.503 1501.92Z" fill="#F9893D" fill-opacity="0.5"/>
<path d="M379.448 1613.23V1554.85H377.765L368.51 1576.27H355.469L369.351 1545.61H391.648V1613.23H379.448Z" fill="#F9893D" fill-opacity="0.5"/>
<path d="M376.503 1715.73C368.51 1715.73 362.2 1713.63 357.152 1709.01C352.103 1704.38 350 1698.08 350 1688.84V1672.04C350 1663.22 352.524 1656.92 357.152 1652.3C361.779 1647.68 368.51 1645.58 376.503 1645.58C384.497 1645.58 390.807 1647.68 395.855 1652.3C400.483 1656.92 403.007 1663.64 403.007 1672.04V1688.84C403.007 1697.66 400.483 1704.38 395.855 1709.01C390.807 1713.63 384.497 1715.73 376.503 1715.73ZM376.503 1704.81C381.131 1704.81 384.917 1703.54 387.021 1701.02C389.124 1698.5 390.386 1694.72 390.386 1689.68V1671.62C390.386 1666.58 389.124 1662.8 386.6 1660.28C384.076 1657.76 380.71 1656.5 376.503 1656.5C371.876 1656.5 368.51 1657.76 365.986 1660.28C363.462 1662.8 362.2 1666.58 362.2 1671.2V1689.26C362.2 1694.3 363.462 1698.08 365.565 1700.6C368.09 1703.54 371.876 1704.81 376.503 1704.81Z" fill="#F9893D" fill-opacity="0.5"/>
<path d="M379.448 1816.12V1757.73H377.765L368.51 1779.15H355.469L369.351 1748.49H391.648V1816.12H379.448Z" fill="#F9893D" fill-opacity="0.5"/>
<path d="M376.503 1918.61C368.51 1918.61 362.2 1916.51 357.152 1911.89C352.103 1907.27 350 1900.97 350 1891.73V1874.92C350 1866.1 352.524 1859.8 357.152 1855.18C361.779 1850.56 368.51 1848.46 376.503 1848.46C384.497 1848.46 390.807 1850.56 395.855 1855.18C400.483 1859.8 403.007 1866.52 403.007 1874.92V1891.73C403.007 1900.55 400.483 1907.27 395.855 1911.89C390.807 1916.51 384.497 1918.61 376.503 1918.61ZM376.503 1907.69C381.131 1907.69 384.917 1906.43 387.021 1903.91C389.124 1901.39 390.386 1897.61 390.386 1892.57V1874.5C390.386 1869.46 389.124 1865.68 386.6 1863.16C384.076 1860.64 380.71 1859.38 376.503 1859.38C371.876 1859.38 368.51 1860.64 365.986 1863.16C363.462 1865.68 362.2 1869.46 362.2 1874.08V1892.15C362.2 1897.19 363.462 1900.97 365.565 1903.49C368.09 1906.43 371.876 1907.69 376.503 1907.69Z" fill="#F9893D" fill-opacity="0.5"/>
<path d="M379.448 2019V1960.61H377.765L368.51 1982.03H355.469L369.351 1951.37H391.648V2019H379.448Z" fill="#F9893D" fill-opacity="0.5"/>
</g>
<g opacity="0.18">
<path d="M371.485 2854.98C361.688 2854.98 353.953 2852.41 347.766 2846.74C341.578 2841.08 339 2833.36 339 2822.03V2801.44C339 2790.62 342.094 2782.9 347.766 2777.24C353.438 2771.57 361.688 2769 371.485 2769C381.282 2769 389.016 2771.57 395.204 2777.24C400.876 2782.9 403.97 2791.14 403.97 2801.44V2822.03C403.97 2832.84 400.876 2841.08 395.204 2846.74C389.016 2852.41 381.282 2854.98 371.485 2854.98ZM371.485 2841.59C377.157 2841.59 381.797 2840.05 384.376 2836.96C386.954 2833.87 388.501 2829.24 388.501 2823.06V2800.92C388.501 2794.74 386.954 2790.11 383.86 2787.02C380.766 2783.93 376.641 2782.39 371.485 2782.39C365.813 2782.39 361.688 2783.93 358.594 2787.02C355.5 2790.11 353.953 2794.74 353.953 2800.41V2822.54C353.953 2828.72 355.5 2833.36 358.078 2836.45C361.172 2840.05 365.297 2841.59 371.485 2841.59Z" fill="#F9893D" fill-opacity="0.5"/>
<path d="M375.098 2978.03V2906.46H373.035L361.692 2932.72H345.707L362.723 2895.14H390.051V2978.03H375.098Z" fill="#F9893D" fill-opacity="0.5"/>
<path d="M371.485 3103.65C361.688 3103.65 353.953 3101.08 347.766 3095.41C341.578 3089.75 339 3082.03 339 3070.7V3050.11C339 3039.3 342.094 3031.57 347.766 3025.91C353.438 3020.25 361.688 3017.67 371.485 3017.67C381.282 3017.67 389.016 3020.25 395.204 3025.91C400.876 3031.57 403.97 3039.81 403.97 3050.11V3070.7C403.97 3081.51 400.876 3089.75 395.204 3095.41C389.016 3101.08 381.282 3103.65 371.485 3103.65ZM371.485 3090.27C377.157 3090.27 381.797 3088.72 384.376 3085.63C386.954 3082.54 388.501 3077.91 388.501 3071.73V3049.59C388.501 3043.41 386.954 3038.78 383.86 3035.69C380.766 3032.6 376.641 3031.06 371.485 3031.06C365.813 3031.06 361.688 3032.6 358.594 3035.69C355.5 3038.78 353.953 3043.41 353.953 3049.08V3071.22C353.953 3077.39 355.5 3082.03 358.078 3085.12C361.172 3088.72 365.297 3090.27 371.485 3090.27Z" fill="#F9893D" fill-opacity="0.5"/>
<path d="M375.098 3226.7V3154.62H373.035L361.692 3180.88H345.707L362.723 3143.29H390.051V3226.7H375.098Z" fill="#F9893D" fill-opacity="0.5"/>
<path d="M371.485 3352.32C361.688 3352.32 353.953 3349.75 347.766 3344.09C341.578 3338.42 339 3330.7 339 3319.37V3298.78C339 3287.97 342.094 3280.24 347.766 3274.58C353.438 3268.92 361.688 3266.34 371.485 3266.34C381.282 3266.34 389.016 3268.92 395.204 3274.58C400.876 3280.24 403.97 3288.48 403.97 3298.78V3319.37C403.97 3330.18 400.876 3338.42 395.204 3344.09C389.016 3349.75 381.282 3352.32 371.485 3352.32ZM371.485 3338.94C377.157 3338.94 381.797 3337.39 384.376 3334.3C386.954 3331.21 388.501 3326.58 388.501 3320.4V3298.26C388.501 3292.09 386.954 3287.45 383.86 3284.36C380.766 3281.27 376.641 3279.73 371.485 3279.73C365.813 3279.73 361.688 3281.27 358.594 3284.36C355.5 3287.45 353.953 3292.09 353.953 3297.75V3319.89C353.953 3326.07 355.5 3330.7 358.078 3333.79C361.172 3337.39 365.297 3338.94 371.485 3338.94Z" fill="#F9893D" fill-opacity="0.5"/>
<path d="M375.098 3475.37V3403.8H373.035L361.692 3430.06H345.707L362.723 3392.48H390.051V3475.37H375.098Z" fill="#F9893D" fill-opacity="0.5"/>
<path d="M371.485 3600.99C361.688 3600.99 353.953 3598.42 347.766 3592.75C341.578 3587.09 339 3579.37 339 3568.04V3547.45C339 3536.64 342.094 3528.91 347.766 3523.25C353.438 3517.59 361.688 3515.01 371.485 3515.01C381.282 3515.01 389.016 3517.59 395.204 3523.25C400.876 3528.91 403.97 3537.15 403.97 3547.45V3568.04C403.97 3578.85 400.876 3587.09 395.204 3592.75C389.016 3598.42 381.282 3600.99 371.485 3600.99ZM371.485 3587.6C377.157 3587.6 381.797 3586.06 384.376 3582.97C386.954 3579.88 388.501 3575.25 388.501 3569.07V3546.93C388.501 3540.75 386.954 3536.12 383.86 3533.03C380.766 3529.94 376.641 3528.4 371.485 3528.4C365.813 3528.4 361.688 3529.94 358.594 3533.03C355.5 3536.12 353.953 3540.75 353.953 3546.42V3568.56C353.953 3574.73 355.5 3579.37 358.078 3582.46C361.172 3586.06 365.297 3587.6 371.485 3587.6Z" fill="#F9893D" fill-opacity="0.5"/>
<path d="M375.098 3724.04V3652.48H373.035L361.692 3678.73H345.707L362.723 3641.15H390.051V3724.04H375.098Z" fill="#F9893D" fill-opacity="0.5"/>
<path d="M371.485 3849.66C361.688 3849.66 353.953 3847.09 347.766 3841.43C342.094 3836.28 339 3828.04 339 3816.71V3796.12C339 3785.31 342.094 3777.58 347.766 3771.92C353.438 3766.26 361.688 3763.68 371.485 3763.68C381.282 3763.68 389.016 3766.26 395.204 3771.92C400.876 3777.58 403.97 3785.82 403.97 3796.12V3816.71C403.97 3827.52 400.876 3835.76 395.204 3841.43C389.016 3847.09 381.282 3849.66 371.485 3849.66ZM371.485 3836.28C377.157 3836.28 381.797 3834.73 384.376 3831.64C386.954 3828.55 388.501 3823.92 388.501 3817.74V3795.6C388.501 3789.43 386.954 3784.79 383.86 3781.7C380.766 3778.61 376.641 3777.07 371.485 3777.07C365.813 3777.07 361.688 3778.61 358.594 3781.7C355.5 3784.79 353.953 3789.43 353.953 3795.09V3817.23C353.953 3823.41 355.5 3828.04 358.078 3831.13C361.172 3834.73 365.297 3836.28 371.485 3836.28Z" fill="#F9893D" fill-opacity="0.5"/>
<path d="M375.098 3972.71V3901.15H373.035L361.692 3927.4H345.707L362.723 3889.82H390.051V3972.71H375.098Z" fill="#F9893D" fill-opacity="0.5"/>
<path d="M371.485 4098.33C361.688 4098.33 353.953 4095.76 347.766 4090.09C342.094 4084.95 339 4076.71 339 4065.38V4044.79C339 4033.98 342.094 4026.25 347.766 4020.59C353.438 4014.93 361.688 4012.35 371.485 4012.35C381.282 4012.35 389.016 4014.93 395.204 4020.59C400.876 4026.25 403.97 4034.49 403.97 4044.79V4065.38C403.97 4076.19 400.876 4084.43 395.204 4090.09C389.016 4095.76 381.282 4098.33 371.485 4098.33ZM371.485 4084.95C377.157 4084.95 381.797 4083.4 384.376 4080.31C386.954 4077.22 388.501 4072.59 388.501 4066.41V4044.27C388.501 4038.09 386.954 4033.46 383.86 4030.37C380.766 4027.28 376.641 4025.74 371.485 4025.74C365.813 4025.74 361.688 4027.28 358.594 4030.37C355.5 4033.46 353.953 4038.09 353.953 4043.76V4065.9C353.953 4072.07 355.5 4076.71 358.078 4079.8C361.172 4083.4 365.297 4084.95 371.485 4084.95Z" fill="#F9893D" fill-opacity="0.5"/>
<path d="M375.098 4221.38V4149.82H373.035L361.692 4176.08H345.707L362.723 4138.49H390.051V4221.38H375.098Z" fill="#F9893D" fill-opacity="0.5"/>
</g>
</g>
</g>
<defs>
<clipPath id="clip0_174_6804">
<rect width="428" height="4208" fill="white"/>
</clipPath>
<clipPath id="clip1_174_6804">
<rect width="428" height="4210" fill="white"/>
</clipPath>
</defs>
</svg>
