<svg width="1920" height="3017" viewBox="0 0 1920 3017" fill="none" xmlns="http://www.w3.org/2000/svg">
<g clip-path="url(#clip0_169_6734)">
<rect width="1920" height="3017" fill="#1A1A1A"/>
<g clip-path="url(#clip1_169_6734)">
<g opacity="0.18">
<path d="M500.914 84.4051V12.3266H498.855L487.527 38.5838H471.566L488.557 1H515.845V84.4051H500.914Z" fill="#F9893D" fill-opacity="0.5"/>
<path d="M497.312 210.026C487.529 210.026 479.806 207.452 473.628 201.789C467.449 196.125 464.875 188.403 464.875 177.076V156.482C464.875 145.67 467.964 137.948 473.628 132.284C479.291 126.621 487.529 124.047 497.312 124.047C507.094 124.047 514.817 126.621 520.996 132.284C526.659 137.948 529.749 146.185 529.749 156.482V177.076C529.749 187.888 526.659 196.125 520.996 201.789C514.817 207.452 507.094 210.026 497.312 210.026ZM497.312 196.64C502.975 196.64 507.609 195.096 510.184 192.007C512.758 188.917 514.303 184.284 514.303 178.106V155.967C514.303 149.789 512.758 145.156 509.669 142.066C506.579 138.977 502.461 137.433 497.312 137.433C491.648 137.433 487.529 138.977 484.44 142.066C481.351 145.156 479.806 149.789 479.806 155.452V177.591C479.806 183.769 481.351 188.403 483.925 191.492C487.014 195.096 491.648 196.64 497.312 196.64Z" fill="#F9893D" fill-opacity="0.5"/>
<path d="M500.918 333.077V260.998H498.858L487.531 287.256H471.57L488.561 249.672H515.849V332.562H500.918V333.077Z" fill="#F9893D" fill-opacity="0.5"/>
<path d="M500.914 457.152V385.588H498.855L487.527 411.845H471.566L488.557 374.262H515.845V457.152H500.914Z" fill="#F9893D" fill-opacity="0.5"/>
<path d="M500.918 581.746V509.667H498.858L487.531 535.924H471.57L489.076 498.855H516.364V581.746H500.918Z" fill="#F9893D" fill-opacity="0.5"/>
<path d="M497.312 707.37C487.529 707.37 479.806 704.796 473.628 699.132C467.449 693.469 464.875 685.746 464.875 674.42V653.826C464.875 643.014 467.964 635.291 473.628 629.628C479.291 623.965 487.529 621.391 497.312 621.391C507.094 621.391 514.817 623.965 520.996 629.628C526.659 635.291 529.749 643.529 529.749 653.826V674.42C529.749 685.232 526.659 693.469 520.996 699.132C514.817 704.796 507.094 707.37 497.312 707.37ZM497.312 693.984C502.975 693.984 507.609 692.439 510.184 689.35C512.758 686.261 514.303 681.628 514.303 675.449V653.311C514.303 647.133 512.758 642.499 509.669 639.41C506.579 636.321 502.461 634.777 497.312 634.777C491.648 634.777 487.529 636.321 484.44 639.41C481.351 642.499 479.806 647.133 479.806 652.796V674.935C479.806 681.113 481.351 685.746 483.925 688.835C487.014 692.439 491.648 693.984 497.312 693.984Z" fill="#F9893D" fill-opacity="0.5"/>
<path d="M497.312 831.964C487.529 831.964 479.806 829.389 473.628 823.726C467.449 818.063 464.875 810.34 464.875 799.014V778.42C464.875 767.608 467.964 759.885 473.628 754.222C479.291 748.559 487.529 745.984 497.312 745.984C507.094 745.984 514.817 748.559 520.996 754.222C526.659 759.885 529.749 768.123 529.749 778.42V799.014C529.749 809.825 526.659 818.063 520.996 823.726C514.817 829.389 507.094 831.964 497.312 831.964ZM497.312 818.578C502.975 818.578 507.609 817.033 510.184 813.944C512.758 810.855 514.303 806.221 514.303 800.043V777.905C514.303 771.727 512.758 767.093 509.669 764.004C506.579 760.915 502.461 759.37 497.312 759.37C491.648 759.37 487.529 760.915 484.44 764.004C481.351 767.093 479.806 771.727 479.806 777.39V799.528C479.806 805.706 481.351 810.34 483.925 813.429C487.014 817.033 491.648 818.578 497.312 818.578Z" fill="#F9893D" fill-opacity="0.5"/>
<path d="M500.918 954.496V882.932H498.858L487.531 909.189H471.57L488.561 871.605H515.849V954.496H500.918Z" fill="#F9893D" fill-opacity="0.5"/>
<path d="M497.312 1080.63C487.529 1080.63 479.806 1078.06 473.628 1072.39C467.449 1066.73 464.875 1059.01 464.875 1047.68V1027.09C464.875 1016.28 467.964 1008.55 473.628 1002.89C479.291 997.227 487.529 994.652 497.312 994.652C507.094 994.652 514.817 997.227 520.996 1002.89C526.659 1008.55 529.749 1016.79 529.749 1027.09V1047.68C529.749 1058.49 526.659 1066.73 520.996 1072.39C514.817 1078.06 507.094 1080.63 497.312 1080.63ZM497.312 1067.25C502.975 1067.25 507.609 1065.7 510.184 1062.61C512.758 1059.52 514.303 1054.89 514.303 1048.71V1026.57C514.303 1020.39 512.758 1015.76 509.669 1012.67C506.579 1009.58 502.461 1008.04 497.312 1008.04C491.648 1008.04 487.529 1009.58 484.44 1012.67C481.351 1015.76 479.806 1020.39 479.806 1026.06V1048.2C479.806 1054.37 481.351 1059.01 483.925 1062.1C487.014 1065.7 491.648 1067.25 497.312 1067.25Z" fill="#F9893D" fill-opacity="0.5"/>
<path opacity="0.78" d="M500.914 1203.16V1131.6H498.855L487.527 1157.86H471.566L488.557 1120.27H515.845V1203.16H500.914Z" fill="#F9893D" fill-opacity="0.5"/>
<path opacity="0.78" d="M497.312 1329.3C487.529 1329.3 479.806 1326.73 473.628 1321.07C467.449 1315.4 464.875 1307.68 464.875 1296.35V1275.76C464.875 1264.95 467.964 1257.23 473.628 1251.56C479.291 1245.9 487.529 1243.32 497.312 1243.32C507.094 1243.32 514.817 1245.9 520.996 1251.56C526.659 1257.23 529.749 1265.46 529.749 1275.76V1296.35C529.749 1307.17 526.659 1315.4 520.996 1321.07C514.817 1326.73 507.094 1329.3 497.312 1329.3ZM497.312 1315.92C502.975 1315.92 507.609 1314.37 510.184 1311.28C512.758 1308.19 514.303 1303.56 514.303 1297.38V1275.24C514.303 1269.07 512.758 1264.43 509.669 1261.34C506.579 1258.25 502.461 1256.71 497.312 1256.71C491.648 1256.71 487.529 1258.25 484.44 1261.34C481.351 1264.43 479.806 1269.07 479.806 1274.73V1296.87C479.806 1303.05 481.351 1307.68 483.925 1310.77C487.014 1314.37 491.648 1315.92 497.312 1315.92Z" fill="#F9893D" fill-opacity="0.5"/>
<path opacity="0.78" d="M497.312 1453.38C487.529 1453.38 479.806 1450.81 473.628 1445.14C467.449 1439.48 464.875 1431.76 464.875 1420.43V1399.84C464.875 1389.03 467.964 1381.3 473.628 1375.64C479.291 1369.98 487.529 1367.4 497.312 1367.4C507.094 1367.4 514.817 1369.98 520.996 1375.64C526.659 1381.3 529.749 1389.54 529.749 1399.84V1420.43C529.749 1431.24 526.659 1439.48 520.996 1445.14C514.817 1450.81 507.094 1453.38 497.312 1453.38ZM497.312 1440C502.975 1440 507.609 1438.45 510.184 1435.36C512.758 1432.27 514.303 1427.64 514.303 1421.46V1399.32C514.303 1393.14 512.758 1388.51 509.669 1385.42C506.579 1382.33 502.461 1380.79 497.312 1380.79C491.648 1380.79 487.529 1382.33 484.44 1385.42C481.351 1388.51 479.806 1393.14 479.806 1398.81V1420.95C479.806 1427.12 481.351 1431.76 483.925 1434.85C487.014 1438.45 491.648 1440 497.312 1440Z" fill="#F9893D" fill-opacity="0.5"/>
<path d="M500.914 1576.43V1504.87H498.855L487.527 1531.12H471.566L488.557 1493.54H515.845V1576.43H500.914Z" fill="#F9893D" fill-opacity="0.5"/>
<path d="M497.312 1702.05C487.529 1702.05 479.806 1699.48 473.628 1693.82C467.449 1688.15 464.875 1680.43 464.875 1669.1V1648.51C464.875 1637.7 467.964 1629.98 473.628 1624.31C479.291 1618.65 487.529 1616.07 497.312 1616.07C507.094 1616.07 514.817 1618.65 520.996 1624.31C526.659 1629.98 529.749 1638.21 529.749 1648.51V1669.1C529.749 1679.92 526.659 1688.15 520.996 1693.82C514.817 1699.48 507.094 1702.05 497.312 1702.05ZM497.312 1688.67C502.975 1688.67 507.609 1687.12 510.184 1684.03C512.758 1680.94 514.303 1676.31 514.303 1670.13V1647.99C514.303 1641.82 512.758 1637.18 509.669 1634.09C506.579 1631 502.461 1629.46 497.312 1629.46C491.648 1629.46 487.529 1631 484.44 1634.09C481.351 1637.18 479.806 1641.82 479.806 1647.48V1669.62C479.806 1675.8 481.351 1680.43 483.925 1683.52C487.014 1687.12 491.648 1688.67 497.312 1688.67Z" fill="#F9893D" fill-opacity="0.5"/>
<path d="M500.918 1825.1V1753.54H498.858L487.531 1779.79H471.57L488.561 1742.21H515.849V1825.1H500.918Z" fill="#F9893D" fill-opacity="0.5"/>
<path d="M497.312 1950.72C487.529 1950.72 479.806 1948.15 473.628 1942.48C467.449 1936.82 464.875 1929.1 464.875 1917.77V1897.18C464.875 1886.37 467.964 1878.64 473.628 1872.98C479.291 1867.32 487.529 1864.74 497.312 1864.74C507.094 1864.74 514.817 1867.32 520.996 1872.98C526.659 1878.64 529.749 1886.88 529.749 1897.18V1917.77C529.749 1928.58 526.659 1936.82 520.996 1942.48C514.817 1948.15 507.094 1950.72 497.312 1950.72ZM497.312 1937.34C502.975 1937.34 507.609 1935.79 510.184 1932.7C512.758 1929.61 514.303 1924.98 514.303 1918.8V1896.66C514.303 1890.48 512.758 1885.85 509.669 1882.76C506.579 1879.67 502.461 1878.13 497.312 1878.13C491.648 1878.13 487.529 1879.67 484.44 1882.76C481.351 1885.85 479.806 1890.48 479.806 1896.15V1918.29C479.806 1924.46 481.351 1929.1 483.925 1932.19C487.014 1935.79 491.648 1937.34 497.312 1937.34Z" fill="#F9893D" fill-opacity="0.5"/>
<path d="M500.918 2073.77V2002.21H498.858L487.531 2028.47H471.57L488.561 1990.88H515.849V2073.77H500.918Z" fill="#F9893D" fill-opacity="0.5"/>
<path d="M497.312 2199.39C487.529 2199.39 479.806 2196.82 473.628 2191.16C467.449 2185.49 464.875 2177.77 464.875 2166.44V2145.85C464.875 2135.04 467.964 2127.31 473.628 2121.65C479.291 2115.99 487.529 2113.41 497.312 2113.41C507.094 2113.41 514.817 2115.99 520.996 2121.65C526.659 2127.31 529.749 2135.55 529.749 2145.85V2166.44C529.749 2177.25 526.659 2185.49 520.996 2191.16C514.817 2196.82 507.094 2199.39 497.312 2199.39ZM497.312 2186.01C502.975 2186.01 507.609 2184.46 510.184 2181.37C512.758 2178.28 514.303 2173.65 514.303 2167.47V2145.33C514.303 2139.16 512.758 2134.52 509.669 2131.43C506.579 2128.34 502.461 2126.8 497.312 2126.8C491.648 2126.8 487.529 2128.34 484.44 2131.43C481.351 2134.52 479.806 2139.16 479.806 2144.82V2166.96C479.806 2173.14 481.351 2177.77 483.925 2180.86C487.014 2184.46 491.648 2186.01 497.312 2186.01Z" fill="#F9893D" fill-opacity="0.5"/>
<path d="M500.914 2322.44V2250.88H498.855L487.527 2277.13H471.566L488.557 2239.55H515.845V2322.44H500.914Z" fill="#F9893D" fill-opacity="0.5"/>
</g>
<g opacity="0.18">
<path d="M1696.4 165.048V106.241H1694.72L1685.48 127.664H1672.46L1686.32 97H1708.59V165.048H1696.4Z" fill="#F9893D" fill-opacity="0.5"/>
<path d="M1693.46 267.539C1685.48 267.539 1679.18 265.439 1674.14 260.818C1669.1 256.197 1667 249.897 1667 240.656V223.854C1667 215.033 1669.52 208.732 1674.14 204.111C1678.76 199.491 1685.48 197.391 1693.46 197.391C1701.45 197.391 1707.75 199.491 1712.79 204.111C1717.41 208.732 1719.93 215.453 1719.93 223.854V240.656C1719.93 249.477 1717.41 256.197 1712.79 260.818C1707.75 265.439 1701.45 267.539 1693.46 267.539ZM1693.46 256.617C1698.09 256.617 1701.87 255.357 1703.97 252.837C1706.07 250.317 1707.33 246.536 1707.33 241.496V223.434C1707.33 218.393 1706.07 214.613 1703.55 212.092C1701.03 209.572 1697.67 208.312 1693.46 208.312C1688.84 208.312 1685.48 209.572 1682.96 212.092C1680.44 214.613 1679.18 218.393 1679.18 223.014V241.076C1679.18 246.116 1680.44 249.897 1682.54 252.417C1685.06 255.357 1688.84 256.617 1693.46 256.617Z" fill="#F9893D" fill-opacity="0.5"/>
<path d="M1696.4 367.931V309.124H1694.72L1685.48 330.546H1672.46L1686.32 299.883H1708.59V367.511H1696.4V367.931Z" fill="#F9893D" fill-opacity="0.5"/>
<path d="M1696.4 469.163V410.776H1694.72L1685.48 432.199H1672.46L1686.32 401.535H1708.59V469.163H1696.4Z" fill="#F9893D" fill-opacity="0.5"/>
<path d="M1696.4 570.815V512.009H1694.72L1685.48 533.431H1672.46L1686.74 503.188H1709.01V570.815H1696.4Z" fill="#F9893D" fill-opacity="0.5"/>
<path d="M1693.46 673.304C1685.48 673.304 1679.18 671.204 1674.14 666.584C1669.1 661.963 1667 655.662 1667 646.421V629.619C1667 620.798 1669.52 614.498 1674.14 609.877C1678.76 605.256 1685.48 603.156 1693.46 603.156C1701.45 603.156 1707.75 605.256 1712.79 609.877C1717.41 614.498 1719.93 621.218 1719.93 629.619V646.421C1719.93 655.242 1717.41 661.963 1712.79 666.584C1707.75 671.204 1701.45 673.304 1693.46 673.304ZM1693.46 662.383C1698.09 662.383 1701.87 661.123 1703.97 658.603C1706.07 656.082 1707.33 652.302 1707.33 647.261V629.199C1707.33 624.159 1706.07 620.378 1703.55 617.858C1701.03 615.338 1697.67 614.078 1693.46 614.078C1688.84 614.078 1685.48 615.338 1682.96 617.858C1680.44 620.378 1679.18 624.159 1679.18 628.779V646.841C1679.18 651.882 1680.44 655.662 1682.54 658.183C1685.06 661.123 1688.84 662.383 1693.46 662.383Z" fill="#F9893D" fill-opacity="0.5"/>
<path d="M1693.46 774.961C1685.48 774.961 1679.18 772.86 1674.14 768.24C1669.1 763.619 1667 757.319 1667 748.078V731.276C1667 722.455 1669.52 716.154 1674.14 711.533C1678.76 706.913 1685.48 704.812 1693.46 704.812C1701.45 704.812 1707.75 706.913 1712.79 711.533C1717.41 716.154 1719.93 722.875 1719.93 731.276V748.078C1719.93 756.899 1717.41 763.619 1712.79 768.24C1707.75 772.86 1701.45 774.961 1693.46 774.961ZM1693.46 764.039C1698.09 764.039 1701.87 762.779 1703.97 760.259C1706.07 757.739 1707.33 753.958 1707.33 748.918V730.856C1707.33 725.815 1706.07 722.034 1703.55 719.514C1701.03 716.994 1697.67 715.734 1693.46 715.734C1688.84 715.734 1685.48 716.994 1682.96 719.514C1680.44 722.034 1679.18 725.815 1679.18 730.435V748.498C1679.18 753.538 1680.44 757.319 1682.54 759.839C1685.06 762.779 1688.84 764.039 1693.46 764.039Z" fill="#F9893D" fill-opacity="0.5"/>
<path d="M1696.4 874.933V816.546H1694.72L1685.48 837.968H1672.46L1686.32 807.305H1708.59V874.933H1696.4Z" fill="#F9893D" fill-opacity="0.5"/>
<path d="M1693.46 977.843C1685.48 977.843 1679.18 975.743 1674.14 971.123C1669.1 966.502 1667 960.201 1667 950.96V934.158C1667 925.337 1669.52 919.037 1674.14 914.416C1678.76 909.796 1685.48 907.695 1693.46 907.695C1701.45 907.695 1707.75 909.796 1712.79 914.416C1717.41 919.037 1719.93 925.757 1719.93 934.158V950.96C1719.93 959.781 1717.41 966.502 1712.79 971.123C1707.75 975.743 1701.45 977.843 1693.46 977.843ZM1693.46 966.922C1698.09 966.922 1701.87 965.662 1703.97 963.142C1706.07 960.621 1707.33 956.841 1707.33 951.8V933.738C1707.33 928.698 1706.07 924.917 1703.55 922.397C1701.03 919.877 1697.67 918.617 1693.46 918.617C1688.84 918.617 1685.48 919.877 1682.96 922.397C1680.44 924.917 1679.18 928.698 1679.18 933.318V951.38C1679.18 956.421 1680.44 960.201 1682.54 962.722C1685.06 965.662 1688.84 966.922 1693.46 966.922Z" fill="#F9893D" fill-opacity="0.5"/>
<path opacity="0.78" d="M1696.4 1077.82V1019.43H1694.72L1685.48 1040.85H1672.46L1686.32 1010.19H1708.59V1077.82H1696.4Z" fill="#F9893D" fill-opacity="0.5"/>
<path opacity="0.78" d="M1693.46 1180.73C1685.48 1180.73 1679.18 1178.63 1674.14 1174.01C1669.1 1169.38 1667 1163.08 1667 1153.84V1137.04C1667 1128.22 1669.52 1121.92 1674.14 1117.3C1678.76 1112.68 1685.48 1110.58 1693.46 1110.58C1701.45 1110.58 1707.75 1112.68 1712.79 1117.3C1717.41 1121.92 1719.93 1128.64 1719.93 1137.04V1153.84C1719.93 1162.66 1717.41 1169.38 1712.79 1174.01C1707.75 1178.63 1701.45 1180.73 1693.46 1180.73ZM1693.46 1169.8C1698.09 1169.8 1701.87 1168.54 1703.97 1166.02C1706.07 1163.5 1707.33 1159.72 1707.33 1154.68V1136.62C1707.33 1131.58 1706.07 1127.8 1703.55 1125.28C1701.03 1122.76 1697.67 1121.5 1693.46 1121.5C1688.84 1121.5 1685.48 1122.76 1682.96 1125.28C1680.44 1127.8 1679.18 1131.58 1679.18 1136.2V1154.26C1679.18 1159.3 1680.44 1163.08 1682.54 1165.6C1685.06 1168.54 1688.84 1169.8 1693.46 1169.8Z" fill="#F9893D" fill-opacity="0.5"/>
<path opacity="0.78" d="M1693.46 1281.96C1685.48 1281.96 1679.18 1279.86 1674.14 1275.24C1669.1 1270.62 1667 1264.31 1667 1255.07V1238.27C1667 1229.45 1669.52 1223.15 1674.14 1218.53C1678.76 1213.91 1685.48 1211.81 1693.46 1211.81C1701.45 1211.81 1707.75 1213.91 1712.79 1218.53C1717.41 1223.15 1719.93 1229.87 1719.93 1238.27V1255.07C1719.93 1263.89 1717.41 1270.62 1712.79 1275.24C1707.75 1279.86 1701.45 1281.96 1693.46 1281.96ZM1693.46 1271.04C1698.09 1271.04 1701.87 1269.78 1703.97 1267.26C1706.07 1264.73 1707.33 1260.95 1707.33 1255.91V1237.85C1707.33 1232.81 1706.07 1229.03 1703.55 1226.51C1701.03 1223.99 1697.67 1222.73 1693.46 1222.73C1688.84 1222.73 1685.48 1223.99 1682.96 1226.51C1680.44 1229.03 1679.18 1232.81 1679.18 1237.43V1255.49C1679.18 1260.53 1680.44 1264.31 1682.54 1266.83C1685.06 1269.78 1688.84 1271.04 1693.46 1271.04Z" fill="#F9893D" fill-opacity="0.5"/>
<path d="M1696.4 1382.35V1323.96H1694.72L1685.48 1345.38H1672.46L1686.32 1314.72H1708.59V1382.35H1696.4Z" fill="#F9893D" fill-opacity="0.5"/>
<path d="M1693.46 1484.84C1685.48 1484.84 1679.18 1482.74 1674.14 1478.12C1669.1 1473.5 1667 1467.2 1667 1457.96V1441.15C1667 1432.33 1669.52 1426.03 1674.14 1421.41C1678.76 1416.79 1685.48 1414.69 1693.46 1414.69C1701.45 1414.69 1707.75 1416.79 1712.79 1421.41C1717.41 1426.03 1719.93 1432.75 1719.93 1441.15V1457.96C1719.93 1466.78 1717.41 1473.5 1712.79 1478.12C1707.75 1482.74 1701.45 1484.84 1693.46 1484.84ZM1693.46 1473.92C1698.09 1473.92 1701.87 1472.66 1703.97 1470.14C1706.07 1467.62 1707.33 1463.84 1707.33 1458.8V1440.73C1707.33 1435.69 1706.07 1431.91 1703.55 1429.39C1701.03 1426.87 1697.67 1425.61 1693.46 1425.61C1688.84 1425.61 1685.48 1426.87 1682.96 1429.39C1680.44 1431.91 1679.18 1435.69 1679.18 1440.31V1458.38C1679.18 1463.42 1680.44 1467.2 1682.54 1469.72C1685.06 1472.66 1688.84 1473.92 1693.46 1473.92Z" fill="#F9893D" fill-opacity="0.5"/>
<path d="M1696.4 1585.23V1526.85H1694.72L1685.48 1548.27H1672.46L1686.32 1517.61H1708.59V1585.23H1696.4Z" fill="#F9893D" fill-opacity="0.5"/>
<path d="M1693.46 1687.73C1685.48 1687.73 1679.18 1685.63 1674.14 1681.01C1669.1 1676.38 1667 1670.08 1667 1660.84V1644.04C1667 1635.22 1669.52 1628.92 1674.14 1624.3C1678.76 1619.68 1685.48 1617.58 1693.46 1617.58C1701.45 1617.58 1707.75 1619.68 1712.79 1624.3C1717.41 1628.92 1719.93 1635.64 1719.93 1644.04V1660.84C1719.93 1669.66 1717.41 1676.38 1712.79 1681.01C1707.75 1685.63 1701.45 1687.73 1693.46 1687.73ZM1693.46 1676.81C1698.09 1676.81 1701.87 1675.54 1703.97 1673.02C1706.07 1670.5 1707.33 1666.72 1707.33 1661.68V1643.62C1707.33 1638.58 1706.07 1634.8 1703.55 1632.28C1701.03 1629.76 1697.67 1628.5 1693.46 1628.5C1688.84 1628.5 1685.48 1629.76 1682.96 1632.28C1680.44 1634.8 1679.18 1638.58 1679.18 1643.2V1661.26C1679.18 1666.3 1680.44 1670.08 1682.54 1672.6C1685.06 1675.54 1688.84 1676.81 1693.46 1676.81Z" fill="#F9893D" fill-opacity="0.5"/>
<path d="M1696.4 1788.12V1729.73H1694.72L1685.48 1751.15H1672.46L1686.32 1720.49H1708.59V1788.12H1696.4Z" fill="#F9893D" fill-opacity="0.5"/>
<path d="M1693.46 1890.61C1685.48 1890.61 1679.18 1888.51 1674.14 1883.89C1669.1 1879.27 1667 1872.97 1667 1863.73V1846.92C1667 1838.1 1669.52 1831.8 1674.14 1827.18C1678.76 1822.56 1685.48 1820.46 1693.46 1820.46C1701.45 1820.46 1707.75 1822.56 1712.79 1827.18C1717.41 1831.8 1719.93 1838.52 1719.93 1846.92V1863.73C1719.93 1872.55 1717.41 1879.27 1712.79 1883.89C1707.75 1888.51 1701.45 1890.61 1693.46 1890.61ZM1693.46 1879.69C1698.09 1879.69 1701.87 1878.43 1703.97 1875.91C1706.07 1873.39 1707.33 1869.61 1707.33 1864.57V1846.5C1707.33 1841.46 1706.07 1837.68 1703.55 1835.16C1701.03 1832.64 1697.67 1831.38 1693.46 1831.38C1688.84 1831.38 1685.48 1832.64 1682.96 1835.16C1680.44 1837.68 1679.18 1841.46 1679.18 1846.08V1864.15C1679.18 1869.19 1680.44 1872.97 1682.54 1875.49C1685.06 1878.43 1688.84 1879.69 1693.46 1879.69Z" fill="#F9893D" fill-opacity="0.5"/>
<path d="M1696.4 1991V1932.61H1694.72L1685.48 1954.03H1672.46L1686.32 1923.37H1708.59V1991H1696.4Z" fill="#F9893D" fill-opacity="0.5"/>
</g>
<g opacity="0.18">
<path d="M1687.34 2551.5C1677.55 2551.5 1669.83 2548.92 1663.65 2543.26C1657.99 2538.11 1654.9 2529.88 1654.9 2518.55V2497.95C1654.9 2487.14 1657.99 2479.42 1663.65 2473.76C1669.31 2468.09 1677.55 2465.52 1687.34 2465.52C1697.12 2465.52 1704.84 2468.09 1711.02 2473.76C1716.68 2479.42 1719.77 2487.66 1719.77 2497.95V2518.55C1719.77 2529.36 1716.68 2537.6 1711.02 2543.26C1705.36 2548.92 1697.63 2551.5 1687.34 2551.5ZM1687.34 2538.11C1693 2538.11 1697.63 2536.57 1700.21 2533.48C1702.78 2530.39 1704.33 2525.76 1704.33 2519.58V2497.44C1704.33 2491.26 1702.78 2486.63 1699.69 2483.54C1696.6 2480.45 1692.48 2478.91 1687.34 2478.91C1681.67 2478.91 1677.55 2480.45 1674.46 2483.54C1671.37 2486.63 1669.83 2491.26 1669.83 2496.93V2519.06C1669.83 2525.24 1671.37 2529.88 1673.95 2532.96C1677.55 2536.57 1681.67 2538.11 1687.34 2538.11Z" fill="#F9893D" fill-opacity="0.5"/>
<path d="M1691.46 2671.46V2599.9H1689.4L1678.07 2626.15H1662.11L1679.1 2588.57H1706.39V2671.46H1691.46Z" fill="#F9893D" fill-opacity="0.5"/>
<path d="M1687.34 2794.51C1677.55 2794.51 1669.83 2791.93 1663.65 2786.27C1657.99 2780.61 1654.9 2772.88 1654.9 2761.56V2740.96C1654.9 2730.15 1657.99 2722.43 1663.65 2716.77C1669.31 2711.1 1677.55 2708.53 1687.34 2708.53C1697.12 2708.53 1704.84 2711.1 1711.02 2716.77C1716.68 2722.43 1719.77 2730.67 1719.77 2740.96V2761.56C1719.77 2772.37 1716.68 2780.61 1711.02 2786.27C1705.36 2791.42 1697.63 2794.51 1687.34 2794.51ZM1687.34 2780.61C1693 2780.61 1697.63 2779.06 1700.21 2775.97C1702.78 2772.88 1704.33 2768.25 1704.33 2762.07V2739.93C1704.33 2733.75 1702.78 2729.12 1699.69 2726.03C1696.6 2722.94 1692.48 2721.4 1687.34 2721.4C1681.67 2721.4 1677.55 2722.94 1674.46 2726.03C1671.37 2729.12 1669.83 2733.75 1669.83 2739.42V2761.56C1669.83 2767.73 1671.37 2772.37 1673.95 2775.46C1677.55 2779.06 1681.67 2780.61 1687.34 2780.61Z" fill="#F9893D" fill-opacity="0.5"/>
<path d="M1691.46 2913.95V2842.39H1689.4L1678.07 2868.65H1662.11L1679.1 2831.06H1706.39V2913.95H1691.46Z" fill="#F9893D" fill-opacity="0.5"/>
<path d="M1687.34 3037C1677.55 3037 1669.83 3034.42 1663.65 3028.76C1657.99 3023.61 1654.9 3015.38 1654.9 3004.05V2983.45C1654.9 2972.64 1657.99 2964.92 1663.65 2959.26C1669.31 2953.59 1677.55 2951.02 1687.34 2951.02C1697.12 2951.02 1704.84 2953.59 1711.02 2959.26C1716.68 2964.92 1719.77 2973.16 1719.77 2983.45V3004.05C1719.77 3014.86 1716.68 3023.1 1711.02 3028.76C1705.36 3034.42 1697.63 3037 1687.34 3037ZM1687.34 3023.61C1693 3023.61 1697.63 3022.07 1700.21 3018.98C1702.78 3015.89 1704.33 3011.26 1704.33 3005.08V2982.94C1704.33 2976.76 1702.78 2972.13 1699.69 2969.04C1696.6 2965.95 1692.48 2964.41 1687.34 2964.41C1681.67 2964.41 1677.55 2965.95 1674.46 2969.04C1671.37 2972.13 1669.83 2976.76 1669.83 2982.43V3004.56C1669.83 3010.74 1671.37 3015.38 1673.95 3018.46C1677.55 3022.07 1681.67 3023.61 1687.34 3023.61Z" fill="#F9893D" fill-opacity="0.5"/>
</g>
<g opacity="0.18">
<path d="M1422.46 2803.77C1412.68 2803.77 1404.95 2801.2 1398.78 2795.53C1392.6 2789.87 1390.02 2782.15 1390.02 2770.82V2750.23C1390.02 2739.42 1393.11 2731.69 1398.78 2726.03C1404.44 2720.37 1412.68 2717.79 1422.46 2717.79C1432.24 2717.79 1439.97 2720.37 1446.14 2726.03C1451.81 2731.69 1454.9 2739.93 1454.9 2750.23V2770.82C1454.9 2781.63 1451.81 2789.87 1446.14 2795.53C1439.97 2801.2 1432.24 2803.77 1422.46 2803.77ZM1422.46 2790.39C1428.12 2790.39 1432.76 2788.84 1435.33 2785.75C1437.91 2782.66 1439.45 2778.03 1439.45 2771.85V2749.71C1439.45 2743.54 1437.91 2738.9 1434.82 2735.81C1431.73 2732.72 1427.61 2731.18 1422.46 2731.18C1416.8 2731.18 1412.68 2732.72 1409.59 2735.81C1406.5 2738.9 1404.95 2743.54 1404.95 2749.2V2771.34C1404.95 2777.52 1406.5 2782.15 1409.07 2785.24C1412.16 2788.84 1416.28 2790.39 1422.46 2790.39Z" fill="#F9893D" fill-opacity="0.5"/>
<path d="M1426.07 2926.82V2855.26H1424.01L1412.68 2881.51H1396.72L1413.71 2843.93H1441V2926.82H1426.07Z" fill="#F9893D" fill-opacity="0.5"/>
<path d="M1422.46 3052.44C1412.68 3052.44 1404.95 3049.87 1398.78 3044.2C1392.6 3038.54 1390.02 3030.82 1390.02 3019.49V2998.9C1390.02 2988.08 1393.11 2980.36 1398.78 2974.7C1404.44 2969.04 1412.68 2966.46 1422.46 2966.46C1432.24 2966.46 1439.97 2969.04 1446.14 2974.7C1451.81 2980.36 1454.9 2988.6 1454.9 2998.9V3019.49C1454.9 3030.3 1451.81 3038.54 1446.14 3044.2C1439.97 3049.87 1432.24 3052.44 1422.46 3052.44ZM1422.46 3039.05C1428.12 3039.05 1432.76 3037.51 1435.33 3034.42C1437.91 3031.33 1439.45 3026.7 1439.45 3020.52V2998.38C1439.45 2992.2 1437.91 2987.57 1434.82 2984.48C1431.73 2981.39 1427.61 2979.85 1422.46 2979.85C1416.8 2979.85 1412.68 2981.39 1409.59 2984.48C1406.5 2987.57 1404.95 2992.2 1404.95 2997.87V3020C1404.95 3026.18 1406.5 3030.82 1409.07 3033.91C1412.16 3037.51 1416.28 3039.05 1422.46 3039.05Z" fill="#F9893D" fill-opacity="0.5"/>
</g>
<g opacity="0.18">
<path d="M232.437 86.9792C222.654 86.9792 214.931 84.4051 208.753 78.7418C203.089 73.5933 200 65.3557 200 54.0291V33.4352C200 22.6235 203.089 14.9009 208.753 9.23757C214.416 3.57426 222.654 1 232.437 1C242.219 1 249.942 3.57426 256.121 9.23757C261.784 14.9009 264.874 23.1383 264.874 33.4352V54.0291C264.874 64.8409 261.784 73.0785 256.121 78.7418C250.457 84.4051 242.734 86.9792 232.437 86.9792ZM232.437 73.5933C238.1 73.5933 242.734 72.0487 245.309 68.9596C247.883 65.8705 249.427 61.237 249.427 55.0588V32.9204C249.427 26.7422 247.883 22.1087 244.794 19.0196C241.704 15.9305 237.585 14.386 232.437 14.386C226.773 14.386 222.654 15.9305 219.565 19.0196C216.476 22.1087 214.931 26.7423 214.931 32.4056V54.544C214.931 60.7221 216.476 65.3558 219.05 68.4449C222.654 72.0488 226.773 73.5933 232.437 73.5933Z" fill="#F9893D" fill-opacity="0.5"/>
<path d="M236.555 206.937V135.374H234.495L223.168 161.631H207.207L224.198 124.047H251.486V206.937H236.555Z" fill="#F9893D" fill-opacity="0.5"/>
<path d="M232.437 329.987C222.654 329.987 214.931 327.413 208.753 321.75C203.089 316.086 200 308.364 200 297.037V276.443C200 265.631 203.089 257.909 208.753 252.246C214.416 246.582 222.654 244.008 232.437 244.008C242.219 244.008 249.942 246.582 256.121 252.246C261.784 257.909 264.874 266.146 264.874 276.443V297.037C264.874 307.849 261.784 316.086 256.121 321.75C250.457 326.898 242.734 329.987 232.437 329.987ZM232.437 316.086C238.1 316.086 242.734 314.542 245.309 311.453C247.883 308.364 249.427 303.73 249.427 297.552V275.414C249.427 269.235 247.883 264.602 244.794 261.513C241.704 258.424 237.585 256.879 232.437 256.879C226.773 256.879 222.654 258.424 219.565 261.513C216.476 264.602 214.931 269.235 214.931 274.899V297.037C214.931 303.215 216.476 307.849 219.05 310.938C222.654 314.542 226.773 316.086 232.437 316.086Z" fill="#F9893D" fill-opacity="0.5"/>
<path d="M236.555 449.429V377.866H234.495L223.168 404.123H207.207L224.198 366.539H251.486V449.429H236.555Z" fill="#F9893D" fill-opacity="0.5"/>
<path d="M232.437 572.479C222.654 572.479 214.931 569.905 208.753 564.242C203.089 559.093 200 550.856 200 539.529V518.935C200 508.123 203.089 500.401 208.753 494.737C214.416 489.074 222.654 486.5 232.437 486.5C242.219 486.5 249.942 489.074 256.121 494.737C261.784 500.401 264.874 508.638 264.874 518.935V539.529C264.874 550.341 261.784 558.578 256.121 564.242C250.457 569.905 242.734 572.479 232.437 572.479ZM232.437 559.093C238.1 559.093 242.734 557.549 245.309 554.459C247.883 551.37 249.427 546.737 249.427 540.559V518.42C249.427 512.242 247.883 507.609 244.794 504.52C241.704 501.431 237.585 499.886 232.437 499.886C226.773 499.886 222.654 501.431 219.565 504.52C216.476 507.609 214.931 512.242 214.931 517.905V540.044C214.931 546.222 216.476 550.856 219.05 553.945C222.654 557.549 226.773 559.093 232.437 559.093Z" fill="#F9893D" fill-opacity="0.5"/>
<path d="M236.555 692.437V620.874H234.495L223.168 647.131H207.207L224.198 609.547H251.486V692.437H236.555Z" fill="#F9893D" fill-opacity="0.5"/>
<path d="M232.437 815.487C222.654 815.487 214.931 812.913 208.753 807.25C203.089 802.101 200 793.864 200 782.537V761.943C200 751.132 203.089 743.409 208.753 737.746C214.416 732.082 222.654 729.508 232.437 729.508C242.219 729.508 249.942 732.082 256.121 737.746C261.784 743.409 264.874 751.646 264.874 761.943V782.537C264.874 793.349 261.784 801.586 256.121 807.25C250.457 812.398 242.734 815.487 232.437 815.487ZM232.437 801.586C238.1 801.586 242.734 800.042 245.309 796.953C247.883 793.864 249.427 789.23 249.427 783.052V760.914C249.427 754.735 247.883 750.102 244.794 747.013C241.704 743.924 237.585 742.379 232.437 742.379C226.773 742.379 222.654 743.924 219.565 747.013C216.476 750.102 214.931 754.735 214.931 760.399V782.537C214.931 788.715 216.476 793.349 219.05 796.438C222.654 800.042 226.773 801.586 232.437 801.586Z" fill="#F9893D" fill-opacity="0.5"/>
<path d="M236.555 934.929V863.365H234.495L223.168 889.623H207.207L224.198 852.039H251.486V934.929H236.555Z" fill="#F9893D" fill-opacity="0.5"/>
<path d="M232.437 1057.98C222.654 1057.98 214.931 1055.4 208.753 1049.74C203.089 1044.08 200 1036.36 200 1025.03V1004.44C200 993.623 203.089 985.901 208.753 980.237C214.416 974.574 222.654 972 232.437 972C242.219 972 249.942 974.574 256.121 980.237C261.784 985.901 264.874 994.138 264.874 1004.44V1025.03C264.874 1035.84 261.784 1044.08 256.121 1049.74C250.457 1055.4 242.734 1057.98 232.437 1057.98ZM232.437 1044.59C238.1 1044.59 242.734 1043.05 245.309 1039.96C247.883 1036.87 249.427 1032.24 249.427 1026.06V1003.92C249.427 997.742 247.883 993.109 244.794 990.02C241.704 986.931 237.585 985.386 232.437 985.386C226.773 985.386 222.654 986.931 219.565 990.02C216.476 993.109 214.931 997.742 214.931 1003.41V1025.54C214.931 1031.72 216.476 1036.36 219.05 1039.44C222.654 1043.05 226.773 1044.59 232.437 1044.59Z" fill="#F9893D" fill-opacity="0.5"/>
<path d="M236.555 1177.94V1106.37H234.495L223.168 1132.63H207.207L224.198 1095.05H251.486V1177.94H236.555Z" fill="#F9893D" fill-opacity="0.5"/>
<path d="M232.437 1300.99C222.654 1300.99 214.931 1298.41 208.753 1292.75C203.089 1287.6 200 1279.36 200 1268.04V1247.44C200 1236.63 203.089 1228.91 208.753 1223.25C214.416 1217.58 222.654 1215.01 232.437 1215.01C242.219 1215.01 249.942 1217.58 256.121 1223.25C261.784 1228.91 264.874 1237.15 264.874 1247.44V1268.04C264.874 1278.85 261.784 1287.09 256.121 1292.75C250.457 1297.9 242.734 1300.99 232.437 1300.99ZM232.437 1287.09C238.1 1287.09 242.734 1285.54 245.309 1282.45C247.883 1279.36 249.427 1274.73 249.427 1268.55V1246.41C249.427 1240.24 247.883 1235.6 244.794 1232.51C241.704 1229.42 237.585 1227.88 232.437 1227.88C226.773 1227.88 222.654 1229.42 219.565 1232.51C216.476 1235.6 214.931 1240.24 214.931 1245.9V1268.04C214.931 1274.22 216.476 1278.85 219.05 1281.94C222.654 1285.54 226.773 1287.09 232.437 1287.09Z" fill="#F9893D" fill-opacity="0.5"/>
<path d="M236.555 1420.43V1348.87H234.495L223.168 1375.12H207.207L224.198 1337.54H251.486V1420.43H236.555Z" fill="#F9893D" fill-opacity="0.5"/>
<path d="M236.555 1541.94V1470.37H234.495L223.168 1496.63H207.207L224.198 1459.05H251.486V1541.94H236.555Z" fill="#F9893D" fill-opacity="0.5"/>
<path d="M236.558 1663.44V1591.36H234.499L223.172 1617.61H207.211L224.202 1580.03H251.49V1663.44H236.558Z" fill="#F9893D" fill-opacity="0.5"/>
<path d="M232.437 1786.49C222.654 1786.49 214.931 1783.91 208.753 1778.25C203.089 1773.1 200 1764.86 200 1753.54V1732.94C200 1722.13 203.089 1714.41 208.753 1708.75C214.416 1703.08 222.654 1700.51 232.437 1700.51C242.219 1700.51 249.942 1703.08 256.121 1708.75C261.784 1714.41 264.874 1722.65 264.874 1732.94V1753.54C264.874 1764.35 261.784 1772.59 256.121 1778.25C250.457 1783.4 242.734 1786.49 232.437 1786.49ZM232.437 1772.59C238.1 1772.59 242.734 1771.04 245.309 1767.95C247.883 1764.86 249.427 1760.23 249.427 1754.05V1731.91C249.427 1725.74 247.883 1721.1 244.794 1718.01C241.704 1714.92 237.585 1713.38 232.437 1713.38C226.773 1713.38 222.654 1714.92 219.565 1718.01C216.476 1721.1 214.931 1725.74 214.931 1731.4V1753.54C214.931 1759.72 216.476 1764.35 219.05 1767.44C222.654 1771.04 226.773 1772.59 232.437 1772.59Z" fill="#F9893D" fill-opacity="0.5"/>
<path d="M232.437 1907.48C222.654 1907.48 214.931 1904.9 208.753 1899.24C203.089 1894.09 200 1885.85 200 1874.53V1853.93C200 1843.12 203.089 1835.4 208.753 1829.73C214.416 1824.07 222.654 1821.5 232.437 1821.5C242.219 1821.5 249.942 1824.07 256.121 1829.73C261.784 1835.4 264.874 1843.63 264.874 1853.93V1874.53C264.874 1885.34 261.784 1893.57 256.121 1899.24C250.457 1904.9 242.734 1907.48 232.437 1907.48ZM232.437 1894.09C238.1 1894.09 242.734 1892.54 245.309 1889.46C247.883 1886.37 249.427 1881.73 249.427 1875.55V1853.42C249.427 1847.24 247.883 1842.6 244.794 1839.52C241.704 1836.43 237.585 1834.88 232.437 1834.88C226.773 1834.88 222.654 1836.43 219.565 1839.52C216.476 1842.6 214.931 1847.24 214.931 1852.9V1875.04C214.931 1881.22 216.476 1885.85 219.05 1888.94C222.654 1892.54 226.773 1894.09 232.437 1894.09Z" fill="#F9893D" fill-opacity="0.5"/>
<path d="M236.555 2027.44V1955.87H234.495L223.168 1982.13H207.207L224.198 1944.55H251.486V2027.44H236.555Z" fill="#F9893D" fill-opacity="0.5"/>
<path d="M232.437 2150.48C222.654 2150.48 214.931 2147.91 208.753 2142.25C203.089 2136.58 200 2128.86 200 2117.53V2096.94C200 2086.13 203.089 2078.4 208.753 2072.74C214.416 2067.08 222.654 2064.5 232.437 2064.5C242.219 2064.5 249.942 2067.08 256.121 2072.74C261.784 2078.4 264.874 2086.64 264.874 2096.94V2117.53C264.874 2128.34 261.784 2136.58 256.121 2142.25C250.457 2147.91 242.734 2150.48 232.437 2150.48ZM232.437 2137.1C238.1 2137.1 242.734 2135.55 245.309 2132.46C247.883 2129.37 249.427 2124.74 249.427 2118.56V2096.42C249.427 2090.25 247.883 2085.61 244.794 2082.52C241.704 2079.43 237.585 2077.89 232.437 2077.89C226.773 2077.89 222.654 2079.43 219.565 2082.52C216.476 2085.61 214.931 2090.25 214.931 2095.91V2118.05C214.931 2124.23 216.476 2128.86 219.05 2131.95C222.654 2135.55 226.773 2137.1 232.437 2137.1Z" fill="#F9893D" fill-opacity="0.5"/>
<path opacity="0.78" d="M236.558 2269.93V2198.37H234.499L223.172 2224.62H207.211L224.202 2187.04H251.49V2269.93H236.558Z" fill="#F9893D" fill-opacity="0.5"/>
<path opacity="0.78" d="M232.437 2392.98C222.654 2392.98 214.931 2390.4 208.753 2384.74C203.089 2379.59 200 2371.35 200 2360.03V2339.43C200 2328.62 203.089 2320.9 208.753 2315.23C214.416 2309.57 222.654 2307 232.437 2307C242.219 2307 249.942 2309.57 256.121 2315.23C261.784 2320.9 264.874 2329.13 264.874 2339.43V2360.03C264.874 2370.84 261.784 2379.07 256.121 2384.74C250.457 2390.4 242.734 2392.98 232.437 2392.98ZM232.437 2379.59C238.1 2379.59 242.734 2378.04 245.309 2374.96C247.883 2371.87 249.427 2367.23 249.427 2361.05V2338.92C249.427 2332.74 247.883 2328.1 244.794 2325.02C241.704 2321.93 237.585 2320.38 232.437 2320.38C226.773 2320.38 222.654 2321.93 219.565 2325.02C216.476 2328.1 214.931 2332.74 214.931 2338.4V2360.54C214.931 2366.72 216.476 2371.35 219.05 2374.44C222.654 2378.04 226.773 2379.59 232.437 2379.59Z" fill="#F9893D" fill-opacity="0.5"/>
<path opacity="0.78" d="M232.437 2514.48C222.654 2514.48 214.931 2511.91 208.753 2506.24C203.089 2501.09 200 2492.86 200 2481.53V2460.94C200 2450.12 203.089 2442.4 208.753 2436.74C214.416 2431.07 222.654 2428.5 232.437 2428.5C242.219 2428.5 249.942 2431.07 256.121 2436.74C261.784 2442.4 264.874 2450.64 264.874 2460.94V2481.53C264.874 2492.34 261.784 2500.58 256.121 2506.24C250.457 2511.91 242.734 2514.48 232.437 2514.48ZM232.437 2501.09C238.1 2501.09 242.734 2499.55 245.309 2496.46C247.883 2493.37 249.427 2488.74 249.427 2482.56V2460.42C249.427 2454.24 247.883 2449.61 244.794 2446.52C241.704 2443.43 237.585 2441.89 232.437 2441.89C226.773 2441.89 222.654 2443.43 219.565 2446.52C216.476 2449.61 214.931 2454.24 214.931 2459.91V2482.04C214.931 2488.22 216.476 2492.86 219.05 2495.95C222.654 2499.55 226.773 2501.09 232.437 2501.09Z" fill="#F9893D" fill-opacity="0.5"/>
<path opacity="0.78" d="M236.558 2634.44V2562.87H234.499L223.172 2589.13H207.211L224.202 2551.55H251.49V2634.44H236.558Z" fill="#F9893D" fill-opacity="0.5"/>
<path opacity="0.78" d="M232.437 2757.49C222.654 2757.49 214.931 2754.91 208.753 2749.25C203.089 2743.59 200 2735.86 200 2724.54V2703.94C200 2693.13 203.089 2685.41 208.753 2679.75C214.416 2674.08 222.654 2671.51 232.437 2671.51C242.219 2671.51 249.942 2674.08 256.121 2679.75C261.784 2685.41 264.874 2693.65 264.874 2703.94V2724.54C264.874 2735.35 261.784 2743.59 256.121 2749.25C250.457 2754.4 242.734 2757.49 232.437 2757.49ZM232.437 2743.59C238.1 2743.59 242.734 2742.04 245.309 2738.95C247.883 2735.86 249.427 2731.23 249.427 2725.05V2702.91C249.427 2696.74 247.883 2692.1 244.794 2689.01C241.704 2685.92 237.585 2684.38 232.437 2684.38C226.773 2684.38 222.654 2685.92 219.565 2689.01C216.476 2692.1 214.931 2696.74 214.931 2702.4V2724.54C214.931 2730.72 216.476 2735.35 219.05 2738.44C222.654 2742.04 226.773 2743.59 232.437 2743.59Z" fill="#F9893D" fill-opacity="0.5"/>
<path opacity="0.78" d="M236.558 2876.93V2805.37H234.499L223.172 2831.62H207.211L224.202 2794.04H251.49V2876.93H236.558Z" fill="#F9893D" fill-opacity="0.5"/>
<path opacity="0.78" d="M232.437 2999.98C222.654 2999.98 214.931 2997.4 208.753 2991.74C203.089 2986.59 200 2978.36 200 2967.03V2946.43C200 2935.62 203.089 2927.9 208.753 2922.24C214.416 2916.57 222.654 2914 232.437 2914C242.219 2914 249.942 2916.57 256.121 2922.24C261.784 2927.9 264.874 2936.14 264.874 2946.43V2967.03C264.874 2977.84 261.784 2986.08 256.121 2991.74C250.457 2997.4 242.734 2999.98 232.437 2999.98ZM232.437 2986.59C238.1 2986.59 242.734 2985.05 245.309 2981.96C247.883 2978.87 249.427 2974.24 249.427 2968.06V2945.92C249.427 2939.74 247.883 2935.11 244.794 2932.02C241.704 2928.93 237.585 2927.39 232.437 2927.39C226.773 2927.39 222.654 2928.93 219.565 2932.02C216.476 2935.11 214.931 2939.74 214.931 2945.41V2967.54C214.931 2973.72 216.476 2978.36 219.05 2981.44C222.654 2985.05 226.773 2986.59 232.437 2986.59Z" fill="#F9893D" fill-opacity="0.5"/>
</g>
</g>
</g>
<defs>
<clipPath id="clip0_169_6734">
<rect width="1920" height="3017" fill="white"/>
</clipPath>
<clipPath id="clip1_169_6734">
<rect width="1920" height="3018" fill="white" transform="translate(0 1)"/>
</clipPath>
</defs>
</svg>
