<svg width="1440" height="2927" viewBox="0 0 1440 2927" fill="none" xmlns="http://www.w3.org/2000/svg">
<rect width="1440" height="2927" fill="#1A1A1A"/>
<g clip-path="url(#clip0_169_6199)">
<g opacity="0.18">
<path d="M350.039 84.4051V12.3266H347.98L336.652 38.5838H320.691L337.682 1H364.97V84.4051H350.039Z" fill="#F9893D" fill-opacity="0.5"/>
<path d="M346.437 210.026C336.654 210.026 328.931 207.452 322.753 201.789C316.574 196.125 314 188.403 314 177.076V156.482C314 145.67 317.089 137.948 322.753 132.284C328.416 126.621 336.654 124.047 346.437 124.047C356.219 124.047 363.942 126.621 370.121 132.284C375.784 137.948 378.874 146.185 378.874 156.482V177.076C378.874 187.888 375.784 196.125 370.121 201.789C363.942 207.452 356.219 210.026 346.437 210.026ZM346.437 196.64C352.1 196.64 356.734 195.096 359.309 192.007C361.883 188.917 363.428 184.284 363.428 178.106V155.967C363.428 149.789 361.883 145.156 358.794 142.066C355.704 138.977 351.586 137.433 346.437 137.433C340.773 137.433 336.654 138.977 333.565 142.066C330.476 145.156 328.931 149.789 328.931 155.452V177.591C328.931 183.769 330.476 188.403 333.05 191.492C336.139 195.096 340.773 196.64 346.437 196.64Z" fill="#F9893D" fill-opacity="0.5"/>
<path d="M350.039 333.077V260.998H347.98L336.652 287.256H320.691L337.682 249.672H364.97V332.562H350.039V333.077Z" fill="#F9893D" fill-opacity="0.5"/>
<path d="M350.039 457.152V385.588H347.98L336.652 411.845H320.691L337.682 374.262H364.97V457.152H350.039Z" fill="#F9893D" fill-opacity="0.5"/>
<path d="M350.039 581.746V509.667H347.98L336.652 535.924H320.691L338.197 498.855H365.485V581.746H350.039Z" fill="#F9893D" fill-opacity="0.5"/>
<path d="M346.437 707.37C336.654 707.37 328.931 704.796 322.753 699.132C316.574 693.469 314 685.746 314 674.42V653.826C314 643.014 317.089 635.291 322.753 629.628C328.416 623.965 336.654 621.391 346.437 621.391C356.219 621.391 363.942 623.965 370.121 629.628C375.784 635.291 378.874 643.529 378.874 653.826V674.42C378.874 685.232 375.784 693.469 370.121 699.132C363.942 704.796 356.219 707.37 346.437 707.37ZM346.437 693.984C352.1 693.984 356.734 692.439 359.309 689.35C361.883 686.261 363.428 681.628 363.428 675.449V653.311C363.428 647.133 361.883 642.499 358.794 639.41C355.704 636.321 351.586 634.777 346.437 634.777C340.773 634.777 336.654 636.321 333.565 639.41C330.476 642.499 328.931 647.133 328.931 652.796V674.935C328.931 681.113 330.476 685.746 333.05 688.835C336.139 692.439 340.773 693.984 346.437 693.984Z" fill="#F9893D" fill-opacity="0.5"/>
<path d="M346.437 831.964C336.654 831.964 328.931 829.389 322.753 823.726C316.574 818.063 314 810.34 314 799.014V778.42C314 767.608 317.089 759.885 322.753 754.222C328.416 748.559 336.654 745.984 346.437 745.984C356.219 745.984 363.942 748.559 370.121 754.222C375.784 759.885 378.874 768.123 378.874 778.42V799.014C378.874 809.825 375.784 818.063 370.121 823.726C363.942 829.389 356.219 831.964 346.437 831.964ZM346.437 818.578C352.1 818.578 356.734 817.033 359.309 813.944C361.883 810.855 363.428 806.221 363.428 800.043V777.905C363.428 771.727 361.883 767.093 358.794 764.004C355.704 760.915 351.586 759.37 346.437 759.37C340.773 759.37 336.654 760.915 333.565 764.004C330.476 767.093 328.931 771.727 328.931 777.39V799.528C328.931 805.706 330.476 810.34 333.05 813.429C336.139 817.033 340.773 818.578 346.437 818.578Z" fill="#F9893D" fill-opacity="0.5"/>
<path d="M350.039 954.496V882.932H347.98L336.652 909.189H320.691L337.682 871.605H364.97V954.496H350.039Z" fill="#F9893D" fill-opacity="0.5"/>
<path d="M346.437 1080.63C336.654 1080.63 328.931 1078.06 322.753 1072.39C316.574 1066.73 314 1059.01 314 1047.68V1027.09C314 1016.28 317.089 1008.55 322.753 1002.89C328.416 997.227 336.654 994.652 346.437 994.652C356.219 994.652 363.942 997.227 370.121 1002.89C375.784 1008.55 378.874 1016.79 378.874 1027.09V1047.68C378.874 1058.49 375.784 1066.73 370.121 1072.39C363.942 1078.06 356.219 1080.63 346.437 1080.63ZM346.437 1067.25C352.1 1067.25 356.734 1065.7 359.309 1062.61C361.883 1059.52 363.428 1054.89 363.428 1048.71V1026.57C363.428 1020.39 361.883 1015.76 358.794 1012.67C355.704 1009.58 351.586 1008.04 346.437 1008.04C340.773 1008.04 336.654 1009.58 333.565 1012.67C330.476 1015.76 328.931 1020.39 328.931 1026.06V1048.2C328.931 1054.37 330.476 1059.01 333.05 1062.1C336.139 1065.7 340.773 1067.25 346.437 1067.25Z" fill="#F9893D" fill-opacity="0.5"/>
<path opacity="0.78" d="M350.039 1203.16V1131.6H347.98L336.652 1157.86H320.691L337.682 1120.27H364.97V1203.16H350.039Z" fill="#F9893D" fill-opacity="0.5"/>
<path opacity="0.78" d="M346.437 1329.3C336.654 1329.3 328.931 1326.73 322.753 1321.07C316.574 1315.4 314 1307.68 314 1296.35V1275.76C314 1264.95 317.089 1257.23 322.753 1251.56C328.416 1245.9 336.654 1243.32 346.437 1243.32C356.219 1243.32 363.942 1245.9 370.121 1251.56C375.784 1257.23 378.874 1265.46 378.874 1275.76V1296.35C378.874 1307.17 375.784 1315.4 370.121 1321.07C363.942 1326.73 356.219 1329.3 346.437 1329.3ZM346.437 1315.92C352.1 1315.92 356.734 1314.37 359.309 1311.28C361.883 1308.19 363.428 1303.56 363.428 1297.38V1275.24C363.428 1269.07 361.883 1264.43 358.794 1261.34C355.704 1258.25 351.586 1256.71 346.437 1256.71C340.773 1256.71 336.654 1258.25 333.565 1261.34C330.476 1264.43 328.931 1269.07 328.931 1274.73V1296.87C328.931 1303.05 330.476 1307.68 333.05 1310.77C336.139 1314.37 340.773 1315.92 346.437 1315.92Z" fill="#F9893D" fill-opacity="0.5"/>
<path opacity="0.78" d="M346.437 1453.38C336.654 1453.38 328.931 1450.81 322.753 1445.14C316.574 1439.48 314 1431.76 314 1420.43V1399.84C314 1389.03 317.089 1381.3 322.753 1375.64C328.416 1369.98 336.654 1367.4 346.437 1367.4C356.219 1367.4 363.942 1369.98 370.121 1375.64C375.784 1381.3 378.874 1389.54 378.874 1399.84V1420.43C378.874 1431.24 375.784 1439.48 370.121 1445.14C363.942 1450.81 356.219 1453.38 346.437 1453.38ZM346.437 1440C352.1 1440 356.734 1438.45 359.309 1435.36C361.883 1432.27 363.428 1427.64 363.428 1421.46V1399.32C363.428 1393.14 361.883 1388.51 358.794 1385.42C355.704 1382.33 351.586 1380.79 346.437 1380.79C340.773 1380.79 336.654 1382.33 333.565 1385.42C330.476 1388.51 328.931 1393.14 328.931 1398.81V1420.95C328.931 1427.12 330.476 1431.76 333.05 1434.85C336.139 1438.45 340.773 1440 346.437 1440Z" fill="#F9893D" fill-opacity="0.5"/>
<path d="M350.039 1576.43V1504.87H347.98L336.652 1531.12H320.691L337.682 1493.54H364.97V1576.43H350.039Z" fill="#F9893D" fill-opacity="0.5"/>
<path d="M346.437 1702.05C336.654 1702.05 328.931 1699.48 322.753 1693.82C316.574 1688.15 314 1680.43 314 1669.1V1648.51C314 1637.7 317.089 1629.98 322.753 1624.31C328.416 1618.65 336.654 1616.07 346.437 1616.07C356.219 1616.07 363.942 1618.65 370.121 1624.31C375.784 1629.98 378.874 1638.21 378.874 1648.51V1669.1C378.874 1679.92 375.784 1688.15 370.121 1693.82C363.942 1699.48 356.219 1702.05 346.437 1702.05ZM346.437 1688.67C352.1 1688.67 356.734 1687.12 359.309 1684.03C361.883 1680.94 363.428 1676.31 363.428 1670.13V1647.99C363.428 1641.82 361.883 1637.18 358.794 1634.09C355.704 1631 351.586 1629.46 346.437 1629.46C340.773 1629.46 336.654 1631 333.565 1634.09C330.476 1637.18 328.931 1641.82 328.931 1647.48V1669.62C328.931 1675.8 330.476 1680.43 333.05 1683.52C336.139 1687.12 340.773 1688.67 346.437 1688.67Z" fill="#F9893D" fill-opacity="0.5"/>
<path d="M350.039 1825.1V1753.54H347.98L336.652 1779.79H320.691L337.682 1742.21H364.97V1825.1H350.039Z" fill="#F9893D" fill-opacity="0.5"/>
<path d="M346.437 1950.72C336.654 1950.72 328.931 1948.15 322.753 1942.48C316.574 1936.82 314 1929.1 314 1917.77V1897.18C314 1886.37 317.089 1878.64 322.753 1872.98C328.416 1867.32 336.654 1864.74 346.437 1864.74C356.219 1864.74 363.942 1867.32 370.121 1872.98C375.784 1878.64 378.874 1886.88 378.874 1897.18V1917.77C378.874 1928.58 375.784 1936.82 370.121 1942.48C363.942 1948.15 356.219 1950.72 346.437 1950.72ZM346.437 1937.34C352.1 1937.34 356.734 1935.79 359.309 1932.7C361.883 1929.61 363.428 1924.98 363.428 1918.8V1896.66C363.428 1890.48 361.883 1885.85 358.794 1882.76C355.704 1879.67 351.586 1878.13 346.437 1878.13C340.773 1878.13 336.654 1879.67 333.565 1882.76C330.476 1885.85 328.931 1890.48 328.931 1896.15V1918.29C328.931 1924.46 330.476 1929.1 333.05 1932.19C336.139 1935.79 340.773 1937.34 346.437 1937.34Z" fill="#F9893D" fill-opacity="0.5"/>
<path d="M350.039 2073.77V2002.21H347.98L336.652 2028.47H320.691L337.682 1990.88H364.97V2073.77H350.039Z" fill="#F9893D" fill-opacity="0.5"/>
<path d="M346.437 2199.39C336.654 2199.39 328.931 2196.82 322.753 2191.16C316.574 2185.49 314 2177.77 314 2166.44V2145.85C314 2135.04 317.089 2127.31 322.753 2121.65C328.416 2115.99 336.654 2113.41 346.437 2113.41C356.219 2113.41 363.942 2115.99 370.121 2121.65C375.784 2127.31 378.874 2135.55 378.874 2145.85V2166.44C378.874 2177.25 375.784 2185.49 370.121 2191.16C363.942 2196.82 356.219 2199.39 346.437 2199.39ZM346.437 2186.01C352.1 2186.01 356.734 2184.46 359.309 2181.37C361.883 2178.28 363.428 2173.65 363.428 2167.47V2145.33C363.428 2139.16 361.883 2134.52 358.794 2131.43C355.704 2128.34 351.586 2126.8 346.437 2126.8C340.773 2126.8 336.654 2128.34 333.565 2131.43C330.476 2134.52 328.931 2139.16 328.931 2144.82V2166.96C328.931 2173.14 330.476 2177.77 333.05 2180.86C336.139 2184.46 340.773 2186.01 346.437 2186.01Z" fill="#F9893D" fill-opacity="0.5"/>
<path d="M350.039 2322.44V2250.88H347.98L336.652 2277.13H320.691L337.682 2239.55H364.97V2322.44H350.039Z" fill="#F9893D" fill-opacity="0.5"/>
</g>
<g opacity="0.18">
<path d="M1266.38 165.048V106.241H1264.7L1255.46 127.664H1242.43L1256.3 97H1278.56V165.048H1266.38Z" fill="#F9893D" fill-opacity="0.5"/>
<path d="M1263.44 267.539C1255.46 267.539 1249.15 265.439 1244.11 260.818C1239.07 256.197 1236.97 249.897 1236.97 240.656V223.854C1236.97 215.033 1239.49 208.732 1244.11 204.111C1248.73 199.491 1255.46 197.391 1263.44 197.391C1271.42 197.391 1277.72 199.491 1282.76 204.111C1287.38 208.732 1289.9 215.453 1289.9 223.854V240.656C1289.9 249.477 1287.38 256.197 1282.76 260.818C1277.72 265.439 1271.42 267.539 1263.44 267.539ZM1263.44 256.617C1268.06 256.617 1271.84 255.357 1273.94 252.837C1276.04 250.317 1277.3 246.536 1277.3 241.496V223.434C1277.3 218.393 1276.04 214.613 1273.52 212.092C1271 209.572 1267.64 208.312 1263.44 208.312C1258.82 208.312 1255.46 209.572 1252.94 212.092C1250.41 214.613 1249.15 218.393 1249.15 223.014V241.076C1249.15 246.116 1250.41 249.897 1252.52 252.417C1255.04 255.357 1258.82 256.617 1263.44 256.617Z" fill="#F9893D" fill-opacity="0.5"/>
<path d="M1266.38 367.931V309.124H1264.7L1255.46 330.546H1242.43L1256.3 299.883H1278.56V367.511H1266.38V367.931Z" fill="#F9893D" fill-opacity="0.5"/>
<path d="M1266.38 469.163V410.776H1264.7L1255.46 432.199H1242.43L1256.3 401.535H1278.56V469.163H1266.38Z" fill="#F9893D" fill-opacity="0.5"/>
<path d="M1266.38 570.815V512.009H1264.7L1255.46 533.431H1242.43L1256.72 503.188H1278.98V570.815H1266.38Z" fill="#F9893D" fill-opacity="0.5"/>
<path d="M1263.44 673.304C1255.46 673.304 1249.15 671.204 1244.11 666.584C1239.07 661.963 1236.97 655.662 1236.97 646.421V629.619C1236.97 620.798 1239.49 614.498 1244.11 609.877C1248.73 605.256 1255.46 603.156 1263.44 603.156C1271.42 603.156 1277.72 605.256 1282.76 609.877C1287.38 614.498 1289.9 621.218 1289.9 629.619V646.421C1289.9 655.242 1287.38 661.963 1282.76 666.584C1277.72 671.204 1271.42 673.304 1263.44 673.304ZM1263.44 662.383C1268.06 662.383 1271.84 661.123 1273.94 658.603C1276.04 656.082 1277.3 652.302 1277.3 647.261V629.199C1277.3 624.159 1276.04 620.378 1273.52 617.858C1271 615.338 1267.64 614.078 1263.44 614.078C1258.82 614.078 1255.46 615.338 1252.94 617.858C1250.41 620.378 1249.15 624.159 1249.15 628.779V646.841C1249.15 651.882 1250.41 655.662 1252.52 658.183C1255.04 661.123 1258.82 662.383 1263.44 662.383Z" fill="#F9893D" fill-opacity="0.5"/>
<path d="M1263.44 774.961C1255.46 774.961 1249.15 772.86 1244.11 768.24C1239.07 763.619 1236.97 757.319 1236.97 748.078V731.276C1236.97 722.455 1239.49 716.154 1244.11 711.533C1248.73 706.913 1255.46 704.812 1263.44 704.812C1271.42 704.812 1277.72 706.913 1282.76 711.533C1287.38 716.154 1289.9 722.875 1289.9 731.276V748.078C1289.9 756.899 1287.38 763.619 1282.76 768.24C1277.72 772.86 1271.42 774.961 1263.44 774.961ZM1263.44 764.039C1268.06 764.039 1271.84 762.779 1273.94 760.259C1276.04 757.739 1277.3 753.958 1277.3 748.918V730.856C1277.3 725.815 1276.04 722.034 1273.52 719.514C1271 716.994 1267.64 715.734 1263.44 715.734C1258.82 715.734 1255.46 716.994 1252.94 719.514C1250.41 722.034 1249.15 725.815 1249.15 730.435V748.498C1249.15 753.538 1250.41 757.319 1252.52 759.839C1255.04 762.779 1258.82 764.039 1263.44 764.039Z" fill="#F9893D" fill-opacity="0.5"/>
<path d="M1266.38 874.933V816.546H1264.7L1255.46 837.968H1242.43L1256.3 807.305H1278.56V874.933H1266.38Z" fill="#F9893D" fill-opacity="0.5"/>
<path d="M1263.44 977.843C1255.46 977.843 1249.15 975.743 1244.11 971.123C1239.07 966.502 1236.97 960.201 1236.97 950.96V934.158C1236.97 925.337 1239.49 919.037 1244.11 914.416C1248.73 909.796 1255.46 907.695 1263.44 907.695C1271.42 907.695 1277.72 909.796 1282.76 914.416C1287.38 919.037 1289.9 925.757 1289.9 934.158V950.96C1289.9 959.781 1287.38 966.502 1282.76 971.123C1277.72 975.743 1271.42 977.843 1263.44 977.843ZM1263.44 966.922C1268.06 966.922 1271.84 965.662 1273.94 963.142C1276.04 960.621 1277.3 956.841 1277.3 951.8V933.738C1277.3 928.698 1276.04 924.917 1273.52 922.397C1271 919.877 1267.64 918.617 1263.44 918.617C1258.82 918.617 1255.46 919.877 1252.94 922.397C1250.41 924.917 1249.15 928.698 1249.15 933.318V951.38C1249.15 956.421 1250.41 960.201 1252.52 962.722C1255.04 965.662 1258.82 966.922 1263.44 966.922Z" fill="#F9893D" fill-opacity="0.5"/>
<path opacity="0.78" d="M1266.38 1077.82V1019.43H1264.7L1255.46 1040.85H1242.43L1256.3 1010.19H1278.56V1077.82H1266.38Z" fill="#F9893D" fill-opacity="0.5"/>
<path opacity="0.78" d="M1263.44 1180.73C1255.46 1180.73 1249.15 1178.63 1244.11 1174.01C1239.07 1169.38 1236.97 1163.08 1236.97 1153.84V1137.04C1236.97 1128.22 1239.49 1121.92 1244.11 1117.3C1248.73 1112.68 1255.46 1110.58 1263.44 1110.58C1271.42 1110.58 1277.72 1112.68 1282.76 1117.3C1287.38 1121.92 1289.9 1128.64 1289.9 1137.04V1153.84C1289.9 1162.66 1287.38 1169.38 1282.76 1174.01C1277.72 1178.63 1271.42 1180.73 1263.44 1180.73ZM1263.44 1169.8C1268.06 1169.8 1271.84 1168.54 1273.94 1166.02C1276.04 1163.5 1277.3 1159.72 1277.3 1154.68V1136.62C1277.3 1131.58 1276.04 1127.8 1273.52 1125.28C1271 1122.76 1267.64 1121.5 1263.44 1121.5C1258.82 1121.5 1255.46 1122.76 1252.94 1125.28C1250.41 1127.8 1249.15 1131.58 1249.15 1136.2V1154.26C1249.15 1159.3 1250.41 1163.08 1252.52 1165.6C1255.04 1168.54 1258.82 1169.8 1263.44 1169.8Z" fill="#F9893D" fill-opacity="0.5"/>
<path opacity="0.78" d="M1263.44 1281.96C1255.46 1281.96 1249.15 1279.86 1244.11 1275.24C1239.07 1270.62 1236.97 1264.31 1236.97 1255.07V1238.27C1236.97 1229.45 1239.49 1223.15 1244.11 1218.53C1248.73 1213.91 1255.46 1211.81 1263.44 1211.81C1271.42 1211.81 1277.72 1213.91 1282.76 1218.53C1287.38 1223.15 1289.9 1229.87 1289.9 1238.27V1255.07C1289.9 1263.89 1287.38 1270.62 1282.76 1275.24C1277.72 1279.86 1271.42 1281.96 1263.44 1281.96ZM1263.44 1271.04C1268.06 1271.04 1271.84 1269.78 1273.94 1267.26C1276.04 1264.73 1277.3 1260.95 1277.3 1255.91V1237.85C1277.3 1232.81 1276.04 1229.03 1273.52 1226.51C1271 1223.99 1267.64 1222.73 1263.44 1222.73C1258.82 1222.73 1255.46 1223.99 1252.94 1226.51C1250.41 1229.03 1249.15 1232.81 1249.15 1237.43V1255.49C1249.15 1260.53 1250.41 1264.31 1252.52 1266.83C1255.04 1269.78 1258.82 1271.04 1263.44 1271.04Z" fill="#F9893D" fill-opacity="0.5"/>
<path d="M1266.38 1382.35V1323.96H1264.7L1255.46 1345.38H1242.43L1256.3 1314.72H1278.56V1382.35H1266.38Z" fill="#F9893D" fill-opacity="0.5"/>
<path d="M1263.44 1484.84C1255.46 1484.84 1249.15 1482.74 1244.11 1478.12C1239.07 1473.5 1236.97 1467.2 1236.97 1457.96V1441.15C1236.97 1432.33 1239.49 1426.03 1244.11 1421.41C1248.73 1416.79 1255.46 1414.69 1263.44 1414.69C1271.42 1414.69 1277.72 1416.79 1282.76 1421.41C1287.38 1426.03 1289.9 1432.75 1289.9 1441.15V1457.96C1289.9 1466.78 1287.38 1473.5 1282.76 1478.12C1277.72 1482.74 1271.42 1484.84 1263.44 1484.84ZM1263.44 1473.92C1268.06 1473.92 1271.84 1472.66 1273.94 1470.14C1276.04 1467.62 1277.3 1463.84 1277.3 1458.8V1440.73C1277.3 1435.69 1276.04 1431.91 1273.52 1429.39C1271 1426.87 1267.64 1425.61 1263.44 1425.61C1258.82 1425.61 1255.46 1426.87 1252.94 1429.39C1250.41 1431.91 1249.15 1435.69 1249.15 1440.31V1458.38C1249.15 1463.42 1250.41 1467.2 1252.52 1469.72C1255.04 1472.66 1258.82 1473.92 1263.44 1473.92Z" fill="#F9893D" fill-opacity="0.5"/>
<path d="M1266.38 1585.23V1526.85H1264.7L1255.46 1548.27H1242.43L1256.3 1517.61H1278.56V1585.23H1266.38Z" fill="#F9893D" fill-opacity="0.5"/>
<path d="M1263.44 1687.73C1255.46 1687.73 1249.15 1685.63 1244.11 1681.01C1239.07 1676.38 1236.97 1670.08 1236.97 1660.84V1644.04C1236.97 1635.22 1239.49 1628.92 1244.11 1624.3C1248.73 1619.68 1255.46 1617.58 1263.44 1617.58C1271.42 1617.58 1277.72 1619.68 1282.76 1624.3C1287.38 1628.92 1289.9 1635.64 1289.9 1644.04V1660.84C1289.9 1669.66 1287.38 1676.38 1282.76 1681.01C1277.72 1685.63 1271.42 1687.73 1263.44 1687.73ZM1263.44 1676.81C1268.06 1676.81 1271.84 1675.54 1273.94 1673.02C1276.04 1670.5 1277.3 1666.72 1277.3 1661.68V1643.62C1277.3 1638.58 1276.04 1634.8 1273.52 1632.28C1271 1629.76 1267.64 1628.5 1263.44 1628.5C1258.82 1628.5 1255.46 1629.76 1252.94 1632.28C1250.41 1634.8 1249.15 1638.58 1249.15 1643.2V1661.26C1249.15 1666.3 1250.41 1670.08 1252.52 1672.6C1255.04 1675.54 1258.82 1676.81 1263.44 1676.81Z" fill="#F9893D" fill-opacity="0.5"/>
<path d="M1266.38 1788.12V1729.73H1264.7L1255.46 1751.15H1242.43L1256.3 1720.49H1278.56V1788.12H1266.38Z" fill="#F9893D" fill-opacity="0.5"/>
<path d="M1263.44 1890.61C1255.46 1890.61 1249.15 1888.51 1244.11 1883.89C1239.07 1879.27 1236.97 1872.97 1236.97 1863.73V1846.92C1236.97 1838.1 1239.49 1831.8 1244.11 1827.18C1248.73 1822.56 1255.46 1820.46 1263.44 1820.46C1271.42 1820.46 1277.72 1822.56 1282.76 1827.18C1287.38 1831.8 1289.9 1838.52 1289.9 1846.92V1863.73C1289.9 1872.55 1287.38 1879.27 1282.76 1883.89C1277.72 1888.51 1271.42 1890.61 1263.44 1890.61ZM1263.44 1879.69C1268.06 1879.69 1271.84 1878.43 1273.94 1875.91C1276.04 1873.39 1277.3 1869.61 1277.3 1864.57V1846.5C1277.3 1841.46 1276.04 1837.68 1273.52 1835.16C1271 1832.64 1267.64 1831.38 1263.44 1831.38C1258.82 1831.38 1255.46 1832.64 1252.94 1835.16C1250.41 1837.68 1249.15 1841.46 1249.15 1846.08V1864.15C1249.15 1869.19 1250.41 1872.97 1252.52 1875.49C1255.04 1878.43 1258.82 1879.69 1263.44 1879.69Z" fill="#F9893D" fill-opacity="0.5"/>
<path d="M1266.38 1991V1932.61H1264.7L1255.46 1954.03H1242.43L1256.3 1923.37H1278.56V1991H1266.38Z" fill="#F9893D" fill-opacity="0.5"/>
</g>
<g opacity="0.18">
<path d="M1257.34 2551.5C1247.55 2551.5 1239.83 2548.92 1233.65 2543.26C1227.99 2538.11 1224.9 2529.88 1224.9 2518.55V2497.95C1224.9 2487.14 1227.99 2479.42 1233.65 2473.76C1239.31 2468.09 1247.55 2465.52 1257.34 2465.52C1267.12 2465.52 1274.84 2468.09 1281.02 2473.76C1286.68 2479.42 1289.77 2487.66 1289.77 2497.95V2518.55C1289.77 2529.36 1286.68 2537.6 1281.02 2543.26C1275.36 2548.92 1267.63 2551.5 1257.34 2551.5ZM1257.34 2538.11C1263 2538.11 1267.63 2536.57 1270.21 2533.48C1272.78 2530.39 1274.33 2525.76 1274.33 2519.58V2497.44C1274.33 2491.26 1272.78 2486.63 1269.69 2483.54C1266.6 2480.45 1262.48 2478.91 1257.34 2478.91C1251.67 2478.91 1247.55 2480.45 1244.46 2483.54C1241.37 2486.63 1239.83 2491.26 1239.83 2496.93V2519.06C1239.83 2525.24 1241.37 2529.88 1243.95 2532.96C1247.55 2536.57 1251.67 2538.11 1257.34 2538.11Z" fill="#F9893D" fill-opacity="0.5"/>
<path d="M1261.46 2671.46V2599.9H1259.4L1248.07 2626.15H1232.11L1249.1 2588.57H1276.39V2671.46H1261.46Z" fill="#F9893D" fill-opacity="0.5"/>
<path d="M1257.34 2794.51C1247.55 2794.51 1239.83 2791.93 1233.65 2786.27C1227.99 2780.61 1224.9 2772.88 1224.9 2761.56V2740.96C1224.9 2730.15 1227.99 2722.43 1233.65 2716.77C1239.31 2711.1 1247.55 2708.53 1257.34 2708.53C1267.12 2708.53 1274.84 2711.1 1281.02 2716.77C1286.68 2722.43 1289.77 2730.67 1289.77 2740.96V2761.56C1289.77 2772.37 1286.68 2780.61 1281.02 2786.27C1275.36 2791.42 1267.63 2794.51 1257.34 2794.51ZM1257.34 2780.61C1263 2780.61 1267.63 2779.06 1270.21 2775.97C1272.78 2772.88 1274.33 2768.25 1274.33 2762.07V2739.93C1274.33 2733.75 1272.78 2729.12 1269.69 2726.03C1266.6 2722.94 1262.48 2721.4 1257.34 2721.4C1251.67 2721.4 1247.55 2722.94 1244.46 2726.03C1241.37 2729.12 1239.83 2733.75 1239.83 2739.42V2761.56C1239.83 2767.73 1241.37 2772.37 1243.95 2775.46C1247.55 2779.06 1251.67 2780.61 1257.34 2780.61Z" fill="#F9893D" fill-opacity="0.5"/>
<path d="M1261.46 2913.95V2842.39H1259.4L1248.07 2868.65H1232.11L1249.1 2831.06H1276.39V2913.95H1261.46Z" fill="#F9893D" fill-opacity="0.5"/>
</g>
<g opacity="0.18">
<path d="M1092.46 2803.77C1082.68 2803.77 1074.95 2801.2 1068.78 2795.53C1062.6 2789.87 1060.02 2782.15 1060.02 2770.82V2750.23C1060.02 2739.42 1063.11 2731.69 1068.78 2726.03C1074.44 2720.37 1082.68 2717.79 1092.46 2717.79C1102.24 2717.79 1109.97 2720.37 1116.14 2726.03C1121.81 2731.69 1124.9 2739.93 1124.9 2750.23V2770.82C1124.9 2781.63 1121.81 2789.87 1116.14 2795.53C1109.97 2801.2 1102.24 2803.77 1092.46 2803.77ZM1092.46 2790.39C1098.12 2790.39 1102.76 2788.84 1105.33 2785.75C1107.91 2782.66 1109.45 2778.03 1109.45 2771.85V2749.71C1109.45 2743.54 1107.91 2738.9 1104.82 2735.81C1101.73 2732.72 1097.61 2731.18 1092.46 2731.18C1086.8 2731.18 1082.68 2732.72 1079.59 2735.81C1076.5 2738.9 1074.95 2743.54 1074.95 2749.2V2771.34C1074.95 2777.52 1076.5 2782.15 1079.07 2785.24C1082.16 2788.84 1086.28 2790.39 1092.46 2790.39Z" fill="#F9893D" fill-opacity="0.5"/>
<path d="M1096.07 2926.82V2855.26H1094.01L1082.68 2881.51H1066.72L1083.71 2843.93H1111V2926.82H1096.07Z" fill="#F9893D" fill-opacity="0.5"/>
</g>
<g opacity="0.18">
<path d="M182.437 86.9792C172.654 86.9792 164.931 84.4051 158.753 78.7418C153.089 73.5933 150 65.3557 150 54.0291V33.4352C150 22.6235 153.089 14.9009 158.753 9.23757C164.416 3.57426 172.654 1 182.437 1C192.219 1 199.942 3.57426 206.121 9.23757C211.784 14.9009 214.874 23.1383 214.874 33.4352V54.0291C214.874 64.8409 211.784 73.0785 206.121 78.7418C200.457 84.4051 192.734 86.9792 182.437 86.9792ZM182.437 73.5933C188.1 73.5933 192.734 72.0487 195.309 68.9596C197.883 65.8705 199.427 61.237 199.427 55.0588V32.9204C199.427 26.7422 197.883 22.1087 194.794 19.0196C191.704 15.9305 187.585 14.386 182.437 14.386C176.773 14.386 172.654 15.9305 169.565 19.0196C166.476 22.1087 164.931 26.7423 164.931 32.4056V54.544C164.931 60.7221 166.476 65.3558 169.05 68.4449C172.654 72.0488 176.773 73.5933 182.437 73.5933Z" fill="#F9893D" fill-opacity="0.5"/>
<path d="M186.558 206.937V135.374H184.499L173.172 161.631H157.211L174.202 124.047H201.49V206.937H186.558Z" fill="#F9893D" fill-opacity="0.5"/>
<path d="M182.437 329.987C172.654 329.987 164.931 327.413 158.753 321.75C153.089 316.086 150 308.364 150 297.037V276.443C150 265.631 153.089 257.909 158.753 252.246C164.416 246.582 172.654 244.008 182.437 244.008C192.219 244.008 199.942 246.582 206.121 252.246C211.784 257.909 214.874 266.146 214.874 276.443V297.037C214.874 307.849 211.784 316.086 206.121 321.75C200.457 326.898 192.734 329.987 182.437 329.987ZM182.437 316.086C188.1 316.086 192.734 314.542 195.309 311.453C197.883 308.364 199.427 303.73 199.427 297.552V275.414C199.427 269.235 197.883 264.602 194.794 261.513C191.704 258.424 187.585 256.879 182.437 256.879C176.773 256.879 172.654 258.424 169.565 261.513C166.476 264.602 164.931 269.235 164.931 274.899V297.037C164.931 303.215 166.476 307.849 169.05 310.938C172.654 314.542 176.773 316.086 182.437 316.086Z" fill="#F9893D" fill-opacity="0.5"/>
<path d="M186.558 449.429V377.866H184.499L173.172 404.123H157.211L174.202 366.539H201.49V449.429H186.558Z" fill="#F9893D" fill-opacity="0.5"/>
<path d="M182.437 572.479C172.654 572.479 164.931 569.905 158.753 564.242C153.089 559.093 150 550.856 150 539.529V518.935C150 508.123 153.089 500.401 158.753 494.737C164.416 489.074 172.654 486.5 182.437 486.5C192.219 486.5 199.942 489.074 206.121 494.737C211.784 500.401 214.874 508.638 214.874 518.935V539.529C214.874 550.341 211.784 558.578 206.121 564.242C200.457 569.905 192.734 572.479 182.437 572.479ZM182.437 559.093C188.1 559.093 192.734 557.549 195.309 554.459C197.883 551.37 199.427 546.737 199.427 540.559V518.42C199.427 512.242 197.883 507.609 194.794 504.52C191.704 501.431 187.585 499.886 182.437 499.886C176.773 499.886 172.654 501.431 169.565 504.52C166.476 507.609 164.931 512.242 164.931 517.905V540.044C164.931 546.222 166.476 550.856 169.05 553.945C172.654 557.549 176.773 559.093 182.437 559.093Z" fill="#F9893D" fill-opacity="0.5"/>
<path d="M186.558 692.437V620.874H184.499L173.172 647.131H157.211L174.202 609.547H201.49V692.437H186.558Z" fill="#F9893D" fill-opacity="0.5"/>
<path d="M182.437 815.487C172.654 815.487 164.931 812.913 158.753 807.25C153.089 802.101 150 793.864 150 782.537V761.943C150 751.132 153.089 743.409 158.753 737.746C164.416 732.082 172.654 729.508 182.437 729.508C192.219 729.508 199.942 732.082 206.121 737.746C211.784 743.409 214.874 751.646 214.874 761.943V782.537C214.874 793.349 211.784 801.586 206.121 807.25C200.457 812.398 192.734 815.487 182.437 815.487ZM182.437 801.586C188.1 801.586 192.734 800.042 195.309 796.953C197.883 793.864 199.427 789.23 199.427 783.052V760.914C199.427 754.735 197.883 750.102 194.794 747.013C191.704 743.924 187.585 742.379 182.437 742.379C176.773 742.379 172.654 743.924 169.565 747.013C166.476 750.102 164.931 754.735 164.931 760.399V782.537C164.931 788.715 166.476 793.349 169.05 796.438C172.654 800.042 176.773 801.586 182.437 801.586Z" fill="#F9893D" fill-opacity="0.5"/>
<path d="M186.558 934.929V863.365H184.499L173.172 889.623H157.211L174.202 852.039H201.49V934.929H186.558Z" fill="#F9893D" fill-opacity="0.5"/>
<path d="M182.437 1057.98C172.654 1057.98 164.931 1055.4 158.753 1049.74C153.089 1044.08 150 1036.36 150 1025.03V1004.44C150 993.623 153.089 985.901 158.753 980.237C164.416 974.574 172.654 972 182.437 972C192.219 972 199.942 974.574 206.121 980.237C211.784 985.901 214.874 994.138 214.874 1004.44V1025.03C214.874 1035.84 211.784 1044.08 206.121 1049.74C200.457 1055.4 192.734 1057.98 182.437 1057.98ZM182.437 1044.59C188.1 1044.59 192.734 1043.05 195.309 1039.96C197.883 1036.87 199.427 1032.24 199.427 1026.06V1003.92C199.427 997.742 197.883 993.109 194.794 990.02C191.704 986.931 187.585 985.386 182.437 985.386C176.773 985.386 172.654 986.931 169.565 990.02C166.476 993.109 164.931 997.742 164.931 1003.41V1025.54C164.931 1031.72 166.476 1036.36 169.05 1039.44C172.654 1043.05 176.773 1044.59 182.437 1044.59Z" fill="#F9893D" fill-opacity="0.5"/>
<path d="M186.558 1177.94V1106.37H184.499L173.172 1132.63H157.211L174.202 1095.05H201.49V1177.94H186.558Z" fill="#F9893D" fill-opacity="0.5"/>
<path d="M182.437 1300.99C172.654 1300.99 164.931 1298.41 158.753 1292.75C153.089 1287.6 150 1279.36 150 1268.04V1247.44C150 1236.63 153.089 1228.91 158.753 1223.25C164.416 1217.58 172.654 1215.01 182.437 1215.01C192.219 1215.01 199.942 1217.58 206.121 1223.25C211.784 1228.91 214.874 1237.15 214.874 1247.44V1268.04C214.874 1278.85 211.784 1287.09 206.121 1292.75C200.457 1297.9 192.734 1300.99 182.437 1300.99ZM182.437 1287.09C188.1 1287.09 192.734 1285.54 195.309 1282.45C197.883 1279.36 199.427 1274.73 199.427 1268.55V1246.41C199.427 1240.24 197.883 1235.6 194.794 1232.51C191.704 1229.42 187.585 1227.88 182.437 1227.88C176.773 1227.88 172.654 1229.42 169.565 1232.51C166.476 1235.6 164.931 1240.24 164.931 1245.9V1268.04C164.931 1274.22 166.476 1278.85 169.05 1281.94C172.654 1285.54 176.773 1287.09 182.437 1287.09Z" fill="#F9893D" fill-opacity="0.5"/>
<path d="M186.558 1420.43V1348.87H184.499L173.172 1375.12H157.211L174.202 1337.54H201.49V1420.43H186.558Z" fill="#F9893D" fill-opacity="0.5"/>
<path d="M186.558 1541.94V1470.37H184.499L173.172 1496.63H157.211L174.202 1459.05H201.49V1541.94H186.558Z" fill="#F9893D" fill-opacity="0.5"/>
<path d="M186.558 1663.44V1591.36H184.499L173.172 1617.61H157.211L174.202 1580.03H201.49V1663.44H186.558Z" fill="#F9893D" fill-opacity="0.5"/>
<path d="M182.437 1786.49C172.654 1786.49 164.931 1783.91 158.753 1778.25C153.089 1773.1 150 1764.86 150 1753.54V1732.94C150 1722.13 153.089 1714.41 158.753 1708.75C164.416 1703.08 172.654 1700.51 182.437 1700.51C192.219 1700.51 199.942 1703.08 206.121 1708.75C211.784 1714.41 214.874 1722.65 214.874 1732.94V1753.54C214.874 1764.35 211.784 1772.59 206.121 1778.25C200.457 1783.4 192.734 1786.49 182.437 1786.49ZM182.437 1772.59C188.1 1772.59 192.734 1771.04 195.309 1767.95C197.883 1764.86 199.427 1760.23 199.427 1754.05V1731.91C199.427 1725.74 197.883 1721.1 194.794 1718.01C191.704 1714.92 187.585 1713.38 182.437 1713.38C176.773 1713.38 172.654 1714.92 169.565 1718.01C166.476 1721.1 164.931 1725.74 164.931 1731.4V1753.54C164.931 1759.72 166.476 1764.35 169.05 1767.44C172.654 1771.04 176.773 1772.59 182.437 1772.59Z" fill="#F9893D" fill-opacity="0.5"/>
<path d="M182.437 1907.48C172.654 1907.48 164.931 1904.9 158.753 1899.24C153.089 1894.09 150 1885.85 150 1874.53V1853.93C150 1843.12 153.089 1835.4 158.753 1829.73C164.416 1824.07 172.654 1821.5 182.437 1821.5C192.219 1821.5 199.942 1824.07 206.121 1829.73C211.784 1835.4 214.874 1843.63 214.874 1853.93V1874.53C214.874 1885.34 211.784 1893.57 206.121 1899.24C200.457 1904.9 192.734 1907.48 182.437 1907.48ZM182.437 1894.09C188.1 1894.09 192.734 1892.54 195.309 1889.46C197.883 1886.37 199.427 1881.73 199.427 1875.55V1853.42C199.427 1847.24 197.883 1842.6 194.794 1839.52C191.704 1836.43 187.585 1834.88 182.437 1834.88C176.773 1834.88 172.654 1836.43 169.565 1839.52C166.476 1842.6 164.931 1847.24 164.931 1852.9V1875.04C164.931 1881.22 166.476 1885.85 169.05 1888.94C172.654 1892.54 176.773 1894.09 182.437 1894.09Z" fill="#F9893D" fill-opacity="0.5"/>
<path d="M186.558 2027.44V1955.87H184.499L173.172 1982.13H157.211L174.202 1944.55H201.49V2027.44H186.558Z" fill="#F9893D" fill-opacity="0.5"/>
<path d="M182.437 2150.48C172.654 2150.48 164.931 2147.91 158.753 2142.25C153.089 2136.58 150 2128.86 150 2117.53V2096.94C150 2086.13 153.089 2078.4 158.753 2072.74C164.416 2067.08 172.654 2064.5 182.437 2064.5C192.219 2064.5 199.942 2067.08 206.121 2072.74C211.784 2078.4 214.874 2086.64 214.874 2096.94V2117.53C214.874 2128.34 211.784 2136.58 206.121 2142.25C200.457 2147.91 192.734 2150.48 182.437 2150.48ZM182.437 2137.1C188.1 2137.1 192.734 2135.55 195.309 2132.46C197.883 2129.37 199.427 2124.74 199.427 2118.56V2096.42C199.427 2090.25 197.883 2085.61 194.794 2082.52C191.704 2079.43 187.585 2077.89 182.437 2077.89C176.773 2077.89 172.654 2079.43 169.565 2082.52C166.476 2085.61 164.931 2090.25 164.931 2095.91V2118.05C164.931 2124.23 166.476 2128.86 169.05 2131.95C172.654 2135.55 176.773 2137.1 182.437 2137.1Z" fill="#F9893D" fill-opacity="0.5"/>
<path opacity="0.78" d="M186.558 2269.93V2198.36H184.499L173.172 2224.62H157.211L174.202 2187.04H201.49V2269.93H186.558Z" fill="#F9893D" fill-opacity="0.5"/>
<path opacity="0.78" d="M182.437 2392.98C172.654 2392.98 164.931 2390.4 158.753 2384.74C153.089 2379.59 150 2371.35 150 2360.03V2339.43C150 2328.62 153.089 2320.9 158.753 2315.23C164.416 2309.57 172.654 2307 182.437 2307C192.219 2307 199.942 2309.57 206.121 2315.23C211.784 2320.9 214.874 2329.13 214.874 2339.43V2360.03C214.874 2370.84 211.784 2379.07 206.121 2384.74C200.457 2390.4 192.734 2392.98 182.437 2392.98ZM182.437 2379.59C188.1 2379.59 192.734 2378.04 195.309 2374.96C197.883 2371.87 199.427 2367.23 199.427 2361.05V2338.92C199.427 2332.74 197.883 2328.1 194.794 2325.02C191.704 2321.93 187.585 2320.38 182.437 2320.38C176.773 2320.38 172.654 2321.93 169.565 2325.02C166.476 2328.1 164.931 2332.74 164.931 2338.4V2360.54C164.931 2366.72 166.476 2371.35 169.05 2374.44C172.654 2378.04 176.773 2379.59 182.437 2379.59Z" fill="#F9893D" fill-opacity="0.5"/>
<path opacity="0.78" d="M182.437 2514.48C172.654 2514.48 164.931 2511.91 158.753 2506.24C153.089 2501.09 150 2492.86 150 2481.53V2460.94C150 2450.12 153.089 2442.4 158.753 2436.74C164.416 2431.07 172.654 2428.5 182.437 2428.5C192.219 2428.5 199.942 2431.07 206.121 2436.74C211.784 2442.4 214.874 2450.64 214.874 2460.94V2481.53C214.874 2492.34 211.784 2500.58 206.121 2506.24C200.457 2511.91 192.734 2514.48 182.437 2514.48ZM182.437 2501.09C188.1 2501.09 192.734 2499.55 195.309 2496.46C197.883 2493.37 199.427 2488.74 199.427 2482.56V2460.42C199.427 2454.24 197.883 2449.61 194.794 2446.52C191.704 2443.43 187.585 2441.89 182.437 2441.89C176.773 2441.89 172.654 2443.43 169.565 2446.52C166.476 2449.61 164.931 2454.24 164.931 2459.91V2482.04C164.931 2488.22 166.476 2492.86 169.05 2495.95C172.654 2499.55 176.773 2501.09 182.437 2501.09Z" fill="#F9893D" fill-opacity="0.5"/>
<path opacity="0.78" d="M186.558 2634.44V2562.87H184.499L173.172 2589.13H157.211L174.202 2551.55H201.49V2634.44H186.558Z" fill="#F9893D" fill-opacity="0.5"/>
<path opacity="0.78" d="M182.437 2757.49C172.654 2757.49 164.931 2754.91 158.753 2749.25C153.089 2743.59 150 2735.86 150 2724.54V2703.94C150 2693.13 153.089 2685.41 158.753 2679.75C164.416 2674.08 172.654 2671.51 182.437 2671.51C192.219 2671.51 199.942 2674.08 206.121 2679.75C211.784 2685.41 214.874 2693.65 214.874 2703.94V2724.54C214.874 2735.35 211.784 2743.59 206.121 2749.25C200.457 2754.4 192.734 2757.49 182.437 2757.49ZM182.437 2743.59C188.1 2743.59 192.734 2742.04 195.309 2738.95C197.883 2735.86 199.427 2731.23 199.427 2725.05V2702.91C199.427 2696.74 197.883 2692.1 194.794 2689.01C191.704 2685.92 187.585 2684.38 182.437 2684.38C176.773 2684.38 172.654 2685.92 169.565 2689.01C166.476 2692.1 164.931 2696.74 164.931 2702.4V2724.54C164.931 2730.72 166.476 2735.35 169.05 2738.44C172.654 2742.04 176.773 2743.59 182.437 2743.59Z" fill="#F9893D" fill-opacity="0.5"/>
<path opacity="0.78" d="M186.558 2876.93V2805.37H184.499L173.172 2831.62H157.211L174.202 2794.04H201.49V2876.93H186.558Z" fill="#F9893D" fill-opacity="0.5"/>
<path opacity="0.78" d="M182.437 2999.98C172.654 2999.98 164.931 2997.4 158.753 2991.74C153.089 2986.59 150 2978.36 150 2967.03V2946.43C150 2935.62 153.089 2927.9 158.753 2922.24C164.416 2916.57 172.654 2914 182.437 2914C192.219 2914 199.942 2916.57 206.121 2922.24C211.784 2927.9 214.874 2936.14 214.874 2946.43V2967.03C214.874 2977.84 211.784 2986.08 206.121 2991.74C200.457 2997.4 192.734 2999.98 182.437 2999.98ZM182.437 2986.59C188.1 2986.59 192.734 2985.05 195.309 2981.96C197.883 2978.87 199.427 2974.24 199.427 2968.06V2945.92C199.427 2939.74 197.883 2935.11 194.794 2932.02C191.704 2928.93 187.585 2927.39 182.437 2927.39C176.773 2927.39 172.654 2928.93 169.565 2932.02C166.476 2935.11 164.931 2939.74 164.931 2945.41V2967.54C164.931 2973.72 166.476 2978.36 169.05 2981.44C172.654 2985.05 176.773 2986.59 182.437 2986.59Z" fill="#F9893D" fill-opacity="0.5"/>
</g>
</g>
<defs>
<clipPath id="clip0_169_6199">
<rect width="1440" height="2926" fill="white" transform="translate(0 1)"/>
</clipPath>
</defs>
</svg>
