<svg width="678" height="3938" viewBox="0 0 678 3938" fill="none" xmlns="http://www.w3.org/2000/svg">
<g clip-path="url(#clip0_174_6263)">
<rect width="678" height="3938" fill="#1A1A1A"/>
<g clip-path="url(#clip1_174_6263)">
<g opacity="0.18">
<path d="M241.094 83.4051V11.3266H239.032L227.688 37.5838H211.703L228.719 0H256.047V83.4051H241.094Z" fill="#F9893D" fill-opacity="0.5"/>
<path d="M237.485 209.026C227.688 209.026 219.953 206.452 213.766 200.789C207.578 195.125 205 187.403 205 176.076V155.482C205 144.67 208.094 136.948 213.766 131.284C219.438 125.621 227.688 123.047 237.485 123.047C247.282 123.047 255.016 125.621 261.204 131.284C266.876 136.948 269.969 145.185 269.969 155.482V176.076C269.969 186.888 266.876 195.125 261.204 200.789C255.016 206.452 247.282 209.026 237.485 209.026ZM237.485 195.64C243.157 195.64 247.797 194.096 250.376 191.007C252.954 187.917 254.501 183.284 254.501 177.106V154.967C254.501 148.789 252.954 144.156 249.86 141.066C246.766 137.977 242.641 136.433 237.485 136.433C231.813 136.433 227.688 137.977 224.594 141.066C221.5 144.156 219.953 148.789 219.953 154.452V176.591C219.953 182.769 221.5 187.403 224.078 190.492C227.172 194.096 231.813 195.64 237.485 195.64Z" fill="#F9893D" fill-opacity="0.5"/>
<path d="M241.094 332.077V259.998H239.032L227.688 286.256H211.703L228.719 248.672H256.047V331.562H241.094V332.077Z" fill="#F9893D" fill-opacity="0.5"/>
<path d="M241.094 456.156V384.592H239.032L227.688 410.849H211.703L228.719 373.266H256.047V456.156H241.094Z" fill="#F9893D" fill-opacity="0.5"/>
<path d="M241.094 580.746V508.667H239.032L227.688 534.924H211.703L229.235 497.855H256.563V580.746H241.094Z" fill="#F9893D" fill-opacity="0.5"/>
<path d="M237.485 706.37C227.688 706.37 219.953 703.796 213.766 698.132C207.578 692.469 205 684.746 205 673.42V652.826C205 642.014 208.094 634.291 213.766 628.628C219.438 622.965 227.688 620.391 237.485 620.391C247.282 620.391 255.016 622.965 261.204 628.628C266.876 634.291 269.969 642.529 269.969 652.826V673.42C269.969 684.232 266.876 692.469 261.204 698.132C255.016 703.796 247.282 706.37 237.485 706.37ZM237.485 692.984C243.157 692.984 247.797 691.439 250.376 688.35C252.954 685.261 254.501 680.628 254.501 674.449V652.311C254.501 646.133 252.954 641.499 249.86 638.41C246.766 635.321 242.641 633.777 237.485 633.777C231.813 633.777 227.688 635.321 224.594 638.41C221.5 641.499 219.953 646.133 219.953 651.796V673.935C219.953 680.113 221.5 684.746 224.078 687.835C227.172 691.439 231.813 692.984 237.485 692.984Z" fill="#F9893D" fill-opacity="0.5"/>
<path d="M237.485 830.964C227.688 830.964 219.953 828.389 213.766 822.726C207.578 817.063 205 809.34 205 798.014V777.42C205 766.608 208.094 758.885 213.766 753.222C219.438 747.559 227.688 744.984 237.485 744.984C247.282 744.984 255.016 747.559 261.204 753.222C266.876 758.885 269.969 767.123 269.969 777.42V798.014C269.969 808.825 266.876 817.063 261.204 822.726C255.016 828.389 247.282 830.964 237.485 830.964ZM237.485 817.578C243.157 817.578 247.797 816.033 250.376 812.944C252.954 809.855 254.501 805.221 254.501 799.043V776.905C254.501 770.727 252.954 766.093 249.86 763.004C246.766 759.915 242.641 758.37 237.485 758.37C231.813 758.37 227.688 759.915 224.594 763.004C221.5 766.093 219.953 770.727 219.953 776.39V798.528C219.953 804.706 221.5 809.34 224.078 812.429C227.172 816.033 231.813 817.578 237.485 817.578Z" fill="#F9893D" fill-opacity="0.5"/>
<path d="M241.094 953.496V881.932H239.032L227.688 908.189H211.703L228.719 870.605H256.047V953.496H241.094Z" fill="#F9893D" fill-opacity="0.5"/>
<path d="M237.485 1079.63C227.688 1079.63 219.953 1077.06 213.766 1071.39C207.578 1065.73 205 1058.01 205 1046.68V1026.09C205 1015.28 208.094 1007.55 213.766 1001.89C219.438 996.227 227.688 993.652 237.485 993.652C247.282 993.652 255.016 996.227 261.204 1001.89C266.876 1007.55 269.969 1015.79 269.969 1026.09V1046.68C269.969 1057.49 266.876 1065.73 261.204 1071.39C255.016 1077.06 247.282 1079.63 237.485 1079.63ZM237.485 1066.25C243.157 1066.25 247.797 1064.7 250.376 1061.61C252.954 1058.52 254.501 1053.89 254.501 1047.71V1025.57C254.501 1019.39 252.954 1014.76 249.86 1011.67C246.766 1008.58 242.641 1007.04 237.485 1007.04C231.813 1007.04 227.688 1008.58 224.594 1011.67C221.5 1014.76 219.953 1019.39 219.953 1025.06V1047.2C219.953 1053.37 221.5 1058.01 224.078 1061.1C227.172 1064.7 231.813 1066.25 237.485 1066.25Z" fill="#F9893D" fill-opacity="0.5"/>
<path opacity="0.78" d="M241.094 1202.16V1130.6H239.032L227.688 1156.86H211.703L228.719 1119.27H256.047V1202.16H241.094Z" fill="#F9893D" fill-opacity="0.5"/>
<path opacity="0.78" d="M237.485 1328.3C227.688 1328.3 219.953 1325.73 213.766 1320.07C207.578 1314.4 205 1306.68 205 1295.35V1274.76C205 1263.95 208.094 1256.23 213.766 1250.56C219.438 1244.9 227.688 1242.32 237.485 1242.32C247.282 1242.32 255.016 1244.9 261.204 1250.56C266.876 1256.23 269.969 1264.46 269.969 1274.76V1295.35C269.969 1306.17 266.876 1314.4 261.204 1320.07C255.016 1325.73 247.282 1328.3 237.485 1328.3ZM237.485 1314.92C243.157 1314.92 247.797 1313.37 250.376 1310.28C252.954 1307.19 254.501 1302.56 254.501 1296.38V1274.24C254.501 1268.07 252.954 1263.43 249.86 1260.34C246.766 1257.25 242.641 1255.71 237.485 1255.71C231.813 1255.71 227.688 1257.25 224.594 1260.34C221.5 1263.43 219.953 1268.07 219.953 1273.73V1295.87C219.953 1302.05 221.5 1306.68 224.078 1309.77C227.172 1313.37 231.813 1314.92 237.485 1314.92Z" fill="#F9893D" fill-opacity="0.5"/>
<path opacity="0.78" d="M237.485 1452.38C227.688 1452.38 219.953 1449.81 213.766 1444.14C207.578 1438.48 205 1430.76 205 1419.43V1398.84C205 1388.03 208.094 1380.3 213.766 1374.64C219.438 1368.98 227.688 1366.4 237.485 1366.4C247.282 1366.4 255.016 1368.98 261.204 1374.64C266.876 1380.3 269.969 1388.54 269.969 1398.84V1419.43C269.969 1430.24 266.876 1438.48 261.204 1444.14C255.016 1449.81 247.282 1452.38 237.485 1452.38ZM237.485 1439C243.157 1439 247.797 1437.45 250.376 1434.36C252.954 1431.27 254.501 1426.64 254.501 1420.46V1398.32C254.501 1392.14 252.954 1387.51 249.86 1384.42C246.766 1381.33 242.641 1379.79 237.485 1379.79C231.813 1379.79 227.688 1381.33 224.594 1384.42C221.5 1387.51 219.953 1392.14 219.953 1397.81V1419.95C219.953 1426.12 221.5 1430.76 224.078 1433.85C227.172 1437.45 231.813 1439 237.485 1439Z" fill="#F9893D" fill-opacity="0.5"/>
<path d="M241.094 1575.43V1503.87H239.032L227.688 1530.12H211.703L228.719 1492.54H256.047V1575.43H241.094Z" fill="#F9893D" fill-opacity="0.5"/>
<path d="M237.485 1701.05C227.688 1701.05 219.953 1698.48 213.766 1692.82C207.578 1687.15 205 1679.43 205 1668.1V1647.51C205 1636.7 208.094 1628.98 213.766 1623.31C219.438 1617.65 227.688 1615.07 237.485 1615.07C247.282 1615.07 255.016 1617.65 261.204 1623.31C266.876 1628.98 269.969 1637.21 269.969 1647.51V1668.1C269.969 1678.92 266.876 1687.15 261.204 1692.82C255.016 1698.48 247.282 1701.05 237.485 1701.05ZM237.485 1687.67C243.157 1687.67 247.797 1686.12 250.376 1683.03C252.954 1679.94 254.501 1675.31 254.501 1669.13V1646.99C254.501 1640.82 252.954 1636.18 249.86 1633.09C246.766 1630 242.641 1628.46 237.485 1628.46C231.813 1628.46 227.688 1630 224.594 1633.09C221.5 1636.18 219.953 1640.82 219.953 1646.48V1668.62C219.953 1674.8 221.5 1679.43 224.078 1682.52C227.172 1686.12 231.813 1687.67 237.485 1687.67Z" fill="#F9893D" fill-opacity="0.5"/>
<path d="M241.094 1824.1V1752.54H239.032L227.688 1778.79H211.703L228.719 1741.21H256.047V1824.1H241.094Z" fill="#F9893D" fill-opacity="0.5"/>
<path d="M237.485 1949.72C227.688 1949.72 219.953 1947.15 213.766 1941.48C207.578 1935.82 205 1928.1 205 1916.77V1896.18C205 1885.37 208.094 1877.64 213.766 1871.98C219.438 1866.32 227.688 1863.74 237.485 1863.74C247.282 1863.74 255.016 1866.32 261.204 1871.98C266.876 1877.64 269.969 1885.88 269.969 1896.18V1916.77C269.969 1927.58 266.876 1935.82 261.204 1941.48C255.016 1947.15 247.282 1949.72 237.485 1949.72ZM237.485 1936.34C243.157 1936.34 247.797 1934.79 250.376 1931.7C252.954 1928.61 254.501 1923.98 254.501 1917.8V1895.66C254.501 1889.48 252.954 1884.85 249.86 1881.76C246.766 1878.67 242.641 1877.13 237.485 1877.13C231.813 1877.13 227.688 1878.67 224.594 1881.76C221.5 1884.85 219.953 1889.48 219.953 1895.15V1917.29C219.953 1923.46 221.5 1928.1 224.078 1931.19C227.172 1934.79 231.813 1936.34 237.485 1936.34Z" fill="#F9893D" fill-opacity="0.5"/>
<path d="M241.094 2072.77V2001.21H239.032L227.688 2027.46H211.703L228.719 1989.88H256.047V2072.77H241.094Z" fill="#F9893D" fill-opacity="0.5"/>
<path d="M237.485 2198.39C227.688 2198.39 219.953 2195.82 213.766 2190.16C207.578 2184.49 205 2176.77 205 2165.44V2144.85C205 2134.04 208.094 2126.31 213.766 2120.65C219.438 2114.99 227.688 2112.41 237.485 2112.41C247.282 2112.41 255.016 2114.99 261.204 2120.65C266.876 2126.31 269.969 2134.55 269.969 2144.85V2165.44C269.969 2176.25 266.876 2184.49 261.204 2190.16C255.016 2195.82 247.282 2198.39 237.485 2198.39ZM237.485 2185.01C243.157 2185.01 247.797 2183.46 250.376 2180.37C252.954 2177.28 254.501 2172.65 254.501 2166.47V2144.33C254.501 2138.16 252.954 2133.52 249.86 2130.43C246.766 2127.34 242.641 2125.8 237.485 2125.8C231.813 2125.8 227.688 2127.34 224.594 2130.43C221.5 2133.52 219.953 2138.16 219.953 2143.82V2165.96C219.953 2172.14 221.5 2176.77 224.078 2179.86C227.172 2183.46 231.813 2185.01 237.485 2185.01Z" fill="#F9893D" fill-opacity="0.5"/>
<path d="M241.094 2321.44V2249.88H239.032L227.688 2276.13H211.703L228.719 2238.55H256.047V2321.44H241.094Z" fill="#F9893D" fill-opacity="0.5"/>
</g>
<g opacity="0.18">
<path d="M583.448 222.048V163.241H581.765L572.51 184.664H559.469L573.351 154H595.648V222.048H583.448Z" fill="#F9893D" fill-opacity="0.5"/>
<path d="M580.503 324.539C572.51 324.539 566.2 322.439 561.152 317.818C556.103 313.197 554 306.897 554 297.656V280.854C554 272.033 556.524 265.732 561.152 261.111C565.779 256.491 572.51 254.391 580.503 254.391C588.497 254.391 594.807 256.491 599.855 261.111C604.483 265.732 607.007 272.453 607.007 280.854V297.656C607.007 306.477 604.483 313.197 599.855 317.818C594.807 322.439 588.497 324.539 580.503 324.539ZM580.503 313.617C585.131 313.617 588.917 312.357 591.021 309.837C593.124 307.317 594.386 303.536 594.386 298.496V280.434C594.386 275.393 593.124 271.613 590.6 269.092C588.076 266.572 584.71 265.312 580.503 265.312C575.876 265.312 572.51 266.572 569.986 269.092C567.462 271.613 566.2 275.393 566.2 280.014V298.076C566.2 303.116 567.462 306.897 569.565 309.417C572.09 312.357 575.876 313.617 580.503 313.617Z" fill="#F9893D" fill-opacity="0.5"/>
<path d="M583.448 424.931V366.124H581.765L572.51 387.546H559.469L573.351 356.883H595.648V424.511H583.448V424.931Z" fill="#F9893D" fill-opacity="0.5"/>
<path d="M583.448 526.163V467.776H581.765L572.51 489.199H559.469L573.351 458.535H595.648V526.163H583.448Z" fill="#F9893D" fill-opacity="0.5"/>
<path d="M583.448 627.815V569.009H581.765L572.51 590.431H559.469L573.772 560.188H596.069V627.815H583.448Z" fill="#F9893D" fill-opacity="0.5"/>
<path d="M580.503 730.308C572.51 730.308 566.2 728.208 561.152 723.588C556.103 718.967 554 712.666 554 703.425V686.623C554 677.802 556.524 671.501 561.152 666.881C565.779 662.26 572.51 660.16 580.503 660.16C588.497 660.16 594.807 662.26 599.855 666.881C604.483 671.501 607.007 678.222 607.007 686.623V703.425C607.007 712.246 604.483 718.967 599.855 723.588C594.807 728.208 588.497 730.308 580.503 730.308ZM580.503 719.387C585.131 719.387 588.917 718.127 591.021 715.607C593.124 713.086 594.386 709.306 594.386 704.265V686.203C594.386 681.163 593.124 677.382 590.6 674.862C588.076 672.342 584.71 671.081 580.503 671.081C575.876 671.081 572.51 672.342 569.986 674.862C567.462 677.382 566.2 681.163 566.2 685.783V703.845C566.2 708.886 567.462 712.666 569.565 715.187C572.09 718.127 575.876 719.387 580.503 719.387Z" fill="#F9893D" fill-opacity="0.5"/>
<path d="M580.503 831.961C572.51 831.961 566.2 829.86 561.152 825.24C556.103 820.619 554 814.319 554 805.078V788.276C554 779.455 556.524 773.154 561.152 768.533C565.779 763.913 572.51 761.812 580.503 761.812C588.497 761.812 594.807 763.913 599.855 768.533C604.483 773.154 607.007 779.875 607.007 788.276V805.078C607.007 813.899 604.483 820.619 599.855 825.24C594.807 829.86 588.497 831.961 580.503 831.961ZM580.503 821.039C585.131 821.039 588.917 819.779 591.021 817.259C593.124 814.739 594.386 810.958 594.386 805.918V787.856C594.386 782.815 593.124 779.034 590.6 776.514C588.076 773.994 584.71 772.734 580.503 772.734C575.876 772.734 572.51 773.994 569.986 776.514C567.462 779.034 566.2 782.815 566.2 787.435V805.498C566.2 810.538 567.462 814.319 569.565 816.839C572.09 819.779 575.876 821.039 580.503 821.039Z" fill="#F9893D" fill-opacity="0.5"/>
<path d="M583.448 931.933V873.546H581.765L572.51 894.968H559.469L573.351 864.305H595.648V931.933H583.448Z" fill="#F9893D" fill-opacity="0.5"/>
<path d="M580.503 1034.84C572.51 1034.84 566.2 1032.74 561.152 1028.12C556.103 1023.5 554 1017.2 554 1007.96V991.158C554 982.337 556.524 976.037 561.152 971.416C565.779 966.796 572.51 964.695 580.503 964.695C588.497 964.695 594.807 966.796 599.855 971.416C604.483 976.037 607.007 982.757 607.007 991.158V1007.96C607.007 1016.78 604.483 1023.5 599.855 1028.12C594.807 1032.74 588.497 1034.84 580.503 1034.84ZM580.503 1023.92C585.131 1023.92 588.917 1022.66 591.021 1020.14C593.124 1017.62 594.386 1013.84 594.386 1008.8V990.738C594.386 985.698 593.124 981.917 590.6 979.397C588.076 976.877 584.71 975.617 580.503 975.617C575.876 975.617 572.51 976.877 569.986 979.397C567.462 981.917 566.2 985.698 566.2 990.318V1008.38C566.2 1013.42 567.462 1017.2 569.565 1019.72C572.09 1022.66 575.876 1023.92 580.503 1023.92Z" fill="#F9893D" fill-opacity="0.5"/>
<path opacity="0.78" d="M583.448 1134.82V1076.43H581.765L572.51 1097.85H559.469L573.351 1067.19H595.648V1134.82H583.448Z" fill="#F9893D" fill-opacity="0.5"/>
<path opacity="0.78" d="M580.503 1237.73C572.51 1237.73 566.2 1235.63 561.152 1231.01C556.103 1226.38 554 1220.08 554 1210.84V1194.04C554 1185.22 556.524 1178.92 561.152 1174.3C565.779 1169.68 572.51 1167.58 580.503 1167.58C588.497 1167.58 594.807 1169.68 599.855 1174.3C604.483 1178.92 607.007 1185.64 607.007 1194.04V1210.84C607.007 1219.66 604.483 1226.38 599.855 1231.01C594.807 1235.63 588.497 1237.73 580.503 1237.73ZM580.503 1226.8C585.131 1226.8 588.917 1225.54 591.021 1223.02C593.124 1220.5 594.386 1216.72 594.386 1211.68V1193.62C594.386 1188.58 593.124 1184.8 590.6 1182.28C588.076 1179.76 584.71 1178.5 580.503 1178.5C575.876 1178.5 572.51 1179.76 569.986 1182.28C567.462 1184.8 566.2 1188.58 566.2 1193.2V1211.26C566.2 1216.3 567.462 1220.08 569.565 1222.6C572.09 1225.54 575.876 1226.8 580.503 1226.8Z" fill="#F9893D" fill-opacity="0.5"/>
<path opacity="0.78" d="M580.503 1338.96C572.51 1338.96 566.2 1336.86 561.152 1332.24C556.103 1327.62 554 1321.31 554 1312.07V1295.27C554 1286.45 556.524 1280.15 561.152 1275.53C565.779 1270.91 572.51 1268.81 580.503 1268.81C588.497 1268.81 594.807 1270.91 599.855 1275.53C604.483 1280.15 607.007 1286.87 607.007 1295.27V1312.07C607.007 1320.89 604.483 1327.62 599.855 1332.24C594.807 1336.86 588.497 1338.96 580.503 1338.96ZM580.503 1328.04C585.131 1328.04 588.917 1326.78 591.021 1324.26C593.124 1321.73 594.386 1317.95 594.386 1312.91V1294.85C594.386 1289.81 593.124 1286.03 590.6 1283.51C588.076 1280.99 584.71 1279.73 580.503 1279.73C575.876 1279.73 572.51 1280.99 569.986 1283.51C567.462 1286.03 566.2 1289.81 566.2 1294.43V1312.49C566.2 1317.53 567.462 1321.31 569.565 1323.83C572.09 1326.78 575.876 1328.04 580.503 1328.04Z" fill="#F9893D" fill-opacity="0.5"/>
<path d="M583.448 1439.35V1380.96H581.765L572.51 1402.39H559.469L573.351 1371.72H595.648V1439.35H583.448Z" fill="#F9893D" fill-opacity="0.5"/>
<path d="M580.503 1541.84C572.51 1541.84 566.2 1539.74 561.152 1535.12C556.103 1530.5 554 1524.2 554 1514.96V1498.15C554 1489.33 556.524 1483.03 561.152 1478.41C565.779 1473.79 572.51 1471.69 580.503 1471.69C588.497 1471.69 594.807 1473.79 599.855 1478.41C604.483 1483.03 607.007 1489.75 607.007 1498.15V1514.96C607.007 1523.78 604.483 1530.5 599.855 1535.12C594.807 1539.74 588.497 1541.84 580.503 1541.84ZM580.503 1530.92C585.131 1530.92 588.917 1529.66 591.021 1527.14C593.124 1524.62 594.386 1520.84 594.386 1515.8V1497.73C594.386 1492.69 593.124 1488.91 590.6 1486.39C588.076 1483.87 584.71 1482.61 580.503 1482.61C575.876 1482.61 572.51 1483.87 569.986 1486.39C567.462 1488.91 566.2 1492.69 566.2 1497.31V1515.38C566.2 1520.42 567.462 1524.2 569.565 1526.72C572.09 1529.66 575.876 1530.92 580.503 1530.92Z" fill="#F9893D" fill-opacity="0.5"/>
<path d="M583.448 1642.23V1583.85H581.765L572.51 1605.27H559.469L573.351 1574.61H595.648V1642.23H583.448Z" fill="#F9893D" fill-opacity="0.5"/>
<path d="M580.503 1744.73C572.51 1744.73 566.2 1742.63 561.152 1738.01C556.103 1733.38 554 1727.08 554 1717.84V1701.04C554 1692.22 556.524 1685.92 561.152 1681.3C565.779 1676.68 572.51 1674.58 580.503 1674.58C588.497 1674.58 594.807 1676.68 599.855 1681.3C604.483 1685.92 607.007 1692.64 607.007 1701.04V1717.84C607.007 1726.66 604.483 1733.38 599.855 1738.01C594.807 1742.63 588.497 1744.73 580.503 1744.73ZM580.503 1733.81C585.131 1733.81 588.917 1732.54 591.021 1730.02C593.124 1727.5 594.386 1723.72 594.386 1718.68V1700.62C594.386 1695.58 593.124 1691.8 590.6 1689.28C588.076 1686.76 584.71 1685.5 580.503 1685.5C575.876 1685.5 572.51 1686.76 569.986 1689.28C567.462 1691.8 566.2 1695.58 566.2 1700.2V1718.26C566.2 1723.3 567.462 1727.08 569.565 1729.6C572.09 1732.54 575.876 1733.81 580.503 1733.81Z" fill="#F9893D" fill-opacity="0.5"/>
<path d="M583.448 1845.12V1786.73H581.765L572.51 1808.15H559.469L573.351 1777.49H595.648V1845.12H583.448Z" fill="#F9893D" fill-opacity="0.5"/>
<path d="M580.503 1947.61C572.51 1947.61 566.2 1945.51 561.152 1940.89C556.103 1936.27 554 1929.97 554 1920.73V1903.92C554 1895.1 556.524 1888.8 561.152 1884.18C565.779 1879.56 572.51 1877.46 580.503 1877.46C588.497 1877.46 594.807 1879.56 599.855 1884.18C604.483 1888.8 607.007 1895.52 607.007 1903.92V1920.73C607.007 1929.55 604.483 1936.27 599.855 1940.89C594.807 1945.51 588.497 1947.61 580.503 1947.61ZM580.503 1936.69C585.131 1936.69 588.917 1935.43 591.021 1932.91C593.124 1930.39 594.386 1926.61 594.386 1921.57V1903.5C594.386 1898.46 593.124 1894.68 590.6 1892.16C588.076 1889.64 584.71 1888.38 580.503 1888.38C575.876 1888.38 572.51 1889.64 569.986 1892.16C567.462 1894.68 566.2 1898.46 566.2 1903.08V1921.15C566.2 1926.19 567.462 1929.97 569.565 1932.49C572.09 1935.43 575.876 1936.69 580.503 1936.69Z" fill="#F9893D" fill-opacity="0.5"/>
<path d="M583.448 2048V1989.61H581.765L572.51 2011.03H559.469L573.351 1980.37H595.648V2048H583.448Z" fill="#F9893D" fill-opacity="0.5"/>
</g>
<g opacity="0.18">
<path d="M575.485 2852.77C565.688 2852.77 557.953 2850.2 551.766 2844.53C545.578 2838.87 543 2831.15 543 2819.82V2799.23C543 2788.42 546.094 2780.69 551.766 2775.03C557.438 2769.37 565.688 2766.79 575.485 2766.79C585.282 2766.79 593.016 2769.37 599.204 2775.03C604.876 2780.69 607.97 2788.93 607.97 2799.23V2819.82C607.97 2830.63 604.876 2838.87 599.204 2844.53C593.016 2850.2 585.282 2852.77 575.485 2852.77ZM575.485 2839.39C581.157 2839.39 585.797 2837.84 588.376 2834.75C590.954 2831.66 592.501 2827.03 592.501 2820.85V2798.71C592.501 2792.54 590.954 2787.9 587.86 2784.81C584.766 2781.72 580.641 2780.18 575.485 2780.18C569.813 2780.18 565.688 2781.72 562.594 2784.81C559.5 2787.9 557.953 2792.54 557.953 2798.2V2820.34C557.953 2826.52 559.5 2831.15 562.078 2834.24C565.172 2837.84 569.297 2839.39 575.485 2839.39Z" fill="#F9893D" fill-opacity="0.5"/>
<path d="M579.098 2975.82V2904.26H577.035L565.692 2930.51H549.707L566.723 2892.93H594.051V2975.82H579.098Z" fill="#F9893D" fill-opacity="0.5"/>
<path d="M575.485 3101.44C565.688 3101.44 557.953 3098.87 551.766 3093.21C545.578 3087.54 543 3079.82 543 3068.49V3047.9C543 3037.09 546.094 3029.37 551.766 3023.7C557.438 3018.04 565.688 3015.46 575.485 3015.46C585.282 3015.46 593.016 3018.04 599.204 3023.7C604.876 3029.37 607.97 3037.6 607.97 3047.9V3068.49C607.97 3079.31 604.876 3087.54 599.204 3093.21C593.016 3098.87 585.282 3101.44 575.485 3101.44ZM575.485 3088.06C581.157 3088.06 585.797 3086.51 588.376 3083.42C590.954 3080.34 592.501 3075.7 592.501 3069.52V3047.39C592.501 3041.21 590.954 3036.57 587.86 3033.48C584.766 3030.4 580.641 3028.85 575.485 3028.85C569.813 3028.85 565.688 3030.4 562.594 3033.48C559.5 3036.57 557.953 3041.21 557.953 3046.87V3069.01C557.953 3075.19 559.5 3079.82 562.078 3082.91C565.172 3086.51 569.297 3088.06 575.485 3088.06Z" fill="#F9893D" fill-opacity="0.5"/>
<path d="M579.098 3224.49V3152.41H577.035L565.692 3178.67H549.707L566.723 3141.09H594.051V3224.49H579.098Z" fill="#F9893D" fill-opacity="0.5"/>
<path d="M575.485 3350.11C565.688 3350.11 557.953 3347.54 551.766 3341.87C545.578 3336.21 543 3328.49 543 3317.16V3296.57C543 3285.76 546.094 3278.03 551.766 3272.37C557.438 3266.71 565.688 3264.13 575.485 3264.13C585.282 3264.13 593.016 3266.71 599.204 3272.37C604.876 3278.03 607.97 3286.27 607.97 3296.57V3317.16C607.97 3327.97 604.876 3336.21 599.204 3341.87C593.016 3347.54 585.282 3350.11 575.485 3350.11ZM575.485 3336.73C581.157 3336.73 585.797 3335.18 588.376 3332.09C590.954 3329 592.501 3324.37 592.501 3318.19V3296.05C592.501 3289.88 590.954 3285.24 587.86 3282.15C584.766 3279.06 580.641 3277.52 575.485 3277.52C569.813 3277.52 565.688 3279.06 562.594 3282.15C559.5 3285.24 557.953 3289.87 557.953 3295.54V3317.68C557.953 3323.85 559.5 3328.49 562.078 3331.58C565.172 3335.18 569.297 3336.73 575.485 3336.73Z" fill="#F9893D" fill-opacity="0.5"/>
<path d="M579.098 3473.16V3401.6H577.035L565.692 3427.86H549.707L566.723 3390.27H594.051V3473.16H579.098Z" fill="#F9893D" fill-opacity="0.5"/>
<path d="M575.485 3598.78C565.688 3598.78 557.953 3596.21 551.766 3590.55C545.578 3584.88 543 3577.16 543 3565.83V3545.24C543 3534.43 546.094 3526.71 551.766 3521.04C557.438 3515.38 565.688 3512.8 575.485 3512.8C585.282 3512.8 593.016 3515.38 599.204 3521.04C604.876 3526.71 607.97 3534.94 607.97 3545.24V3565.83C607.97 3576.65 604.876 3584.88 599.204 3590.55C593.016 3596.21 585.282 3598.78 575.485 3598.78ZM575.485 3585.4C581.157 3585.4 585.797 3583.85 588.376 3580.76C590.954 3577.68 592.501 3573.04 592.501 3566.86V3544.73C592.501 3538.55 590.954 3533.91 587.86 3530.82C584.766 3527.74 580.641 3526.19 575.485 3526.19C569.813 3526.19 565.688 3527.74 562.594 3530.82C559.5 3533.91 557.953 3538.55 557.953 3544.21V3566.35C557.953 3572.53 559.5 3577.16 562.078 3580.25C565.172 3583.85 569.297 3585.4 575.485 3585.4Z" fill="#F9893D" fill-opacity="0.5"/>
<path d="M579.098 3721.83V3650.27H577.035L565.692 3676.53H549.707L566.723 3638.94H594.051V3721.83H579.098Z" fill="#F9893D" fill-opacity="0.5"/>
<path d="M575.485 3847.46C565.688 3847.46 557.953 3844.88 551.766 3839.22C546.094 3834.07 543 3825.83 543 3814.51V3793.91C543 3783.1 546.094 3775.38 551.766 3769.71C557.438 3764.05 565.688 3761.48 575.485 3761.48C585.282 3761.48 593.016 3764.05 599.204 3769.71C604.876 3775.38 607.97 3783.61 607.97 3793.91V3814.51C607.97 3825.32 604.876 3833.56 599.204 3839.22C593.016 3844.88 585.282 3847.46 575.485 3847.46ZM575.485 3834.07C581.157 3834.07 585.797 3832.53 588.376 3829.44C590.954 3826.35 592.501 3821.71 592.501 3815.54V3793.4C592.501 3787.22 590.954 3782.59 587.86 3779.5C584.766 3776.41 580.641 3774.86 575.485 3774.86C569.813 3774.86 565.688 3776.41 562.594 3779.5C559.5 3782.59 557.953 3787.22 557.953 3792.88V3815.02C557.953 3821.2 559.5 3825.83 562.078 3828.92C565.172 3832.53 569.297 3834.07 575.485 3834.07Z" fill="#F9893D" fill-opacity="0.5"/>
<path d="M579.098 3970.5V3898.94H577.035L565.692 3925.2H549.707L566.723 3887.61H594.051V3970.5H579.098Z" fill="#F9893D" fill-opacity="0.5"/>
</g>
<g opacity="0.18">
<path d="M102.485 85.9792C92.6877 85.9792 84.9532 83.4051 78.7656 77.7418C73.0937 72.5933 70 64.3557 70 53.0291V32.4352C70 21.6235 73.0937 13.9009 78.7656 8.23757C84.4376 2.57426 92.6877 0 102.485 0C112.282 0 120.016 2.57426 126.204 8.23757C131.876 13.9009 134.969 22.1383 134.969 32.4352V53.0291C134.969 63.8409 131.876 72.0785 126.204 77.7418C120.532 83.4051 112.797 85.9792 102.485 85.9792ZM102.485 72.5933C108.157 72.5933 112.797 71.0487 115.375 67.9596C117.954 64.8705 119.5 60.237 119.5 54.0588V31.9204C119.5 25.7422 117.954 21.1087 114.86 18.0196C111.766 14.9305 107.641 13.386 102.485 13.386C96.8127 13.386 92.6877 14.9305 89.5939 18.0196C86.5001 21.1087 84.9533 25.7423 84.9533 31.4056V53.544C84.9533 59.7221 86.5001 64.3558 89.0783 67.4449C92.6877 71.0488 96.8127 72.5933 102.485 72.5933Z" fill="#F9893D" fill-opacity="0.5"/>
<path d="M106.61 205.937V134.374H104.547L93.2033 160.631H77.2188L94.2345 123.047H121.563V205.937H106.61Z" fill="#F9893D" fill-opacity="0.5"/>
<path d="M102.485 328.987C92.6877 328.987 84.9532 326.413 78.7656 320.75C73.0937 315.086 70 307.364 70 296.037V275.443C70 264.631 73.0937 256.909 78.7656 251.246C84.4376 245.582 92.6877 243.008 102.485 243.008C112.282 243.008 120.016 245.582 126.204 251.246C131.876 256.909 134.969 265.146 134.969 275.443V296.037C134.969 306.849 131.876 315.086 126.204 320.75C120.532 325.898 112.797 328.987 102.485 328.987ZM102.485 315.086C108.157 315.086 112.797 313.542 115.375 310.453C117.954 307.364 119.5 302.73 119.5 296.552V274.414C119.5 268.235 117.954 263.602 114.86 260.513C111.766 257.424 107.641 255.879 102.485 255.879C96.8127 255.879 92.6877 257.424 89.5939 260.513C86.5001 263.602 84.9533 268.235 84.9533 273.899V296.037C84.9533 302.215 86.5001 306.849 89.0783 309.938C92.6877 313.542 96.8127 315.086 102.485 315.086Z" fill="#F9893D" fill-opacity="0.5"/>
<path d="M106.61 448.429V376.866H104.547L93.2033 403.123H77.2188L94.2345 365.539H121.563V448.429H106.61Z" fill="#F9893D" fill-opacity="0.5"/>
<path d="M102.485 571.479C92.6877 571.479 84.9532 568.905 78.7656 563.242C73.0937 558.093 70 549.856 70 538.529V517.935C70 507.123 73.0937 499.401 78.7656 493.737C84.4376 488.074 92.6877 485.5 102.485 485.5C112.282 485.5 120.016 488.074 126.204 493.737C131.876 499.401 134.969 507.638 134.969 517.935V538.529C134.969 549.341 131.876 557.578 126.204 563.242C120.532 568.905 112.797 571.479 102.485 571.479ZM102.485 558.093C108.157 558.093 112.797 556.549 115.375 553.459C117.954 550.37 119.5 545.737 119.5 539.559V517.42C119.5 511.242 117.954 506.609 114.86 503.52C111.766 500.431 107.641 498.886 102.485 498.886C96.8127 498.886 92.6877 500.431 89.5939 503.52C86.5001 506.609 84.9533 511.242 84.9533 516.905V539.044C84.9533 545.222 86.5001 549.856 89.0783 552.945C92.6877 556.549 96.8127 558.093 102.485 558.093Z" fill="#F9893D" fill-opacity="0.5"/>
<path d="M106.61 691.437V619.874H104.547L93.2033 646.131H77.2188L94.2345 608.547H121.563V691.437H106.61Z" fill="#F9893D" fill-opacity="0.5"/>
<path d="M102.485 814.487C92.6877 814.487 84.9532 811.913 78.7656 806.25C73.0937 801.101 70 792.864 70 781.537V760.943C70 750.132 73.0937 742.409 78.7656 736.746C84.4376 731.082 92.6877 728.508 102.485 728.508C112.282 728.508 120.016 731.082 126.204 736.746C131.876 742.409 134.969 750.646 134.969 760.943V781.537C134.969 792.349 131.876 800.586 126.204 806.25C120.532 811.398 112.797 814.487 102.485 814.487ZM102.485 800.586C108.157 800.586 112.797 799.042 115.375 795.953C117.954 792.864 119.5 788.23 119.5 782.052V759.914C119.5 753.735 117.954 749.102 114.86 746.013C111.766 742.924 107.641 741.379 102.485 741.379C96.8127 741.379 92.6877 742.924 89.5939 746.013C86.5001 749.102 84.9533 753.735 84.9533 759.399V781.537C84.9533 787.715 86.5001 792.349 89.0783 795.438C92.6877 799.042 96.8127 800.586 102.485 800.586Z" fill="#F9893D" fill-opacity="0.5"/>
<path d="M106.61 933.929V862.365H104.547L93.2033 888.623H77.2188L94.2345 851.039H121.563V933.929H106.61Z" fill="#F9893D" fill-opacity="0.5"/>
<path d="M102.485 1056.98C92.6877 1056.98 84.9532 1054.4 78.7656 1048.74C73.0937 1043.08 70 1035.36 70 1024.03V1003.44C70 992.623 73.0937 984.901 78.7656 979.237C84.4376 973.574 92.6877 971 102.485 971C112.282 971 120.016 973.574 126.204 979.237C131.876 984.901 134.969 993.138 134.969 1003.44V1024.03C134.969 1034.84 131.876 1043.08 126.204 1048.74C120.532 1054.4 112.797 1056.98 102.485 1056.98ZM102.485 1043.59C108.157 1043.59 112.797 1042.05 115.375 1038.96C117.954 1035.87 119.5 1031.24 119.5 1025.06V1002.92C119.5 996.742 117.954 992.109 114.86 989.02C111.766 985.931 107.641 984.386 102.485 984.386C96.8127 984.386 92.6877 985.931 89.5939 989.02C86.5001 992.109 84.9533 996.742 84.9533 1002.41V1024.54C84.9533 1030.72 86.5001 1035.36 89.0783 1038.44C92.6877 1042.05 96.8127 1043.59 102.485 1043.59Z" fill="#F9893D" fill-opacity="0.5"/>
<path d="M106.61 1176.94V1105.37H104.547L93.2033 1131.63H77.2188L94.2345 1094.05H121.563V1176.94H106.61Z" fill="#F9893D" fill-opacity="0.5"/>
<path d="M102.485 1299.99C92.6877 1299.99 84.9532 1297.41 78.7656 1291.75C73.0937 1286.6 70 1278.36 70 1267.04V1246.44C70 1235.63 73.0937 1227.91 78.7656 1222.25C84.4376 1216.58 92.6877 1214.01 102.485 1214.01C112.282 1214.01 120.016 1216.58 126.204 1222.25C131.876 1227.91 134.969 1236.15 134.969 1246.44V1267.04C134.969 1277.85 131.876 1286.09 126.204 1291.75C120.532 1296.9 112.797 1299.99 102.485 1299.99ZM102.485 1286.09C108.157 1286.09 112.797 1284.54 115.375 1281.45C117.954 1278.36 119.5 1273.73 119.5 1267.55V1245.41C119.5 1239.24 117.954 1234.6 114.86 1231.51C111.766 1228.42 107.641 1226.88 102.485 1226.88C96.8127 1226.88 92.6877 1228.42 89.5939 1231.51C86.5001 1234.6 84.9533 1239.24 84.9533 1244.9V1267.04C84.9533 1273.22 86.5001 1277.85 89.0783 1280.94C92.6877 1284.54 96.8127 1286.09 102.485 1286.09Z" fill="#F9893D" fill-opacity="0.5"/>
<path d="M106.61 1419.43V1347.87H104.547L93.2033 1374.12H77.2188L94.2345 1336.54H121.563V1419.43H106.61Z" fill="#F9893D" fill-opacity="0.5"/>
<path d="M106.61 1540.93V1469.37H104.547L93.2033 1495.63H77.2188L94.2345 1458.04H121.563V1540.93H106.61Z" fill="#F9893D" fill-opacity="0.5"/>
<path d="M106.61 1662.44V1590.36H104.547L93.2033 1616.61H77.2188L94.2345 1579.03H121.563V1662.44H106.61Z" fill="#F9893D" fill-opacity="0.5"/>
<path d="M102.485 1785.49C92.6877 1785.49 84.9532 1782.91 78.7656 1777.25C73.0937 1772.1 70 1763.86 70 1752.54V1731.94C70 1721.13 73.0937 1713.41 78.7656 1707.75C84.4376 1702.08 92.6877 1699.51 102.485 1699.51C112.282 1699.51 120.016 1702.08 126.204 1707.75C131.876 1713.41 134.969 1721.65 134.969 1731.94V1752.54C134.969 1763.35 131.876 1771.59 126.204 1777.25C120.532 1782.4 112.797 1785.49 102.485 1785.49ZM102.485 1771.59C108.157 1771.59 112.797 1770.04 115.375 1766.95C117.954 1763.86 119.5 1759.23 119.5 1753.05V1730.91C119.5 1724.74 117.954 1720.1 114.86 1717.01C111.766 1713.92 107.641 1712.38 102.485 1712.38C96.8127 1712.38 92.6877 1713.92 89.5939 1717.01C86.5001 1720.1 84.9533 1724.74 84.9533 1730.4V1752.54C84.9533 1758.72 86.5001 1763.35 89.0783 1766.44C92.6877 1770.04 96.8127 1771.59 102.485 1771.59Z" fill="#F9893D" fill-opacity="0.5"/>
<path d="M102.485 1906.48C92.6877 1906.48 84.9532 1903.9 78.7656 1898.24C73.0937 1893.09 70 1884.85 70 1873.53V1852.93C70 1842.12 73.0937 1834.4 78.7656 1828.73C84.4376 1823.07 92.6877 1820.5 102.485 1820.5C112.282 1820.5 120.016 1823.07 126.204 1828.73C131.876 1834.4 134.969 1842.63 134.969 1852.93V1873.53C134.969 1884.34 131.876 1892.57 126.204 1898.24C120.532 1903.9 112.797 1906.48 102.485 1906.48ZM102.485 1893.09C108.157 1893.09 112.797 1891.54 115.375 1888.46C117.954 1885.37 119.5 1880.73 119.5 1874.55V1852.42C119.5 1846.24 117.954 1841.6 114.86 1838.52C111.766 1835.43 107.641 1833.88 102.485 1833.88C96.8127 1833.88 92.6877 1835.43 89.5939 1838.52C86.5001 1841.6 84.9533 1846.24 84.9533 1851.9V1874.04C84.9533 1880.22 86.5001 1884.85 89.0783 1887.94C92.6877 1891.54 96.8127 1893.09 102.485 1893.09Z" fill="#F9893D" fill-opacity="0.5"/>
<path d="M106.61 2026.43V1954.87H104.547L93.2033 1981.13H77.2188L94.2345 1943.54H121.563V2026.43H106.61Z" fill="#F9893D" fill-opacity="0.5"/>
<path d="M102.485 2149.48C92.6877 2149.48 84.9532 2146.91 78.7656 2141.25C73.0937 2135.58 70 2127.86 70 2116.53V2095.94C70 2085.13 73.0937 2077.4 78.7656 2071.74C84.4376 2066.08 92.6877 2063.5 102.485 2063.5C112.282 2063.5 120.016 2066.08 126.204 2071.74C131.876 2077.4 134.969 2085.64 134.969 2095.94V2116.53C134.969 2127.34 131.876 2135.58 126.204 2141.25C120.532 2146.91 112.797 2149.48 102.485 2149.48ZM102.485 2136.1C108.157 2136.1 112.797 2134.55 115.375 2131.46C117.954 2128.37 119.5 2123.74 119.5 2117.56V2095.42C119.5 2089.25 117.954 2084.61 114.86 2081.52C111.766 2078.43 107.641 2076.89 102.485 2076.89C96.8127 2076.89 92.6877 2078.43 89.5939 2081.52C86.5001 2084.61 84.9533 2089.25 84.9533 2094.91V2117.05C84.9533 2123.23 86.5001 2127.86 89.0783 2130.95C92.6877 2134.55 96.8127 2136.1 102.485 2136.1Z" fill="#F9893D" fill-opacity="0.5"/>
<path opacity="0.78" d="M106.61 2268.93V2197.37H104.547L93.2033 2223.62H77.2188L94.2345 2186.04H121.563V2268.93H106.61Z" fill="#F9893D" fill-opacity="0.5"/>
<path opacity="0.78" d="M102.485 2391.98C92.6877 2391.98 84.9532 2389.4 78.7656 2383.74C73.0937 2378.59 70 2370.35 70 2359.03V2338.43C70 2327.62 73.0937 2319.9 78.7656 2314.23C84.4376 2308.57 92.6877 2306 102.485 2306C112.282 2306 120.016 2308.57 126.204 2314.23C131.876 2319.9 134.969 2328.13 134.969 2338.43V2359.03C134.969 2369.84 131.876 2378.07 126.204 2383.74C120.532 2389.4 112.797 2391.98 102.485 2391.98ZM102.485 2378.59C108.157 2378.59 112.797 2377.04 115.375 2373.96C117.954 2370.87 119.5 2366.23 119.5 2360.05V2337.92C119.5 2331.74 117.954 2327.1 114.86 2324.02C111.766 2320.93 107.641 2319.38 102.485 2319.38C96.8127 2319.38 92.6877 2320.93 89.5939 2324.02C86.5001 2327.1 84.9533 2331.74 84.9533 2337.4V2359.54C84.9533 2365.72 86.5001 2370.35 89.0783 2373.44C92.6877 2377.04 96.8127 2378.59 102.485 2378.59Z" fill="#F9893D" fill-opacity="0.5"/>
<path opacity="0.78" d="M102.485 2513.48C92.6877 2513.48 84.9532 2510.91 78.7656 2505.24C73.0937 2500.09 70 2491.86 70 2480.53V2459.94C70 2449.12 73.0937 2441.4 78.7656 2435.74C84.4376 2430.07 92.6877 2427.5 102.485 2427.5C112.282 2427.5 120.016 2430.07 126.204 2435.74C131.876 2441.4 134.969 2449.64 134.969 2459.94V2480.53C134.969 2491.34 131.876 2499.58 126.204 2505.24C120.532 2510.91 112.797 2513.48 102.485 2513.48ZM102.485 2500.09C108.157 2500.09 112.797 2498.55 115.375 2495.46C117.954 2492.37 119.5 2487.74 119.5 2481.56V2459.42C119.5 2453.24 117.954 2448.61 114.86 2445.52C111.766 2442.43 107.641 2440.89 102.485 2440.89C96.8127 2440.89 92.6877 2442.43 89.5939 2445.52C86.5001 2448.61 84.9533 2453.24 84.9533 2458.91V2481.04C84.9533 2487.22 86.5001 2491.86 89.0783 2494.95C92.6877 2498.55 96.8127 2500.09 102.485 2500.09Z" fill="#F9893D" fill-opacity="0.5"/>
<path opacity="0.78" d="M106.61 2633.44V2561.87H104.547L93.2033 2588.13H77.2188L94.2345 2550.55H121.563V2633.44H106.61Z" fill="#F9893D" fill-opacity="0.5"/>
<path opacity="0.78" d="M102.485 2756.49C92.6877 2756.49 84.9532 2753.91 78.7656 2748.25C73.0937 2742.59 70 2734.86 70 2723.54V2702.94C70 2692.13 73.0937 2684.41 78.7656 2678.75C84.4376 2673.08 92.6877 2670.51 102.485 2670.51C112.282 2670.51 120.016 2673.08 126.204 2678.75C131.876 2684.41 134.969 2692.65 134.969 2702.94V2723.54C134.969 2734.35 131.876 2742.59 126.204 2748.25C120.532 2753.4 112.797 2756.49 102.485 2756.49ZM102.485 2742.59C108.157 2742.59 112.797 2741.04 115.375 2737.95C117.954 2734.86 119.5 2730.23 119.5 2724.05V2701.91C119.5 2695.74 117.954 2691.1 114.86 2688.01C111.766 2684.92 107.641 2683.38 102.485 2683.38C96.8127 2683.38 92.6877 2684.92 89.5939 2688.01C86.5001 2691.1 84.9533 2695.74 84.9533 2701.4V2723.54C84.9533 2729.72 86.5001 2734.35 89.0783 2737.44C92.6877 2741.04 96.8127 2742.59 102.485 2742.59Z" fill="#F9893D" fill-opacity="0.5"/>
<path opacity="0.78" d="M106.61 2875.93V2804.37H104.547L93.2033 2830.62H77.2188L94.2345 2793.04H121.563V2875.93H106.61Z" fill="#F9893D" fill-opacity="0.5"/>
<path opacity="0.78" d="M102.485 2998.98C92.6877 2998.98 84.9532 2996.4 78.7656 2990.74C73.0937 2985.59 70 2977.36 70 2966.03V2945.43C70 2934.62 73.0937 2926.9 78.7656 2921.24C84.4376 2915.57 92.6877 2913 102.485 2913C112.282 2913 120.016 2915.57 126.204 2921.24C131.876 2926.9 134.969 2935.14 134.969 2945.43V2966.03C134.969 2976.84 131.876 2985.08 126.204 2990.74C120.532 2996.4 112.797 2998.98 102.485 2998.98ZM102.485 2985.59C108.157 2985.59 112.797 2984.05 115.375 2980.96C117.954 2977.87 119.5 2973.24 119.5 2967.06V2944.92C119.5 2938.74 117.954 2934.11 114.86 2931.02C111.766 2927.93 107.641 2926.39 102.485 2926.39C96.8127 2926.39 92.6877 2927.93 89.5939 2931.02C86.5001 2934.11 84.9533 2938.74 84.9533 2944.41V2966.54C84.9533 2972.72 86.5001 2977.36 89.0783 2980.44C92.6877 2984.05 96.8127 2985.59 102.485 2985.59Z" fill="#F9893D" fill-opacity="0.5"/>
<path opacity="0.78" d="M106.61 3118.94V3047.37H104.547L93.2033 3073.63H77.2188L94.2345 3036.05H121.563V3118.94H106.61Z" fill="#F9893D" fill-opacity="0.5"/>
<path opacity="0.78" d="M102.485 3241.99C92.6877 3241.99 84.9532 3239.41 78.7656 3233.75C73.0937 3228.6 70 3220.36 70 3209.04V3188.44C70 3177.63 73.0937 3169.91 78.7656 3164.25C84.4376 3158.58 92.6877 3156.01 102.485 3156.01C112.282 3156.01 120.016 3158.58 126.204 3164.25C131.876 3169.91 134.969 3178.15 134.969 3188.44V3209.04C134.969 3219.85 131.876 3228.09 126.204 3233.75C120.532 3238.9 112.797 3241.99 102.485 3241.99ZM102.485 3228.09C108.157 3228.09 112.797 3226.54 115.375 3223.45C117.954 3220.36 119.5 3215.73 119.5 3209.55V3187.41C119.5 3181.24 117.954 3176.6 114.86 3173.51C111.766 3170.42 107.641 3168.88 102.485 3168.88C96.8127 3168.88 92.6877 3170.42 89.5939 3173.51C86.5001 3176.6 84.9533 3181.24 84.9533 3186.9V3209.04C84.9533 3215.22 86.5001 3219.85 89.0783 3222.94C92.6877 3226.54 96.8127 3228.09 102.485 3228.09Z" fill="#F9893D" fill-opacity="0.5"/>
<path opacity="0.78" d="M106.61 3361.43V3289.87H104.547L93.2033 3316.12H77.2188L94.2345 3278.54H121.563V3361.43H106.61Z" fill="#F9893D" fill-opacity="0.5"/>
</g>
</g>
</g>
<defs>
<clipPath id="clip0_174_6263">
<rect width="678" height="3938" fill="white"/>
</clipPath>
<clipPath id="clip1_174_6263">
<rect width="678" height="3938" fill="white"/>
</clipPath>
</defs>
</svg>
