<svg width="1920" height="7011" viewBox="0 0 1920 7011" fill="none" xmlns="http://www.w3.org/2000/svg">
<g clip-path="url(#clip0_336_1000)">
<path d="M1920 0H0V7011H1920V0Z" fill="#1A1A1A"/>
<g opacity="0.46">
<path d="M238.1 4462.91C226.773 4462.91 217.506 4459.82 210.297 4453.64C203.089 4447.46 200 4437.68 200 4424.81V4400.1C200 4387.74 203.604 4377.96 210.297 4371.78C216.991 4365.6 226.258 4362 238.1 4362C249.942 4362 258.695 4365.09 265.903 4371.78C273.112 4378.48 276.201 4387.74 276.201 4400.1V4424.81C276.201 4437.68 272.597 4447.46 265.903 4453.64C259.21 4459.82 249.428 4462.91 238.1 4462.91ZM238.1 4446.95C245.309 4446.95 249.942 4444.89 253.547 4441.29C256.636 4437.68 258.695 4432.02 258.695 4424.81V4399.07C258.695 4391.86 256.636 4386.71 253.032 4383.11C249.428 4379.5 244.279 4377.45 238.1 4377.45C231.922 4377.45 226.773 4379.5 223.169 4383.11C219.565 4386.71 218.02 4392.38 218.02 4399.07V4424.81C218.02 4432.02 219.565 4437.68 223.169 4441.29C226.258 4445.41 231.407 4446.95 238.1 4446.95Z" fill="#F9893D" fill-opacity="0.5"/>
<path opacity="0.73" d="M242.22 4607.07V4522.63H239.645L226.774 4553.52H208.238L228.318 4509.76H260.24V4607.07H242.22Z" fill="#F9893D" fill-opacity="0.5"/>
<path opacity="0.73" d="M238.1 4754.83C226.773 4754.83 217.506 4751.74 210.297 4745.56C203.089 4739.38 200 4729.6 200 4716.73V4692.02C200 4679.66 203.604 4669.88 210.297 4663.7C216.991 4657.52 226.258 4653.92 238.1 4653.92C249.942 4653.92 258.695 4657.01 265.903 4663.7C273.112 4670.39 276.201 4679.66 276.201 4692.02V4716.73C276.201 4729.6 272.597 4739.38 265.903 4745.56C258.695 4751.74 249.428 4754.83 238.1 4754.83ZM238.1 4738.87C245.309 4738.87 249.942 4736.81 253.547 4733.2C256.636 4729.6 258.695 4723.94 258.695 4716.73V4690.99C258.695 4683.78 256.636 4678.63 253.032 4675.03C249.428 4671.42 244.279 4669.36 238.1 4669.36C231.922 4669.36 226.773 4671.42 223.169 4675.03C219.565 4678.63 218.02 4684.29 218.02 4690.99V4716.73C218.02 4723.94 219.565 4729.6 223.169 4733.2C226.258 4737.32 231.407 4738.87 238.1 4738.87Z" fill="#F9893D" fill-opacity="0.5"/>
<path opacity="0.73" d="M242.22 4898.98V4814.55H239.645L226.774 4845.44H208.238L228.318 4801.68H260.24V4898.98H242.22Z" fill="#F9893D" fill-opacity="0.5"/>
<path opacity="0.73" d="M238.1 5046.74C226.773 5046.74 217.506 5043.66 210.297 5037.48C203.089 5031.3 200 5021.52 200 5008.65V4983.93C200 4971.58 203.604 4961.8 210.297 4955.62C217.506 4948.92 226.258 4945.83 238.1 4945.83C249.942 4945.83 258.695 4948.92 265.903 4955.62C272.597 4962.31 276.201 4971.58 276.201 4983.93V5008.65C276.201 5021.52 272.597 5031.3 265.903 5037.48C258.695 5043.66 249.428 5046.74 238.1 5046.74ZM238.1 5030.78C245.309 5030.78 249.942 5028.73 253.547 5025.12C256.636 5021.52 258.695 5015.85 258.695 5008.65V4982.9C258.695 4975.7 256.636 4970.55 253.032 4966.94C249.428 4963.34 244.279 4961.28 238.1 4961.28C231.922 4961.28 226.773 4963.34 223.169 4966.94C219.565 4970.55 218.02 4976.21 218.02 4982.9V5008.65C218.02 5015.85 219.565 5021.52 223.169 5025.12C226.258 5029.24 231.407 5030.78 238.1 5030.78Z" fill="#F9893D" fill-opacity="0.5"/>
<path d="M242.22 5190.9V5106.47H239.645L226.774 5137.36H208.238L228.318 5093.6H260.24V5190.9H242.22Z" fill="#F9893D" fill-opacity="0.5"/>
<path d="M238.1 5338.66C226.773 5338.66 217.506 5335.57 210.297 5329.4C203.089 5323.22 200 5313.44 200 5300.56V5275.85C200 5263.5 203.604 5253.71 210.297 5247.54C217.506 5240.84 226.258 5237.75 238.1 5237.75C249.942 5237.75 258.695 5240.84 265.903 5247.54C272.597 5254.23 276.201 5263.5 276.201 5275.85V5300.56C276.201 5313.44 272.597 5323.22 265.903 5329.4C258.695 5335.57 249.428 5338.66 238.1 5338.66ZM238.1 5322.7C245.309 5322.7 249.942 5320.64 253.547 5317.04C256.636 5313.44 258.695 5307.77 258.695 5300.56V5274.82C258.695 5267.61 256.636 5262.47 253.032 5258.86C249.428 5255.26 244.279 5253.2 238.1 5253.2C231.922 5253.2 226.773 5255.26 223.169 5258.86C219.565 5262.47 218.02 5268.13 218.02 5274.82V5300.56C218.02 5307.77 219.565 5313.44 223.169 5317.04C226.258 5321.16 231.407 5322.7 238.1 5322.7Z" fill="#F9893D" fill-opacity="0.5"/>
<path opacity="0.78" d="M242.22 5482.82V5398.39H239.645L226.774 5429.28H208.238L228.318 5385.51H260.24V5482.82H242.22Z" fill="#F9893D" fill-opacity="0.5"/>
<path opacity="0.78" d="M238.1 5630.58C226.773 5630.58 217.506 5627.49 210.297 5621.31C203.089 5615.13 200 5605.35 200 5592.48V5567.77C200 5555.41 203.604 5545.63 210.297 5539.45C216.991 5533.27 226.258 5529.67 238.1 5529.67C249.942 5529.67 258.695 5532.76 265.903 5539.45C273.112 5546.15 276.201 5555.41 276.201 5567.77V5592.48C276.201 5605.35 272.597 5615.13 265.903 5621.31C258.695 5627.49 249.428 5630.58 238.1 5630.58ZM238.1 5614.62C245.309 5614.62 249.942 5612.56 253.547 5608.96C256.636 5605.35 258.695 5599.69 258.695 5592.48V5566.74C258.695 5559.53 256.636 5554.38 253.032 5550.78C249.428 5547.18 244.279 5545.12 238.1 5545.12C231.922 5545.12 226.773 5547.18 223.169 5550.78C219.565 5554.38 218.02 5560.05 218.02 5566.74V5592.48C218.02 5599.69 219.565 5605.35 223.169 5608.96C226.258 5613.08 231.407 5614.62 238.1 5614.62Z" fill="#F9893D" fill-opacity="0.5"/>
<path opacity="0.78" d="M242.22 5774.74V5690.3H239.645L226.774 5721.19H208.238L228.318 5677.43H260.24V5774.74H242.22Z" fill="#F9893D" fill-opacity="0.5"/>
<path opacity="0.78" d="M238.1 5922.5C226.773 5922.5 217.506 5919.41 210.297 5913.23C203.089 5907.05 200 5897.27 200 5884.4V5859.69C200 5847.33 203.604 5837.55 210.297 5831.37C216.991 5825.19 226.258 5821.59 238.1 5821.59C249.942 5821.59 258.695 5824.68 265.903 5831.37C273.112 5838.06 276.201 5847.33 276.201 5859.69V5884.4C276.201 5897.27 272.597 5907.05 265.903 5913.23C259.21 5919.41 249.428 5922.5 238.1 5922.5ZM238.1 5906.54C245.309 5906.54 249.942 5904.48 253.547 5900.88C256.636 5897.27 258.695 5891.61 258.695 5884.4V5858.66C258.695 5851.45 256.636 5846.3 253.032 5842.7C249.428 5839.09 244.279 5837.03 238.1 5837.03C231.922 5837.03 226.773 5839.09 223.169 5842.7C219.565 5846.3 218.02 5851.97 218.02 5858.66V5884.4C218.02 5891.61 219.565 5897.27 223.169 5900.88C226.258 5904.99 231.407 5906.54 238.1 5906.54Z" fill="#F9893D" fill-opacity="0.5"/>
<path d="M242.22 6066.66V5982.22H239.645L226.774 6013.11H208.238L228.318 5969.35H260.24V6066.66H242.22Z" fill="#F9893D" fill-opacity="0.5"/>
<path d="M242.22 6212.36V6127.92H239.645L226.774 6158.81H208.238L228.318 6115.05H260.24V6212.36H242.22Z" fill="#F9893D" fill-opacity="0.5"/>
<path d="M242.22 6358.57V6274.14H239.645L226.774 6305.03H208.238L228.318 6261.27H260.24V6358.57H242.22Z" fill="#F9893D" fill-opacity="0.5"/>
<path d="M238.1 6506.33C226.773 6506.33 217.506 6503.24 210.297 6497.07C203.089 6490.89 200 6481.11 200 6468.23V6443.52C200 6431.17 203.604 6421.38 210.297 6415.21C217.506 6408.51 226.258 6405.42 238.1 6405.42C249.942 6405.42 258.695 6408.51 265.903 6415.21C272.597 6421.9 276.201 6431.17 276.201 6443.52V6468.23C276.201 6481.11 272.597 6490.89 265.903 6497.07C258.695 6503.24 249.428 6506.33 238.1 6506.33ZM238.1 6490.37C245.309 6490.37 249.942 6488.31 253.547 6484.71C256.636 6481.11 258.695 6475.44 258.695 6468.23V6442.49C258.695 6435.28 256.636 6430.14 253.032 6426.53C249.428 6422.93 244.279 6420.87 238.1 6420.87C231.922 6420.87 226.773 6422.93 223.169 6426.53C219.565 6430.14 218.02 6435.8 218.02 6442.49V6468.23C218.02 6475.44 219.565 6481.11 223.169 6484.71C226.258 6488.83 231.407 6490.37 238.1 6490.37Z" fill="#F9893D" fill-opacity="0.5"/>
<path d="M238.1 6652.55C226.773 6652.55 217.506 6649.46 210.297 6643.28C203.089 6637.1 200 6627.32 200 6614.45V6589.74C200 6577.38 203.604 6567.6 210.297 6561.42C216.991 6555.24 226.258 6551.64 238.1 6551.64C249.942 6551.64 258.695 6554.73 265.903 6561.42C273.112 6568.12 276.201 6577.38 276.201 6589.74V6614.45C276.201 6627.32 272.597 6637.1 265.903 6643.28C259.21 6649.46 249.428 6652.55 238.1 6652.55ZM238.1 6636.59C245.309 6636.59 249.942 6634.53 253.547 6630.93C256.636 6627.32 258.695 6621.66 258.695 6614.45V6588.71C258.695 6581.5 256.636 6576.35 253.032 6572.75C249.428 6569.15 244.279 6567.09 238.1 6567.09C231.922 6567.09 226.773 6569.15 223.169 6572.75C219.565 6576.35 218.02 6582.02 218.02 6588.71V6614.45C218.02 6621.66 219.565 6627.32 223.169 6630.93C226.258 6634.53 231.407 6636.59 238.1 6636.59Z" fill="#F9893D" fill-opacity="0.5"/>
<path d="M242.22 6796.19V6711.76H239.645L226.774 6742.65H208.238L228.318 6698.89H260.24V6796.19H242.22Z" fill="#F9893D" fill-opacity="0.5"/>
</g>
<g opacity="0.46">
<path d="M514.3 3740.91C502.972 3740.91 493.705 3737.82 486.497 3731.64C479.288 3725.46 476.199 3715.68 476.199 3702.81V3678.1C476.199 3665.74 479.803 3655.96 486.497 3649.78C493.19 3643.6 502.458 3640 514.3 3640C526.142 3640 534.894 3643.09 542.103 3649.78C549.311 3656.48 552.4 3665.74 552.4 3678.1V3702.81C552.4 3715.68 548.796 3725.46 542.103 3731.64C535.409 3737.82 525.627 3740.91 514.3 3740.91ZM514.3 3724.95C521.508 3724.95 526.142 3722.89 529.746 3719.29C532.835 3715.68 534.894 3710.02 534.894 3702.81V3677.07C534.894 3669.86 532.835 3664.71 529.231 3661.11C525.627 3657.5 520.478 3655.45 514.3 3655.45C508.121 3655.45 502.972 3657.5 499.368 3661.11C495.764 3664.71 494.22 3670.38 494.22 3677.07V3702.81C494.22 3710.02 495.764 3715.68 499.368 3719.29C502.458 3723.41 507.606 3724.95 514.3 3724.95Z" fill="#F9893D" fill-opacity="0.5"/>
<path opacity="0.73" d="M518.419 3885.07V3800.63H515.844L502.973 3831.52H484.438L504.517 3787.76H536.439V3885.07H518.419Z" fill="#F9893D" fill-opacity="0.5"/>
<path opacity="0.73" d="M514.3 4032.83C502.972 4032.83 493.705 4029.74 486.497 4023.56C479.288 4017.38 476.199 4007.6 476.199 3994.73V3970.02C476.199 3957.66 479.803 3947.88 486.497 3941.7C493.19 3935.52 502.458 3931.92 514.3 3931.92C526.142 3931.92 534.894 3935.01 542.103 3941.7C549.311 3948.39 552.4 3957.66 552.4 3970.02V3994.73C552.4 4007.6 548.796 4017.38 542.103 4023.56C534.894 4029.74 525.627 4032.83 514.3 4032.83ZM514.3 4016.87C521.508 4016.87 526.142 4014.81 529.746 4011.2C532.835 4007.6 534.894 4001.94 534.894 3994.73V3968.99C534.894 3961.78 532.835 3956.63 529.231 3953.03C525.627 3949.42 520.478 3947.36 514.3 3947.36C508.121 3947.36 502.972 3949.42 499.368 3953.03C495.764 3956.63 494.22 3962.29 494.22 3968.99V3994.73C494.22 4001.94 495.764 4007.6 499.368 4011.2C502.458 4015.32 507.606 4016.87 514.3 4016.87Z" fill="#F9893D" fill-opacity="0.5"/>
<path opacity="0.73" d="M518.419 4176.98V4092.55H515.844L502.973 4123.44H484.438L504.517 4079.68H536.439V4176.98H518.419Z" fill="#F9893D" fill-opacity="0.5"/>
<path opacity="0.73" d="M514.3 4324.74C502.972 4324.74 493.705 4321.66 486.497 4315.48C479.288 4309.3 476.199 4299.52 476.199 4286.65V4261.93C476.199 4249.58 479.803 4239.8 486.497 4233.62C493.705 4226.92 502.458 4223.83 514.3 4223.83C526.142 4223.83 534.894 4226.92 542.103 4233.62C548.796 4240.31 552.4 4249.58 552.4 4261.93V4286.65C552.4 4299.52 548.796 4309.3 542.103 4315.48C534.894 4321.66 525.627 4324.74 514.3 4324.74ZM514.3 4308.78C521.508 4308.78 526.142 4306.73 529.746 4303.12C532.835 4299.52 534.894 4293.85 534.894 4286.65V4260.9C534.894 4253.7 532.835 4248.55 529.231 4244.94C525.627 4241.34 520.478 4239.28 514.3 4239.28C508.121 4239.28 502.972 4241.34 499.368 4244.94C495.764 4248.55 494.22 4254.21 494.22 4260.9V4286.65C494.22 4293.85 495.764 4299.52 499.368 4303.12C502.458 4307.24 507.606 4308.78 514.3 4308.78Z" fill="#F9893D" fill-opacity="0.5"/>
<path d="M518.419 4468.9V4384.47H515.844L502.973 4415.36H484.438L504.517 4371.6H536.439V4468.9H518.419Z" fill="#F9893D" fill-opacity="0.5"/>
<path d="M514.3 4616.66C502.972 4616.66 493.705 4613.57 486.497 4607.4C479.288 4601.22 476.199 4591.44 476.199 4578.56V4553.85C476.199 4541.5 479.803 4531.71 486.497 4525.54C493.705 4518.84 502.458 4515.75 514.3 4515.75C526.142 4515.75 534.894 4518.84 542.103 4525.54C548.796 4532.23 552.4 4541.5 552.4 4553.85V4578.56C552.4 4591.44 548.796 4601.22 542.103 4607.4C534.894 4613.57 525.627 4616.66 514.3 4616.66ZM514.3 4600.7C521.508 4600.7 526.142 4598.64 529.746 4595.04C532.835 4591.44 534.894 4585.77 534.894 4578.56V4552.82C534.894 4545.61 532.835 4540.47 529.231 4536.86C525.627 4533.26 520.478 4531.2 514.3 4531.2C508.121 4531.2 502.972 4533.26 499.368 4536.86C495.764 4540.47 494.22 4546.13 494.22 4552.82V4578.56C494.22 4585.77 495.764 4591.44 499.368 4595.04C502.458 4599.16 507.606 4600.7 514.3 4600.7Z" fill="#F9893D" fill-opacity="0.5"/>
<path opacity="0.78" d="M518.419 4760.82V4676.39H515.844L502.973 4707.28H484.438L504.517 4663.51H536.439V4760.82H518.419Z" fill="#F9893D" fill-opacity="0.5"/>
<path opacity="0.78" d="M514.3 4908.58C502.972 4908.58 493.705 4905.49 486.497 4899.31C479.288 4893.13 476.199 4883.35 476.199 4870.48V4845.77C476.199 4833.41 479.803 4823.63 486.497 4817.45C493.19 4811.27 502.458 4807.67 514.3 4807.67C526.142 4807.67 534.894 4810.76 542.103 4817.45C549.311 4824.15 552.4 4833.41 552.4 4845.77V4870.48C552.4 4883.35 548.796 4893.13 542.103 4899.31C534.894 4905.49 525.627 4908.58 514.3 4908.58ZM514.3 4892.62C521.508 4892.62 526.142 4890.56 529.746 4886.96C532.835 4883.35 534.894 4877.69 534.894 4870.48V4844.74C534.894 4837.53 532.835 4832.38 529.231 4828.78C525.627 4825.18 520.478 4823.12 514.3 4823.12C508.121 4823.12 502.972 4825.18 499.368 4828.78C495.764 4832.38 494.22 4838.05 494.22 4844.74V4870.48C494.22 4877.69 495.764 4883.35 499.368 4886.96C502.458 4891.08 507.606 4892.62 514.3 4892.62Z" fill="#F9893D" fill-opacity="0.5"/>
<path opacity="0.78" d="M518.419 5052.74V4968.3H515.844L502.973 4999.19H484.438L504.517 4955.43H536.439V5052.74H518.419Z" fill="#F9893D" fill-opacity="0.5"/>
<path opacity="0.78" d="M514.3 5200.5C502.972 5200.5 493.705 5197.41 486.497 5191.23C479.288 5185.05 476.199 5175.27 476.199 5162.4V5137.69C476.199 5125.33 479.803 5115.55 486.497 5109.37C493.19 5103.19 502.458 5099.59 514.3 5099.59C526.142 5099.59 534.894 5102.68 542.103 5109.37C549.311 5116.06 552.4 5125.33 552.4 5137.69V5162.4C552.4 5175.27 548.796 5185.05 542.103 5191.23C535.409 5197.41 525.627 5200.5 514.3 5200.5ZM514.3 5184.54C521.508 5184.54 526.142 5182.48 529.746 5178.88C532.835 5175.27 534.894 5169.61 534.894 5162.4V5136.66C534.894 5129.45 532.835 5124.3 529.231 5120.7C525.627 5117.09 520.478 5115.03 514.3 5115.03C508.121 5115.03 502.972 5117.09 499.368 5120.7C495.764 5124.3 494.22 5129.97 494.22 5136.66V5162.4C494.22 5169.61 495.764 5175.27 499.368 5178.88C502.458 5182.99 507.606 5184.54 514.3 5184.54Z" fill="#F9893D" fill-opacity="0.5"/>
<path d="M518.419 5344.66V5260.22H515.844L502.973 5291.11H484.438L504.517 5247.35H536.439V5344.66H518.419Z" fill="#F9893D" fill-opacity="0.5"/>
<path d="M518.419 5490.36V5405.92H515.844L502.973 5436.81H484.438L504.517 5393.05H536.439V5490.36H518.419Z" fill="#F9893D" fill-opacity="0.5"/>
<path d="M518.419 5636.57V5552.14H515.844L502.973 5583.03H484.438L504.517 5539.27H536.439V5636.57H518.419Z" fill="#F9893D" fill-opacity="0.5"/>
<path d="M514.3 5784.33C502.972 5784.33 493.705 5781.24 486.497 5775.07C479.288 5768.89 476.199 5759.11 476.199 5746.23V5721.52C476.199 5709.17 479.803 5699.38 486.497 5693.21C493.705 5686.51 502.458 5683.42 514.3 5683.42C526.142 5683.42 534.894 5686.51 542.103 5693.21C548.796 5699.9 552.4 5709.17 552.4 5721.52V5746.23C552.4 5759.11 548.796 5768.89 542.103 5775.07C534.894 5781.24 525.627 5784.33 514.3 5784.33ZM514.3 5768.37C521.508 5768.37 526.142 5766.31 529.746 5762.71C532.835 5759.11 534.894 5753.44 534.894 5746.23V5720.49C534.894 5713.28 532.835 5708.14 529.231 5704.53C525.627 5700.93 520.478 5698.87 514.3 5698.87C508.121 5698.87 502.972 5700.93 499.368 5704.53C495.764 5708.14 494.22 5713.8 494.22 5720.49V5746.23C494.22 5753.44 495.764 5759.11 499.368 5762.71C502.458 5766.83 507.606 5768.37 514.3 5768.37Z" fill="#F9893D" fill-opacity="0.5"/>
<path d="M514.3 5930.55C502.972 5930.55 493.705 5927.46 486.497 5921.28C479.288 5915.1 476.199 5905.32 476.199 5892.45V5867.74C476.199 5855.38 479.803 5845.6 486.497 5839.42C493.19 5833.24 502.458 5829.64 514.3 5829.64C526.142 5829.64 534.894 5832.73 542.103 5839.42C549.311 5846.12 552.4 5855.38 552.4 5867.74V5892.45C552.4 5905.32 548.796 5915.1 542.103 5921.28C535.409 5927.46 525.627 5930.55 514.3 5930.55ZM514.3 5914.59C521.508 5914.59 526.142 5912.53 529.746 5908.93C532.835 5905.32 534.894 5899.66 534.894 5892.45V5866.71C534.894 5859.5 532.835 5854.35 529.231 5850.75C525.627 5847.15 520.478 5845.09 514.3 5845.09C508.121 5845.09 502.972 5847.15 499.368 5850.75C495.764 5854.35 494.22 5860.02 494.22 5866.71V5892.45C494.22 5899.66 495.764 5905.32 499.368 5908.93C502.458 5912.53 507.606 5914.59 514.3 5914.59Z" fill="#F9893D" fill-opacity="0.5"/>
<path d="M518.419 6074.19V5989.76H515.844L502.973 6020.65H484.438L504.517 5976.89H536.439V6074.19H518.419Z" fill="#F9893D" fill-opacity="0.5"/>
</g>
<g opacity="0.18">
<path d="M500.914 84.4051V12.3266H498.855L487.527 38.5838H471.566L488.557 1H515.845V84.4051H500.914Z" fill="#F9893D" fill-opacity="0.5"/>
<path d="M497.312 210.026C487.529 210.026 479.806 207.452 473.628 201.789C467.449 196.125 464.875 188.403 464.875 177.076V156.482C464.875 145.67 467.964 137.948 473.628 132.284C479.291 126.621 487.529 124.047 497.312 124.047C507.094 124.047 514.817 126.621 520.996 132.284C526.659 137.948 529.749 146.185 529.749 156.482V177.076C529.749 187.888 526.659 196.125 520.996 201.789C514.817 207.452 507.094 210.026 497.312 210.026ZM497.312 196.64C502.975 196.64 507.609 195.096 510.184 192.007C512.758 188.917 514.303 184.284 514.303 178.106V155.967C514.303 149.789 512.758 145.156 509.669 142.066C506.579 138.977 502.461 137.433 497.312 137.433C491.648 137.433 487.529 138.977 484.44 142.066C481.351 145.156 479.806 149.789 479.806 155.452V177.591C479.806 183.769 481.351 188.403 483.925 191.492C487.014 195.096 491.648 196.64 497.312 196.64Z" fill="#F9893D" fill-opacity="0.5"/>
<path d="M500.918 333.077V260.999H498.858L487.531 287.256H471.57L488.561 249.672H515.849V332.562H500.918V333.077Z" fill="#F9893D" fill-opacity="0.5"/>
<path d="M500.914 457.156V385.592H498.855L487.527 411.849H471.566L488.557 374.266H515.845V457.156H500.914Z" fill="#F9893D" fill-opacity="0.5"/>
<path d="M500.918 581.743V509.664H498.858L487.531 535.921H471.57L489.076 498.852H516.364V581.743H500.918Z" fill="#F9893D" fill-opacity="0.5"/>
<path d="M497.312 707.37C487.529 707.37 479.806 704.796 473.628 699.132C467.449 693.469 464.875 685.746 464.875 674.42V653.826C464.875 643.014 467.964 635.291 473.628 629.628C479.291 623.965 487.529 621.391 497.312 621.391C507.094 621.391 514.817 623.965 520.996 629.628C526.659 635.291 529.749 643.529 529.749 653.826V674.42C529.749 685.232 526.659 693.469 520.996 699.132C514.817 704.796 507.094 707.37 497.312 707.37ZM497.312 693.984C502.975 693.984 507.609 692.439 510.184 689.35C512.758 686.261 514.303 681.628 514.303 675.449V653.311C514.303 647.133 512.758 642.499 509.669 639.41C506.579 636.321 502.461 634.777 497.312 634.777C491.648 634.777 487.529 636.321 484.44 639.41C481.351 642.499 479.806 647.133 479.806 652.796V674.935C479.806 681.113 481.351 685.746 483.925 688.835C487.014 692.439 491.648 693.984 497.312 693.984Z" fill="#F9893D" fill-opacity="0.5"/>
<path d="M497.312 831.964C487.529 831.964 479.806 829.39 473.628 823.726C467.449 818.063 464.875 810.34 464.875 799.014V778.42C464.875 767.608 467.964 759.885 473.628 754.222C479.291 748.559 487.529 745.984 497.312 745.984C507.094 745.984 514.817 748.559 520.996 754.222C526.659 759.885 529.749 768.123 529.749 778.42V799.014C529.749 809.825 526.659 818.063 520.996 823.726C514.817 829.39 507.094 831.964 497.312 831.964ZM497.312 818.578C502.975 818.578 507.609 817.033 510.184 813.944C512.758 810.855 514.303 806.221 514.303 800.043V777.905C514.303 771.727 512.758 767.093 509.669 764.004C506.579 760.915 502.461 759.37 497.312 759.37C491.648 759.37 487.529 760.915 484.44 764.004C481.351 767.093 479.806 771.727 479.806 777.39V799.528C479.806 805.707 481.351 810.34 483.925 813.429C487.014 817.033 491.648 818.578 497.312 818.578Z" fill="#F9893D" fill-opacity="0.5"/>
<path d="M500.918 954.493V882.929H498.858L487.531 909.186H471.57L488.561 871.602H515.849V954.493H500.918Z" fill="#F9893D" fill-opacity="0.5"/>
<path d="M497.312 1080.63C487.529 1080.63 479.806 1078.06 473.628 1072.39C467.449 1066.73 464.875 1059.01 464.875 1047.68V1027.09C464.875 1016.28 467.964 1008.55 473.628 1002.89C479.291 997.223 487.529 994.648 497.312 994.648C507.094 994.648 514.817 997.223 520.996 1002.89C526.659 1008.55 529.749 1016.79 529.749 1027.09V1047.68C529.749 1058.49 526.659 1066.73 520.996 1072.39C514.817 1078.06 507.094 1080.63 497.312 1080.63ZM497.312 1067.25C502.975 1067.25 507.609 1065.7 510.184 1062.61C512.758 1059.52 514.303 1054.89 514.303 1048.71V1026.57C514.303 1020.39 512.758 1015.76 509.669 1012.67C506.579 1009.58 502.461 1008.04 497.312 1008.04C491.648 1008.04 487.529 1009.58 484.44 1012.67C481.351 1015.76 479.806 1020.39 479.806 1026.06V1048.2C479.806 1054.37 481.351 1059.01 483.925 1062.1C487.014 1065.7 491.648 1067.25 497.312 1067.25Z" fill="#F9893D" fill-opacity="0.5"/>
<path opacity="0.78" d="M500.914 1203.17V1131.6H498.855L487.527 1157.86H471.566L488.557 1120.28H515.845V1203.17H500.914Z" fill="#F9893D" fill-opacity="0.5"/>
<path opacity="0.78" d="M497.312 1329.3C487.529 1329.3 479.806 1326.73 473.628 1321.07C467.449 1315.4 464.875 1307.68 464.875 1296.35V1275.76C464.875 1264.95 467.964 1257.23 473.628 1251.56C479.291 1245.9 487.529 1243.32 497.312 1243.32C507.094 1243.32 514.817 1245.9 520.996 1251.56C526.659 1257.23 529.749 1265.46 529.749 1275.76V1296.35C529.749 1307.17 526.659 1315.4 520.996 1321.07C514.817 1326.73 507.094 1329.3 497.312 1329.3ZM497.312 1315.92C502.975 1315.92 507.609 1314.37 510.184 1311.28C512.758 1308.19 514.303 1303.56 514.303 1297.38V1275.24C514.303 1269.07 512.758 1264.43 509.669 1261.34C506.579 1258.25 502.461 1256.71 497.312 1256.71C491.648 1256.71 487.529 1258.25 484.44 1261.34C481.351 1264.43 479.806 1269.07 479.806 1274.73V1296.87C479.806 1303.05 481.351 1307.68 483.925 1310.77C487.014 1314.37 491.648 1315.92 497.312 1315.92Z" fill="#F9893D" fill-opacity="0.5"/>
<path opacity="0.78" d="M497.312 1453.38C487.529 1453.38 479.806 1450.81 473.628 1445.14C467.449 1439.48 464.875 1431.76 464.875 1420.43V1399.84C464.875 1389.03 467.964 1381.3 473.628 1375.64C479.291 1369.98 487.529 1367.4 497.312 1367.4C507.094 1367.4 514.817 1369.98 520.996 1375.64C526.659 1381.3 529.749 1389.54 529.749 1399.84V1420.43C529.749 1431.24 526.659 1439.48 520.996 1445.14C514.817 1450.81 507.094 1453.38 497.312 1453.38ZM497.312 1440C502.975 1440 507.609 1438.45 510.184 1435.36C512.758 1432.27 514.303 1427.64 514.303 1421.46V1399.32C514.303 1393.14 512.758 1388.51 509.669 1385.42C506.579 1382.33 502.461 1380.79 497.312 1380.79C491.648 1380.79 487.529 1382.33 484.44 1385.42C481.351 1388.51 479.806 1393.14 479.806 1398.81V1420.95C479.806 1427.12 481.351 1431.76 483.925 1434.85C487.014 1438.45 491.648 1440 497.312 1440Z" fill="#F9893D" fill-opacity="0.5"/>
<path d="M500.914 1576.43V1504.87H498.855L487.527 1531.12H471.566L488.557 1493.54H515.845V1576.43H500.914Z" fill="#F9893D" fill-opacity="0.5"/>
<path d="M497.312 1702.05C487.529 1702.05 479.806 1699.48 473.628 1693.81C467.449 1688.15 464.875 1680.43 464.875 1669.1V1648.51C464.875 1637.7 467.964 1629.97 473.628 1624.31C479.291 1618.65 487.529 1616.07 497.312 1616.07C507.094 1616.07 514.817 1618.65 520.996 1624.31C526.659 1629.97 529.749 1638.21 529.749 1648.51V1669.1C529.749 1679.91 526.659 1688.15 520.996 1693.81C514.817 1699.48 507.094 1702.05 497.312 1702.05ZM497.312 1688.67C502.975 1688.67 507.609 1687.12 510.184 1684.03C512.758 1680.94 514.303 1676.31 514.303 1670.13V1647.99C514.303 1641.81 512.758 1637.18 509.669 1634.09C506.579 1631 502.461 1629.46 497.312 1629.46C491.648 1629.46 487.529 1631 484.44 1634.09C481.351 1637.18 479.806 1641.81 479.806 1647.48V1669.62C479.806 1675.79 481.351 1680.43 483.925 1683.52C487.014 1687.12 491.648 1688.67 497.312 1688.67Z" fill="#F9893D" fill-opacity="0.5"/>
<path d="M500.918 1825.1V1753.54H498.858L487.531 1779.79H471.57L488.561 1742.21H515.849V1825.1H500.918Z" fill="#F9893D" fill-opacity="0.5"/>
<path d="M497.312 1950.72C487.529 1950.72 479.806 1948.15 473.628 1942.48C467.449 1936.82 464.875 1929.1 464.875 1917.77V1897.18C464.875 1886.37 467.964 1878.64 473.628 1872.98C479.291 1867.32 487.529 1864.74 497.312 1864.74C507.094 1864.74 514.817 1867.32 520.996 1872.98C526.659 1878.64 529.749 1886.88 529.749 1897.18V1917.77C529.749 1928.58 526.659 1936.82 520.996 1942.48C514.817 1948.15 507.094 1950.72 497.312 1950.72ZM497.312 1937.34C502.975 1937.34 507.609 1935.79 510.184 1932.7C512.758 1929.61 514.303 1924.98 514.303 1918.8V1896.66C514.303 1890.48 512.758 1885.85 509.669 1882.76C506.579 1879.67 502.461 1878.13 497.312 1878.13C491.648 1878.13 487.529 1879.67 484.44 1882.76C481.351 1885.85 479.806 1890.48 479.806 1896.15V1918.29C479.806 1924.46 481.351 1929.1 483.925 1932.19C487.014 1935.79 491.648 1937.34 497.312 1937.34Z" fill="#F9893D" fill-opacity="0.5"/>
<path d="M500.918 2073.77V2002.21H498.858L487.531 2028.46H471.57L488.561 1990.88H515.849V2073.77H500.918Z" fill="#F9893D" fill-opacity="0.5"/>
<path d="M497.312 2199.39C487.529 2199.39 479.806 2196.82 473.628 2191.16C467.449 2185.49 464.875 2177.77 464.875 2166.44V2145.85C464.875 2135.04 467.964 2127.31 473.628 2121.65C479.291 2115.99 487.529 2113.41 497.312 2113.41C507.094 2113.41 514.817 2115.99 520.996 2121.65C526.659 2127.31 529.749 2135.55 529.749 2145.85V2166.44C529.749 2177.25 526.659 2185.49 520.996 2191.16C514.817 2196.82 507.094 2199.39 497.312 2199.39ZM497.312 2186.01C502.975 2186.01 507.609 2184.46 510.184 2181.37C512.758 2178.28 514.303 2173.65 514.303 2167.47V2145.33C514.303 2139.16 512.758 2134.52 509.669 2131.43C506.579 2128.34 502.461 2126.8 497.312 2126.8C491.648 2126.8 487.529 2128.34 484.44 2131.43C481.351 2134.52 479.806 2139.16 479.806 2144.82V2166.96C479.806 2173.14 481.351 2177.77 483.925 2180.86C487.014 2184.46 491.648 2186.01 497.312 2186.01Z" fill="#F9893D" fill-opacity="0.5"/>
<path d="M500.914 2322.44V2250.88H498.855L487.527 2277.13H471.566L488.557 2239.55H515.845V2322.44H500.914Z" fill="#F9893D" fill-opacity="0.5"/>
</g>
<g opacity="0.18">
<path d="M1696.4 165.048V106.241H1694.72L1685.48 127.664H1672.46L1686.32 97H1708.59V165.048H1696.4Z" fill="#F9893D" fill-opacity="0.5"/>
<path d="M1693.46 267.539C1685.48 267.539 1679.18 265.438 1674.14 260.818C1669.1 256.197 1667 249.897 1667 240.656V223.854C1667 215.033 1669.52 208.732 1674.14 204.111C1678.76 199.491 1685.48 197.391 1693.46 197.391C1701.45 197.391 1707.75 199.491 1712.79 204.111C1717.41 208.732 1719.93 215.453 1719.93 223.854V240.656C1719.93 249.477 1717.41 256.197 1712.79 260.818C1707.75 265.438 1701.45 267.539 1693.46 267.539ZM1693.46 256.617C1698.09 256.617 1701.87 255.357 1703.97 252.837C1706.07 250.317 1707.33 246.536 1707.33 241.496V223.434C1707.33 218.393 1706.07 214.613 1703.55 212.092C1701.03 209.572 1697.67 208.312 1693.46 208.312C1688.84 208.312 1685.48 209.572 1682.96 212.092C1680.44 214.613 1679.18 218.393 1679.18 223.014V241.076C1679.18 246.116 1680.44 249.897 1682.54 252.417C1685.06 255.357 1688.84 256.617 1693.46 256.617Z" fill="#F9893D" fill-opacity="0.5"/>
<path d="M1696.4 367.931V309.124H1694.72L1685.48 330.546H1672.46L1686.32 299.883H1708.59V367.511H1696.4V367.931Z" fill="#F9893D" fill-opacity="0.5"/>
<path d="M1696.4 469.159V410.772H1694.72L1685.48 432.195H1672.46L1686.32 401.531H1708.59V469.159H1696.4Z" fill="#F9893D" fill-opacity="0.5"/>
<path d="M1696.4 570.815V512.008H1694.72L1685.48 533.431H1672.46L1686.74 503.188H1709.01V570.815H1696.4Z" fill="#F9893D" fill-opacity="0.5"/>
<path d="M1693.46 673.304C1685.48 673.304 1679.18 671.204 1674.14 666.584C1669.1 661.963 1667 655.662 1667 646.421V629.619C1667 620.798 1669.52 614.498 1674.14 609.877C1678.76 605.256 1685.48 603.156 1693.46 603.156C1701.45 603.156 1707.75 605.256 1712.79 609.877C1717.41 614.498 1719.93 621.218 1719.93 629.619V646.421C1719.93 655.242 1717.41 661.963 1712.79 666.584C1707.75 671.204 1701.45 673.304 1693.46 673.304ZM1693.46 662.383C1698.09 662.383 1701.87 661.123 1703.97 658.603C1706.07 656.082 1707.33 652.302 1707.33 647.261V629.199C1707.33 624.159 1706.07 620.378 1703.55 617.858C1701.03 615.338 1697.67 614.077 1693.46 614.077C1688.84 614.077 1685.48 615.338 1682.96 617.858C1680.44 620.378 1679.18 624.159 1679.18 628.779V646.841C1679.18 651.882 1680.44 655.662 1682.54 658.183C1685.06 661.123 1688.84 662.383 1693.46 662.383Z" fill="#F9893D" fill-opacity="0.5"/>
<path d="M1693.46 774.961C1685.48 774.961 1679.18 772.86 1674.14 768.24C1669.1 763.619 1667 757.319 1667 748.078V731.276C1667 722.455 1669.52 716.154 1674.14 711.533C1678.76 706.913 1685.48 704.812 1693.46 704.812C1701.45 704.812 1707.75 706.913 1712.79 711.533C1717.41 716.154 1719.93 722.875 1719.93 731.276V748.078C1719.93 756.899 1717.41 763.619 1712.79 768.24C1707.75 772.86 1701.45 774.961 1693.46 774.961ZM1693.46 764.039C1698.09 764.039 1701.87 762.779 1703.97 760.259C1706.07 757.739 1707.33 753.958 1707.33 748.918V730.856C1707.33 725.815 1706.07 722.035 1703.55 719.514C1701.03 716.994 1697.67 715.734 1693.46 715.734C1688.84 715.734 1685.48 716.994 1682.96 719.514C1680.44 722.035 1679.18 725.815 1679.18 730.436V748.497C1679.18 753.537 1680.44 757.319 1682.54 759.839C1685.06 762.779 1688.84 764.039 1693.46 764.039Z" fill="#F9893D" fill-opacity="0.5"/>
<path d="M1696.4 874.933V816.546H1694.72L1685.48 837.968H1672.46L1686.32 807.305H1708.59V874.933H1696.4Z" fill="#F9893D" fill-opacity="0.5"/>
<path d="M1693.46 977.843C1685.48 977.843 1679.18 975.743 1674.14 971.123C1669.1 966.502 1667 960.201 1667 950.96V934.158C1667 925.337 1669.52 919.037 1674.14 914.416C1678.76 909.796 1685.48 907.695 1693.46 907.695C1701.45 907.695 1707.75 909.796 1712.79 914.416C1717.41 919.037 1719.93 925.757 1719.93 934.158V950.96C1719.93 959.781 1717.41 966.502 1712.79 971.123C1707.75 975.743 1701.45 977.843 1693.46 977.843ZM1693.46 966.922C1698.09 966.922 1701.87 965.662 1703.97 963.142C1706.07 960.621 1707.33 956.841 1707.33 951.8V933.738C1707.33 928.698 1706.07 924.917 1703.55 922.397C1701.03 919.877 1697.67 918.617 1693.46 918.617C1688.84 918.617 1685.48 919.877 1682.96 922.397C1680.44 924.917 1679.18 928.698 1679.18 933.318V951.38C1679.18 956.421 1680.44 960.201 1682.54 962.722C1685.06 965.662 1688.84 966.922 1693.46 966.922Z" fill="#F9893D" fill-opacity="0.5"/>
<path opacity="0.78" d="M1696.4 1077.81V1019.43H1694.72L1685.48 1040.85H1672.46L1686.32 1010.19H1708.59V1077.81H1696.4Z" fill="#F9893D" fill-opacity="0.5"/>
<path opacity="0.78" d="M1693.46 1180.73C1685.48 1180.73 1679.18 1178.63 1674.14 1174.01C1669.1 1169.38 1667 1163.08 1667 1153.84V1137.04C1667 1128.22 1669.52 1121.92 1674.14 1117.3C1678.76 1112.68 1685.48 1110.58 1693.46 1110.58C1701.45 1110.58 1707.75 1112.68 1712.79 1117.3C1717.41 1121.92 1719.93 1128.64 1719.93 1137.04V1153.84C1719.93 1162.66 1717.41 1169.38 1712.79 1174.01C1707.75 1178.63 1701.45 1180.73 1693.46 1180.73ZM1693.46 1169.8C1698.09 1169.8 1701.87 1168.54 1703.97 1166.02C1706.07 1163.5 1707.33 1159.72 1707.33 1154.68V1136.62C1707.33 1131.58 1706.07 1127.8 1703.55 1125.28C1701.03 1122.76 1697.67 1121.5 1693.46 1121.5C1688.84 1121.5 1685.48 1122.76 1682.96 1125.28C1680.44 1127.8 1679.18 1131.58 1679.18 1136.2V1154.26C1679.18 1159.3 1680.44 1163.08 1682.54 1165.6C1685.06 1168.54 1688.84 1169.8 1693.46 1169.8Z" fill="#F9893D" fill-opacity="0.5"/>
<path opacity="0.78" d="M1693.46 1281.96C1685.48 1281.96 1679.18 1279.86 1674.14 1275.24C1669.1 1270.62 1667 1264.31 1667 1255.07V1238.27C1667 1229.45 1669.52 1223.15 1674.14 1218.53C1678.76 1213.91 1685.48 1211.81 1693.46 1211.81C1701.45 1211.81 1707.75 1213.91 1712.79 1218.53C1717.41 1223.15 1719.93 1229.87 1719.93 1238.27V1255.07C1719.93 1263.89 1717.41 1270.62 1712.79 1275.24C1707.75 1279.86 1701.45 1281.96 1693.46 1281.96ZM1693.46 1271.04C1698.09 1271.04 1701.87 1269.78 1703.97 1267.26C1706.07 1264.73 1707.33 1260.95 1707.33 1255.91V1237.85C1707.33 1232.81 1706.07 1229.03 1703.55 1226.51C1701.03 1223.99 1697.67 1222.73 1693.46 1222.73C1688.84 1222.73 1685.48 1223.99 1682.96 1226.51C1680.44 1229.03 1679.18 1232.81 1679.18 1237.43V1255.49C1679.18 1260.53 1680.44 1264.31 1682.54 1266.83C1685.06 1269.78 1688.84 1271.04 1693.46 1271.04Z" fill="#F9893D" fill-opacity="0.5"/>
<path d="M1696.4 1382.35V1323.96H1694.72L1685.48 1345.38H1672.46L1686.32 1314.72H1708.59V1382.35H1696.4Z" fill="#F9893D" fill-opacity="0.5"/>
<path d="M1693.46 1484.84C1685.48 1484.84 1679.18 1482.74 1674.14 1478.12C1669.1 1473.5 1667 1467.2 1667 1457.96V1441.16C1667 1432.34 1669.52 1426.03 1674.14 1421.41C1678.76 1416.79 1685.48 1414.69 1693.46 1414.69C1701.45 1414.69 1707.75 1416.79 1712.79 1421.41C1717.41 1426.03 1719.93 1432.76 1719.93 1441.16V1457.96C1719.93 1466.78 1717.41 1473.5 1712.79 1478.12C1707.75 1482.74 1701.45 1484.84 1693.46 1484.84ZM1693.46 1473.92C1698.09 1473.92 1701.87 1472.66 1703.97 1470.14C1706.07 1467.62 1707.33 1463.84 1707.33 1458.8V1440.74C1707.33 1435.7 1706.07 1431.92 1703.55 1429.4C1701.03 1426.87 1697.67 1425.61 1693.46 1425.61C1688.84 1425.61 1685.48 1426.87 1682.96 1429.4C1680.44 1431.92 1679.18 1435.7 1679.18 1440.32V1458.38C1679.18 1463.42 1680.44 1467.2 1682.54 1469.72C1685.06 1472.66 1688.84 1473.92 1693.46 1473.92Z" fill="#F9893D" fill-opacity="0.5"/>
<path d="M1696.4 1585.23V1526.85H1694.72L1685.48 1548.27H1672.46L1686.32 1517.61H1708.59V1585.23H1696.4Z" fill="#F9893D" fill-opacity="0.5"/>
<path d="M1693.46 1687.72C1685.48 1687.72 1679.18 1685.62 1674.14 1681C1669.1 1676.38 1667 1670.08 1667 1660.84V1644.04C1667 1635.22 1669.52 1628.92 1674.14 1624.3C1678.76 1619.68 1685.48 1617.58 1693.46 1617.58C1701.45 1617.58 1707.75 1619.68 1712.79 1624.3C1717.41 1628.92 1719.93 1635.64 1719.93 1644.04V1660.84C1719.93 1669.66 1717.41 1676.38 1712.79 1681C1707.75 1685.62 1701.45 1687.72 1693.46 1687.72ZM1693.46 1676.8C1698.09 1676.8 1701.87 1675.54 1703.97 1673.02C1706.07 1670.5 1707.33 1666.72 1707.33 1661.68V1643.62C1707.33 1638.58 1706.07 1634.8 1703.55 1632.28C1701.03 1629.76 1697.67 1628.5 1693.46 1628.5C1688.84 1628.5 1685.48 1629.76 1682.96 1632.28C1680.44 1634.8 1679.18 1638.58 1679.18 1643.2V1661.26C1679.18 1666.3 1680.44 1670.08 1682.54 1672.6C1685.06 1675.54 1688.84 1676.8 1693.46 1676.8Z" fill="#F9893D" fill-opacity="0.5"/>
<path d="M1696.4 1788.12V1729.73H1694.72L1685.48 1751.15H1672.46L1686.32 1720.49H1708.59V1788.12H1696.4Z" fill="#F9893D" fill-opacity="0.5"/>
<path d="M1693.46 1890.61C1685.48 1890.61 1679.18 1888.51 1674.14 1883.89C1669.1 1879.27 1667 1872.97 1667 1863.73V1846.92C1667 1838.1 1669.52 1831.8 1674.14 1827.18C1678.76 1822.56 1685.48 1820.46 1693.46 1820.46C1701.45 1820.46 1707.75 1822.56 1712.79 1827.18C1717.41 1831.8 1719.93 1838.52 1719.93 1846.92V1863.73C1719.93 1872.55 1717.41 1879.27 1712.79 1883.89C1707.75 1888.51 1701.45 1890.61 1693.46 1890.61ZM1693.46 1879.69C1698.09 1879.69 1701.87 1878.43 1703.97 1875.91C1706.07 1873.39 1707.33 1869.61 1707.33 1864.57V1846.5C1707.33 1841.46 1706.07 1837.68 1703.55 1835.16C1701.03 1832.64 1697.67 1831.38 1693.46 1831.38C1688.84 1831.38 1685.48 1832.64 1682.96 1835.16C1680.44 1837.68 1679.18 1841.46 1679.18 1846.08V1864.15C1679.18 1869.19 1680.44 1872.97 1682.54 1875.49C1685.06 1878.43 1688.84 1879.69 1693.46 1879.69Z" fill="#F9893D" fill-opacity="0.5"/>
<path d="M1696.4 1991V1932.61H1694.72L1685.48 1954.03H1672.46L1686.32 1923.37H1708.59V1991H1696.4Z" fill="#F9893D" fill-opacity="0.5"/>
</g>
<g opacity="0.18">
<path d="M1687.33 2551.5C1677.55 2551.5 1669.83 2548.92 1663.65 2543.26C1657.98 2538.11 1654.89 2529.88 1654.89 2518.55V2497.95C1654.89 2487.14 1657.98 2479.42 1663.65 2473.76C1669.31 2468.09 1677.55 2465.52 1687.33 2465.52C1697.11 2465.52 1704.84 2468.09 1711.02 2473.76C1716.68 2479.42 1719.77 2487.66 1719.77 2497.95V2518.55C1719.77 2529.36 1716.68 2537.6 1711.02 2543.26C1705.35 2548.92 1697.63 2551.5 1687.33 2551.5ZM1687.33 2538.11C1692.99 2538.11 1697.63 2536.57 1700.2 2533.48C1702.78 2530.39 1704.32 2525.76 1704.32 2519.58V2497.44C1704.32 2491.26 1702.78 2486.63 1699.69 2483.54C1696.6 2480.45 1692.48 2478.91 1687.33 2478.91C1681.67 2478.91 1677.55 2480.45 1674.46 2483.54C1671.37 2486.63 1669.83 2491.26 1669.83 2496.93V2519.06C1669.83 2525.24 1671.37 2529.88 1673.94 2532.96C1677.55 2536.57 1681.67 2538.11 1687.33 2538.11Z" fill="#F9893D" fill-opacity="0.5"/>
<path d="M1691.45 2671.46V2599.9H1689.39L1678.06 2626.15H1662.1L1679.09 2588.57H1706.38V2671.46H1691.45Z" fill="#F9893D" fill-opacity="0.5"/>
<path d="M1687.33 2794.51C1677.55 2794.51 1669.83 2791.93 1663.65 2786.27C1657.98 2780.61 1654.89 2772.88 1654.89 2761.56V2740.96C1654.89 2730.15 1657.98 2722.43 1663.65 2716.77C1669.31 2711.1 1677.55 2708.53 1687.33 2708.53C1697.11 2708.53 1704.84 2711.1 1711.02 2716.77C1716.68 2722.43 1719.77 2730.67 1719.77 2740.96V2761.56C1719.77 2772.37 1716.68 2780.61 1711.02 2786.27C1705.35 2791.42 1697.63 2794.51 1687.33 2794.51ZM1687.33 2780.61C1692.99 2780.61 1697.63 2779.06 1700.2 2775.97C1702.78 2772.88 1704.32 2768.25 1704.32 2762.07V2739.93C1704.32 2733.75 1702.78 2729.12 1699.69 2726.03C1696.6 2722.94 1692.48 2721.4 1687.33 2721.4C1681.67 2721.4 1677.55 2722.94 1674.46 2726.03C1671.37 2729.12 1669.83 2733.75 1669.83 2739.42V2761.56C1669.83 2767.73 1671.37 2772.37 1673.94 2775.46C1677.55 2779.06 1681.67 2780.61 1687.33 2780.61Z" fill="#F9893D" fill-opacity="0.5"/>
<path d="M1691.45 2913.95V2842.39H1689.39L1678.06 2868.64H1662.1L1679.09 2831.06H1706.38V2913.95H1691.45Z" fill="#F9893D" fill-opacity="0.5"/>
<path d="M1687.33 3037C1677.55 3037 1669.83 3034.42 1663.65 3028.76C1657.98 3023.61 1654.89 3015.38 1654.89 3004.05V2983.45C1654.89 2972.64 1657.98 2964.92 1663.65 2959.26C1669.31 2953.59 1677.55 2951.02 1687.33 2951.02C1697.11 2951.02 1704.84 2953.59 1711.02 2959.26C1716.68 2964.92 1719.77 2973.16 1719.77 2983.45V3004.05C1719.77 3014.86 1716.68 3023.1 1711.02 3028.76C1705.35 3034.42 1697.63 3037 1687.33 3037ZM1687.33 3023.61C1692.99 3023.61 1697.63 3022.07 1700.2 3018.98C1702.78 3015.89 1704.32 3011.26 1704.32 3005.08V2982.94C1704.32 2976.76 1702.78 2972.13 1699.69 2969.04C1696.6 2965.95 1692.48 2964.41 1687.33 2964.41C1681.67 2964.41 1677.55 2965.95 1674.46 2969.04C1671.37 2972.13 1669.83 2976.76 1669.83 2982.43V3004.56C1669.83 3010.74 1671.37 3015.38 1673.94 3018.46C1677.55 3022.07 1681.67 3023.61 1687.33 3023.61Z" fill="#F9893D" fill-opacity="0.5"/>
<path d="M1691.45 3156.96V3085.4H1689.39L1678.06 3111.65H1662.1L1679.09 3074.07H1706.38V3156.96H1691.45Z" fill="#F9893D" fill-opacity="0.5"/>
<path d="M1687.33 3280.01C1677.55 3280.01 1669.83 3277.43 1663.65 3271.77C1657.98 3266.62 1654.89 3258.38 1654.89 3247.06V3226.46C1654.89 3215.65 1657.98 3207.93 1663.65 3202.27C1669.31 3196.6 1677.55 3194.03 1687.33 3194.03C1697.11 3194.03 1704.84 3196.6 1711.02 3202.27C1716.68 3207.93 1719.77 3216.17 1719.77 3226.46V3247.06C1719.77 3257.87 1716.68 3266.11 1711.02 3271.77C1705.35 3276.92 1697.63 3280.01 1687.33 3280.01ZM1687.33 3266.11C1692.99 3266.11 1697.63 3264.56 1700.2 3261.47C1702.78 3258.38 1704.32 3253.75 1704.32 3247.57V3225.43C1704.32 3219.25 1702.78 3214.62 1699.69 3211.53C1696.6 3208.44 1692.48 3206.9 1687.33 3206.9C1681.67 3206.9 1677.55 3208.44 1674.46 3211.53C1671.37 3214.62 1669.83 3219.25 1669.83 3224.92V3247.06C1669.83 3253.23 1671.37 3257.87 1673.94 3260.96C1677.55 3264.56 1681.67 3266.11 1687.33 3266.11Z" fill="#F9893D" fill-opacity="0.5"/>
<path d="M1691.45 3399.45V3327.89H1689.39L1678.06 3354.14H1662.1L1679.09 3316.56H1706.38V3399.45H1691.45Z" fill="#F9893D" fill-opacity="0.5"/>
<path d="M1687.33 3522.5C1677.55 3522.5 1669.83 3519.92 1663.65 3514.26C1657.98 3508.6 1654.89 3500.88 1654.89 3489.55V3468.95C1654.89 3458.14 1657.98 3450.42 1663.65 3444.76C1669.31 3439.09 1677.55 3436.52 1687.33 3436.52C1697.11 3436.52 1704.84 3439.09 1711.02 3444.76C1716.68 3450.42 1719.77 3458.66 1719.77 3468.95V3489.55C1719.77 3500.36 1716.68 3508.6 1711.02 3514.26C1705.35 3519.92 1697.63 3522.5 1687.33 3522.5ZM1687.33 3509.11C1692.99 3509.11 1697.63 3507.57 1700.2 3504.48C1702.78 3501.39 1704.32 3496.76 1704.32 3490.58V3468.44C1704.32 3462.26 1702.78 3457.63 1699.69 3454.54C1696.6 3451.45 1692.48 3449.91 1687.33 3449.91C1681.67 3449.91 1677.55 3451.45 1674.46 3454.54C1671.37 3457.63 1669.83 3462.26 1669.83 3467.93V3490.06C1669.83 3496.24 1671.37 3500.88 1673.94 3503.96C1677.55 3507.57 1681.67 3509.11 1687.33 3509.11Z" fill="#F9893D" fill-opacity="0.5"/>
<path d="M1691.45 3642.46V3570.89H1689.39L1678.06 3597.15H1662.1L1679.09 3559.57H1706.38V3642.46H1691.45Z" fill="#F9893D" fill-opacity="0.5"/>
<path d="M1687.33 3765.51C1677.55 3765.51 1669.83 3762.93 1663.65 3757.27C1657.98 3752.12 1654.89 3743.88 1654.89 3732.56V3711.96C1654.89 3701.15 1657.98 3693.43 1663.65 3687.76C1669.31 3682.1 1677.55 3679.53 1687.33 3679.53C1697.11 3679.53 1704.84 3682.1 1711.02 3687.76C1716.68 3693.43 1719.77 3701.67 1719.77 3711.96V3732.56C1719.77 3743.37 1716.68 3751.61 1711.02 3757.27C1705.35 3762.42 1697.63 3765.51 1687.33 3765.51ZM1687.33 3751.61C1692.99 3751.61 1697.63 3750.06 1700.2 3746.97C1702.78 3743.88 1704.32 3739.25 1704.32 3733.07V3710.93C1704.32 3704.75 1702.78 3700.12 1699.69 3697.03C1696.6 3693.94 1692.48 3692.4 1687.33 3692.4C1681.67 3692.4 1677.55 3693.94 1674.46 3697.03C1671.37 3700.12 1669.83 3704.75 1669.83 3710.42V3732.56C1669.83 3738.73 1671.37 3743.37 1673.94 3746.46C1677.55 3750.06 1681.67 3751.61 1687.33 3751.61Z" fill="#F9893D" fill-opacity="0.5"/>
<path d="M1691.45 3884.95V3813.39H1689.39L1678.06 3839.64H1662.1L1679.09 3802.06H1706.38V3884.95H1691.45Z" fill="#F9893D" fill-opacity="0.5"/>
<path d="M1691.45 4006.45V3934.89H1689.39L1678.06 3961.15H1662.1L1679.09 3923.56H1706.38V4006.45H1691.45Z" fill="#F9893D" fill-opacity="0.5"/>
<path d="M1691.45 4127.96V4055.88H1689.39L1678.06 4082.14H1662.1L1679.09 4044.55H1706.38V4127.96H1691.45Z" fill="#F9893D" fill-opacity="0.5"/>
<path d="M1687.33 4251.01C1677.55 4251.01 1669.83 4248.43 1663.65 4242.77C1657.98 4237.62 1654.89 4229.38 1654.89 4218.06V4197.46C1654.89 4186.65 1657.98 4178.93 1663.65 4173.26C1669.31 4167.6 1677.55 4165.03 1687.33 4165.03C1697.11 4165.03 1704.84 4167.6 1711.02 4173.26C1716.68 4178.93 1719.77 4187.16 1719.77 4197.46V4218.06C1719.77 4228.87 1716.68 4237.1 1711.02 4242.77C1705.35 4247.92 1697.63 4251.01 1687.33 4251.01ZM1687.33 4237.1C1692.99 4237.1 1697.63 4235.56 1700.2 4232.47C1702.78 4229.38 1704.32 4224.75 1704.32 4218.57V4196.43C1704.32 4190.25 1702.78 4185.62 1699.69 4182.53C1696.6 4179.44 1692.48 4177.9 1687.33 4177.9C1681.67 4177.9 1677.55 4179.44 1674.46 4182.53C1671.37 4185.62 1669.83 4190.25 1669.83 4195.92V4218.06C1669.83 4224.23 1671.37 4228.87 1673.94 4231.96C1677.55 4235.56 1681.67 4237.1 1687.33 4237.1Z" fill="#F9893D" fill-opacity="0.5"/>
<path d="M1687.33 4371.99C1677.55 4371.99 1669.83 4369.42 1663.65 4363.76C1657.98 4358.61 1654.89 4350.37 1654.89 4339.04V4318.45C1654.89 4307.64 1657.98 4299.92 1663.65 4294.25C1669.31 4288.59 1677.55 4286.02 1687.33 4286.02C1697.11 4286.02 1704.84 4288.59 1711.02 4294.25C1716.68 4299.92 1719.77 4308.15 1719.77 4318.45V4339.04C1719.77 4349.86 1716.68 4358.09 1711.02 4363.76C1705.35 4369.42 1697.63 4371.99 1687.33 4371.99ZM1687.33 4358.61C1692.99 4358.61 1697.63 4357.06 1700.2 4353.98C1702.78 4350.89 1704.32 4346.25 1704.32 4340.07V4317.94C1704.32 4311.76 1702.78 4307.12 1699.69 4304.04C1696.6 4300.95 1692.48 4299.4 1687.33 4299.4C1681.67 4299.4 1677.55 4300.95 1674.46 4304.04C1671.37 4307.12 1669.83 4311.76 1669.83 4317.42V4339.56C1669.83 4345.74 1671.37 4350.37 1673.94 4353.46C1677.55 4357.06 1681.67 4358.61 1687.33 4358.61Z" fill="#F9893D" fill-opacity="0.5"/>
<path d="M1691.45 4491.95V4420.39H1689.39L1678.06 4446.65H1662.1L1679.09 4409.06H1706.38V4491.95H1691.45Z" fill="#F9893D" fill-opacity="0.5"/>
<path d="M1687.33 4615C1677.55 4615 1669.83 4612.43 1663.65 4606.77C1657.98 4601.1 1654.89 4593.38 1654.89 4582.05V4561.46C1654.89 4550.65 1657.98 4542.92 1663.65 4537.26C1669.31 4531.6 1677.55 4529.02 1687.33 4529.02C1697.11 4529.02 1704.84 4531.6 1711.02 4537.26C1716.68 4542.92 1719.77 4551.16 1719.77 4561.46V4582.05C1719.77 4592.86 1716.68 4601.1 1711.02 4606.77C1705.35 4612.43 1697.63 4615 1687.33 4615ZM1687.33 4601.62C1692.99 4601.62 1697.63 4600.07 1700.2 4596.98C1702.78 4593.89 1704.32 4589.26 1704.32 4583.08V4560.94C1704.32 4554.77 1702.78 4550.13 1699.69 4547.04C1696.6 4543.95 1692.48 4542.41 1687.33 4542.41C1681.67 4542.41 1677.55 4543.95 1674.46 4547.04C1671.37 4550.13 1669.83 4554.77 1669.83 4560.43V4582.57C1669.83 4588.75 1671.37 4593.38 1673.94 4596.47C1677.55 4600.07 1681.67 4601.62 1687.33 4601.62Z" fill="#F9893D" fill-opacity="0.5"/>
<path opacity="0.78" d="M1691.45 4734.45V4662.88H1689.39L1678.06 4689.14H1662.1L1679.09 4651.56H1706.38V4734.45H1691.45Z" fill="#F9893D" fill-opacity="0.5"/>
<path opacity="0.78" d="M1687.33 4857.49C1677.55 4857.49 1669.83 4854.92 1663.65 4849.26C1657.98 4844.11 1654.89 4835.87 1654.89 4824.54V4803.95C1654.89 4793.14 1657.98 4785.42 1663.65 4779.75C1669.31 4774.09 1677.55 4771.52 1687.33 4771.52C1697.11 4771.52 1704.84 4774.09 1711.02 4779.75C1716.68 4785.42 1719.77 4793.65 1719.77 4803.95V4824.54C1719.77 4835.36 1716.68 4843.59 1711.02 4849.26C1705.35 4854.92 1697.63 4857.49 1687.33 4857.49ZM1687.33 4844.11C1692.99 4844.11 1697.63 4842.56 1700.2 4839.48C1702.78 4836.39 1704.32 4831.75 1704.32 4825.57V4803.44C1704.32 4797.26 1702.78 4792.62 1699.69 4789.54C1696.6 4786.45 1692.48 4784.9 1687.33 4784.9C1681.67 4784.9 1677.55 4786.45 1674.46 4789.54C1671.37 4792.62 1669.83 4797.26 1669.83 4802.92V4825.06C1669.83 4831.24 1671.37 4835.87 1673.94 4838.96C1677.55 4842.56 1681.67 4844.11 1687.33 4844.11Z" fill="#F9893D" fill-opacity="0.5"/>
<path opacity="0.78" d="M1687.33 4979C1677.55 4979 1669.83 4976.42 1663.65 4970.76C1657.98 4965.61 1654.89 4957.38 1654.89 4946.05V4925.46C1654.89 4914.64 1657.98 4906.92 1663.65 4901.26C1669.31 4895.59 1677.55 4893.02 1687.33 4893.02C1697.11 4893.02 1704.84 4895.59 1711.02 4901.26C1716.68 4906.92 1719.77 4915.16 1719.77 4925.46V4946.05C1719.77 4956.86 1716.68 4965.1 1711.02 4970.76C1705.35 4976.42 1697.63 4979 1687.33 4979ZM1687.33 4965.61C1692.99 4965.61 1697.63 4964.07 1700.2 4960.98C1702.78 4957.89 1704.32 4953.26 1704.32 4947.08V4924.94C1704.32 4918.76 1702.78 4914.13 1699.69 4911.04C1696.6 4907.95 1692.48 4906.41 1687.33 4906.41C1681.67 4906.41 1677.55 4907.95 1674.46 4911.04C1671.37 4914.13 1669.83 4918.76 1669.83 4924.43V4946.56C1669.83 4952.74 1671.37 4957.38 1673.94 4960.46C1677.55 4964.07 1681.67 4965.61 1687.33 4965.61Z" fill="#F9893D" fill-opacity="0.5"/>
<path opacity="0.78" d="M1691.45 5098.96V5027.39H1689.39L1678.06 5053.65H1662.1L1679.09 5016.07H1706.38V5098.96H1691.45Z" fill="#F9893D" fill-opacity="0.5"/>
<path opacity="0.78" d="M1687.33 5222.01C1677.55 5222.01 1669.83 5219.43 1663.65 5213.77C1657.98 5208.1 1654.89 5200.38 1654.89 5189.06V5168.46C1654.89 5157.65 1657.98 5149.93 1663.65 5144.26C1669.31 5138.6 1677.55 5136.03 1687.33 5136.03C1697.11 5136.03 1704.84 5138.6 1711.02 5144.26C1716.68 5149.93 1719.77 5158.16 1719.77 5168.46V5189.06C1719.77 5199.87 1716.68 5208.1 1711.02 5213.77C1705.35 5218.92 1697.63 5222.01 1687.33 5222.01ZM1687.33 5208.1C1692.99 5208.1 1697.63 5206.56 1700.2 5203.47C1702.78 5200.38 1704.32 5195.75 1704.32 5189.57V5167.43C1704.32 5161.25 1702.78 5156.62 1699.69 5153.53C1696.6 5150.44 1692.48 5148.9 1687.33 5148.9C1681.67 5148.9 1677.55 5150.44 1674.46 5153.53C1671.37 5156.62 1669.83 5161.25 1669.83 5166.92V5189.06C1669.83 5195.23 1671.37 5199.87 1673.94 5202.96C1677.55 5206.56 1681.67 5208.1 1687.33 5208.1Z" fill="#F9893D" fill-opacity="0.5"/>
<path opacity="0.78" d="M1691.45 5341.45V5269.89H1689.39L1678.06 5296.14H1662.1L1679.09 5258.56H1706.38V5341.45H1691.45Z" fill="#F9893D" fill-opacity="0.5"/>
<path opacity="0.78" d="M1687.33 5464.5C1677.55 5464.5 1669.83 5461.92 1663.65 5456.26C1657.98 5451.11 1654.89 5442.87 1654.89 5431.55V5410.95C1654.89 5400.14 1657.98 5392.42 1663.65 5386.76C1669.31 5381.09 1677.55 5378.52 1687.33 5378.52C1697.11 5378.52 1704.84 5381.09 1711.02 5386.76C1716.68 5392.42 1719.77 5400.66 1719.77 5410.95V5431.55C1719.77 5442.36 1716.68 5450.6 1711.02 5456.26C1705.35 5461.92 1697.63 5464.5 1687.33 5464.5ZM1687.33 5451.11C1692.99 5451.11 1697.63 5449.57 1700.2 5446.48C1702.78 5443.39 1704.32 5438.76 1704.32 5432.58V5410.44C1704.32 5404.26 1702.78 5399.63 1699.69 5396.54C1696.6 5393.45 1692.48 5391.91 1687.33 5391.91C1681.67 5391.91 1677.55 5393.45 1674.46 5396.54C1671.37 5399.63 1669.83 5404.26 1669.83 5409.93V5432.06C1669.83 5438.24 1671.37 5442.88 1673.94 5445.96C1677.55 5449.57 1681.67 5451.11 1687.33 5451.11Z" fill="#F9893D" fill-opacity="0.5"/>
<path opacity="0.78" d="M1691.45 5584.46V5512.89H1689.39L1678.06 5539.15H1662.1L1679.09 5501.57H1706.38V5584.46H1691.45Z" fill="#F9893D" fill-opacity="0.5"/>
<path opacity="0.78" d="M1687.33 5707.51C1677.55 5707.51 1669.83 5704.93 1663.65 5699.27C1657.98 5694.12 1654.89 5685.88 1654.89 5674.56V5653.96C1654.89 5643.15 1657.98 5635.43 1663.65 5629.76C1669.31 5624.1 1677.55 5621.53 1687.33 5621.53C1697.11 5621.53 1704.84 5624.1 1711.02 5629.76C1716.68 5635.43 1719.77 5643.67 1719.77 5653.96V5674.56C1719.77 5685.37 1716.68 5693.6 1711.02 5699.27C1705.35 5704.42 1697.63 5707.51 1687.33 5707.51ZM1687.33 5693.6C1692.99 5693.6 1697.63 5692.06 1700.2 5688.97C1702.78 5685.88 1704.32 5681.25 1704.32 5675.07V5652.93C1704.32 5646.75 1702.78 5642.12 1699.69 5639.03C1696.6 5635.94 1692.48 5634.4 1687.33 5634.4C1681.67 5634.4 1677.55 5635.94 1674.46 5639.03C1671.37 5642.12 1669.83 5646.75 1669.83 5652.42V5674.56C1669.83 5680.73 1671.37 5685.37 1673.94 5688.46C1677.55 5692.06 1681.67 5693.6 1687.33 5693.6Z" fill="#F9893D" fill-opacity="0.5"/>
<path opacity="0.78" d="M1691.45 5826.95V5755.39H1689.39L1678.06 5781.64H1662.1L1679.09 5744.06H1706.38V5826.95H1691.45Z" fill="#F9893D" fill-opacity="0.5"/>
</g>
<g opacity="0.18">
<path d="M1422.46 2803.77C1412.68 2803.77 1404.95 2801.2 1398.78 2795.53C1392.6 2789.87 1390.02 2782.15 1390.02 2770.82V2750.23C1390.02 2739.42 1393.11 2731.69 1398.78 2726.03C1404.44 2720.37 1412.68 2717.79 1422.46 2717.79C1432.24 2717.79 1439.97 2720.37 1446.14 2726.03C1451.81 2731.69 1454.9 2739.93 1454.9 2750.23V2770.82C1454.9 2781.63 1451.81 2789.87 1446.14 2795.53C1439.97 2801.2 1432.24 2803.77 1422.46 2803.77ZM1422.46 2790.39C1428.12 2790.39 1432.76 2788.84 1435.33 2785.75C1437.91 2782.66 1439.45 2778.03 1439.45 2771.85V2749.71C1439.45 2743.54 1437.91 2738.9 1434.82 2735.81C1431.73 2732.72 1427.61 2731.18 1422.46 2731.18C1416.8 2731.18 1412.68 2732.72 1409.59 2735.81C1406.5 2738.9 1404.95 2743.54 1404.95 2749.2V2771.34C1404.95 2777.52 1406.5 2782.15 1409.07 2785.24C1412.16 2788.84 1416.28 2790.39 1422.46 2790.39Z" fill="#F9893D" fill-opacity="0.5"/>
<path d="M1426.07 2926.82V2855.26H1424.01L1412.68 2881.51H1396.72L1413.71 2843.93H1441V2926.82H1426.07Z" fill="#F9893D" fill-opacity="0.5"/>
<path d="M1422.46 3052.44C1412.68 3052.44 1404.95 3049.87 1398.78 3044.2C1392.6 3038.54 1390.02 3030.82 1390.02 3019.49V2998.9C1390.02 2988.09 1393.11 2980.36 1398.78 2974.7C1404.44 2969.04 1412.68 2966.46 1422.46 2966.46C1432.24 2966.46 1439.97 2969.04 1446.14 2974.7C1451.81 2980.36 1454.9 2988.6 1454.9 2998.9V3019.49C1454.9 3030.3 1451.81 3038.54 1446.14 3044.2C1439.97 3049.87 1432.24 3052.44 1422.46 3052.44ZM1422.46 3039.06C1428.12 3039.06 1432.76 3037.51 1435.33 3034.42C1437.91 3031.33 1439.45 3026.7 1439.45 3020.52V2998.38C1439.45 2992.2 1437.91 2987.57 1434.82 2984.48C1431.73 2981.39 1427.61 2979.85 1422.46 2979.85C1416.8 2979.85 1412.68 2981.39 1409.59 2984.48C1406.5 2987.57 1404.95 2992.21 1404.95 2997.87V3020.01C1404.95 3026.18 1406.5 3030.82 1409.07 3033.91C1412.16 3037.51 1416.28 3039.06 1422.46 3039.06Z" fill="#F9893D" fill-opacity="0.5"/>
<path d="M1426.07 3175.49V3103.41H1424.01L1412.68 3129.67H1396.72L1413.71 3092.09H1441V3175.49H1426.07Z" fill="#F9893D" fill-opacity="0.5"/>
<path d="M1422.46 3301.11C1412.68 3301.11 1404.95 3298.53 1398.78 3292.88C1392.6 3287.2 1390.02 3279.49 1390.02 3268.16V3247.57C1390.02 3236.76 1393.11 3229.04 1398.78 3223.37C1404.44 3217.71 1412.68 3215.12 1422.46 3215.12C1432.24 3215.12 1439.97 3217.71 1446.14 3223.37C1451.81 3229.04 1454.9 3237.27 1454.9 3247.57V3268.16C1454.9 3278.98 1451.81 3287.2 1446.14 3292.88C1439.97 3298.53 1432.24 3301.11 1422.46 3301.11ZM1422.46 3287.73C1428.12 3287.73 1432.76 3286.18 1435.33 3283.09C1437.91 3280.01 1439.45 3275.37 1439.45 3269.19V3247.06C1439.45 3240.88 1437.91 3236.24 1434.82 3233.15C1431.73 3230.07 1427.61 3228.52 1422.46 3228.52C1416.8 3228.52 1412.68 3230.07 1409.59 3233.15C1406.5 3236.24 1404.95 3240.88 1404.95 3246.54V3268.68C1404.95 3274.86 1406.5 3279.49 1409.07 3282.58C1412.16 3286.18 1416.28 3287.73 1422.46 3287.73Z" fill="#F9893D" fill-opacity="0.5"/>
<path d="M1426.07 3424.16V3352.6H1424.01L1412.68 3378.86H1396.72L1413.71 3341.27H1441V3424.16H1426.07Z" fill="#F9893D" fill-opacity="0.5"/>
<path d="M1422.46 3549.78C1412.68 3549.78 1404.95 3547.21 1398.78 3541.55C1392.6 3535.88 1390.02 3528.16 1390.02 3516.83V3496.24C1390.02 3485.43 1393.11 3477.71 1398.78 3472.04C1404.44 3466.38 1412.68 3463.8 1422.46 3463.8C1432.24 3463.8 1439.97 3466.38 1446.14 3472.04C1451.81 3477.71 1454.9 3485.94 1454.9 3496.24V3516.83C1454.9 3527.65 1451.81 3535.88 1446.14 3541.55C1439.97 3547.21 1432.24 3549.78 1422.46 3549.78ZM1422.46 3536.4C1428.12 3536.4 1432.76 3534.85 1435.33 3531.76C1437.91 3528.68 1439.45 3524.04 1439.45 3517.86V3495.73C1439.45 3489.55 1437.91 3484.91 1434.82 3481.82C1431.73 3478.74 1427.61 3477.19 1422.46 3477.19C1416.8 3477.19 1412.68 3478.74 1409.59 3481.82C1406.5 3484.91 1404.95 3489.55 1404.95 3495.21V3517.35C1404.95 3523.53 1406.5 3528.16 1409.07 3531.25C1412.16 3534.85 1416.28 3536.4 1422.46 3536.4Z" fill="#F9893D" fill-opacity="0.5"/>
<path d="M1426.07 3672.83V3601.27H1424.01L1412.68 3627.53H1396.72L1413.71 3589.94H1441V3672.83H1426.07Z" fill="#F9893D" fill-opacity="0.5"/>
<path d="M1422.46 3798.45C1412.68 3798.45 1404.95 3795.88 1398.78 3790.22C1393.11 3785.07 1390.02 3776.83 1390.02 3765.5V3744.91C1390.02 3734.1 1393.11 3726.38 1398.78 3720.71C1404.44 3715.05 1412.68 3712.48 1422.46 3712.48C1432.24 3712.48 1439.97 3715.05 1446.14 3720.71C1451.81 3726.38 1454.9 3734.61 1454.9 3744.91V3765.5C1454.9 3776.32 1451.81 3784.55 1446.14 3790.22C1439.97 3795.88 1432.24 3798.45 1422.46 3798.45ZM1422.46 3785.07C1428.12 3785.07 1432.76 3783.52 1435.33 3780.44C1437.91 3777.35 1439.45 3772.71 1439.45 3766.53V3744.4C1439.45 3738.22 1437.91 3733.58 1434.82 3730.5C1431.73 3727.41 1427.61 3725.86 1422.46 3725.86C1416.8 3725.86 1412.68 3727.41 1409.59 3730.5C1406.5 3733.58 1404.95 3738.22 1404.95 3743.88V3766.02C1404.95 3772.2 1406.5 3776.83 1409.07 3779.92C1412.16 3783.52 1416.28 3785.07 1422.46 3785.07Z" fill="#F9893D" fill-opacity="0.5"/>
<path d="M1426.07 3921.5V3849.94H1424.01L1412.68 3876.2H1396.72L1413.71 3838.61H1441V3921.5H1426.07Z" fill="#F9893D" fill-opacity="0.5"/>
<path d="M1422.46 4047.13C1412.68 4047.13 1404.95 4044.55 1398.78 4038.89C1393.11 4033.74 1390.02 4025.5 1390.02 4014.18V3993.58C1390.02 3982.77 1393.11 3975.05 1398.78 3969.38C1404.44 3963.72 1412.68 3961.15 1422.46 3961.15C1432.24 3961.15 1439.97 3963.72 1446.14 3969.38C1451.81 3975.05 1454.9 3983.29 1454.9 3993.58V4014.18C1454.9 4024.99 1451.81 4033.23 1446.14 4038.89C1439.97 4044.55 1432.24 4047.13 1422.46 4047.13ZM1422.46 4033.74C1428.12 4033.74 1432.76 4032.2 1435.33 4029.11C1437.91 4026.02 1439.45 4021.38 1439.45 4015.21V3993.07C1439.45 3986.89 1437.91 3982.26 1434.82 3979.17C1431.73 3976.08 1427.61 3974.53 1422.46 3974.53C1416.8 3974.53 1412.68 3976.08 1409.59 3979.17C1406.5 3982.26 1404.95 3986.89 1404.95 3992.55V4014.69C1404.95 4020.87 1406.5 4025.5 1409.07 4028.59C1412.16 4032.2 1416.28 4033.74 1422.46 4033.74Z" fill="#F9893D" fill-opacity="0.5"/>
<path d="M1426.07 4170.17V4098.61H1424.01L1412.68 4124.87H1396.72L1413.71 4087.28H1441V4170.17H1426.07Z" fill="#F9893D" fill-opacity="0.5"/>
<path d="M1426.07 4294.25V4222.69H1424.01L1412.68 4248.95H1396.72L1413.71 4211.36H1441V4294.25H1426.07Z" fill="#F9893D" fill-opacity="0.5"/>
<path d="M1426.07 4418.85V4347.28H1424.01L1412.68 4373.54H1396.72L1413.71 4335.96H1441V4418.85H1426.07Z" fill="#F9893D" fill-opacity="0.5"/>
<path d="M1422.46 4544.47C1412.68 4544.47 1404.95 4541.89 1398.78 4536.23C1393.11 4530.57 1390.02 4522.84 1390.02 4511.52V4490.92C1390.02 4480.11 1393.11 4472.39 1398.78 4466.73C1404.44 4461.06 1412.68 4458.49 1422.46 4458.49C1432.24 4458.49 1439.97 4461.06 1446.14 4466.73C1451.81 4472.39 1454.9 4480.63 1454.9 4490.92V4511.52C1454.9 4522.33 1451.81 4530.57 1446.14 4536.23C1439.97 4541.89 1432.24 4544.47 1422.46 4544.47ZM1422.46 4531.08C1428.12 4531.08 1432.76 4529.54 1435.33 4526.45C1437.91 4523.36 1439.45 4518.73 1439.45 4512.55V4490.41C1439.45 4484.23 1437.91 4479.6 1434.82 4476.51C1431.73 4473.42 1427.61 4471.87 1422.46 4471.87C1416.8 4471.87 1412.68 4473.42 1409.59 4476.51C1406.5 4479.6 1404.95 4484.23 1404.95 4489.89V4512.03C1404.95 4518.21 1406.5 4522.84 1409.07 4525.93C1412.16 4529.54 1416.28 4531.08 1422.46 4531.08Z" fill="#F9893D" fill-opacity="0.5"/>
<path opacity="0.78" d="M1422.46 4669.06C1412.68 4669.06 1404.95 4666.49 1398.78 4660.82C1393.11 4655.67 1390.02 4647.44 1390.02 4636.11V4615.52C1390.02 4604.7 1393.11 4596.98 1398.78 4591.32C1404.44 4585.66 1412.68 4583.08 1422.46 4583.08C1432.24 4583.08 1439.97 4585.66 1446.14 4591.32C1451.81 4596.98 1454.9 4605.22 1454.9 4615.52V4636.11C1454.9 4646.92 1451.81 4655.16 1446.14 4660.82C1439.97 4666.49 1432.24 4669.06 1422.46 4669.06ZM1422.46 4655.67C1428.12 4655.67 1432.76 4654.13 1435.33 4651.04C1437.91 4647.95 1439.45 4643.32 1439.45 4637.14V4615C1439.45 4608.82 1437.91 4604.19 1434.82 4601.1C1431.73 4598.01 1427.61 4596.47 1422.46 4596.47C1416.8 4596.47 1412.68 4598.01 1409.59 4601.1C1406.5 4604.19 1404.95 4608.82 1404.95 4614.49V4636.62C1404.95 4642.8 1406.5 4647.44 1409.07 4650.53C1412.16 4654.13 1416.28 4655.67 1422.46 4655.67Z" fill="#F9893D" fill-opacity="0.5"/>
<path opacity="0.78" d="M1426.07 4791.59V4720.03H1424.01L1412.68 4746.29H1396.72L1413.71 4708.7H1441V4791.59H1426.07Z" fill="#F9893D" fill-opacity="0.5"/>
<path opacity="0.78" d="M1422.46 4917.73C1412.68 4917.73 1404.95 4915.16 1398.78 4909.49C1393.11 4904.35 1390.02 4896.11 1390.02 4884.78V4864.19C1390.02 4853.38 1393.11 4845.65 1398.78 4839.99C1404.44 4834.33 1412.68 4831.75 1422.46 4831.75C1432.24 4831.75 1439.97 4834.33 1446.14 4839.99C1451.81 4845.65 1454.9 4853.89 1454.9 4864.19V4884.78C1454.9 4895.59 1451.81 4903.83 1446.14 4909.49C1439.97 4915.16 1432.24 4917.73 1422.46 4917.73ZM1422.46 4904.35C1428.12 4904.35 1432.76 4902.8 1435.33 4899.71C1437.91 4896.62 1439.45 4891.99 1439.45 4885.81V4863.67C1439.45 4857.49 1437.91 4852.86 1434.82 4849.77C1431.73 4846.68 1427.61 4845.14 1422.46 4845.14C1416.8 4845.14 1412.68 4846.68 1409.59 4849.77C1406.5 4852.86 1404.95 4857.49 1404.95 4863.16V4885.3C1404.95 4891.47 1406.5 4896.11 1409.07 4899.2C1412.16 4902.8 1416.28 4904.35 1422.46 4904.35Z" fill="#F9893D" fill-opacity="0.5"/>
<path opacity="0.78" d="M1426.07 5040.26V4968.7H1424.01L1412.68 4994.96H1396.72L1413.71 4957.37H1441V5040.26H1426.07Z" fill="#F9893D" fill-opacity="0.5"/>
<path opacity="0.78" d="M1422.46 5166.4C1412.68 5166.4 1404.95 5163.83 1398.78 5158.16C1393.11 5152.5 1390.02 5144.78 1390.02 5133.45V5112.86C1390.02 5102.05 1393.11 5094.32 1398.78 5088.66C1404.44 5083 1412.68 5080.42 1422.46 5080.42C1432.24 5080.42 1439.97 5083 1446.14 5088.66C1451.81 5094.32 1454.9 5102.56 1454.9 5112.86V5133.45C1454.9 5144.26 1451.81 5152.5 1446.14 5158.16C1439.97 5163.83 1432.24 5166.4 1422.46 5166.4ZM1422.46 5153.01C1428.12 5153.01 1432.76 5151.47 1435.33 5148.38C1437.91 5145.29 1439.45 5140.66 1439.45 5134.48V5112.34C1439.45 5106.16 1437.91 5101.53 1434.82 5098.44C1431.73 5095.35 1427.61 5093.81 1422.46 5093.81C1416.8 5093.81 1412.68 5095.35 1409.59 5098.44C1406.5 5101.53 1404.95 5106.16 1404.95 5111.83V5133.97C1404.95 5140.14 1406.5 5144.78 1409.07 5147.87C1412.16 5151.47 1416.28 5153.01 1422.46 5153.01Z" fill="#F9893D" fill-opacity="0.5"/>
<path opacity="0.78" d="M1422.46 5290.48C1412.68 5290.48 1404.95 5287.9 1398.78 5282.24C1393.11 5277.09 1390.02 5268.86 1390.02 5257.53V5236.94C1390.02 5226.12 1393.11 5218.4 1398.78 5212.74C1404.44 5207.07 1412.68 5204.5 1422.46 5204.5C1432.24 5204.5 1439.97 5207.07 1446.14 5212.74C1451.81 5218.4 1454.9 5226.64 1454.9 5236.94V5257.53C1454.9 5268.34 1451.81 5276.58 1446.14 5282.24C1439.97 5287.9 1432.24 5290.48 1422.46 5290.48ZM1422.46 5277.09C1428.12 5277.09 1432.76 5275.55 1435.33 5272.46C1437.91 5269.37 1439.45 5264.74 1439.45 5258.56V5236.42C1439.45 5230.24 1437.91 5225.61 1434.82 5222.52C1431.73 5219.43 1427.61 5217.89 1422.46 5217.89C1416.8 5217.89 1412.68 5219.43 1409.59 5222.52C1406.5 5225.61 1404.95 5230.24 1404.95 5235.91V5258.04C1404.95 5264.22 1406.5 5268.86 1409.07 5271.94C1412.16 5275.55 1416.28 5277.09 1422.46 5277.09Z" fill="#F9893D" fill-opacity="0.5"/>
<path opacity="0.78" d="M1426.07 5413.53V5341.96H1424.01L1412.68 5368.22H1396.72L1413.71 5330.64H1441V5413.53H1426.07Z" fill="#F9893D" fill-opacity="0.5"/>
<path opacity="0.78" d="M1422.46 5539.15C1412.68 5539.15 1404.95 5536.58 1398.78 5530.91C1393.11 5525.76 1390.02 5517.53 1390.02 5506.2V5485.61C1390.02 5474.79 1393.11 5467.07 1398.78 5461.41C1404.44 5455.75 1412.68 5453.17 1422.46 5453.17C1432.24 5453.17 1439.97 5455.75 1446.14 5461.41C1451.81 5467.07 1454.9 5475.31 1454.9 5485.61V5506.2C1454.9 5517.01 1451.81 5525.25 1446.14 5530.91C1439.97 5536.58 1432.24 5539.15 1422.46 5539.15ZM1422.46 5525.76C1428.12 5525.76 1432.76 5524.22 1435.33 5521.13C1437.91 5518.04 1439.45 5513.41 1439.45 5507.23V5485.09C1439.45 5478.91 1437.91 5474.28 1434.82 5471.19C1431.73 5468.1 1427.61 5466.56 1422.46 5466.56C1416.8 5466.56 1412.68 5468.1 1409.59 5471.19C1406.5 5474.28 1404.95 5478.91 1404.95 5484.58V5506.72C1404.95 5512.89 1406.5 5517.53 1409.07 5520.62C1412.16 5524.22 1416.28 5525.76 1422.46 5525.76Z" fill="#F9893D" fill-opacity="0.5"/>
<path opacity="0.78" d="M1426.07 5662.2V5590.12H1424.01L1412.68 5616.38H1396.72L1413.71 5578.79H1441V5661.68H1426.07V5662.2Z" fill="#F9893D" fill-opacity="0.5"/>
<path opacity="0.78" d="M1422.46 5787.82C1412.68 5787.82 1404.95 5785.25 1398.78 5779.58C1393.11 5773.92 1390.02 5766.2 1390.02 5754.87V5734.28C1390.02 5723.46 1393.11 5715.74 1398.78 5710.08C1404.44 5704.42 1412.68 5701.84 1422.46 5701.84C1432.24 5701.84 1439.97 5704.42 1446.14 5710.08C1451.81 5715.74 1454.9 5723.98 1454.9 5734.28V5754.87C1454.9 5765.68 1451.81 5773.92 1446.14 5779.58C1439.97 5785.25 1432.24 5787.82 1422.46 5787.82ZM1422.46 5774.43C1428.12 5774.43 1432.76 5772.89 1435.33 5769.8C1437.91 5766.71 1439.45 5762.08 1439.45 5755.9V5733.76C1439.45 5727.58 1437.91 5722.95 1434.82 5719.86C1431.73 5716.77 1427.61 5715.23 1422.46 5715.23C1416.8 5715.23 1412.68 5716.77 1409.59 5719.86C1406.5 5722.95 1404.95 5727.58 1404.95 5733.25V5755.38C1404.95 5761.56 1406.5 5766.2 1409.07 5769.29C1412.16 5772.89 1416.28 5774.43 1422.46 5774.43Z" fill="#F9893D" fill-opacity="0.5"/>
<path opacity="0.78" d="M1426.07 5910.87V5839.31H1424.01L1412.68 5865.56H1396.72L1413.71 5827.98H1441V5910.87H1426.07Z" fill="#F9893D" fill-opacity="0.5"/>
<path d="M1422.46 6036.49C1412.68 6036.49 1404.95 6033.92 1398.78 6028.25C1393.11 6022.59 1390.02 6014.87 1390.02 6003.54V5982.95C1390.02 5972.14 1393.11 5964.41 1398.78 5958.75C1404.44 5953.09 1412.68 5950.51 1422.46 5950.51C1432.24 5950.51 1439.97 5953.09 1446.14 5958.75C1451.81 5964.41 1454.9 5972.65 1454.9 5982.95V6003.54C1454.9 6014.35 1451.81 6022.59 1446.14 6028.25C1439.97 6033.92 1432.24 6036.49 1422.46 6036.49ZM1422.46 6023.1C1428.12 6023.1 1432.76 6021.56 1435.33 6018.47C1437.91 6015.38 1439.45 6010.75 1439.45 6004.57V5982.43C1439.45 5976.25 1437.91 5971.62 1434.82 5968.53C1431.73 5965.44 1427.61 5963.9 1422.46 5963.9C1416.8 5963.9 1412.68 5965.44 1409.59 5968.53C1406.5 5971.62 1404.95 5976.25 1404.95 5981.92V6004.06C1404.95 6010.23 1406.5 6014.87 1409.07 6017.96C1412.16 6021.56 1416.28 6023.1 1422.46 6023.1Z" fill="#F9893D" fill-opacity="0.5"/>
<path d="M1426.07 6159.54V6087.98H1424.01L1412.68 6114.23H1396.72L1413.71 6076.65H1441V6159.54H1426.07Z" fill="#F9893D" fill-opacity="0.5"/>
</g>
<g opacity="0.18">
<path d="M232.437 86.9792C222.654 86.9792 214.931 84.4051 208.753 78.7418C203.089 73.5933 200 65.3557 200 54.0291V33.4352C200 22.6235 203.089 14.9009 208.753 9.23757C214.416 3.57426 222.654 1 232.437 1C242.219 1 249.942 3.57426 256.121 9.23757C261.784 14.9009 264.874 23.1383 264.874 33.4352V54.0291C264.874 64.8409 261.784 73.0785 256.121 78.7418C250.457 84.4051 242.734 86.9792 232.437 86.9792ZM232.437 73.5933C238.1 73.5933 242.734 72.0487 245.309 68.9596C247.883 65.8705 249.427 61.237 249.427 55.0588V32.9204C249.427 26.7422 247.883 22.1087 244.794 19.0196C241.704 15.9305 237.585 14.386 232.437 14.386C226.773 14.386 222.654 15.9305 219.565 19.0196C216.476 22.1087 214.931 26.7423 214.931 32.4056V54.544C214.931 60.7221 216.476 65.3558 219.05 68.4449C222.654 72.0488 226.773 73.5933 232.437 73.5933Z" fill="#F9893D" fill-opacity="0.5"/>
<path d="M236.555 206.937V135.374H234.495L223.168 161.631H207.207L224.198 124.047H251.486V206.937H236.555Z" fill="#F9893D" fill-opacity="0.5"/>
<path d="M232.437 329.987C222.654 329.987 214.931 327.413 208.753 321.75C203.089 316.086 200 308.364 200 297.037V276.443C200 265.631 203.089 257.909 208.753 252.246C214.416 246.582 222.654 244.008 232.437 244.008C242.219 244.008 249.942 246.582 256.121 252.246C261.784 257.909 264.874 266.146 264.874 276.443V297.037C264.874 307.849 261.784 316.086 256.121 321.75C250.457 326.898 242.734 329.987 232.437 329.987ZM232.437 316.086C238.1 316.086 242.734 314.542 245.309 311.453C247.883 308.364 249.427 303.73 249.427 297.552V275.414C249.427 269.235 247.883 264.602 244.794 261.513C241.704 258.424 237.585 256.879 232.437 256.879C226.773 256.879 222.654 258.424 219.565 261.513C216.476 264.602 214.931 269.235 214.931 274.899V297.037C214.931 303.215 216.476 307.849 219.05 310.938C222.654 314.542 226.773 316.086 232.437 316.086Z" fill="#F9893D" fill-opacity="0.5"/>
<path d="M236.555 449.429V377.866H234.495L223.168 404.123H207.207L224.198 366.539H251.486V449.429H236.555Z" fill="#F9893D" fill-opacity="0.5"/>
<path d="M232.437 572.479C222.654 572.479 214.931 569.905 208.753 564.242C203.089 559.093 200 550.856 200 539.529V518.935C200 508.123 203.089 500.401 208.753 494.737C214.416 489.074 222.654 486.5 232.437 486.5C242.219 486.5 249.942 489.074 256.121 494.737C261.784 500.401 264.874 508.638 264.874 518.935V539.529C264.874 550.341 261.784 558.578 256.121 564.242C250.457 569.905 242.734 572.479 232.437 572.479ZM232.437 559.093C238.1 559.093 242.734 557.549 245.309 554.459C247.883 551.37 249.427 546.737 249.427 540.559V518.42C249.427 512.242 247.883 507.609 244.794 504.52C241.704 501.431 237.585 499.886 232.437 499.886C226.773 499.886 222.654 501.431 219.565 504.52C216.476 507.609 214.931 512.242 214.931 517.905V540.044C214.931 546.222 216.476 550.856 219.05 553.945C222.654 557.549 226.773 559.093 232.437 559.093Z" fill="#F9893D" fill-opacity="0.5"/>
<path d="M236.555 692.437V620.874H234.495L223.168 647.131H207.207L224.198 609.547H251.486V692.437H236.555Z" fill="#F9893D" fill-opacity="0.5"/>
<path d="M232.437 815.487C222.654 815.487 214.931 812.913 208.753 807.25C203.089 802.101 200 793.864 200 782.537V761.943C200 751.132 203.089 743.409 208.753 737.746C214.416 732.082 222.654 729.508 232.437 729.508C242.219 729.508 249.942 732.082 256.121 737.746C261.784 743.409 264.874 751.646 264.874 761.943V782.537C264.874 793.349 261.784 801.586 256.121 807.25C250.457 812.398 242.734 815.487 232.437 815.487ZM232.437 801.586C238.1 801.586 242.734 800.042 245.309 796.953C247.883 793.864 249.427 789.23 249.427 783.052V760.914C249.427 754.735 247.883 750.102 244.794 747.013C241.704 743.924 237.585 742.379 232.437 742.379C226.773 742.379 222.654 743.924 219.565 747.013C216.476 750.102 214.931 754.735 214.931 760.399V782.537C214.931 788.715 216.476 793.349 219.05 796.438C222.654 800.042 226.773 801.586 232.437 801.586Z" fill="#F9893D" fill-opacity="0.5"/>
<path d="M236.555 934.929V863.365H234.495L223.168 889.623H207.207L224.198 852.039H251.486V934.929H236.555Z" fill="#F9893D" fill-opacity="0.5"/>
<path d="M232.437 1057.98C222.654 1057.98 214.931 1055.4 208.753 1049.74C203.089 1044.08 200 1036.36 200 1025.03V1004.44C200 993.623 203.089 985.901 208.753 980.237C214.416 974.574 222.654 972 232.437 972C242.219 972 249.942 974.574 256.121 980.237C261.784 985.901 264.874 994.138 264.874 1004.44V1025.03C264.874 1035.84 261.784 1044.08 256.121 1049.74C250.457 1055.4 242.734 1057.98 232.437 1057.98ZM232.437 1044.59C238.1 1044.59 242.734 1043.05 245.309 1039.96C247.883 1036.87 249.427 1032.24 249.427 1026.06V1003.92C249.427 997.742 247.883 993.109 244.794 990.02C241.704 986.931 237.585 985.386 232.437 985.386C226.773 985.386 222.654 986.931 219.565 990.02C216.476 993.109 214.931 997.742 214.931 1003.41V1025.54C214.931 1031.72 216.476 1036.36 219.05 1039.44C222.654 1043.05 226.773 1044.59 232.437 1044.59Z" fill="#F9893D" fill-opacity="0.5"/>
<path d="M236.555 1177.94V1106.37H234.495L223.168 1132.63H207.207L224.198 1095.05H251.486V1177.94H236.555Z" fill="#F9893D" fill-opacity="0.5"/>
<path d="M232.437 1300.99C222.654 1300.99 214.931 1298.41 208.753 1292.75C203.089 1287.6 200 1279.36 200 1268.04V1247.44C200 1236.63 203.089 1228.91 208.753 1223.25C214.416 1217.58 222.654 1215.01 232.437 1215.01C242.219 1215.01 249.942 1217.58 256.121 1223.25C261.784 1228.91 264.874 1237.15 264.874 1247.44V1268.04C264.874 1278.85 261.784 1287.09 256.121 1292.75C250.457 1297.9 242.734 1300.99 232.437 1300.99ZM232.437 1287.09C238.1 1287.09 242.734 1285.54 245.309 1282.45C247.883 1279.36 249.427 1274.73 249.427 1268.55V1246.41C249.427 1240.24 247.883 1235.6 244.794 1232.51C241.704 1229.42 237.585 1227.88 232.437 1227.88C226.773 1227.88 222.654 1229.42 219.565 1232.51C216.476 1235.6 214.931 1240.24 214.931 1245.9V1268.04C214.931 1274.22 216.476 1278.85 219.05 1281.94C222.654 1285.54 226.773 1287.09 232.437 1287.09Z" fill="#F9893D" fill-opacity="0.5"/>
<path d="M236.555 1420.43V1348.87H234.495L223.168 1375.12H207.207L224.198 1337.54H251.486V1420.43H236.555Z" fill="#F9893D" fill-opacity="0.5"/>
<path d="M236.555 1541.94V1470.37H234.495L223.168 1496.63H207.207L224.198 1459.04H251.486V1541.94H236.555Z" fill="#F9893D" fill-opacity="0.5"/>
<path d="M236.555 1663.44V1591.36H234.495L223.168 1617.62H207.207L224.198 1580.03H251.486V1663.44H236.555Z" fill="#F9893D" fill-opacity="0.5"/>
<path d="M232.437 1786.49C222.654 1786.49 214.931 1783.91 208.753 1778.25C203.089 1773.1 200 1764.86 200 1753.54V1732.94C200 1722.13 203.089 1714.41 208.753 1708.75C214.416 1703.08 222.654 1700.51 232.437 1700.51C242.219 1700.51 249.942 1703.08 256.121 1708.75C261.784 1714.41 264.874 1722.65 264.874 1732.94V1753.54C264.874 1764.35 261.784 1772.59 256.121 1778.25C250.457 1783.4 242.734 1786.49 232.437 1786.49ZM232.437 1772.59C238.1 1772.59 242.734 1771.04 245.309 1767.95C247.883 1764.86 249.427 1760.23 249.427 1754.05V1731.91C249.427 1725.74 247.883 1721.1 244.794 1718.01C241.704 1714.92 237.585 1713.38 232.437 1713.38C226.773 1713.38 222.654 1714.92 219.565 1718.01C216.476 1721.1 214.931 1725.74 214.931 1731.4V1753.54C214.931 1759.72 216.476 1764.35 219.05 1767.44C222.654 1771.04 226.773 1772.59 232.437 1772.59Z" fill="#F9893D" fill-opacity="0.5"/>
<path d="M232.437 1907.48C222.654 1907.48 214.931 1904.9 208.753 1899.24C203.089 1894.09 200 1885.85 200 1874.53V1853.93C200 1843.12 203.089 1835.4 208.753 1829.73C214.416 1824.07 222.654 1821.5 232.437 1821.5C242.219 1821.5 249.942 1824.07 256.121 1829.73C261.784 1835.4 264.874 1843.63 264.874 1853.93V1874.53C264.874 1885.34 261.784 1893.57 256.121 1899.24C250.457 1904.9 242.734 1907.48 232.437 1907.48ZM232.437 1894.09C238.1 1894.09 242.734 1892.54 245.309 1889.46C247.883 1886.37 249.427 1881.73 249.427 1875.55V1853.42C249.427 1847.24 247.883 1842.6 244.794 1839.52C241.704 1836.43 237.585 1834.88 232.437 1834.88C226.773 1834.88 222.654 1836.43 219.565 1839.52C216.476 1842.6 214.931 1847.24 214.931 1852.9V1875.04C214.931 1881.22 216.476 1885.85 219.05 1888.94C222.654 1892.54 226.773 1894.09 232.437 1894.09Z" fill="#F9893D" fill-opacity="0.5"/>
<path d="M236.555 2027.44V1955.87H234.495L223.168 1982.13H207.207L224.198 1944.54H251.486V2027.44H236.555Z" fill="#F9893D" fill-opacity="0.5"/>
<path d="M232.437 2150.48C222.654 2150.48 214.931 2147.91 208.753 2142.25C203.089 2136.58 200 2128.86 200 2117.53V2096.94C200 2086.13 203.089 2078.4 208.753 2072.74C214.416 2067.08 222.654 2064.5 232.437 2064.5C242.219 2064.5 249.942 2067.08 256.121 2072.74C261.784 2078.4 264.874 2086.64 264.874 2096.94V2117.53C264.874 2128.34 261.784 2136.58 256.121 2142.25C250.457 2147.91 242.734 2150.48 232.437 2150.48ZM232.437 2137.1C238.1 2137.1 242.734 2135.55 245.309 2132.46C247.883 2129.37 249.427 2124.74 249.427 2118.56V2096.42C249.427 2090.25 247.883 2085.61 244.794 2082.52C241.704 2079.43 237.585 2077.89 232.437 2077.89C226.773 2077.89 222.654 2079.43 219.565 2082.52C216.476 2085.61 214.931 2090.25 214.931 2095.91V2118.05C214.931 2124.23 216.476 2128.86 219.05 2131.95C222.654 2135.55 226.773 2137.1 232.437 2137.1Z" fill="#F9893D" fill-opacity="0.5"/>
<path opacity="0.78" d="M236.555 2269.93V2198.36H234.495L223.168 2224.62H207.207L224.198 2187.04H251.486V2269.93H236.555Z" fill="#F9893D" fill-opacity="0.5"/>
<path opacity="0.78" d="M232.437 2392.98C222.654 2392.98 214.931 2390.4 208.753 2384.74C203.089 2379.59 200 2371.35 200 2360.03V2339.43C200 2328.62 203.089 2320.9 208.753 2315.23C214.416 2309.57 222.654 2307 232.437 2307C242.219 2307 249.942 2309.57 256.121 2315.23C261.784 2320.9 264.874 2329.13 264.874 2339.43V2360.03C264.874 2370.84 261.784 2379.07 256.121 2384.74C250.457 2390.4 242.734 2392.98 232.437 2392.98ZM232.437 2379.59C238.1 2379.59 242.734 2378.04 245.309 2374.96C247.883 2371.87 249.427 2367.23 249.427 2361.05V2338.92C249.427 2332.74 247.883 2328.1 244.794 2325.02C241.704 2321.93 237.585 2320.38 232.437 2320.38C226.773 2320.38 222.654 2321.93 219.565 2325.02C216.476 2328.1 214.931 2332.74 214.931 2338.4V2360.54C214.931 2366.72 216.476 2371.35 219.05 2374.44C222.654 2378.04 226.773 2379.59 232.437 2379.59Z" fill="#F9893D" fill-opacity="0.5"/>
<path opacity="0.78" d="M232.437 2514.48C222.654 2514.48 214.931 2511.91 208.753 2506.24C203.089 2501.09 200 2492.86 200 2481.53V2460.94C200 2450.12 203.089 2442.4 208.753 2436.74C214.416 2431.07 222.654 2428.5 232.437 2428.5C242.219 2428.5 249.942 2431.07 256.121 2436.74C261.784 2442.4 264.874 2450.64 264.874 2460.94V2481.53C264.874 2492.34 261.784 2500.58 256.121 2506.24C250.457 2511.91 242.734 2514.48 232.437 2514.48ZM232.437 2501.09C238.1 2501.09 242.734 2499.55 245.309 2496.46C247.883 2493.37 249.427 2488.74 249.427 2482.56V2460.42C249.427 2454.24 247.883 2449.61 244.794 2446.52C241.704 2443.43 237.585 2441.89 232.437 2441.89C226.773 2441.89 222.654 2443.43 219.565 2446.52C216.476 2449.61 214.931 2454.24 214.931 2459.91V2482.04C214.931 2488.22 216.476 2492.86 219.05 2495.95C222.654 2499.55 226.773 2501.09 232.437 2501.09Z" fill="#F9893D" fill-opacity="0.5"/>
<path opacity="0.78" d="M236.555 2634.44V2562.87H234.495L223.168 2589.13H207.207L224.198 2551.55H251.486V2634.44H236.555Z" fill="#F9893D" fill-opacity="0.5"/>
<path opacity="0.78" d="M232.437 2757.49C222.654 2757.49 214.931 2754.91 208.753 2749.25C203.089 2743.58 200 2735.86 200 2724.53V2703.94C200 2693.13 203.089 2685.41 208.753 2679.74C214.416 2674.08 222.654 2671.51 232.437 2671.51C242.219 2671.51 249.942 2674.08 256.121 2679.74C261.784 2685.41 264.874 2693.64 264.874 2703.94V2724.53C264.874 2735.35 261.784 2743.58 256.121 2749.25C250.457 2754.4 242.734 2757.49 232.437 2757.49ZM232.437 2743.58C238.1 2743.58 242.734 2742.04 245.309 2738.95C247.883 2735.86 249.427 2731.23 249.427 2725.05V2702.91C249.427 2696.73 247.883 2692.1 244.794 2689.01C241.704 2685.92 237.585 2684.38 232.437 2684.38C226.773 2684.38 222.654 2685.92 219.565 2689.01C216.476 2692.1 214.931 2696.73 214.931 2702.4V2724.53C214.931 2730.71 216.476 2735.35 219.05 2738.44C222.654 2742.04 226.773 2743.58 232.437 2743.58Z" fill="#F9893D" fill-opacity="0.5"/>
<path opacity="0.78" d="M236.555 2876.93V2805.37H234.495L223.168 2831.63H207.207L224.198 2794.04H251.486V2876.93H236.555Z" fill="#F9893D" fill-opacity="0.5"/>
<path opacity="0.78" d="M232.437 2999.98C222.654 2999.98 214.931 2997.4 208.753 2991.74C203.089 2986.59 200 2978.36 200 2967.03V2946.43C200 2935.62 203.089 2927.9 208.753 2922.24C214.416 2916.57 222.654 2914 232.437 2914C242.219 2914 249.942 2916.57 256.121 2922.24C261.784 2927.9 264.874 2936.14 264.874 2946.43V2967.03C264.874 2977.84 261.784 2986.08 256.121 2991.74C250.457 2997.4 242.734 2999.98 232.437 2999.98ZM232.437 2986.59C238.1 2986.59 242.734 2985.05 245.309 2981.96C247.883 2978.87 249.427 2974.24 249.427 2968.06V2945.92C249.427 2939.74 247.883 2935.11 244.794 2932.02C241.704 2928.93 237.585 2927.39 232.437 2927.39C226.773 2927.39 222.654 2928.93 219.565 2932.02C216.476 2935.11 214.931 2939.74 214.931 2945.41V2967.54C214.931 2973.72 216.476 2978.36 219.05 2981.44C222.654 2985.05 226.773 2986.59 232.437 2986.59Z" fill="#F9893D" fill-opacity="0.5"/>
<path opacity="0.78" d="M236.555 3119.94V3048.38H234.495L223.168 3074.63H207.207L224.198 3037.05H251.486V3119.94H236.555Z" fill="#F9893D" fill-opacity="0.5"/>
<path opacity="0.78" d="M232.437 3242.99C222.654 3242.99 214.931 3240.41 208.753 3234.75C203.089 3229.6 200 3221.36 200 3210.04V3189.44C200 3178.63 203.089 3170.91 208.753 3165.25C214.416 3159.58 222.654 3157.01 232.437 3157.01C242.219 3157.01 249.942 3159.58 256.121 3165.25C261.784 3170.91 264.874 3179.15 264.874 3189.44V3210.04C264.874 3220.85 261.784 3229.09 256.121 3234.75C250.457 3239.9 242.734 3242.99 232.437 3242.99ZM232.437 3229.09C238.1 3229.09 242.734 3227.54 245.309 3224.45C247.883 3221.36 249.427 3216.73 249.427 3210.55V3188.41C249.427 3182.24 247.883 3177.6 244.794 3174.51C241.704 3171.42 237.585 3169.88 232.437 3169.88C226.773 3169.88 222.654 3171.42 219.565 3174.51C216.476 3177.6 214.931 3182.24 214.931 3187.9V3210.04C214.931 3216.22 216.476 3220.85 219.05 3223.94C222.654 3227.54 226.773 3229.09 232.437 3229.09Z" fill="#F9893D" fill-opacity="0.5"/>
<path opacity="0.78" d="M236.555 3362.43V3290.87H234.495L223.168 3317.12H207.207L224.198 3279.54H251.486V3362.43H236.555Z" fill="#F9893D" fill-opacity="0.5"/>
</g>
</g>
<defs>
<clipPath id="clip0_336_1000">
<rect width="1920" height="7011" fill="white"/>
</clipPath>
</defs>
</svg>
