<svg width="116" height="130" viewBox="0 0 116 130" fill="none" xmlns="http://www.w3.org/2000/svg">
<path d="M114.293 97.4999C115.199 95.9298 115.762 94.1606 115.762 92.5719V37.4274C115.762 35.8388 115.2 34.0701 114.293 32.5L76.8626 35.8723L51.1133 64.9998L71.5759 94.1829L114.293 97.4999Z" fill="#00599C"/>
<path d="M63.0026 128.809L110.76 101.236C112.135 100.442 113.386 99.0705 114.292 97.4999L58.0005 65.0001L20.9542 66.3094L1.70898 97.5004C2.61529 99.0705 3.86619 100.443 5.24152 101.236L52.9982 128.809C55.7494 130.397 60.2517 130.397 63.0026 128.809Z" fill="#004482"/>
<path d="M114.293 32.4998C113.386 30.9292 112.136 29.5577 110.76 28.7634L63.0034 1.19148C60.2525 -0.39716 55.7502 -0.39716 52.999 1.19148L5.24232 28.7636C2.49089 30.3517 0.240234 34.251 0.240234 37.4277V92.5723C0.240234 94.1609 0.803216 95.9301 1.71003 97.5002L58.0016 65.0001L114.293 32.4998Z" fill="#659AD2"/>
<path d="M57.9997 103.507C36.7666 103.507 19.4922 86.2327 19.4922 64.9997C19.4922 43.7666 36.7666 26.4922 57.9997 26.4922C71.7007 26.4922 84.4789 33.8653 91.3469 45.7339L74.6819 55.3774C71.2446 49.4368 64.8519 45.7461 57.9999 45.7461C47.3833 45.7461 38.7461 54.383 38.7461 64.9997C38.7461 75.6161 47.383 84.2533 57.9999 84.2533C64.8527 84.2533 71.2454 80.5625 74.6832 74.6209L91.3481 84.264C84.4799 96.1338 71.7014 103.507 57.9997 103.507Z" fill="white"/>
</svg>
