<svg width="379" height="407" viewBox="0 0 379 407" fill="none" xmlns="http://www.w3.org/2000/svg">
<path style="mix-blend-mode:color-dodge" d="M369.341 57.4615C371.808 36.6585 357.797 17.6878 338.047 15.0893C318.296 12.4908 300.286 27.2484 297.819 48.0514C295.352 68.8544 309.362 87.8253 329.113 90.4238C348.863 93.0223 366.874 78.2645 369.341 57.4615Z" fill="url(#paint0_radial_154_6291)"/>
<path style="mix-blend-mode:color-dodge" d="M335.57 142.376C345.691 135.324 348.47 120.966 341.775 110.304C335.081 99.6432 321.449 96.7166 311.327 103.768C301.205 110.819 298.427 125.178 305.121 135.839C311.816 146.5 325.448 149.427 335.57 142.376Z" fill="url(#paint1_radial_154_6291)"/>
<path style="mix-blend-mode:color-dodge" d="M245.541 46.8028C251.912 46.5801 256.906 40.9337 256.693 34.1912C256.481 27.4487 251.143 22.1633 244.772 22.3859C238.4 22.6086 233.407 28.2549 233.619 34.9974C233.831 41.74 239.169 47.0254 245.541 46.8028Z" fill="url(#paint2_radial_154_6291)"/>
<path style="mix-blend-mode:color-dodge" d="M100.298 336.815C106.67 336.595 111.665 330.95 111.455 324.208C111.245 317.465 105.909 312.178 99.5373 312.398C93.1654 312.618 88.1703 318.263 88.3805 325.005C88.5906 331.748 93.9263 337.035 100.298 336.815Z" fill="url(#paint3_radial_154_6291)"/>
<path style="mix-blend-mode:color-dodge" d="M372.679 255.216C375.845 242.876 368.914 230.17 357.198 226.836C345.483 223.502 333.42 230.802 330.255 243.142C327.089 255.481 334.02 268.187 345.736 271.521C357.451 274.855 369.514 267.555 372.679 255.216Z" fill="url(#paint4_radial_154_6291)"/>
<path style="mix-blend-mode:color-dodge" d="M112.69 51.1599C120.985 41.83 120.528 27.184 111.67 18.4471C102.812 9.71017 88.9075 10.1908 80.6127 19.5208C72.318 28.8507 72.7744 43.4967 81.6323 52.2337C90.4901 60.9706 104.395 60.4899 112.69 51.1599Z" fill="url(#paint5_radial_154_6291)"/>
<path style="mix-blend-mode:color-dodge" d="M65.6575 163.193C70.7496 151.722 66.0492 138.075 55.1589 132.711C44.2685 127.348 31.3122 132.299 26.2201 143.769C21.128 155.24 25.8283 168.887 36.7187 174.251C47.609 179.614 60.5654 174.663 65.6575 163.193Z" fill="url(#paint6_radial_154_6291)"/>
<path style="mix-blend-mode:color-dodge" d="M12.3061 24.8184C18.678 24.5957 23.6711 18.9494 23.4588 12.2068C23.2464 5.46429 17.909 0.17892 11.5371 0.401561C5.16533 0.624203 0.172146 6.27054 0.3845 13.0131C0.596854 19.7556 5.93433 25.041 12.3061 24.8184Z" fill="url(#paint7_radial_154_6291)"/>
<path style="mix-blend-mode:color-dodge" d="M311.703 205.445C314.896 204.027 318.415 203.642 321.816 204.337C325.216 205.032 328.345 206.777 330.807 209.351C333.269 211.925 334.952 215.212 335.646 218.797C336.339 222.382 336.01 226.104 334.701 229.491C333.392 232.879 331.162 235.781 328.292 237.829C325.422 239.877 322.042 240.981 318.578 241C315.114 241.019 311.723 239.952 308.834 237.935C305.944 235.918 303.685 233.041 302.343 229.668C300.566 225.142 300.552 220.058 302.305 215.522C304.057 210.985 307.435 207.364 311.703 205.445Z" fill="url(#paint8_radial_154_6291)"/>
<path style="mix-blend-mode:color-dodge" d="M100.053 86.089C101.052 75.9906 94.0582 66.9475 84.4317 65.8908C74.8052 64.834 66.1913 72.1637 65.1921 82.2621C64.1928 92.3605 71.1867 101.404 80.8132 102.46C90.4397 103.517 99.0536 96.1874 100.053 86.089Z" fill="url(#paint9_radial_154_6291)"/>
<path style="mix-blend-mode:color-dodge" d="M85.5059 232.779C87.1485 232.014 88.9587 231.806 90.7076 232.183C92.4564 232.56 94.0653 233.503 95.331 234.895C96.5967 236.287 97.4623 238.064 97.8183 240.002C98.1743 241.939 98.0047 243.951 97.331 245.782C96.6573 247.612 95.5098 249.18 94.0335 250.287C92.5572 251.394 90.8184 251.99 89.037 252C87.2556 252.01 85.5116 251.433 84.0254 250.342C82.5393 249.252 81.3777 247.697 80.6877 245.874C79.776 243.426 79.7706 240.679 80.6727 238.227C81.5748 235.776 83.3115 233.818 85.5059 232.779Z" fill="url(#paint10_radial_154_6291)"/>
<path d="M208.576 407.002C151.763 407.002 93 402.384 93 394.638C93 386.891 151.763 382.273 208.576 382.273C265.389 382.273 324.143 386.9 324.143 394.638C324.143 402.375 265.38 407.002 208.576 407.002Z" fill="#58FFFE"/>
<path style="mix-blend-mode:screen" opacity="0.2" d="M296.4 69.6406H115.617V354.982H296.4V69.6406Z" fill="url(#paint11_linear_154_6291)"/>
<path style="mix-blend-mode:screen" opacity="0.35" d="M286.84 63.1016H125.742V244.247H286.84V63.1016Z" fill="url(#paint12_linear_154_6291)"/>
<path d="M115.616 354.984L101.984 384.995H317.023L296.39 354.984H115.616Z" fill="#1455D7"/>
<path d="M205.934 365.023C255.966 365.023 296.525 360.849 296.525 355.699C296.525 350.55 255.966 346.375 205.934 346.375C155.903 346.375 115.344 350.55 115.344 355.699C115.344 360.849 155.903 365.023 205.934 365.023Z" fill="#6FCEF6"/>
<path d="M209.509 401.859C268.553 401.859 316.417 397.685 316.417 392.535C316.417 387.385 268.553 383.211 209.509 383.211C150.466 383.211 102.602 387.385 102.602 392.535C102.602 397.685 150.466 401.859 209.509 401.859Z" fill="#002DA4"/>
<path d="M209.605 394.363C268.987 394.363 317.125 390.188 317.125 385.039C317.125 379.889 268.987 375.715 209.605 375.715C150.224 375.715 102.086 379.889 102.086 385.039C102.086 390.188 150.224 394.363 209.605 394.363Z" fill="#1455D7"/>
<path d="M140.944 376.7H140.838C129.778 375.931 118.784 374.394 107.938 372.1L108.115 371.302C118.886 373.582 129.802 375.11 140.784 375.876L154.159 369.609H154.265C174.314 371.497 210.99 372.206 211.327 372.215V373.031C210.963 373.031 174.42 372.322 154.319 370.434L140.944 376.7Z" fill="#58FFFE"/>
<path d="M198.713 393.891H197.888V387.997L151.011 385.488L139.258 391.985L138.859 391.267L150.816 384.664H150.94L198.713 387.226V393.891Z" fill="#58FFFE"/>
<path d="M211.433 365.146L210.609 365.164L211.245 394.06L212.069 394.042L211.433 365.146Z" fill="#58FFFE"/>
<path d="M211.031 382.204V381.379C211.279 381.379 237.399 381.379 262.039 379.775L266.24 373.057H266.435C266.692 373.057 291.961 370.061 305.07 367.305L305.238 368.111C292.706 370.77 269.121 373.562 266.728 373.855L262.518 380.591H262.305C237.904 382.177 212.095 382.204 211.031 382.204Z" fill="#58FFFE"/>
<path d="M291.97 391.294L291.297 390.824L296.074 383.849H296.234C296.34 383.849 306.71 381.562 314.182 380.578L314.288 381.394C307.357 382.28 297.9 384.327 296.562 384.611L291.97 391.294Z" fill="#58FFFE"/>
<path d="M279.83 361.044L279.055 361.297L282.32 371.288L283.095 371.035L279.83 361.044Z" fill="#58FFFE"/>
<path style="mix-blend-mode:screen" opacity="0.28" d="M242.852 61V358.724H281.016L279.013 61H242.852Z" fill="url(#paint13_linear_154_6291)"/>
<path style="mix-blend-mode:screen" opacity="0.28" d="M121.438 350.998V177.434L157.839 174.961V356.603C157.839 356.603 131.462 354.88 121.438 350.998Z" fill="url(#paint14_linear_154_6291)"/>
<g clip-path="url(#clip0_154_6291)">
<path d="M241.05 226.5C241.565 225.606 241.886 224.599 241.886 223.695V192.305C241.886 191.401 241.566 190.394 241.05 189.5L219.743 191.42L205.086 208L216.734 224.612L241.05 226.5Z" fill="#00599C"/>
<path d="M211.851 244.322L239.036 228.627C239.819 228.175 240.531 227.394 241.047 226.5L209.004 208L187.916 208.745L176.961 226.5C177.477 227.394 178.189 228.175 178.972 228.627L206.156 244.322C207.722 245.226 210.285 245.226 211.851 244.322Z" fill="#004482"/>
<path d="M241.047 189.5C240.531 188.606 239.819 187.825 239.036 187.373L211.852 171.678C210.286 170.774 207.723 170.774 206.157 171.678L178.972 187.373C177.406 188.277 176.125 190.497 176.125 192.305V223.695C176.125 224.599 176.445 225.606 176.962 226.5L209.005 208L241.047 189.5Z" fill="#659AD2"/>
<path d="M209.006 229.917C196.919 229.917 187.086 220.084 187.086 207.998C187.086 195.911 196.919 186.078 209.006 186.078C216.805 186.078 224.078 190.275 227.988 197.031L218.502 202.52C216.545 199.139 212.906 197.038 209.006 197.038C202.962 197.038 198.046 201.954 198.046 207.998C198.046 214.041 202.962 218.958 209.006 218.958C212.907 218.958 216.545 216.857 218.502 213.474L227.989 218.964C224.079 225.72 216.805 229.917 209.006 229.917Z" fill="white"/>
<path d="M229.702 206.994H227.742L227.462 209.29H229.38L229.24 210.662H227.294L227 213H225.656L225.95 210.662H223.612L223.318 213H221.974L222.268 210.662H220.336L220.476 209.29H222.436L222.716 206.994H220.798L220.924 205.636H222.884L223.192 203.2H224.522L224.228 205.636H226.566L226.874 203.2H228.204L227.91 205.636H229.842L229.702 206.994ZM226.118 209.29L226.398 206.994H224.06L223.78 209.29H226.118Z" fill="white"/>
</g>
<defs>
<radialGradient id="paint0_radial_154_6291" cx="0" cy="0" r="1" gradientUnits="userSpaceOnUse" gradientTransform="translate(339.262 41.4965) rotate(-2.17028) scale(36.1441 38.0653)">
<stop stop-color="white"/>
<stop offset="0.03" stop-color="#E5E5E5"/>
<stop offset="0.1" stop-color="#B5B5B5"/>
<stop offset="0.17" stop-color="#8A8A8A"/>
<stop offset="0.24" stop-color="#656565"/>
<stop offset="0.32" stop-color="#454545"/>
<stop offset="0.41" stop-color="#2C2C2C"/>
<stop offset="0.51" stop-color="#181818"/>
<stop offset="0.62" stop-color="#0A0A0A"/>
<stop offset="0.75" stop-color="#020202"/>
<stop offset="1"/>
</radialGradient>
<radialGradient id="paint1_radial_154_6291" cx="0" cy="0" r="1" gradientUnits="userSpaceOnUse" gradientTransform="translate(323.392 123.079) rotate(178.009) scale(21.9742 23.1426)">
<stop stop-color="white"/>
<stop offset="0.03" stop-color="#E5E5E5"/>
<stop offset="0.1" stop-color="#B5B5B5"/>
<stop offset="0.17" stop-color="#8A8A8A"/>
<stop offset="0.24" stop-color="#656565"/>
<stop offset="0.32" stop-color="#454545"/>
<stop offset="0.41" stop-color="#2C2C2C"/>
<stop offset="0.51" stop-color="#181818"/>
<stop offset="0.62" stop-color="#0A0A0A"/>
<stop offset="0.75" stop-color="#020202"/>
<stop offset="1"/>
</radialGradient>
<radialGradient id="paint2_radial_154_6291" cx="0" cy="0" r="1" gradientUnits="userSpaceOnUse" gradientTransform="translate(246.183 27.4145) rotate(-27.3495) scale(11.6974 12.0147)">
<stop stop-color="white"/>
<stop offset="0.04" stop-color="#DCDCDC"/>
<stop offset="0.1" stop-color="#AEAEAE"/>
<stop offset="0.16" stop-color="#858585"/>
<stop offset="0.23" stop-color="#616161"/>
<stop offset="0.31" stop-color="#434343"/>
<stop offset="0.39" stop-color="#2A2A2A"/>
<stop offset="0.48" stop-color="#171717"/>
<stop offset="0.59" stop-color="#0A0A0A"/>
<stop offset="0.73" stop-color="#020202"/>
<stop offset="1"/>
</radialGradient>
<radialGradient id="paint3_radial_154_6291" cx="0" cy="0" r="1" gradientUnits="userSpaceOnUse" gradientTransform="translate(100.47 318.201) rotate(-27.3291) scale(11.6972 12.0645)">
<stop stop-color="white"/>
<stop offset="0.04" stop-color="#D9D9D9"/>
<stop offset="0.1" stop-color="#ACACAC"/>
<stop offset="0.16" stop-color="#838383"/>
<stop offset="0.23" stop-color="#5F5F5F"/>
<stop offset="0.3" stop-color="#424242"/>
<stop offset="0.38" stop-color="#292929"/>
<stop offset="0.47" stop-color="#171717"/>
<stop offset="0.58" stop-color="#0A0A0A"/>
<stop offset="0.72" stop-color="#020202"/>
<stop offset="1"/>
</radialGradient>
<radialGradient id="paint4_radial_154_6291" cx="0" cy="0" r="1" gradientUnits="userSpaceOnUse" gradientTransform="translate(351.46 248.873) rotate(-1.9906) scale(21.9741 23.1425)">
<stop stop-color="white"/>
<stop offset="0.03" stop-color="#E5E5E5"/>
<stop offset="0.1" stop-color="#B5B5B5"/>
<stop offset="0.17" stop-color="#8A8A8A"/>
<stop offset="0.24" stop-color="#656565"/>
<stop offset="0.32" stop-color="#454545"/>
<stop offset="0.41" stop-color="#2C2C2C"/>
<stop offset="0.51" stop-color="#181818"/>
<stop offset="0.62" stop-color="#0A0A0A"/>
<stop offset="0.75" stop-color="#020202"/>
<stop offset="1"/>
</radialGradient>
<radialGradient id="paint5_radial_154_6291" cx="0" cy="0" r="1" gradientUnits="userSpaceOnUse" gradientTransform="translate(96.5182 35.3765) rotate(-1.98001) scale(21.9741 23.1426)">
<stop stop-color="white"/>
<stop offset="0.03" stop-color="#E5E5E5"/>
<stop offset="0.1" stop-color="#B5B5B5"/>
<stop offset="0.17" stop-color="#8A8A8A"/>
<stop offset="0.24" stop-color="#656565"/>
<stop offset="0.32" stop-color="#454545"/>
<stop offset="0.41" stop-color="#2C2C2C"/>
<stop offset="0.51" stop-color="#181818"/>
<stop offset="0.62" stop-color="#0A0A0A"/>
<stop offset="0.75" stop-color="#020202"/>
<stop offset="1"/>
</radialGradient>
<radialGradient id="paint6_radial_154_6291" cx="0" cy="0" r="1" gradientUnits="userSpaceOnUse" gradientTransform="translate(36.0542 156.349) rotate(-1.85574) scale(21.7101 22.8648)">
<stop stop-color="white"/>
<stop offset="0.03" stop-color="#E5E5E5"/>
<stop offset="0.1" stop-color="#B5B5B5"/>
<stop offset="0.17" stop-color="#8A8A8A"/>
<stop offset="0.24" stop-color="#656565"/>
<stop offset="0.32" stop-color="#454545"/>
<stop offset="0.41" stop-color="#2C2C2C"/>
<stop offset="0.51" stop-color="#181818"/>
<stop offset="0.62" stop-color="#0A0A0A"/>
<stop offset="0.75" stop-color="#020202"/>
<stop offset="1"/>
</radialGradient>
<radialGradient id="paint7_radial_154_6291" cx="0" cy="0" r="1" gradientUnits="userSpaceOnUse" gradientTransform="translate(15.714 7.48445) rotate(-27.3497) scale(11.6973 12.0147)">
<stop stop-color="white"/>
<stop offset="0.04" stop-color="#D9D9D9"/>
<stop offset="0.1" stop-color="#ACACAC"/>
<stop offset="0.16" stop-color="#838383"/>
<stop offset="0.23" stop-color="#5F5F5F"/>
<stop offset="0.3" stop-color="#424242"/>
<stop offset="0.38" stop-color="#292929"/>
<stop offset="0.47" stop-color="#171717"/>
<stop offset="0.58" stop-color="#0A0A0A"/>
<stop offset="0.72" stop-color="#020202"/>
<stop offset="1"/>
</radialGradient>
<radialGradient id="paint8_radial_154_6291" cx="0" cy="0" r="1" gradientUnits="userSpaceOnUse" gradientTransform="translate(317.206 219.126) rotate(-111.865) scale(18.4047 17.7024)">
<stop stop-color="white"/>
<stop offset="0.04" stop-color="#D9D9D9"/>
<stop offset="0.1" stop-color="#ACACAC"/>
<stop offset="0.16" stop-color="#838383"/>
<stop offset="0.23" stop-color="#5F5F5F"/>
<stop offset="0.3" stop-color="#424242"/>
<stop offset="0.38" stop-color="#292929"/>
<stop offset="0.47" stop-color="#171717"/>
<stop offset="0.58" stop-color="#0A0A0A"/>
<stop offset="0.72" stop-color="#020202"/>
<stop offset="1"/>
</radialGradient>
<radialGradient id="paint9_radial_154_6291" cx="0" cy="0" r="1" gradientUnits="userSpaceOnUse" gradientTransform="translate(78.4923 81.4252) rotate(-107.435) scale(18.334 17.5772)">
<stop stop-color="white"/>
<stop offset="0.04" stop-color="#D9D9D9"/>
<stop offset="0.1" stop-color="#ACACAC"/>
<stop offset="0.16" stop-color="#838383"/>
<stop offset="0.23" stop-color="#5F5F5F"/>
<stop offset="0.3" stop-color="#424242"/>
<stop offset="0.38" stop-color="#292929"/>
<stop offset="0.47" stop-color="#171717"/>
<stop offset="0.58" stop-color="#0A0A0A"/>
<stop offset="0.72" stop-color="#020202"/>
<stop offset="1"/>
</radialGradient>
<radialGradient id="paint10_radial_154_6291" cx="0" cy="0" r="1" gradientUnits="userSpaceOnUse" gradientTransform="translate(87.8284 238.844) rotate(-110.899) scale(9.88508 9.16765)">
<stop stop-color="white"/>
<stop offset="0.03" stop-color="#E5E5E5"/>
<stop offset="0.1" stop-color="#B5B5B5"/>
<stop offset="0.17" stop-color="#8A8A8A"/>
<stop offset="0.24" stop-color="#656565"/>
<stop offset="0.32" stop-color="#454545"/>
<stop offset="0.41" stop-color="#2C2C2C"/>
<stop offset="0.51" stop-color="#181818"/>
<stop offset="0.62" stop-color="#0A0A0A"/>
<stop offset="0.75" stop-color="#020202"/>
<stop offset="1"/>
</radialGradient>
<linearGradient id="paint11_linear_154_6291" x1="206.269" y1="353.502" x2="206.269" y2="69.5747" gradientUnits="userSpaceOnUse">
<stop stop-color="#0275FF"/>
<stop offset="1"/>
</linearGradient>
<linearGradient id="paint12_linear_154_6291" x1="206.555" y1="243.309" x2="206.555" y2="63.0615" gradientUnits="userSpaceOnUse">
<stop/>
<stop offset="1" stop-color="#0238FF"/>
</linearGradient>
<linearGradient id="paint13_linear_154_6291" x1="261.934" y1="359.415" x2="261.934" y2="61" gradientUnits="userSpaceOnUse">
<stop/>
<stop offset="1" stop-color="#0275FF"/>
</linearGradient>
<linearGradient id="paint14_linear_154_6291" x1="139.651" y1="359.2" x2="139.651" y2="174.961" gradientUnits="userSpaceOnUse">
<stop stop-color="#0275FF"/>
<stop offset="1"/>
</linearGradient>
<clipPath id="clip0_154_6291">
<rect width="74" height="74" fill="white" transform="translate(172 171)"/>
</clipPath>
</defs>
</svg>
