<svg width="30" height="30" viewBox="0 0 30 30" fill="none" xmlns="http://www.w3.org/2000/svg">
<g clip-path="url(#clip0_531_6082)">
<path d="M30 15C30 23.2842 23.2842 30 15 30C6.71579 30 0 23.2842 0 15C0 6.71579 6.71579 0 15 0C23.2842 0 30 6.71579 30 15Z" fill="#473080"/>
<path d="M16.4885 19.6691C16.4885 19.6514 16.4885 19.6382 16.4842 19.6206C16.4842 19.6117 16.4796 19.5986 16.4754 19.5897C16.4754 19.5852 16.4708 19.5809 16.4708 19.5809C16.4665 19.5721 16.4665 19.5675 16.462 19.5587C16.462 19.5544 16.4577 19.5498 16.4577 19.5455C16.4531 19.541 16.4531 19.5367 16.4488 19.5324C16.4443 19.5236 16.4354 19.5147 16.4311 19.5013C16.4311 19.497 16.4266 19.497 16.4266 19.4925C16.4223 19.4882 16.4223 19.4836 16.418 19.4794L16.4135 19.4748C16.4092 19.4662 16.4003 19.4617 16.3958 19.4528L10.9647 14.0217C10.872 13.929 10.7485 13.9071 10.6383 13.9379C10.6118 13.9467 10.5896 13.9556 10.5676 13.9687C10.5545 13.9732 10.5456 13.9821 10.5368 13.9909C10.5148 14.0041 10.4971 14.0217 10.4795 14.0437C10.4618 14.066 10.4441 14.0879 10.431 14.1144L10.2413 14.5027L8.72795 17.5733L7.60717 19.8456L6.89258 21.2928L5.5821 23.9485L5.44974 24.2221C5.40124 24.3191 5.4058 24.434 5.45858 24.5265C5.47198 24.553 5.49395 24.5795 5.51592 24.6015L5.81601 24.9016C5.83798 24.9236 5.86022 24.937 5.88219 24.9547C5.88648 24.9589 5.89103 24.9589 5.89532 24.9635C5.97034 25.0031 6.06305 25.012 6.14691 24.9855C6.1646 24.9809 6.18228 24.9721 6.19541 24.9678L6.71601 24.7119L8.29121 23.9354L8.9131 23.6265L9.55293 23.309L10.5368 22.8235L11.5472 22.3251L12.7339 21.7383L13.762 21.2309L14.3576 20.9353L16.2988 19.978H16.3031C16.3165 19.9691 16.3296 19.9603 16.343 19.9515C16.3473 19.9469 16.3518 19.9469 16.3561 19.9426C16.365 19.9338 16.3738 19.9292 16.3827 19.9206C16.3869 19.9161 16.3915 19.9161 16.3915 19.9118C16.4003 19.8984 16.4135 19.8896 16.4223 19.8764C16.4266 19.8719 16.4266 19.8719 16.4266 19.8676C16.4354 19.8588 16.44 19.8456 16.4443 19.8368C16.4443 19.8322 16.4488 19.8279 16.4488 19.8234C16.4531 19.8103 16.4577 19.7969 16.462 19.7837V19.7794C16.4665 19.766 16.4708 19.7484 16.4708 19.7352C16.4708 19.7307 16.4708 19.7264 16.4708 19.7221C16.4708 19.7087 16.4708 19.6956 16.4708 19.6867C16.4885 19.6779 16.4885 19.6733 16.4885 19.6691Z" fill="#382B73"/>
<path d="M14.4635 15.0458C14.4458 15.0634 14.4327 15.0768 14.4193 15.0943C14.415 15.0988 14.4105 15.1077 14.4062 15.1119C14.3973 15.1208 14.3885 15.1342 14.3796 15.1473C14.3754 15.1561 14.3708 15.1604 14.3665 15.1693C14.362 15.1781 14.3531 15.1915 14.3488 15.2004C14.3443 15.2092 14.34 15.2178 14.3354 15.2266C14.3311 15.2355 14.3266 15.2443 14.3223 15.2577C14.318 15.2665 14.3135 15.2751 14.3092 15.284C14.3046 15.2928 14.3003 15.3016 14.3003 15.3105C14.2958 15.3193 14.2958 15.3327 14.2915 15.3413C14.2869 15.3501 14.2869 15.359 14.2869 15.3678C14.2827 15.3812 14.2827 15.3901 14.2781 15.4032C14.2781 15.412 14.2781 15.4163 14.2738 15.4252C14.2738 15.4386 14.2693 15.4517 14.2693 15.4651V15.4737C14.265 15.5267 14.2693 15.5752 14.2781 15.6283C14.2827 15.6459 14.2827 15.6591 14.2869 15.6722V15.681C14.2869 15.6856 14.2869 15.6899 14.2915 15.6899C14.2958 15.6987 14.2958 15.7121 14.3003 15.721V15.7252C14.3003 15.7298 14.3046 15.7341 14.3046 15.7429V15.7472C14.3092 15.7649 14.318 15.7826 14.3266 15.796V15.8046C14.3311 15.8091 14.3311 15.8134 14.3354 15.818C14.34 15.8268 14.3443 15.8356 14.3488 15.8445C14.3531 15.8533 14.3577 15.8622 14.3665 15.8707C14.3708 15.8796 14.3754 15.8841 14.3796 15.893C14.3885 15.9018 14.3928 15.9149 14.4016 15.9238C14.4062 15.9283 14.4105 15.9369 14.415 15.9415C14.4281 15.9592 14.4415 15.9723 14.4547 15.9857C14.6929 16.2239 15.068 16.2416 15.3281 16.043C15.3504 16.0253 15.3724 16.0077 15.3943 15.9857L21.7388 9.6412C21.7565 9.62351 21.7696 9.61038 21.783 9.5927C21.7873 9.58814 21.7916 9.5793 21.7961 9.57073C21.805 9.56189 21.8138 9.54849 21.8227 9.53965C21.827 9.53081 21.8358 9.52196 21.8404 9.51312C21.8446 9.50455 21.8535 9.49571 21.8578 9.48686C21.8623 9.47347 21.8666 9.46462 21.8755 9.4515C21.88 9.44265 21.8843 9.43381 21.8843 9.42953C21.8889 9.41613 21.8931 9.403 21.8977 9.3896C21.8977 9.38532 21.902 9.37647 21.902 9.37219C21.9065 9.3545 21.9108 9.34111 21.9154 9.32342C21.9154 9.31914 21.9197 9.31458 21.9197 9.31029C21.924 9.29261 21.924 9.27493 21.9285 9.25724C21.9285 9.25295 21.9285 9.25295 21.9285 9.2484C21.9285 9.23098 21.9328 9.20875 21.9328 9.19106V9.18677C21.9328 9.11604 21.924 9.04557 21.902 8.97939C21.8931 8.95742 21.8843 8.93518 21.8755 8.91321C21.8755 8.90892 21.8712 8.90892 21.8712 8.90437C21.8623 8.88668 21.8535 8.869 21.8446 8.85158C21.8404 8.84703 21.8404 8.84274 21.8358 8.83819C21.827 8.8205 21.8138 8.80737 21.805 8.78969C21.8004 8.7854 21.7961 8.78085 21.7916 8.77656C21.7785 8.75888 21.7653 8.74548 21.7519 8.7278C21.7476 8.72351 21.7476 8.72351 21.7431 8.71922C21.6726 8.64849 21.5888 8.59999 21.5049 8.56462C21.3506 8.50729 21.1786 8.51184 21.0285 8.57347C21.0063 8.58231 20.9889 8.59115 20.9712 8.59999C20.9138 8.6308 20.8608 8.67046 20.8123 8.71922L16.846 12.6855L14.4635 15.0458Z" fill="#382B73"/>
<path d="M12.8963 13.4797C12.8523 13.5236 12.817 13.5679 12.7904 13.6209C12.6846 13.8018 12.6758 14.0268 12.7596 14.2165C12.7596 14.2208 12.7639 14.2254 12.7639 14.2297C12.7728 14.2473 12.7816 14.265 12.7904 14.2827C12.795 14.287 12.7993 14.2958 12.7993 14.3001C12.8081 14.3178 12.8213 14.3312 12.8301 14.3443C12.8347 14.3489 12.8389 14.3577 12.8435 14.362C12.8612 14.3797 12.8743 14.4017 12.892 14.4194C12.9097 14.437 12.9274 14.4547 12.9493 14.4679C12.9536 14.4724 12.9625 14.4767 12.967 14.4813C12.9801 14.4898 12.9978 14.5032 13.011 14.5121C13.0198 14.5164 13.0244 14.5209 13.0332 14.5252C13.0509 14.534 13.064 14.5429 13.0817 14.5517C13.086 14.556 13.0948 14.556 13.0994 14.5606C13.1213 14.5694 13.139 14.5782 13.161 14.5825H13.1656C13.2141 14.5959 13.2626 14.6048 13.3156 14.6091H13.3199H13.3906H13.3995C13.4257 14.6091 13.448 14.6048 13.4742 14.6002C13.6066 14.5782 13.7304 14.5164 13.8316 14.4151L13.8405 14.4062C13.8713 14.3752 13.9024 14.3443 13.9332 14.309C13.9463 14.2958 13.9552 14.2827 13.9686 14.2693C13.9905 14.2473 14.0125 14.2254 14.0302 14.2031C14.0436 14.19 14.0567 14.1723 14.0698 14.1592C14.0875 14.137 14.1052 14.115 14.1272 14.0973C14.1406 14.0796 14.1537 14.0665 14.1671 14.0488C14.1848 14.0268 14.2022 14.0092 14.2199 13.9869C14.2333 13.9692 14.2464 13.9518 14.2595 13.9384C14.2772 13.9164 14.2906 13.8988 14.3083 13.8768C14.3214 13.8591 14.3346 13.8414 14.348 13.8237C14.3656 13.8018 14.3788 13.7841 14.3965 13.7621C14.4096 13.7444 14.423 13.7267 14.4361 13.7091C14.4495 13.6871 14.4669 13.6694 14.4803 13.6472C14.4935 13.6298 14.5069 13.6121 14.5157 13.5944C14.5288 13.5721 14.5465 13.5502 14.5596 13.5325C14.573 13.5148 14.5819 13.4974 14.595 13.4797C14.6081 13.4575 14.6215 13.4355 14.6347 13.4135C14.6481 13.3958 14.6566 13.3782 14.67 13.3605C14.6832 13.3385 14.6966 13.3163 14.7097 13.2943C14.7185 13.2766 14.7317 13.2589 14.7405 13.2415C14.7539 13.2193 14.767 13.1973 14.7801 13.1753C14.789 13.1576 14.8024 13.14 14.8112 13.1223C14.8244 13.1003 14.8378 13.0781 14.8509 13.0515C14.8597 13.0341 14.8686 13.0164 14.8774 12.9988C14.8905 12.9722 14.9039 12.9503 14.9125 12.9237C14.9214 12.9061 14.9302 12.8884 14.939 12.8752C14.9524 12.8487 14.9656 12.8179 14.9787 12.7914C14.9832 12.7782 14.9921 12.7649 14.9964 12.7517C15.0141 12.7121 15.0363 12.6679 15.0537 12.6282C15.0583 12.6148 15.0626 12.6017 15.0714 12.5928C15.0848 12.562 15.0979 12.5309 15.111 12.5047C15.1199 12.487 15.1244 12.4693 15.1333 12.4516C15.1421 12.4251 15.1553 12.4031 15.1641 12.3766C15.1729 12.3589 15.1772 12.337 15.1861 12.3193C15.1949 12.2973 15.2038 12.2708 15.2126 12.2488C15.2214 12.2266 15.226 12.2089 15.2348 12.1869C15.2434 12.1649 15.2523 12.1427 15.2568 12.1164C15.2656 12.0942 15.2699 12.0765 15.2745 12.0545C15.2833 12.0326 15.2876 12.0103 15.2965 11.9884C15.301 11.9664 15.3096 11.9442 15.3141 11.9267C15.3184 11.9045 15.3273 11.8825 15.3318 11.8606C15.3361 11.8383 15.345 11.8164 15.3495 11.7944C15.3538 11.7721 15.3626 11.7502 15.3672 11.7282C15.3715 11.706 15.3758 11.684 15.3846 11.662C15.3892 11.6398 15.3935 11.6178 15.4023 11.5958C15.4069 11.5736 15.4111 11.5516 15.4157 11.5297C15.42 11.5074 15.4245 11.4855 15.4288 11.4635C15.4334 11.4412 15.4377 11.4193 15.442 11.3973C15.4465 11.3751 15.4508 11.3531 15.4553 11.3311C15.4596 11.3089 15.4642 11.2869 15.4685 11.2649C15.473 11.2427 15.4773 11.2207 15.4773 11.1988C15.4819 11.1765 15.4862 11.1545 15.4862 11.1326C15.4907 11.1103 15.4907 11.0884 15.495 11.0664C15.4996 11.0442 15.4996 11.0222 15.5038 10.9957C15.5081 10.9737 15.5081 10.9515 15.5127 10.9295C15.517 10.9075 15.517 10.881 15.5215 10.859C15.5215 10.8368 15.5258 10.8194 15.5258 10.7971C15.5304 10.7398 15.5347 10.6824 15.5392 10.6251C15.5392 10.612 15.5392 10.6031 15.5392 10.5897C15.5392 10.5632 15.5392 10.537 15.5435 10.5104C15.5435 10.4927 15.5435 10.4708 15.5435 10.4531C15.5435 10.4266 15.5435 10.4 15.5435 10.3781C15.5435 10.3604 15.5435 10.3384 15.5435 10.3207C15.5435 10.2942 15.5435 10.2722 15.5435 10.2457C15.5435 10.228 15.5435 10.2061 15.5435 10.1884C15.5435 10.1618 15.5435 10.1399 15.5392 10.1133C15.5392 10.0957 15.5392 10.0737 15.5392 10.056C15.5392 10.0295 15.5347 10.0075 15.5347 9.98098C15.5347 9.9633 15.5304 9.94133 15.5304 9.92364C15.5304 9.89712 15.5258 9.87515 15.5258 9.84862C15.5258 9.83094 15.5215 9.80897 15.5215 9.79128C15.517 9.76476 15.517 9.73823 15.5127 9.71626C15.5127 9.69858 15.5081 9.67661 15.5081 9.65892C15.5038 9.6324 15.5038 9.60587 15.4996 9.5839C15.495 9.56622 15.495 9.54425 15.4907 9.52656C15.4862 9.50004 15.4819 9.47351 15.4819 9.44698C15.4773 9.42957 15.4773 9.41188 15.473 9.38965C15.4685 9.36339 15.4642 9.33686 15.4596 9.31034C15.4553 9.29265 15.4553 9.27497 15.4508 9.25729C15.4465 9.23103 15.442 9.2045 15.4377 9.17798C15.4334 9.16029 15.4288 9.14261 15.4288 9.12948C15.4245 9.10295 15.4157 9.07643 15.4111 9.04561C15.4069 9.03249 15.4023 9.0148 15.4023 9.00141C15.3935 8.97059 15.3892 8.94407 15.3803 8.91325C15.3758 8.90441 15.3758 8.89128 15.3715 8.88244C15.3318 8.7324 15.2876 8.58235 15.2391 8.43231C15.2348 8.42346 15.2348 8.41034 15.2303 8.40149C15.2214 8.37068 15.2083 8.34416 15.1995 8.31334C15.1949 8.29995 15.1906 8.28682 15.1861 8.27342C15.1772 8.24716 15.1641 8.21608 15.1553 8.18982C15.151 8.17643 15.1421 8.15874 15.1376 8.14561C15.1287 8.11909 15.1156 8.09256 15.1025 8.0663C15.0979 8.05291 15.0891 8.03522 15.0848 8.02209C15.0714 7.99557 15.0626 7.96904 15.0494 7.94252C15.0406 7.9251 15.0363 7.9117 15.0275 7.89858C15.0141 7.87205 15.0052 7.84552 14.9921 7.819C14.9832 7.80587 14.9787 7.78819 14.9701 7.77506C14.9567 7.74853 14.9436 7.72201 14.9302 7.69548C14.9213 7.68235 14.9171 7.66467 14.9082 7.65154C14.8951 7.62501 14.8817 7.59849 14.8686 7.57652C14.8597 7.56312 14.8509 7.54543 14.8463 7.53231C14.8332 7.50578 14.8201 7.47925 14.8024 7.45728C14.7935 7.44415 14.7847 7.43076 14.7759 7.41307C14.7627 7.38682 14.745 7.36029 14.7317 7.33832C14.7228 7.32492 14.7142 7.31179 14.7054 7.2984C14.6877 7.27214 14.6743 7.24561 14.6566 7.21909C14.6481 7.20596 14.6392 7.19256 14.6347 7.18372C14.617 7.15719 14.5993 7.13094 14.5819 7.10441C14.5773 7.09557 14.5685 7.08673 14.5642 7.07788C14.5465 7.04707 14.5243 7.02055 14.5023 6.98973L14.498 6.98518C14.423 6.87506 14.3391 6.76895 14.2553 6.66312C14.1272 6.50879 13.9948 6.35445 13.8493 6.2087C13.7478 6.10715 13.6243 6.04552 13.4919 6.02355C13.4699 6.019 13.4434 6.019 13.4169 6.01471C13.4126 6.01471 13.4126 6.01471 13.408 6.01471C13.3861 6.01471 13.3641 6.01471 13.3376 6.01471H13.3333C13.2845 6.019 13.2317 6.02784 13.1832 6.04097H13.1787C13.1567 6.04981 13.1347 6.05436 13.1171 6.06321C13.1125 6.06749 13.1037 6.06749 13.0994 6.07205C13.0817 6.08089 13.0686 6.08973 13.0509 6.09857C13.042 6.10286 13.0375 6.10715 13.0286 6.1117C13.0155 6.12054 12.9978 6.12939 12.9847 6.14252C12.9801 6.14707 12.9713 6.15136 12.967 6.15591C12.9493 6.17333 12.9274 6.18673 12.9097 6.20441C12.8612 6.25291 12.8213 6.30569 12.7904 6.3633C12.7816 6.38071 12.7728 6.40295 12.7639 6.42063C12.6846 6.61033 12.7023 6.83085 12.8127 7.0117C12.817 7.01626 12.817 7.02055 12.8213 7.02483C12.8213 7.02483 12.8213 7.02939 12.8258 7.02939C12.8347 7.04707 12.8478 7.0602 12.8612 7.07788C12.8612 7.08244 12.8655 7.08244 12.8655 7.08673C12.8789 7.10441 12.8963 7.12209 12.914 7.13978C12.9625 7.18827 13.011 7.24106 13.0597 7.28955C13.0597 7.28955 13.0597 7.29411 13.064 7.29411C13.1125 7.34716 13.1567 7.39994 13.2009 7.453C13.2845 7.55428 13.3595 7.65582 13.4346 7.75737C14.6304 9.48691 14.4581 11.9179 12.8963 13.4797Z" fill="#382B73"/>
<path d="M24.3189 17.4908C24.332 17.4774 24.3408 17.4642 24.3497 17.4465L24.354 17.442C24.3628 17.4246 24.3716 17.4112 24.3805 17.3935C24.385 17.3892 24.385 17.3847 24.3893 17.3758C24.3982 17.3627 24.4027 17.3496 24.407 17.3362C24.407 17.3319 24.4113 17.3273 24.4113 17.323C24.4159 17.3053 24.4247 17.2922 24.429 17.2745C24.4335 17.2657 24.4335 17.2611 24.4335 17.2523C24.4378 17.2392 24.4378 17.2303 24.4424 17.2172C24.4424 17.2084 24.4467 17.1995 24.4467 17.1907C24.4512 17.1773 24.4512 17.1641 24.4512 17.151C24.4512 17.1422 24.4512 17.1333 24.4555 17.1245C24.4555 17.1156 24.4555 17.1068 24.4555 17.098C24.4555 17.0803 24.4555 17.0626 24.4555 17.0449C24.4555 17.0363 24.4555 17.0318 24.4555 17.0229C24.4555 17.0098 24.4555 17.001 24.4512 16.9921C24.4512 16.9876 24.4512 16.979 24.4467 16.9744C24.4424 16.9479 24.4378 16.9259 24.429 16.8994C24.4247 16.8906 24.4247 16.8817 24.4201 16.8729C24.4201 16.8686 24.4159 16.8641 24.4159 16.8598C24.4113 16.8421 24.4027 16.8244 24.3939 16.8067C24.3893 16.8024 24.3893 16.7936 24.385 16.789C24.3762 16.7759 24.3716 16.7582 24.3628 16.7451C24.3585 16.7362 24.354 16.7317 24.3497 16.7229C24.3408 16.7097 24.332 16.6966 24.3189 16.6789C24.3143 16.6744 24.31 16.6655 24.3055 16.6612C24.2923 16.6435 24.2747 16.6216 24.257 16.6039C23.9438 16.2907 23.5997 16.0171 23.2377 15.7878C23.2246 15.7789 23.2158 15.7744 23.2026 15.7655C22.9068 15.5804 22.5936 15.4258 22.2761 15.3022C22.2188 15.2803 22.1614 15.2583 22.0995 15.2361C21.9318 15.1787 21.7644 15.1259 21.5923 15.0817C21.5436 15.0686 21.4996 15.0598 21.4511 15.0464C21.4112 15.0375 21.3716 15.0287 21.3319 15.0198C21.2261 14.9979 21.1245 14.9802 21.0187 14.9625C20.9922 14.9582 20.9702 14.9537 20.9437 14.9537C20.8686 14.9451 20.7893 14.9362 20.7143 14.9274C20.7055 14.9274 20.6966 14.9274 20.6878 14.9228C20.5554 14.9097 20.4185 14.9009 20.2861 14.9009C20.2376 14.9009 20.1891 14.9009 20.1407 14.9009C19.6289 14.9009 19.1171 14.9671 18.6185 15.1037C18.5258 15.1302 18.4376 15.1568 18.3495 15.1833C17.9964 15.298 17.6569 15.4435 17.326 15.6243C17.2686 15.6554 17.211 15.6905 17.1537 15.7216C17.0655 15.7744 16.9774 15.8317 16.889 15.889C16.7127 16.0083 16.5361 16.1406 16.3729 16.2818C16.3552 16.295 16.3376 16.3126 16.3244 16.3258C16.2229 16.4142 16.1213 16.5069 16.0243 16.6039C16.0066 16.6216 15.989 16.6393 15.9758 16.6612C15.9713 16.6655 15.967 16.6744 15.9624 16.6789C15.9539 16.692 15.9405 16.7054 15.9316 16.7229C15.9273 16.7317 15.9228 16.7362 15.9185 16.7451C15.9097 16.7582 15.9008 16.7759 15.8963 16.789C15.892 16.7936 15.892 16.8024 15.8877 16.8067C15.8788 16.8244 15.8743 16.8421 15.8654 16.8598C15.8654 16.8641 15.8612 16.8686 15.8612 16.8729C15.8566 16.8817 15.8566 16.8906 15.8523 16.8994C15.8478 16.9214 15.8389 16.9479 15.8389 16.9744C15.8389 16.979 15.8389 16.9876 15.8346 16.9921C15.8346 17.001 15.8301 17.0141 15.8301 17.0229V17.0449V17.098V17.1245C15.8301 17.1333 15.8301 17.1422 15.8346 17.151C15.8346 17.1641 15.8389 17.1773 15.8389 17.1907C15.8389 17.1995 15.8435 17.2084 15.8435 17.2172C15.8478 17.2303 15.8478 17.2392 15.8523 17.2523C15.8523 17.2611 15.8566 17.2657 15.8566 17.2745C15.8612 17.2922 15.8654 17.3053 15.8743 17.323C15.8743 17.3273 15.8788 17.3319 15.8788 17.3362C15.8831 17.3496 15.892 17.3627 15.8963 17.3758C15.9008 17.3804 15.9008 17.3847 15.9051 17.3935C15.9139 17.4112 15.9228 17.4246 15.9316 17.442L15.9362 17.4465C15.945 17.4597 15.9582 17.4774 15.967 17.4908C15.9713 17.495 15.9713 17.4996 15.9758 17.5039C15.989 17.517 16.0024 17.5347 16.0155 17.5481C16.0286 17.5612 16.0463 17.5744 16.0597 17.5878C16.311 17.7994 16.6861 17.7906 16.9289 17.5658C16.9377 17.5612 16.942 17.5524 16.9509 17.5481C16.9774 17.5216 17.0039 17.495 17.0302 17.4685C17.0347 17.4642 17.0347 17.4642 17.039 17.4597C17.3083 17.2038 17.6038 16.9876 17.9128 16.8113C17.9347 16.7979 17.9613 16.7847 17.9832 16.7716C18.0186 16.7539 18.0494 16.7362 18.0848 16.7186C18.151 16.6832 18.2214 16.6524 18.2876 16.6216C18.4157 16.5642 18.5435 16.5157 18.6716 16.4715C18.7554 16.445 18.8347 16.4185 18.9186 16.3965C19.0378 16.3611 19.1613 16.3346 19.2849 16.3126C19.3819 16.295 19.4788 16.2773 19.5758 16.2684C19.7613 16.2465 19.9421 16.2333 20.1275 16.2333C20.198 16.2333 20.273 16.2333 20.3437 16.2376C20.4496 16.2422 20.5597 16.251 20.6658 16.2641C20.7716 16.2773 20.8818 16.295 20.9879 16.3126C21.0937 16.3346 21.1995 16.3568 21.3054 16.3877C21.4112 16.4142 21.5128 16.4496 21.6186 16.4847C21.7201 16.52 21.8217 16.5597 21.923 16.6039C22.0776 16.6701 22.2319 16.7494 22.3819 16.8332C22.4128 16.8509 22.4438 16.8686 22.4747 16.8906C22.5585 16.9436 22.6421 16.9964 22.726 17.0538C22.7702 17.0848 22.8144 17.1199 22.8583 17.151C22.8717 17.1599 22.8849 17.173 22.8983 17.1818C22.9468 17.2215 22.9953 17.2569 23.0438 17.3011C23.1365 17.3804 23.2246 17.4597 23.3128 17.5481C23.5512 17.7863 23.9261 17.804 24.1819 17.6054C24.2042 17.5878 24.2262 17.5701 24.2481 17.5481C24.2615 17.5347 24.2747 17.517 24.2878 17.5039C24.31 17.4996 24.3143 17.495 24.3189 17.4908Z" fill="#382B73"/>
<path d="M17.4415 6.35847C17.4458 6.38929 17.4546 6.42037 17.4678 6.44663C17.4678 6.45118 17.4723 6.45118 17.4723 6.45547C17.4766 6.46431 17.4811 6.47771 17.4854 6.48655C17.4854 6.49084 17.49 6.49512 17.49 6.49968C17.4943 6.50852 17.4988 6.51736 17.5031 6.5262C17.5077 6.53049 17.5077 6.53504 17.512 6.53933C17.5165 6.54817 17.5208 6.55702 17.5254 6.56586C17.5296 6.57014 17.5296 6.5747 17.5339 6.57899C17.5385 6.58783 17.5428 6.59667 17.5516 6.60123C17.5562 6.60551 17.5562 6.61007 17.5605 6.61435C17.565 6.6232 17.5739 6.63204 17.5781 6.64088C17.5827 6.64517 17.5827 6.64972 17.587 6.64972C17.5958 6.66285 17.609 6.67169 17.6178 6.68053C17.7017 6.7644 17.8075 6.82602 17.9267 6.85255C18.2796 6.94097 18.6416 6.72474 18.7297 6.36732L18.9591 5.44079C18.9636 5.42311 18.9679 5.40113 18.9725 5.38345C18.9725 5.37916 18.9725 5.37461 18.9725 5.37032C18.9768 5.35264 18.9768 5.3304 18.9768 5.31298C18.9768 5.30843 18.9768 5.30414 18.9768 5.29959C18.9768 5.2819 18.9768 5.26422 18.9768 5.25109C18.9768 5.2468 18.9768 5.24225 18.9768 5.24225C18.9768 5.22456 18.9725 5.20688 18.9725 5.1892C18.9725 5.18491 18.9725 5.17607 18.9679 5.17178C18.9636 5.1541 18.9636 5.1407 18.9591 5.12302C18.9591 5.11444 18.9548 5.10989 18.9548 5.1056C18.9502 5.09676 18.9502 5.08336 18.946 5.07452C18.9414 5.06568 18.9414 5.05684 18.9371 5.04826C18.9326 5.03486 18.9283 5.02174 18.9237 5.01289C18.9194 5.00405 18.9149 4.99521 18.9106 4.98637C18.9063 4.97753 18.9017 4.97324 18.9017 4.9644C18.8929 4.951 18.8841 4.93787 18.8752 4.92019C18.8709 4.9159 18.8664 4.91135 18.8664 4.90706C18.7782 4.77898 18.6459 4.68199 18.4827 4.64234C18.1296 4.55392 17.7678 4.77014 17.6797 5.12757L17.4503 6.0541C17.4193 6.16449 17.4193 6.26577 17.4415 6.35847Z" fill="#382B73"/>
<path d="M16.4305 10.6872C16.4348 10.6958 16.4394 10.7092 16.4437 10.7181C16.4437 10.7223 16.4482 10.7269 16.4482 10.7312C16.4525 10.74 16.4571 10.7489 16.4614 10.7577C16.4659 10.762 16.4659 10.7665 16.4702 10.7708C16.4747 10.7797 16.479 10.7885 16.4836 10.7974C16.4879 10.8019 16.4879 10.8062 16.4922 10.8108C16.4967 10.8196 16.501 10.8282 16.5098 10.8327C16.5144 10.837 16.5144 10.8416 16.5187 10.8459C16.5232 10.8547 16.5321 10.8635 16.5364 10.8681C16.5409 10.8724 16.5409 10.8769 16.5452 10.8812C16.5541 10.8901 16.5629 10.9032 16.576 10.912C16.6599 10.9959 16.7657 11.0578 16.885 11.0841C16.9246 11.0929 16.9643 11.0975 17.0042 11.1017H17.0173C17.0658 11.1017 17.1143 11.1017 17.1585 11.0929C17.1893 11.0886 17.2201 11.0798 17.2512 11.0709C17.2644 11.0666 17.282 11.0621 17.2952 11.0532C17.3263 11.0401 17.3571 11.0267 17.3836 11.0093C17.401 11.0005 17.4187 10.9871 17.4364 10.9739C17.5556 10.8855 17.6438 10.7577 17.6834 10.6034L18.2659 8.23856C18.2702 8.21632 18.2747 8.19891 18.279 8.17667C18.279 8.17238 18.279 8.16783 18.279 8.16354C18.2836 8.14585 18.2836 8.12388 18.2836 8.1062C18.2836 8.10164 18.2836 8.09736 18.2836 8.0928C18.2836 8.07512 18.2836 8.0577 18.2836 8.04431C18.2836 8.04002 18.2836 8.03546 18.2836 8.03546C18.2836 8.01778 18.279 8.00036 18.279 7.98268C18.279 7.97813 18.279 7.96928 18.2747 7.965C18.2702 7.94731 18.2702 7.93418 18.2659 7.9165C18.2659 7.90766 18.2614 7.9031 18.2614 7.89882C18.2571 7.88997 18.2571 7.87658 18.2525 7.868C18.2482 7.85916 18.2482 7.85032 18.2439 7.84148C18.2394 7.82808 18.2351 7.81495 18.2263 7.80611C18.2217 7.79727 18.2174 7.78843 18.2129 7.77958C18.2086 7.77074 18.204 7.76646 18.1997 7.75761C18.1909 7.74422 18.182 7.73109 18.1732 7.71796C18.1689 7.7134 18.1644 7.70912 18.1644 7.70028C18.1512 7.68259 18.1378 7.66491 18.1204 7.64722C18.032 7.54568 17.9173 7.47092 17.7807 7.43984C17.4275 7.35169 17.0658 7.56791 16.9777 7.92534L16.3952 10.2902C16.3644 10.4225 16.3732 10.5592 16.4174 10.6784C16.426 10.6784 16.426 10.6827 16.4305 10.6872Z" fill="#382B73"/>
<path d="M19.3428 13.4793C19.3428 13.4836 19.3428 13.4836 19.3428 13.4793C19.3471 13.5055 19.3516 13.5321 19.3559 13.5543C19.3736 13.6293 19.4044 13.6998 19.4486 13.7617C19.4575 13.7748 19.4663 13.788 19.4752 13.7968C19.4928 13.819 19.5103 13.841 19.5325 13.863C19.6737 14.0042 19.8722 14.0792 20.0796 14.0527C20.1059 14.0484 20.1324 14.0438 20.1589 14.0395L22.5237 13.457C22.8766 13.3689 23.0974 13.0115 23.009 12.654C23.0047 12.6366 23.0001 12.6144 22.9913 12.5967C22.987 12.5881 22.987 12.5836 22.9824 12.5747C22.9782 12.5659 22.9736 12.557 22.9693 12.5439C22.9605 12.5219 22.9473 12.4997 22.9385 12.4777C22.7927 12.2307 22.5018 12.0938 22.206 12.1645L19.8412 12.7467C19.5103 12.8395 19.3029 13.1527 19.3428 13.4793Z" fill="#382B73"/>
<path d="M25.8107 12.0912C25.8065 12.0516 25.8019 12.0162 25.7931 11.9765C25.7888 11.9588 25.7845 11.9412 25.7756 11.9192C25.7711 11.9104 25.7711 11.9058 25.7668 11.897C25.7623 11.8881 25.758 11.8793 25.7534 11.8661C25.6256 11.5749 25.3078 11.4117 24.9903 11.4867L24.0638 11.7161C23.7592 11.7911 23.5563 12.0647 23.5606 12.3691C23.5606 12.3913 23.5606 12.4176 23.5652 12.4398V12.4441C23.5695 12.4706 23.574 12.4926 23.5783 12.5191C23.5829 12.5456 23.5917 12.5722 23.6005 12.5941C23.6137 12.6249 23.6268 12.6558 23.6445 12.6868C23.6533 12.7 23.6579 12.7134 23.6667 12.7265C23.693 12.7619 23.7195 12.797 23.7506 12.828C23.8079 12.8854 23.8741 12.9293 23.9446 12.9604C24.0769 13.022 24.227 13.0397 24.377 13.0001L25.3035 12.7707C25.6122 12.6957 25.8196 12.4087 25.8065 12.1043C25.8153 12.1001 25.8107 12.0955 25.8107 12.0912Z" fill="#382B73"/>
<path d="M9.8451 10.9706C9.84054 10.984 9.83625 11.0017 9.8317 11.0148C9.8317 11.0191 9.82741 11.0236 9.82741 11.0279C9.82286 11.0413 9.81857 11.0544 9.81857 11.0678C9.81857 11.0721 9.81402 11.081 9.81402 11.0853C9.80973 11.0987 9.80973 11.1118 9.80517 11.1252C9.80517 11.134 9.80089 11.1383 9.80089 11.1472C9.80089 11.1603 9.7966 11.1691 9.7966 11.1825C9.7966 11.1914 9.79205 11.2002 9.79205 11.209C9.79205 11.2176 9.78776 11.231 9.78776 11.2399C9.78776 11.253 9.78776 11.2618 9.7832 11.2752V11.3015V11.3588V11.3634C9.7832 11.8309 10.0436 12.2414 10.4273 12.4531L10.4319 12.4576C10.4804 12.4839 10.5332 12.5104 10.5862 12.5281C10.6082 12.5369 10.6304 12.5458 10.6524 12.5501C10.7671 12.5854 10.8951 12.6074 11.0229 12.6074C11.7067 12.6074 12.2627 12.0517 12.2627 11.3677V11.3634C12.2627 11.3457 12.2627 11.3237 12.2627 11.306C12.2627 11.2972 12.2627 11.2884 12.2627 11.2795C12.2627 11.2664 12.2627 11.2575 12.2584 11.2441C12.2584 11.2353 12.2539 11.2222 12.2539 11.2133C12.2539 11.2045 12.2539 11.1957 12.2496 11.1868C12.2496 11.1737 12.245 11.1648 12.245 11.1514C12.245 11.1429 12.2407 11.1383 12.2407 11.1295C12.2362 11.1163 12.2362 11.1029 12.2319 11.0898C12.2319 11.0853 12.2273 11.0767 12.2273 11.0721C12.223 11.059 12.2188 11.0456 12.2188 11.0325C12.2188 11.0279 12.2142 11.0236 12.2142 11.0191C12.2099 11.006 12.2054 10.9883 12.2011 10.9751C12.2011 10.9706 12.2011 10.9706 12.1965 10.9663C12.1922 10.9486 12.1877 10.9355 12.1788 10.9178C12.0025 10.45 11.5481 10.1191 11.0187 10.1191C10.4892 10.1191 10.0348 10.45 9.85823 10.9178C9.85394 10.9355 9.8451 10.9486 9.84054 10.9663C9.84938 10.9663 9.8451 10.9706 9.8451 10.9706Z" fill="#382B73"/>
<path d="M20.3271 19.3397C20.3271 19.3266 20.3271 19.3132 20.3226 19.3044C20.3226 19.2955 20.3183 19.2824 20.3183 19.2735C20.3183 19.2647 20.3137 19.2559 20.3137 19.247C20.3137 19.2339 20.3095 19.225 20.3095 19.2116C20.3095 19.2031 20.3049 19.1985 20.3049 19.1897C20.3006 19.1765 20.3006 19.1631 20.2961 19.15C20.2961 19.1455 20.2918 19.1369 20.2918 19.1323C20.2872 19.1192 20.2829 19.1058 20.2829 19.0927C20.2829 19.0881 20.2786 19.0838 20.2786 19.0793C20.2741 19.0662 20.2698 19.0485 20.2653 19.0353V19.0308C20.1021 18.5367 19.6343 18.1838 19.0874 18.1838C18.5403 18.1838 18.077 18.5413 17.9093 19.0308V19.0353C17.905 19.0485 17.9004 19.0662 17.8962 19.0793C17.8962 19.0838 17.8916 19.0881 17.8916 19.0927C17.8873 19.1058 17.8828 19.1192 17.8828 19.1323C17.8828 19.1369 17.8785 19.1455 17.8785 19.15C17.8739 19.1631 17.8739 19.1765 17.8696 19.1897C17.8696 19.1985 17.8651 19.2031 17.8651 19.2116C17.8651 19.225 17.8608 19.2339 17.8608 19.247C17.8608 19.2559 17.8565 19.2647 17.8565 19.2735C17.8565 19.2824 17.8519 19.2955 17.8519 19.3044C17.8519 19.3177 17.8519 19.3266 17.8477 19.3397V19.3617V19.4236C17.8477 20.1074 18.4034 20.6633 19.0874 20.6633C19.7712 20.6633 20.3271 20.1074 20.3271 19.4236C20.3271 19.4016 20.3271 19.3839 20.3271 19.3617C20.3314 19.3574 20.3271 19.3486 20.3271 19.3397Z" fill="#382B73"/>
<path d="M5.45029 23.3398L10.4315 13.2276C10.5328 13.0248 10.8064 12.9763 10.9652 13.1395L16.392 18.566C16.5552 18.7294 16.5067 18.9985 16.3036 19.1L6.19596 24.081C6.06789 24.1429 5.91355 24.1206 5.81201 24.0193L5.51218 23.7192C5.41064 23.6222 5.38867 23.4677 5.45029 23.3398Z" fill="white"/>
<path d="M5.89158 23.7811L10.8725 13.6689C10.9741 13.4658 11.2476 13.4173 11.4065 13.5805L10.9652 13.1395C10.8021 12.9763 10.5328 13.0248 10.4315 13.2276L5.45029 23.3398C5.38867 23.4677 5.41064 23.6223 5.51218 23.7238L5.81201 24.0236C5.83853 24.0501 5.86506 24.0678 5.89587 24.0855C5.84737 23.9885 5.84309 23.8781 5.89158 23.7811Z" fill="#E6E7E8"/>
<path d="M16.3041 19.0999L14.3629 20.0573L12.7349 20.8603L10.5421 21.9411L8.91409 22.7441L6.71272 23.8295L6.19212 24.0854C6.06405 24.1471 5.90971 24.1251 5.80817 24.0235L5.50808 23.7237C5.4068 23.6222 5.38027 23.4676 5.44645 23.3398L5.57881 23.0662L6.32448 22.6999L8.52157 21.6148L10.1496 20.8118L12.3512 19.7264L13.9792 18.9234L15.4263 18.2131C15.6291 18.1115 15.6776 17.8425 15.5145 17.6793L16.3968 18.5616C16.4013 18.5705 16.4102 18.5748 16.4145 18.5836C16.419 18.5925 16.4276 18.597 16.4321 18.6058C16.4364 18.6147 16.441 18.619 16.4453 18.6278C16.4675 18.6632 16.4806 18.6983 16.4895 18.7382C16.5115 18.8791 16.4453 19.0292 16.3041 19.0999Z" fill="#D1D3D4"/>
<path d="M10.2418 13.6149L8.72852 16.6858L10.5416 21.9403L12.739 20.8549L10.2418 13.6149Z" fill="#F9893D"/>
<path d="M12.7399 20.8579L10.5425 21.9433L10.1543 20.8183L12.3516 19.7328L12.7399 20.8579Z" fill="#F9893D"/>
<path d="M12.5137 14.6871L14.3667 20.0565L16.3079 19.0992C16.4491 19.0285 16.5153 18.8784 16.4888 18.7375L16.458 18.6491C16.4403 18.6182 16.4226 18.5874 16.3961 18.5609L12.5137 14.6871Z" fill="#F9893D"/>
<path d="M16.3041 19.0991L14.3629 20.0564L13.9746 18.9313L15.4217 18.221C15.6248 18.1195 15.6733 17.8505 15.5099 17.6873L16.3925 18.5696C16.3968 18.5785 16.4056 18.5828 16.4102 18.5916C16.4144 18.6004 16.4233 18.605 16.4276 18.6138C16.4321 18.6224 16.4364 18.627 16.441 18.6358C16.4453 18.6447 16.4498 18.6489 16.4541 18.6578L16.4852 18.7462C16.5114 18.8783 16.4453 19.0283 16.3041 19.0991Z" fill="#F9893D"/>
<path d="M6.71785 23.8257L8.91494 22.7449L7.61357 18.9595L6.0957 22.03L6.71785 23.8257Z" fill="#F9893D"/>
<path d="M8.91345 22.7451L6.71637 23.8259L6.32812 22.7009L8.52521 21.6157L8.91345 22.7451Z" fill="#F9893D"/>
<path d="M14.4629 15.0974C14.2025 14.8369 14.2025 14.4179 14.4629 14.162L20.8074 7.8175C21.0676 7.55733 21.4866 7.55733 21.7425 7.8175C22.0029 8.07794 22.0029 8.49699 21.7425 8.75287L15.4026 15.0974C15.1424 15.3575 14.7231 15.3575 14.4629 15.0974Z" fill="#FEDE3A"/>
<path d="M14.5514 14.3386L20.8959 7.99407C21.156 7.7339 21.5754 7.7339 21.8312 7.99407C21.8575 8.0206 21.884 8.05141 21.9063 8.08222C21.8752 7.98523 21.8224 7.89252 21.7428 7.8175C21.4826 7.55733 21.0636 7.55733 20.8077 7.8175L14.4632 14.162C14.2339 14.3913 14.2073 14.7531 14.3882 15.0092C14.3177 14.7796 14.3705 14.5194 14.5514 14.3386Z" fill="#FFF335"/>
<path d="M21.7525 7.8277C21.7836 8.03079 21.7262 8.24702 21.5673 8.40135L15.2274 14.7458C14.967 15.006 14.5479 15.006 14.292 14.7458C14.2875 14.7413 14.2875 14.7413 14.2832 14.737C14.3052 14.8694 14.3671 14.9972 14.4683 15.0987C14.7288 15.3589 15.1478 15.3589 15.4037 15.0987L21.7482 8.75422C21.9995 8.49834 22.0041 8.08813 21.7525 7.8277Z" fill="#F7CB15"/>
<path d="M12.8983 13.5326C12.6381 13.2724 12.6381 12.8531 12.8983 12.5972C14.6543 10.8414 14.6543 7.9868 12.8983 6.23529C12.6381 5.97486 12.6381 5.5558 12.8983 5.29992C13.1587 5.03976 13.5777 5.03976 13.8336 5.29992C16.1057 7.57203 16.1057 11.265 13.8336 13.5371C13.5777 13.793 13.1587 13.793 12.8983 13.5326Z" fill="#FEDE3A"/>
<path d="M13.119 13.5315C12.8586 13.2713 12.8586 12.852 13.119 12.5961C14.8748 10.8403 14.8748 7.98571 13.119 6.22992C12.8586 5.96948 12.8586 5.55043 13.119 5.29455C13.2203 5.193 13.3438 5.13111 13.4762 5.10913C13.2734 5.07377 13.0571 5.13566 12.8983 5.29455C12.6381 5.55471 12.6381 5.97377 12.8983 6.22992C14.6543 7.98571 14.6543 10.8403 12.8983 12.5961C12.6381 12.8565 12.6381 13.2756 12.8983 13.5315C13.0571 13.6904 13.2734 13.7477 13.4762 13.7169C13.3484 13.6949 13.2203 13.633 13.119 13.5315Z" fill="#FFF335"/>
<path d="M13.1844 6.54267C13.0563 6.35297 12.9108 6.17185 12.752 5.99554C12.7828 6.07941 12.8358 6.16327 12.902 6.22945C12.999 6.33073 13.0917 6.43657 13.1844 6.54267Z" fill="#F7CB15"/>
<path d="M14.2447 5.75018C15.8153 8.01774 15.5903 11.1636 13.5741 13.1798C13.349 13.4049 12.9961 13.4357 12.7402 13.2637C12.771 13.3607 12.8238 13.4534 12.9034 13.5327C13.1636 13.7931 13.5829 13.7931 13.8388 13.5327C15.9608 11.4063 16.0975 8.03542 14.2447 5.75018Z" fill="#F7CB15"/>
<path d="M16.0311 16.665C15.7709 16.4048 15.7709 15.9858 16.0311 15.7299C18.3034 13.4575 21.9961 13.4575 24.2683 15.7299C24.5287 15.9901 24.5287 16.4091 24.2683 16.665C24.0081 16.9255 23.5888 16.9255 23.3329 16.665C21.5771 14.9092 18.7225 14.9092 16.971 16.665C16.7106 16.9255 16.2915 16.9255 16.0311 16.665Z" fill="#FEDE3A"/>
<path d="M16.031 15.9062C18.3033 13.6341 21.996 13.6341 24.2681 15.9062C24.374 16.0121 24.4359 16.149 24.4536 16.2856C24.4798 16.0871 24.4182 15.8797 24.2681 15.7299C21.996 13.4575 18.3033 13.4575 16.031 15.7299C15.8812 15.8797 15.8193 16.0871 15.8458 16.2856C15.8635 16.149 15.9251 16.0121 16.031 15.9062Z" fill="#FFF335"/>
<path d="M24.2687 16.3108C24.0085 16.5712 23.5892 16.5712 23.3333 16.3108C21.5775 14.5547 18.7229 14.5547 16.9669 16.3108C16.7067 16.5712 16.2876 16.5712 16.0315 16.3108C15.9479 16.2269 15.8905 16.1256 15.864 16.0195C15.8021 16.2403 15.8595 16.4873 16.0315 16.6636C16.2919 16.9241 16.711 16.9241 16.9669 16.6636C18.7229 14.9078 21.5775 14.9078 23.3333 16.6636C23.5937 16.9241 24.0128 16.9241 24.2687 16.6636C24.4452 16.4873 24.498 16.2403 24.4364 16.0195C24.4099 16.1256 24.3525 16.2269 24.2687 16.3108Z" fill="#F7CB15"/>
<path d="M17.6193 5.80789C17.4607 5.64901 17.3856 5.4151 17.443 5.18146L17.6723 4.25493C17.7605 3.90179 18.1179 3.68128 18.4753 3.76943C18.8282 3.85785 19.0487 4.21501 18.9606 4.57244L18.7312 5.49896C18.6431 5.85184 18.2856 6.07262 17.9282 5.9842C17.809 5.9491 17.7032 5.89176 17.6193 5.80789Z" fill="white"/>
<path d="M16.5824 10.0328C16.4236 9.87422 16.3485 9.64031 16.4059 9.4064L16.9884 7.04159C17.0765 6.68872 17.4339 6.4682 17.7914 6.55636C18.1442 6.64451 18.3648 7.00193 18.2766 7.35936L17.6898 9.72418C17.6014 10.077 17.2442 10.2976 16.8868 10.2094C16.7676 10.1786 16.6618 10.1167 16.5824 10.0328Z" fill="white"/>
<path d="M18.8142 3.97668C18.8361 4.07368 18.8361 4.17523 18.8096 4.27677L18.5803 5.2033C18.4921 5.55617 18.1347 5.77669 17.7772 5.68854C17.6537 5.65772 17.5522 5.59583 17.4683 5.51652C17.4552 5.50339 17.4463 5.49455 17.4375 5.48115C17.464 5.60467 17.5259 5.71935 17.6184 5.81205C17.7022 5.89592 17.8081 5.95781 17.9273 5.98407C18.2802 6.07249 18.6421 5.85626 18.7303 5.49884L18.9596 4.57231C19.0127 4.3518 18.9508 4.13557 18.8142 3.97668Z" fill="#D1D3D4"/>
<path d="M18.1297 6.7663C18.1519 6.86329 18.1519 6.96484 18.1254 7.06639L17.5429 9.4312C17.4547 9.78407 17.0973 10.0046 16.7401 9.91643C16.6163 9.88562 16.5151 9.82373 16.4312 9.74442C16.4181 9.73102 16.4092 9.72218 16.4004 9.70905C16.4266 9.83257 16.4885 9.94725 16.5812 10.04C16.6651 10.1238 16.7709 10.1854 16.8899 10.212C17.2431 10.3001 17.6048 10.0842 17.6929 9.72673L18.2754 7.36192C18.3239 7.14141 18.2666 6.92518 18.1297 6.7663Z" fill="#D1D3D4"/>
<path d="M23.76 11.9434C23.6765 11.8598 23.6146 11.7537 23.588 11.6348C23.4999 11.2816 23.7161 10.9199 24.0735 10.8318L25.0001 10.6024C25.3529 10.514 25.7147 10.7302 25.8028 11.0877C25.8912 11.4405 25.675 11.8022 25.3176 11.8907L24.391 12.12C24.1528 12.1774 23.9189 12.1023 23.76 11.9434Z" fill="white"/>
<path d="M19.5336 12.9872C19.4497 12.9036 19.3878 12.7975 19.3616 12.6786C19.2732 12.3257 19.4894 11.9637 19.8468 11.8755L22.2116 11.2931C22.5645 11.2049 22.9262 11.4211 23.0146 11.7786C23.1028 12.1314 22.8866 12.4931 22.5291 12.5816L20.16 13.1638C19.9261 13.2211 19.6925 13.1461 19.5336 12.9872Z" fill="white"/>
<path d="M25.793 11.0933C25.7799 11.0317 25.7533 10.9744 25.7225 10.9213C25.7268 11.2214 25.524 11.495 25.2196 11.57L24.2931 11.7994C24.0592 11.8567 23.8253 11.7817 23.6667 11.6228C23.6267 11.5831 23.5916 11.5346 23.5605 11.4861C23.5605 11.5346 23.5651 11.5877 23.5782 11.6362C23.6093 11.7597 23.6709 11.8612 23.7505 11.9448C23.9091 12.1037 24.143 12.1788 24.377 12.1214L25.3035 11.8921C25.6652 11.8036 25.8814 11.4465 25.793 11.0933Z" fill="#D1D3D4"/>
<path d="M23.0106 11.7761C22.9975 11.7142 22.9709 11.6568 22.9401 11.6041C22.9444 11.9039 22.7416 12.1775 22.4372 12.2525L20.0724 12.8393C19.8385 12.8966 19.6046 12.8216 19.4457 12.6627C19.406 12.623 19.3707 12.5791 19.3398 12.526C19.3398 12.5745 19.3444 12.6276 19.3575 12.6761C19.3883 12.7996 19.4502 12.9011 19.5295 12.9847C19.6884 13.1436 19.9223 13.2187 20.156 13.1613L22.5208 12.5791C22.8782 12.4907 23.099 12.1332 23.0106 11.7761Z" fill="#D1D3D4"/>
<path d="M12.2649 10.473C12.2649 9.78838 11.7097 9.23322 11.0249 9.23322C10.3403 9.23322 9.78516 9.78838 9.78516 10.473C9.78516 11.1578 10.3403 11.7127 11.0249 11.7127C11.7097 11.7127 12.2649 11.1578 12.2649 10.473Z" fill="white"/>
<path d="M11.0229 10.8347C10.4935 10.8347 10.0391 10.5038 9.86278 10.0359C9.80973 10.1729 9.7832 10.3229 9.7832 10.4772C9.7832 11.161 10.3392 11.717 11.0229 11.717C11.7067 11.717 12.2627 11.161 12.2627 10.4772C12.2627 10.3229 12.2319 10.1729 12.1834 10.0359C12.0068 10.5038 11.5569 10.8347 11.0229 10.8347Z" fill="#D1D3D4"/>
<path d="M20.3311 18.5404C20.3311 17.8558 19.7759 17.3007 19.0913 17.3007C18.4067 17.3007 17.8516 17.8558 17.8516 18.5404C17.8516 19.2253 18.4067 19.7802 19.0913 19.7802C19.7759 19.7802 20.3311 19.2253 20.3311 18.5404Z" fill="white"/>
<path d="M19.0933 18.8992C18.5638 18.8992 18.1094 18.5683 17.9328 18.1007C17.88 18.2374 17.8535 18.3874 17.8535 18.542C17.8535 19.2258 18.4095 19.7817 19.0933 19.7817C19.777 19.7817 20.333 19.2258 20.333 18.542C20.333 18.3874 20.3022 18.2374 20.2537 18.1007C20.0728 18.5683 19.6227 18.8992 19.0933 18.8992Z" fill="#D1D3D4"/>
</g>
<defs>
<clipPath id="clip0_531_6082">
<rect width="30" height="30" fill="white"/>
</clipPath>
</defs>
</svg>
