<svg width="355" height="355" viewBox="0 0 355 355" fill="none" xmlns="http://www.w3.org/2000/svg">
<path d="M113.106 65.9695L241.891 65.9695L306.283 177.5L241.891 289.031L113.106 289.031L48.7142 177.5L113.106 65.9695Z" fill="#1A1A1A" stroke="#D6B88D" stroke-width="2" stroke-linecap="round" stroke-linejoin="round"/>
<path d="M187.527 182.261H202.69V147.552L187.527 162.999V182.261Z" fill="url(#paint0_linear_0_1)"/>
<path d="M152.164 182.261H167.327V162.999L152.164 147.552V182.261Z" fill="url(#paint1_linear_0_1)"/>
<path d="M177.427 162.981H172.391V182.262H182.463V162.981H177.427Z" fill="url(#paint2_linear_0_1)"/>
<path d="M187.472 158.437L202.689 143.018L202.68 127L182.472 147.562H172.39L152.182 127L152.164 143.018L167.381 158.437H187.472Z" fill="url(#paint3_linear_0_1)"/>
<path d="M200.189 217.066C198.434 215.548 191.512 214.891 190.165 213.77C187.764 210.48 196.441 210.31 196.485 213.583L201.094 212.677C199.913 208.701 197.313 207.563 192.919 207.546C186.914 206.821 182.046 213.532 187.339 217.423C189.078 218.612 193.079 219.496 195.696 220.136C200.194 223.109 189.547 225.187 189.37 220.181L184.469 220.968C185.7 227.521 195.525 228.483 199.598 225.023C201.955 223.075 202.656 218.98 200.189 217.066Z" fill="#E8E8E8"/>
<path d="M222.995 216.84C222.681 204.505 204.085 204.72 204.124 217.094C203.594 230.579 223.713 230.086 222.995 216.84ZM216.951 220.94C212.1 225.114 205.802 218.499 210.173 213.753C215.058 209.585 221.273 216.188 216.951 220.94Z" fill="#E8E8E8"/>
<path d="M232.521 208.617C232.389 205.994 234.922 206.385 236.694 206.793L237.351 203.333C229.11 201.209 227.2 204.29 227.774 212.4H225.406V217.265H227.774V227H232.516V217.265H234.884V212.4H232.516C232.516 212.281 232.516 208.815 232.521 208.622V208.617Z" fill="#E8E8E8"/>
<path d="M247.656 222.118C243.505 223.942 244.46 220.352 244.366 217.248H246.745V212.394H244.366C244.366 210.537 244.377 204.42 244.333 202.67L239.641 207.535V212.4H237.273V217.254H239.641C239.31 224.644 239.928 228.807 248.07 226.224L247.656 222.124V222.118Z" fill="#E8E8E8"/>
<path d="M123.029 202.704L118.834 218.754L114.634 202.704H107V226.989H111.741V207.563L116.466 226.989H121.208L125.938 207.563V226.989H130.679V202.704H123.035H123.029Z" fill="#E8E8E8"/>
<path d="M149.356 224.259C148.655 221.025 149.853 213.272 148.528 210.355C145.724 205.785 135.16 206.442 133.713 212.286L137.781 213.833C138.4 210.395 144.863 210.446 144.416 214.212C143.102 214.948 137.533 215.685 135.866 216.664C127.482 222.996 139.034 230.936 144.802 224.74C144.957 225.273 145.288 226.519 145.437 226.853H150.223C149.803 225.935 149.511 225.063 149.356 224.253V224.259ZM144.416 218.596C145.515 223.33 138.499 226.218 137.781 221.099C137.682 218.261 142.683 218.386 144.416 217.553V218.596Z" fill="#E8E8E8"/>
<path d="M160.567 207.603C158.662 207.762 157.983 208.203 156.73 210.135V207.603H156.725L152 212.451V226.994H156.741C157.238 222.809 154.55 208.685 162.256 212.87C162.609 211.839 163.387 209.591 163.751 208.543C162.73 207.915 161.67 207.609 160.567 207.609V207.603Z" fill="#E8E8E8"/>
<path d="M174.507 216.098L182.798 207.592H176.008L170.952 212.802V193.008L166.211 197.867V226.989H170.952V219.734L171.162 219.53L178.426 226.989H185.16L174.507 216.098Z" fill="#E8E8E8"/>
<rect x="2.99805" y="3" width="119.609" height="30" rx="3" fill="white"/>
<rect x="3.49805" y="3.5" width="118.609" height="29" rx="2.5" stroke="black" stroke-opacity="0.14902"/>
<path d="M14.3418 15C14.2949 14.6042 14.1048 14.2969 13.7715 14.0781C13.4382 13.8594 13.0293 13.75 12.5449 13.75C12.1908 13.75 11.8809 13.8073 11.6152 13.9219C11.3522 14.0365 11.1465 14.194 10.998 14.3945C10.8522 14.5951 10.7793 14.8229 10.7793 15.0781C10.7793 15.2917 10.8301 15.4753 10.9316 15.6289C11.0358 15.7799 11.1686 15.9062 11.3301 16.0078C11.4915 16.1068 11.6608 16.1888 11.8379 16.2539C12.015 16.3164 12.1777 16.3672 12.3262 16.4062L13.1387 16.625C13.347 16.6797 13.5788 16.7552 13.834 16.8516C14.0918 16.9479 14.3379 17.0794 14.5723 17.2461C14.8092 17.4102 15.0046 17.6211 15.1582 17.8789C15.3118 18.1367 15.3887 18.4531 15.3887 18.8281C15.3887 19.2604 15.2754 19.651 15.0488 20C14.8249 20.349 14.4967 20.6263 14.0645 20.832C13.6348 21.0378 13.1126 21.1406 12.498 21.1406C11.9251 21.1406 11.429 21.0482 11.0098 20.8633C10.5931 20.6784 10.265 20.4206 10.0254 20.0898C9.78841 19.7591 9.6543 19.375 9.62305 18.9375H10.623C10.6491 19.2396 10.7507 19.4896 10.9277 19.6875C11.1074 19.8828 11.334 20.0286 11.6074 20.125C11.8835 20.2187 12.1803 20.2656 12.498 20.2656C12.8678 20.2656 13.1999 20.2057 13.4941 20.0859C13.7884 19.9635 14.0215 19.7943 14.1934 19.5781C14.3652 19.3594 14.4512 19.1042 14.4512 18.8125C14.4512 18.5469 14.377 18.3307 14.2285 18.1641C14.0801 17.9974 13.8848 17.862 13.6426 17.7578C13.4004 17.6536 13.1387 17.5625 12.8574 17.4844L11.873 17.2031C11.248 17.0234 10.7533 16.7669 10.3887 16.4336C10.0241 16.1003 9.8418 15.6641 9.8418 15.125C9.8418 14.6771 9.96289 14.2865 10.2051 13.9531C10.4499 13.6172 10.778 13.3568 11.1895 13.1719C11.6035 12.9844 12.0658 12.8906 12.5762 12.8906C13.0918 12.8906 13.5501 12.9831 13.9512 13.168C14.3522 13.3503 14.6699 13.6003 14.9043 13.918C15.1413 14.2357 15.2663 14.5964 15.2793 15H14.3418ZM19.3721 21.125C18.7939 21.125 18.2952 20.9974 17.876 20.7422C17.4593 20.4844 17.1377 20.125 16.9111 19.6641C16.6872 19.2005 16.5752 18.6615 16.5752 18.0469C16.5752 17.4323 16.6872 16.8906 16.9111 16.4219C17.1377 15.9505 17.4528 15.5833 17.8564 15.3203C18.2627 15.0547 18.7367 14.9219 19.2783 14.9219C19.5908 14.9219 19.8994 14.974 20.2041 15.0781C20.5088 15.1823 20.7861 15.3516 21.0361 15.5859C21.2861 15.8177 21.4854 16.125 21.6338 16.5078C21.7822 16.8906 21.8564 17.362 21.8564 17.9219V18.3125H17.2314V17.5156H20.9189C20.9189 17.1771 20.8512 16.875 20.7158 16.6094C20.583 16.3437 20.3929 16.1341 20.1455 15.9805C19.9007 15.8268 19.6117 15.75 19.2783 15.75C18.9111 15.75 18.5934 15.8411 18.3252 16.0234C18.0596 16.2031 17.8551 16.4375 17.7119 16.7266C17.5687 17.0156 17.4971 17.3255 17.4971 17.6562V18.1875C17.4971 18.6406 17.5752 19.0247 17.7314 19.3398C17.8903 19.6523 18.1104 19.8906 18.3916 20.0547C18.6729 20.2161 18.9997 20.2969 19.3721 20.2969C19.6143 20.2969 19.833 20.263 20.0283 20.1953C20.2262 20.125 20.3968 20.0208 20.54 19.8828C20.6833 19.7422 20.7939 19.5677 20.8721 19.3594L21.7627 19.6094C21.6689 19.9115 21.5114 20.1771 21.29 20.4062C21.0687 20.6328 20.7952 20.8099 20.4697 20.9375C20.1442 21.0625 19.7783 21.125 19.3721 21.125ZM25.6963 21.125C25.1338 21.125 24.6494 20.9922 24.2432 20.7266C23.8369 20.4609 23.5244 20.0951 23.3057 19.6289C23.0869 19.1628 22.9775 18.6302 22.9775 18.0312C22.9775 17.4219 23.0895 16.8841 23.3135 16.418C23.54 15.9492 23.8551 15.5833 24.2588 15.3203C24.665 15.0547 25.139 14.9219 25.6807 14.9219C26.1025 14.9219 26.4827 15 26.8213 15.1562C27.1598 15.3125 27.4372 15.5312 27.6533 15.8125C27.8695 16.0937 28.0036 16.4219 28.0557 16.7969H27.1338C27.0635 16.5234 26.9072 16.2812 26.665 16.0703C26.4255 15.8568 26.1025 15.75 25.6963 15.75C25.3369 15.75 25.0218 15.8437 24.751 16.0312C24.4827 16.2161 24.2731 16.4779 24.1221 16.8164C23.9736 17.1523 23.8994 17.5469 23.8994 18C23.8994 18.4635 23.9723 18.8672 24.1182 19.2109C24.2666 19.5547 24.4749 19.8216 24.7432 20.0117C25.014 20.2018 25.3317 20.2969 25.6963 20.2969C25.9359 20.2969 26.1533 20.2552 26.3486 20.1719C26.5439 20.0885 26.7093 19.9688 26.8447 19.8125C26.9801 19.6562 27.0765 19.4687 27.1338 19.25H28.0557C28.0036 19.6042 27.8747 19.9232 27.6689 20.207C27.4658 20.4883 27.1963 20.7122 26.8604 20.8789C26.527 21.043 26.139 21.125 25.6963 21.125ZM32.0127 15V15.7812H28.9033V15H32.0127ZM29.8096 13.5625H30.7314V19.2812C30.7314 19.5417 30.7692 19.737 30.8447 19.8672C30.9229 19.9948 31.0218 20.0807 31.1416 20.125C31.264 20.1667 31.3929 20.1875 31.5283 20.1875C31.6299 20.1875 31.7132 20.1823 31.7783 20.1719C31.8434 20.1589 31.8955 20.1484 31.9346 20.1406L32.1221 20.9687C32.0596 20.9922 31.9723 21.0156 31.8604 21.0391C31.7484 21.0651 31.6064 21.0781 31.4346 21.0781C31.1742 21.0781 30.9189 21.0221 30.6689 20.9102C30.4215 20.7982 30.2158 20.6276 30.0518 20.3984C29.8903 20.1693 29.8096 19.8802 29.8096 19.5312V13.5625ZM33.3994 21V15H34.3213V21H33.3994ZM33.8682 14C33.6885 14 33.5335 13.9388 33.4033 13.8164C33.2757 13.694 33.2119 13.5469 33.2119 13.375C33.2119 13.2031 33.2757 13.056 33.4033 12.9336C33.5335 12.8112 33.6885 12.75 33.8682 12.75C34.0479 12.75 34.2015 12.8112 34.3291 12.9336C34.4593 13.056 34.5244 13.2031 34.5244 13.375C34.5244 13.5469 34.4593 13.694 34.3291 13.8164C34.2015 13.9388 34.0479 14 33.8682 14ZM38.4473 21.125C37.9056 21.125 37.4303 20.9961 37.0215 20.7383C36.6152 20.4805 36.2975 20.1198 36.0684 19.6562C35.8418 19.1927 35.7285 18.651 35.7285 18.0312C35.7285 17.4062 35.8418 16.8607 36.0684 16.3945C36.2975 15.9284 36.6152 15.5664 37.0215 15.3086C37.4303 15.0508 37.9056 14.9219 38.4473 14.9219C38.9889 14.9219 39.4629 15.0508 39.8691 15.3086C40.278 15.5664 40.5957 15.9284 40.8223 16.3945C41.0514 16.8607 41.166 17.4062 41.166 18.0312C41.166 18.651 41.0514 19.1927 40.8223 19.6562C40.5957 20.1198 40.278 20.4805 39.8691 20.7383C39.4629 20.9961 38.9889 21.125 38.4473 21.125ZM38.4473 20.2969C38.8587 20.2969 39.1973 20.1914 39.4629 19.9805C39.7285 19.7695 39.9251 19.4922 40.0527 19.1484C40.1803 18.8047 40.2441 18.4323 40.2441 18.0312C40.2441 17.6302 40.1803 17.2565 40.0527 16.9102C39.9251 16.5638 39.7285 16.2839 39.4629 16.0703C39.1973 15.8568 38.8587 15.75 38.4473 15.75C38.0358 15.75 37.6973 15.8568 37.4316 16.0703C37.166 16.2839 36.9694 16.5638 36.8418 16.9102C36.7142 17.2565 36.6504 17.6302 36.6504 18.0312C36.6504 18.4323 36.7142 18.8047 36.8418 19.1484C36.9694 19.4922 37.166 19.7695 37.4316 19.9805C37.6973 20.1914 38.0358 20.2969 38.4473 20.2969ZM43.4951 17.3906V21H42.5732V15H43.4639V15.9375H43.542C43.6826 15.6328 43.8962 15.388 44.1826 15.2031C44.4691 15.0156 44.8389 14.9219 45.292 14.9219C45.6982 14.9219 46.0537 15.0052 46.3584 15.1719C46.6631 15.3359 46.9001 15.5859 47.0693 15.9219C47.2386 16.2552 47.3232 16.6771 47.3232 17.1875V21H46.4014V17.25C46.4014 16.7786 46.279 16.4115 46.0342 16.1484C45.7894 15.8828 45.4535 15.75 45.0264 15.75C44.7321 15.75 44.4691 15.8138 44.2373 15.9414C44.0081 16.069 43.8271 16.2552 43.6943 16.5C43.5615 16.7448 43.4951 17.0417 43.4951 17.3906ZM54.8984 13V21H53.9297V14.0156H53.8828L51.9297 15.3125V14.3281L53.9297 13H54.8984ZM59.8086 21.1094C59.2201 21.1094 58.7188 20.9492 58.3047 20.6289C57.8906 20.306 57.5742 19.8385 57.3555 19.2266C57.1367 18.612 57.0273 17.8698 57.0273 17C57.0273 16.1354 57.1367 15.3971 57.3555 14.7852C57.5768 14.1706 57.8945 13.7018 58.3086 13.3789C58.7253 13.0534 59.2253 12.8906 59.8086 12.8906C60.3919 12.8906 60.8906 13.0534 61.3047 13.3789C61.7214 13.7018 62.0391 14.1706 62.2578 14.7852C62.4792 15.3971 62.5898 16.1354 62.5898 17C62.5898 17.8698 62.4805 18.612 62.2617 19.2266C62.043 19.8385 61.7266 20.306 61.3125 20.6289C60.8984 20.9492 60.3971 21.1094 59.8086 21.1094ZM59.8086 20.25C60.3919 20.25 60.8451 19.9687 61.168 19.4062C61.4909 18.8437 61.6523 18.0417 61.6523 17C61.6523 16.3073 61.5781 15.7174 61.4297 15.2305C61.2839 14.7435 61.0729 14.3724 60.7969 14.1172C60.5234 13.862 60.194 13.7344 59.8086 13.7344C59.2305 13.7344 58.7786 14.0195 58.4531 14.5898C58.1276 15.1576 57.9648 15.9609 57.9648 17C57.9648 17.6927 58.0378 18.2812 58.1836 18.7656C58.3294 19.25 58.5391 19.6185 58.8125 19.8711C59.0885 20.1237 59.4206 20.25 59.8086 20.25ZM66.6836 21.1094C66.0951 21.1094 65.5938 20.9492 65.1797 20.6289C64.7656 20.306 64.4492 19.8385 64.2305 19.2266C64.0117 18.612 63.9023 17.8698 63.9023 17C63.9023 16.1354 64.0117 15.3971 64.2305 14.7852C64.4518 14.1706 64.7695 13.7018 65.1836 13.3789C65.6003 13.0534 66.1003 12.8906 66.6836 12.8906C67.2669 12.8906 67.7656 13.0534 68.1797 13.3789C68.5964 13.7018 68.9141 14.1706 69.1328 14.7852C69.3542 15.3971 69.4648 16.1354 69.4648 17C69.4648 17.8698 69.3555 18.612 69.1367 19.2266C68.918 19.8385 68.6016 20.306 68.1875 20.6289C67.7734 20.9492 67.2721 21.1094 66.6836 21.1094ZM66.6836 20.25C67.2669 20.25 67.7201 19.9687 68.043 19.4062C68.3659 18.8437 68.5273 18.0417 68.5273 17C68.5273 16.3073 68.4531 15.7174 68.3047 15.2305C68.1589 14.7435 67.9479 14.3724 67.6719 14.1172C67.3984 13.862 67.069 13.7344 66.6836 13.7344C66.1055 13.7344 65.6536 14.0195 65.3281 14.5898C65.0026 15.1576 64.8398 15.9609 64.8398 17C64.8398 17.6927 64.9128 18.2812 65.0586 18.7656C65.2044 19.25 65.4141 19.6185 65.6875 19.8711C65.9635 20.1237 66.2956 20.25 66.6836 20.25ZM73.5586 21.1094C72.9701 21.1094 72.4688 20.9492 72.0547 20.6289C71.6406 20.306 71.3242 19.8385 71.1055 19.2266C70.8867 18.612 70.7773 17.8698 70.7773 17C70.7773 16.1354 70.8867 15.3971 71.1055 14.7852C71.3268 14.1706 71.6445 13.7018 72.0586 13.3789C72.4753 13.0534 72.9753 12.8906 73.5586 12.8906C74.1419 12.8906 74.6406 13.0534 75.0547 13.3789C75.4714 13.7018 75.7891 14.1706 76.0078 14.7852C76.2292 15.3971 76.3398 16.1354 76.3398 17C76.3398 17.8698 76.2305 18.612 76.0117 19.2266C75.793 19.8385 75.4766 20.306 75.0625 20.6289C74.6484 20.9492 74.1471 21.1094 73.5586 21.1094ZM73.5586 20.25C74.1419 20.25 74.5951 19.9687 74.918 19.4062C75.2409 18.8437 75.4023 18.0417 75.4023 17C75.4023 16.3073 75.3281 15.7174 75.1797 15.2305C75.0339 14.7435 74.8229 14.3724 74.5469 14.1172C74.2734 13.862 73.944 13.7344 73.5586 13.7344C72.9805 13.7344 72.5286 14.0195 72.2031 14.5898C71.8776 15.1576 71.7148 15.9609 71.7148 17C71.7148 17.6927 71.7878 18.2812 71.9336 18.7656C72.0794 19.25 72.2891 19.6185 72.5625 19.8711C72.8385 20.1237 73.1706 20.25 73.5586 20.25ZM80.4336 21.1094C79.8451 21.1094 79.3438 20.9492 78.9297 20.6289C78.5156 20.306 78.1992 19.8385 77.9805 19.2266C77.7617 18.612 77.6523 17.8698 77.6523 17C77.6523 16.1354 77.7617 15.3971 77.9805 14.7852C78.2018 14.1706 78.5195 13.7018 78.9336 13.3789C79.3503 13.0534 79.8503 12.8906 80.4336 12.8906C81.0169 12.8906 81.5156 13.0534 81.9297 13.3789C82.3464 13.7018 82.6641 14.1706 82.8828 14.7852C83.1042 15.3971 83.2148 16.1354 83.2148 17C83.2148 17.8698 83.1055 18.612 82.8867 19.2266C82.668 19.8385 82.3516 20.306 81.9375 20.6289C81.5234 20.9492 81.0221 21.1094 80.4336 21.1094ZM80.4336 20.25C81.0169 20.25 81.4701 19.9687 81.793 19.4062C82.1159 18.8437 82.2773 18.0417 82.2773 17C82.2773 16.3073 82.2031 15.7174 82.0547 15.2305C81.9089 14.7435 81.6979 14.3724 81.4219 14.1172C81.1484 13.862 80.819 13.7344 80.4336 13.7344C79.8555 13.7344 79.4036 14.0195 79.0781 14.5898C78.7526 15.1576 78.5898 15.9609 78.5898 17C78.5898 17.6927 78.6628 18.2812 78.8086 18.7656C78.9544 19.25 79.1641 19.6185 79.4375 19.8711C79.7135 20.1237 80.0456 20.25 80.4336 20.25ZM87.3086 21.1094C86.7201 21.1094 86.2188 20.9492 85.8047 20.6289C85.3906 20.306 85.0742 19.8385 84.8555 19.2266C84.6367 18.612 84.5273 17.8698 84.5273 17C84.5273 16.1354 84.6367 15.3971 84.8555 14.7852C85.0768 14.1706 85.3945 13.7018 85.8086 13.3789C86.2253 13.0534 86.7253 12.8906 87.3086 12.8906C87.8919 12.8906 88.3906 13.0534 88.8047 13.3789C89.2214 13.7018 89.5391 14.1706 89.7578 14.7852C89.9792 15.3971 90.0898 16.1354 90.0898 17C90.0898 17.8698 89.9805 18.612 89.7617 19.2266C89.543 19.8385 89.2266 20.306 88.8125 20.6289C88.3984 20.9492 87.8971 21.1094 87.3086 21.1094ZM87.3086 20.25C87.8919 20.25 88.3451 19.9687 88.668 19.4062C88.9909 18.8437 89.1523 18.0417 89.1523 17C89.1523 16.3073 89.0781 15.7174 88.9297 15.2305C88.7839 14.7435 88.5729 14.3724 88.2969 14.1172C88.0234 13.862 87.694 13.7344 87.3086 13.7344C86.7305 13.7344 86.2786 14.0195 85.9531 14.5898C85.6276 15.1576 85.4648 15.9609 85.4648 17C85.4648 17.6927 85.5378 18.2812 85.6836 18.7656C85.8294 19.25 86.0391 19.6185 86.3125 19.8711C86.5885 20.1237 86.9206 20.25 87.3086 20.25ZM94.3867 13V21H93.418V14.0156H93.3711L91.418 15.3125V14.3281L93.418 13H94.3867ZM99.1875 21.1094C98.7292 21.1094 98.3164 21.0182 97.9492 20.8359C97.582 20.6536 97.2878 20.4036 97.0664 20.0859C96.8451 19.7682 96.724 19.4062 96.7031 19H97.6406C97.6771 19.362 97.8411 19.6615 98.1328 19.8984C98.4271 20.1328 98.7786 20.25 99.1875 20.25C99.5156 20.25 99.8073 20.1732 100.063 20.0195C100.32 19.8659 100.522 19.6549 100.668 19.3867C100.816 19.1159 100.891 18.8099 100.891 18.4687C100.891 18.1198 100.814 17.8086 100.66 17.5352C100.509 17.2591 100.301 17.0417 100.035 16.8828C99.7695 16.724 99.4661 16.6432 99.125 16.6406C98.8802 16.638 98.6289 16.6758 98.3711 16.7539C98.1133 16.8294 97.901 16.9271 97.7344 17.0469L96.8281 16.9375L97.3125 13H101.469V13.8594H98.125L97.8438 16.2187H97.8906C98.0547 16.0885 98.2604 15.9805 98.5078 15.8945C98.7552 15.8086 99.013 15.7656 99.2813 15.7656C99.7708 15.7656 100.207 15.8828 100.59 16.1172C100.975 16.349 101.277 16.6667 101.496 17.0703C101.717 17.474 101.828 17.9349 101.828 18.4531C101.828 18.9635 101.714 19.4193 101.484 19.8203C101.258 20.2187 100.945 20.5339 100.547 20.7656C100.148 20.9948 99.6953 21.1094 99.1875 21.1094ZM106.083 21.1094C105.567 21.1094 105.108 21.0208 104.704 20.8437C104.303 20.6667 103.984 20.4206 103.747 20.1055C103.513 19.7878 103.385 19.4193 103.364 19H104.349C104.369 19.2578 104.458 19.4805 104.614 19.668C104.771 19.8529 104.975 19.9961 105.228 20.0977C105.48 20.1992 105.76 20.25 106.067 20.25C106.411 20.25 106.716 20.1901 106.981 20.0703C107.247 19.9505 107.455 19.7839 107.606 19.5703C107.757 19.3568 107.833 19.1094 107.833 18.8281C107.833 18.5339 107.76 18.2747 107.614 18.0508C107.468 17.8242 107.255 17.6471 106.974 17.5195C106.692 17.3919 106.349 17.3281 105.942 17.3281H105.302V16.4687H105.942C106.26 16.4687 106.539 16.4115 106.778 16.2969C107.021 16.1823 107.209 16.0208 107.345 15.8125C107.483 15.6042 107.552 15.3594 107.552 15.0781C107.552 14.8073 107.492 14.5716 107.372 14.3711C107.252 14.1706 107.083 14.0143 106.864 13.9023C106.648 13.7904 106.393 13.7344 106.099 13.7344C105.823 13.7344 105.562 13.7852 105.317 13.8867C105.075 13.9857 104.877 14.1302 104.724 14.3203C104.57 14.5078 104.487 14.7344 104.474 15H103.536C103.552 14.5807 103.678 14.2135 103.915 13.8984C104.152 13.5807 104.462 13.3333 104.845 13.1562C105.23 12.9792 105.653 12.8906 106.114 12.8906C106.609 12.8906 107.034 12.9909 107.388 13.1914C107.742 13.3893 108.014 13.651 108.204 13.9766C108.394 14.3021 108.489 14.6536 108.489 15.0313C108.489 15.4818 108.371 15.8659 108.134 16.1836C107.899 16.5013 107.58 16.7214 107.177 16.8438V16.9062C107.682 16.9896 108.076 17.2044 108.36 17.5508C108.644 17.8945 108.786 18.3203 108.786 18.8281C108.786 19.263 108.668 19.6536 108.431 20C108.196 20.3437 107.876 20.6146 107.47 20.8125C107.063 21.0104 106.601 21.1094 106.083 21.1094ZM110.196 19.3594V18.5625L113.712 13H114.29V14.2344H113.899L111.243 18.4375V18.5H115.978V19.3594H110.196ZM113.962 21V19.1172V18.7461V13H114.884V21H113.962Z" fill="black"/>
<defs>
<linearGradient id="paint0_linear_0_1" x1="195.109" y1="182.095" x2="195.109" y2="153.865" gradientUnits="userSpaceOnUse">
<stop stop-color="#F96B31"/>
<stop offset="1" stop-color="#F9893D"/>
</linearGradient>
<linearGradient id="paint1_linear_0_1" x1="159.745" y1="182.095" x2="159.745" y2="153.865" gradientUnits="userSpaceOnUse">
<stop stop-color="#F96B31"/>
<stop offset="1" stop-color="#F9893D"/>
</linearGradient>
<linearGradient id="paint2_linear_0_1" x1="177.427" y1="182.096" x2="177.427" y2="153.866" gradientUnits="userSpaceOnUse">
<stop stop-color="#F96B31"/>
<stop offset="1" stop-color="#F9893D"/>
</linearGradient>
<linearGradient id="paint3_linear_0_1" x1="177.426" y1="182.096" x2="177.426" y2="153.866" gradientUnits="userSpaceOnUse">
<stop stop-color="#F96B31"/>
<stop offset="1" stop-color="#F9893D"/>
</linearGradient>
</defs>
</svg>
