<svg width="30" height="30" viewBox="0 0 30 30" fill="none" xmlns="http://www.w3.org/2000/svg">
<g clip-path="url(#clip0_531_6066)">
<path d="M30 15C30 23.2842 23.2842 30 15 30C6.71579 30 0 23.2842 0 15C0 6.71579 6.71579 0 15 0C23.2842 0 30 6.71579 30 15Z" fill="#473080"/>
<path d="M25.7961 22.1518C25.4961 21.8521 25.1059 21.6997 24.7108 21.6902L24.3159 21.2951L23.2259 20.2051L22.8308 19.8102L22.4834 19.4625L22.0883 19.0677L21.9599 18.9391C21.9455 18.8107 21.9122 18.6821 21.8645 18.563L23.1213 17.3065C23.2546 17.1733 23.3592 17.0259 23.4447 16.8686C23.6352 16.507 23.6925 16.0928 23.6211 15.698C23.6115 15.6549 23.602 15.6171 23.5925 15.5743C23.5829 15.5407 23.5734 15.5029 23.5638 15.4694C23.5543 15.4361 23.5401 15.4029 23.5257 15.3647C23.5066 15.317 23.4875 15.2696 23.4638 15.2219C23.3783 15.0505 23.2641 14.8887 23.1213 14.7459C23.1118 14.7363 23.0973 14.7268 23.0878 14.7175C23.0832 14.7126 23.0832 14.7126 23.0782 14.708C23.0687 14.7031 23.0592 14.6936 23.0499 14.6889C23.045 14.6889 23.045 14.684 23.0404 14.684C23.0308 14.6794 23.0213 14.6699 23.0118 14.6649C23.0068 14.6649 23.0068 14.6649 23.0022 14.6603C22.9927 14.6557 22.9785 14.6508 22.969 14.6462H22.9641C22.9499 14.6412 22.9404 14.6366 22.9259 14.6317C22.9259 14.6317 22.9259 14.6317 22.9213 14.6317C22.9071 14.6271 22.8927 14.6271 22.8785 14.6222C22.8499 14.6175 22.8167 14.6175 22.788 14.6175C22.6785 14.6222 22.5689 14.6649 22.4834 14.7508L20.8176 16.4166L18.733 14.2033L18.4474 13.8987L18.2379 13.675L22.6262 9.54393C22.7453 9.42947 22.8213 9.27743 22.8404 9.11556L23.1927 5.63633C23.1927 5.62679 23.1927 5.61725 23.1927 5.61234C23.1927 5.60771 23.1927 5.60309 23.1927 5.60309C23.1927 5.59817 23.1927 5.59355 23.1927 5.58863C23.1927 5.58401 23.1927 5.5791 23.1878 5.57447C23.1878 5.56956 23.1878 5.56956 23.1878 5.56493C23.1878 5.56002 23.1832 5.55539 23.1832 5.54586V5.54094C23.1832 5.53632 23.1782 5.52678 23.1736 5.52215C23.1736 5.52215 23.1736 5.52215 23.1736 5.51724C23.1687 5.51262 23.1687 5.50308 23.1641 5.49816C23.1592 5.49354 23.1545 5.484 23.1496 5.47909C23.1022 5.41723 23.0308 5.37937 22.945 5.3889L19.4658 5.74096C19.3042 5.75513 19.1518 5.83143 19.0374 5.95514L15.0061 10.2388L10.9748 5.95514C10.8655 5.83606 10.7083 5.76004 10.5467 5.74096L7.06745 5.3889C6.99114 5.37937 6.92466 5.41261 6.87697 5.4603C6.86743 5.46955 6.85789 5.47909 6.85327 5.49354C6.82928 5.53169 6.81511 5.58401 6.81974 5.63633L7.17208 9.11556C7.18625 9.27743 7.26256 9.42947 7.38627 9.54393L11.7746 13.675L11.565 13.8987L9.19482 16.4166L7.52905 14.7508C7.44321 14.6649 7.33395 14.6222 7.2244 14.6175C7.19579 14.6175 7.16255 14.6175 7.13393 14.6222C7.11977 14.6222 7.10531 14.6271 7.09115 14.6317C7.09115 14.6317 7.09115 14.6317 7.08624 14.6317C7.07207 14.6366 7.06254 14.6412 7.04837 14.6462H7.04346C7.03392 14.6508 7.01976 14.6557 7.01022 14.6603C7.00559 14.6603 7.00559 14.6603 7.00068 14.6649C6.99114 14.6699 6.9816 14.6745 6.97206 14.684C6.96744 14.684 6.96744 14.6889 6.96253 14.6889C6.95299 14.6936 6.94374 14.7031 6.9342 14.708C6.92929 14.7126 6.92929 14.7126 6.92466 14.7175C6.91512 14.7268 6.90067 14.7363 6.89113 14.7459C6.74834 14.8887 6.63417 15.0505 6.54861 15.2219C6.52462 15.2696 6.50584 15.317 6.48676 15.3647C6.47231 15.398 6.46277 15.4315 6.4486 15.4694C6.43907 15.5029 6.42953 15.5407 6.41999 15.5743C6.41045 15.6171 6.40091 15.6549 6.39137 15.698C6.31998 16.0928 6.37721 16.507 6.56769 16.8686C6.64862 17.0259 6.75788 17.1733 6.89113 17.3065L8.14761 18.563C8.10021 18.6867 8.06697 18.8107 8.05252 18.9391L7.92418 19.0677L7.52905 19.4625L7.18162 19.8102L6.7865 20.2051L5.69651 21.2951L5.30167 21.6902C4.90655 21.6948 4.51634 21.8521 4.21631 22.1518C3.60238 22.7657 3.60238 23.7606 4.21631 24.3745C4.83024 24.9885 5.82513 24.9885 6.43907 24.3745C6.73881 24.0745 6.89113 23.6843 6.90067 23.2892L9.6518 20.5383C9.78014 20.5239 9.90876 20.4906 10.0279 20.4432L11.2843 21.6997C11.3939 21.809 11.5176 21.9044 11.6459 21.9804C11.6841 22.0044 11.7222 22.0232 11.765 22.0422C11.8841 22.0995 12.0078 22.1472 12.1361 22.1804C12.1648 22.185 12.1934 22.1946 12.222 22.1995C12.4457 22.2423 12.6741 22.2423 12.8978 22.1995C12.9359 22.1899 12.9738 22.185 13.012 22.1755C13.0547 22.166 13.0975 22.1518 13.1406 22.1376C13.1597 22.1327 13.1738 22.1232 13.1929 22.1185C13.2498 22.0946 13.3071 22.0709 13.3643 22.0422C13.5354 21.9567 13.6973 21.8425 13.8401 21.6997C13.8496 21.6902 13.8591 21.6757 13.8687 21.6662L13.8782 21.6567C13.8828 21.6474 13.8924 21.6379 13.8973 21.6283C13.8973 21.6234 13.9019 21.6234 13.9019 21.6188C13.9068 21.6093 13.9164 21.5997 13.921 21.5902C13.921 21.5853 13.9259 21.5853 13.9259 21.5806C13.9305 21.5711 13.9355 21.5569 13.9401 21.5474V21.5425C13.9447 21.5283 13.9496 21.5188 13.9542 21.5046C13.9542 21.5046 13.9542 21.5046 13.9542 21.4997C13.9592 21.4855 13.9592 21.4711 13.9638 21.4569C13.9687 21.4283 13.9687 21.3951 13.9687 21.3665C13.9638 21.2569 13.921 21.1476 13.8354 21.0618L12.1648 19.3914L14.7777 16.9305L15.0015 16.7212L15.2252 16.9305L15.5298 17.2161L17.8381 19.3914L16.1675 21.0618C16.0819 21.1476 16.0391 21.2569 16.0342 21.3665C16.0342 21.3951 16.0342 21.4283 16.0391 21.4569C16.0391 21.4711 16.0437 21.4855 16.0487 21.4997V21.5046C16.0533 21.5188 16.0582 21.5283 16.0628 21.5425V21.5474C16.0674 21.5569 16.0724 21.5711 16.077 21.5806C16.077 21.5853 16.077 21.5853 16.0819 21.5902C16.0865 21.5997 16.0914 21.6093 16.101 21.6188C16.101 21.6234 16.1056 21.6234 16.1056 21.6283C16.1105 21.6379 16.1201 21.6474 16.1247 21.6567C16.1296 21.6616 16.1296 21.6616 16.1342 21.6662C16.1438 21.6757 16.1533 21.6902 16.1628 21.6997C16.3056 21.8425 16.4675 21.9567 16.6386 22.0422C16.6958 22.0709 16.7531 22.0946 16.81 22.1185C16.8291 22.1232 16.8432 22.1327 16.8623 22.1376C16.9054 22.1518 16.9482 22.166 16.9909 22.1755C17.0291 22.185 17.067 22.1946 17.1051 22.1995C17.3288 22.2423 17.5572 22.2423 17.7809 22.1995C17.8095 22.1946 17.8381 22.1899 17.8668 22.1804C17.9951 22.1472 18.1188 22.1041 18.2379 22.0422C18.276 22.0232 18.3188 22.0044 18.357 21.9804C18.4853 21.9044 18.6044 21.8139 18.7186 21.6997L19.975 20.4432C20.0988 20.4906 20.2228 20.5239 20.3511 20.5383L23.1022 23.2892C23.1069 23.6843 23.2641 24.0745 23.5638 24.3745C24.1778 24.9885 25.1727 24.9885 25.7866 24.3745C26.4101 23.7606 26.4101 22.7657 25.7961 22.1518Z" fill="#382B73"/>
<path d="M21.0037 15.6678L20.4421 16.2294L19.6805 16.9908L19.5189 17.1526L18.0433 18.6282L17.8433 18.4377L15.535 16.2627L15.5113 16.2436L15.2303 15.9771L12.2699 13.1881L12.2508 13.169L11.9465 12.8834L7.38679 8.59025C7.2677 8.47608 7.19168 8.32375 7.17723 8.16189L6.82518 4.68294C6.82026 4.63033 6.83471 4.58293 6.85842 4.54015C6.86333 4.5257 6.87287 4.51616 6.88212 4.50662C6.92981 4.45431 6.99658 4.42569 7.0726 4.43523L10.5472 4.78757C10.7137 4.80174 10.8611 4.87805 10.9753 5.00176L15.1685 9.45652L15.454 9.76117L15.4731 9.78025L18.448 12.9407L18.7145 13.2213L18.7335 13.245L20.8181 15.4583L21.0037 15.6678Z" fill="#D1D3D4"/>
<path d="M19.3186 16.9621L17.8384 18.4423L15.5301 16.2673L15.2255 15.9817L12.2651 13.1973L11.9413 12.8927L7.38165 8.59977C7.26285 8.4856 7.18654 8.33327 7.16747 8.17141L6.81541 4.69217C6.8105 4.63986 6.82495 4.59216 6.84865 4.54938C6.85819 4.53522 6.8631 4.52568 6.87264 4.51614L19.3186 16.9621Z" fill="#BCBEC0"/>
<path d="M20.4409 16.2322L18.5991 18.074L8.32789 8.18372C8.20909 8.07446 8.13769 7.92213 8.12324 7.76027L7.92351 5.79447C7.91397 5.71845 7.94721 5.65168 7.99491 5.60428C8.04231 5.56121 8.10416 5.53751 8.17093 5.54705L10.1364 5.74215C10.2983 5.75632 10.446 5.83262 10.5602 5.9468L20.4409 16.2322Z" fill="white"/>
<path d="M19.5177 17.1529L18.6037 18.0669L8.32789 8.18128C8.20909 8.07202 8.13769 7.91969 8.12324 7.75782L7.92351 5.79203C7.91397 5.71601 7.94721 5.64924 7.99491 5.60184L19.5177 17.1529Z" fill="#E6E7E8"/>
<path d="M23.1222 16.355L18.729 20.7479C18.0246 21.4523 16.8777 21.4523 16.1733 20.7479C15.9969 20.5718 15.9969 20.2863 16.1733 20.1102L22.4843 13.7992C22.6603 13.6229 22.9459 13.6229 23.1222 13.7992C23.8266 14.5036 23.8266 15.6506 23.1222 16.355Z" fill="#1CAEE4"/>
<path d="M22.7876 13.6648C23.0495 14.3166 22.9162 15.0877 22.3878 15.6161L17.9947 20.009C17.4666 20.5374 16.6954 20.6707 16.0433 20.4088C16.0387 20.5279 16.0815 20.6516 16.1766 20.7467C16.881 21.4511 18.0282 21.4511 18.7326 20.7467L23.1255 16.3538C23.8299 15.6494 23.8299 14.5024 23.1255 13.798C23.0304 13.7026 22.9067 13.6599 22.7876 13.6648Z" fill="#009ADD"/>
<path d="M21.9739 18.1541C21.9739 18.9508 21.3282 19.5965 20.5319 19.5965C19.7353 19.5965 19.0898 18.9508 19.0898 18.1541C19.0898 17.3578 19.7353 16.7121 20.5319 16.7121C21.3282 16.7121 21.9739 17.3578 21.9739 18.1541Z" fill="#009ADD"/>
<path d="M22.7876 13.6648C23.0495 14.3166 22.9162 15.0877 22.3878 15.6161L17.9947 20.009C17.4666 20.5374 16.6954 20.6707 16.0433 20.4088C16.0387 20.5279 16.0815 20.6516 16.1766 20.7467C16.881 21.4511 18.0282 21.4511 18.7326 20.7467L23.1255 16.3538C23.8299 15.6494 23.8299 14.5024 23.1255 13.798C23.0304 13.7026 22.9067 13.6599 22.7876 13.6648Z" fill="#009ADD"/>
<path d="M20.1074 19.3342L21.7061 17.7357L24.7989 20.8285L23.2002 22.427L20.1074 19.3342Z" fill="#F9893D"/>
<path d="M20.1035 19.3279L20.6151 18.8163L23.7079 21.9091L23.1963 22.4207L20.1035 19.3279Z" fill="#F96B31"/>
<path d="M26.2524 22.305C26.2524 23.1724 25.5494 23.8757 24.682 23.8757C23.8143 23.8757 23.1113 23.1724 23.1113 22.305C23.1113 21.4376 23.8143 20.7343 24.682 20.7343C25.5494 20.7343 26.2524 21.4376 26.2524 22.305Z" fill="#F9893D"/>
<path d="M25.2955 21.914C25.2955 22.4713 24.8437 22.9231 24.2864 22.9231C23.7291 22.9231 23.2773 22.4713 23.2773 21.914C23.2773 21.3567 23.7291 20.9049 24.2864 20.9049C24.8437 20.9049 25.2955 21.3567 25.2955 21.914Z" fill="#F9893D"/>
<path d="M22.7188 21.9461L24.3172 20.3474L24.7111 20.7411L23.1124 22.3398L22.7188 21.9461Z" fill="#F9893D"/>
<path d="M21.9727 21.2065L23.5711 19.6081L23.965 20.0017L22.3663 21.6005L21.9727 21.2065Z" fill="#F9893D"/>
<path d="M21.2305 20.4646L22.8292 18.8662L23.2229 19.2599L21.6244 20.8583L21.2305 20.4646Z" fill="#F9893D"/>
<path d="M20.8203 19.3871L22.0858 18.1217L22.4797 18.5154L21.2143 19.7808L20.8203 19.3871Z" fill="#F9893D"/>
<path d="M21.7028 17.7357L20.1035 19.335L20.8461 20.0776C21.103 20.0204 21.3458 19.8917 21.5505 19.692C21.9739 19.2683 22.0786 18.6497 21.8644 18.126L21.9788 18.0118L21.7028 17.7357Z" fill="#F96B31"/>
<path d="M21.9739 18.1541C21.9739 18.9508 21.3282 19.5965 20.5319 19.5965C19.7353 19.5965 19.0898 18.9508 19.0898 18.1541C19.0898 17.3578 19.7353 16.7121 20.5319 16.7121C21.3282 16.7121 21.9739 17.3578 21.9739 18.1541Z" fill="#009ADD"/>
<path d="M21.3168 18.3117C21.3168 18.7453 20.965 19.097 20.5314 19.097C20.0976 19.097 19.7461 18.7453 19.7461 18.3117C19.7461 17.8778 20.0976 17.5264 20.5314 17.5264C20.965 17.5264 21.3168 17.8778 21.3168 18.3117Z" fill="#136DA0"/>
<path d="M21.3168 18.1514C21.3168 18.5853 20.965 18.9368 20.5314 18.9368C20.0976 18.9368 19.7461 18.5853 19.7461 18.1514C19.7461 17.7179 20.0976 17.3661 20.5314 17.3661C20.965 17.3661 21.3168 17.7179 21.3168 18.1514Z" fill="#1CAEE4"/>
<path d="M21.0068 18.1572C21.0068 18.4203 20.7935 18.6333 20.5307 18.6333C20.2677 18.6333 20.0547 18.4203 20.0547 18.1572C20.0547 17.8945 20.2677 17.6815 20.5307 17.6815C20.7935 17.6815 21.0068 17.8945 21.0068 18.1572Z" fill="#F9893D"/>
<path d="M20.1926 18.1733C20.3781 17.9877 20.6779 17.9877 20.8637 18.1733C20.9111 18.2209 20.9444 18.2733 20.9684 18.3351C21.0349 18.1637 21.0016 17.964 20.8637 17.8258C20.6779 17.6403 20.3781 17.6403 20.1926 17.8258C20.0544 17.964 20.0212 18.1637 20.0879 18.3351C20.1116 18.2733 20.1449 18.2209 20.1926 18.1733Z" fill="#F9893D"/>
<path d="M19.5945 16.6861L19.0615 17.2191L11.394 9.54664C11.2463 9.39923 11.2463 9.16105 11.394 9.01364C11.5414 8.86594 11.7793 8.86594 11.927 9.01364L19.5945 16.6861Z" fill="#D1D3D4"/>
<path d="M11.6162 9.32355C11.5116 9.21891 11.483 9.06196 11.5261 8.92871C11.4735 8.9475 11.4261 8.97611 11.3879 9.01889C11.2405 9.1666 11.2405 9.40448 11.3879 9.55218L19.0554 17.2197L19.284 16.991L11.6162 9.32355Z" fill="#BCBEC0"/>
<path d="M17.3857 14.4791L18.0661 13.8365L18.1043 13.7987L14.8441 10.4099L14.8392 10.4145L14.1016 11.195L17.3857 14.4791Z" fill="#E6E7E8"/>
<path d="M13.588 11.7489L12.8457 12.5343L16.1154 15.6753L16.8342 14.9949L13.588 11.7489Z" fill="#D1D3D4"/>
<path d="M17.0717 14.775L17.3859 14.4799L14.1018 11.1957L13.8066 11.5099L17.0717 14.775Z" fill="#BCBEC0"/>
<path d="M9 15.6697L10.3232 16.9927L10.6372 17.3069L11.9604 18.6301L12.1604 18.4397L14.778 15.979L18.0621 12.8854L22.6218 8.59218C22.7406 8.478 22.8169 8.32568 22.836 8.16381L23.1881 4.68486C23.2022 4.54207 23.0834 4.42299 22.9406 4.43715L19.4614 4.7895C19.2995 4.80366 19.1472 4.87997 19.033 5.00368L14.8399 9.45844L11.5557 12.9472L9.18557 15.4651L9 15.6697Z" fill="#D1D3D4"/>
<path d="M10.6836 16.9621L23.1296 4.51614C23.1727 4.56355 23.1964 4.6254 23.1868 4.69217L22.8348 8.17141C22.8203 8.33327 22.7443 8.4856 22.6206 8.59977L18.0609 12.8927L14.7768 15.9866L12.1638 18.4473L10.6836 16.9621Z" fill="#BCBEC0"/>
<path d="M9.56055 16.2327L11.4023 18.0745L21.6782 8.18915C21.7973 8.0796 21.8687 7.92727 21.8828 7.76541L22.0829 5.7999C22.0924 5.72359 22.0591 5.65711 22.0115 5.60942C21.9638 5.56664 21.9019 5.54265 21.8354 5.55219L19.8696 5.74758C19.7078 5.76175 19.5604 5.83777 19.4462 5.95223L9.56055 16.2327Z" fill="white"/>
<path d="M10.4844 17.1529L11.3983 18.0669L21.6742 8.18128C21.793 8.07202 21.8644 7.91969 21.8788 7.75782L22.0786 5.79203C22.0881 5.71601 22.0549 5.64924 22.0072 5.60184L10.4844 17.1529Z" fill="#E6E7E8"/>
<path d="M6.87986 16.355L11.2731 20.7479C11.9775 21.4523 13.1244 21.4523 13.8288 20.7479C14.0051 20.5718 14.0051 20.2863 13.8288 20.1102L7.51779 13.7992C7.34176 13.6229 7.05618 13.6229 6.87986 13.7992C6.17546 14.5036 6.17546 15.6506 6.87986 16.355Z" fill="#1CAEE4"/>
<path d="M7.21385 13.6648C6.95198 14.3166 7.08523 15.0877 7.6136 15.6161L12.0068 20.009C12.5349 20.5374 13.3061 20.6707 13.9581 20.4088C13.9628 20.5279 13.92 20.6516 13.8249 20.7467C13.1205 21.4511 11.9733 21.4511 11.2689 20.7467L6.87596 16.3538C6.17156 15.6494 6.17156 14.5024 6.87596 13.798C6.97105 13.7026 7.09477 13.6599 7.21385 13.6648Z" fill="#009ADD"/>
<path d="M10.9134 18.1541C10.9134 18.9508 10.268 19.5965 9.47134 19.5965C8.67502 19.5965 8.0293 18.9508 8.0293 18.1541C8.0293 17.3578 8.67502 16.7121 9.47134 16.7121C10.268 16.7121 10.9134 17.3578 10.9134 18.1541Z" fill="#009ADD"/>
<path d="M7.21385 13.6648C6.95198 14.3166 7.08523 15.0877 7.6136 15.6161L12.0068 20.009C12.5349 20.5374 13.3061 20.6707 13.9581 20.4088C13.9628 20.5279 13.92 20.6516 13.8249 20.7467C13.1205 21.4511 11.9733 21.4511 11.2689 20.7467L6.87596 16.3538C6.17156 15.6494 6.17156 14.5024 6.87596 13.798C6.97105 13.7026 7.09477 13.6599 7.21385 13.6648Z" fill="#009ADD"/>
<path d="M5.20312 20.8234L8.29591 17.7306L9.89462 19.3293L6.80183 22.4221L5.20312 20.8234Z" fill="#F9893D"/>
<path d="M6.29102 21.9142L9.3838 18.8214L9.89541 19.3331L6.80263 22.4258L6.29102 21.9142Z" fill="#F96B31"/>
<path d="M6.89105 22.305C6.89105 23.1724 6.1881 23.8757 5.32038 23.8757C4.45296 23.8757 3.75 23.1724 3.75 22.305C3.75 21.4376 4.45296 20.7343 5.32038 20.7343C6.1881 20.7343 6.89105 21.4376 6.89105 22.305Z" fill="#F9893D"/>
<path d="M6.72514 21.914C6.72514 22.4713 6.27337 22.9231 5.71609 22.9231C5.15881 22.9231 4.70703 22.4713 4.70703 21.914C4.70703 21.3567 5.15881 20.9049 5.71609 20.9049C6.27337 20.9049 6.72514 21.3567 6.72514 21.914Z" fill="#F9893D"/>
<path d="M5.28906 20.7432L5.68303 20.3492L7.28145 21.9479L6.88777 22.3416L5.28906 20.7432Z" fill="#F9893D"/>
<path d="M6.03125 19.9984L6.42493 19.6047L8.02335 21.2034L7.62967 21.5971L6.03125 19.9984Z" fill="#F9893D"/>
<path d="M6.77539 19.2542L7.16936 18.8602L8.76778 20.4589L8.3741 20.8526L6.77539 19.2542Z" fill="#F9893D"/>
<path d="M7.52148 18.512L7.91516 18.1183L9.1806 19.3838L8.78664 19.7774L7.52148 18.512Z" fill="#F9893D"/>
<path d="M8.29948 17.7357L9.89876 19.335L9.15621 20.0776C8.89924 20.0204 8.65645 19.8917 8.4518 19.692C8.02835 19.2683 7.92372 18.6497 8.1379 18.126L8.02344 18.0118L8.29948 17.7357Z" fill="#F96B31"/>
<path d="M10.9134 18.1541C10.9134 18.9508 10.268 19.5965 9.47134 19.5965C8.67502 19.5965 8.0293 18.9508 8.0293 18.1541C8.0293 17.3578 8.67502 16.7121 9.47134 16.7121C10.268 16.7121 10.9134 17.3578 10.9134 18.1541Z" fill="#009ADD"/>
<path d="M10.2562 18.3117C10.2562 18.7453 9.90474 19.097 9.47088 19.097C9.03731 19.097 8.68555 18.7453 8.68555 18.3117C8.68555 17.8778 9.03731 17.5264 9.47088 17.5264C9.90474 17.5264 10.2562 17.8778 10.2562 18.3117Z" fill="#136DA0"/>
<path d="M10.2562 18.1514C10.2562 18.5853 9.90474 18.9368 9.47088 18.9368C9.03731 18.9368 8.68555 18.5853 8.68555 18.1514C8.68555 17.7179 9.03731 17.3661 9.47088 17.3661C9.90474 17.3661 10.2562 17.7179 10.2562 18.1514Z" fill="#1CAEE4"/>
<path d="M9.94626 18.1572C9.94626 18.4203 9.73323 18.6333 9.4702 18.6333C9.20746 18.6333 8.99414 18.4203 8.99414 18.1572C8.99414 17.8945 9.20746 17.6815 9.4702 17.6815C9.73323 17.6815 9.94626 17.8945 9.94626 18.1572Z" fill="#F9893D"/>
<path d="M9.80886 18.1733C9.62329 17.9877 9.32355 17.9877 9.13769 18.1733C9.09029 18.2209 9.05705 18.2733 9.03306 18.3351C8.96658 18.1637 8.99982 17.964 9.13769 17.8258C9.32355 17.6403 9.62329 17.6403 9.80886 17.8258C9.94702 17.964 9.98026 18.1637 9.91349 18.3351C9.88979 18.2733 9.85655 18.2209 9.80886 18.1733Z" fill="#F9893D"/>
<path d="M10.4082 16.6864L10.9412 17.2194L18.6087 9.55187C18.7564 9.40417 18.7564 9.16628 18.6087 9.01858C18.4613 8.87117 18.2234 8.87117 18.0757 9.01858L10.4082 16.6864Z" fill="#D1D3D4"/>
<path d="M18.3853 9.32355C18.4899 9.21891 18.5185 9.06196 18.4755 8.92871C18.5281 8.9475 18.5755 8.97611 18.6136 9.01889C18.761 9.1666 18.761 9.40448 18.6136 9.55218L10.9412 17.2197L10.4082 16.6867L10.7129 16.991L18.3853 9.32355Z" fill="#BCBEC0"/>
</g>
<defs>
<clipPath id="clip0_531_6066">
<rect width="30" height="30" fill="white"/>
</clipPath>
</defs>
</svg>
