<svg width="968" height="2146" viewBox="0 0 968 2146" fill="none" xmlns="http://www.w3.org/2000/svg">
<g clip-path="url(#clip0_140_9328)">
<rect width="968" height="2146" fill="#1A1A1A"/>
<g clip-path="url(#clip1_140_9328)">
<g opacity="0.18">
<path d="M300.035 84.4051V12.3266H297.976L286.648 38.5838H270.688L287.678 1H314.966V84.4051H300.035Z" fill="#F9893D" fill-opacity="0.5"/>
<path d="M296.437 210.026C286.654 210.026 278.931 207.452 272.753 201.789C266.574 196.125 264 188.403 264 177.076V156.482C264 145.67 267.089 137.948 272.753 132.284C278.416 126.621 286.654 124.047 296.437 124.047C306.219 124.047 313.942 126.621 320.121 132.284C325.784 137.948 328.874 146.185 328.874 156.482V177.076C328.874 187.888 325.784 196.125 320.121 201.789C313.942 207.452 306.219 210.026 296.437 210.026ZM296.437 196.64C302.1 196.64 306.734 195.096 309.309 192.007C311.883 188.917 313.428 184.284 313.428 178.106V155.967C313.428 149.789 311.883 145.156 308.794 142.066C305.704 138.977 301.586 137.433 296.437 137.433C290.773 137.433 286.654 138.977 283.565 142.066C280.476 145.156 278.931 149.789 278.931 155.452V177.591C278.931 183.769 280.476 188.403 283.05 191.492C286.139 195.096 290.773 196.64 296.437 196.64Z" fill="#F9893D" fill-opacity="0.5"/>
<path d="M300.035 333.077V260.998H297.976L286.648 287.256H270.688L287.678 249.672H314.966V332.562H300.035V333.077Z" fill="#F9893D" fill-opacity="0.5"/>
<path d="M300.035 457.156V385.592H297.976L286.648 411.849H270.688L287.678 374.266H314.966V457.156H300.035Z" fill="#F9893D" fill-opacity="0.5"/>
<path d="M300.035 581.746V509.667H297.976L286.648 535.924H270.688L288.193 498.855H315.481V581.746H300.035Z" fill="#F9893D" fill-opacity="0.5"/>
<path d="M296.437 707.37C286.654 707.37 278.931 704.796 272.753 699.132C266.574 693.469 264 685.746 264 674.42V653.826C264 643.014 267.089 635.291 272.753 629.628C278.416 623.965 286.654 621.391 296.437 621.391C306.219 621.391 313.942 623.965 320.121 629.628C325.784 635.291 328.874 643.529 328.874 653.826V674.42C328.874 685.232 325.784 693.469 320.121 699.132C313.942 704.796 306.219 707.37 296.437 707.37ZM296.437 693.984C302.1 693.984 306.734 692.439 309.309 689.35C311.883 686.261 313.428 681.628 313.428 675.449V653.311C313.428 647.133 311.883 642.499 308.794 639.41C305.704 636.321 301.586 634.777 296.437 634.777C290.773 634.777 286.654 636.321 283.565 639.41C280.476 642.499 278.931 647.133 278.931 652.796V674.935C278.931 681.113 280.476 685.746 283.05 688.835C286.139 692.439 290.773 693.984 296.437 693.984Z" fill="#F9893D" fill-opacity="0.5"/>
<path d="M296.437 831.964C286.654 831.964 278.931 829.389 272.753 823.726C266.574 818.063 264 810.34 264 799.014V778.42C264 767.608 267.089 759.885 272.753 754.222C278.416 748.559 286.654 745.984 296.437 745.984C306.219 745.984 313.942 748.559 320.121 754.222C325.784 759.885 328.874 768.123 328.874 778.42V799.014C328.874 809.825 325.784 818.063 320.121 823.726C313.942 829.389 306.219 831.964 296.437 831.964ZM296.437 818.578C302.1 818.578 306.734 817.033 309.309 813.944C311.883 810.855 313.428 806.221 313.428 800.043V777.905C313.428 771.727 311.883 767.093 308.794 764.004C305.704 760.915 301.586 759.37 296.437 759.37C290.773 759.37 286.654 760.915 283.565 764.004C280.476 767.093 278.931 771.727 278.931 777.39V799.528C278.931 805.706 280.476 810.34 283.05 813.429C286.139 817.033 290.773 818.578 296.437 818.578Z" fill="#F9893D" fill-opacity="0.5"/>
<path d="M300.035 954.496V882.932H297.976L286.648 909.189H270.688L287.678 871.605H314.966V954.496H300.035Z" fill="#F9893D" fill-opacity="0.5"/>
<path d="M296.437 1080.63C286.654 1080.63 278.931 1078.06 272.753 1072.39C266.574 1066.73 264 1059.01 264 1047.68V1027.09C264 1016.28 267.089 1008.55 272.753 1002.89C278.416 997.227 286.654 994.652 296.437 994.652C306.219 994.652 313.942 997.227 320.121 1002.89C325.784 1008.55 328.874 1016.79 328.874 1027.09V1047.68C328.874 1058.49 325.784 1066.73 320.121 1072.39C313.942 1078.06 306.219 1080.63 296.437 1080.63ZM296.437 1067.25C302.1 1067.25 306.734 1065.7 309.309 1062.61C311.883 1059.52 313.428 1054.89 313.428 1048.71V1026.57C313.428 1020.39 311.883 1015.76 308.794 1012.67C305.704 1009.58 301.586 1008.04 296.437 1008.04C290.773 1008.04 286.654 1009.58 283.565 1012.67C280.476 1015.76 278.931 1020.39 278.931 1026.06V1048.2C278.931 1054.37 280.476 1059.01 283.05 1062.1C286.139 1065.7 290.773 1067.25 296.437 1067.25Z" fill="#F9893D" fill-opacity="0.5"/>
<path opacity="0.78" d="M300.035 1203.16V1131.6H297.976L286.648 1157.86H270.688L287.678 1120.27H314.966V1203.16H300.035Z" fill="#F9893D" fill-opacity="0.5"/>
<path opacity="0.78" d="M296.437 1329.3C286.654 1329.3 278.931 1326.73 272.753 1321.07C266.574 1315.4 264 1307.68 264 1296.35V1275.76C264 1264.95 267.089 1257.23 272.753 1251.56C278.416 1245.9 286.654 1243.32 296.437 1243.32C306.219 1243.32 313.942 1245.9 320.121 1251.56C325.784 1257.23 328.874 1265.46 328.874 1275.76V1296.35C328.874 1307.17 325.784 1315.4 320.121 1321.07C313.942 1326.73 306.219 1329.3 296.437 1329.3ZM296.437 1315.92C302.1 1315.92 306.734 1314.37 309.309 1311.28C311.883 1308.19 313.428 1303.56 313.428 1297.38V1275.24C313.428 1269.07 311.883 1264.43 308.794 1261.34C305.704 1258.25 301.586 1256.71 296.437 1256.71C290.773 1256.71 286.654 1258.25 283.565 1261.34C280.476 1264.43 278.931 1269.07 278.931 1274.73V1296.87C278.931 1303.05 280.476 1307.68 283.05 1310.77C286.139 1314.37 290.773 1315.92 296.437 1315.92Z" fill="#F9893D" fill-opacity="0.5"/>
<path opacity="0.78" d="M296.437 1453.38C286.654 1453.38 278.931 1450.81 272.753 1445.14C266.574 1439.48 264 1431.76 264 1420.43V1399.84C264 1389.03 267.089 1381.3 272.753 1375.64C278.416 1369.98 286.654 1367.4 296.437 1367.4C306.219 1367.4 313.942 1369.98 320.121 1375.64C325.784 1381.3 328.874 1389.54 328.874 1399.84V1420.43C328.874 1431.24 325.784 1439.48 320.121 1445.14C313.942 1450.81 306.219 1453.38 296.437 1453.38ZM296.437 1440C302.1 1440 306.734 1438.45 309.309 1435.36C311.883 1432.27 313.428 1427.64 313.428 1421.46V1399.32C313.428 1393.14 311.883 1388.51 308.794 1385.42C305.704 1382.33 301.586 1380.79 296.437 1380.79C290.773 1380.79 286.654 1382.33 283.565 1385.42C280.476 1388.51 278.931 1393.14 278.931 1398.81V1420.95C278.931 1427.12 280.476 1431.76 283.05 1434.85C286.139 1438.45 290.773 1440 296.437 1440Z" fill="#F9893D" fill-opacity="0.5"/>
<path d="M300.035 1576.43V1504.87H297.976L286.648 1531.12H270.688L287.678 1493.54H314.966V1576.43H300.035Z" fill="#F9893D" fill-opacity="0.5"/>
<path d="M296.437 1702.05C286.654 1702.05 278.931 1699.48 272.753 1693.82C266.574 1688.15 264 1680.43 264 1669.1V1648.51C264 1637.7 267.089 1629.98 272.753 1624.31C278.416 1618.65 286.654 1616.07 296.437 1616.07C306.219 1616.07 313.942 1618.65 320.121 1624.31C325.784 1629.98 328.874 1638.21 328.874 1648.51V1669.1C328.874 1679.92 325.784 1688.15 320.121 1693.82C313.942 1699.48 306.219 1702.05 296.437 1702.05ZM296.437 1688.67C302.1 1688.67 306.734 1687.12 309.309 1684.03C311.883 1680.94 313.428 1676.31 313.428 1670.13V1647.99C313.428 1641.82 311.883 1637.18 308.794 1634.09C305.704 1631 301.586 1629.46 296.437 1629.46C290.773 1629.46 286.654 1631 283.565 1634.09C280.476 1637.18 278.931 1641.82 278.931 1647.48V1669.62C278.931 1675.8 280.476 1680.43 283.05 1683.52C286.139 1687.12 290.773 1688.67 296.437 1688.67Z" fill="#F9893D" fill-opacity="0.5"/>
<path d="M300.035 1825.1V1753.54H297.976L286.648 1779.79H270.688L287.678 1742.21H314.966V1825.1H300.035Z" fill="#F9893D" fill-opacity="0.5"/>
<path d="M296.437 1950.72C286.654 1950.72 278.931 1948.15 272.753 1942.48C266.574 1936.82 264 1929.1 264 1917.77V1897.18C264 1886.37 267.089 1878.64 272.753 1872.98C278.416 1867.32 286.654 1864.74 296.437 1864.74C306.219 1864.74 313.942 1867.32 320.121 1872.98C325.784 1878.64 328.874 1886.88 328.874 1897.18V1917.77C328.874 1928.58 325.784 1936.82 320.121 1942.48C313.942 1948.15 306.219 1950.72 296.437 1950.72ZM296.437 1937.34C302.1 1937.34 306.734 1935.79 309.309 1932.7C311.883 1929.61 313.428 1924.98 313.428 1918.8V1896.66C313.428 1890.48 311.883 1885.85 308.794 1882.76C305.704 1879.67 301.586 1878.13 296.437 1878.13C290.773 1878.13 286.654 1879.67 283.565 1882.76C280.476 1885.85 278.931 1890.48 278.931 1896.15V1918.29C278.931 1924.46 280.476 1929.1 283.05 1932.19C286.139 1935.79 290.773 1937.34 296.437 1937.34Z" fill="#F9893D" fill-opacity="0.5"/>
<path d="M300.035 2073.77V2002.21H297.976L286.648 2028.46H270.688L287.678 1990.88H314.966V2073.77H300.035Z" fill="#F9893D" fill-opacity="0.5"/>
<path d="M296.437 2199.39C286.654 2199.39 278.931 2196.82 272.753 2191.16C266.574 2185.49 264 2177.77 264 2166.44V2145.85C264 2135.04 267.089 2127.31 272.753 2121.65C278.416 2115.99 286.654 2113.41 296.437 2113.41C306.219 2113.41 313.942 2115.99 320.121 2121.65C325.784 2127.31 328.874 2135.55 328.874 2145.85V2166.44C328.874 2177.25 325.784 2185.49 320.121 2191.16C313.942 2196.82 306.219 2199.39 296.437 2199.39ZM296.437 2186.01C302.1 2186.01 306.734 2184.46 309.309 2181.37C311.883 2178.28 313.428 2173.65 313.428 2167.47V2145.33C313.428 2139.16 311.883 2134.52 308.794 2131.43C305.704 2128.34 301.586 2126.8 296.437 2126.8C290.773 2126.8 286.654 2128.34 283.565 2131.43C280.476 2134.52 278.931 2139.16 278.931 2144.82V2166.96C278.931 2173.14 280.476 2177.77 283.05 2180.86C286.139 2184.46 290.773 2186.01 296.437 2186.01Z" fill="#F9893D" fill-opacity="0.5"/>
</g>
<g opacity="0.18">
<path d="M844.405 215.048V156.241H842.725L833.483 177.664H820.461L834.323 147H856.587V215.048H844.405Z" fill="#F9893D" fill-opacity="0.5"/>
<path d="M841.464 317.539C833.483 317.539 827.182 315.439 822.141 310.818C817.1 306.197 815 299.897 815 290.656V273.854C815 265.033 817.52 258.732 822.141 254.111C826.762 249.491 833.483 247.391 841.464 247.391C849.446 247.391 855.747 249.491 860.787 254.111C865.408 258.732 867.929 265.453 867.929 273.854V290.656C867.929 299.477 865.408 306.197 860.787 310.818C855.747 315.439 849.446 317.539 841.464 317.539ZM841.464 306.617C846.085 306.617 849.866 305.357 851.966 302.837C854.066 300.317 855.327 296.536 855.327 291.496V273.434C855.327 268.393 854.066 264.613 851.546 262.092C849.026 259.572 845.665 258.312 841.464 258.312C836.844 258.312 833.483 259.572 830.963 262.092C828.442 264.613 827.182 268.393 827.182 273.014V291.076C827.182 296.116 828.442 299.897 830.543 302.417C833.063 305.357 836.844 306.617 841.464 306.617Z" fill="#F9893D" fill-opacity="0.5"/>
<path d="M844.405 417.931V359.124H842.725L833.483 380.546H820.461L834.323 349.883H856.587V417.511H844.405V417.931Z" fill="#F9893D" fill-opacity="0.5"/>
<path d="M844.405 519.163V460.776H842.725L833.483 482.199H820.461L834.323 451.535H856.587V519.163H844.405Z" fill="#F9893D" fill-opacity="0.5"/>
<path d="M844.405 620.815V562.009H842.725L833.483 583.431H820.461L834.743 553.188H857.007V620.815H844.405Z" fill="#F9893D" fill-opacity="0.5"/>
<path d="M841.464 723.308C833.483 723.308 827.182 721.208 822.141 716.588C817.1 711.967 815 705.666 815 696.425V679.623C815 670.802 817.52 664.501 822.141 659.881C826.762 655.26 833.483 653.16 841.464 653.16C849.446 653.16 855.747 655.26 860.787 659.881C865.408 664.501 867.929 671.222 867.929 679.623V696.425C867.929 705.246 865.408 711.967 860.787 716.588C855.747 721.208 849.446 723.308 841.464 723.308ZM841.464 712.387C846.085 712.387 849.866 711.127 851.966 708.607C854.066 706.086 855.327 702.306 855.327 697.265V679.203C855.327 674.163 854.066 670.382 851.546 667.862C849.026 665.342 845.665 664.081 841.464 664.081C836.844 664.081 833.483 665.342 830.963 667.862C828.442 670.382 827.182 674.163 827.182 678.783V696.845C827.182 701.886 828.442 705.666 830.543 708.187C833.063 711.127 836.844 712.387 841.464 712.387Z" fill="#F9893D" fill-opacity="0.5"/>
<path d="M841.464 824.961C833.483 824.961 827.182 822.86 822.141 818.24C817.1 813.619 815 807.319 815 798.078V781.276C815 772.455 817.52 766.154 822.141 761.533C826.762 756.913 833.483 754.812 841.464 754.812C849.446 754.812 855.747 756.913 860.787 761.533C865.408 766.154 867.929 772.875 867.929 781.276V798.078C867.929 806.899 865.408 813.619 860.787 818.24C855.747 822.86 849.446 824.961 841.464 824.961ZM841.464 814.039C846.085 814.039 849.866 812.779 851.966 810.259C854.066 807.739 855.327 803.958 855.327 798.918V780.856C855.327 775.815 854.066 772.034 851.546 769.514C849.026 766.994 845.665 765.734 841.464 765.734C836.844 765.734 833.483 766.994 830.963 769.514C828.442 772.034 827.182 775.815 827.182 780.435V798.498C827.182 803.538 828.442 807.319 830.543 809.839C833.063 812.779 836.844 814.039 841.464 814.039Z" fill="#F9893D" fill-opacity="0.5"/>
<path d="M844.405 924.933V866.546H842.725L833.483 887.968H820.461L834.323 857.305H856.587V924.933H844.405Z" fill="#F9893D" fill-opacity="0.5"/>
<path d="M841.464 1027.84C833.483 1027.84 827.182 1025.74 822.141 1021.12C817.1 1016.5 815 1010.2 815 1000.96V984.158C815 975.337 817.52 969.037 822.141 964.416C826.762 959.796 833.483 957.695 841.464 957.695C849.446 957.695 855.747 959.796 860.787 964.416C865.408 969.037 867.929 975.757 867.929 984.158V1000.96C867.929 1009.78 865.408 1016.5 860.787 1021.12C855.747 1025.74 849.446 1027.84 841.464 1027.84ZM841.464 1016.92C846.085 1016.92 849.866 1015.66 851.966 1013.14C854.066 1010.62 855.327 1006.84 855.327 1001.8V983.738C855.327 978.698 854.066 974.917 851.546 972.397C849.026 969.877 845.665 968.617 841.464 968.617C836.844 968.617 833.483 969.877 830.963 972.397C828.442 974.917 827.182 978.698 827.182 983.318V1001.38C827.182 1006.42 828.442 1010.2 830.543 1012.72C833.063 1015.66 836.844 1016.92 841.464 1016.92Z" fill="#F9893D" fill-opacity="0.5"/>
<path opacity="0.78" d="M844.405 1127.82V1069.43H842.725L833.483 1090.85H820.461L834.323 1060.19H856.587V1127.82H844.405Z" fill="#F9893D" fill-opacity="0.5"/>
<path opacity="0.78" d="M841.464 1230.73C833.483 1230.73 827.182 1228.63 822.141 1224.01C817.1 1219.38 815 1213.08 815 1203.84V1187.04C815 1178.22 817.52 1171.92 822.141 1167.3C826.762 1162.68 833.483 1160.58 841.464 1160.58C849.446 1160.58 855.747 1162.68 860.787 1167.3C865.408 1171.92 867.929 1178.64 867.929 1187.04V1203.84C867.929 1212.66 865.408 1219.38 860.787 1224.01C855.747 1228.63 849.446 1230.73 841.464 1230.73ZM841.464 1219.8C846.085 1219.8 849.866 1218.54 851.966 1216.02C854.066 1213.5 855.327 1209.72 855.327 1204.68V1186.62C855.327 1181.58 854.066 1177.8 851.546 1175.28C849.026 1172.76 845.665 1171.5 841.464 1171.5C836.844 1171.5 833.483 1172.76 830.963 1175.28C828.442 1177.8 827.182 1181.58 827.182 1186.2V1204.26C827.182 1209.3 828.442 1213.08 830.543 1215.6C833.063 1218.54 836.844 1219.8 841.464 1219.8Z" fill="#F9893D" fill-opacity="0.5"/>
<path opacity="0.78" d="M841.464 1331.96C833.483 1331.96 827.182 1329.86 822.141 1325.24C817.1 1320.62 815 1314.31 815 1305.07V1288.27C815 1279.45 817.52 1273.15 822.141 1268.53C826.762 1263.91 833.483 1261.81 841.464 1261.81C849.446 1261.81 855.747 1263.91 860.787 1268.53C865.408 1273.15 867.929 1279.87 867.929 1288.27V1305.07C867.929 1313.89 865.408 1320.62 860.787 1325.24C855.747 1329.86 849.446 1331.96 841.464 1331.96ZM841.464 1321.04C846.085 1321.04 849.866 1319.78 851.966 1317.26C854.066 1314.73 855.327 1310.95 855.327 1305.91V1287.85C855.327 1282.81 854.066 1279.03 851.546 1276.51C849.026 1273.99 845.665 1272.73 841.464 1272.73C836.844 1272.73 833.483 1273.99 830.963 1276.51C828.442 1279.03 827.182 1282.81 827.182 1287.43V1305.49C827.182 1310.53 828.442 1314.31 830.543 1316.83C833.063 1319.78 836.844 1321.04 841.464 1321.04Z" fill="#F9893D" fill-opacity="0.5"/>
<path d="M844.405 1432.35V1373.96H842.725L833.483 1395.39H820.461L834.323 1364.72H856.587V1432.35H844.405Z" fill="#F9893D" fill-opacity="0.5"/>
<path d="M841.464 1534.84C833.483 1534.84 827.182 1532.74 822.141 1528.12C817.1 1523.5 815 1517.2 815 1507.96V1491.15C815 1482.33 817.52 1476.03 822.141 1471.41C826.762 1466.79 833.483 1464.69 841.464 1464.69C849.446 1464.69 855.747 1466.79 860.787 1471.41C865.408 1476.03 867.929 1482.75 867.929 1491.15V1507.96C867.929 1516.78 865.408 1523.5 860.787 1528.12C855.747 1532.74 849.446 1534.84 841.464 1534.84ZM841.464 1523.92C846.085 1523.92 849.866 1522.66 851.966 1520.14C854.066 1517.62 855.327 1513.84 855.327 1508.8V1490.73C855.327 1485.69 854.066 1481.91 851.546 1479.39C849.026 1476.87 845.665 1475.61 841.464 1475.61C836.844 1475.61 833.483 1476.87 830.963 1479.39C828.442 1481.91 827.182 1485.69 827.182 1490.31V1508.38C827.182 1513.42 828.442 1517.2 830.543 1519.72C833.063 1522.66 836.844 1523.92 841.464 1523.92Z" fill="#F9893D" fill-opacity="0.5"/>
<path d="M844.405 1635.23V1576.85H842.725L833.483 1598.27H820.461L834.323 1567.61H856.587V1635.23H844.405Z" fill="#F9893D" fill-opacity="0.5"/>
<path d="M841.464 1737.73C833.483 1737.73 827.182 1735.63 822.141 1731.01C817.1 1726.38 815 1720.08 815 1710.84V1694.04C815 1685.22 817.52 1678.92 822.141 1674.3C826.762 1669.68 833.483 1667.58 841.464 1667.58C849.446 1667.58 855.747 1669.68 860.787 1674.3C865.408 1678.92 867.929 1685.64 867.929 1694.04V1710.84C867.929 1719.66 865.408 1726.38 860.787 1731.01C855.747 1735.63 849.446 1737.73 841.464 1737.73ZM841.464 1726.81C846.085 1726.81 849.866 1725.54 851.966 1723.02C854.066 1720.5 855.327 1716.72 855.327 1711.68V1693.62C855.327 1688.58 854.066 1684.8 851.546 1682.28C849.026 1679.76 845.665 1678.5 841.464 1678.5C836.844 1678.5 833.483 1679.76 830.963 1682.28C828.442 1684.8 827.182 1688.58 827.182 1693.2V1711.26C827.182 1716.3 828.442 1720.08 830.543 1722.6C833.063 1725.54 836.844 1726.81 841.464 1726.81Z" fill="#F9893D" fill-opacity="0.5"/>
<path d="M844.405 1838.12V1779.73H842.725L833.483 1801.15H820.461L834.323 1770.49H856.587V1838.12H844.405Z" fill="#F9893D" fill-opacity="0.5"/>
<path d="M841.464 1940.61C833.483 1940.61 827.182 1938.51 822.141 1933.89C817.1 1929.27 815 1922.97 815 1913.73V1896.92C815 1888.1 817.52 1881.8 822.141 1877.18C826.762 1872.56 833.483 1870.46 841.464 1870.46C849.446 1870.46 855.747 1872.56 860.787 1877.18C865.408 1881.8 867.929 1888.52 867.929 1896.92V1913.73C867.929 1922.55 865.408 1929.27 860.787 1933.89C855.747 1938.51 849.446 1940.61 841.464 1940.61ZM841.464 1929.69C846.085 1929.69 849.866 1928.43 851.966 1925.91C854.066 1923.39 855.327 1919.61 855.327 1914.57V1896.5C855.327 1891.46 854.066 1887.68 851.546 1885.16C849.026 1882.64 845.665 1881.38 841.464 1881.38C836.844 1881.38 833.483 1882.64 830.963 1885.16C828.442 1887.68 827.182 1891.46 827.182 1896.08V1914.15C827.182 1919.19 828.442 1922.97 830.543 1925.49C833.063 1928.43 836.844 1929.69 841.464 1929.69Z" fill="#F9893D" fill-opacity="0.5"/>
<path d="M844.405 2041V1982.61H842.725L833.483 2004.03H820.461L834.323 1973.37H856.587V2041H844.405Z" fill="#F9893D" fill-opacity="0.5"/>
</g>
<g opacity="0.18">
<path d="M132.437 86.9792C122.654 86.9792 114.931 84.4051 108.753 78.7418C103.089 73.5933 100 65.3557 100 54.0291V33.4352C100 22.6235 103.089 14.9009 108.753 9.23757C114.416 3.57426 122.654 1 132.437 1C142.219 1 149.942 3.57426 156.121 9.23757C161.784 14.9009 164.874 23.1383 164.874 33.4352V54.0291C164.874 64.8409 161.784 73.0785 156.121 78.7418C150.457 84.4051 142.734 86.9792 132.437 86.9792ZM132.437 73.5933C138.1 73.5933 142.734 72.0487 145.309 68.9596C147.883 65.8705 149.427 61.237 149.427 55.0588V32.9204C149.427 26.7422 147.883 22.1087 144.794 19.0196C141.704 15.9305 137.585 14.386 132.437 14.386C126.773 14.386 122.654 15.9305 119.565 19.0196C116.476 22.1087 114.931 26.7423 114.931 32.4056V54.544C114.931 60.7221 116.476 65.3558 119.05 68.4449C122.654 72.0488 126.773 73.5933 132.437 73.5933Z" fill="#F9893D" fill-opacity="0.5"/>
<path d="M136.551 206.937V135.374H134.491L123.164 161.631H107.203L124.194 124.047H151.482V206.937H136.551Z" fill="#F9893D" fill-opacity="0.5"/>
<path d="M132.437 329.987C122.654 329.987 114.931 327.413 108.753 321.75C103.089 316.086 100 308.364 100 297.037V276.443C100 265.631 103.089 257.909 108.753 252.246C114.416 246.582 122.654 244.008 132.437 244.008C142.219 244.008 149.942 246.582 156.121 252.246C161.784 257.909 164.874 266.146 164.874 276.443V297.037C164.874 307.849 161.784 316.086 156.121 321.75C150.457 326.898 142.734 329.987 132.437 329.987ZM132.437 316.086C138.1 316.086 142.734 314.542 145.309 311.453C147.883 308.364 149.427 303.73 149.427 297.552V275.414C149.427 269.235 147.883 264.602 144.794 261.513C141.704 258.424 137.585 256.879 132.437 256.879C126.773 256.879 122.654 258.424 119.565 261.513C116.476 264.602 114.931 269.235 114.931 274.899V297.037C114.931 303.215 116.476 307.849 119.05 310.938C122.654 314.542 126.773 316.086 132.437 316.086Z" fill="#F9893D" fill-opacity="0.5"/>
<path d="M136.551 449.429V377.866H134.491L123.164 404.123H107.203L124.194 366.539H151.482V449.429H136.551Z" fill="#F9893D" fill-opacity="0.5"/>
<path d="M132.437 572.479C122.654 572.479 114.931 569.905 108.753 564.242C103.089 559.093 100 550.856 100 539.529V518.935C100 508.123 103.089 500.401 108.753 494.737C114.416 489.074 122.654 486.5 132.437 486.5C142.219 486.5 149.942 489.074 156.121 494.737C161.784 500.401 164.874 508.638 164.874 518.935V539.529C164.874 550.341 161.784 558.578 156.121 564.242C150.457 569.905 142.734 572.479 132.437 572.479ZM132.437 559.093C138.1 559.093 142.734 557.549 145.309 554.459C147.883 551.37 149.427 546.737 149.427 540.559V518.42C149.427 512.242 147.883 507.609 144.794 504.52C141.704 501.431 137.585 499.886 132.437 499.886C126.773 499.886 122.654 501.431 119.565 504.52C116.476 507.609 114.931 512.242 114.931 517.905V540.044C114.931 546.222 116.476 550.856 119.05 553.945C122.654 557.549 126.773 559.093 132.437 559.093Z" fill="#F9893D" fill-opacity="0.5"/>
<path d="M136.551 692.437V620.874H134.491L123.164 647.131H107.203L124.194 609.547H151.482V692.437H136.551Z" fill="#F9893D" fill-opacity="0.5"/>
<path d="M132.437 815.487C122.654 815.487 114.931 812.913 108.753 807.25C103.089 802.101 100 793.864 100 782.537V761.943C100 751.132 103.089 743.409 108.753 737.746C114.416 732.082 122.654 729.508 132.437 729.508C142.219 729.508 149.942 732.082 156.121 737.746C161.784 743.409 164.874 751.646 164.874 761.943V782.537C164.874 793.349 161.784 801.586 156.121 807.25C150.457 812.398 142.734 815.487 132.437 815.487ZM132.437 801.586C138.1 801.586 142.734 800.042 145.309 796.953C147.883 793.864 149.427 789.23 149.427 783.052V760.914C149.427 754.735 147.883 750.102 144.794 747.013C141.704 743.924 137.585 742.379 132.437 742.379C126.773 742.379 122.654 743.924 119.565 747.013C116.476 750.102 114.931 754.735 114.931 760.399V782.537C114.931 788.715 116.476 793.349 119.05 796.438C122.654 800.042 126.773 801.586 132.437 801.586Z" fill="#F9893D" fill-opacity="0.5"/>
<path d="M136.551 934.929V863.365H134.491L123.164 889.623H107.203L124.194 852.039H151.482V934.929H136.551Z" fill="#F9893D" fill-opacity="0.5"/>
<path d="M132.437 1057.98C122.654 1057.98 114.931 1055.4 108.753 1049.74C103.089 1044.08 100 1036.36 100 1025.03V1004.44C100 993.623 103.089 985.901 108.753 980.237C114.416 974.574 122.654 972 132.437 972C142.219 972 149.942 974.574 156.121 980.237C161.784 985.901 164.874 994.138 164.874 1004.44V1025.03C164.874 1035.84 161.784 1044.08 156.121 1049.74C150.457 1055.4 142.734 1057.98 132.437 1057.98ZM132.437 1044.59C138.1 1044.59 142.734 1043.05 145.309 1039.96C147.883 1036.87 149.427 1032.24 149.427 1026.06V1003.92C149.427 997.742 147.883 993.109 144.794 990.02C141.704 986.931 137.585 985.386 132.437 985.386C126.773 985.386 122.654 986.931 119.565 990.02C116.476 993.109 114.931 997.742 114.931 1003.41V1025.54C114.931 1031.72 116.476 1036.36 119.05 1039.44C122.654 1043.05 126.773 1044.59 132.437 1044.59Z" fill="#F9893D" fill-opacity="0.5"/>
<path d="M136.551 1177.94V1106.37H134.491L123.164 1132.63H107.203L124.194 1095.05H151.482V1177.94H136.551Z" fill="#F9893D" fill-opacity="0.5"/>
<path d="M132.437 1300.99C122.654 1300.99 114.931 1298.41 108.753 1292.75C103.089 1287.6 100 1279.36 100 1268.04V1247.44C100 1236.63 103.089 1228.91 108.753 1223.25C114.416 1217.58 122.654 1215.01 132.437 1215.01C142.219 1215.01 149.942 1217.58 156.121 1223.25C161.784 1228.91 164.874 1237.15 164.874 1247.44V1268.04C164.874 1278.85 161.784 1287.09 156.121 1292.75C150.457 1297.9 142.734 1300.99 132.437 1300.99ZM132.437 1287.09C138.1 1287.09 142.734 1285.54 145.309 1282.45C147.883 1279.36 149.427 1274.73 149.427 1268.55V1246.41C149.427 1240.24 147.883 1235.6 144.794 1232.51C141.704 1229.42 137.585 1227.88 132.437 1227.88C126.773 1227.88 122.654 1229.42 119.565 1232.51C116.476 1235.6 114.931 1240.24 114.931 1245.9V1268.04C114.931 1274.22 116.476 1278.85 119.05 1281.94C122.654 1285.54 126.773 1287.09 132.437 1287.09Z" fill="#F9893D" fill-opacity="0.5"/>
<path d="M136.551 1420.43V1348.87H134.491L123.164 1375.12H107.203L124.194 1337.54H151.482V1420.43H136.551Z" fill="#F9893D" fill-opacity="0.5"/>
<path d="M136.551 1541.93V1470.37H134.491L123.164 1496.63H107.203L124.194 1459.04H151.482V1541.93H136.551Z" fill="#F9893D" fill-opacity="0.5"/>
<path d="M136.551 1663.44V1591.36H134.491L123.164 1617.61H107.203L124.194 1580.03H151.482V1663.44H136.551Z" fill="#F9893D" fill-opacity="0.5"/>
<path d="M132.437 1786.49C122.654 1786.49 114.931 1783.91 108.753 1778.25C103.089 1773.1 100 1764.86 100 1753.54V1732.94C100 1722.13 103.089 1714.41 108.753 1708.75C114.416 1703.08 122.654 1700.51 132.437 1700.51C142.219 1700.51 149.942 1703.08 156.121 1708.75C161.784 1714.41 164.874 1722.65 164.874 1732.94V1753.54C164.874 1764.35 161.784 1772.59 156.121 1778.25C150.457 1783.4 142.734 1786.49 132.437 1786.49ZM132.437 1772.59C138.1 1772.59 142.734 1771.04 145.309 1767.95C147.883 1764.86 149.427 1760.23 149.427 1754.05V1731.91C149.427 1725.74 147.883 1721.1 144.794 1718.01C141.704 1714.92 137.585 1713.38 132.437 1713.38C126.773 1713.38 122.654 1714.92 119.565 1718.01C116.476 1721.1 114.931 1725.74 114.931 1731.4V1753.54C114.931 1759.72 116.476 1764.35 119.05 1767.44C122.654 1771.04 126.773 1772.59 132.437 1772.59Z" fill="#F9893D" fill-opacity="0.5"/>
<path d="M132.437 1907.48C122.654 1907.48 114.931 1904.9 108.753 1899.24C103.089 1894.09 100 1885.85 100 1874.53V1853.93C100 1843.12 103.089 1835.4 108.753 1829.73C114.416 1824.07 122.654 1821.5 132.437 1821.5C142.219 1821.5 149.942 1824.07 156.121 1829.73C161.784 1835.4 164.874 1843.63 164.874 1853.93V1874.53C164.874 1885.34 161.784 1893.57 156.121 1899.24C150.457 1904.9 142.734 1907.48 132.437 1907.48ZM132.437 1894.09C138.1 1894.09 142.734 1892.54 145.309 1889.46C147.883 1886.37 149.427 1881.73 149.427 1875.55V1853.42C149.427 1847.24 147.883 1842.6 144.794 1839.52C141.704 1836.43 137.585 1834.88 132.437 1834.88C126.773 1834.88 122.654 1836.43 119.565 1839.52C116.476 1842.6 114.931 1847.24 114.931 1852.9V1875.04C114.931 1881.22 116.476 1885.85 119.05 1888.94C122.654 1892.54 126.773 1894.09 132.437 1894.09Z" fill="#F9893D" fill-opacity="0.5"/>
<path d="M136.551 2027.43V1955.87H134.491L123.164 1982.13H107.203L124.194 1944.54H151.482V2027.43H136.551Z" fill="#F9893D" fill-opacity="0.5"/>
<path d="M132.437 2150.48C122.654 2150.48 114.931 2147.91 108.753 2142.25C103.089 2136.58 100 2128.86 100 2117.53V2096.94C100 2086.13 103.089 2078.4 108.753 2072.74C114.416 2067.08 122.654 2064.5 132.437 2064.5C142.219 2064.5 149.942 2067.08 156.121 2072.74C161.784 2078.4 164.874 2086.64 164.874 2096.94V2117.53C164.874 2128.34 161.784 2136.58 156.121 2142.25C150.457 2147.91 142.734 2150.48 132.437 2150.48ZM132.437 2137.1C138.1 2137.1 142.734 2135.55 145.309 2132.46C147.883 2129.37 149.427 2124.74 149.427 2118.56V2096.42C149.427 2090.25 147.883 2085.61 144.794 2082.52C141.704 2079.43 137.585 2077.89 132.437 2077.89C126.773 2077.89 122.654 2079.43 119.565 2082.52C116.476 2085.61 114.931 2090.25 114.931 2095.91V2118.05C114.931 2124.23 116.476 2128.86 119.05 2131.95C122.654 2135.55 126.773 2137.1 132.437 2137.1Z" fill="#F9893D" fill-opacity="0.5"/>
</g>
</g>
</g>
<defs>
<clipPath id="clip0_140_9328">
<rect width="968" height="2146" fill="white"/>
</clipPath>
<clipPath id="clip1_140_9328">
<rect width="968" height="2156" fill="white" transform="translate(0 1)"/>
</clipPath>
</defs>
</svg>
