<svg width="320" height="3414" viewBox="0 0 320 3414" fill="none" xmlns="http://www.w3.org/2000/svg">
<g clip-path="url(#clip0_141_9140)">
<rect width="320" height="3414" fill="#1A1A1A"/>
<g clip-path="url(#clip1_141_9140)">
<g opacity="0.18">
<path d="M165.094 83.4051V11.3266H163.032L151.688 37.5838H135.703L152.719 0H180.047V83.4051H165.094Z" fill="#F9893D" fill-opacity="0.5"/>
<path d="M161.485 209.026C151.688 209.026 143.953 206.452 137.766 200.789C131.578 195.125 129 187.403 129 176.076V155.482C129 144.67 132.094 136.948 137.766 131.284C143.438 125.621 151.688 123.047 161.485 123.047C171.282 123.047 179.016 125.621 185.204 131.284C190.876 136.948 193.969 145.185 193.969 155.482V176.076C193.969 186.888 190.876 195.125 185.204 200.789C179.016 206.452 171.282 209.026 161.485 209.026ZM161.485 195.64C167.157 195.64 171.797 194.096 174.376 191.007C176.954 187.917 178.501 183.284 178.501 177.106V154.967C178.501 148.789 176.954 144.156 173.86 141.066C170.766 137.977 166.641 136.433 161.485 136.433C155.813 136.433 151.688 137.977 148.594 141.066C145.5 144.156 143.953 148.789 143.953 154.452V176.591C143.953 182.769 145.5 187.403 148.078 190.492C151.172 194.096 155.813 195.64 161.485 195.64Z" fill="#F9893D" fill-opacity="0.5"/>
<path d="M165.094 332.077V259.998H163.032L151.688 286.256H135.703L152.719 248.672H180.047V331.562H165.094V332.077Z" fill="#F9893D" fill-opacity="0.5"/>
<path d="M165.094 456.156V384.592H163.032L151.688 410.849H135.703L152.719 373.266H180.047V456.156H165.094Z" fill="#F9893D" fill-opacity="0.5"/>
<path d="M165.094 580.746V508.667H163.032L151.688 534.924H135.703L153.235 497.855H180.563V580.746H165.094Z" fill="#F9893D" fill-opacity="0.5"/>
<path d="M161.485 706.37C151.688 706.37 143.953 703.796 137.766 698.132C131.578 692.469 129 684.746 129 673.42V652.826C129 642.014 132.094 634.291 137.766 628.628C143.438 622.965 151.688 620.391 161.485 620.391C171.282 620.391 179.016 622.965 185.204 628.628C190.876 634.291 193.969 642.529 193.969 652.826V673.42C193.969 684.232 190.876 692.469 185.204 698.132C179.016 703.796 171.282 706.37 161.485 706.37ZM161.485 692.984C167.157 692.984 171.797 691.439 174.376 688.35C176.954 685.261 178.501 680.628 178.501 674.449V652.311C178.501 646.133 176.954 641.499 173.86 638.41C170.766 635.321 166.641 633.777 161.485 633.777C155.813 633.777 151.688 635.321 148.594 638.41C145.5 641.499 143.953 646.133 143.953 651.796V673.935C143.953 680.113 145.5 684.746 148.078 687.835C151.172 691.439 155.813 692.984 161.485 692.984Z" fill="#F9893D" fill-opacity="0.5"/>
<path d="M161.485 830.964C151.688 830.964 143.953 828.389 137.766 822.726C131.578 817.063 129 809.34 129 798.014V777.42C129 766.608 132.094 758.885 137.766 753.222C143.438 747.559 151.688 744.984 161.485 744.984C171.282 744.984 179.016 747.559 185.204 753.222C190.876 758.885 193.969 767.123 193.969 777.42V798.014C193.969 808.825 190.876 817.063 185.204 822.726C179.016 828.389 171.282 830.964 161.485 830.964ZM161.485 817.578C167.157 817.578 171.797 816.033 174.376 812.944C176.954 809.855 178.501 805.221 178.501 799.043V776.905C178.501 770.727 176.954 766.093 173.86 763.004C170.766 759.915 166.641 758.37 161.485 758.37C155.813 758.37 151.688 759.915 148.594 763.004C145.5 766.093 143.953 770.727 143.953 776.39V798.528C143.953 804.706 145.5 809.34 148.078 812.429C151.172 816.033 155.813 817.578 161.485 817.578Z" fill="#F9893D" fill-opacity="0.5"/>
<path d="M165.094 953.496V881.932H163.032L151.688 908.189H135.703L152.719 870.605H180.047V953.496H165.094Z" fill="#F9893D" fill-opacity="0.5"/>
<path d="M161.485 1079.63C151.688 1079.63 143.953 1077.06 137.766 1071.39C131.578 1065.73 129 1058.01 129 1046.68V1026.09C129 1015.28 132.094 1007.55 137.766 1001.89C143.438 996.227 151.688 993.652 161.485 993.652C171.282 993.652 179.016 996.227 185.204 1001.89C190.876 1007.55 193.969 1015.79 193.969 1026.09V1046.68C193.969 1057.49 190.876 1065.73 185.204 1071.39C179.016 1077.06 171.282 1079.63 161.485 1079.63ZM161.485 1066.25C167.157 1066.25 171.797 1064.7 174.376 1061.61C176.954 1058.52 178.501 1053.89 178.501 1047.71V1025.57C178.501 1019.39 176.954 1014.76 173.86 1011.67C170.766 1008.58 166.641 1007.04 161.485 1007.04C155.813 1007.04 151.688 1008.58 148.594 1011.67C145.5 1014.76 143.953 1019.39 143.953 1025.06V1047.2C143.953 1053.37 145.5 1058.01 148.078 1061.1C151.172 1064.7 155.813 1066.25 161.485 1066.25Z" fill="#F9893D" fill-opacity="0.5"/>
<path opacity="0.78" d="M165.094 1202.16V1130.6H163.032L151.688 1156.86H135.703L152.719 1119.27H180.047V1202.16H165.094Z" fill="#F9893D" fill-opacity="0.5"/>
<path opacity="0.78" d="M161.485 1328.3C151.688 1328.3 143.953 1325.73 137.766 1320.07C131.578 1314.4 129 1306.68 129 1295.35V1274.76C129 1263.95 132.094 1256.23 137.766 1250.56C143.438 1244.9 151.688 1242.32 161.485 1242.32C171.282 1242.32 179.016 1244.9 185.204 1250.56C190.876 1256.23 193.969 1264.46 193.969 1274.76V1295.35C193.969 1306.17 190.876 1314.4 185.204 1320.07C179.016 1325.73 171.282 1328.3 161.485 1328.3ZM161.485 1314.92C167.157 1314.92 171.797 1313.37 174.376 1310.28C176.954 1307.19 178.501 1302.56 178.501 1296.38V1274.24C178.501 1268.07 176.954 1263.43 173.86 1260.34C170.766 1257.25 166.641 1255.71 161.485 1255.71C155.813 1255.71 151.688 1257.25 148.594 1260.34C145.5 1263.43 143.953 1268.07 143.953 1273.73V1295.87C143.953 1302.05 145.5 1306.68 148.078 1309.77C151.172 1313.37 155.813 1314.92 161.485 1314.92Z" fill="#F9893D" fill-opacity="0.5"/>
<path opacity="0.78" d="M161.485 1452.38C151.688 1452.38 143.953 1449.81 137.766 1444.14C131.578 1438.48 129 1430.76 129 1419.43V1398.84C129 1388.03 132.094 1380.3 137.766 1374.64C143.438 1368.98 151.688 1366.4 161.485 1366.4C171.282 1366.4 179.016 1368.98 185.204 1374.64C190.876 1380.3 193.969 1388.54 193.969 1398.84V1419.43C193.969 1430.24 190.876 1438.48 185.204 1444.14C179.016 1449.81 171.282 1452.38 161.485 1452.38ZM161.485 1439C167.157 1439 171.797 1437.45 174.376 1434.36C176.954 1431.27 178.501 1426.64 178.501 1420.46V1398.32C178.501 1392.14 176.954 1387.51 173.86 1384.42C170.766 1381.33 166.641 1379.79 161.485 1379.79C155.813 1379.79 151.688 1381.33 148.594 1384.42C145.5 1387.51 143.953 1392.14 143.953 1397.81V1419.95C143.953 1426.12 145.5 1430.76 148.078 1433.85C151.172 1437.45 155.813 1439 161.485 1439Z" fill="#F9893D" fill-opacity="0.5"/>
<path d="M165.094 1575.43V1503.87H163.032L151.688 1530.12H135.703L152.719 1492.54H180.047V1575.43H165.094Z" fill="#F9893D" fill-opacity="0.5"/>
<path d="M161.485 1701.05C151.688 1701.05 143.953 1698.48 137.766 1692.82C131.578 1687.15 129 1679.43 129 1668.1V1647.51C129 1636.7 132.094 1628.98 137.766 1623.31C143.438 1617.65 151.688 1615.07 161.485 1615.07C171.282 1615.07 179.016 1617.65 185.204 1623.31C190.876 1628.98 193.969 1637.21 193.969 1647.51V1668.1C193.969 1678.92 190.876 1687.15 185.204 1692.82C179.016 1698.48 171.282 1701.05 161.485 1701.05ZM161.485 1687.67C167.157 1687.67 171.797 1686.12 174.376 1683.03C176.954 1679.94 178.501 1675.31 178.501 1669.13V1646.99C178.501 1640.82 176.954 1636.18 173.86 1633.09C170.766 1630 166.641 1628.46 161.485 1628.46C155.813 1628.46 151.688 1630 148.594 1633.09C145.5 1636.18 143.953 1640.82 143.953 1646.48V1668.62C143.953 1674.8 145.5 1679.43 148.078 1682.52C151.172 1686.12 155.813 1687.67 161.485 1687.67Z" fill="#F9893D" fill-opacity="0.5"/>
<path d="M165.094 1824.1V1752.54H163.032L151.688 1778.79H135.703L152.719 1741.21H180.047V1824.1H165.094Z" fill="#F9893D" fill-opacity="0.5"/>
<path d="M161.485 1949.72C151.688 1949.72 143.953 1947.15 137.766 1941.48C131.578 1935.82 129 1928.1 129 1916.77V1896.18C129 1885.37 132.094 1877.64 137.766 1871.98C143.438 1866.32 151.688 1863.74 161.485 1863.74C171.282 1863.74 179.016 1866.32 185.204 1871.98C190.876 1877.64 193.969 1885.88 193.969 1896.18V1916.77C193.969 1927.58 190.876 1935.82 185.204 1941.48C179.016 1947.15 171.282 1949.72 161.485 1949.72ZM161.485 1936.34C167.157 1936.34 171.797 1934.79 174.376 1931.7C176.954 1928.61 178.501 1923.98 178.501 1917.8V1895.66C178.501 1889.48 176.954 1884.85 173.86 1881.76C170.766 1878.67 166.641 1877.13 161.485 1877.13C155.813 1877.13 151.688 1878.67 148.594 1881.76C145.5 1884.85 143.953 1889.48 143.953 1895.15V1917.29C143.953 1923.46 145.5 1928.1 148.078 1931.19C151.172 1934.79 155.813 1936.34 161.485 1936.34Z" fill="#F9893D" fill-opacity="0.5"/>
<path d="M165.094 2072.77V2001.21H163.032L151.688 2027.46H135.703L152.719 1989.88H180.047V2072.77H165.094Z" fill="#F9893D" fill-opacity="0.5"/>
<path d="M161.485 2198.39C151.688 2198.39 143.953 2195.82 137.766 2190.16C131.578 2184.49 129 2176.77 129 2165.44V2144.85C129 2134.04 132.094 2126.31 137.766 2120.65C143.438 2114.99 151.688 2112.41 161.485 2112.41C171.282 2112.41 179.016 2114.99 185.204 2120.65C190.876 2126.31 193.969 2134.55 193.969 2144.85V2165.44C193.969 2176.25 190.876 2184.49 185.204 2190.16C179.016 2195.82 171.282 2198.39 161.485 2198.39ZM161.485 2185.01C167.157 2185.01 171.797 2183.46 174.376 2180.37C176.954 2177.28 178.501 2172.65 178.501 2166.47V2144.33C178.501 2138.16 176.954 2133.52 173.86 2130.43C170.766 2127.34 166.641 2125.8 161.485 2125.8C155.813 2125.8 151.688 2127.34 148.594 2130.43C145.5 2133.52 143.953 2138.16 143.953 2143.82V2165.96C143.953 2172.14 145.5 2176.77 148.078 2179.86C151.172 2183.46 155.813 2185.01 161.485 2185.01Z" fill="#F9893D" fill-opacity="0.5"/>
<path d="M165.094 2321.44V2249.88H163.032L151.688 2276.13H135.703L152.719 2238.55H180.047V2321.44H165.094Z" fill="#F9893D" fill-opacity="0.5"/>
</g>
<g opacity="0.18">
<path d="M56.4847 85.9792C46.6877 85.9792 38.9532 83.4051 32.7656 77.7418C27.0937 72.5933 24 64.3557 24 53.0291V32.4352C24 21.6235 27.0937 13.9009 32.7656 8.23757C38.4376 2.57426 46.6877 0 56.4847 0C66.2817 0 74.0162 2.57426 80.2037 8.23757C85.8757 13.9009 88.9694 22.1383 88.9694 32.4352V53.0291C88.9694 63.8409 85.8757 72.0785 80.2037 77.7418C74.5318 83.4051 66.7973 85.9792 56.4847 85.9792ZM56.4847 72.5933C62.1566 72.5933 66.7973 71.0487 69.3755 67.9596C71.9536 64.8705 73.5004 60.237 73.5004 54.0588V31.9204C73.5004 25.7422 71.9536 21.1087 68.8598 18.0196C65.766 14.9305 61.641 13.386 56.4847 13.386C50.8127 13.386 46.6877 14.9305 43.5939 18.0196C40.5001 21.1087 38.9533 25.7423 38.9533 31.4056V53.544C38.9533 59.7221 40.5001 64.3558 43.0783 67.4449C46.6877 71.0488 50.8127 72.5933 56.4847 72.5933Z" fill="#F9893D" fill-opacity="0.5"/>
<path d="M60.6096 205.937V134.374H58.5471L47.2033 160.631H31.2188L48.2345 123.047H75.563V205.937H60.6096Z" fill="#F9893D" fill-opacity="0.5"/>
<path d="M56.4847 328.987C46.6877 328.987 38.9532 326.413 32.7656 320.75C27.0937 315.086 24 307.364 24 296.037V275.443C24 264.631 27.0937 256.909 32.7656 251.246C38.4376 245.582 46.6877 243.008 56.4847 243.008C66.2817 243.008 74.0162 245.582 80.2037 251.246C85.8757 256.909 88.9694 265.146 88.9694 275.443V296.037C88.9694 306.849 85.8757 315.086 80.2037 320.75C74.5318 325.898 66.7973 328.987 56.4847 328.987ZM56.4847 315.086C62.1566 315.086 66.7973 313.542 69.3755 310.453C71.9536 307.364 73.5004 302.73 73.5004 296.552V274.414C73.5004 268.235 71.9536 263.602 68.8598 260.513C65.766 257.424 61.641 255.879 56.4847 255.879C50.8127 255.879 46.6877 257.424 43.5939 260.513C40.5001 263.602 38.9533 268.235 38.9533 273.899V296.037C38.9533 302.215 40.5001 306.849 43.0783 309.938C46.6877 313.542 50.8127 315.086 56.4847 315.086Z" fill="#F9893D" fill-opacity="0.5"/>
<path d="M60.6096 448.429V376.866H58.5471L47.2033 403.123H31.2188L48.2345 365.539H75.563V448.429H60.6096Z" fill="#F9893D" fill-opacity="0.5"/>
<path d="M56.4847 571.479C46.6877 571.479 38.9532 568.905 32.7656 563.242C27.0937 558.093 24 549.856 24 538.529V517.935C24 507.123 27.0937 499.401 32.7656 493.737C38.4376 488.074 46.6877 485.5 56.4847 485.5C66.2817 485.5 74.0162 488.074 80.2037 493.737C85.8757 499.401 88.9694 507.638 88.9694 517.935V538.529C88.9694 549.341 85.8757 557.578 80.2037 563.242C74.5318 568.905 66.7973 571.479 56.4847 571.479ZM56.4847 558.093C62.1566 558.093 66.7973 556.549 69.3755 553.459C71.9536 550.37 73.5004 545.737 73.5004 539.559V517.42C73.5004 511.242 71.9536 506.609 68.8598 503.52C65.766 500.431 61.641 498.886 56.4847 498.886C50.8127 498.886 46.6877 500.431 43.5939 503.52C40.5001 506.609 38.9533 511.242 38.9533 516.905V539.044C38.9533 545.222 40.5001 549.856 43.0783 552.945C46.6877 556.549 50.8127 558.093 56.4847 558.093Z" fill="#F9893D" fill-opacity="0.5"/>
<path d="M60.6096 691.437V619.874H58.5471L47.2033 646.131H31.2188L48.2345 608.547H75.563V691.437H60.6096Z" fill="#F9893D" fill-opacity="0.5"/>
<path d="M56.4847 814.487C46.6877 814.487 38.9532 811.913 32.7656 806.25C27.0937 801.101 24 792.864 24 781.537V760.943C24 750.132 27.0937 742.409 32.7656 736.746C38.4376 731.082 46.6877 728.508 56.4847 728.508C66.2817 728.508 74.0162 731.082 80.2037 736.746C85.8757 742.409 88.9694 750.646 88.9694 760.943V781.537C88.9694 792.349 85.8757 800.586 80.2037 806.25C74.5318 811.398 66.7973 814.487 56.4847 814.487ZM56.4847 800.586C62.1566 800.586 66.7973 799.042 69.3755 795.953C71.9536 792.864 73.5004 788.23 73.5004 782.052V759.914C73.5004 753.735 71.9536 749.102 68.8598 746.013C65.766 742.924 61.641 741.379 56.4847 741.379C50.8127 741.379 46.6877 742.924 43.5939 746.013C40.5001 749.102 38.9533 753.735 38.9533 759.399V781.537C38.9533 787.715 40.5001 792.349 43.0783 795.438C46.6877 799.042 50.8127 800.586 56.4847 800.586Z" fill="#F9893D" fill-opacity="0.5"/>
<path d="M60.6096 933.929V862.365H58.5471L47.2033 888.623H31.2188L48.2345 851.039H75.563V933.929H60.6096Z" fill="#F9893D" fill-opacity="0.5"/>
<path d="M56.4847 1056.98C46.6877 1056.98 38.9532 1054.4 32.7656 1048.74C27.0937 1043.08 24 1035.36 24 1024.03V1003.44C24 992.623 27.0937 984.901 32.7656 979.237C38.4376 973.574 46.6877 971 56.4847 971C66.2817 971 74.0162 973.574 80.2037 979.237C85.8757 984.901 88.9694 993.138 88.9694 1003.44V1024.03C88.9694 1034.84 85.8757 1043.08 80.2037 1048.74C74.5318 1054.4 66.7973 1056.98 56.4847 1056.98ZM56.4847 1043.59C62.1566 1043.59 66.7973 1042.05 69.3755 1038.96C71.9536 1035.87 73.5004 1031.24 73.5004 1025.06V1002.92C73.5004 996.742 71.9536 992.109 68.8598 989.02C65.766 985.931 61.641 984.386 56.4847 984.386C50.8127 984.386 46.6877 985.931 43.5939 989.02C40.5001 992.109 38.9533 996.742 38.9533 1002.41V1024.54C38.9533 1030.72 40.5001 1035.36 43.0783 1038.44C46.6877 1042.05 50.8127 1043.59 56.4847 1043.59Z" fill="#F9893D" fill-opacity="0.5"/>
<path d="M60.6096 1176.94V1105.37H58.5471L47.2033 1131.63H31.2188L48.2345 1094.05H75.563V1176.94H60.6096Z" fill="#F9893D" fill-opacity="0.5"/>
<path d="M56.4847 1299.99C46.6877 1299.99 38.9532 1297.41 32.7656 1291.75C27.0937 1286.6 24 1278.36 24 1267.04V1246.44C24 1235.63 27.0937 1227.91 32.7656 1222.25C38.4376 1216.58 46.6877 1214.01 56.4847 1214.01C66.2817 1214.01 74.0162 1216.58 80.2037 1222.25C85.8757 1227.91 88.9694 1236.15 88.9694 1246.44V1267.04C88.9694 1277.85 85.8757 1286.09 80.2037 1291.75C74.5318 1296.9 66.7973 1299.99 56.4847 1299.99ZM56.4847 1286.09C62.1566 1286.09 66.7973 1284.54 69.3755 1281.45C71.9536 1278.36 73.5004 1273.73 73.5004 1267.55V1245.41C73.5004 1239.24 71.9536 1234.6 68.8598 1231.51C65.766 1228.42 61.641 1226.88 56.4847 1226.88C50.8127 1226.88 46.6877 1228.42 43.5939 1231.51C40.5001 1234.6 38.9533 1239.24 38.9533 1244.9V1267.04C38.9533 1273.22 40.5001 1277.85 43.0783 1280.94C46.6877 1284.54 50.8127 1286.09 56.4847 1286.09Z" fill="#F9893D" fill-opacity="0.5"/>
<path d="M60.6096 1419.43V1347.87H58.5471L47.2033 1374.12H31.2188L48.2345 1336.54H75.563V1419.43H60.6096Z" fill="#F9893D" fill-opacity="0.5"/>
<path d="M60.6096 1540.93V1469.37H58.5471L47.2033 1495.63H31.2188L48.2345 1458.04H75.563V1540.93H60.6096Z" fill="#F9893D" fill-opacity="0.5"/>
<path d="M60.6096 1662.44V1590.36H58.5471L47.2033 1616.61H31.2188L48.2345 1579.03H75.563V1662.44H60.6096Z" fill="#F9893D" fill-opacity="0.5"/>
<path d="M56.4847 1785.49C46.6877 1785.49 38.9532 1782.91 32.7656 1777.25C27.0937 1772.1 24 1763.86 24 1752.54V1731.94C24 1721.13 27.0937 1713.41 32.7656 1707.75C38.4376 1702.08 46.6877 1699.51 56.4847 1699.51C66.2817 1699.51 74.0162 1702.08 80.2037 1707.75C85.8757 1713.41 88.9694 1721.65 88.9694 1731.94V1752.54C88.9694 1763.35 85.8757 1771.59 80.2037 1777.25C74.5318 1782.4 66.7973 1785.49 56.4847 1785.49ZM56.4847 1771.59C62.1566 1771.59 66.7973 1770.04 69.3755 1766.95C71.9536 1763.86 73.5004 1759.23 73.5004 1753.05V1730.91C73.5004 1724.74 71.9536 1720.1 68.8598 1717.01C65.766 1713.92 61.641 1712.38 56.4847 1712.38C50.8127 1712.38 46.6877 1713.92 43.5939 1717.01C40.5001 1720.1 38.9533 1724.74 38.9533 1730.4V1752.54C38.9533 1758.72 40.5001 1763.35 43.0783 1766.44C46.6877 1770.04 50.8127 1771.59 56.4847 1771.59Z" fill="#F9893D" fill-opacity="0.5"/>
<path d="M56.4847 1906.48C46.6877 1906.48 38.9532 1903.9 32.7656 1898.24C27.0937 1893.09 24 1884.85 24 1873.53V1852.93C24 1842.12 27.0937 1834.4 32.7656 1828.73C38.4376 1823.07 46.6877 1820.5 56.4847 1820.5C66.2817 1820.5 74.0162 1823.07 80.2037 1828.73C85.8757 1834.4 88.9694 1842.63 88.9694 1852.93V1873.53C88.9694 1884.34 85.8757 1892.57 80.2037 1898.24C74.5318 1903.9 66.7973 1906.48 56.4847 1906.48ZM56.4847 1893.09C62.1566 1893.09 66.7973 1891.54 69.3755 1888.46C71.9536 1885.37 73.5004 1880.73 73.5004 1874.55V1852.42C73.5004 1846.24 71.9536 1841.6 68.8598 1838.52C65.766 1835.43 61.641 1833.88 56.4847 1833.88C50.8127 1833.88 46.6877 1835.43 43.5939 1838.52C40.5001 1841.6 38.9533 1846.24 38.9533 1851.9V1874.04C38.9533 1880.22 40.5001 1884.85 43.0783 1887.94C46.6877 1891.54 50.8127 1893.09 56.4847 1893.09Z" fill="#F9893D" fill-opacity="0.5"/>
<path d="M60.6096 2026.43V1954.87H58.5471L47.2033 1981.13H31.2188L48.2345 1943.54H75.563V2026.43H60.6096Z" fill="#F9893D" fill-opacity="0.5"/>
<path d="M56.4847 2149.48C46.6877 2149.48 38.9532 2146.91 32.7656 2141.25C27.0937 2135.58 24 2127.86 24 2116.53V2095.94C24 2085.13 27.0937 2077.4 32.7656 2071.74C38.4376 2066.08 46.6877 2063.5 56.4847 2063.5C66.2817 2063.5 74.0162 2066.08 80.2037 2071.74C85.8757 2077.4 88.9694 2085.64 88.9694 2095.94V2116.53C88.9694 2127.34 85.8757 2135.58 80.2037 2141.25C74.5318 2146.91 66.7973 2149.48 56.4847 2149.48ZM56.4847 2136.1C62.1566 2136.1 66.7973 2134.55 69.3755 2131.46C71.9536 2128.37 73.5004 2123.74 73.5004 2117.56V2095.42C73.5004 2089.25 71.9536 2084.61 68.8598 2081.52C65.766 2078.43 61.641 2076.89 56.4847 2076.89C50.8127 2076.89 46.6877 2078.43 43.5939 2081.52C40.5001 2084.61 38.9533 2089.25 38.9533 2094.91V2117.05C38.9533 2123.23 40.5001 2127.86 43.0783 2130.95C46.6877 2134.55 50.8127 2136.1 56.4847 2136.1Z" fill="#F9893D" fill-opacity="0.5"/>
<path opacity="0.78" d="M60.6096 2268.93V2197.37H58.5471L47.2033 2223.62H31.2188L48.2345 2186.04H75.563V2268.93H60.6096Z" fill="#F9893D" fill-opacity="0.5"/>
<path opacity="0.78" d="M56.4847 2391.98C46.6877 2391.98 38.9532 2389.4 32.7656 2383.74C27.0937 2378.59 24 2370.35 24 2359.03V2338.43C24 2327.62 27.0937 2319.9 32.7656 2314.23C38.4376 2308.57 46.6877 2306 56.4847 2306C66.2817 2306 74.0162 2308.57 80.2037 2314.23C85.8757 2319.9 88.9694 2328.13 88.9694 2338.43V2359.03C88.9694 2369.84 85.8757 2378.07 80.2037 2383.74C74.5318 2389.4 66.7973 2391.98 56.4847 2391.98ZM56.4847 2378.59C62.1566 2378.59 66.7973 2377.04 69.3755 2373.96C71.9536 2370.87 73.5004 2366.23 73.5004 2360.05V2337.92C73.5004 2331.74 71.9536 2327.1 68.8598 2324.02C65.766 2320.93 61.641 2319.38 56.4847 2319.38C50.8127 2319.38 46.6877 2320.93 43.5939 2324.02C40.5001 2327.1 38.9533 2331.74 38.9533 2337.4V2359.54C38.9533 2365.72 40.5001 2370.35 43.0783 2373.44C46.6877 2377.04 50.8127 2378.59 56.4847 2378.59Z" fill="#F9893D" fill-opacity="0.5"/>
<path opacity="0.78" d="M56.4847 2513.48C46.6877 2513.48 38.9532 2510.91 32.7656 2505.24C27.0937 2500.09 24 2491.86 24 2480.53V2459.94C24 2449.12 27.0937 2441.4 32.7656 2435.74C38.4376 2430.07 46.6877 2427.5 56.4847 2427.5C66.2817 2427.5 74.0162 2430.07 80.2037 2435.74C85.8757 2441.4 88.9694 2449.64 88.9694 2459.94V2480.53C88.9694 2491.34 85.8757 2499.58 80.2037 2505.24C74.5318 2510.91 66.7973 2513.48 56.4847 2513.48ZM56.4847 2500.09C62.1566 2500.09 66.7973 2498.55 69.3755 2495.46C71.9536 2492.37 73.5004 2487.74 73.5004 2481.56V2459.42C73.5004 2453.24 71.9536 2448.61 68.8598 2445.52C65.766 2442.43 61.641 2440.89 56.4847 2440.89C50.8127 2440.89 46.6877 2442.43 43.5939 2445.52C40.5001 2448.61 38.9533 2453.24 38.9533 2458.91V2481.04C38.9533 2487.22 40.5001 2491.86 43.0783 2494.95C46.6877 2498.55 50.8127 2500.09 56.4847 2500.09Z" fill="#F9893D" fill-opacity="0.5"/>
<path opacity="0.78" d="M60.6096 2633.44V2561.87H58.5471L47.2033 2588.13H31.2188L48.2345 2550.55H75.563V2633.44H60.6096Z" fill="#F9893D" fill-opacity="0.5"/>
<path opacity="0.78" d="M56.4847 2756.49C46.6877 2756.49 38.9532 2753.91 32.7656 2748.25C27.0937 2742.59 24 2734.86 24 2723.54V2702.94C24 2692.13 27.0937 2684.41 32.7656 2678.75C38.4376 2673.08 46.6877 2670.51 56.4847 2670.51C66.2817 2670.51 74.0162 2673.08 80.2037 2678.75C85.8757 2684.41 88.9694 2692.65 88.9694 2702.94V2723.54C88.9694 2734.35 85.8757 2742.59 80.2037 2748.25C74.5318 2753.4 66.7973 2756.49 56.4847 2756.49ZM56.4847 2742.59C62.1566 2742.59 66.7973 2741.04 69.3755 2737.95C71.9536 2734.86 73.5004 2730.23 73.5004 2724.05V2701.91C73.5004 2695.74 71.9536 2691.1 68.8598 2688.01C65.766 2684.92 61.641 2683.38 56.4847 2683.38C50.8127 2683.38 46.6877 2684.92 43.5939 2688.01C40.5001 2691.1 38.9533 2695.74 38.9533 2701.4V2723.54C38.9533 2729.72 40.5001 2734.35 43.0783 2737.44C46.6877 2741.04 50.8127 2742.59 56.4847 2742.59Z" fill="#F9893D" fill-opacity="0.5"/>
<path opacity="0.78" d="M60.6096 2875.93V2804.37H58.5471L47.2033 2830.62H31.2188L48.2345 2793.04H75.563V2875.93H60.6096Z" fill="#F9893D" fill-opacity="0.5"/>
<path opacity="0.78" d="M56.4847 2998.98C46.6877 2998.98 38.9532 2996.4 32.7656 2990.74C27.0937 2985.59 24 2977.36 24 2966.03V2945.43C24 2934.62 27.0937 2926.9 32.7656 2921.24C38.4376 2915.57 46.6877 2913 56.4847 2913C66.2817 2913 74.0162 2915.57 80.2037 2921.24C85.8757 2926.9 88.9694 2935.14 88.9694 2945.43V2966.03C88.9694 2976.84 85.8757 2985.08 80.2037 2990.74C74.5318 2996.4 66.7973 2998.98 56.4847 2998.98ZM56.4847 2985.59C62.1566 2985.59 66.7973 2984.05 69.3755 2980.96C71.9536 2977.87 73.5004 2973.24 73.5004 2967.06V2944.92C73.5004 2938.74 71.9536 2934.11 68.8598 2931.02C65.766 2927.93 61.641 2926.39 56.4847 2926.39C50.8127 2926.39 46.6877 2927.93 43.5939 2931.02C40.5001 2934.11 38.9533 2938.74 38.9533 2944.41V2966.54C38.9533 2972.72 40.5001 2977.36 43.0783 2980.44C46.6877 2984.05 50.8127 2985.59 56.4847 2985.59Z" fill="#F9893D" fill-opacity="0.5"/>
<path opacity="0.78" d="M60.6096 3118.94V3047.37H58.5471L47.2033 3073.63H31.2188L48.2345 3036.05H75.563V3118.94H60.6096Z" fill="#F9893D" fill-opacity="0.5"/>
<path opacity="0.78" d="M56.4847 3241.99C46.6877 3241.99 38.9532 3239.41 32.7656 3233.75C27.0937 3228.6 24 3220.36 24 3209.04V3188.44C24 3177.63 27.0937 3169.91 32.7656 3164.25C38.4376 3158.58 46.6877 3156.01 56.4847 3156.01C66.2817 3156.01 74.0162 3158.58 80.2037 3164.25C85.8757 3169.91 88.9694 3178.15 88.9694 3188.44V3209.04C88.9694 3219.85 85.8757 3228.09 80.2037 3233.75C74.5318 3238.9 66.7973 3241.99 56.4847 3241.99ZM56.4847 3228.09C62.1566 3228.09 66.7973 3226.54 69.3755 3223.45C71.9536 3220.36 73.5004 3215.73 73.5004 3209.55V3187.41C73.5004 3181.24 71.9536 3176.6 68.8598 3173.51C65.766 3170.42 61.641 3168.88 56.4847 3168.88C50.8127 3168.88 46.6877 3170.42 43.5939 3173.51C40.5001 3176.6 38.9533 3181.24 38.9533 3186.9V3209.04C38.9533 3215.22 40.5001 3219.85 43.0783 3222.94C46.6877 3226.54 50.8127 3228.09 56.4847 3228.09Z" fill="#F9893D" fill-opacity="0.5"/>
<path opacity="0.78" d="M60.6096 3361.43V3289.87H58.5471L47.2033 3316.12H31.2188L48.2345 3278.54H75.563V3361.43H60.6096Z" fill="#F9893D" fill-opacity="0.5"/>
</g>
<g opacity="0.18">
<path d="M271.448 209.048V150.241H269.765L260.51 171.664H247.469L261.351 141H283.648V209.048H271.448Z" fill="#F9893D" fill-opacity="0.5"/>
<path d="M268.503 311.539C260.51 311.539 254.2 309.439 249.152 304.818C244.103 300.197 242 293.897 242 284.656V267.854C242 259.033 244.524 252.732 249.152 248.111C253.779 243.491 260.51 241.391 268.503 241.391C276.497 241.391 282.807 243.491 287.855 248.111C292.483 252.732 295.007 259.453 295.007 267.854V284.656C295.007 293.477 292.483 300.197 287.855 304.818C282.807 309.439 276.497 311.539 268.503 311.539ZM268.503 300.617C273.131 300.617 276.917 299.357 279.021 296.837C281.124 294.317 282.386 290.536 282.386 285.496V267.434C282.386 262.393 281.124 258.613 278.6 256.092C276.076 253.572 272.71 252.312 268.503 252.312C263.876 252.312 260.51 253.572 257.986 256.092C255.462 258.613 254.2 262.393 254.2 267.014V285.076C254.2 290.116 255.462 293.897 257.565 296.417C260.09 299.357 263.876 300.617 268.503 300.617Z" fill="#F9893D" fill-opacity="0.5"/>
<path d="M271.448 411.931V353.124H269.765L260.51 374.546H247.469L261.351 343.883H283.648V411.511H271.448V411.931Z" fill="#F9893D" fill-opacity="0.5"/>
<path d="M271.448 513.163V454.776H269.765L260.51 476.199H247.469L261.351 445.535H283.648V513.163H271.448Z" fill="#F9893D" fill-opacity="0.5"/>
<path d="M271.448 614.815V556.009H269.765L260.51 577.431H247.469L261.772 547.188H284.069V614.815H271.448Z" fill="#F9893D" fill-opacity="0.5"/>
<path d="M268.503 717.308C260.51 717.308 254.2 715.208 249.152 710.588C244.103 705.967 242 699.666 242 690.425V673.623C242 664.802 244.524 658.501 249.152 653.881C253.779 649.26 260.51 647.16 268.503 647.16C276.497 647.16 282.807 649.26 287.855 653.881C292.483 658.501 295.007 665.222 295.007 673.623V690.425C295.007 699.246 292.483 705.967 287.855 710.588C282.807 715.208 276.497 717.308 268.503 717.308ZM268.503 706.387C273.131 706.387 276.917 705.127 279.021 702.607C281.124 700.086 282.386 696.306 282.386 691.265V673.203C282.386 668.163 281.124 664.382 278.6 661.862C276.076 659.342 272.71 658.081 268.503 658.081C263.876 658.081 260.51 659.342 257.986 661.862C255.462 664.382 254.2 668.163 254.2 672.783V690.845C254.2 695.886 255.462 699.666 257.565 702.187C260.09 705.127 263.876 706.387 268.503 706.387Z" fill="#F9893D" fill-opacity="0.5"/>
<path d="M268.503 818.961C260.51 818.961 254.2 816.86 249.152 812.24C244.103 807.619 242 801.319 242 792.078V775.276C242 766.455 244.524 760.154 249.152 755.533C253.779 750.913 260.51 748.812 268.503 748.812C276.497 748.812 282.807 750.913 287.855 755.533C292.483 760.154 295.007 766.875 295.007 775.276V792.078C295.007 800.899 292.483 807.619 287.855 812.24C282.807 816.86 276.497 818.961 268.503 818.961ZM268.503 808.039C273.131 808.039 276.917 806.779 279.021 804.259C281.124 801.739 282.386 797.958 282.386 792.918V774.856C282.386 769.815 281.124 766.034 278.6 763.514C276.076 760.994 272.71 759.734 268.503 759.734C263.876 759.734 260.51 760.994 257.986 763.514C255.462 766.034 254.2 769.815 254.2 774.435V792.498C254.2 797.538 255.462 801.319 257.565 803.839C260.09 806.779 263.876 808.039 268.503 808.039Z" fill="#F9893D" fill-opacity="0.5"/>
<path d="M271.448 918.933V860.546H269.765L260.51 881.968H247.469L261.351 851.305H283.648V918.933H271.448Z" fill="#F9893D" fill-opacity="0.5"/>
<path d="M268.503 1021.84C260.51 1021.84 254.2 1019.74 249.152 1015.12C244.103 1010.5 242 1004.2 242 994.96V978.158C242 969.337 244.524 963.037 249.152 958.416C253.779 953.796 260.51 951.695 268.503 951.695C276.497 951.695 282.807 953.796 287.855 958.416C292.483 963.037 295.007 969.757 295.007 978.158V994.96C295.007 1003.78 292.483 1010.5 287.855 1015.12C282.807 1019.74 276.497 1021.84 268.503 1021.84ZM268.503 1010.92C273.131 1010.92 276.917 1009.66 279.021 1007.14C281.124 1004.62 282.386 1000.84 282.386 995.8V977.738C282.386 972.698 281.124 968.917 278.6 966.397C276.076 963.877 272.71 962.617 268.503 962.617C263.876 962.617 260.51 963.877 257.986 966.397C255.462 968.917 254.2 972.698 254.2 977.318V995.38C254.2 1000.42 255.462 1004.2 257.565 1006.72C260.09 1009.66 263.876 1010.92 268.503 1010.92Z" fill="#F9893D" fill-opacity="0.5"/>
<path opacity="0.78" d="M271.448 1121.82V1063.43H269.765L260.51 1084.85H247.469L261.351 1054.19H283.648V1121.82H271.448Z" fill="#F9893D" fill-opacity="0.5"/>
<path opacity="0.78" d="M268.503 1224.73C260.51 1224.73 254.2 1222.63 249.152 1218.01C244.103 1213.38 242 1207.08 242 1197.84V1181.04C242 1172.22 244.524 1165.92 249.152 1161.3C253.779 1156.68 260.51 1154.58 268.503 1154.58C276.497 1154.58 282.807 1156.68 287.855 1161.3C292.483 1165.92 295.007 1172.64 295.007 1181.04V1197.84C295.007 1206.66 292.483 1213.38 287.855 1218.01C282.807 1222.63 276.497 1224.73 268.503 1224.73ZM268.503 1213.8C273.131 1213.8 276.917 1212.54 279.021 1210.02C281.124 1207.5 282.386 1203.72 282.386 1198.68V1180.62C282.386 1175.58 281.124 1171.8 278.6 1169.28C276.076 1166.76 272.71 1165.5 268.503 1165.5C263.876 1165.5 260.51 1166.76 257.986 1169.28C255.462 1171.8 254.2 1175.58 254.2 1180.2V1198.26C254.2 1203.3 255.462 1207.08 257.565 1209.6C260.09 1212.54 263.876 1213.8 268.503 1213.8Z" fill="#F9893D" fill-opacity="0.5"/>
<path opacity="0.78" d="M268.503 1325.96C260.51 1325.96 254.2 1323.86 249.152 1319.24C244.103 1314.62 242 1308.31 242 1299.07V1282.27C242 1273.45 244.524 1267.15 249.152 1262.53C253.779 1257.91 260.51 1255.81 268.503 1255.81C276.497 1255.81 282.807 1257.91 287.855 1262.53C292.483 1267.15 295.007 1273.87 295.007 1282.27V1299.07C295.007 1307.89 292.483 1314.62 287.855 1319.24C282.807 1323.86 276.497 1325.96 268.503 1325.96ZM268.503 1315.04C273.131 1315.04 276.917 1313.78 279.021 1311.26C281.124 1308.73 282.386 1304.95 282.386 1299.91V1281.85C282.386 1276.81 281.124 1273.03 278.6 1270.51C276.076 1267.99 272.71 1266.73 268.503 1266.73C263.876 1266.73 260.51 1267.99 257.986 1270.51C255.462 1273.03 254.2 1276.81 254.2 1281.43V1299.49C254.2 1304.53 255.462 1308.31 257.565 1310.83C260.09 1313.78 263.876 1315.04 268.503 1315.04Z" fill="#F9893D" fill-opacity="0.5"/>
<path d="M271.448 1426.35V1367.96H269.765L260.51 1389.39H247.469L261.351 1358.72H283.648V1426.35H271.448Z" fill="#F9893D" fill-opacity="0.5"/>
<path d="M268.503 1528.84C260.51 1528.84 254.2 1526.74 249.152 1522.12C244.103 1517.5 242 1511.2 242 1501.96V1485.15C242 1476.33 244.524 1470.03 249.152 1465.41C253.779 1460.79 260.51 1458.69 268.503 1458.69C276.497 1458.69 282.807 1460.79 287.855 1465.41C292.483 1470.03 295.007 1476.75 295.007 1485.15V1501.96C295.007 1510.78 292.483 1517.5 287.855 1522.12C282.807 1526.74 276.497 1528.84 268.503 1528.84ZM268.503 1517.92C273.131 1517.92 276.917 1516.66 279.021 1514.14C281.124 1511.62 282.386 1507.84 282.386 1502.8V1484.73C282.386 1479.69 281.124 1475.91 278.6 1473.39C276.076 1470.87 272.71 1469.61 268.503 1469.61C263.876 1469.61 260.51 1470.87 257.986 1473.39C255.462 1475.91 254.2 1479.69 254.2 1484.31V1502.38C254.2 1507.42 255.462 1511.2 257.565 1513.72C260.09 1516.66 263.876 1517.92 268.503 1517.92Z" fill="#F9893D" fill-opacity="0.5"/>
<path d="M271.448 1629.23V1570.85H269.765L260.51 1592.27H247.469L261.351 1561.61H283.648V1629.23H271.448Z" fill="#F9893D" fill-opacity="0.5"/>
<path d="M268.503 1731.73C260.51 1731.73 254.2 1729.63 249.152 1725.01C244.103 1720.38 242 1714.08 242 1704.84V1688.04C242 1679.22 244.524 1672.92 249.152 1668.3C253.779 1663.68 260.51 1661.58 268.503 1661.58C276.497 1661.58 282.807 1663.68 287.855 1668.3C292.483 1672.92 295.007 1679.64 295.007 1688.04V1704.84C295.007 1713.66 292.483 1720.38 287.855 1725.01C282.807 1729.63 276.497 1731.73 268.503 1731.73ZM268.503 1720.81C273.131 1720.81 276.917 1719.54 279.021 1717.02C281.124 1714.5 282.386 1710.72 282.386 1705.68V1687.62C282.386 1682.58 281.124 1678.8 278.6 1676.28C276.076 1673.76 272.71 1672.5 268.503 1672.5C263.876 1672.5 260.51 1673.76 257.986 1676.28C255.462 1678.8 254.2 1682.58 254.2 1687.2V1705.26C254.2 1710.3 255.462 1714.08 257.565 1716.6C260.09 1719.54 263.876 1720.81 268.503 1720.81Z" fill="#F9893D" fill-opacity="0.5"/>
<path d="M271.448 1832.12V1773.73H269.765L260.51 1795.15H247.469L261.351 1764.49H283.648V1832.12H271.448Z" fill="#F9893D" fill-opacity="0.5"/>
<path d="M268.503 1934.61C260.51 1934.61 254.2 1932.51 249.152 1927.89C244.103 1923.27 242 1916.97 242 1907.73V1890.92C242 1882.1 244.524 1875.8 249.152 1871.18C253.779 1866.56 260.51 1864.46 268.503 1864.46C276.497 1864.46 282.807 1866.56 287.855 1871.18C292.483 1875.8 295.007 1882.52 295.007 1890.92V1907.73C295.007 1916.55 292.483 1923.27 287.855 1927.89C282.807 1932.51 276.497 1934.61 268.503 1934.61ZM268.503 1923.69C273.131 1923.69 276.917 1922.43 279.021 1919.91C281.124 1917.39 282.386 1913.61 282.386 1908.57V1890.5C282.386 1885.46 281.124 1881.68 278.6 1879.16C276.076 1876.64 272.71 1875.38 268.503 1875.38C263.876 1875.38 260.51 1876.64 257.986 1879.16C255.462 1881.68 254.2 1885.46 254.2 1890.08V1908.15C254.2 1913.19 255.462 1916.97 257.565 1919.49C260.09 1922.43 263.876 1923.69 268.503 1923.69Z" fill="#F9893D" fill-opacity="0.5"/>
<path d="M271.448 2035V1976.61H269.765L260.51 1998.03H247.469L261.351 1967.37H283.648V2035H271.448Z" fill="#F9893D" fill-opacity="0.5"/>
</g>
<g opacity="0.18">
<path d="M263.485 2854.98C253.688 2854.98 245.953 2852.41 239.766 2846.74C233.578 2841.08 231 2833.36 231 2822.03V2801.44C231 2790.62 234.094 2782.9 239.766 2777.24C245.438 2771.57 253.688 2769 263.485 2769C273.282 2769 281.016 2771.57 287.204 2777.24C292.876 2782.9 295.97 2791.14 295.97 2801.44V2822.03C295.97 2832.84 292.876 2841.08 287.204 2846.74C281.016 2852.41 273.282 2854.98 263.485 2854.98ZM263.485 2841.59C269.157 2841.59 273.797 2840.05 276.376 2836.96C278.954 2833.87 280.501 2829.24 280.501 2823.06V2800.92C280.501 2794.74 278.954 2790.11 275.86 2787.02C272.766 2783.93 268.641 2782.39 263.485 2782.39C257.813 2782.39 253.688 2783.93 250.594 2787.02C247.5 2790.11 245.953 2794.74 245.953 2800.41V2822.54C245.953 2828.72 247.5 2833.36 250.078 2836.45C253.172 2840.05 257.297 2841.59 263.485 2841.59Z" fill="#F9893D" fill-opacity="0.5"/>
<path d="M267.094 2978.03V2906.46H265.031L253.688 2932.72H237.703L254.719 2895.14H282.047V2978.03H267.094Z" fill="#F9893D" fill-opacity="0.5"/>
<path d="M263.485 3103.65C253.688 3103.65 245.953 3101.08 239.766 3095.41C233.578 3089.75 231 3082.03 231 3070.7V3050.11C231 3039.3 234.094 3031.57 239.766 3025.91C245.438 3020.25 253.688 3017.67 263.485 3017.67C273.282 3017.67 281.016 3020.25 287.204 3025.91C292.876 3031.57 295.97 3039.81 295.97 3050.11V3070.7C295.97 3081.51 292.876 3089.75 287.204 3095.41C281.016 3101.08 273.282 3103.65 263.485 3103.65ZM263.485 3090.27C269.157 3090.27 273.797 3088.72 276.376 3085.63C278.954 3082.54 280.501 3077.91 280.501 3071.73V3049.59C280.501 3043.41 278.954 3038.78 275.86 3035.69C272.766 3032.6 268.641 3031.06 263.485 3031.06C257.813 3031.06 253.688 3032.6 250.594 3035.69C247.5 3038.78 245.953 3043.41 245.953 3049.08V3071.22C245.953 3077.39 247.5 3082.03 250.078 3085.12C253.172 3088.72 257.297 3090.27 263.485 3090.27Z" fill="#F9893D" fill-opacity="0.5"/>
<path d="M267.094 3226.7V3154.62H265.031L253.688 3180.88H237.703L254.719 3143.29H282.047V3226.7H267.094Z" fill="#F9893D" fill-opacity="0.5"/>
<path d="M263.485 3352.32C253.688 3352.32 245.953 3349.75 239.766 3344.09C233.578 3338.42 231 3330.7 231 3319.37V3298.78C231 3287.97 234.094 3280.24 239.766 3274.58C245.438 3268.92 253.688 3266.34 263.485 3266.34C273.282 3266.34 281.016 3268.92 287.204 3274.58C292.876 3280.24 295.97 3288.48 295.97 3298.78V3319.37C295.97 3330.18 292.876 3338.42 287.204 3344.09C281.016 3349.75 273.282 3352.32 263.485 3352.32ZM263.485 3338.94C269.157 3338.94 273.797 3337.39 276.376 3334.3C278.954 3331.21 280.501 3326.58 280.501 3320.4V3298.26C280.501 3292.09 278.954 3287.45 275.86 3284.36C272.766 3281.27 268.641 3279.73 263.485 3279.73C257.813 3279.73 253.688 3281.27 250.594 3284.36C247.5 3287.45 245.953 3292.09 245.953 3297.75V3319.89C245.953 3326.07 247.5 3330.7 250.078 3333.79C253.172 3337.39 257.297 3338.94 263.485 3338.94Z" fill="#F9893D" fill-opacity="0.5"/>
<path d="M267.094 3475.37V3403.8H265.031L253.688 3430.06H237.703L254.719 3392.48H282.047V3475.37H267.094Z" fill="#F9893D" fill-opacity="0.5"/>
</g>
</g>
</g>
<defs>
<clipPath id="clip0_141_9140">
<rect width="320" height="3414" fill="white"/>
</clipPath>
<clipPath id="clip1_141_9140">
<rect width="320" height="3417" fill="white"/>
</clipPath>
</defs>
</svg>
