<svg width="130" height="130" viewBox="0 0 130 130" fill="none" xmlns="http://www.w3.org/2000/svg">
<path d="M121.293 97.5002C122.199 95.9301 122.762 94.1609 122.762 92.5723V37.4278C122.762 35.8392 122.2 34.0705 121.293 32.5004L83.8626 35.8727L58.1133 65.0002L78.5759 94.1833L121.293 97.5002Z" fill="#00599C"/>
<path d="M70.0007 128.809L117.758 101.236C119.133 100.442 120.384 99.0705 121.29 97.4999L64.9986 65.0001L27.9523 66.3094L8.70703 97.5004C9.61334 99.0705 10.8642 100.443 12.2396 101.236L59.9963 128.809C62.7474 130.397 67.2497 130.397 70.0007 128.809Z" fill="#004482"/>
<path d="M121.291 32.4998C120.384 30.9292 119.134 29.5577 117.758 28.7634L70.0015 1.19148C67.2506 -0.39716 62.7482 -0.39716 59.9971 1.19148L12.2404 28.7636C9.48894 30.3517 7.23828 34.251 7.23828 37.4277V92.5723C7.23828 94.1609 7.80126 95.9301 8.70808 97.5002L64.9996 65.0001L121.291 32.4998Z" fill="#659AD2"/>
<path d="M64.9997 103.507C43.7666 103.507 26.4922 86.2327 26.4922 64.9997C26.4922 43.7666 43.7666 26.4922 64.9997 26.4922C78.7007 26.4922 91.4789 33.8653 98.3469 45.7339L81.6819 55.3774C78.2446 49.4368 71.8519 45.7461 64.9999 45.7461C54.3833 45.7461 45.7461 54.383 45.7461 64.9997C45.7461 75.6161 54.383 84.2533 64.9999 84.2533C71.8527 84.2533 78.2454 80.5625 81.6832 74.6209L98.3481 84.264C91.4799 96.1338 78.7014 103.507 64.9997 103.507Z" fill="white"/>
<path d="M99.246 62.562H96.166L95.726 66.17H98.74L98.52 68.326H95.462L95 72H92.888L93.35 68.326H89.676L89.214 72H87.102L87.564 68.326H84.528L84.748 66.17H87.828L88.268 62.562H85.254L85.452 60.428H88.532L89.016 56.6H91.106L90.644 60.428H94.318L94.802 56.6H96.892L96.43 60.428H99.466L99.246 62.562ZM93.614 66.17L94.054 62.562H90.38L89.94 66.17H93.614Z" fill="white"/>
</svg>
