<svg width="8" height="6" viewBox="0 0 8 6" fill="none" xmlns="http://www.w3.org/2000/svg">
<path d="M0.127872 4.96768L0.389922 5.23155C0.472394 5.31396 0.582119 5.35936 0.699388 5.35936C0.816592 5.35936 0.926447 5.31396 1.00892 5.23155L3.99821 2.24213L6.99095 5.23487C7.07329 5.31728 7.18315 5.36261 7.30035 5.36261C7.41756 5.36261 7.52748 5.31728 7.60988 5.23487L7.872 4.97262C8.04267 4.80208 8.04267 4.52429 7.872 4.35376L4.30878 0.777728C4.22644 0.695385 4.11672 0.637368 3.99847 0.637368H3.99711C3.87984 0.637368 3.77011 0.69545 3.68777 0.777728L0.127872 4.34407C0.0453992 4.42641 0.000130177 4.53945 0 4.65665C0 4.77392 0.0453992 4.8854 0.127872 4.96768Z" fill="#F9893D"/>
</svg>
