<svg width="84" height="84" viewBox="0 0 84 84" fill="none" xmlns="http://www.w3.org/2000/svg">
<circle cx="42" cy="42" r="42" fill="#1A1A1A"/>
<g clip-path="url(#clip0_1_9145)">
<path fill-rule="evenodd" clip-rule="evenodd" d="M60.3275 47.2807H69.2261C69.9366 47.2821 70.6175 47.5564 71.1199 48.0435C71.6223 48.5307 71.9052 49.191 71.9067 49.8799V65.7357C71.9053 66.4247 71.6224 67.085 71.12 67.5722C70.6176 68.0594 69.9366 68.3337 69.2261 68.3351H68.2881V69.3886C68.2864 70.0775 68.0034 70.7376 67.501 71.2247C66.9986 71.7117 66.3178 71.986 65.6074 71.9875H39.1511C38.4407 71.986 37.7597 71.7116 37.2573 71.2244C36.7549 70.7372 36.472 70.0769 36.4705 69.388V67.2687H14.4922C14.275 67.2687 14.0668 67.185 13.9132 67.0361C13.7597 66.8872 13.6734 66.6853 13.6734 66.4747V63.2996C13.6734 63.0891 13.7597 62.8871 13.9132 62.7382C14.0668 62.5893 14.275 62.5057 14.4922 62.5057H18.0512V60.1268C18.0511 60.0225 18.0723 59.9192 18.1134 59.8229C18.1546 59.7266 18.2149 59.639 18.2909 59.5653C18.3669 59.4916 18.4572 59.4331 18.5565 59.3932C18.6558 59.3532 18.7623 59.3327 18.8698 59.3327H20.2285L20.5832 36.4758H20.3762C20.1591 36.4758 19.9508 36.3921 19.7972 36.2432C19.6437 36.0943 19.5574 35.8924 19.5573 35.6818V32.9397H13.2298C13.1223 32.9397 13.0158 32.9192 12.9165 32.8793C12.8171 32.8394 12.7269 32.7809 12.6509 32.7072C12.5748 32.6334 12.5145 32.5459 12.4734 32.4496C12.4323 32.3533 12.4111 32.25 12.4111 32.1458V28.6635C12.4111 28.5593 12.4323 28.456 12.4734 28.3597C12.5145 28.2634 12.5748 28.1759 12.6509 28.1021C12.7269 28.0284 12.8171 27.9699 12.9165 27.93C13.0158 27.8901 13.1223 27.8696 13.2298 27.8696H16.8643L39.8998 12.4686C40.0384 12.3758 40.2031 12.3268 40.3715 12.3284C40.5399 12.33 40.7036 12.382 40.8403 12.4773L63.7943 27.824C63.8157 27.8382 63.8363 27.8534 63.856 27.8696H67.4977C67.6052 27.8696 67.7117 27.8901 67.8111 27.93C67.9104 27.9699 68.0007 28.0283 68.0767 28.1021C68.1528 28.1758 68.2131 28.2633 68.2542 28.3597C68.2954 28.456 68.3166 28.5593 68.3166 28.6635V32.1458C68.3166 32.25 68.2954 32.3533 68.2542 32.4496C68.2131 32.546 68.1528 32.6335 68.0767 32.7072C68.0007 32.781 67.9104 32.8394 67.8111 32.8793C67.7117 32.9192 67.6052 32.9397 67.4977 32.9397H61.1697V35.6824C61.1697 35.893 61.0835 36.095 60.9299 36.2438C60.7764 36.3927 60.5681 36.4764 60.351 36.4764H60.1172L60.3275 47.2807ZM36.4705 59.2506C36.4705 51.6225 36.6234 44.0251 36.7447 36.3937H36.5375C36.43 36.3937 36.3235 36.3732 36.2242 36.3333C36.1248 36.2934 36.0345 36.2349 35.9585 36.1612C35.8825 36.0874 35.8221 35.9999 35.781 35.9035C35.7398 35.8072 35.7186 35.7039 35.7186 35.5997V32.8572H28.8474V35.6002C28.8473 35.8107 28.7611 36.0127 28.6075 36.1616C28.4539 36.3105 28.2456 36.3942 28.0285 36.3942H27.821L28.1759 59.2511H29.5345C29.7517 59.2511 29.9599 59.3348 30.1135 59.4837C30.267 59.6326 30.3533 59.8345 30.3533 60.0451V62.4241H34.2123V60.0446C34.2123 59.9403 34.2335 59.8371 34.2746 59.7408C34.3158 59.6444 34.3761 59.5569 34.4521 59.4832C34.5281 59.4095 34.6183 59.351 34.7177 59.3111C34.817 59.2712 34.9235 59.2506 35.031 59.2506H36.4705ZM44.15 47.1981H52.8592L52.9119 36.3942H52.6989C52.4817 36.3942 52.2734 36.3105 52.1198 36.1616C51.9663 36.0127 51.88 35.8107 51.88 35.6002V32.8572H45.0087V35.6002C45.0087 35.8107 44.9224 36.0127 44.7688 36.1616C44.6152 36.3105 44.407 36.3942 44.1898 36.3942H43.9823L44.15 47.1981Z" fill="#F96B31"/>
<path fill-rule="evenodd" clip-rule="evenodd" d="M66.6499 53.4504C66.6485 53.1826 66.5381 52.9261 66.3428 52.7367C66.1475 52.5473 65.883 52.4403 65.6067 52.439H39.1505C38.8743 52.4404 38.6098 52.5474 38.4145 52.7368C38.2192 52.9262 38.1089 53.1826 38.1074 53.4504V69.3053C38.1088 69.5732 38.2192 69.8297 38.4145 70.0191C38.6098 70.2085 38.8743 70.3155 39.1505 70.3169H65.6067C65.883 70.3156 66.1475 70.2085 66.3428 70.0191C66.5382 69.8297 66.6485 69.5732 66.6499 69.3053V53.4504ZM51.1617 67.2271C50.9445 67.2271 50.7363 67.1434 50.5827 66.9945C50.4292 66.8456 50.3429 66.6437 50.3429 66.4331C50.3429 66.2226 50.4292 66.0206 50.5827 65.8717C50.7363 65.7228 50.9445 65.6392 51.1617 65.6392H53.5954C53.8126 65.6392 54.0208 65.7228 54.1744 65.8717C54.3279 66.0206 54.4142 66.2226 54.4142 66.4331C54.4142 66.6437 54.3279 66.8456 54.1744 66.9945C54.0208 67.1434 53.8126 67.2271 53.5954 67.2271H51.1617ZM56.3158 67.2271C56.0986 67.2271 55.8904 67.1434 55.7368 66.9945C55.5833 66.8456 55.497 66.6437 55.497 66.4331C55.497 66.2226 55.5833 66.0206 55.7368 65.8717C55.8904 65.7228 56.0986 65.6392 56.3158 65.6392H58.7497C58.9668 65.6392 59.1751 65.7228 59.3286 65.8717C59.4822 66.0206 59.5685 66.2226 59.5685 66.4331C59.5685 66.6437 59.4822 66.8456 59.3286 66.9945C59.1751 67.1434 58.9668 67.2271 58.7497 67.2271H56.3158ZM61.4699 67.2271C61.2528 67.2271 61.0445 67.1434 60.891 66.9945C60.7374 66.8456 60.6511 66.6437 60.6511 66.4331C60.6511 66.2226 60.7374 66.0206 60.891 65.8717C61.0445 65.7228 61.2528 65.6392 61.4699 65.6392H63.9037C64.1208 65.6392 64.3291 65.7228 64.4826 65.8717C64.6362 66.0206 64.7225 66.2226 64.7225 66.4331C64.7225 66.6437 64.6362 66.8456 64.4826 66.9945C64.3291 67.1434 64.1208 67.2271 63.9037 67.2271H61.4699ZM46.0075 67.2271C45.7904 67.2271 45.5821 67.1434 45.4286 66.9945C45.275 66.8456 45.1888 66.6437 45.1888 66.4331C45.1888 66.2226 45.275 66.0206 45.4286 65.8717C45.5821 65.7228 45.7904 65.6392 46.0075 65.6392H48.4414C48.6586 65.6392 48.8668 65.7228 49.0204 65.8717C49.174 66.0206 49.2602 66.2226 49.2602 66.4331C49.2602 66.6437 49.174 66.8456 49.0204 66.9945C48.8668 67.1434 48.6586 67.2271 48.4414 67.2271H46.0075ZM40.8535 67.2271C40.6364 67.2271 40.4281 67.1434 40.2746 66.9945C40.121 66.8456 40.0348 66.6437 40.0348 66.4331C40.0348 66.2226 40.121 66.0206 40.2746 65.8717C40.4281 65.7228 40.6364 65.6392 40.8535 65.6392H43.2876C43.5047 65.6392 43.713 65.7228 43.8665 65.8717C44.0201 66.0206 44.1063 66.2226 44.1063 66.4331C44.1063 66.6437 44.0201 66.8456 43.8665 66.9945C43.713 67.1434 43.5047 67.2271 43.2876 67.2271H40.8535ZM49.0471 58.3447C48.9387 58.346 48.8311 58.3265 48.7305 58.2872C48.63 58.2478 48.5385 58.1896 48.4614 58.1157C48.3843 58.0418 48.323 57.9539 48.2812 57.8569C48.2394 57.7599 48.2179 57.6558 48.2179 57.5507C48.2179 57.4456 48.2394 57.3415 48.2812 57.2445C48.323 57.1475 48.3843 57.0596 48.4614 56.9857C48.5385 56.9118 48.63 56.8535 48.7305 56.8142C48.8311 56.7749 48.9387 56.7554 49.0471 56.7567H62.3142C62.5296 56.7593 62.7353 56.8441 62.8866 56.9927C63.038 57.1413 63.1229 57.3418 63.1229 57.5507C63.1229 57.7596 63.038 57.96 62.8866 58.1087C62.7353 58.2573 62.5296 58.3421 62.3142 58.3447H49.0471ZM40.8275 54.9976H44.8922C45.1093 54.9976 45.3176 55.0812 45.4712 55.2301C45.6248 55.379 45.711 55.581 45.7111 55.7916V59.7332C45.7111 59.8374 45.6899 59.9407 45.6487 60.037C45.6076 60.1334 45.5473 60.2209 45.4712 60.2946C45.3952 60.3683 45.3049 60.4268 45.2055 60.4667C45.1062 60.5066 44.9997 60.5271 44.8922 60.5271H40.8275C40.72 60.5271 40.6135 60.5066 40.5142 60.4667C40.4148 60.4268 40.3246 60.3683 40.2485 60.2946C40.1725 60.2209 40.1122 60.1334 40.071 60.037C40.0299 59.9407 40.0087 59.8374 40.0088 59.7332V55.7916C40.0088 55.581 40.0951 55.3791 40.2486 55.2302C40.4021 55.0813 40.6104 54.9976 40.8275 54.9976Z" fill="#1A1A1A"/>
<path fill-rule="evenodd" clip-rule="evenodd" d="M21.8604 59.2507H26.5443L26.1895 36.3943H22.2151L21.8604 59.2507Z" fill="#F9893D"/>
<path d="M19.6885 60.8384H28.7156V62.4233H19.6885V60.8384Z" fill="#F9893D"/>
<path fill-rule="evenodd" clip-rule="evenodd" d="M19.7402 27.787H60.987L40.3637 13.9988L19.7402 27.787Z" fill="#F9893D"/>
<path d="M21.1943 32.8572H27.209V34.8062H21.1943V32.8572Z" fill="#F9893D"/>
<path d="M37.3564 32.8572H43.3711V34.8062H37.3564V32.8572Z" fill="#F9893D"/>
<path d="M53.5176 32.8572H59.5323V34.8062H53.5176V32.8572Z" fill="#F9893D"/>
<path fill-rule="evenodd" clip-rule="evenodd" d="M14.0479 31.2693H66.6788V29.375H14.0479V31.2693Z" fill="#F9893D"/>
<path d="M35.8496 60.8384H36.4701V62.4233H35.8496V60.8384Z" fill="#F9893D"/>
<path fill-rule="evenodd" clip-rule="evenodd" d="M36.47 65.5981V64.0117H29.5341H18.8693H15.3105V65.5981H36.47Z" fill="#F9893D"/>
<path d="M41.6465 56.5857H44.0736V58.9392H41.6465V56.5857Z" fill="#F9893D"/>
<path fill-rule="evenodd" clip-rule="evenodd" d="M68.2871 66.6641H69.2252C69.5014 66.6627 69.7659 66.5557 69.9613 66.3663C70.1566 66.177 70.2669 65.9205 70.2683 65.6526V56.915H68.2871V66.6641Z" fill="#1A1A1A"/>
<path fill-rule="evenodd" clip-rule="evenodd" d="M54.4902 47.1982H58.6957L58.4853 36.3943H54.5429L54.4902 47.1982Z" fill="#F9893D"/>
<path fill-rule="evenodd" clip-rule="evenodd" d="M40.0883 50.8511V49.7976C40.0899 49.1507 40.3394 48.5276 40.7885 48.0493C41.2375 47.5709 41.8539 47.2716 42.5179 47.2095L42.35 36.3943H38.3753L38.1426 51.0425C38.4625 50.9157 38.8047 50.8507 39.1503 50.8511H40.0883Z" fill="#F9893D"/>
<path d="M68.2871 53.8584H70.2683V55.327H68.2871V53.8584Z" fill="#F9893D"/>
<path fill-rule="evenodd" clip-rule="evenodd" d="M67.9946 52.2705H70.2691V49.7971C70.2677 49.5293 70.1574 49.2728 69.962 49.0834C69.7667 48.894 69.5022 48.787 69.226 48.7856H42.7699C42.4937 48.787 42.2291 48.894 42.0338 49.0834C41.8384 49.2728 41.728 49.5292 41.7266 49.7971V50.8506H65.6073C65.9592 50.8506 66.3077 50.918 66.6327 51.0489C66.9577 51.1798 67.2528 51.3717 67.5012 51.6135C67.6999 51.8063 67.8664 52.0279 67.9946 52.2705Z" fill="#1A1A1A"/>
</g>
<defs>
<clipPath id="clip0_1_9145">
<rect width="60" height="60" fill="white" transform="translate(12.1582 12.158)"/>
</clipPath>
</defs>
</svg>
