<svg width="116" height="100" viewBox="0 0 116 100" fill="none" xmlns="http://www.w3.org/2000/svg">
<path d="M29.1876 0.5L86.4089 0.5L115.019 50L86.4089 99.5H29.1876L0.577509 50L29.1876 0.5Z" fill="#181818" stroke="#D6B88D"/>
<circle cx="58" cy="50" r="42" fill="#1A1A1A"/>
<g clip-path="url(#clip0_28_1820)">
<path fill-rule="evenodd" clip-rule="evenodd" d="M76.3265 55.2804H85.2251C85.9356 55.2818 86.6166 55.5561 87.119 56.0433C87.6214 56.5304 87.9043 57.1907 87.9058 57.8797V73.7355C87.9043 74.4244 87.6214 75.0848 87.119 75.5719C86.6166 76.0591 85.9356 76.3334 85.2251 76.3349H84.2871V77.3883C84.2855 78.0772 84.0025 78.7374 83.5001 79.2244C82.9977 79.7115 82.3168 79.9858 81.6064 79.9872H55.1502C54.4397 79.9857 53.7587 79.7114 53.2563 79.2242C52.754 78.737 52.4711 78.0767 52.4695 77.3877V75.2684H30.4912C30.274 75.2684 30.0658 75.1848 29.9123 75.0359C29.7587 74.887 29.6724 74.685 29.6724 74.4745V71.2994C29.6724 71.0888 29.7587 70.8869 29.9123 70.738C30.0658 70.5891 30.274 70.5054 30.4912 70.5054H34.0502V68.1265C34.0502 68.0222 34.0713 67.919 34.1125 67.8227C34.1536 67.7263 34.2139 67.6388 34.2899 67.5651C34.3659 67.4913 34.4562 67.4328 34.5555 67.3929C34.6548 67.353 34.7613 67.3324 34.8688 67.3324H36.2275L36.5823 44.4755H36.3753C36.1581 44.4755 35.9498 44.3919 35.7963 44.243C35.6427 44.0941 35.5564 43.8922 35.5564 43.6816V40.9395H29.2288C29.1213 40.9395 29.0148 40.9189 28.9155 40.879C28.8162 40.8391 28.7259 40.7807 28.6499 40.7069C28.5739 40.6332 28.5136 40.5457 28.4724 40.4494C28.4313 40.353 28.4101 40.2498 28.4102 40.1455V36.6633C28.4101 36.559 28.4313 36.4558 28.4724 36.3595C28.5136 36.2631 28.5739 36.1756 28.6499 36.1019C28.7259 36.0282 28.8162 35.9697 28.9155 35.9298C29.0148 35.8899 29.1213 35.8693 29.2288 35.8693H32.8633L55.8988 20.4683C56.0374 20.3756 56.2021 20.3266 56.3705 20.3282C56.5389 20.3297 56.7027 20.3817 56.8394 20.477L79.7934 35.8237C79.8147 35.8379 79.8353 35.8531 79.855 35.8693H83.4967C83.6042 35.8693 83.7107 35.8898 83.8101 35.9297C83.9094 35.9696 83.9997 36.0281 84.0757 36.1018C84.1518 36.1756 84.2121 36.2631 84.2533 36.3594C84.2944 36.4558 84.3156 36.559 84.3156 36.6633V40.1455C84.3156 40.2498 84.2944 40.3531 84.2533 40.4494C84.2121 40.5457 84.1518 40.6333 84.0757 40.707C83.9997 40.7807 83.9094 40.8392 83.8101 40.8791C83.7107 40.919 83.6042 40.9395 83.4967 40.9395H77.1688V43.6822C77.1688 43.8928 77.0825 44.0947 76.9289 44.2436C76.7754 44.3925 76.5671 44.4762 76.35 44.4762H76.1162L76.3265 55.2804ZM52.4695 67.2504C52.4695 59.6222 52.6224 52.0249 52.7437 44.3935H52.5366C52.429 44.3935 52.3225 44.373 52.2232 44.3331C52.1238 44.2931 52.0336 44.2347 51.9575 44.1609C51.8815 44.0872 51.8212 43.9996 51.78 43.9033C51.7389 43.807 51.7177 43.7037 51.7177 43.5994V40.857H44.8464V43.5999C44.8464 43.8105 44.7601 44.0125 44.6065 44.1614C44.4529 44.3103 44.2447 44.394 44.0275 44.394H43.82L44.1749 67.2509H45.5335C45.7507 67.2509 45.9589 67.3345 46.1125 67.4834C46.266 67.6323 46.3523 67.8343 46.3523 68.0448V70.4239H50.2114V68.0444C50.2114 67.9401 50.2325 67.8369 50.2737 67.7405C50.3148 67.6442 50.3751 67.5567 50.4511 67.4829C50.5271 67.4092 50.6174 67.3507 50.7167 67.3108C50.816 67.2709 50.9225 67.2504 51.03 67.2504H52.4695ZM60.1491 55.1979H68.8582L68.9109 44.394H68.6979C68.4807 44.394 68.2724 44.3103 68.1189 44.1614C67.9653 44.0125 67.879 43.8105 67.879 43.5999V40.857H61.0077V43.5999C61.0077 43.8105 60.9214 44.0125 60.7678 44.1614C60.6143 44.3103 60.406 44.394 60.1888 44.394H59.9813L60.1491 55.1979Z" fill="#F96B31"/>
<path fill-rule="evenodd" clip-rule="evenodd" d="M82.6499 61.4504C82.6485 61.1826 82.5381 60.9261 82.3428 60.7367C82.1475 60.5473 81.883 60.4403 81.6067 60.439H55.1505C54.8743 60.4404 54.6098 60.5474 54.4145 60.7368C54.2192 60.9262 54.1089 61.1826 54.1074 61.4504V77.3053C54.1088 77.5732 54.2192 77.8297 54.4145 78.0191C54.6098 78.2085 54.8743 78.3155 55.1505 78.3169H81.6067C81.883 78.3156 82.1475 78.2085 82.3428 78.0191C82.5382 77.8297 82.6485 77.5732 82.6499 77.3053V61.4504ZM67.1617 75.2271C66.9445 75.2271 66.7363 75.1434 66.5827 74.9945C66.4292 74.8456 66.3429 74.6437 66.3429 74.4331C66.3429 74.2226 66.4292 74.0206 66.5827 73.8717C66.7363 73.7228 66.9445 73.6392 67.1617 73.6392H69.5954C69.8126 73.6392 70.0208 73.7228 70.1744 73.8717C70.3279 74.0206 70.4142 74.2226 70.4142 74.4331C70.4142 74.6437 70.3279 74.8456 70.1744 74.9945C70.0208 75.1434 69.8126 75.2271 69.5954 75.2271H67.1617ZM72.3158 75.2271C72.0986 75.2271 71.8904 75.1434 71.7368 74.9945C71.5833 74.8456 71.497 74.6437 71.497 74.4331C71.497 74.2226 71.5833 74.0206 71.7368 73.8717C71.8904 73.7228 72.0986 73.6392 72.3158 73.6392H74.7497C74.9668 73.6392 75.1751 73.7228 75.3286 73.8717C75.4822 74.0206 75.5685 74.2226 75.5685 74.4331C75.5685 74.6437 75.4822 74.8456 75.3286 74.9945C75.1751 75.1434 74.9668 75.2271 74.7497 75.2271H72.3158ZM77.4699 75.2271C77.2528 75.2271 77.0445 75.1434 76.891 74.9945C76.7374 74.8456 76.6512 74.6437 76.6512 74.4331C76.6512 74.2226 76.7374 74.0206 76.891 73.8717C77.0445 73.7228 77.2528 73.6392 77.4699 73.6392H79.9037C80.1208 73.6392 80.3291 73.7228 80.4826 73.8717C80.6362 74.0206 80.7225 74.2226 80.7225 74.4331C80.7225 74.6437 80.6362 74.8456 80.4826 74.9945C80.3291 75.1434 80.1208 75.2271 79.9037 75.2271H77.4699ZM62.0075 75.2271C61.7904 75.2271 61.5821 75.1434 61.4286 74.9945C61.275 74.8456 61.1888 74.6437 61.1888 74.4331C61.1888 74.2226 61.275 74.0206 61.4286 73.8717C61.5821 73.7228 61.7904 73.6392 62.0075 73.6392H64.4414C64.6586 73.6392 64.8668 73.7228 65.0204 73.8717C65.1739 74.0206 65.2602 74.2226 65.2602 74.4331C65.2602 74.6437 65.1739 74.8456 65.0204 74.9945C64.8668 75.1434 64.6586 75.2271 64.4414 75.2271H62.0075ZM56.8535 75.2271C56.6364 75.2271 56.4281 75.1434 56.2746 74.9945C56.121 74.8456 56.0348 74.6437 56.0348 74.4331C56.0348 74.2226 56.121 74.0206 56.2746 73.8717C56.4281 73.7228 56.6364 73.6392 56.8535 73.6392H59.2876C59.5047 73.6392 59.713 73.7228 59.8665 73.8717C60.0201 74.0206 60.1063 74.2226 60.1063 74.4331C60.1063 74.6437 60.0201 74.8456 59.8665 74.9945C59.713 75.1434 59.5047 75.2271 59.2876 75.2271H56.8535ZM65.0471 66.3447C64.9387 66.346 64.8311 66.3265 64.7305 66.2872C64.63 66.2478 64.5385 66.1896 64.4614 66.1157C64.3843 66.0418 64.323 65.9539 64.2812 65.8569C64.2394 65.7599 64.2179 65.6558 64.2179 65.5507C64.2179 65.4456 64.2394 65.3415 64.2812 65.2445C64.323 65.1475 64.3843 65.0596 64.4614 64.9857C64.5385 64.9118 64.63 64.8535 64.7305 64.8142C64.8311 64.7749 64.9387 64.7554 65.0471 64.7567H78.3142C78.5296 64.7593 78.7353 64.8441 78.8866 64.9927C79.038 65.1413 79.1229 65.3418 79.1229 65.5507C79.1229 65.7596 79.038 65.96 78.8866 66.1087C78.7353 66.2573 78.5296 66.3421 78.3142 66.3447H65.0471ZM56.8275 62.9976H60.8922C61.1093 62.9976 61.3176 63.0812 61.4712 63.2301C61.6248 63.379 61.711 63.581 61.7111 63.7916V67.7332C61.7111 67.8374 61.6899 67.9407 61.6487 68.037C61.6076 68.1334 61.5473 68.2209 61.4712 68.2946C61.3952 68.3683 61.3049 68.4268 61.2055 68.4667C61.1062 68.5066 60.9997 68.5271 60.8922 68.5271H56.8275C56.72 68.5271 56.6135 68.5066 56.5142 68.4667C56.4148 68.4268 56.3246 68.3683 56.2485 68.2946C56.1725 68.2209 56.1122 68.1334 56.071 68.037C56.0299 67.9407 56.0087 67.8374 56.0088 67.7332V63.7916C56.0088 63.581 56.0951 63.3791 56.2486 63.2302C56.4021 63.0813 56.6104 62.9976 56.8275 62.9976Z" fill="#1A1A1A"/>
<path fill-rule="evenodd" clip-rule="evenodd" d="M37.8594 67.2504H42.5434L42.1886 44.394H38.2142L37.8594 67.2504Z" fill="#F9893D"/>
<path d="M35.6875 68.8384H44.7147V70.4233H35.6875V68.8384Z" fill="#F9893D"/>
<path fill-rule="evenodd" clip-rule="evenodd" d="M35.7383 35.7867H76.985L56.3617 21.9985L35.7383 35.7867Z" fill="#F9893D"/>
<path d="M37.1934 40.8569H43.208V42.8059H37.1934V40.8569Z" fill="#F9893D"/>
<path d="M53.3555 40.8569H59.3702V42.8059H53.3555V40.8569Z" fill="#F9893D"/>
<path d="M69.5156 40.8569H75.5303V42.8059H69.5156V40.8569Z" fill="#F9893D"/>
<path fill-rule="evenodd" clip-rule="evenodd" d="M30.0469 39.2693H82.6779V37.375H30.0469V39.2693Z" fill="#F9893D"/>
<path d="M51.8496 68.8384H52.4701V70.4233H51.8496V68.8384Z" fill="#F9893D"/>
<path fill-rule="evenodd" clip-rule="evenodd" d="M52.47 73.5977V72.0112H45.5341H34.8693H31.3105V73.5977H52.47Z" fill="#F9893D"/>
<path d="M57.6465 64.5854H60.0736V66.939H57.6465V64.5854Z" fill="#F9893D"/>
<path fill-rule="evenodd" clip-rule="evenodd" d="M84.2871 74.6636H85.2252C85.5014 74.6623 85.7659 74.5553 85.9613 74.3659C86.1566 74.1765 86.2669 73.92 86.2683 73.6521V64.9146H84.2871V74.6636Z" fill="#1A1A1A"/>
<path fill-rule="evenodd" clip-rule="evenodd" d="M70.4902 55.1979H74.6957L74.4853 44.394H70.5429L70.4902 55.1979Z" fill="#F9893D"/>
<path fill-rule="evenodd" clip-rule="evenodd" d="M56.0883 58.8508V57.7973C56.0899 57.1505 56.3394 56.5273 56.7885 56.049C57.2375 55.5707 57.8539 55.2714 58.5179 55.2092L58.35 44.394H54.3753L54.1426 59.0422C54.4625 58.9155 54.8047 58.8505 55.1503 58.8508H56.0883Z" fill="#F9893D"/>
<path d="M84.2871 61.8579H86.2683V63.3265H84.2871V61.8579Z" fill="#F9893D"/>
<path fill-rule="evenodd" clip-rule="evenodd" d="M83.9946 60.27H86.2691V57.7966C86.2677 57.5288 86.1574 57.2723 85.962 57.0829C85.7667 56.8935 85.5022 56.7865 85.226 56.7852H58.7699C58.4937 56.7865 58.2291 56.8935 58.0338 57.0829C57.8384 57.2723 57.728 57.5288 57.7266 57.7966V58.8501H81.6073C81.9592 58.8501 82.3077 58.9175 82.6327 59.0484C82.9577 59.1793 83.2528 59.3712 83.5012 59.613C83.6999 59.8058 83.8664 60.0275 83.9946 60.27Z" fill="#1A1A1A"/>
</g>
<defs>
<clipPath id="clip0_28_1820">
<rect width="60" height="60" fill="white" transform="translate(28.1582 20.1577)"/>
</clipPath>
</defs>
</svg>
