<svg width="24" height="24" viewBox="0 0 24 24" fill="none" xmlns="http://www.w3.org/2000/svg">
<path d="M20.2676 8.38391C19.0566 7.46296 17.8207 6.72768 16.5943 6.19865C15.0387 5.52758 13.493 5.18732 12 5.18732C10.5071 5.18732 8.96138 5.52758 7.40578 6.19865C6.17934 6.72772 4.94348 7.46296 3.73247 8.38391C1.68112 9.94396 0 12 0 12C0 12 1.68113 14.056 3.73238 15.6161C4.94339 16.537 6.17925 17.2723 7.40569 17.8013C8.96128 18.4724 10.507 18.8127 12 18.8127C13.4929 18.8127 15.0386 18.4724 16.5942 17.8013C17.8207 17.2723 19.0565 16.537 20.2675 15.6161C22.3189 14.056 24 12 24 12C24 12 22.3189 9.94396 20.2676 8.38391ZM12 16.4102C9.58762 16.4102 7.62506 14.4318 7.62506 12C7.62506 9.56821 9.58767 7.5898 12 7.5898C13.2563 7.5898 14.3904 8.12652 15.189 8.98424C15.204 9.00018 15.219 9.01607 15.2335 9.03238C15.9423 9.81641 16.3749 10.8582 16.3749 12C16.3749 14.4318 14.4124 16.4102 12 16.4102Z" fill="#F9893D"/>
<path d="M13.4524 13.0539C12.1327 13.0539 11.0591 11.9716 11.0591 10.6413C11.0591 10.014 11.298 9.44203 11.6886 9.01251C10.1914 9.1702 9.02051 10.4497 9.02051 11.9999C9.02051 13.6563 10.3573 15.0039 12.0004 15.0039C13.4622 15.0039 14.6806 13.9371 14.932 12.5355C14.5245 12.8598 14.0107 13.0539 13.4524 13.0539Z" fill="#F9893D"/>
<path d="M13.4524 9.63495C12.9019 9.63495 12.4541 10.0864 12.4541 10.6413C12.4541 11.1962 12.9019 11.6477 13.4524 11.6477C14.0029 11.6477 14.4508 11.1963 14.4508 10.6413C14.4508 10.3766 14.3481 10.1361 14.1817 9.95628C14.1711 9.94475 14.1602 9.93345 14.1493 9.92206C13.9693 9.74478 13.7235 9.63495 13.4524 9.63495Z" fill="#F9893D"/>
<path d="M19.9023 3.90955L5.09764 20.0904" stroke="#F9893D" stroke-width="2" stroke-linecap="round"/>
</svg>
