<svg width="1280" height="6748" viewBox="0 0 1280 6748" fill="none" xmlns="http://www.w3.org/2000/svg">
<g clip-path="url(#clip0_73_3388)">
<rect width="1280" height="6748" fill="#1A1A1A"/>
<g clip-path="url(#clip1_73_3388)">
<g opacity="0.46">
<path d="M196.1 4461.91C184.773 4461.91 175.506 4458.82 168.297 4452.64C161.089 4446.46 158 4436.68 158 4423.81V4399.1C158 4386.74 161.604 4376.96 168.297 4370.78C174.991 4364.6 184.258 4361 196.1 4361C207.942 4361 216.695 4364.09 223.903 4370.78C231.112 4377.48 234.201 4386.74 234.201 4399.1V4423.81C234.201 4436.68 230.597 4446.46 223.903 4452.64C217.21 4458.82 207.428 4461.91 196.1 4461.91ZM196.1 4445.95C203.309 4445.95 207.942 4443.89 211.547 4440.29C214.636 4436.68 216.695 4431.02 216.695 4423.81V4398.07C216.695 4390.86 214.636 4385.71 211.032 4382.11C207.428 4378.5 202.279 4376.45 196.1 4376.45C189.922 4376.45 184.773 4378.5 181.169 4382.11C177.565 4385.71 176.02 4391.38 176.02 4398.07V4423.81C176.02 4431.02 177.565 4436.68 181.169 4440.29C184.258 4444.41 189.407 4445.95 196.1 4445.95Z" fill="#F9893D" fill-opacity="0.5"/>
<path opacity="0.73" d="M200.216 4606.07V4521.63H197.641L184.77 4552.52H166.234L186.314 4508.76H218.236V4606.07H200.216Z" fill="#F9893D" fill-opacity="0.5"/>
<path opacity="0.73" d="M196.1 4753.83C184.773 4753.83 175.506 4750.74 168.297 4744.56C161.089 4738.38 158 4728.6 158 4715.73V4691.02C158 4678.66 161.604 4668.88 168.297 4662.7C174.991 4656.52 184.258 4652.92 196.1 4652.92C207.942 4652.92 216.695 4656.01 223.903 4662.7C231.112 4669.39 234.201 4678.66 234.201 4691.02V4715.73C234.201 4728.6 230.597 4738.38 223.903 4744.56C216.695 4750.74 207.428 4753.83 196.1 4753.83ZM196.1 4737.87C203.309 4737.87 207.942 4735.81 211.547 4732.2C214.636 4728.6 216.695 4722.94 216.695 4715.73V4689.99C216.695 4682.78 214.636 4677.63 211.032 4674.03C207.428 4670.42 202.279 4668.36 196.1 4668.36C189.922 4668.36 184.773 4670.42 181.169 4674.03C177.565 4677.63 176.02 4683.29 176.02 4689.99V4715.73C176.02 4722.94 177.565 4728.6 181.169 4732.2C184.258 4736.32 189.407 4737.87 196.1 4737.87Z" fill="#F9893D" fill-opacity="0.5"/>
<path opacity="0.73" d="M200.216 4897.98V4813.55H197.641L184.77 4844.44H166.234L186.314 4800.68H218.236V4897.98H200.216Z" fill="#F9893D" fill-opacity="0.5"/>
<path opacity="0.73" d="M196.1 5045.75C184.773 5045.75 175.506 5042.66 168.297 5036.48C161.089 5030.3 158 5020.52 158 5007.65V4982.93C158 4970.58 161.604 4960.8 168.297 4954.62C175.506 4947.92 184.258 4944.84 196.1 4944.84C207.942 4944.84 216.695 4947.92 223.903 4954.62C230.597 4961.31 234.201 4970.58 234.201 4982.93V5007.65C234.201 5020.52 230.597 5030.3 223.903 5036.48C216.695 5042.66 207.428 5045.75 196.1 5045.75ZM196.1 5029.78C203.309 5029.78 207.942 5027.73 211.547 5024.12C214.636 5020.52 216.695 5014.85 216.695 5007.65V4981.9C216.695 4974.7 214.636 4969.55 211.032 4965.94C207.428 4962.34 202.279 4960.28 196.1 4960.28C189.922 4960.28 184.773 4962.34 181.169 4965.94C177.565 4969.55 176.02 4975.21 176.02 4981.9V5007.65C176.02 5014.85 177.565 5020.52 181.169 5024.12C184.258 5028.24 189.407 5029.78 196.1 5029.78Z" fill="#F9893D" fill-opacity="0.5"/>
<path d="M200.216 5189.9V5105.47H197.641L184.77 5136.36H166.234L186.314 5092.6H218.236V5189.9H200.216Z" fill="#F9893D" fill-opacity="0.5"/>
<path d="M196.1 5337.66C184.773 5337.66 175.506 5334.57 168.297 5328.4C161.089 5322.22 158 5312.44 158 5299.56V5274.85C158 5262.5 161.604 5252.71 168.297 5246.54C175.506 5239.84 184.258 5236.75 196.1 5236.75C207.942 5236.75 216.695 5239.84 223.903 5246.54C230.597 5253.23 234.201 5262.5 234.201 5274.85V5299.56C234.201 5312.44 230.597 5322.22 223.903 5328.4C216.695 5334.57 207.428 5337.66 196.1 5337.66ZM196.1 5321.7C203.309 5321.7 207.942 5319.64 211.547 5316.04C214.636 5312.44 216.695 5306.77 216.695 5299.56V5273.82C216.695 5266.61 214.636 5261.47 211.032 5257.86C207.428 5254.26 202.279 5252.2 196.1 5252.2C189.922 5252.2 184.773 5254.26 181.169 5257.86C177.565 5261.47 176.02 5267.13 176.02 5273.82V5299.56C176.02 5306.77 177.565 5312.44 181.169 5316.04C184.258 5320.16 189.407 5321.7 196.1 5321.7Z" fill="#F9893D" fill-opacity="0.5"/>
<path opacity="0.78" d="M200.216 5481.82V5397.39H197.641L184.77 5428.28H166.234L186.314 5384.51H218.236V5481.82H200.216Z" fill="#F9893D" fill-opacity="0.5"/>
<path opacity="0.78" d="M196.1 5629.58C184.773 5629.58 175.506 5626.49 168.297 5620.31C161.089 5614.14 158 5604.35 158 5591.48V5566.77C158 5554.41 161.604 5544.63 168.297 5538.45C174.991 5532.28 184.258 5528.67 196.1 5528.67C207.942 5528.67 216.695 5531.76 223.903 5538.45C231.112 5545.15 234.201 5554.41 234.201 5566.77V5591.48C234.201 5604.35 230.597 5614.14 223.903 5620.31C216.695 5626.49 207.428 5629.58 196.1 5629.58ZM196.1 5613.62C203.309 5613.62 207.942 5611.56 211.547 5607.96C214.636 5604.35 216.695 5598.69 216.695 5591.48V5565.74C216.695 5558.53 214.636 5553.38 211.032 5549.78C207.428 5546.18 202.279 5544.12 196.1 5544.12C189.922 5544.12 184.773 5546.18 181.169 5549.78C177.565 5553.38 176.02 5559.05 176.02 5565.74V5591.48C176.02 5598.69 177.565 5604.35 181.169 5607.96C184.258 5612.08 189.407 5613.62 196.1 5613.62Z" fill="#F9893D" fill-opacity="0.5"/>
<path opacity="0.78" d="M200.216 5773.74V5689.3H197.641L184.77 5720.19H166.234L186.314 5676.43H218.236V5773.74H200.216Z" fill="#F9893D" fill-opacity="0.5"/>
<path opacity="0.78" d="M196.1 5921.5C184.773 5921.5 175.506 5918.41 168.297 5912.23C161.089 5906.05 158 5896.27 158 5883.4V5858.69C158 5846.33 161.604 5836.55 168.297 5830.37C174.991 5824.19 184.258 5820.59 196.1 5820.59C207.942 5820.59 216.695 5823.68 223.903 5830.37C231.112 5837.06 234.201 5846.33 234.201 5858.69V5883.4C234.201 5896.27 230.597 5906.05 223.903 5912.23C217.21 5918.41 207.428 5921.5 196.1 5921.5ZM196.1 5905.54C203.309 5905.54 207.942 5903.48 211.547 5899.88C214.636 5896.27 216.695 5890.61 216.695 5883.4V5857.66C216.695 5850.45 214.636 5845.3 211.032 5841.7C207.428 5838.09 202.279 5836.03 196.1 5836.03C189.922 5836.03 184.773 5838.09 181.169 5841.7C177.565 5845.3 176.02 5850.96 176.02 5857.66V5883.4C176.02 5890.61 177.565 5896.27 181.169 5899.88C184.258 5903.99 189.407 5905.54 196.1 5905.54Z" fill="#F9893D" fill-opacity="0.5"/>
<path d="M200.216 6065.66V5981.22H197.641L184.77 6012.11H166.234L186.314 5968.35H218.236V6065.66H200.216Z" fill="#F9893D" fill-opacity="0.5"/>
<path d="M200.216 6211.36V6126.92H197.641L184.77 6157.81H166.234L186.314 6114.05H218.236V6211.36H200.216Z" fill="#F9893D" fill-opacity="0.5"/>
<path d="M200.216 6357.57V6273.14H197.641L184.77 6304.03H166.234L186.314 6260.27H218.236V6357.57H200.216Z" fill="#F9893D" fill-opacity="0.5"/>
<path d="M196.1 6505.33C184.773 6505.33 175.506 6502.25 168.297 6496.07C161.089 6489.89 158 6480.11 158 6467.24V6442.52C158 6430.17 161.604 6420.38 168.297 6414.21C175.506 6407.51 184.258 6404.42 196.1 6404.42C207.942 6404.42 216.695 6407.51 223.903 6414.21C230.597 6420.9 234.201 6430.17 234.201 6442.52V6467.24C234.201 6480.11 230.597 6489.89 223.903 6496.07C216.695 6502.25 207.428 6505.33 196.1 6505.33ZM196.1 6489.37C203.309 6489.37 207.942 6487.31 211.547 6483.71C214.636 6480.11 216.695 6474.44 216.695 6467.24V6441.49C216.695 6434.29 214.636 6429.14 211.032 6425.53C207.428 6421.93 202.279 6419.87 196.1 6419.87C189.922 6419.87 184.773 6421.93 181.169 6425.53C177.565 6429.14 176.02 6434.8 176.02 6441.49V6467.24C176.02 6474.44 177.565 6480.11 181.169 6483.71C184.258 6487.83 189.407 6489.37 196.1 6489.37Z" fill="#F9893D" fill-opacity="0.5"/>
<path d="M196.1 6651.55C184.773 6651.55 175.506 6648.46 168.297 6642.28C161.089 6636.1 158 6626.32 158 6613.45V6588.74C158 6576.38 161.604 6566.6 168.297 6560.42C174.991 6554.24 184.258 6550.64 196.1 6550.64C207.942 6550.64 216.695 6553.73 223.903 6560.42C231.112 6567.12 234.201 6576.38 234.201 6588.74V6613.45C234.201 6626.32 230.597 6636.1 223.903 6642.28C217.21 6648.46 207.428 6651.55 196.1 6651.55ZM196.1 6635.59C203.309 6635.59 207.942 6633.53 211.547 6629.93C214.636 6626.32 216.695 6620.66 216.695 6613.45V6587.71C216.695 6580.5 214.636 6575.35 211.032 6571.75C207.428 6568.15 202.279 6566.09 196.1 6566.09C189.922 6566.09 184.773 6568.15 181.169 6571.75C177.565 6575.35 176.02 6581.02 176.02 6587.71V6613.45C176.02 6620.66 177.565 6626.32 181.169 6629.93C184.258 6633.53 189.407 6635.59 196.1 6635.59Z" fill="#F9893D" fill-opacity="0.5"/>
<path d="M200.216 6795.19V6710.76H197.641L184.77 6741.65H166.234L186.314 6697.89H218.236V6795.19H200.216Z" fill="#F9893D" fill-opacity="0.5"/>
</g>
<g opacity="0.46">
<path d="M372.304 3739.91C360.976 3739.91 351.709 3736.82 344.501 3730.64C337.292 3724.46 334.203 3714.68 334.203 3701.81V3677.1C334.203 3664.74 337.807 3654.96 344.501 3648.78C351.194 3642.6 360.462 3639 372.304 3639C384.146 3639 392.898 3642.09 400.107 3648.78C407.315 3655.48 410.404 3664.74 410.404 3677.1V3701.81C410.404 3714.68 406.8 3724.46 400.107 3730.64C393.413 3736.82 383.631 3739.91 372.304 3739.91ZM372.304 3723.95C379.512 3723.95 384.146 3721.89 387.75 3718.29C390.839 3714.68 392.898 3709.02 392.898 3701.81V3676.07C392.898 3668.86 390.839 3663.71 387.235 3660.11C383.631 3656.5 378.482 3654.45 372.304 3654.45C366.125 3654.45 360.976 3656.5 357.372 3660.11C353.768 3663.71 352.224 3669.38 352.224 3676.07V3701.81C352.224 3709.02 353.768 3714.68 357.372 3718.29C360.462 3722.41 365.61 3723.95 372.304 3723.95Z" fill="#F9893D" fill-opacity="0.5"/>
<path opacity="0.73" d="M376.419 3884.07V3799.63H373.845L360.973 3830.52H342.438L362.517 3786.76H394.439V3884.07H376.419Z" fill="#F9893D" fill-opacity="0.5"/>
<path opacity="0.73" d="M372.304 4031.83C360.976 4031.83 351.709 4028.74 344.501 4022.56C337.292 4016.38 334.203 4006.6 334.203 3993.73V3969.02C334.203 3956.66 337.807 3946.88 344.501 3940.7C351.194 3934.52 360.462 3930.92 372.304 3930.92C384.146 3930.92 392.898 3934.01 400.107 3940.7C407.315 3947.39 410.404 3956.66 410.404 3969.02V3993.73C410.404 4006.6 406.8 4016.38 400.107 4022.56C392.898 4028.74 383.631 4031.83 372.304 4031.83ZM372.304 4015.87C379.512 4015.87 384.146 4013.81 387.75 4010.2C390.839 4006.6 392.898 4000.94 392.898 3993.73V3967.99C392.898 3960.78 390.839 3955.63 387.235 3952.03C383.631 3948.42 378.482 3946.36 372.304 3946.36C366.125 3946.36 360.976 3948.42 357.372 3952.03C353.768 3955.63 352.224 3961.29 352.224 3967.99V3993.73C352.224 4000.94 353.768 4006.6 357.372 4010.2C360.462 4014.32 365.61 4015.87 372.304 4015.87Z" fill="#F9893D" fill-opacity="0.5"/>
<path opacity="0.73" d="M376.419 4175.98V4091.55H373.845L360.973 4122.44H342.438L362.517 4078.68H394.439V4175.98H376.419Z" fill="#F9893D" fill-opacity="0.5"/>
<path opacity="0.73" d="M372.304 4323.75C360.976 4323.75 351.709 4320.66 344.501 4314.48C337.292 4308.3 334.203 4298.52 334.203 4285.65V4260.93C334.203 4248.58 337.807 4238.8 344.501 4232.62C351.709 4225.92 360.462 4222.84 372.304 4222.84C384.146 4222.84 392.898 4225.92 400.107 4232.62C406.8 4239.31 410.404 4248.58 410.404 4260.93V4285.65C410.404 4298.52 406.8 4308.3 400.107 4314.48C392.898 4320.66 383.631 4323.75 372.304 4323.75ZM372.304 4307.78C379.512 4307.78 384.146 4305.73 387.75 4302.12C390.839 4298.52 392.898 4292.85 392.898 4285.65V4259.9C392.898 4252.7 390.839 4247.55 387.235 4243.94C383.631 4240.34 378.482 4238.28 372.304 4238.28C366.125 4238.28 360.976 4240.34 357.372 4243.94C353.768 4247.55 352.224 4253.21 352.224 4259.9V4285.65C352.224 4292.85 353.768 4298.52 357.372 4302.12C360.462 4306.24 365.61 4307.78 372.304 4307.78Z" fill="#F9893D" fill-opacity="0.5"/>
<path d="M376.419 4467.9V4383.47H373.845L360.973 4414.36H342.438L362.517 4370.6H394.439V4467.9H376.419Z" fill="#F9893D" fill-opacity="0.5"/>
<path d="M372.304 4615.66C360.976 4615.66 351.709 4612.57 344.501 4606.4C337.292 4600.22 334.203 4590.44 334.203 4577.56V4552.85C334.203 4540.5 337.807 4530.71 344.501 4524.54C351.709 4517.84 360.462 4514.75 372.304 4514.75C384.146 4514.75 392.898 4517.84 400.107 4524.54C406.8 4531.23 410.404 4540.5 410.404 4552.85V4577.56C410.404 4590.44 406.8 4600.22 400.107 4606.4C392.898 4612.57 383.631 4615.66 372.304 4615.66ZM372.304 4599.7C379.512 4599.7 384.146 4597.64 387.75 4594.04C390.839 4590.44 392.898 4584.77 392.898 4577.56V4551.82C392.898 4544.61 390.839 4539.47 387.235 4535.86C383.631 4532.26 378.482 4530.2 372.304 4530.2C366.125 4530.2 360.976 4532.26 357.372 4535.86C353.768 4539.47 352.224 4545.13 352.224 4551.82V4577.56C352.224 4584.77 353.768 4590.44 357.372 4594.04C360.462 4598.16 365.61 4599.7 372.304 4599.7Z" fill="#F9893D" fill-opacity="0.5"/>
<path opacity="0.78" d="M376.419 4759.82V4675.39H373.845L360.973 4706.28H342.438L362.517 4662.51H394.439V4759.82H376.419Z" fill="#F9893D" fill-opacity="0.5"/>
<path opacity="0.78" d="M372.304 4907.58C360.976 4907.58 351.709 4904.49 344.501 4898.31C337.292 4892.14 334.203 4882.35 334.203 4869.48V4844.77C334.203 4832.41 337.807 4822.63 344.501 4816.45C351.194 4810.28 360.462 4806.67 372.304 4806.67C384.146 4806.67 392.898 4809.76 400.107 4816.45C407.315 4823.15 410.404 4832.41 410.404 4844.77V4869.48C410.404 4882.35 406.8 4892.14 400.107 4898.31C392.898 4904.49 383.631 4907.58 372.304 4907.58ZM372.304 4891.62C379.512 4891.62 384.146 4889.56 387.75 4885.96C390.839 4882.35 392.898 4876.69 392.898 4869.48V4843.74C392.898 4836.53 390.839 4831.38 387.235 4827.78C383.631 4824.18 378.482 4822.12 372.304 4822.12C366.125 4822.12 360.976 4824.18 357.372 4827.78C353.768 4831.38 352.224 4837.05 352.224 4843.74V4869.48C352.224 4876.69 353.768 4882.35 357.372 4885.96C360.462 4890.08 365.61 4891.62 372.304 4891.62Z" fill="#F9893D" fill-opacity="0.5"/>
<path opacity="0.78" d="M376.419 5051.74V4967.3H373.845L360.973 4998.19H342.438L362.517 4954.43H394.439V5051.74H376.419Z" fill="#F9893D" fill-opacity="0.5"/>
<path opacity="0.78" d="M372.304 5199.5C360.976 5199.5 351.709 5196.41 344.501 5190.23C337.292 5184.05 334.203 5174.27 334.203 5161.4V5136.69C334.203 5124.33 337.807 5114.55 344.501 5108.37C351.194 5102.19 360.462 5098.59 372.304 5098.59C384.146 5098.59 392.898 5101.68 400.107 5108.37C407.315 5115.06 410.404 5124.33 410.404 5136.69V5161.4C410.404 5174.27 406.8 5184.05 400.107 5190.23C393.413 5196.41 383.631 5199.5 372.304 5199.5ZM372.304 5183.54C379.512 5183.54 384.146 5181.48 387.75 5177.88C390.839 5174.27 392.898 5168.61 392.898 5161.4V5135.66C392.898 5128.45 390.839 5123.3 387.235 5119.7C383.631 5116.09 378.482 5114.03 372.304 5114.03C366.125 5114.03 360.976 5116.09 357.372 5119.7C353.768 5123.3 352.224 5128.96 352.224 5135.66V5161.4C352.224 5168.61 353.768 5174.27 357.372 5177.88C360.462 5181.99 365.61 5183.54 372.304 5183.54Z" fill="#F9893D" fill-opacity="0.5"/>
<path d="M376.419 5343.66V5259.22H373.845L360.973 5290.11H342.438L362.517 5246.35H394.439V5343.66H376.419Z" fill="#F9893D" fill-opacity="0.5"/>
<path d="M376.419 5489.36V5404.92H373.845L360.973 5435.81H342.438L362.517 5392.05H394.439V5489.36H376.419Z" fill="#F9893D" fill-opacity="0.5"/>
<path d="M376.419 5635.57V5551.14H373.845L360.973 5582.03H342.438L362.517 5538.27H394.439V5635.57H376.419Z" fill="#F9893D" fill-opacity="0.5"/>
<path d="M372.304 5783.33C360.976 5783.33 351.709 5780.25 344.501 5774.07C337.292 5767.89 334.203 5758.11 334.203 5745.24V5720.52C334.203 5708.17 337.807 5698.38 344.501 5692.21C351.709 5685.51 360.462 5682.42 372.304 5682.42C384.146 5682.42 392.898 5685.51 400.107 5692.21C406.8 5698.9 410.404 5708.17 410.404 5720.52V5745.24C410.404 5758.11 406.8 5767.89 400.107 5774.07C392.898 5780.25 383.631 5783.33 372.304 5783.33ZM372.304 5767.37C379.512 5767.37 384.146 5765.31 387.75 5761.71C390.839 5758.11 392.898 5752.44 392.898 5745.24V5719.49C392.898 5712.29 390.839 5707.14 387.235 5703.53C383.631 5699.93 378.482 5697.87 372.304 5697.87C366.125 5697.87 360.976 5699.93 357.372 5703.53C353.768 5707.14 352.224 5712.8 352.224 5719.49V5745.24C352.224 5752.44 353.768 5758.11 357.372 5761.71C360.462 5765.83 365.61 5767.37 372.304 5767.37Z" fill="#F9893D" fill-opacity="0.5"/>
<path d="M372.304 5929.55C360.976 5929.55 351.709 5926.46 344.501 5920.28C337.292 5914.1 334.203 5904.32 334.203 5891.45V5866.74C334.203 5854.38 337.807 5844.6 344.501 5838.42C351.194 5832.24 360.462 5828.64 372.304 5828.64C384.146 5828.64 392.898 5831.73 400.107 5838.42C407.315 5845.12 410.404 5854.38 410.404 5866.74V5891.45C410.404 5904.32 406.8 5914.1 400.107 5920.28C393.413 5926.46 383.631 5929.55 372.304 5929.55ZM372.304 5913.59C379.512 5913.59 384.146 5911.53 387.75 5907.93C390.839 5904.32 392.898 5898.66 392.898 5891.45V5865.71C392.898 5858.5 390.839 5853.35 387.235 5849.75C383.631 5846.15 378.482 5844.09 372.304 5844.09C366.125 5844.09 360.976 5846.15 357.372 5849.75C353.768 5853.35 352.224 5859.02 352.224 5865.71V5891.45C352.224 5898.66 353.768 5904.32 357.372 5907.93C360.462 5911.53 365.61 5913.59 372.304 5913.59Z" fill="#F9893D" fill-opacity="0.5"/>
<path d="M376.419 6073.19V5988.76H373.845L360.973 6019.65H342.438L362.517 5975.89H394.439V6073.19H376.419Z" fill="#F9893D" fill-opacity="0.5"/>
</g>
<g opacity="0.18">
<path d="M350.035 83.4051V11.3266H347.976L336.648 37.5838H320.688L337.678 0H364.966V83.4051H350.035Z" fill="#F9893D" fill-opacity="0.5"/>
<path d="M346.437 209.028C336.654 209.028 328.931 206.453 322.753 200.79C316.574 195.127 314 187.404 314 176.077V155.484C314 144.672 317.089 136.949 322.753 131.286C328.416 125.623 336.654 123.048 346.437 123.048C356.219 123.048 363.942 125.623 370.121 131.286C375.784 136.949 378.874 145.187 378.874 155.484V176.077C378.874 186.889 375.784 195.127 370.121 200.79C363.942 206.453 356.219 209.028 346.437 209.028ZM346.437 195.642C352.1 195.642 356.734 194.097 359.309 191.008C361.883 187.919 363.428 183.285 363.428 177.107V154.969C363.428 148.791 361.883 144.157 358.794 141.068C355.704 137.979 351.586 136.434 346.437 136.434C340.773 136.434 336.654 137.979 333.565 141.068C330.476 144.157 328.931 148.791 328.931 154.454V176.592C328.931 182.77 330.476 187.404 333.05 190.493C336.139 194.097 340.773 195.642 346.437 195.642Z" fill="#F9893D" fill-opacity="0.5"/>
<path d="M350.035 332.076V259.998H347.976L336.648 286.255H320.688L337.678 248.671H364.966V331.561H350.035V332.076Z" fill="#F9893D" fill-opacity="0.5"/>
<path d="M350.035 456.154V384.59H347.976L336.648 410.847H320.688L337.678 373.264H364.966V456.154H350.035Z" fill="#F9893D" fill-opacity="0.5"/>
<path d="M350.035 580.747V508.668H347.976L336.648 534.925H320.688L338.193 497.856H365.481V580.747H350.035Z" fill="#F9893D" fill-opacity="0.5"/>
<path d="M346.437 706.369C336.654 706.369 328.931 703.795 322.753 698.131C316.574 692.468 314 684.745 314 673.419V652.825C314 642.013 317.089 634.29 322.753 628.627C328.416 622.964 336.654 620.39 346.437 620.39C356.219 620.39 363.942 622.964 370.121 628.627C375.784 634.29 378.874 642.528 378.874 652.825V673.419C378.874 684.231 375.784 692.468 370.121 698.131C363.942 703.795 356.219 706.369 346.437 706.369ZM346.437 692.983C352.1 692.983 356.734 691.438 359.309 688.349C361.883 685.26 363.428 680.627 363.428 674.448V652.31C363.428 646.132 361.883 641.498 358.794 638.409C355.704 635.32 351.586 633.776 346.437 633.776C340.773 633.776 336.654 635.32 333.565 638.409C330.476 641.498 328.931 646.132 328.931 651.795V673.934C328.931 680.112 330.476 684.745 333.05 687.834C336.139 691.438 340.773 692.983 346.437 692.983Z" fill="#F9893D" fill-opacity="0.5"/>
<path d="M346.437 830.962C336.654 830.962 328.931 828.388 322.753 822.724C316.574 817.061 314 809.338 314 798.012V777.418C314 766.606 317.089 758.883 322.753 753.22C328.416 747.557 336.654 744.982 346.437 744.982C356.219 744.982 363.942 747.557 370.121 753.22C375.784 758.883 378.874 767.121 378.874 777.418V798.012C378.874 808.823 375.784 817.061 370.121 822.724C363.942 828.388 356.219 830.962 346.437 830.962ZM346.437 817.576C352.1 817.576 356.734 816.031 359.309 812.942C361.883 809.853 363.428 805.219 363.428 799.041V776.903C363.428 770.725 361.883 766.091 358.794 763.002C355.704 759.913 351.586 758.368 346.437 758.368C340.773 758.368 336.654 759.913 333.565 763.002C330.476 766.091 328.931 770.725 328.931 776.388V798.526C328.931 804.705 330.476 809.338 333.05 812.427C336.139 816.031 340.773 817.576 346.437 817.576Z" fill="#F9893D" fill-opacity="0.5"/>
<path d="M350.035 953.495V881.931H347.976L336.648 908.188H320.688L337.678 870.604H364.966V953.495H350.035Z" fill="#F9893D" fill-opacity="0.5"/>
<path d="M346.437 1079.63C336.654 1079.63 328.931 1077.06 322.753 1071.4C316.574 1065.73 314 1058.01 314 1046.68V1026.09C314 1015.28 317.089 1007.55 322.753 1001.89C328.416 996.228 336.654 993.653 346.437 993.653C356.219 993.653 363.942 996.228 370.121 1001.89C375.784 1007.55 378.874 1015.79 378.874 1026.09V1046.68C378.874 1057.49 375.784 1065.73 370.121 1071.4C363.942 1077.06 356.219 1079.63 346.437 1079.63ZM346.437 1066.25C352.1 1066.25 356.734 1064.7 359.309 1061.61C361.883 1058.52 363.428 1053.89 363.428 1047.71V1025.57C363.428 1019.4 361.883 1014.76 358.794 1011.67C355.704 1008.58 351.586 1007.04 346.437 1007.04C340.773 1007.04 336.654 1008.58 333.565 1011.67C330.476 1014.76 328.931 1019.4 328.931 1025.06V1047.2C328.931 1053.38 330.476 1058.01 333.05 1061.1C336.139 1064.7 340.773 1066.25 346.437 1066.25Z" fill="#F9893D" fill-opacity="0.5"/>
<path opacity="0.78" d="M350.035 1202.17V1130.6H347.976L336.648 1156.86H320.688L337.678 1119.28H364.966V1202.17H350.035Z" fill="#F9893D" fill-opacity="0.5"/>
<path opacity="0.78" d="M346.437 1328.3C336.654 1328.3 328.931 1325.73 322.753 1320.07C316.574 1314.4 314 1306.68 314 1295.35V1274.76C314 1263.95 317.089 1256.22 322.753 1250.56C328.416 1244.9 336.654 1242.32 346.437 1242.32C356.219 1242.32 363.942 1244.9 370.121 1250.56C375.784 1256.22 378.874 1264.46 378.874 1274.76V1295.35C378.874 1306.16 375.784 1314.4 370.121 1320.07C363.942 1325.73 356.219 1328.3 346.437 1328.3ZM346.437 1314.92C352.1 1314.92 356.734 1313.37 359.309 1310.28C361.883 1307.19 363.428 1302.56 363.428 1296.38V1274.24C363.428 1268.07 361.883 1263.43 358.794 1260.34C355.704 1257.25 351.586 1255.71 346.437 1255.71C340.773 1255.71 336.654 1257.25 333.565 1260.34C330.476 1263.43 328.931 1268.07 328.931 1273.73V1295.87C328.931 1302.05 330.476 1306.68 333.05 1309.77C336.139 1313.37 340.773 1314.92 346.437 1314.92Z" fill="#F9893D" fill-opacity="0.5"/>
<path opacity="0.78" d="M346.437 1452.38C336.654 1452.38 328.931 1449.81 322.753 1444.14C316.574 1438.48 314 1430.76 314 1419.43V1398.84C314 1388.02 317.089 1380.3 322.753 1374.64C328.416 1368.98 336.654 1366.4 346.437 1366.4C356.219 1366.4 363.942 1368.98 370.121 1374.64C375.784 1380.3 378.874 1388.54 378.874 1398.84V1419.43C378.874 1430.24 375.784 1438.48 370.121 1444.14C363.942 1449.81 356.219 1452.38 346.437 1452.38ZM346.437 1438.99C352.1 1438.99 356.734 1437.45 359.309 1434.36C361.883 1431.27 363.428 1426.64 363.428 1420.46V1398.32C363.428 1392.14 361.883 1387.51 358.794 1384.42C355.704 1381.33 351.586 1379.79 346.437 1379.79C340.773 1379.79 336.654 1381.33 333.565 1384.42C330.476 1387.51 328.931 1392.14 328.931 1397.81V1419.95C328.931 1426.12 330.476 1430.76 333.05 1433.85C336.139 1437.45 340.773 1438.99 346.437 1438.99Z" fill="#F9893D" fill-opacity="0.5"/>
<path d="M350.035 1575.43V1503.87H347.976L336.648 1530.12H320.688L337.678 1492.54H364.966V1575.43H350.035Z" fill="#F9893D" fill-opacity="0.5"/>
<path d="M346.437 1701.05C336.654 1701.05 328.931 1698.48 322.753 1692.81C316.574 1687.15 314 1679.43 314 1668.1V1647.51C314 1636.7 317.089 1628.97 322.753 1623.31C328.416 1617.65 336.654 1615.07 346.437 1615.07C356.219 1615.07 363.942 1617.65 370.121 1623.31C375.784 1628.97 378.874 1637.21 378.874 1647.51V1668.1C378.874 1678.91 375.784 1687.15 370.121 1692.81C363.942 1698.48 356.219 1701.05 346.437 1701.05ZM346.437 1687.67C352.1 1687.67 356.734 1686.12 359.309 1683.03C361.883 1679.94 363.428 1675.31 363.428 1669.13V1646.99C363.428 1640.81 361.883 1636.18 358.794 1633.09C355.704 1630 351.586 1628.46 346.437 1628.46C340.773 1628.46 336.654 1630 333.565 1633.09C330.476 1636.18 328.931 1640.81 328.931 1646.48V1668.62C328.931 1674.79 330.476 1679.43 333.05 1682.52C336.139 1686.12 340.773 1687.67 346.437 1687.67Z" fill="#F9893D" fill-opacity="0.5"/>
<path d="M350.035 1824.1V1752.54H347.976L336.648 1778.79H320.688L337.678 1741.21H364.966V1824.1H350.035Z" fill="#F9893D" fill-opacity="0.5"/>
<path d="M346.437 1949.72C336.654 1949.72 328.931 1947.15 322.753 1941.48C316.574 1935.82 314 1928.1 314 1916.77V1896.18C314 1885.37 317.089 1877.64 322.753 1871.98C328.416 1866.32 336.654 1863.74 346.437 1863.74C356.219 1863.74 363.942 1866.32 370.121 1871.98C375.784 1877.64 378.874 1885.88 378.874 1896.18V1916.77C378.874 1927.58 375.784 1935.82 370.121 1941.48C363.942 1947.15 356.219 1949.72 346.437 1949.72ZM346.437 1936.34C352.1 1936.34 356.734 1934.79 359.309 1931.7C361.883 1928.61 363.428 1923.98 363.428 1917.8V1895.66C363.428 1889.49 361.883 1884.85 358.794 1881.76C355.704 1878.67 351.586 1877.13 346.437 1877.13C340.773 1877.13 336.654 1878.67 333.565 1881.76C330.476 1884.85 328.931 1889.49 328.931 1895.15V1917.29C328.931 1923.47 330.476 1928.1 333.05 1931.19C336.139 1934.79 340.773 1936.34 346.437 1936.34Z" fill="#F9893D" fill-opacity="0.5"/>
<path d="M350.035 2072.77V2001.21H347.976L336.648 2027.46H320.688L337.678 1989.88H364.966V2072.77H350.035Z" fill="#F9893D" fill-opacity="0.5"/>
<path d="M346.437 2198.39C336.654 2198.39 328.931 2195.82 322.753 2190.16C316.574 2184.49 314 2176.77 314 2165.44V2144.85C314 2134.04 317.089 2126.31 322.753 2120.65C328.416 2114.99 336.654 2112.41 346.437 2112.41C356.219 2112.41 363.942 2114.99 370.121 2120.65C375.784 2126.31 378.874 2134.55 378.874 2144.85V2165.44C378.874 2176.25 375.784 2184.49 370.121 2190.16C363.942 2195.82 356.219 2198.39 346.437 2198.39ZM346.437 2185.01C352.1 2185.01 356.734 2183.46 359.309 2180.37C361.883 2177.28 363.428 2172.65 363.428 2166.47V2144.33C363.428 2138.16 361.883 2133.52 358.794 2130.43C355.704 2127.34 351.586 2125.8 346.437 2125.8C340.773 2125.8 336.654 2127.34 333.565 2130.43C330.476 2133.52 328.931 2138.16 328.931 2143.82V2165.96C328.931 2172.14 330.476 2176.77 333.05 2179.86C336.139 2183.46 340.773 2185.01 346.437 2185.01Z" fill="#F9893D" fill-opacity="0.5"/>
<path d="M350.035 2321.44V2249.88H347.976L336.648 2276.13H320.688L337.678 2238.55H364.966V2321.44H350.035Z" fill="#F9893D" fill-opacity="0.5"/>
</g>
<g opacity="0.18">
<path d="M1102.4 164.048V105.241H1100.72L1091.48 126.664H1078.46L1092.32 96H1114.59V164.048H1102.4Z" fill="#F9893D" fill-opacity="0.5"/>
<path d="M1099.46 266.54C1091.48 266.54 1085.18 264.439 1080.14 259.819C1075.1 255.198 1073 248.898 1073 239.657V222.855C1073 214.034 1075.52 207.733 1080.14 203.112C1084.76 198.492 1091.48 196.392 1099.46 196.392C1107.45 196.392 1113.75 198.492 1118.79 203.112C1123.41 207.733 1125.93 214.454 1125.93 222.855V239.657C1125.93 248.478 1123.41 255.198 1118.79 259.819C1113.75 264.439 1107.45 266.54 1099.46 266.54ZM1099.46 255.618C1104.09 255.618 1107.87 254.358 1109.97 251.838C1112.07 249.318 1113.33 245.537 1113.33 240.497V222.435C1113.33 217.394 1112.07 213.614 1109.55 211.093C1107.03 208.573 1103.67 207.313 1099.46 207.313C1094.84 207.313 1091.48 208.573 1088.96 211.093C1086.44 213.614 1085.18 217.394 1085.18 222.015V240.077C1085.18 245.117 1086.44 248.898 1088.54 251.418C1091.06 254.358 1094.84 255.618 1099.46 255.618Z" fill="#F9893D" fill-opacity="0.5"/>
<path d="M1102.4 366.931V308.124H1100.72L1091.48 329.547H1078.46L1092.32 298.883H1114.59V366.511H1102.4V366.931Z" fill="#F9893D" fill-opacity="0.5"/>
<path d="M1102.4 468.163V409.776H1100.72L1091.48 431.199H1078.46L1092.32 400.535H1114.59V468.163H1102.4Z" fill="#F9893D" fill-opacity="0.5"/>
<path d="M1102.4 569.815V511.008H1100.72L1091.48 532.431H1078.46L1092.74 502.187H1115.01V569.815H1102.4Z" fill="#F9893D" fill-opacity="0.5"/>
<path d="M1099.46 672.307C1091.48 672.307 1085.18 670.207 1080.14 665.586C1075.1 660.966 1073 654.665 1073 645.424V628.622C1073 619.801 1075.52 613.5 1080.14 608.879C1084.76 604.259 1091.48 602.159 1099.46 602.159C1107.45 602.159 1113.75 604.259 1118.79 608.879C1123.41 613.5 1125.93 620.221 1125.93 628.622V645.424C1125.93 654.245 1123.41 660.966 1118.79 665.586C1113.75 670.207 1107.45 672.307 1099.46 672.307ZM1099.46 661.386C1104.09 661.386 1107.87 660.125 1109.97 657.605C1112.07 655.085 1113.33 651.304 1113.33 646.264V628.202C1113.33 623.161 1112.07 619.381 1109.55 616.86C1107.03 614.34 1103.67 613.08 1099.46 613.08C1094.84 613.08 1091.48 614.34 1088.96 616.86C1086.44 619.381 1085.18 623.161 1085.18 627.782V645.844C1085.18 650.884 1086.44 654.665 1088.54 657.185C1091.06 660.125 1094.84 661.386 1099.46 661.386Z" fill="#F9893D" fill-opacity="0.5"/>
<path d="M1099.46 773.959C1091.48 773.959 1085.18 771.858 1080.14 767.238C1075.1 762.617 1073 756.317 1073 747.076V730.274C1073 721.453 1075.52 715.152 1080.14 710.531C1084.76 705.911 1091.48 703.811 1099.46 703.811C1107.45 703.811 1113.75 705.911 1118.79 710.531C1123.41 715.152 1125.93 721.873 1125.93 730.274V747.076C1125.93 755.897 1123.41 762.617 1118.79 767.238C1113.75 771.858 1107.45 773.959 1099.46 773.959ZM1099.46 763.037C1104.09 763.037 1107.87 761.777 1109.97 759.257C1112.07 756.737 1113.33 752.956 1113.33 747.916V729.854C1113.33 724.813 1112.07 721.033 1109.55 718.512C1107.03 715.992 1103.67 714.732 1099.46 714.732C1094.84 714.732 1091.48 715.992 1088.96 718.512C1086.44 721.033 1085.18 724.813 1085.18 729.434V747.496C1085.18 752.536 1086.44 756.317 1088.54 758.837C1091.06 761.777 1094.84 763.037 1099.46 763.037Z" fill="#F9893D" fill-opacity="0.5"/>
<path d="M1102.4 873.93V815.543H1100.72L1091.48 836.966H1078.46L1092.32 806.302H1114.59V873.93H1102.4Z" fill="#F9893D" fill-opacity="0.5"/>
<path d="M1099.46 976.842C1091.48 976.842 1085.18 974.742 1080.14 970.122C1075.1 965.501 1073 959.2 1073 949.959V933.157C1073 924.336 1075.52 918.036 1080.14 913.415C1084.76 908.795 1091.48 906.694 1099.46 906.694C1107.45 906.694 1113.75 908.795 1118.79 913.415C1123.41 918.036 1125.93 924.756 1125.93 933.157V949.959C1125.93 958.78 1123.41 965.501 1118.79 970.122C1113.75 974.742 1107.45 976.842 1099.46 976.842ZM1099.46 965.921C1104.09 965.921 1107.87 964.661 1109.97 962.141C1112.07 959.62 1113.33 955.84 1113.33 950.799V932.737C1113.33 927.697 1112.07 923.916 1109.55 921.396C1107.03 918.876 1103.67 917.616 1099.46 917.616C1094.84 917.616 1091.48 918.876 1088.96 921.396C1086.44 923.916 1085.18 927.697 1085.18 932.317V950.379C1085.18 955.42 1086.44 959.2 1088.54 961.721C1091.06 964.661 1094.84 965.921 1099.46 965.921Z" fill="#F9893D" fill-opacity="0.5"/>
<path opacity="0.78" d="M1102.4 1076.81V1018.43H1100.72L1091.48 1039.85H1078.46L1092.32 1009.19H1114.59V1076.81H1102.4Z" fill="#F9893D" fill-opacity="0.5"/>
<path opacity="0.78" d="M1099.46 1179.73C1091.48 1179.73 1085.18 1177.63 1080.14 1173C1075.1 1168.38 1073 1162.08 1073 1152.84V1136.04C1073 1127.22 1075.52 1120.92 1080.14 1116.3C1084.76 1111.68 1091.48 1109.58 1099.46 1109.58C1107.45 1109.58 1113.75 1111.68 1118.79 1116.3C1123.41 1120.92 1125.93 1127.64 1125.93 1136.04V1152.84C1125.93 1161.66 1123.41 1168.38 1118.79 1173C1113.75 1177.63 1107.45 1179.73 1099.46 1179.73ZM1099.46 1168.8C1104.09 1168.8 1107.87 1167.54 1109.97 1165.02C1112.07 1162.5 1113.33 1158.72 1113.33 1153.68V1135.62C1113.33 1130.58 1112.07 1126.8 1109.55 1124.28C1107.03 1121.76 1103.67 1120.5 1099.46 1120.5C1094.84 1120.5 1091.48 1121.76 1088.96 1124.28C1086.44 1126.8 1085.18 1130.58 1085.18 1135.2V1153.26C1085.18 1158.3 1086.44 1162.08 1088.54 1164.6C1091.06 1167.54 1094.84 1168.8 1099.46 1168.8Z" fill="#F9893D" fill-opacity="0.5"/>
<path opacity="0.78" d="M1099.46 1280.96C1091.48 1280.96 1085.18 1278.86 1080.14 1274.24C1075.1 1269.62 1073 1263.32 1073 1254.07V1237.27C1073 1228.45 1075.52 1222.15 1080.14 1217.53C1084.76 1212.91 1091.48 1210.81 1099.46 1210.81C1107.45 1210.81 1113.75 1212.91 1118.79 1217.53C1123.41 1222.15 1125.93 1228.87 1125.93 1237.27V1254.07C1125.93 1262.9 1123.41 1269.62 1118.79 1274.24C1113.75 1278.86 1107.45 1280.96 1099.46 1280.96ZM1099.46 1270.04C1104.09 1270.04 1107.87 1268.78 1109.97 1266.26C1112.07 1263.74 1113.33 1259.96 1113.33 1254.91V1236.85C1113.33 1231.81 1112.07 1228.03 1109.55 1225.51C1107.03 1222.99 1103.67 1221.73 1099.46 1221.73C1094.84 1221.73 1091.48 1222.99 1088.96 1225.51C1086.44 1228.03 1085.18 1231.81 1085.18 1236.43V1254.49C1085.18 1259.54 1086.44 1263.32 1088.54 1265.84C1091.06 1268.78 1094.84 1270.04 1099.46 1270.04Z" fill="#F9893D" fill-opacity="0.5"/>
<path d="M1102.4 1381.35V1322.96H1100.72L1091.48 1344.39H1078.46L1092.32 1313.72H1114.59V1381.35H1102.4Z" fill="#F9893D" fill-opacity="0.5"/>
<path d="M1099.46 1483.84C1091.48 1483.84 1085.18 1481.74 1080.14 1477.12C1075.1 1472.5 1073 1466.2 1073 1456.96V1440.16C1073 1431.33 1075.52 1425.03 1080.14 1420.41C1084.76 1415.79 1091.48 1413.69 1099.46 1413.69C1107.45 1413.69 1113.75 1415.79 1118.79 1420.41C1123.41 1425.03 1125.93 1431.75 1125.93 1440.16V1456.96C1125.93 1465.78 1123.41 1472.5 1118.79 1477.12C1113.75 1481.74 1107.45 1483.84 1099.46 1483.84ZM1099.46 1472.92C1104.09 1472.92 1107.87 1471.66 1109.97 1469.14C1112.07 1466.62 1113.33 1462.84 1113.33 1457.8V1439.74C1113.33 1434.7 1112.07 1430.91 1109.55 1428.39C1107.03 1425.87 1103.67 1424.61 1099.46 1424.61C1094.84 1424.61 1091.48 1425.87 1088.96 1428.39C1086.44 1430.91 1085.18 1434.7 1085.18 1439.32V1457.38C1085.18 1462.42 1086.44 1466.2 1088.54 1468.72C1091.06 1471.66 1094.84 1472.92 1099.46 1472.92Z" fill="#F9893D" fill-opacity="0.5"/>
<path d="M1102.4 1584.23V1525.85H1100.72L1091.48 1547.27H1078.46L1092.32 1516.6H1114.59V1584.23H1102.4Z" fill="#F9893D" fill-opacity="0.5"/>
<path d="M1099.46 1686.72C1091.48 1686.72 1085.18 1684.62 1080.14 1680C1075.1 1675.38 1073 1669.08 1073 1659.84V1643.04C1073 1634.22 1075.52 1627.92 1080.14 1623.3C1084.76 1618.68 1091.48 1616.58 1099.46 1616.58C1107.45 1616.58 1113.75 1618.68 1118.79 1623.3C1123.41 1627.92 1125.93 1634.64 1125.93 1643.04V1659.84C1125.93 1668.66 1123.41 1675.38 1118.79 1680C1113.75 1684.62 1107.45 1686.72 1099.46 1686.72ZM1099.46 1675.8C1104.09 1675.8 1107.87 1674.54 1109.97 1672.02C1112.07 1669.5 1113.33 1665.72 1113.33 1660.68V1642.62C1113.33 1637.58 1112.07 1633.8 1109.55 1631.28C1107.03 1628.76 1103.67 1627.5 1099.46 1627.5C1094.84 1627.5 1091.48 1628.76 1088.96 1631.28C1086.44 1633.8 1085.18 1637.58 1085.18 1642.2V1660.26C1085.18 1665.3 1086.44 1669.08 1088.54 1671.6C1091.06 1674.54 1094.84 1675.8 1099.46 1675.8Z" fill="#F9893D" fill-opacity="0.5"/>
<path d="M1102.4 1787.12V1728.73H1100.72L1091.48 1750.15H1078.46L1092.32 1719.49H1114.59V1787.12H1102.4Z" fill="#F9893D" fill-opacity="0.5"/>
<path d="M1099.46 1889.61C1091.48 1889.61 1085.18 1887.51 1080.14 1882.89C1075.1 1878.27 1073 1871.97 1073 1862.73V1845.92C1073 1837.1 1075.52 1830.8 1080.14 1826.18C1084.76 1821.56 1091.48 1819.46 1099.46 1819.46C1107.45 1819.46 1113.75 1821.56 1118.79 1826.18C1123.41 1830.8 1125.93 1837.52 1125.93 1845.92V1862.73C1125.93 1871.55 1123.41 1878.27 1118.79 1882.89C1113.75 1887.51 1107.45 1889.61 1099.46 1889.61ZM1099.46 1878.69C1104.09 1878.69 1107.87 1877.43 1109.97 1874.91C1112.07 1872.39 1113.33 1868.61 1113.33 1863.57V1845.5C1113.33 1840.46 1112.07 1836.68 1109.55 1834.16C1107.03 1831.64 1103.67 1830.38 1099.46 1830.38C1094.84 1830.38 1091.48 1831.64 1088.96 1834.16C1086.44 1836.68 1085.18 1840.46 1085.18 1845.08V1863.15C1085.18 1868.19 1086.44 1871.97 1088.54 1874.49C1091.06 1877.43 1094.84 1878.69 1099.46 1878.69Z" fill="#F9893D" fill-opacity="0.5"/>
<path d="M1102.4 1990V1931.61H1100.72L1091.48 1953.04H1078.46L1092.32 1922.37H1114.59V1990H1102.4Z" fill="#F9893D" fill-opacity="0.5"/>
</g>
<g opacity="0.18">
<path d="M1093.31 2550.5C1083.53 2550.5 1075.81 2547.92 1069.63 2542.26C1063.96 2537.11 1060.88 2528.88 1060.88 2517.55V2496.95C1060.88 2486.14 1063.96 2478.42 1069.63 2472.76C1075.29 2467.09 1083.53 2464.52 1093.31 2464.52C1103.09 2464.52 1110.82 2467.09 1117 2472.76C1122.66 2478.42 1125.75 2486.66 1125.75 2496.95V2517.55C1125.75 2528.36 1122.66 2536.6 1117 2542.26C1111.33 2547.92 1103.61 2550.5 1093.31 2550.5ZM1093.31 2537.11C1098.98 2537.11 1103.61 2535.57 1106.18 2532.48C1108.76 2529.39 1110.3 2524.76 1110.3 2518.58V2496.44C1110.3 2490.26 1108.76 2485.63 1105.67 2482.54C1102.58 2479.45 1098.46 2477.91 1093.31 2477.91C1087.65 2477.91 1083.53 2479.45 1080.44 2482.54C1077.35 2485.63 1075.81 2490.26 1075.81 2495.93V2518.06C1075.81 2524.24 1077.35 2528.88 1079.93 2531.96C1083.53 2535.57 1087.65 2537.11 1093.31 2537.11Z" fill="#F9893D" fill-opacity="0.5"/>
<path d="M1097.43 2670.46V2598.89H1095.37L1084.04 2625.15H1068.08L1085.07 2587.57H1112.36V2670.46H1097.43Z" fill="#F9893D" fill-opacity="0.5"/>
<path d="M1093.31 2793.51C1083.53 2793.51 1075.81 2790.93 1069.63 2785.27C1063.96 2779.61 1060.88 2771.88 1060.88 2760.56V2739.96C1060.88 2729.15 1063.96 2721.43 1069.63 2715.76C1075.29 2710.1 1083.53 2707.53 1093.31 2707.53C1103.09 2707.53 1110.82 2710.1 1117 2715.76C1122.66 2721.43 1125.75 2729.67 1125.75 2739.96V2760.56C1125.75 2771.37 1122.66 2779.61 1117 2785.27C1111.33 2790.42 1103.61 2793.51 1093.31 2793.51ZM1093.31 2779.61C1098.98 2779.61 1103.61 2778.06 1106.18 2774.97C1108.76 2771.88 1110.3 2767.25 1110.3 2761.07V2738.93C1110.3 2732.75 1108.76 2728.12 1105.67 2725.03C1102.58 2721.94 1098.46 2720.4 1093.31 2720.4C1087.65 2720.4 1083.53 2721.94 1080.44 2725.03C1077.35 2728.12 1075.81 2732.75 1075.81 2738.42V2760.56C1075.81 2766.73 1077.35 2771.37 1079.93 2774.46C1083.53 2778.06 1087.65 2779.61 1093.31 2779.61Z" fill="#F9893D" fill-opacity="0.5"/>
<path d="M1097.43 2912.95V2841.39H1095.37L1084.04 2867.64H1068.08L1085.07 2830.06H1112.36V2912.95H1097.43Z" fill="#F9893D" fill-opacity="0.5"/>
<path d="M1093.31 3036C1083.53 3036 1075.81 3033.42 1069.63 3027.76C1063.96 3022.61 1060.88 3014.38 1060.88 3003.05V2982.45C1060.88 2971.64 1063.96 2963.92 1069.63 2958.26C1075.29 2952.59 1083.53 2950.02 1093.31 2950.02C1103.09 2950.02 1110.82 2952.59 1117 2958.26C1122.66 2963.92 1125.75 2972.16 1125.75 2982.45V3003.05C1125.75 3013.86 1122.66 3022.1 1117 3027.76C1111.33 3033.42 1103.61 3036 1093.31 3036ZM1093.31 3022.61C1098.98 3022.61 1103.61 3021.07 1106.18 3017.98C1108.76 3014.89 1110.3 3010.26 1110.3 3004.08V2981.94C1110.3 2975.76 1108.76 2971.13 1105.67 2968.04C1102.58 2964.95 1098.46 2963.41 1093.31 2963.41C1087.65 2963.41 1083.53 2964.95 1080.44 2968.04C1077.35 2971.13 1075.81 2975.76 1075.81 2981.43V3003.56C1075.81 3009.74 1077.35 3014.38 1079.93 3017.46C1083.53 3021.07 1087.65 3022.61 1093.31 3022.61Z" fill="#F9893D" fill-opacity="0.5"/>
<path d="M1097.43 3155.96V3084.39H1095.37L1084.04 3110.65H1068.08L1085.07 3073.07H1112.36V3155.96H1097.43Z" fill="#F9893D" fill-opacity="0.5"/>
<path d="M1093.31 3279.01C1083.53 3279.01 1075.81 3276.43 1069.63 3270.77C1063.96 3265.62 1060.88 3257.38 1060.88 3246.06V3225.46C1060.88 3214.65 1063.96 3206.93 1069.63 3201.26C1075.29 3195.6 1083.53 3193.03 1093.31 3193.03C1103.09 3193.03 1110.82 3195.6 1117 3201.26C1122.66 3206.93 1125.75 3215.17 1125.75 3225.46V3246.06C1125.75 3256.87 1122.66 3265.11 1117 3270.77C1111.33 3275.92 1103.61 3279.01 1093.31 3279.01ZM1093.31 3265.11C1098.98 3265.11 1103.61 3263.56 1106.18 3260.47C1108.76 3257.38 1110.3 3252.75 1110.3 3246.57V3224.43C1110.3 3218.25 1108.76 3213.62 1105.67 3210.53C1102.58 3207.44 1098.46 3205.9 1093.31 3205.9C1087.65 3205.9 1083.53 3207.44 1080.44 3210.53C1077.35 3213.62 1075.81 3218.25 1075.81 3223.92V3246.06C1075.81 3252.23 1077.35 3256.87 1079.93 3259.96C1083.53 3263.56 1087.65 3265.11 1093.31 3265.11Z" fill="#F9893D" fill-opacity="0.5"/>
<path d="M1097.43 3398.45V3326.89H1095.37L1084.04 3353.14H1068.08L1085.07 3315.56H1112.36V3398.45H1097.43Z" fill="#F9893D" fill-opacity="0.5"/>
<path d="M1093.31 3521.5C1083.53 3521.5 1075.81 3518.92 1069.63 3513.26C1063.96 3507.6 1060.88 3499.87 1060.88 3488.55V3467.95C1060.88 3457.14 1063.96 3449.42 1069.63 3443.76C1075.29 3438.09 1083.53 3435.52 1093.31 3435.52C1103.09 3435.52 1110.82 3438.09 1117 3443.76C1122.66 3449.42 1125.75 3457.66 1125.75 3467.95V3488.55C1125.75 3499.36 1122.66 3507.6 1117 3513.26C1111.33 3518.92 1103.61 3521.5 1093.31 3521.5ZM1093.31 3508.11C1098.98 3508.11 1103.61 3506.57 1106.18 3503.48C1108.76 3500.39 1110.3 3495.76 1110.3 3489.58V3467.44C1110.3 3461.26 1108.76 3456.63 1105.67 3453.54C1102.58 3450.45 1098.46 3448.91 1093.31 3448.91C1087.65 3448.91 1083.53 3450.45 1080.44 3453.54C1077.35 3456.63 1075.81 3461.26 1075.81 3466.92V3489.06C1075.81 3495.24 1077.35 3499.87 1079.93 3502.96C1083.53 3506.57 1087.65 3508.11 1093.31 3508.11Z" fill="#F9893D" fill-opacity="0.5"/>
<path d="M1097.43 3641.46V3569.89H1095.37L1084.04 3596.15H1068.08L1085.07 3558.57H1112.36V3641.46H1097.43Z" fill="#F9893D" fill-opacity="0.5"/>
<path d="M1093.31 3764.51C1083.53 3764.51 1075.81 3761.93 1069.63 3756.27C1063.96 3751.12 1060.88 3742.88 1060.88 3731.56V3710.96C1060.88 3700.15 1063.96 3692.43 1069.63 3686.76C1075.29 3681.1 1083.53 3678.53 1093.31 3678.53C1103.09 3678.53 1110.82 3681.1 1117 3686.76C1122.66 3692.43 1125.75 3700.67 1125.75 3710.96V3731.56C1125.75 3742.37 1122.66 3750.61 1117 3756.27C1111.33 3761.42 1103.61 3764.51 1093.31 3764.51ZM1093.31 3750.61C1098.98 3750.61 1103.61 3749.06 1106.18 3745.97C1108.76 3742.88 1110.3 3738.25 1110.3 3732.07V3709.93C1110.3 3703.75 1108.76 3699.12 1105.67 3696.03C1102.58 3692.94 1098.46 3691.4 1093.31 3691.4C1087.65 3691.4 1083.53 3692.94 1080.44 3696.03C1077.35 3699.12 1075.81 3703.75 1075.81 3709.42V3731.56C1075.81 3737.73 1077.35 3742.37 1079.93 3745.46C1083.53 3749.06 1087.65 3750.61 1093.31 3750.61Z" fill="#F9893D" fill-opacity="0.5"/>
<path d="M1097.43 3883.95V3812.39H1095.37L1084.04 3838.64H1068.08L1085.07 3801.06H1112.36V3883.95H1097.43Z" fill="#F9893D" fill-opacity="0.5"/>
<path d="M1097.43 4005.45V3933.89H1095.37L1084.04 3960.15H1068.08L1085.07 3922.56H1112.36V4005.45H1097.43Z" fill="#F9893D" fill-opacity="0.5"/>
<path d="M1097.43 4126.96V4054.88H1095.37L1084.04 4081.14H1068.08L1085.07 4043.55H1112.36V4126.96H1097.43Z" fill="#F9893D" fill-opacity="0.5"/>
<path d="M1093.31 4250.01C1083.53 4250.01 1075.81 4247.43 1069.63 4241.77C1063.96 4236.62 1060.88 4228.38 1060.88 4217.06V4196.46C1060.88 4185.65 1063.96 4177.93 1069.63 4172.26C1075.29 4166.6 1083.53 4164.03 1093.31 4164.03C1103.09 4164.03 1110.82 4166.6 1117 4172.26C1122.66 4177.93 1125.75 4186.16 1125.75 4196.46V4217.06C1125.75 4227.87 1122.66 4236.1 1117 4241.77C1111.33 4246.92 1103.61 4250.01 1093.31 4250.01ZM1093.31 4236.11C1098.98 4236.11 1103.61 4234.56 1106.18 4231.47C1108.76 4228.38 1110.3 4223.75 1110.3 4217.57V4195.43C1110.3 4189.25 1108.76 4184.62 1105.67 4181.53C1102.58 4178.44 1098.46 4176.9 1093.31 4176.9C1087.65 4176.9 1083.53 4178.44 1080.44 4181.53C1077.35 4184.62 1075.81 4189.25 1075.81 4194.92V4217.06C1075.81 4223.23 1077.35 4227.87 1079.93 4230.96C1083.53 4234.56 1087.65 4236.11 1093.31 4236.11Z" fill="#F9893D" fill-opacity="0.5"/>
<path d="M1093.31 4370.99C1083.53 4370.99 1075.81 4368.42 1069.63 4362.76C1063.96 4357.61 1060.88 4349.37 1060.88 4338.04V4317.45C1060.88 4306.64 1063.96 4298.92 1069.63 4293.25C1075.29 4287.59 1083.53 4285.02 1093.31 4285.02C1103.09 4285.02 1110.82 4287.59 1117 4293.25C1122.66 4298.92 1125.75 4307.15 1125.75 4317.45V4338.04C1125.75 4348.86 1122.66 4357.09 1117 4362.76C1111.33 4368.42 1103.61 4370.99 1093.31 4370.99ZM1093.31 4357.61C1098.98 4357.61 1103.61 4356.06 1106.18 4352.98C1108.76 4349.89 1110.3 4345.25 1110.3 4339.07V4316.94C1110.3 4310.76 1108.76 4306.12 1105.67 4303.04C1102.58 4299.95 1098.46 4298.4 1093.31 4298.4C1087.65 4298.4 1083.53 4299.95 1080.44 4303.04C1077.35 4306.12 1075.81 4310.76 1075.81 4316.42V4338.56C1075.81 4344.74 1077.35 4349.37 1079.93 4352.46C1083.53 4356.06 1087.65 4357.61 1093.31 4357.61Z" fill="#F9893D" fill-opacity="0.5"/>
<path d="M1097.43 4490.95V4419.39H1095.37L1084.04 4445.65H1068.08L1085.07 4408.06H1112.36V4490.95H1097.43Z" fill="#F9893D" fill-opacity="0.5"/>
<path d="M1093.31 4614C1083.53 4614 1075.81 4611.43 1069.63 4605.76C1063.96 4600.1 1060.88 4592.38 1060.88 4581.05V4560.46C1060.88 4549.65 1063.96 4541.92 1069.63 4536.26C1075.29 4530.6 1083.53 4528.02 1093.31 4528.02C1103.09 4528.02 1110.82 4530.6 1117 4536.26C1122.66 4541.92 1125.75 4550.16 1125.75 4560.46V4581.05C1125.75 4591.86 1122.66 4600.1 1117 4605.76C1111.33 4611.43 1103.61 4614 1093.31 4614ZM1093.31 4600.62C1098.98 4600.62 1103.61 4599.07 1106.18 4595.98C1108.76 4592.89 1110.3 4588.26 1110.3 4582.08V4559.94C1110.3 4553.77 1108.76 4549.13 1105.67 4546.04C1102.58 4542.95 1098.46 4541.41 1093.31 4541.41C1087.65 4541.41 1083.53 4542.95 1080.44 4546.04C1077.35 4549.13 1075.81 4553.77 1075.81 4559.43V4581.57C1075.81 4587.74 1077.35 4592.38 1079.93 4595.47C1083.53 4599.07 1087.65 4600.62 1093.31 4600.62Z" fill="#F9893D" fill-opacity="0.5"/>
<path opacity="0.78" d="M1097.43 4733.45V4661.88H1095.37L1084.04 4688.14H1068.08L1085.07 4650.56H1112.36V4733.45H1097.43Z" fill="#F9893D" fill-opacity="0.5"/>
<path opacity="0.78" d="M1093.31 4856.49C1083.53 4856.49 1075.81 4853.92 1069.63 4848.26C1063.96 4843.11 1060.88 4834.87 1060.88 4823.54V4802.95C1060.88 4792.14 1063.96 4784.42 1069.63 4778.75C1075.29 4773.09 1083.53 4770.52 1093.31 4770.52C1103.09 4770.52 1110.82 4773.09 1117 4778.75C1122.66 4784.42 1125.75 4792.65 1125.75 4802.95V4823.54C1125.75 4834.36 1122.66 4842.59 1117 4848.26C1111.33 4853.92 1103.61 4856.49 1093.31 4856.49ZM1093.31 4843.11C1098.98 4843.11 1103.61 4841.56 1106.18 4838.47C1108.76 4835.39 1110.3 4830.75 1110.3 4824.57V4802.44C1110.3 4796.26 1108.76 4791.62 1105.67 4788.53C1102.58 4785.45 1098.46 4783.9 1093.31 4783.9C1087.65 4783.9 1083.53 4785.45 1080.44 4788.53C1077.35 4791.62 1075.81 4796.26 1075.81 4801.92V4824.06C1075.81 4830.24 1077.35 4834.87 1079.93 4837.96C1083.53 4841.56 1087.65 4843.11 1093.31 4843.11Z" fill="#F9893D" fill-opacity="0.5"/>
<path opacity="0.78" d="M1093.31 4978C1083.53 4978 1075.81 4975.42 1069.63 4969.76C1063.96 4964.61 1060.88 4956.38 1060.88 4945.05V4924.45C1060.88 4913.64 1063.96 4905.92 1069.63 4900.26C1075.29 4894.59 1083.53 4892.02 1093.31 4892.02C1103.09 4892.02 1110.82 4894.59 1117 4900.26C1122.66 4905.92 1125.75 4914.16 1125.75 4924.45V4945.05C1125.75 4955.86 1122.66 4964.1 1117 4969.76C1111.33 4975.42 1103.61 4978 1093.31 4978ZM1093.31 4964.61C1098.98 4964.61 1103.61 4963.07 1106.18 4959.98C1108.76 4956.89 1110.3 4952.26 1110.3 4946.08V4923.94C1110.3 4917.76 1108.76 4913.13 1105.67 4910.04C1102.58 4906.95 1098.46 4905.41 1093.31 4905.41C1087.65 4905.41 1083.53 4906.95 1080.44 4910.04C1077.35 4913.13 1075.81 4917.76 1075.81 4923.42V4945.56C1075.81 4951.74 1077.35 4956.37 1079.93 4959.46C1083.53 4963.07 1087.65 4964.61 1093.31 4964.61Z" fill="#F9893D" fill-opacity="0.5"/>
<path opacity="0.78" d="M1097.43 5097.96V5026.39H1095.37L1084.04 5052.65H1068.08L1085.07 5015.07H1112.36V5097.96H1097.43Z" fill="#F9893D" fill-opacity="0.5"/>
<path opacity="0.78" d="M1093.31 5221.01C1083.53 5221.01 1075.81 5218.43 1069.63 5212.77C1063.96 5207.1 1060.88 5199.38 1060.88 5188.05V5167.46C1060.88 5156.65 1063.96 5148.93 1069.63 5143.26C1075.29 5137.6 1083.53 5135.03 1093.31 5135.03C1103.09 5135.03 1110.82 5137.6 1117 5143.26C1122.66 5148.93 1125.75 5157.16 1125.75 5167.46V5188.05C1125.75 5198.87 1122.66 5207.1 1117 5212.77C1111.33 5217.92 1103.61 5221.01 1093.31 5221.01ZM1093.31 5207.1C1098.98 5207.1 1103.61 5205.56 1106.18 5202.47C1108.76 5199.38 1110.3 5194.75 1110.3 5188.57V5166.43C1110.3 5160.25 1108.76 5155.62 1105.67 5152.53C1102.58 5149.44 1098.46 5147.9 1093.31 5147.9C1087.65 5147.9 1083.53 5149.44 1080.44 5152.53C1077.35 5155.62 1075.81 5160.25 1075.81 5165.92V5188.05C1075.81 5194.23 1077.35 5198.87 1079.93 5201.96C1083.53 5205.56 1087.65 5207.1 1093.31 5207.1Z" fill="#F9893D" fill-opacity="0.5"/>
<path opacity="0.78" d="M1097.43 5340.45V5268.89H1095.37L1084.04 5295.14H1068.08L1085.07 5257.56H1112.36V5340.45H1097.43Z" fill="#F9893D" fill-opacity="0.5"/>
<path opacity="0.78" d="M1093.31 5463.5C1083.53 5463.5 1075.81 5460.92 1069.63 5455.26C1063.96 5450.11 1060.88 5441.87 1060.88 5430.55V5409.95C1060.88 5399.14 1063.96 5391.42 1069.63 5385.76C1075.29 5380.09 1083.53 5377.52 1093.31 5377.52C1103.09 5377.52 1110.82 5380.09 1117 5385.76C1122.66 5391.42 1125.75 5399.66 1125.75 5409.95V5430.55C1125.75 5441.36 1122.66 5449.6 1117 5455.26C1111.33 5460.92 1103.61 5463.5 1093.31 5463.5ZM1093.31 5450.11C1098.98 5450.11 1103.61 5448.57 1106.18 5445.48C1108.76 5442.39 1110.3 5437.76 1110.3 5431.58V5409.44C1110.3 5403.26 1108.76 5398.63 1105.67 5395.54C1102.58 5392.45 1098.46 5390.91 1093.31 5390.91C1087.65 5390.91 1083.53 5392.45 1080.44 5395.54C1077.35 5398.63 1075.81 5403.26 1075.81 5408.92V5431.06C1075.81 5437.24 1077.35 5441.87 1079.93 5444.96C1083.53 5448.57 1087.65 5450.11 1093.31 5450.11Z" fill="#F9893D" fill-opacity="0.5"/>
<path opacity="0.78" d="M1097.43 5583.46V5511.89H1095.37L1084.04 5538.15H1068.08L1085.07 5500.57H1112.36V5583.46H1097.43Z" fill="#F9893D" fill-opacity="0.5"/>
<path opacity="0.78" d="M1093.31 5706.51C1083.53 5706.51 1075.81 5703.93 1069.63 5698.27C1063.96 5693.12 1060.88 5684.88 1060.88 5673.56V5652.96C1060.88 5642.15 1063.96 5634.43 1069.63 5628.76C1075.29 5623.1 1083.53 5620.53 1093.31 5620.53C1103.09 5620.53 1110.82 5623.1 1117 5628.76C1122.66 5634.43 1125.75 5642.67 1125.75 5652.96V5673.56C1125.75 5684.37 1122.66 5692.6 1117 5698.27C1111.33 5703.42 1103.61 5706.51 1093.31 5706.51ZM1093.31 5692.6C1098.98 5692.6 1103.61 5691.06 1106.18 5687.97C1108.76 5684.88 1110.3 5680.25 1110.3 5674.07V5651.93C1110.3 5645.75 1108.76 5641.12 1105.67 5638.03C1102.58 5634.94 1098.46 5633.4 1093.31 5633.4C1087.65 5633.4 1083.53 5634.94 1080.44 5638.03C1077.35 5641.12 1075.81 5645.75 1075.81 5651.42V5673.56C1075.81 5679.73 1077.35 5684.37 1079.93 5687.46C1083.53 5691.06 1087.65 5692.6 1093.31 5692.6Z" fill="#F9893D" fill-opacity="0.5"/>
<path opacity="0.78" d="M1097.43 5825.95V5754.39H1095.37L1084.04 5780.64H1068.08L1085.07 5743.06H1112.36V5825.95H1097.43Z" fill="#F9893D" fill-opacity="0.5"/>
</g>
<g opacity="0.18">
<path d="M928.437 2802.77C918.654 2802.77 910.931 2800.2 904.753 2794.53C898.574 2788.87 896 2781.15 896 2769.82V2749.23C896 2738.42 899.089 2730.69 904.753 2725.03C910.416 2719.37 918.654 2716.79 928.437 2716.79C938.219 2716.79 945.943 2719.37 952.121 2725.03C957.785 2730.69 960.874 2738.93 960.874 2749.23V2769.82C960.874 2780.63 957.785 2788.87 952.121 2794.53C945.943 2800.2 938.219 2802.77 928.437 2802.77ZM928.437 2789.39C934.101 2789.39 938.734 2787.84 941.309 2784.75C943.883 2781.66 945.428 2777.03 945.428 2770.85V2748.71C945.428 2742.54 943.883 2737.9 940.794 2734.81C937.705 2731.72 933.586 2730.18 928.437 2730.18C922.773 2730.18 918.654 2731.72 915.565 2734.81C912.476 2737.9 910.931 2742.54 910.931 2748.2V2770.34C910.931 2776.52 912.476 2781.15 915.05 2784.24C918.139 2787.84 922.258 2789.39 928.437 2789.39Z" fill="#F9893D" fill-opacity="0.5"/>
<path d="M932.043 2925.82V2854.26H929.983L918.656 2880.51H902.695L919.686 2842.93H946.974V2925.82H932.043Z" fill="#F9893D" fill-opacity="0.5"/>
<path d="M928.437 3051.44C918.654 3051.44 910.931 3048.87 904.753 3043.21C898.574 3037.54 896 3029.82 896 3018.49V2997.9C896 2987.09 899.089 2979.36 904.753 2973.7C910.416 2968.04 918.654 2965.46 928.437 2965.46C938.219 2965.46 945.943 2968.04 952.121 2973.7C957.785 2979.36 960.874 2987.6 960.874 2997.9V3018.49C960.874 3029.3 957.785 3037.54 952.121 3043.21C945.943 3048.87 938.219 3051.44 928.437 3051.44ZM928.437 3038.06C934.101 3038.06 938.734 3036.51 941.309 3033.42C943.883 3030.33 945.428 3025.7 945.428 3019.52V2997.38C945.428 2991.21 943.883 2986.57 940.794 2983.48C937.705 2980.39 933.586 2978.85 928.437 2978.85C922.773 2978.85 918.654 2980.39 915.565 2983.48C912.476 2986.57 910.931 2991.21 910.931 2996.87V3019.01C910.931 3025.19 912.476 3029.82 915.05 3032.91C918.139 3036.51 922.258 3038.06 928.437 3038.06Z" fill="#F9893D" fill-opacity="0.5"/>
<path d="M932.043 3174.49V3102.41H929.983L918.656 3128.67H902.695L919.686 3091.09H946.974V3174.49H932.043Z" fill="#F9893D" fill-opacity="0.5"/>
<path d="M928.437 3300.11C918.654 3300.11 910.931 3297.54 904.753 3291.88C898.574 3286.21 896 3278.49 896 3267.16V3246.57C896 3235.76 899.089 3228.03 904.753 3222.37C910.416 3216.71 918.654 3214.13 928.437 3214.13C938.219 3214.13 945.943 3216.71 952.121 3222.37C957.785 3228.03 960.874 3236.27 960.874 3246.57V3267.16C960.874 3277.98 957.785 3286.21 952.121 3291.88C945.943 3297.54 938.219 3300.11 928.437 3300.11ZM928.437 3286.73C934.101 3286.73 938.734 3285.18 941.309 3282.09C943.883 3279 945.428 3274.37 945.428 3268.19V3246.05C945.428 3239.88 943.883 3235.24 940.794 3232.15C937.705 3229.06 933.586 3227.52 928.437 3227.52C922.773 3227.52 918.654 3229.06 915.565 3232.15C912.476 3235.24 910.931 3239.88 910.931 3245.54V3267.68C910.931 3273.86 912.476 3278.49 915.05 3281.58C918.139 3285.18 922.258 3286.73 928.437 3286.73Z" fill="#F9893D" fill-opacity="0.5"/>
<path d="M932.043 3423.16V3351.6H929.983L918.656 3377.86H902.695L919.686 3340.27H946.974V3423.16H932.043Z" fill="#F9893D" fill-opacity="0.5"/>
<path d="M928.437 3548.78C918.654 3548.78 910.931 3546.21 904.753 3540.55C898.574 3534.88 896 3527.16 896 3515.83V3495.24C896 3484.43 899.089 3476.71 904.753 3471.04C910.416 3465.38 918.654 3462.8 928.437 3462.8C938.219 3462.8 945.943 3465.38 952.121 3471.04C957.785 3476.71 960.874 3484.94 960.874 3495.24V3515.83C960.874 3526.65 957.785 3534.88 952.121 3540.55C945.943 3546.21 938.219 3548.78 928.437 3548.78ZM928.437 3535.4C934.101 3535.4 938.734 3533.85 941.309 3530.76C943.883 3527.68 945.428 3523.04 945.428 3516.86V3494.73C945.428 3488.55 943.883 3483.91 940.794 3480.82C937.705 3477.74 933.586 3476.19 928.437 3476.19C922.773 3476.19 918.654 3477.74 915.565 3480.82C912.476 3483.91 910.931 3488.55 910.931 3494.21V3516.35C910.931 3522.53 912.476 3527.16 915.05 3530.25C918.139 3533.85 922.258 3535.4 928.437 3535.4Z" fill="#F9893D" fill-opacity="0.5"/>
<path d="M932.043 3671.83V3600.27H929.983L918.656 3626.53H902.695L919.686 3588.94H946.974V3671.83H932.043Z" fill="#F9893D" fill-opacity="0.5"/>
<path d="M928.437 3797.45C918.654 3797.45 910.931 3794.88 904.753 3789.22C899.089 3784.07 896 3775.83 896 3764.5V3743.91C896 3733.1 899.089 3725.38 904.753 3719.71C910.416 3714.05 918.654 3711.48 928.437 3711.48C938.219 3711.48 945.943 3714.05 952.121 3719.71C957.785 3725.38 960.874 3733.61 960.874 3743.91V3764.5C960.874 3775.32 957.785 3783.55 952.121 3789.22C945.943 3794.88 938.219 3797.45 928.437 3797.45ZM928.437 3784.07C934.101 3784.07 938.734 3782.52 941.309 3779.44C943.883 3776.35 945.428 3771.71 945.428 3765.53V3743.4C945.428 3737.22 943.883 3732.58 940.794 3729.5C937.705 3726.41 933.586 3724.86 928.437 3724.86C922.773 3724.86 918.654 3726.41 915.565 3729.5C912.476 3732.58 910.931 3737.22 910.931 3742.88V3765.02C910.931 3771.2 912.476 3775.83 915.05 3778.92C918.139 3782.52 922.258 3784.07 928.437 3784.07Z" fill="#F9893D" fill-opacity="0.5"/>
<path d="M932.043 3920.5V3848.94H929.983L918.656 3875.2H902.695L919.686 3837.61H946.974V3920.5H932.043Z" fill="#F9893D" fill-opacity="0.5"/>
<path d="M928.437 4046.13C918.654 4046.13 910.931 4043.55 904.753 4037.89C899.089 4032.74 896 4024.5 896 4013.18V3992.58C896 3981.77 899.089 3974.05 904.753 3968.38C910.416 3962.72 918.654 3960.15 928.437 3960.15C938.219 3960.15 945.943 3962.72 952.121 3968.38C957.785 3974.05 960.874 3982.28 960.874 3992.58V4013.18C960.874 4023.99 957.785 4032.22 952.121 4037.89C945.943 4043.55 938.219 4046.13 928.437 4046.13ZM928.437 4032.74C934.101 4032.74 938.734 4031.19 941.309 4028.11C943.883 4025.02 945.428 4020.38 945.428 4014.2V3992.07C945.428 3985.89 943.883 3981.25 940.794 3978.17C937.705 3975.08 933.586 3973.53 928.437 3973.53C922.773 3973.53 918.654 3975.08 915.565 3978.17C912.476 3981.25 910.931 3985.89 910.931 3991.55V4013.69C910.931 4019.87 912.476 4024.5 915.05 4027.59C918.139 4031.2 922.258 4032.74 928.437 4032.74Z" fill="#F9893D" fill-opacity="0.5"/>
<path d="M932.043 4169.17V4097.61H929.983L918.656 4123.87H902.695L919.686 4086.28H946.974V4169.17H932.043Z" fill="#F9893D" fill-opacity="0.5"/>
<path d="M932.043 4293.25V4221.69H929.983L918.656 4247.95H902.695L919.686 4210.36H946.974V4293.25H932.043Z" fill="#F9893D" fill-opacity="0.5"/>
<path d="M932.043 4417.84V4346.28H929.983L918.656 4372.54H902.695L919.686 4334.95H946.974V4417.84H932.043Z" fill="#F9893D" fill-opacity="0.5"/>
<path d="M928.437 4543.47C918.654 4543.47 910.931 4540.89 904.753 4535.23C899.089 4529.57 896 4521.84 896 4510.52V4489.92C896 4479.11 899.089 4471.39 904.753 4465.73C910.416 4460.06 918.654 4457.49 928.437 4457.49C938.219 4457.49 945.943 4460.06 952.121 4465.73C957.785 4471.39 960.874 4479.63 960.874 4489.92V4510.52C960.874 4521.33 957.785 4529.57 952.121 4535.23C945.943 4540.89 938.219 4543.47 928.437 4543.47ZM928.437 4530.08C934.1 4530.08 938.734 4528.54 941.309 4525.45C943.883 4522.36 945.428 4517.72 945.428 4511.55V4489.41C945.428 4483.23 943.883 4478.6 940.794 4475.51C937.705 4472.42 933.586 4470.87 928.437 4470.87C922.773 4470.87 918.654 4472.42 915.565 4475.51C912.476 4478.6 910.931 4483.23 910.931 4488.89V4511.03C910.931 4517.21 912.476 4521.84 915.05 4524.93C918.139 4528.54 922.258 4530.08 928.437 4530.08Z" fill="#F9893D" fill-opacity="0.5"/>
<path opacity="0.78" d="M928.437 4668.06C918.654 4668.06 910.931 4665.49 904.753 4659.82C899.089 4654.67 896 4646.44 896 4635.11V4614.52C896 4603.7 899.089 4595.98 904.753 4590.32C910.416 4584.65 918.654 4582.08 928.437 4582.08C938.219 4582.08 945.943 4584.65 952.121 4590.32C957.785 4595.98 960.874 4604.22 960.874 4614.52V4635.11C960.874 4645.92 957.785 4654.16 952.121 4659.82C945.943 4665.49 938.219 4668.06 928.437 4668.06ZM928.437 4654.67C934.101 4654.67 938.734 4653.13 941.309 4650.04C943.883 4646.95 945.428 4642.32 945.428 4636.14V4614C945.428 4607.82 943.883 4603.19 940.794 4600.1C937.705 4597.01 933.586 4595.47 928.437 4595.47C922.773 4595.47 918.654 4597.01 915.565 4600.1C912.476 4603.19 910.931 4607.82 910.931 4613.49V4635.62C910.931 4641.8 912.476 4646.44 915.05 4649.53C918.139 4653.13 922.258 4654.67 928.437 4654.67Z" fill="#F9893D" fill-opacity="0.5"/>
<path opacity="0.78" d="M932.043 4790.59V4719.03H929.983L918.656 4745.29H902.695L919.686 4707.7H946.974V4790.59H932.043Z" fill="#F9893D" fill-opacity="0.5"/>
<path opacity="0.78" d="M928.437 4916.73C918.654 4916.73 910.931 4914.16 904.753 4908.49C899.089 4903.34 896 4895.11 896 4883.78V4863.19C896 4852.37 899.089 4844.65 904.753 4838.99C910.416 4833.33 918.654 4830.75 928.437 4830.75C938.219 4830.75 945.943 4833.33 952.121 4838.99C957.785 4844.65 960.874 4852.89 960.874 4863.19V4883.78C960.874 4894.59 957.785 4902.83 952.121 4908.49C945.943 4914.16 938.219 4916.73 928.437 4916.73ZM928.437 4903.34C934.101 4903.34 938.734 4901.8 941.309 4898.71C943.883 4895.62 945.428 4890.99 945.428 4884.81V4862.67C945.428 4856.49 943.883 4851.86 940.794 4848.77C937.705 4845.68 933.586 4844.14 928.437 4844.14C922.773 4844.14 918.654 4845.68 915.565 4848.77C912.476 4851.86 910.931 4856.49 910.931 4862.16V4884.3C910.931 4890.47 912.476 4895.11 915.05 4898.2C918.139 4901.8 922.258 4903.34 928.437 4903.34Z" fill="#F9893D" fill-opacity="0.5"/>
<path opacity="0.78" d="M932.043 5039.26V4967.7H929.983L918.656 4993.96H902.695L919.686 4956.37H946.974V5039.26H932.043Z" fill="#F9893D" fill-opacity="0.5"/>
<path opacity="0.78" d="M928.437 5165.4C918.654 5165.4 910.931 5162.83 904.753 5157.16C899.089 5151.5 896 5143.78 896 5132.45V5111.86C896 5101.05 899.089 5093.32 904.753 5087.66C910.416 5082 918.654 5079.42 928.437 5079.42C938.219 5079.42 945.943 5082 952.121 5087.66C957.785 5093.32 960.874 5101.56 960.874 5111.86V5132.45C960.874 5143.26 957.785 5151.5 952.121 5157.16C945.943 5162.83 938.219 5165.4 928.437 5165.4ZM928.437 5152.01C934.1 5152.01 938.734 5150.47 941.309 5147.38C943.883 5144.29 945.428 5139.66 945.428 5133.48V5111.34C945.428 5105.16 943.883 5100.53 940.794 5097.44C937.705 5094.35 933.586 5092.81 928.437 5092.81C922.773 5092.81 918.654 5094.35 915.565 5097.44C912.476 5100.53 910.931 5105.16 910.931 5110.83V5132.97C910.931 5139.14 912.476 5143.78 915.05 5146.87C918.139 5150.47 922.258 5152.01 928.437 5152.01Z" fill="#F9893D" fill-opacity="0.5"/>
<path opacity="0.78" d="M928.437 5289.48C918.654 5289.48 910.931 5286.9 904.753 5281.24C899.089 5276.09 896 5267.86 896 5256.53V5235.94C896 5225.12 899.089 5217.4 904.753 5211.74C910.416 5206.07 918.654 5203.5 928.437 5203.5C938.219 5203.5 945.943 5206.07 952.121 5211.74C957.785 5217.4 960.874 5225.64 960.874 5235.94V5256.53C960.874 5267.34 957.785 5275.58 952.121 5281.24C945.943 5286.9 938.219 5289.48 928.437 5289.48ZM928.437 5276.09C934.101 5276.09 938.734 5274.55 941.309 5271.46C943.883 5268.37 945.428 5263.74 945.428 5257.56V5235.42C945.428 5229.24 943.883 5224.61 940.794 5221.52C937.705 5218.43 933.586 5216.89 928.437 5216.89C922.773 5216.89 918.654 5218.43 915.565 5221.52C912.476 5224.61 910.931 5229.24 910.931 5234.91V5257.04C910.931 5263.22 912.476 5267.86 915.05 5270.94C918.139 5274.55 922.258 5276.09 928.437 5276.09Z" fill="#F9893D" fill-opacity="0.5"/>
<path opacity="0.78" d="M932.043 5412.53V5340.96H929.983L918.656 5367.22H902.695L919.686 5329.64H946.974V5412.53H932.043Z" fill="#F9893D" fill-opacity="0.5"/>
<path opacity="0.78" d="M928.437 5538.15C918.654 5538.15 910.931 5535.58 904.753 5529.91C899.089 5524.76 896 5516.53 896 5505.2V5484.61C896 5473.79 899.089 5466.07 904.753 5460.41C910.416 5454.74 918.654 5452.17 928.437 5452.17C938.219 5452.17 945.943 5454.74 952.121 5460.41C957.785 5466.07 960.874 5474.31 960.874 5484.61V5505.2C960.874 5516.01 957.785 5524.25 952.121 5529.91C945.943 5535.58 938.219 5538.15 928.437 5538.15ZM928.437 5524.76C934.101 5524.76 938.734 5523.22 941.309 5520.13C943.883 5517.04 945.428 5512.41 945.428 5506.23V5484.09C945.428 5477.91 943.883 5473.28 940.794 5470.19C937.705 5467.1 933.586 5465.56 928.437 5465.56C922.773 5465.56 918.654 5467.1 915.565 5470.19C912.476 5473.28 910.931 5477.91 910.931 5483.58V5505.71C910.931 5511.89 912.476 5516.53 915.05 5519.62C918.139 5523.22 922.258 5524.76 928.437 5524.76Z" fill="#F9893D" fill-opacity="0.5"/>
<path opacity="0.78" d="M932.043 5661.2V5589.12H929.983L918.656 5615.38H902.695L919.686 5577.79H946.974V5660.68H932.043V5661.2Z" fill="#F9893D" fill-opacity="0.5"/>
<path opacity="0.78" d="M928.437 5786.82C918.654 5786.82 910.931 5784.25 904.753 5778.58C899.089 5772.92 896 5765.2 896 5753.87V5733.28C896 5722.46 899.089 5714.74 904.753 5709.08C910.416 5703.42 918.654 5700.84 928.437 5700.84C938.219 5700.84 945.943 5703.42 952.121 5709.08C957.785 5714.74 960.874 5722.98 960.874 5733.28V5753.87C960.874 5764.68 957.785 5772.92 952.121 5778.58C945.943 5784.25 938.219 5786.82 928.437 5786.82ZM928.437 5773.43C934.101 5773.43 938.734 5771.89 941.309 5768.8C943.883 5765.71 945.428 5761.08 945.428 5754.9V5732.76C945.428 5726.58 943.883 5721.95 940.794 5718.86C937.705 5715.77 933.586 5714.23 928.437 5714.23C922.773 5714.23 918.654 5715.77 915.565 5718.86C912.476 5721.95 910.931 5726.58 910.931 5732.25V5754.38C910.931 5760.56 912.476 5765.2 915.05 5768.29C918.139 5771.89 922.258 5773.43 928.437 5773.43Z" fill="#F9893D" fill-opacity="0.5"/>
<path opacity="0.78" d="M932.043 5909.87V5838.31H929.983L918.656 5864.56H902.695L919.686 5826.98H946.974V5909.87H932.043Z" fill="#F9893D" fill-opacity="0.5"/>
<path d="M928.437 6035.49C918.654 6035.49 910.931 6032.92 904.753 6027.25C899.089 6021.59 896 6013.87 896 6002.54V5981.95C896 5971.14 899.089 5963.41 904.753 5957.75C910.416 5952.09 918.654 5949.51 928.437 5949.51C938.219 5949.51 945.943 5952.09 952.121 5957.75C957.785 5963.41 960.874 5971.65 960.874 5981.95V6002.54C960.874 6013.35 957.785 6021.59 952.121 6027.25C945.943 6032.92 938.219 6035.49 928.437 6035.49ZM928.437 6022.1C934.101 6022.1 938.734 6020.56 941.309 6017.47C943.883 6014.38 945.428 6009.75 945.428 6003.57V5981.43C945.428 5975.25 943.883 5970.62 940.794 5967.53C937.705 5964.44 933.586 5962.9 928.437 5962.9C922.773 5962.9 918.654 5964.44 915.565 5967.53C912.476 5970.62 910.931 5975.25 910.931 5980.92V6003.06C910.931 6009.23 912.476 6013.87 915.05 6016.96C918.139 6020.56 922.258 6022.1 928.437 6022.1Z" fill="#F9893D" fill-opacity="0.5"/>
<path d="M932.043 6158.54V6086.98H929.983L918.656 6113.23H902.695L919.686 6075.65H946.974V6158.54H932.043Z" fill="#F9893D" fill-opacity="0.5"/>
</g>
<g opacity="0.18">
<path d="M182.437 85.9792C172.654 85.9792 164.931 83.4051 158.753 77.7418C153.089 72.5933 150 64.3557 150 53.0291V32.4352C150 21.6235 153.089 13.9009 158.753 8.23757C164.416 2.57426 172.654 0 182.437 0C192.219 0 199.942 2.57426 206.121 8.23757C211.784 13.9009 214.874 22.1383 214.874 32.4352V53.0291C214.874 63.8409 211.784 72.0785 206.121 77.7418C200.457 83.4051 192.734 85.9792 182.437 85.9792ZM182.437 72.5933C188.1 72.5933 192.734 71.0487 195.309 67.9596C197.883 64.8705 199.427 60.237 199.427 54.0588V31.9204C199.427 25.7422 197.883 21.1087 194.794 18.0196C191.704 14.9305 187.585 13.386 182.437 13.386C176.773 13.386 172.654 14.9305 169.565 18.0196C166.476 21.1087 164.931 25.7423 164.931 31.4056V53.544C164.931 59.7221 166.476 64.3558 169.05 67.4449C172.654 71.0488 176.773 72.5933 182.437 72.5933Z" fill="#F9893D" fill-opacity="0.5"/>
<path d="M186.551 205.938V134.375H184.491L173.164 160.632H157.203L174.194 123.048H201.482V205.938H186.551Z" fill="#F9893D" fill-opacity="0.5"/>
<path d="M182.437 328.987C172.654 328.987 164.931 326.413 158.753 320.749C153.089 315.086 150 307.363 150 296.036V275.443C150 264.631 153.089 256.908 158.753 251.245C164.416 245.582 172.654 243.007 182.437 243.007C192.219 243.007 199.942 245.582 206.121 251.245C211.784 256.908 214.874 265.146 214.874 275.443V296.036C214.874 306.848 211.784 315.086 206.121 320.749C200.457 325.898 192.734 328.987 182.437 328.987ZM182.437 315.086C188.1 315.086 192.734 313.541 195.309 310.452C197.883 307.363 199.427 302.73 199.427 296.551V274.413C199.427 268.235 197.883 263.601 194.794 260.512C191.704 257.423 187.585 255.878 182.437 255.878C176.773 255.878 172.654 257.423 169.565 260.512C166.476 263.601 164.931 268.235 164.931 273.898V296.036C164.931 302.215 166.476 306.848 169.05 309.937C172.654 313.541 176.773 315.086 182.437 315.086Z" fill="#F9893D" fill-opacity="0.5"/>
<path d="M186.551 448.431V376.867H184.491L173.164 403.125H157.203L174.194 365.541H201.482V448.431H186.551Z" fill="#F9893D" fill-opacity="0.5"/>
<path d="M182.437 571.479C172.654 571.479 164.931 568.905 158.753 563.242C153.089 558.093 150 549.856 150 538.529V517.935C150 507.123 153.089 499.401 158.753 493.737C164.416 488.074 172.654 485.5 182.437 485.5C192.219 485.5 199.942 488.074 206.121 493.737C211.784 499.401 214.874 507.638 214.874 517.935V538.529C214.874 549.341 211.784 557.578 206.121 563.242C200.457 568.905 192.734 571.479 182.437 571.479ZM182.437 558.093C188.1 558.093 192.734 556.549 195.309 553.459C197.883 550.37 199.427 545.737 199.427 539.559V517.42C199.427 511.242 197.883 506.609 194.794 503.52C191.704 500.431 187.585 498.886 182.437 498.886C176.773 498.886 172.654 500.431 169.565 503.52C166.476 506.609 164.931 511.242 164.931 516.905V539.044C164.931 545.222 166.476 549.856 169.05 552.945C172.654 556.549 176.773 558.093 182.437 558.093Z" fill="#F9893D" fill-opacity="0.5"/>
<path d="M186.551 691.438V619.875H184.491L173.164 646.132H157.203L174.194 608.548H201.482V691.438H186.551Z" fill="#F9893D" fill-opacity="0.5"/>
<path d="M182.437 814.486C172.654 814.486 164.931 811.912 158.753 806.249C153.089 801.1 150 792.863 150 781.536V760.942C150 750.131 153.089 742.408 158.753 736.745C164.416 731.081 172.654 728.507 182.437 728.507C192.219 728.507 199.942 731.081 206.121 736.745C211.784 742.408 214.874 750.645 214.874 760.942V781.536C214.874 792.348 211.784 800.585 206.121 806.249C200.457 811.397 192.734 814.486 182.437 814.486ZM182.437 800.585C188.1 800.585 192.734 799.041 195.309 795.952C197.883 792.863 199.427 788.229 199.427 782.051V759.913C199.427 753.734 197.883 749.101 194.794 746.012C191.704 742.923 187.585 741.378 182.437 741.378C176.773 741.378 172.654 742.923 169.565 746.012C166.476 749.101 164.931 753.734 164.931 759.398V781.536C164.931 787.714 166.476 792.348 169.05 795.437C172.654 799.041 176.773 800.585 182.437 800.585Z" fill="#F9893D" fill-opacity="0.5"/>
<path d="M186.551 933.931V862.367H184.491L173.164 888.625H157.203L174.194 851.041H201.482V933.931H186.551Z" fill="#F9893D" fill-opacity="0.5"/>
<path d="M182.437 1056.98C172.654 1056.98 164.931 1054.4 158.753 1048.74C153.089 1043.08 150 1035.36 150 1024.03V1003.44C150 992.623 153.089 984.901 158.753 979.237C164.416 973.574 172.654 971 182.437 971C192.219 971 199.942 973.574 206.121 979.237C211.784 984.901 214.874 993.138 214.874 1003.44V1024.03C214.874 1034.84 211.784 1043.08 206.121 1048.74C200.457 1054.4 192.734 1056.98 182.437 1056.98ZM182.437 1043.59C188.1 1043.59 192.734 1042.05 195.309 1038.96C197.883 1035.87 199.427 1031.24 199.427 1025.06V1002.92C199.427 996.742 197.883 992.109 194.794 989.02C191.704 985.931 187.585 984.386 182.437 984.386C176.773 984.386 172.654 985.931 169.565 989.02C166.476 992.109 164.931 996.742 164.931 1002.41V1024.54C164.931 1030.72 166.476 1035.36 169.05 1038.44C172.654 1042.05 176.773 1043.59 182.437 1043.59Z" fill="#F9893D" fill-opacity="0.5"/>
<path d="M186.551 1176.94V1105.37H184.491L173.164 1131.63H157.203L174.194 1094.05H201.482V1176.94H186.551Z" fill="#F9893D" fill-opacity="0.5"/>
<path d="M182.437 1299.99C172.654 1299.99 164.931 1297.41 158.753 1291.75C153.089 1286.6 150 1278.36 150 1267.04V1246.44C150 1235.63 153.089 1227.91 158.753 1222.24C164.416 1216.58 172.654 1214.01 182.437 1214.01C192.219 1214.01 199.942 1216.58 206.121 1222.24C211.784 1227.91 214.874 1236.15 214.874 1246.44V1267.04C214.874 1277.85 211.784 1286.09 206.121 1291.75C200.457 1296.9 192.734 1299.99 182.437 1299.99ZM182.437 1286.09C188.1 1286.09 192.734 1284.54 195.309 1281.45C197.883 1278.36 199.427 1273.73 199.427 1267.55V1245.41C199.427 1239.23 197.883 1234.6 194.794 1231.51C191.704 1228.42 187.585 1226.88 182.437 1226.88C176.773 1226.88 172.654 1228.42 169.565 1231.51C166.476 1234.6 164.931 1239.23 164.931 1244.9V1267.04C164.931 1273.21 166.476 1277.85 169.05 1280.94C172.654 1284.54 176.773 1286.09 182.437 1286.09Z" fill="#F9893D" fill-opacity="0.5"/>
<path d="M186.551 1419.43V1347.87H184.491L173.164 1374.12H157.203L174.194 1336.54H201.482V1419.43H186.551Z" fill="#F9893D" fill-opacity="0.5"/>
<path d="M186.551 1540.93V1469.37H184.491L173.164 1495.63H157.203L174.194 1458.04H201.482V1540.93H186.551Z" fill="#F9893D" fill-opacity="0.5"/>
<path d="M186.551 1662.44V1590.36H184.491L173.164 1616.62H157.203L174.194 1579.03H201.482V1662.44H186.551Z" fill="#F9893D" fill-opacity="0.5"/>
<path d="M182.437 1785.49C172.654 1785.49 164.931 1782.91 158.753 1777.25C153.089 1772.1 150 1763.86 150 1752.54V1731.94C150 1721.13 153.089 1713.41 158.753 1707.74C164.416 1702.08 172.654 1699.51 182.437 1699.51C192.219 1699.51 199.942 1702.08 206.121 1707.74C211.784 1713.41 214.874 1721.65 214.874 1731.94V1752.54C214.874 1763.35 211.784 1771.59 206.121 1777.25C200.457 1782.4 192.734 1785.49 182.437 1785.49ZM182.437 1771.59C188.1 1771.59 192.734 1770.04 195.309 1766.95C197.883 1763.86 199.427 1759.23 199.427 1753.05V1730.91C199.427 1724.73 197.883 1720.1 194.794 1717.01C191.704 1713.92 187.585 1712.38 182.437 1712.38C176.773 1712.38 172.654 1713.92 169.565 1717.01C166.476 1720.1 164.931 1724.73 164.931 1730.4V1752.54C164.931 1758.71 166.476 1763.35 169.05 1766.44C172.654 1770.04 176.773 1771.59 182.437 1771.59Z" fill="#F9893D" fill-opacity="0.5"/>
<path d="M182.437 1906.48C172.654 1906.48 164.931 1903.9 158.753 1898.24C153.089 1893.09 150 1884.85 150 1873.53V1852.93C150 1842.12 153.089 1834.4 158.753 1828.73C164.416 1823.07 172.654 1820.5 182.437 1820.5C192.219 1820.5 199.942 1823.07 206.121 1828.73C211.784 1834.4 214.874 1842.63 214.874 1852.93V1873.53C214.874 1884.34 211.784 1892.57 206.121 1898.24C200.457 1903.9 192.734 1906.48 182.437 1906.48ZM182.437 1893.09C188.1 1893.09 192.734 1891.54 195.309 1888.46C197.883 1885.37 199.427 1880.73 199.427 1874.55V1852.42C199.427 1846.24 197.883 1841.6 194.794 1838.52C191.704 1835.43 187.585 1833.88 182.437 1833.88C176.773 1833.88 172.654 1835.43 169.565 1838.52C166.476 1841.6 164.931 1846.24 164.931 1851.9V1874.04C164.931 1880.22 166.476 1884.85 169.05 1887.94C172.654 1891.54 176.773 1893.09 182.437 1893.09Z" fill="#F9893D" fill-opacity="0.5"/>
<path d="M186.551 2026.43V1954.87H184.491L173.164 1981.13H157.203L174.194 1943.54H201.482V2026.43H186.551Z" fill="#F9893D" fill-opacity="0.5"/>
<path d="M182.437 2149.48C172.654 2149.48 164.931 2146.91 158.753 2141.25C153.089 2135.58 150 2127.86 150 2116.53V2095.94C150 2085.13 153.089 2077.4 158.753 2071.74C164.416 2066.08 172.654 2063.5 182.437 2063.5C192.219 2063.5 199.942 2066.08 206.121 2071.74C211.784 2077.4 214.874 2085.64 214.874 2095.94V2116.53C214.874 2127.34 211.784 2135.58 206.121 2141.25C200.457 2146.91 192.734 2149.48 182.437 2149.48ZM182.437 2136.1C188.1 2136.1 192.734 2134.55 195.309 2131.46C197.883 2128.37 199.427 2123.74 199.427 2117.56V2095.42C199.427 2089.25 197.883 2084.61 194.794 2081.52C191.704 2078.43 187.585 2076.89 182.437 2076.89C176.773 2076.89 172.654 2078.43 169.565 2081.52C166.476 2084.61 164.931 2089.25 164.931 2094.91V2117.05C164.931 2123.23 166.476 2127.86 169.05 2130.95C172.654 2134.55 176.773 2136.1 182.437 2136.1Z" fill="#F9893D" fill-opacity="0.5"/>
<path opacity="0.78" d="M186.551 2268.93V2197.36H184.491L173.164 2223.62H157.203L174.194 2186.04H201.482V2268.93H186.551Z" fill="#F9893D" fill-opacity="0.5"/>
<path opacity="0.78" d="M182.437 2391.98C172.654 2391.98 164.931 2389.4 158.753 2383.74C153.089 2378.59 150 2370.35 150 2359.02V2338.43C150 2327.62 153.089 2319.9 158.753 2314.23C164.416 2308.57 172.654 2306 182.437 2306C192.219 2306 199.942 2308.57 206.121 2314.23C211.784 2319.9 214.874 2328.13 214.874 2338.43V2359.02C214.874 2369.84 211.784 2378.07 206.121 2383.74C200.457 2389.4 192.734 2391.98 182.437 2391.98ZM182.437 2378.59C188.1 2378.59 192.734 2377.04 195.309 2373.96C197.883 2370.87 199.427 2366.23 199.427 2360.05V2337.92C199.427 2331.74 197.883 2327.1 194.794 2324.02C191.704 2320.93 187.585 2319.38 182.437 2319.38C176.773 2319.38 172.654 2320.93 169.565 2324.02C166.476 2327.1 164.931 2331.74 164.931 2337.4V2359.54C164.931 2365.72 166.476 2370.35 169.05 2373.44C172.654 2377.04 176.773 2378.59 182.437 2378.59Z" fill="#F9893D" fill-opacity="0.5"/>
<path opacity="0.78" d="M182.437 2513.48C172.654 2513.48 164.931 2510.9 158.753 2505.24C153.089 2500.09 150 2491.86 150 2480.53V2459.94C150 2449.12 153.089 2441.4 158.753 2435.74C164.416 2430.07 172.654 2427.5 182.437 2427.5C192.219 2427.5 199.942 2430.07 206.121 2435.74C211.784 2441.4 214.874 2449.64 214.874 2459.94V2480.53C214.874 2491.34 211.784 2499.58 206.121 2505.24C200.457 2510.9 192.734 2513.48 182.437 2513.48ZM182.437 2500.09C188.1 2500.09 192.734 2498.55 195.309 2495.46C197.883 2492.37 199.427 2487.74 199.427 2481.56V2459.42C199.427 2453.24 197.883 2448.61 194.794 2445.52C191.704 2442.43 187.585 2440.89 182.437 2440.89C176.773 2440.89 172.654 2442.43 169.565 2445.52C166.476 2448.61 164.931 2453.24 164.931 2458.91V2481.04C164.931 2487.22 166.476 2491.86 169.05 2494.94C172.654 2498.55 176.773 2500.09 182.437 2500.09Z" fill="#F9893D" fill-opacity="0.5"/>
<path opacity="0.78" d="M186.551 2633.44V2561.87H184.491L173.164 2588.13H157.203L174.194 2550.55H201.482V2633.44H186.551Z" fill="#F9893D" fill-opacity="0.5"/>
<path opacity="0.78" d="M182.437 2756.49C172.654 2756.49 164.931 2753.91 158.753 2748.25C153.089 2742.59 150 2734.86 150 2723.54V2702.94C150 2692.13 153.089 2684.41 158.753 2678.74C164.416 2673.08 172.654 2670.51 182.437 2670.51C192.219 2670.51 199.942 2673.08 206.121 2678.74C211.784 2684.41 214.874 2692.64 214.874 2702.94V2723.54C214.874 2734.35 211.784 2742.59 206.121 2748.25C200.457 2753.4 192.734 2756.49 182.437 2756.49ZM182.437 2742.59C188.1 2742.59 192.734 2741.04 195.309 2737.95C197.883 2734.86 199.427 2730.23 199.427 2724.05V2701.91C199.427 2695.73 197.883 2691.1 194.794 2688.01C191.704 2684.92 187.585 2683.38 182.437 2683.38C176.773 2683.38 172.654 2684.92 169.565 2688.01C166.476 2691.1 164.931 2695.73 164.931 2701.4V2723.54C164.931 2729.71 166.476 2734.35 169.05 2737.44C172.654 2741.04 176.773 2742.59 182.437 2742.59Z" fill="#F9893D" fill-opacity="0.5"/>
<path opacity="0.78" d="M186.551 2875.93V2804.37H184.491L173.164 2830.62H157.203L174.194 2793.04H201.482V2875.93H186.551Z" fill="#F9893D" fill-opacity="0.5"/>
<path opacity="0.78" d="M182.437 2998.98C172.654 2998.98 164.931 2996.4 158.753 2990.74C153.089 2985.59 150 2977.36 150 2966.03V2945.43C150 2934.62 153.089 2926.9 158.753 2921.24C164.416 2915.57 172.654 2913 182.437 2913C192.219 2913 199.942 2915.57 206.121 2921.24C211.784 2926.9 214.874 2935.14 214.874 2945.43V2966.03C214.874 2976.84 211.784 2985.08 206.121 2990.74C200.457 2996.4 192.734 2998.98 182.437 2998.98ZM182.437 2985.59C188.1 2985.59 192.734 2984.05 195.309 2980.96C197.883 2977.87 199.427 2973.24 199.427 2967.06V2944.92C199.427 2938.74 197.883 2934.11 194.794 2931.02C191.704 2927.93 187.585 2926.39 182.437 2926.39C176.773 2926.39 172.654 2927.93 169.565 2931.02C166.476 2934.11 164.931 2938.74 164.931 2944.41V2966.54C164.931 2972.72 166.476 2977.36 169.05 2980.44C172.654 2984.05 176.773 2985.59 182.437 2985.59Z" fill="#F9893D" fill-opacity="0.5"/>
<path opacity="0.78" d="M186.551 3118.94V3047.37H184.491L173.164 3073.63H157.203L174.194 3036.05H201.482V3118.94H186.551Z" fill="#F9893D" fill-opacity="0.5"/>
<path opacity="0.78" d="M182.437 3241.99C172.654 3241.99 164.931 3239.41 158.753 3233.75C153.089 3228.6 150 3220.36 150 3209.04V3188.44C150 3177.63 153.089 3169.91 158.753 3164.24C164.416 3158.58 172.654 3156.01 182.437 3156.01C192.219 3156.01 199.942 3158.58 206.121 3164.24C211.784 3169.91 214.874 3178.15 214.874 3188.44V3209.04C214.874 3219.85 211.784 3228.09 206.121 3233.75C200.457 3238.9 192.734 3241.99 182.437 3241.99ZM182.437 3228.09C188.1 3228.09 192.734 3226.54 195.309 3223.45C197.883 3220.36 199.427 3215.73 199.427 3209.55V3187.41C199.427 3181.23 197.883 3176.6 194.794 3173.51C191.704 3170.42 187.585 3168.88 182.437 3168.88C176.773 3168.88 172.654 3170.42 169.565 3173.51C166.476 3176.6 164.931 3181.23 164.931 3186.9V3209.04C164.931 3215.21 166.476 3219.85 169.05 3222.94C172.654 3226.54 176.773 3228.09 182.437 3228.09Z" fill="#F9893D" fill-opacity="0.5"/>
<path opacity="0.78" d="M186.551 3361.43V3289.87H184.491L173.164 3316.12H157.203L174.194 3278.54H201.482V3361.43H186.551Z" fill="#F9893D" fill-opacity="0.5"/>
</g>
</g>
<g clip-path="url(#clip2_73_3388)">
<g clip-path="url(#clip3_73_3388)">
<rect width="1292.51" height="717.595" transform="matrix(0.990317 -0.138822 0 1 0 4710.56)" fill="#181818"/>
<path d="M792 5185L1282 5185V5225L788 5225L792 5185Z" fill="#F96B31"/>
</g>
<rect width="493.436" height="39.1652" transform="matrix(0.990779 -0.135486 0.0311794 0.999514 -1.21875 4667.85)" fill="#F96B31"/>
<rect width="160.881" height="40" transform="matrix(0.990779 -0.135486 0.0311794 0.999514 259.703 4601.33)" fill="#F9893D"/>
</g>
</g>
<defs>
<clipPath id="clip0_73_3388">
<rect width="1280" height="6748" fill="white"/>
</clipPath>
<clipPath id="clip1_73_3388">
<rect width="1280" height="6716" fill="white"/>
</clipPath>
<clipPath id="clip2_73_3388">
<rect width="1280" height="723" fill="white" transform="translate(0 4508)"/>
</clipPath>
<clipPath id="clip3_73_3388">
<rect width="1292.51" height="717.595" fill="white" transform="matrix(0.990317 -0.138822 0 1 0 4710.56)"/>
</clipPath>
</defs>
</svg>
