<svg width="428" height="12046" viewBox="0 0 428 12046" fill="none" xmlns="http://www.w3.org/2000/svg">
<g clip-path="url(#clip0_338_1927)">
<path d="M428 0H0V12046H428V0Z" fill="#1A1A1A"/>
<g opacity="0.18">
<path d="M165.094 83.4051V11.3266H163.032L151.688 37.5838H135.703L152.719 0H180.047V83.4051H165.094Z" fill="#F9893D" fill-opacity="0.5"/>
<path d="M161.485 209.026C151.688 209.026 143.953 206.452 137.766 200.789C131.578 195.125 129 187.403 129 176.076V155.482C129 144.67 132.094 136.948 137.766 131.284C143.438 125.621 151.688 123.047 161.485 123.047C171.282 123.047 179.016 125.621 185.204 131.284C190.876 136.948 193.969 145.185 193.969 155.482V176.076C193.969 186.888 190.876 195.125 185.204 200.789C179.016 206.452 171.282 209.026 161.485 209.026ZM161.485 195.64C167.157 195.64 171.797 194.096 174.376 191.007C176.954 187.917 178.501 183.284 178.501 177.106V154.967C178.501 148.789 176.954 144.156 173.86 141.066C170.766 137.977 166.641 136.433 161.485 136.433C155.813 136.433 151.688 137.977 148.594 141.066C145.5 144.156 143.953 148.789 143.953 154.452V176.591C143.953 182.769 145.5 187.403 148.078 190.492C151.172 194.096 155.813 195.64 161.485 195.64Z" fill="#F9893D" fill-opacity="0.5"/>
<path d="M165.094 332.077V259.998H163.032L151.688 286.256H135.703L152.719 248.672H180.047V331.562H165.094V332.077Z" fill="#F9893D" fill-opacity="0.5"/>
<path d="M165.094 456.156V384.592H163.032L151.688 410.849H135.703L152.719 373.266H180.047V456.156H165.094Z" fill="#F9893D" fill-opacity="0.5"/>
<path d="M165.094 580.743V508.664H163.032L151.688 534.921H135.703L153.235 497.852H180.563V580.743H165.094Z" fill="#F9893D" fill-opacity="0.5"/>
<path d="M161.485 706.37C151.688 706.37 143.953 703.796 137.766 698.132C131.578 692.469 129 684.746 129 673.42V652.826C129 642.014 132.094 634.291 137.766 628.628C143.438 622.965 151.688 620.391 161.485 620.391C171.282 620.391 179.016 622.965 185.204 628.628C190.876 634.291 193.969 642.529 193.969 652.826V673.42C193.969 684.232 190.876 692.469 185.204 698.132C179.016 703.796 171.282 706.37 161.485 706.37ZM161.485 692.984C167.157 692.984 171.797 691.439 174.376 688.35C176.954 685.261 178.501 680.628 178.501 674.449V652.311C178.501 646.133 176.954 641.499 173.86 638.41C170.766 635.321 166.641 633.777 161.485 633.777C155.813 633.777 151.688 635.321 148.594 638.41C145.5 641.499 143.953 646.133 143.953 651.796V673.935C143.953 680.113 145.5 684.746 148.078 687.835C151.172 691.439 155.813 692.984 161.485 692.984Z" fill="#F9893D" fill-opacity="0.5"/>
<path d="M161.485 830.964C151.688 830.964 143.953 828.39 137.766 822.726C131.578 817.063 129 809.34 129 798.014V777.42C129 766.608 132.094 758.885 137.766 753.222C143.438 747.559 151.688 744.984 161.485 744.984C171.282 744.984 179.016 747.559 185.204 753.222C190.876 758.885 193.969 767.123 193.969 777.42V798.014C193.969 808.825 190.876 817.063 185.204 822.726C179.016 828.39 171.282 830.964 161.485 830.964ZM161.485 817.578C167.157 817.578 171.797 816.033 174.376 812.944C176.954 809.855 178.501 805.221 178.501 799.043V776.905C178.501 770.727 176.954 766.093 173.86 763.004C170.766 759.915 166.641 758.37 161.485 758.37C155.813 758.37 151.688 759.915 148.594 763.004C145.5 766.093 143.953 770.727 143.953 776.39V798.528C143.953 804.707 145.5 809.34 148.078 812.429C151.172 816.033 155.813 817.578 161.485 817.578Z" fill="#F9893D" fill-opacity="0.5"/>
<path d="M165.094 953.493V881.929H163.032L151.688 908.186H135.703L152.719 870.602H180.047V953.493H165.094Z" fill="#F9893D" fill-opacity="0.5"/>
<path d="M161.485 1079.63C151.688 1079.63 143.953 1077.06 137.766 1071.39C131.578 1065.73 129 1058.01 129 1046.68V1026.09C129 1015.28 132.094 1007.55 137.766 1001.89C143.438 996.223 151.688 993.648 161.485 993.648C171.282 993.648 179.016 996.223 185.204 1001.89C190.876 1007.55 193.969 1015.79 193.969 1026.09V1046.68C193.969 1057.49 190.876 1065.73 185.204 1071.39C179.016 1077.06 171.282 1079.63 161.485 1079.63ZM161.485 1066.25C167.157 1066.25 171.797 1064.7 174.376 1061.61C176.954 1058.52 178.501 1053.89 178.501 1047.71V1025.57C178.501 1019.39 176.954 1014.76 173.86 1011.67C170.766 1008.58 166.641 1007.04 161.485 1007.04C155.813 1007.04 151.688 1008.58 148.594 1011.67C145.5 1014.76 143.953 1019.39 143.953 1025.06V1047.2C143.953 1053.37 145.5 1058.01 148.078 1061.1C151.172 1064.7 155.813 1066.25 161.485 1066.25Z" fill="#F9893D" fill-opacity="0.5"/>
<path opacity="0.78" d="M165.094 1202.17V1130.6H163.032L151.688 1156.86H135.703L152.719 1119.28H180.047V1202.17H165.094Z" fill="#F9893D" fill-opacity="0.5"/>
<path opacity="0.78" d="M161.485 1328.3C151.688 1328.3 143.953 1325.73 137.766 1320.07C131.578 1314.4 129 1306.68 129 1295.35V1274.76C129 1263.95 132.094 1256.23 137.766 1250.56C143.438 1244.9 151.688 1242.32 161.485 1242.32C171.282 1242.32 179.016 1244.9 185.204 1250.56C190.876 1256.23 193.969 1264.46 193.969 1274.76V1295.35C193.969 1306.17 190.876 1314.4 185.204 1320.07C179.016 1325.73 171.282 1328.3 161.485 1328.3ZM161.485 1314.92C167.157 1314.92 171.797 1313.37 174.376 1310.28C176.954 1307.19 178.501 1302.56 178.501 1296.38V1274.24C178.501 1268.07 176.954 1263.43 173.86 1260.34C170.766 1257.25 166.641 1255.71 161.485 1255.71C155.813 1255.71 151.688 1257.25 148.594 1260.34C145.5 1263.43 143.953 1268.07 143.953 1273.73V1295.87C143.953 1302.05 145.5 1306.68 148.078 1309.77C151.172 1313.37 155.813 1314.92 161.485 1314.92Z" fill="#F9893D" fill-opacity="0.5"/>
<path opacity="0.78" d="M161.485 1452.38C151.688 1452.38 143.953 1449.81 137.766 1444.14C131.578 1438.48 129 1430.76 129 1419.43V1398.84C129 1388.03 132.094 1380.3 137.766 1374.64C143.438 1368.98 151.688 1366.4 161.485 1366.4C171.282 1366.4 179.016 1368.98 185.204 1374.64C190.876 1380.3 193.969 1388.54 193.969 1398.84V1419.43C193.969 1430.24 190.876 1438.48 185.204 1444.14C179.016 1449.81 171.282 1452.38 161.485 1452.38ZM161.485 1439C167.157 1439 171.797 1437.45 174.376 1434.36C176.954 1431.27 178.501 1426.64 178.501 1420.46V1398.32C178.501 1392.14 176.954 1387.51 173.86 1384.42C170.766 1381.33 166.641 1379.79 161.485 1379.79C155.813 1379.79 151.688 1381.33 148.594 1384.42C145.5 1387.51 143.953 1392.14 143.953 1397.81V1419.95C143.953 1426.12 145.5 1430.76 148.078 1433.85C151.172 1437.45 155.813 1439 161.485 1439Z" fill="#F9893D" fill-opacity="0.5"/>
<path d="M165.094 1575.43V1503.87H163.032L151.688 1530.12H135.703L152.719 1492.54H180.047V1575.43H165.094Z" fill="#F9893D" fill-opacity="0.5"/>
<path d="M161.485 1701.05C151.688 1701.05 143.953 1698.48 137.766 1692.81C131.578 1687.15 129 1679.43 129 1668.1V1647.51C129 1636.7 132.094 1628.97 137.766 1623.31C143.438 1617.65 151.688 1615.07 161.485 1615.07C171.282 1615.07 179.016 1617.65 185.204 1623.31C190.876 1628.97 193.969 1637.21 193.969 1647.51V1668.1C193.969 1678.91 190.876 1687.15 185.204 1692.81C179.016 1698.48 171.282 1701.05 161.485 1701.05ZM161.485 1687.67C167.157 1687.67 171.797 1686.12 174.376 1683.03C176.954 1679.94 178.501 1675.31 178.501 1669.13V1646.99C178.501 1640.81 176.954 1636.18 173.86 1633.09C170.766 1630 166.641 1628.46 161.485 1628.46C155.813 1628.46 151.688 1630 148.594 1633.09C145.5 1636.18 143.953 1640.81 143.953 1646.48V1668.62C143.953 1674.79 145.5 1679.43 148.078 1682.52C151.172 1686.12 155.813 1687.67 161.485 1687.67Z" fill="#F9893D" fill-opacity="0.5"/>
<path d="M165.094 1824.1V1752.54H163.032L151.688 1778.79H135.703L152.719 1741.21H180.047V1824.1H165.094Z" fill="#F9893D" fill-opacity="0.5"/>
<path d="M161.485 1949.72C151.688 1949.72 143.953 1947.15 137.766 1941.48C131.578 1935.82 129 1928.1 129 1916.77V1896.18C129 1885.37 132.094 1877.64 137.766 1871.98C143.438 1866.32 151.688 1863.74 161.485 1863.74C171.282 1863.74 179.016 1866.32 185.204 1871.98C190.876 1877.64 193.969 1885.88 193.969 1896.18V1916.77C193.969 1927.58 190.876 1935.82 185.204 1941.48C179.016 1947.15 171.282 1949.72 161.485 1949.72ZM161.485 1936.34C167.157 1936.34 171.797 1934.79 174.376 1931.7C176.954 1928.61 178.501 1923.98 178.501 1917.8V1895.66C178.501 1889.48 176.954 1884.85 173.86 1881.76C170.766 1878.67 166.641 1877.13 161.485 1877.13C155.813 1877.13 151.688 1878.67 148.594 1881.76C145.5 1884.85 143.953 1889.48 143.953 1895.15V1917.29C143.953 1923.46 145.5 1928.1 148.078 1931.19C151.172 1934.79 155.813 1936.34 161.485 1936.34Z" fill="#F9893D" fill-opacity="0.5"/>
<path d="M165.094 2072.77V2001.21H163.032L151.688 2027.46H135.703L152.719 1989.88H180.047V2072.77H165.094Z" fill="#F9893D" fill-opacity="0.5"/>
<path d="M161.485 2198.39C151.688 2198.39 143.953 2195.82 137.766 2190.16C131.578 2184.49 129 2176.77 129 2165.44V2144.85C129 2134.04 132.094 2126.31 137.766 2120.65C143.438 2114.99 151.688 2112.41 161.485 2112.41C171.282 2112.41 179.016 2114.99 185.204 2120.65C190.876 2126.31 193.969 2134.55 193.969 2144.85V2165.44C193.969 2176.25 190.876 2184.49 185.204 2190.16C179.016 2195.82 171.282 2198.39 161.485 2198.39ZM161.485 2185.01C167.157 2185.01 171.797 2183.46 174.376 2180.37C176.954 2177.28 178.501 2172.65 178.501 2166.47V2144.33C178.501 2138.16 176.954 2133.52 173.86 2130.43C170.766 2127.34 166.641 2125.8 161.485 2125.8C155.813 2125.8 151.688 2127.34 148.594 2130.43C145.5 2133.52 143.953 2138.16 143.953 2143.82V2165.96C143.953 2172.14 145.5 2176.77 148.078 2179.86C151.172 2183.46 155.813 2185.01 161.485 2185.01Z" fill="#F9893D" fill-opacity="0.5"/>
<path d="M165.094 2321.44V2249.88H163.032L151.688 2276.13H135.703L152.719 2238.55H180.047V2321.44H165.094Z" fill="#F9893D" fill-opacity="0.5"/>
</g>
<g opacity="0.18">
<path d="M165.094 8361.41V8289.33H163.032L151.688 8315.58H135.703L152.719 8278H180.047V8361.41H165.094Z" fill="#F9893D" fill-opacity="0.5"/>
<path d="M161.485 8487.03C151.688 8487.03 143.953 8484.45 137.766 8478.79C131.578 8473.13 129 8465.4 129 8454.08V8433.48C129 8422.67 132.094 8414.95 137.766 8409.28C143.438 8403.62 151.688 8401.05 161.485 8401.05C171.282 8401.05 179.016 8403.62 185.204 8409.28C190.876 8414.95 193.969 8423.19 193.969 8433.48V8454.08C193.969 8464.89 190.876 8473.13 185.204 8478.79C179.016 8484.45 171.282 8487.03 161.485 8487.03ZM161.485 8473.64C167.157 8473.64 171.797 8472.1 174.376 8469.01C176.954 8465.92 178.501 8461.28 178.501 8455.11V8432.97C178.501 8426.79 176.954 8422.16 173.86 8419.07C170.766 8415.98 166.641 8414.43 161.485 8414.43C155.813 8414.43 151.688 8415.98 148.594 8419.07C145.5 8422.16 143.953 8426.79 143.953 8432.45V8454.59C143.953 8460.77 145.5 8465.4 148.078 8468.49C151.172 8472.1 155.813 8473.64 161.485 8473.64Z" fill="#F9893D" fill-opacity="0.5"/>
<path d="M165.094 8610.08V8538H163.032L151.688 8564.26H135.703L152.719 8526.67H180.047V8609.56H165.094V8610.08Z" fill="#F9893D" fill-opacity="0.5"/>
<path d="M165.094 8734.15V8662.59H163.032L151.688 8688.85H135.703L152.719 8651.26H180.047V8734.15H165.094Z" fill="#F9893D" fill-opacity="0.5"/>
<path d="M165.094 8858.75V8786.67H163.032L151.688 8812.92H135.703L153.235 8775.86H180.563V8858.75H165.094Z" fill="#F9893D" fill-opacity="0.5"/>
<path d="M161.485 8984.37C151.688 8984.37 143.953 8981.8 137.766 8976.13C131.578 8970.47 129 8962.75 129 8951.42V8930.83C129 8920.01 132.094 8912.29 137.766 8906.63C143.438 8900.96 151.688 8898.39 161.485 8898.39C171.282 8898.39 179.016 8900.96 185.204 8906.63C190.876 8912.29 193.969 8920.53 193.969 8930.83V8951.42C193.969 8962.23 190.876 8970.47 185.204 8976.13C179.016 8981.8 171.282 8984.37 161.485 8984.37ZM161.485 8970.98C167.157 8970.98 171.797 8969.44 174.376 8966.35C176.954 8963.26 178.501 8958.63 178.501 8952.45V8930.31C178.501 8924.13 176.954 8919.5 173.86 8916.41C170.766 8913.32 166.641 8911.78 161.485 8911.78C155.813 8911.78 151.688 8913.32 148.594 8916.41C145.5 8919.5 143.953 8924.13 143.953 8929.8V8951.93C143.953 8958.11 145.5 8962.75 148.078 8965.84C151.172 8969.44 155.813 8970.98 161.485 8970.98Z" fill="#F9893D" fill-opacity="0.5"/>
<path d="M161.485 9108.96C151.688 9108.96 143.953 9106.39 137.766 9100.72C131.578 9095.06 129 9087.34 129 9076.01V9055.42C129 9044.61 132.094 9036.88 137.766 9031.22C143.438 9025.56 151.688 9022.98 161.485 9022.98C171.282 9022.98 179.016 9025.56 185.204 9031.22C190.876 9036.88 193.969 9045.12 193.969 9055.42V9076.01C193.969 9086.82 190.876 9095.06 185.204 9100.72C179.016 9106.39 171.282 9108.96 161.485 9108.96ZM161.485 9095.58C167.157 9095.58 171.797 9094.03 174.376 9090.94C176.954 9087.85 178.501 9083.22 178.501 9077.04V9054.9C178.501 9048.72 176.954 9044.09 173.86 9041C170.766 9037.91 166.641 9036.37 161.485 9036.37C155.813 9036.37 151.688 9037.91 148.594 9041C145.5 9044.09 143.953 9048.72 143.953 9054.39V9076.53C143.953 9082.7 145.5 9087.34 148.078 9090.43C151.172 9094.03 155.813 9095.58 161.485 9095.58Z" fill="#F9893D" fill-opacity="0.5"/>
<path d="M165.094 9231.5V9159.93H163.032L151.688 9186.19H135.703L152.719 9148.61H180.047V9231.5H165.094Z" fill="#F9893D" fill-opacity="0.5"/>
<path d="M161.485 9357.63C151.688 9357.63 143.953 9355.06 137.766 9349.39C131.578 9343.73 129 9336.01 129 9324.68V9304.09C129 9293.28 132.094 9285.55 137.766 9279.89C143.438 9274.23 151.688 9271.65 161.485 9271.65C171.282 9271.65 179.016 9274.23 185.204 9279.89C190.876 9285.55 193.969 9293.79 193.969 9304.09V9324.68C193.969 9335.49 190.876 9343.73 185.204 9349.39C179.016 9355.06 171.282 9357.63 161.485 9357.63ZM161.485 9344.25C167.157 9344.25 171.797 9342.7 174.376 9339.61C176.954 9336.52 178.501 9331.89 178.501 9325.71V9303.57C178.501 9297.39 176.954 9292.76 173.86 9289.67C170.766 9286.58 166.641 9285.04 161.485 9285.04C155.813 9285.04 151.688 9286.58 148.594 9289.67C145.5 9292.76 143.953 9297.39 143.953 9303.06V9325.2C143.953 9331.37 145.5 9336.01 148.078 9339.1C151.172 9342.7 155.813 9344.25 161.485 9344.25Z" fill="#F9893D" fill-opacity="0.5"/>
<path opacity="0.78" d="M165.094 9480.17V9408.6H163.032L151.688 9434.86H135.703L152.719 9397.28H180.047V9480.17H165.094Z" fill="#F9893D" fill-opacity="0.5"/>
<path opacity="0.78" d="M161.485 9606.3C151.688 9606.3 143.953 9603.73 137.766 9598.07C131.578 9592.4 129 9584.68 129 9573.35V9552.76C129 9541.95 132.094 9534.23 137.766 9528.56C143.438 9522.9 151.688 9520.32 161.485 9520.32C171.282 9520.32 179.016 9522.9 185.204 9528.56C190.876 9534.23 193.969 9542.46 193.969 9552.76V9573.35C193.969 9584.17 190.876 9592.4 185.204 9598.07C179.016 9603.73 171.282 9606.3 161.485 9606.3ZM161.485 9592.92C167.157 9592.92 171.797 9591.37 174.376 9588.28C176.954 9585.19 178.501 9580.56 178.501 9574.38V9552.24C178.501 9546.07 176.954 9541.43 173.86 9538.34C170.766 9535.25 166.641 9533.71 161.485 9533.71C155.813 9533.71 151.688 9535.25 148.594 9538.34C145.5 9541.43 143.953 9546.07 143.953 9551.73V9573.87C143.953 9580.05 145.5 9584.68 148.078 9587.77C151.172 9591.37 155.813 9592.92 161.485 9592.92Z" fill="#F9893D" fill-opacity="0.5"/>
<path opacity="0.78" d="M161.485 9730.38C151.688 9730.38 143.953 9727.81 137.766 9722.14C131.578 9716.48 129 9708.76 129 9697.43V9676.84C129 9666.03 132.094 9658.3 137.766 9652.64C143.438 9646.98 151.688 9644.4 161.485 9644.4C171.282 9644.4 179.016 9646.98 185.204 9652.64C190.876 9658.3 193.969 9666.54 193.969 9676.84V9697.43C193.969 9708.24 190.876 9716.48 185.204 9722.14C179.016 9727.81 171.282 9730.38 161.485 9730.38ZM161.485 9717C167.157 9717 171.797 9715.45 174.376 9712.36C176.954 9709.27 178.501 9704.64 178.501 9698.46V9676.32C178.501 9670.14 176.954 9665.51 173.86 9662.42C170.766 9659.33 166.641 9657.79 161.485 9657.79C155.813 9657.79 151.688 9659.33 148.594 9662.42C145.5 9665.51 143.953 9670.14 143.953 9675.81V9697.95C143.953 9704.12 145.5 9708.76 148.078 9711.85C151.172 9715.45 155.813 9717 161.485 9717Z" fill="#F9893D" fill-opacity="0.5"/>
<path d="M165.094 9853.43V9781.87H163.032L151.688 9808.12H135.703L152.719 9770.54H180.047V9853.43H165.094Z" fill="#F9893D" fill-opacity="0.5"/>
<path d="M161.485 9979.05C151.688 9979.05 143.953 9976.48 137.766 9970.81C131.578 9965.15 129 9957.43 129 9946.1V9925.51C129 9914.7 132.094 9906.97 137.766 9901.31C143.438 9895.65 151.688 9893.07 161.485 9893.07C171.282 9893.07 179.016 9895.65 185.204 9901.31C190.876 9906.97 193.969 9915.21 193.969 9925.51V9946.1C193.969 9956.91 190.876 9965.15 185.204 9970.81C179.016 9976.48 171.282 9979.05 161.485 9979.05ZM161.485 9965.67C167.157 9965.67 171.797 9964.12 174.376 9961.03C176.954 9957.94 178.501 9953.31 178.501 9947.13V9924.99C178.501 9918.81 176.954 9914.18 173.86 9911.09C170.766 9908 166.641 9906.46 161.485 9906.46C155.813 9906.46 151.688 9908 148.594 9911.09C145.5 9914.18 143.953 9918.81 143.953 9924.48V9946.62C143.953 9952.79 145.5 9957.43 148.078 9960.52C151.172 9964.12 155.813 9965.67 161.485 9965.67Z" fill="#F9893D" fill-opacity="0.5"/>
<path d="M165.094 10102.1V10030.5H163.032L151.688 10056.8H135.703L152.719 10019.2H180.047V10102.1H165.094Z" fill="#F9893D" fill-opacity="0.5"/>
<path d="M161.485 10227.7C151.688 10227.7 143.953 10225.1 137.766 10219.5C131.578 10213.8 129 10206.1 129 10194.8V10174.2C129 10163.4 132.094 10155.6 137.766 10150C143.438 10144.3 151.688 10141.7 161.485 10141.7C171.282 10141.7 179.016 10144.3 185.204 10150C190.876 10155.6 193.969 10163.9 193.969 10174.2V10194.8C193.969 10205.6 190.876 10213.8 185.204 10219.5C179.016 10225.1 171.282 10227.7 161.485 10227.7ZM161.485 10214.3C167.157 10214.3 171.797 10212.8 174.376 10209.7C176.954 10206.6 178.501 10202 178.501 10195.8V10173.7C178.501 10167.5 176.954 10162.9 173.86 10159.8C170.766 10156.7 166.641 10155.1 161.485 10155.1C155.813 10155.1 151.688 10156.7 148.594 10159.8C145.5 10162.9 143.953 10167.5 143.953 10173.1V10195.3C143.953 10201.5 145.5 10206.1 148.078 10209.2C151.172 10212.8 155.813 10214.3 161.485 10214.3Z" fill="#F9893D" fill-opacity="0.5"/>
<path d="M165.094 10350.8V10279.2H163.032L151.688 10305.5H135.703L152.719 10267.9H180.047V10350.8H165.094Z" fill="#F9893D" fill-opacity="0.5"/>
<path d="M161.485 10476.4C151.688 10476.4 143.953 10473.8 137.766 10468.2C131.578 10462.5 129 10454.8 129 10443.4V10422.8C129 10412 132.094 10404.3 137.766 10398.7C143.438 10393 151.688 10390.4 161.485 10390.4C171.282 10390.4 179.016 10393 185.204 10398.7C190.876 10404.3 193.969 10412.6 193.969 10422.8V10443.4C193.969 10454.3 190.876 10462.5 185.204 10468.2C179.016 10473.8 171.282 10476.4 161.485 10476.4ZM161.485 10463C167.157 10463 171.797 10461.5 174.376 10458.4C176.954 10455.3 178.501 10450.7 178.501 10444.5V10422.3C178.501 10416.2 176.954 10411.5 173.86 10408.4C170.766 10405.3 166.641 10403.8 161.485 10403.8C155.813 10403.8 151.688 10405.3 148.594 10408.4C145.5 10411.5 143.953 10416.2 143.953 10421.8V10444C143.953 10450.1 145.5 10454.8 148.078 10457.9C151.172 10461.5 155.813 10463 161.485 10463Z" fill="#F9893D" fill-opacity="0.5"/>
<path d="M165.094 10599.4V10527.9H163.032L151.688 10554.1H135.703L152.719 10516.6H180.047V10599.4H165.094Z" fill="#F9893D" fill-opacity="0.5"/>
</g>
<g opacity="0.18">
<path d="M56.4847 85.9792C46.6877 85.9792 38.9532 83.4051 32.7656 77.7418C27.0937 72.5933 24 64.3557 24 53.0291V32.4352C24 21.6235 27.0937 13.9009 32.7656 8.23757C38.4376 2.57426 46.6877 0 56.4847 0C66.2817 0 74.0162 2.57426 80.2037 8.23757C85.8757 13.9009 88.9694 22.1383 88.9694 32.4352V53.0291C88.9694 63.8409 85.8757 72.0785 80.2037 77.7418C74.5318 83.4051 66.7973 85.9792 56.4847 85.9792ZM56.4847 72.5933C62.1566 72.5933 66.7973 71.0487 69.3755 67.9596C71.9536 64.8705 73.5004 60.237 73.5004 54.0588V31.9204C73.5004 25.7422 71.9536 21.1087 68.8598 18.0196C65.766 14.9305 61.641 13.386 56.4847 13.386C50.8127 13.386 46.6877 14.9305 43.5939 18.0196C40.5001 21.1087 38.9533 25.7423 38.9533 31.4056V53.544C38.9533 59.7221 40.5001 64.3558 43.0783 67.4449C46.6877 71.0488 50.8127 72.5933 56.4847 72.5933Z" fill="#F9893D" fill-opacity="0.5"/>
<path d="M60.6096 205.937V134.374H58.5471L47.2033 160.631H31.2188L48.2345 123.047H75.563V205.937H60.6096Z" fill="#F9893D" fill-opacity="0.5"/>
<path d="M56.4847 328.987C46.6877 328.987 38.9532 326.413 32.7656 320.75C27.0937 315.086 24 307.364 24 296.037V275.443C24 264.631 27.0937 256.909 32.7656 251.246C38.4376 245.582 46.6877 243.008 56.4847 243.008C66.2817 243.008 74.0162 245.582 80.2037 251.246C85.8757 256.909 88.9694 265.146 88.9694 275.443V296.037C88.9694 306.849 85.8757 315.086 80.2037 320.75C74.5318 325.898 66.7973 328.987 56.4847 328.987ZM56.4847 315.086C62.1566 315.086 66.7973 313.542 69.3755 310.453C71.9536 307.364 73.5004 302.73 73.5004 296.552V274.414C73.5004 268.235 71.9536 263.602 68.8598 260.513C65.766 257.424 61.641 255.879 56.4847 255.879C50.8127 255.879 46.6877 257.424 43.5939 260.513C40.5001 263.602 38.9533 268.235 38.9533 273.899V296.037C38.9533 302.215 40.5001 306.849 43.0783 309.938C46.6877 313.542 50.8127 315.086 56.4847 315.086Z" fill="#F9893D" fill-opacity="0.5"/>
<path d="M60.6096 448.429V376.866H58.5471L47.2033 403.123H31.2188L48.2345 365.539H75.563V448.429H60.6096Z" fill="#F9893D" fill-opacity="0.5"/>
<path d="M56.4847 571.479C46.6877 571.479 38.9532 568.905 32.7656 563.242C27.0937 558.093 24 549.856 24 538.529V517.935C24 507.123 27.0937 499.401 32.7656 493.737C38.4376 488.074 46.6877 485.5 56.4847 485.5C66.2817 485.5 74.0162 488.074 80.2037 493.737C85.8757 499.401 88.9694 507.638 88.9694 517.935V538.529C88.9694 549.341 85.8757 557.578 80.2037 563.242C74.5318 568.905 66.7973 571.479 56.4847 571.479ZM56.4847 558.093C62.1566 558.093 66.7973 556.549 69.3755 553.459C71.9536 550.37 73.5004 545.737 73.5004 539.559V517.42C73.5004 511.242 71.9536 506.609 68.8598 503.52C65.766 500.431 61.641 498.886 56.4847 498.886C50.8127 498.886 46.6877 500.431 43.5939 503.52C40.5001 506.609 38.9533 511.242 38.9533 516.905V539.044C38.9533 545.222 40.5001 549.856 43.0783 552.945C46.6877 556.549 50.8127 558.093 56.4847 558.093Z" fill="#F9893D" fill-opacity="0.5"/>
<path d="M60.6096 691.437V619.874H58.5471L47.2033 646.131H31.2188L48.2345 608.547H75.563V691.437H60.6096Z" fill="#F9893D" fill-opacity="0.5"/>
<path d="M56.4847 814.487C46.6877 814.487 38.9532 811.913 32.7656 806.25C27.0937 801.101 24 792.864 24 781.537V760.943C24 750.132 27.0937 742.409 32.7656 736.746C38.4376 731.082 46.6877 728.508 56.4847 728.508C66.2817 728.508 74.0162 731.082 80.2037 736.746C85.8757 742.409 88.9694 750.646 88.9694 760.943V781.537C88.9694 792.349 85.8757 800.586 80.2037 806.25C74.5318 811.398 66.7973 814.487 56.4847 814.487ZM56.4847 800.586C62.1566 800.586 66.7973 799.042 69.3755 795.953C71.9536 792.864 73.5004 788.23 73.5004 782.052V759.914C73.5004 753.735 71.9536 749.102 68.8598 746.013C65.766 742.924 61.641 741.379 56.4847 741.379C50.8127 741.379 46.6877 742.924 43.5939 746.013C40.5001 749.102 38.9533 753.735 38.9533 759.399V781.537C38.9533 787.715 40.5001 792.349 43.0783 795.438C46.6877 799.042 50.8127 800.586 56.4847 800.586Z" fill="#F9893D" fill-opacity="0.5"/>
<path d="M60.6096 933.929V862.365H58.5471L47.2033 888.623H31.2188L48.2345 851.039H75.563V933.929H60.6096Z" fill="#F9893D" fill-opacity="0.5"/>
<path d="M56.4847 1056.98C46.6877 1056.98 38.9532 1054.4 32.7656 1048.74C27.0937 1043.08 24 1035.36 24 1024.03V1003.44C24 992.623 27.0937 984.901 32.7656 979.237C38.4376 973.574 46.6877 971 56.4847 971C66.2817 971 74.0162 973.574 80.2037 979.237C85.8757 984.901 88.9694 993.138 88.9694 1003.44V1024.03C88.9694 1034.84 85.8757 1043.08 80.2037 1048.74C74.5318 1054.4 66.7973 1056.98 56.4847 1056.98ZM56.4847 1043.59C62.1566 1043.59 66.7973 1042.05 69.3755 1038.96C71.9536 1035.87 73.5004 1031.24 73.5004 1025.06V1002.92C73.5004 996.742 71.9536 992.109 68.8598 989.02C65.766 985.931 61.641 984.386 56.4847 984.386C50.8127 984.386 46.6877 985.931 43.5939 989.02C40.5001 992.109 38.9533 996.742 38.9533 1002.41V1024.54C38.9533 1030.72 40.5001 1035.36 43.0783 1038.44C46.6877 1042.05 50.8127 1043.59 56.4847 1043.59Z" fill="#F9893D" fill-opacity="0.5"/>
<path d="M60.6096 1176.94V1105.37H58.5471L47.2033 1131.63H31.2188L48.2345 1094.05H75.563V1176.94H60.6096Z" fill="#F9893D" fill-opacity="0.5"/>
<path d="M56.4847 1299.99C46.6877 1299.99 38.9532 1297.41 32.7656 1291.75C27.0937 1286.6 24 1278.36 24 1267.04V1246.44C24 1235.63 27.0937 1227.91 32.7656 1222.25C38.4376 1216.58 46.6877 1214.01 56.4847 1214.01C66.2817 1214.01 74.0162 1216.58 80.2037 1222.25C85.8757 1227.91 88.9694 1236.15 88.9694 1246.44V1267.04C88.9694 1277.85 85.8757 1286.09 80.2037 1291.75C74.5318 1296.9 66.7973 1299.99 56.4847 1299.99ZM56.4847 1286.09C62.1566 1286.09 66.7973 1284.54 69.3755 1281.45C71.9536 1278.36 73.5004 1273.73 73.5004 1267.55V1245.41C73.5004 1239.24 71.9536 1234.6 68.8598 1231.51C65.766 1228.42 61.641 1226.88 56.4847 1226.88C50.8127 1226.88 46.6877 1228.42 43.5939 1231.51C40.5001 1234.6 38.9533 1239.24 38.9533 1244.9V1267.04C38.9533 1273.22 40.5001 1277.85 43.0783 1280.94C46.6877 1284.54 50.8127 1286.09 56.4847 1286.09Z" fill="#F9893D" fill-opacity="0.5"/>
<path d="M60.6096 1419.43V1347.87H58.5471L47.2033 1374.12H31.2188L48.2345 1336.54H75.563V1419.43H60.6096Z" fill="#F9893D" fill-opacity="0.5"/>
<path d="M60.6096 1540.93V1469.37H58.5471L47.2033 1495.63H31.2188L48.2345 1458.04H75.563V1540.93H60.6096Z" fill="#F9893D" fill-opacity="0.5"/>
<path d="M60.6096 1662.44V1590.36H58.5471L47.2033 1616.62H31.2188L48.2345 1579.03H75.563V1662.44H60.6096Z" fill="#F9893D" fill-opacity="0.5"/>
<path d="M56.4847 1785.49C46.6877 1785.49 38.9532 1782.91 32.7656 1777.25C27.0937 1772.1 24 1763.86 24 1752.54V1731.94C24 1721.13 27.0937 1713.41 32.7656 1707.75C38.4376 1702.08 46.6877 1699.51 56.4847 1699.51C66.2817 1699.51 74.0162 1702.08 80.2037 1707.75C85.8757 1713.41 88.9694 1721.65 88.9694 1731.94V1752.54C88.9694 1763.35 85.8757 1771.59 80.2037 1777.25C74.5318 1782.4 66.7973 1785.49 56.4847 1785.49ZM56.4847 1771.59C62.1566 1771.59 66.7973 1770.04 69.3755 1766.95C71.9536 1763.86 73.5004 1759.23 73.5004 1753.05V1730.91C73.5004 1724.74 71.9536 1720.1 68.8598 1717.01C65.766 1713.92 61.641 1712.38 56.4847 1712.38C50.8127 1712.38 46.6877 1713.92 43.5939 1717.01C40.5001 1720.1 38.9533 1724.74 38.9533 1730.4V1752.54C38.9533 1758.72 40.5001 1763.35 43.0783 1766.44C46.6877 1770.04 50.8127 1771.59 56.4847 1771.59Z" fill="#F9893D" fill-opacity="0.5"/>
<path d="M56.4847 1906.48C46.6877 1906.48 38.9532 1903.9 32.7656 1898.24C27.0937 1893.09 24 1884.85 24 1873.53V1852.93C24 1842.12 27.0937 1834.4 32.7656 1828.73C38.4376 1823.07 46.6877 1820.5 56.4847 1820.5C66.2817 1820.5 74.0162 1823.07 80.2037 1828.73C85.8757 1834.4 88.9694 1842.63 88.9694 1852.93V1873.53C88.9694 1884.34 85.8757 1892.57 80.2037 1898.24C74.5318 1903.9 66.7973 1906.48 56.4847 1906.48ZM56.4847 1893.09C62.1566 1893.09 66.7973 1891.54 69.3755 1888.46C71.9536 1885.37 73.5004 1880.73 73.5004 1874.55V1852.42C73.5004 1846.24 71.9536 1841.6 68.8598 1838.52C65.766 1835.43 61.641 1833.88 56.4847 1833.88C50.8127 1833.88 46.6877 1835.43 43.5939 1838.52C40.5001 1841.6 38.9533 1846.24 38.9533 1851.9V1874.04C38.9533 1880.22 40.5001 1884.85 43.0783 1887.94C46.6877 1891.54 50.8127 1893.09 56.4847 1893.09Z" fill="#F9893D" fill-opacity="0.5"/>
<path d="M60.6096 2026.43V1954.87H58.5471L47.2033 1981.13H31.2188L48.2345 1943.54H75.563V2026.43H60.6096Z" fill="#F9893D" fill-opacity="0.5"/>
<path d="M56.4847 2149.48C46.6877 2149.48 38.9532 2146.91 32.7656 2141.25C27.0937 2135.58 24 2127.86 24 2116.53V2095.94C24 2085.13 27.0937 2077.4 32.7656 2071.74C38.4376 2066.08 46.6877 2063.5 56.4847 2063.5C66.2817 2063.5 74.0162 2066.08 80.2037 2071.74C85.8757 2077.4 88.9694 2085.64 88.9694 2095.94V2116.53C88.9694 2127.34 85.8757 2135.58 80.2037 2141.25C74.5318 2146.91 66.7973 2149.48 56.4847 2149.48ZM56.4847 2136.1C62.1566 2136.1 66.7973 2134.55 69.3755 2131.46C71.9536 2128.37 73.5004 2123.74 73.5004 2117.56V2095.42C73.5004 2089.25 71.9536 2084.61 68.8598 2081.52C65.766 2078.43 61.641 2076.89 56.4847 2076.89C50.8127 2076.89 46.6877 2078.43 43.5939 2081.52C40.5001 2084.61 38.9533 2089.25 38.9533 2094.91V2117.05C38.9533 2123.23 40.5001 2127.86 43.0783 2130.95C46.6877 2134.55 50.8127 2136.1 56.4847 2136.1Z" fill="#F9893D" fill-opacity="0.5"/>
<path opacity="0.78" d="M60.6096 2268.93V2197.36H58.5471L47.2033 2223.62H31.2188L48.2345 2186.04H75.563V2268.93H60.6096Z" fill="#F9893D" fill-opacity="0.5"/>
<path opacity="0.78" d="M56.4847 2391.98C46.6877 2391.98 38.9532 2389.4 32.7656 2383.74C27.0937 2378.59 24 2370.35 24 2359.03V2338.43C24 2327.62 27.0937 2319.9 32.7656 2314.23C38.4376 2308.57 46.6877 2306 56.4847 2306C66.2817 2306 74.0162 2308.57 80.2037 2314.23C85.8757 2319.9 88.9694 2328.13 88.9694 2338.43V2359.03C88.9694 2369.84 85.8757 2378.07 80.2037 2383.74C74.5318 2389.4 66.7973 2391.98 56.4847 2391.98ZM56.4847 2378.59C62.1566 2378.59 66.7973 2377.04 69.3755 2373.96C71.9536 2370.87 73.5004 2366.23 73.5004 2360.05V2337.92C73.5004 2331.74 71.9536 2327.1 68.8598 2324.02C65.766 2320.93 61.641 2319.38 56.4847 2319.38C50.8127 2319.38 46.6877 2320.93 43.5939 2324.02C40.5001 2327.1 38.9533 2331.74 38.9533 2337.4V2359.54C38.9533 2365.72 40.5001 2370.35 43.0783 2373.44C46.6877 2377.04 50.8127 2378.59 56.4847 2378.59Z" fill="#F9893D" fill-opacity="0.5"/>
<path opacity="0.78" d="M56.4847 2513.48C46.6877 2513.48 38.9532 2510.91 32.7656 2505.24C27.0937 2500.09 24 2491.86 24 2480.53V2459.94C24 2449.12 27.0937 2441.4 32.7656 2435.74C38.4376 2430.07 46.6877 2427.5 56.4847 2427.5C66.2817 2427.5 74.0162 2430.07 80.2037 2435.74C85.8757 2441.4 88.9694 2449.64 88.9694 2459.94V2480.53C88.9694 2491.34 85.8757 2499.58 80.2037 2505.24C74.5318 2510.91 66.7973 2513.48 56.4847 2513.48ZM56.4847 2500.09C62.1566 2500.09 66.7973 2498.55 69.3755 2495.46C71.9536 2492.37 73.5004 2487.74 73.5004 2481.56V2459.42C73.5004 2453.24 71.9536 2448.61 68.8598 2445.52C65.766 2442.43 61.641 2440.89 56.4847 2440.89C50.8127 2440.89 46.6877 2442.43 43.5939 2445.52C40.5001 2448.61 38.9533 2453.24 38.9533 2458.91V2481.04C38.9533 2487.22 40.5001 2491.86 43.0783 2494.95C46.6877 2498.55 50.8127 2500.09 56.4847 2500.09Z" fill="#F9893D" fill-opacity="0.5"/>
<path opacity="0.78" d="M60.6096 2633.44V2561.87H58.5471L47.2033 2588.13H31.2188L48.2345 2550.55H75.563V2633.44H60.6096Z" fill="#F9893D" fill-opacity="0.5"/>
<path opacity="0.78" d="M56.4847 2756.49C46.6877 2756.49 38.9532 2753.91 32.7656 2748.25C27.0937 2742.58 24 2734.86 24 2723.53V2702.94C24 2692.13 27.0937 2684.41 32.7656 2678.74C38.4376 2673.08 46.6877 2670.51 56.4847 2670.51C66.2817 2670.51 74.0162 2673.08 80.2037 2678.74C85.8757 2684.41 88.9694 2692.64 88.9694 2702.94V2723.53C88.9694 2734.35 85.8757 2742.58 80.2037 2748.25C74.5318 2753.4 66.7973 2756.49 56.4847 2756.49ZM56.4847 2742.58C62.1566 2742.58 66.7973 2741.04 69.3755 2737.95C71.9536 2734.86 73.5004 2730.23 73.5004 2724.05V2701.91C73.5004 2695.73 71.9536 2691.1 68.8598 2688.01C65.766 2684.92 61.641 2683.38 56.4847 2683.38C50.8127 2683.38 46.6877 2684.92 43.5939 2688.01C40.5001 2691.1 38.9533 2695.73 38.9533 2701.4V2723.53C38.9533 2729.71 40.5001 2734.35 43.0783 2737.44C46.6877 2741.04 50.8127 2742.58 56.4847 2742.58Z" fill="#F9893D" fill-opacity="0.5"/>
<path opacity="0.78" d="M60.6096 2875.93V2804.37H58.5471L47.2033 2830.62H31.2188L48.2345 2793.04H75.563V2875.93H60.6096Z" fill="#F9893D" fill-opacity="0.5"/>
<path opacity="0.78" d="M56.4847 2998.98C46.6877 2998.98 38.9532 2996.4 32.7656 2990.74C27.0937 2985.59 24 2977.36 24 2966.03V2945.43C24 2934.62 27.0937 2926.9 32.7656 2921.24C38.4376 2915.57 46.6877 2913 56.4847 2913C66.2817 2913 74.0162 2915.57 80.2037 2921.24C85.8757 2926.9 88.9694 2935.14 88.9694 2945.43V2966.03C88.9694 2976.84 85.8757 2985.08 80.2037 2990.74C74.5318 2996.4 66.7973 2998.98 56.4847 2998.98ZM56.4847 2985.59C62.1566 2985.59 66.7973 2984.05 69.3755 2980.96C71.9536 2977.87 73.5004 2973.24 73.5004 2967.06V2944.92C73.5004 2938.74 71.9536 2934.11 68.8598 2931.02C65.766 2927.93 61.641 2926.39 56.4847 2926.39C50.8127 2926.39 46.6877 2927.93 43.5939 2931.02C40.5001 2934.11 38.9533 2938.74 38.9533 2944.41V2966.54C38.9533 2972.72 40.5001 2977.36 43.0783 2980.44C46.6877 2984.05 50.8127 2985.59 56.4847 2985.59Z" fill="#F9893D" fill-opacity="0.5"/>
<path opacity="0.78" d="M60.6096 3118.94V3047.38H58.5471L47.2033 3073.63H31.2188L48.2345 3036.05H75.563V3118.94H60.6096Z" fill="#F9893D" fill-opacity="0.5"/>
<path opacity="0.78" d="M56.4847 3241.99C46.6877 3241.99 38.9532 3239.41 32.7656 3233.75C27.0937 3228.6 24 3220.36 24 3209.04V3188.44C24 3177.63 27.0937 3169.91 32.7656 3164.25C38.4376 3158.58 46.6877 3156.01 56.4847 3156.01C66.2817 3156.01 74.0162 3158.58 80.2037 3164.25C85.8757 3169.91 88.9694 3178.15 88.9694 3188.44V3209.04C88.9694 3219.85 85.8757 3228.09 80.2037 3233.75C74.5318 3238.9 66.7973 3241.99 56.4847 3241.99ZM56.4847 3228.09C62.1566 3228.09 66.7973 3226.54 69.3755 3223.45C71.9536 3220.36 73.5004 3215.73 73.5004 3209.55V3187.41C73.5004 3181.24 71.9536 3176.6 68.8598 3173.51C65.766 3170.42 61.641 3168.88 56.4847 3168.88C50.8127 3168.88 46.6877 3170.42 43.5939 3173.51C40.5001 3176.6 38.9533 3181.24 38.9533 3186.9V3209.04C38.9533 3215.22 40.5001 3219.85 43.0783 3222.94C46.6877 3226.54 50.8127 3228.09 56.4847 3228.09Z" fill="#F9893D" fill-opacity="0.5"/>
<path opacity="0.78" d="M60.6096 3361.43V3289.87H58.5471L47.2033 3316.12H31.2188L48.2345 3278.54H75.563V3361.43H60.6096Z" fill="#F9893D" fill-opacity="0.5"/>
</g>
<g opacity="0.18">
<path d="M56.4847 8363.98C46.6877 8363.98 38.9532 8361.41 32.7656 8355.74C27.0937 8350.59 24 8342.36 24 8331.03V8310.44C24 8299.62 27.0937 8291.9 32.7656 8286.24C38.4376 8280.57 46.6877 8278 56.4847 8278C66.2817 8278 74.0162 8280.57 80.2037 8286.24C85.8757 8291.9 88.9694 8300.14 88.9694 8310.44V8331.03C88.9694 8341.84 85.8757 8350.08 80.2037 8355.74C74.5318 8361.41 66.7973 8363.98 56.4847 8363.98ZM56.4847 8350.59C62.1566 8350.59 66.7973 8349.05 69.3755 8345.96C71.9536 8342.87 73.5004 8338.24 73.5004 8332.06V8309.92C73.5004 8303.74 71.9536 8299.11 68.8598 8296.02C65.766 8292.93 61.641 8291.39 56.4847 8291.39C50.8127 8291.39 46.6877 8292.93 43.5939 8296.02C40.5001 8299.11 38.9533 8303.74 38.9533 8309.41V8331.54C38.9533 8337.72 40.5001 8342.36 43.0783 8345.44C46.6877 8349.05 50.8127 8350.59 56.4847 8350.59Z" fill="#F9893D" fill-opacity="0.5"/>
<path d="M60.6096 8483.94V8412.37H58.5471L47.2033 8438.63H31.2188L48.2345 8401.05H75.563V8483.94H60.6096Z" fill="#F9893D" fill-opacity="0.5"/>
<path d="M56.4847 8606.99C46.6877 8606.99 38.9532 8604.41 32.7656 8598.75C27.0937 8593.09 24 8585.36 24 8574.04V8553.44C24 8542.63 27.0937 8534.91 32.7656 8529.25C38.4376 8523.58 46.6877 8521.01 56.4847 8521.01C66.2817 8521.01 74.0162 8523.58 80.2037 8529.25C85.8757 8534.91 88.9694 8543.15 88.9694 8553.44V8574.04C88.9694 8584.85 85.8757 8593.09 80.2037 8598.75C74.5318 8603.9 66.7973 8606.99 56.4847 8606.99ZM56.4847 8593.09C62.1566 8593.09 66.7973 8591.54 69.3755 8588.45C71.9536 8585.36 73.5004 8580.73 73.5004 8574.55V8552.41C73.5004 8546.24 71.9536 8541.6 68.8598 8538.51C65.766 8535.42 61.641 8533.88 56.4847 8533.88C50.8127 8533.88 46.6877 8535.42 43.5939 8538.51C40.5001 8541.6 38.9533 8546.24 38.9533 8551.9V8574.04C38.9533 8580.22 40.5001 8584.85 43.0783 8587.94C46.6877 8591.54 50.8127 8593.09 56.4847 8593.09Z" fill="#F9893D" fill-opacity="0.5"/>
<path d="M60.6096 8726.43V8654.87H58.5471L47.2033 8681.13H31.2188L48.2345 8643.54H75.563V8726.43H60.6096Z" fill="#F9893D" fill-opacity="0.5"/>
<path d="M56.4847 8849.48C46.6877 8849.48 38.9532 8846.9 32.7656 8841.24C27.0937 8836.09 24 8827.86 24 8816.53V8795.94C24 8785.12 27.0937 8777.4 32.7656 8771.74C38.4376 8766.07 46.6877 8763.5 56.4847 8763.5C66.2817 8763.5 74.0162 8766.07 80.2037 8771.74C85.8757 8777.4 88.9694 8785.64 88.9694 8795.94V8816.53C88.9694 8827.34 85.8757 8835.58 80.2037 8841.24C74.5318 8846.9 66.7973 8849.48 56.4847 8849.48ZM56.4847 8836.09C62.1566 8836.09 66.7973 8834.55 69.3755 8831.46C71.9536 8828.37 73.5004 8823.74 73.5004 8817.56V8795.42C73.5004 8789.24 71.9536 8784.61 68.8598 8781.52C65.766 8778.43 61.641 8776.89 56.4847 8776.89C50.8127 8776.89 46.6877 8778.43 43.5939 8781.52C40.5001 8784.61 38.9533 8789.24 38.9533 8794.91V8817.04C38.9533 8823.22 40.5001 8827.86 43.0783 8830.94C46.6877 8834.55 50.8127 8836.09 56.4847 8836.09Z" fill="#F9893D" fill-opacity="0.5"/>
<path d="M60.6096 8969.44V8897.87H58.5471L47.2033 8924.13H31.2188L48.2345 8886.55H75.563V8969.44H60.6096Z" fill="#F9893D" fill-opacity="0.5"/>
<path d="M56.4847 9092.49C46.6877 9092.49 38.9532 9089.91 32.7656 9084.25C27.0937 9079.1 24 9070.86 24 9059.54V9038.94C24 9028.13 27.0937 9020.41 32.7656 9014.75C38.4376 9009.08 46.6877 9006.51 56.4847 9006.51C66.2817 9006.51 74.0162 9009.08 80.2037 9014.75C85.8757 9020.41 88.9694 9028.65 88.9694 9038.94V9059.54C88.9694 9070.35 85.8757 9078.59 80.2037 9084.25C74.5318 9089.4 66.7973 9092.49 56.4847 9092.49ZM56.4847 9078.59C62.1566 9078.59 66.7973 9077.04 69.3755 9073.95C71.9536 9070.86 73.5004 9066.23 73.5004 9060.05V9037.91C73.5004 9031.74 71.9536 9027.1 68.8598 9024.01C65.766 9020.92 61.641 9019.38 56.4847 9019.38C50.8127 9019.38 46.6877 9020.92 43.5939 9024.01C40.5001 9027.1 38.9533 9031.74 38.9533 9037.4V9059.54C38.9533 9065.72 40.5001 9070.35 43.0783 9073.44C46.6877 9077.04 50.8127 9078.59 56.4847 9078.59Z" fill="#F9893D" fill-opacity="0.5"/>
<path d="M60.6096 9211.93V9140.37H58.5471L47.2033 9166.62H31.2188L48.2345 9129.04H75.563V9211.93H60.6096Z" fill="#F9893D" fill-opacity="0.5"/>
<path d="M56.4847 9334.98C46.6877 9334.98 38.9532 9332.4 32.7656 9326.74C27.0937 9321.08 24 9313.36 24 9302.03V9281.44C24 9270.62 27.0937 9262.9 32.7656 9257.24C38.4376 9251.57 46.6877 9249 56.4847 9249C66.2817 9249 74.0162 9251.57 80.2037 9257.24C85.8757 9262.9 88.9694 9271.14 88.9694 9281.44V9302.03C88.9694 9312.84 85.8757 9321.08 80.2037 9326.74C74.5318 9332.4 66.7973 9334.98 56.4847 9334.98ZM56.4847 9321.59C62.1566 9321.59 66.7973 9320.05 69.3755 9316.96C71.9536 9313.87 73.5004 9309.24 73.5004 9303.06V9280.92C73.5004 9274.74 71.9536 9270.11 68.8598 9267.02C65.766 9263.93 61.641 9262.39 56.4847 9262.39C50.8127 9262.39 46.6877 9263.93 43.5939 9267.02C40.5001 9270.11 38.9533 9274.74 38.9533 9280.41V9302.54C38.9533 9308.72 40.5001 9313.36 43.0783 9316.44C46.6877 9320.05 50.8127 9321.59 56.4847 9321.59Z" fill="#F9893D" fill-opacity="0.5"/>
<path d="M60.6096 9454.94V9383.37H58.5471L47.2033 9409.63H31.2188L48.2345 9372.05H75.563V9454.94H60.6096Z" fill="#F9893D" fill-opacity="0.5"/>
<path d="M56.4847 9577.99C46.6877 9577.99 38.9532 9575.41 32.7656 9569.75C27.0937 9564.6 24 9556.36 24 9545.04V9524.44C24 9513.63 27.0937 9505.91 32.7656 9500.25C38.4376 9494.58 46.6877 9492.01 56.4847 9492.01C66.2817 9492.01 74.0162 9494.58 80.2037 9500.25C85.8757 9505.91 88.9694 9514.15 88.9694 9524.44V9545.04C88.9694 9555.85 85.8757 9564.09 80.2037 9569.75C74.5318 9574.9 66.7973 9577.99 56.4847 9577.99ZM56.4847 9564.09C62.1566 9564.09 66.7973 9562.54 69.3755 9559.45C71.9536 9556.36 73.5004 9551.73 73.5004 9545.55V9523.41C73.5004 9517.24 71.9536 9512.6 68.8598 9509.51C65.766 9506.42 61.641 9504.88 56.4847 9504.88C50.8127 9504.88 46.6877 9506.42 43.5939 9509.51C40.5001 9512.6 38.9533 9517.24 38.9533 9522.9V9545.04C38.9533 9551.22 40.5001 9555.85 43.0783 9558.94C46.6877 9562.54 50.8127 9564.09 56.4847 9564.09Z" fill="#F9893D" fill-opacity="0.5"/>
<path d="M60.6096 9697.43V9625.87H58.5471L47.2033 9652.12H31.2188L48.2345 9614.54H75.563V9697.43H60.6096Z" fill="#F9893D" fill-opacity="0.5"/>
<path d="M60.6096 9818.93V9747.37H58.5471L47.2033 9773.63H31.2188L48.2345 9736.04H75.563V9818.93H60.6096Z" fill="#F9893D" fill-opacity="0.5"/>
<path d="M60.6096 9940.44V9868.36H58.5471L47.2033 9894.62H31.2188L48.2345 9857.03H75.563V9940.44H60.6096Z" fill="#F9893D" fill-opacity="0.5"/>
<path d="M56.4847 10063.5C46.6877 10063.5 38.9532 10060.9 32.7656 10055.2C27.0937 10050.1 24 10041.9 24 10030.5V10009.9C24 9999.13 27.0937 9991.41 32.7656 9985.75C38.4376 9980.08 46.6877 9977.51 56.4847 9977.51C66.2817 9977.51 74.0162 9980.08 80.2037 9985.75C85.8757 9991.41 88.9694 9999.65 88.9694 10009.9V10030.5C88.9694 10041.3 85.8757 10049.6 80.2037 10055.2C74.5318 10060.4 66.7973 10063.5 56.4847 10063.5ZM56.4847 10049.6C62.1566 10049.6 66.7973 10048 69.3755 10045C71.9536 10041.9 73.5004 10037.2 73.5004 10031.1V10008.9C73.5004 10002.7 71.9536 9998.1 68.8598 9995.01C65.766 9991.92 61.641 9990.38 56.4847 9990.38C50.8127 9990.38 46.6877 9991.92 43.5939 9995.01C40.5001 9998.1 38.9533 10002.7 38.9533 10008.4V10030.5C38.9533 10036.7 40.5001 10041.3 43.0783 10044.4C46.6877 10048 50.8127 10049.6 56.4847 10049.6Z" fill="#F9893D" fill-opacity="0.5"/>
<path d="M56.4847 10184.5C46.6877 10184.5 38.9532 10181.9 32.7656 10176.2C27.0937 10171.1 24 10162.9 24 10151.5V10130.9C24 10120.1 27.0937 10112.4 32.7656 10106.7C38.4376 10101.1 46.6877 10098.5 56.4847 10098.5C66.2817 10098.5 74.0162 10101.1 80.2037 10106.7C85.8757 10112.4 88.9694 10120.6 88.9694 10130.9V10151.5C88.9694 10162.3 85.8757 10170.6 80.2037 10176.2C74.5318 10181.9 66.7973 10184.5 56.4847 10184.5ZM56.4847 10171.1C62.1566 10171.1 66.7973 10169.5 69.3755 10166.5C71.9536 10163.4 73.5004 10158.7 73.5004 10152.6V10130.4C73.5004 10124.2 71.9536 10119.6 68.8598 10116.5C65.766 10113.4 61.641 10111.9 56.4847 10111.9C50.8127 10111.9 46.6877 10113.4 43.5939 10116.5C40.5001 10119.6 38.9533 10124.2 38.9533 10129.9V10152C38.9533 10158.2 40.5001 10162.9 43.0783 10165.9C46.6877 10169.5 50.8127 10171.1 56.4847 10171.1Z" fill="#F9893D" fill-opacity="0.5"/>
<path d="M60.6096 10304.4V10232.9H58.5471L47.2033 10259.1H31.2188L48.2345 10221.5H75.563V10304.4H60.6096Z" fill="#F9893D" fill-opacity="0.5"/>
<path d="M56.4847 10427.5C46.6877 10427.5 38.9532 10424.9 32.7656 10419.2C27.0937 10413.6 24 10405.9 24 10394.5V10373.9C24 10363.1 27.0937 10355.4 32.7656 10349.7C38.4376 10344.1 46.6877 10341.5 56.4847 10341.5C66.2817 10341.5 74.0162 10344.1 80.2037 10349.7C85.8757 10355.4 88.9694 10363.6 88.9694 10373.9V10394.5C88.9694 10405.3 85.8757 10413.6 80.2037 10419.2C74.5318 10424.9 66.7973 10427.5 56.4847 10427.5ZM56.4847 10414.1C62.1566 10414.1 66.7973 10412.6 69.3755 10409.5C71.9536 10406.4 73.5004 10401.7 73.5004 10395.6V10373.4C73.5004 10367.2 71.9536 10362.6 68.8598 10359.5C65.766 10356.4 61.641 10354.9 56.4847 10354.9C50.8127 10354.9 46.6877 10356.4 43.5939 10359.5C40.5001 10362.6 38.9533 10367.2 38.9533 10372.9V10395C38.9533 10401.2 40.5001 10405.9 43.0783 10408.9C46.6877 10412.6 50.8127 10414.1 56.4847 10414.1Z" fill="#F9893D" fill-opacity="0.5"/>
<path opacity="0.78" d="M60.6096 10546.9V10475.4H58.5471L47.2033 10501.6H31.2188L48.2345 10464H75.563V10546.9H60.6096Z" fill="#F9893D" fill-opacity="0.5"/>
<path opacity="0.78" d="M56.4847 10670C46.6877 10670 38.9532 10667.4 32.7656 10661.7C27.0937 10656.6 24 10648.4 24 10637V10616.4C24 10605.6 27.0937 10597.9 32.7656 10592.2C38.4376 10586.6 46.6877 10584 56.4847 10584C66.2817 10584 74.0162 10586.6 80.2037 10592.2C85.8757 10597.9 88.9694 10606.1 88.9694 10616.4V10637C88.9694 10647.8 85.8757 10656.1 80.2037 10661.7C74.5318 10667.4 66.7973 10670 56.4847 10670ZM56.4847 10656.6C62.1566 10656.6 66.7973 10655 69.3755 10652C71.9536 10648.9 73.5004 10644.2 73.5004 10638.1V10615.9C73.5004 10609.7 71.9536 10605.1 68.8598 10602C65.766 10598.9 61.641 10597.4 56.4847 10597.4C50.8127 10597.4 46.6877 10598.9 43.5939 10602C40.5001 10605.1 38.9533 10609.7 38.9533 10615.4V10637.5C38.9533 10643.7 40.5001 10648.4 43.0783 10651.4C46.6877 10655 50.8127 10656.6 56.4847 10656.6Z" fill="#F9893D" fill-opacity="0.5"/>
<path opacity="0.78" d="M56.4847 10791.5C46.6877 10791.5 38.9532 10788.9 32.7656 10783.2C27.0937 10778.1 24 10769.9 24 10758.5V10737.9C24 10727.1 27.0937 10719.4 32.7656 10713.7C38.4376 10708.1 46.6877 10705.5 56.4847 10705.5C66.2817 10705.5 74.0162 10708.1 80.2037 10713.7C85.8757 10719.4 88.9694 10727.6 88.9694 10737.9V10758.5C88.9694 10769.3 85.8757 10777.6 80.2037 10783.2C74.5318 10788.9 66.7973 10791.5 56.4847 10791.5ZM56.4847 10778.1C62.1566 10778.1 66.7973 10776.5 69.3755 10773.5C71.9536 10770.4 73.5004 10765.7 73.5004 10759.6V10737.4C73.5004 10731.2 71.9536 10726.6 68.8598 10723.5C65.766 10720.4 61.641 10718.9 56.4847 10718.9C50.8127 10718.9 46.6877 10720.4 43.5939 10723.5C40.5001 10726.6 38.9533 10731.2 38.9533 10736.9V10759C38.9533 10765.2 40.5001 10769.9 43.0783 10772.9C46.6877 10776.5 50.8127 10778.1 56.4847 10778.1Z" fill="#F9893D" fill-opacity="0.5"/>
<path opacity="0.78" d="M60.6096 10911.4V10839.9H58.5471L47.2033 10866.1H31.2188L48.2345 10828.5H75.563V10911.4H60.6096Z" fill="#F9893D" fill-opacity="0.5"/>
<path opacity="0.78" d="M56.4847 11034.5C46.6877 11034.5 38.9532 11031.9 32.7656 11026.2C27.0937 11020.6 24 11012.9 24 11001.5V10980.9C24 10970.1 27.0937 10962.4 32.7656 10956.7C38.4376 10951.1 46.6877 10948.5 56.4847 10948.5C66.2817 10948.5 74.0162 10951.1 80.2037 10956.7C85.8757 10962.4 88.9694 10970.6 88.9694 10980.9V11001.5C88.9694 11012.3 85.8757 11020.6 80.2037 11026.2C74.5318 11031.4 66.7973 11034.5 56.4847 11034.5ZM56.4847 11020.6C62.1566 11020.6 66.7973 11019 69.3755 11016C71.9536 11012.9 73.5004 11008.2 73.5004 11002V10979.9C73.5004 10973.7 71.9536 10969.1 68.8598 10966C65.766 10962.9 61.641 10961.4 56.4847 10961.4C50.8127 10961.4 46.6877 10962.9 43.5939 10966C40.5001 10969.1 38.9533 10973.7 38.9533 10979.4V11001.5C38.9533 11007.7 40.5001 11012.3 43.0783 11015.4C46.6877 11019 50.8127 11020.6 56.4847 11020.6Z" fill="#F9893D" fill-opacity="0.5"/>
<path opacity="0.78" d="M60.6096 11153.9V11082.4H58.5471L47.2033 11108.6H31.2188L48.2345 11071H75.563V11153.9H60.6096Z" fill="#F9893D" fill-opacity="0.5"/>
<path opacity="0.78" d="M56.4847 11277C46.6877 11277 38.9532 11274.4 32.7656 11268.7C27.0937 11263.6 24 11255.4 24 11244V11223.4C24 11212.6 27.0937 11204.9 32.7656 11199.2C38.4376 11193.6 46.6877 11191 56.4847 11191C66.2817 11191 74.0162 11193.6 80.2037 11199.2C85.8757 11204.9 88.9694 11213.1 88.9694 11223.4V11244C88.9694 11254.8 85.8757 11263.1 80.2037 11268.7C74.5318 11274.4 66.7973 11277 56.4847 11277ZM56.4847 11263.6C62.1566 11263.6 66.7973 11262 69.3755 11259C71.9536 11255.9 73.5004 11251.2 73.5004 11245.1V11222.9C73.5004 11216.7 71.9536 11212.1 68.8598 11209C65.766 11205.9 61.641 11204.4 56.4847 11204.4C50.8127 11204.4 46.6877 11205.9 43.5939 11209C40.5001 11212.1 38.9533 11216.7 38.9533 11222.4V11244.5C38.9533 11250.7 40.5001 11255.4 43.0783 11258.4C46.6877 11262 50.8127 11263.6 56.4847 11263.6Z" fill="#F9893D" fill-opacity="0.5"/>
<path opacity="0.78" d="M60.6096 11396.9V11325.4H58.5471L47.2033 11351.6H31.2188L48.2345 11314H75.563V11396.9H60.6096Z" fill="#F9893D" fill-opacity="0.5"/>
<path opacity="0.78" d="M56.4847 11520C46.6877 11520 38.9532 11517.4 32.7656 11511.7C27.0937 11506.6 24 11498.4 24 11487V11466.4C24 11455.6 27.0937 11447.9 32.7656 11442.2C38.4376 11436.6 46.6877 11434 56.4847 11434C66.2817 11434 74.0162 11436.6 80.2037 11442.2C85.8757 11447.9 88.9694 11456.1 88.9694 11466.4V11487C88.9694 11497.8 85.8757 11506.1 80.2037 11511.7C74.5318 11516.9 66.7973 11520 56.4847 11520ZM56.4847 11506.1C62.1566 11506.1 66.7973 11504.5 69.3755 11501.5C71.9536 11498.4 73.5004 11493.7 73.5004 11487.6V11465.4C73.5004 11459.2 71.9536 11454.6 68.8598 11451.5C65.766 11448.4 61.641 11446.9 56.4847 11446.9C50.8127 11446.9 46.6877 11448.4 43.5939 11451.5C40.5001 11454.6 38.9533 11459.2 38.9533 11464.9V11487C38.9533 11493.2 40.5001 11497.8 43.0783 11500.9C46.6877 11504.5 50.8127 11506.1 56.4847 11506.1Z" fill="#F9893D" fill-opacity="0.5"/>
<path opacity="0.78" d="M60.6096 11639.4V11567.9H58.5471L47.2033 11594.1H31.2188L48.2345 11556.5H75.563V11639.4H60.6096Z" fill="#F9893D" fill-opacity="0.5"/>
</g>
<g opacity="0.18">
<path d="M379.448 193.048V134.241H377.765L368.51 155.664H355.469L369.351 125H391.648V193.048H379.448Z" fill="#F9893D" fill-opacity="0.5"/>
<path d="M376.503 295.539C368.51 295.539 362.2 293.438 357.152 288.818C352.103 284.197 350 277.897 350 268.656V251.854C350 243.033 352.524 236.732 357.152 232.111C361.779 227.491 368.51 225.391 376.503 225.391C384.497 225.391 390.807 227.491 395.855 232.111C400.483 236.732 403.007 243.453 403.007 251.854V268.656C403.007 277.477 400.483 284.197 395.855 288.818C390.807 293.438 384.497 295.539 376.503 295.539ZM376.503 284.617C381.131 284.617 384.917 283.357 387.021 280.837C389.124 278.317 390.386 274.536 390.386 269.496V251.434C390.386 246.393 389.124 242.613 386.6 240.092C384.076 237.572 380.71 236.312 376.503 236.312C371.876 236.312 368.51 237.572 365.986 240.092C363.462 242.613 362.2 246.393 362.2 251.014V269.076C362.2 274.116 363.462 277.897 365.565 280.417C368.09 283.357 371.876 284.617 376.503 284.617Z" fill="#F9893D" fill-opacity="0.5"/>
<path d="M379.448 395.931V337.124H377.765L368.51 358.546H355.469L369.351 327.883H391.648V395.511H379.448V395.931Z" fill="#F9893D" fill-opacity="0.5"/>
<path d="M379.448 497.159V438.772H377.765L368.51 460.195H355.469L369.351 429.531H391.648V497.159H379.448Z" fill="#F9893D" fill-opacity="0.5"/>
<path d="M379.448 598.815V540.008H377.765L368.51 561.431H355.469L369.772 531.188H392.069V598.815H379.448Z" fill="#F9893D" fill-opacity="0.5"/>
<path d="M376.503 701.304C368.51 701.304 362.2 699.204 357.152 694.584C352.103 689.963 350 683.662 350 674.421V657.619C350 648.798 352.524 642.497 357.152 637.877C361.779 633.256 368.51 631.156 376.503 631.156C384.497 631.156 390.807 633.256 395.855 637.877C400.483 642.497 403.007 649.218 403.007 657.619V674.421C403.007 683.242 400.483 689.963 395.855 694.584C390.807 699.204 384.497 701.304 376.503 701.304ZM376.503 690.383C381.131 690.383 384.917 689.123 387.021 686.603C389.124 684.082 390.386 680.302 390.386 675.261V657.199C390.386 652.159 389.124 648.378 386.6 645.858C384.076 643.338 380.71 642.077 376.503 642.077C371.876 642.077 368.51 643.338 365.986 645.858C363.462 648.378 362.2 652.159 362.2 656.779V674.841C362.2 679.882 363.462 683.662 365.565 686.183C368.09 689.123 371.876 690.383 376.503 690.383Z" fill="#F9893D" fill-opacity="0.5"/>
<path d="M376.503 802.961C368.51 802.961 362.2 800.86 357.152 796.24C352.103 791.619 350 785.319 350 776.078V759.276C350 750.455 352.524 744.154 357.152 739.533C361.779 734.913 368.51 732.812 376.503 732.812C384.497 732.812 390.807 734.913 395.855 739.533C400.483 744.154 403.007 750.875 403.007 759.276V776.078C403.007 784.899 400.483 791.619 395.855 796.24C390.807 800.86 384.497 802.961 376.503 802.961ZM376.503 792.039C381.131 792.039 384.917 790.779 387.021 788.259C389.124 785.739 390.386 781.958 390.386 776.918V758.856C390.386 753.815 389.124 750.035 386.6 747.514C384.076 744.994 380.71 743.734 376.503 743.734C371.876 743.734 368.51 744.994 365.986 747.514C363.462 750.035 362.2 753.815 362.2 758.436V776.497C362.2 781.537 363.462 785.319 365.565 787.839C368.09 790.779 371.876 792.039 376.503 792.039Z" fill="#F9893D" fill-opacity="0.5"/>
<path d="M379.448 902.933V844.546H377.765L368.51 865.968H355.469L369.351 835.305H391.648V902.933H379.448Z" fill="#F9893D" fill-opacity="0.5"/>
<path d="M376.503 1005.84C368.51 1005.84 362.2 1003.74 357.152 999.123C352.103 994.502 350 988.201 350 978.96V962.158C350 953.337 352.524 947.037 357.152 942.416C361.779 937.796 368.51 935.695 376.503 935.695C384.497 935.695 390.807 937.796 395.855 942.416C400.483 947.037 403.007 953.757 403.007 962.158V978.96C403.007 987.781 400.483 994.502 395.855 999.123C390.807 1003.74 384.497 1005.84 376.503 1005.84ZM376.503 994.922C381.131 994.922 384.917 993.662 387.021 991.142C389.124 988.621 390.386 984.841 390.386 979.8V961.738C390.386 956.698 389.124 952.917 386.6 950.397C384.076 947.877 380.71 946.617 376.503 946.617C371.876 946.617 368.51 947.877 365.986 950.397C363.462 952.917 362.2 956.698 362.2 961.318V979.38C362.2 984.421 363.462 988.201 365.565 990.722C368.09 993.662 371.876 994.922 376.503 994.922Z" fill="#F9893D" fill-opacity="0.5"/>
<path opacity="0.78" d="M379.448 1105.81V1047.43H377.765L368.51 1068.85H355.469L369.351 1038.19H391.648V1105.81H379.448Z" fill="#F9893D" fill-opacity="0.5"/>
<path opacity="0.78" d="M376.503 1208.73C368.51 1208.73 362.2 1206.63 357.152 1202.01C352.103 1197.38 350 1191.08 350 1181.84V1165.04C350 1156.22 352.524 1149.92 357.152 1145.3C361.779 1140.68 368.51 1138.58 376.503 1138.58C384.497 1138.58 390.807 1140.68 395.855 1145.3C400.483 1149.92 403.007 1156.64 403.007 1165.04V1181.84C403.007 1190.66 400.483 1197.38 395.855 1202.01C390.807 1206.63 384.497 1208.73 376.503 1208.73ZM376.503 1197.8C381.131 1197.8 384.917 1196.54 387.021 1194.02C389.124 1191.5 390.386 1187.72 390.386 1182.68V1164.62C390.386 1159.58 389.124 1155.8 386.6 1153.28C384.076 1150.76 380.71 1149.5 376.503 1149.5C371.876 1149.5 368.51 1150.76 365.986 1153.28C363.462 1155.8 362.2 1159.58 362.2 1164.2V1182.26C362.2 1187.3 363.462 1191.08 365.565 1193.6C368.09 1196.54 371.876 1197.8 376.503 1197.8Z" fill="#F9893D" fill-opacity="0.5"/>
<path opacity="0.78" d="M376.503 1309.96C368.51 1309.96 362.2 1307.86 357.152 1303.24C352.103 1298.62 350 1292.31 350 1283.07V1266.27C350 1257.45 352.524 1251.15 357.152 1246.53C361.779 1241.91 368.51 1239.81 376.503 1239.81C384.497 1239.81 390.807 1241.91 395.855 1246.53C400.483 1251.15 403.007 1257.87 403.007 1266.27V1283.07C403.007 1291.89 400.483 1298.62 395.855 1303.24C390.807 1307.86 384.497 1309.96 376.503 1309.96ZM376.503 1299.04C381.131 1299.04 384.917 1297.78 387.021 1295.26C389.124 1292.73 390.386 1288.95 390.386 1283.91V1265.85C390.386 1260.81 389.124 1257.03 386.6 1254.51C384.076 1251.99 380.71 1250.73 376.503 1250.73C371.876 1250.73 368.51 1251.99 365.986 1254.51C363.462 1257.03 362.2 1260.81 362.2 1265.43V1283.49C362.2 1288.53 363.462 1292.31 365.565 1294.83C368.09 1297.78 371.876 1299.04 376.503 1299.04Z" fill="#F9893D" fill-opacity="0.5"/>
<path d="M379.448 1410.35V1351.96H377.765L368.51 1373.38H355.469L369.351 1342.72H391.648V1410.35H379.448Z" fill="#F9893D" fill-opacity="0.5"/>
<path d="M376.503 1512.84C368.51 1512.84 362.2 1510.74 357.152 1506.12C352.103 1501.5 350 1495.2 350 1485.96V1469.16C350 1460.34 352.524 1454.03 357.152 1449.41C361.779 1444.79 368.51 1442.69 376.503 1442.69C384.497 1442.69 390.807 1444.79 395.855 1449.41C400.483 1454.03 403.007 1460.76 403.007 1469.16V1485.96C403.007 1494.78 400.483 1501.5 395.855 1506.12C390.807 1510.74 384.497 1512.84 376.503 1512.84ZM376.503 1501.92C381.131 1501.92 384.917 1500.66 387.021 1498.14C389.124 1495.62 390.386 1491.84 390.386 1486.8V1468.74C390.386 1463.7 389.124 1459.92 386.6 1457.4C384.076 1454.87 380.71 1453.61 376.503 1453.61C371.876 1453.61 368.51 1454.87 365.986 1457.4C363.462 1459.92 362.2 1463.7 362.2 1468.32V1486.38C362.2 1491.42 363.462 1495.2 365.565 1497.72C368.09 1500.66 371.876 1501.92 376.503 1501.92Z" fill="#F9893D" fill-opacity="0.5"/>
<path d="M379.448 1613.23V1554.85H377.765L368.51 1576.27H355.469L369.351 1545.61H391.648V1613.23H379.448Z" fill="#F9893D" fill-opacity="0.5"/>
<path d="M376.503 1715.72C368.51 1715.72 362.2 1713.62 357.152 1709C352.103 1704.38 350 1698.08 350 1688.84V1672.04C350 1663.22 352.524 1656.92 357.152 1652.3C361.779 1647.68 368.51 1645.58 376.503 1645.58C384.497 1645.58 390.807 1647.68 395.855 1652.3C400.483 1656.92 403.007 1663.64 403.007 1672.04V1688.84C403.007 1697.66 400.483 1704.38 395.855 1709C390.807 1713.62 384.497 1715.72 376.503 1715.72ZM376.503 1704.8C381.131 1704.8 384.917 1703.54 387.021 1701.02C389.124 1698.5 390.386 1694.72 390.386 1689.68V1671.62C390.386 1666.58 389.124 1662.8 386.6 1660.28C384.076 1657.76 380.71 1656.5 376.503 1656.5C371.876 1656.5 368.51 1657.76 365.986 1660.28C363.462 1662.8 362.2 1666.58 362.2 1671.2V1689.26C362.2 1694.3 363.462 1698.08 365.565 1700.6C368.09 1703.54 371.876 1704.8 376.503 1704.8Z" fill="#F9893D" fill-opacity="0.5"/>
<path d="M379.448 1816.12V1757.73H377.765L368.51 1779.15H355.469L369.351 1748.49H391.648V1816.12H379.448Z" fill="#F9893D" fill-opacity="0.5"/>
<path d="M376.503 1918.61C368.51 1918.61 362.2 1916.51 357.152 1911.89C352.103 1907.27 350 1900.97 350 1891.73V1874.92C350 1866.1 352.524 1859.8 357.152 1855.18C361.779 1850.56 368.51 1848.46 376.503 1848.46C384.497 1848.46 390.807 1850.56 395.855 1855.18C400.483 1859.8 403.007 1866.52 403.007 1874.92V1891.73C403.007 1900.55 400.483 1907.27 395.855 1911.89C390.807 1916.51 384.497 1918.61 376.503 1918.61ZM376.503 1907.69C381.131 1907.69 384.917 1906.43 387.021 1903.91C389.124 1901.39 390.386 1897.61 390.386 1892.57V1874.5C390.386 1869.46 389.124 1865.68 386.6 1863.16C384.076 1860.64 380.71 1859.38 376.503 1859.38C371.876 1859.38 368.51 1860.64 365.986 1863.16C363.462 1865.68 362.2 1869.46 362.2 1874.08V1892.15C362.2 1897.19 363.462 1900.97 365.565 1903.49C368.09 1906.43 371.876 1907.69 376.503 1907.69Z" fill="#F9893D" fill-opacity="0.5"/>
<path d="M379.448 2019V1960.61H377.765L368.51 1982.03H355.469L369.351 1951.37H391.648V2019H379.448Z" fill="#F9893D" fill-opacity="0.5"/>
</g>
<g opacity="0.18">
<path d="M379.448 8471.05V8412.24H377.765L368.51 8433.66H355.469L369.351 8403H391.648V8471.05H379.448Z" fill="#F9893D" fill-opacity="0.5"/>
<path d="M376.503 8573.54C368.51 8573.54 362.2 8571.44 357.152 8566.82C352.103 8562.2 350 8555.9 350 8546.66V8529.86C350 8521.03 352.524 8514.73 357.152 8510.11C361.779 8505.49 368.51 8503.39 376.503 8503.39C384.497 8503.39 390.807 8505.49 395.855 8510.11C400.483 8514.73 403.007 8521.45 403.007 8529.86V8546.66C403.007 8555.48 400.483 8562.2 395.855 8566.82C390.807 8571.44 384.497 8573.54 376.503 8573.54ZM376.503 8562.62C381.131 8562.62 384.917 8561.36 387.021 8558.84C389.124 8556.32 390.386 8552.54 390.386 8547.5V8529.44C390.386 8524.4 389.124 8520.61 386.6 8518.09C384.076 8515.57 380.71 8514.31 376.503 8514.31C371.876 8514.31 368.51 8515.57 365.986 8518.09C363.462 8520.61 362.2 8524.4 362.2 8529.02V8547.08C362.2 8552.12 363.462 8555.9 365.565 8558.42C368.09 8561.36 371.876 8562.62 376.503 8562.62Z" fill="#F9893D" fill-opacity="0.5"/>
<path d="M379.448 8673.93V8615.12H377.765L368.51 8636.55H355.469L369.351 8605.88H391.648V8673.51H379.448V8673.93Z" fill="#F9893D" fill-opacity="0.5"/>
<path d="M379.448 8775.16V8716.78H377.765L368.51 8738.2H355.469L369.351 8707.54H391.648V8775.16H379.448Z" fill="#F9893D" fill-opacity="0.5"/>
<path d="M379.448 8876.82V8818.01H377.765L368.51 8839.43H355.469L369.772 8809.19H392.069V8876.82H379.448Z" fill="#F9893D" fill-opacity="0.5"/>
<path d="M376.503 8979.31C368.51 8979.31 362.2 8977.21 357.152 8972.59C352.103 8967.97 350 8961.67 350 8952.43V8935.62C350 8926.8 352.524 8920.5 357.152 8915.88C361.779 8911.26 368.51 8909.16 376.503 8909.16C384.497 8909.16 390.807 8911.26 395.855 8915.88C400.483 8920.5 403.007 8927.22 403.007 8935.62V8952.43C403.007 8961.25 400.483 8967.97 395.855 8972.59C390.807 8977.21 384.497 8979.31 376.503 8979.31ZM376.503 8968.39C381.131 8968.39 384.917 8967.13 387.021 8964.61C389.124 8962.09 390.386 8958.31 390.386 8953.27V8935.2C390.386 8930.16 389.124 8926.38 386.6 8923.86C384.076 8921.34 380.71 8920.08 376.503 8920.08C371.876 8920.08 368.51 8921.34 365.986 8923.86C363.462 8926.38 362.2 8930.16 362.2 8934.78V8952.85C362.2 8957.89 363.462 8961.67 365.565 8964.19C368.09 8967.13 371.876 8968.39 376.503 8968.39Z" fill="#F9893D" fill-opacity="0.5"/>
<path d="M376.503 9080.96C368.51 9080.96 362.2 9078.86 357.152 9074.24C352.103 9069.62 350 9063.32 350 9054.08V9037.27C350 9028.45 352.524 9022.15 357.152 9017.53C361.779 9012.91 368.51 9010.81 376.503 9010.81C384.497 9010.81 390.807 9012.91 395.855 9017.53C400.483 9022.15 403.007 9028.87 403.007 9037.27V9054.08C403.007 9062.9 400.483 9069.62 395.855 9074.24C390.807 9078.86 384.497 9080.96 376.503 9080.96ZM376.503 9070.04C381.131 9070.04 384.917 9068.78 387.021 9066.26C389.124 9063.74 390.386 9059.96 390.386 9054.92V9036.85C390.386 9031.81 389.124 9028.03 386.6 9025.51C384.076 9022.99 380.71 9021.73 376.503 9021.73C371.876 9021.73 368.51 9022.99 365.986 9025.51C363.462 9028.03 362.2 9031.81 362.2 9036.43V9054.5C362.2 9059.54 363.462 9063.32 365.565 9065.84C368.09 9068.78 371.876 9070.04 376.503 9070.04Z" fill="#F9893D" fill-opacity="0.5"/>
<path d="M379.448 9180.93V9122.54H377.765L368.51 9143.97H355.469L369.351 9113.3H391.648V9180.93H379.448Z" fill="#F9893D" fill-opacity="0.5"/>
<path d="M376.503 9283.84C368.51 9283.84 362.2 9281.74 357.152 9277.12C352.103 9272.5 350 9266.2 350 9256.96V9240.16C350 9231.34 352.524 9225.03 357.152 9220.41C361.779 9215.79 368.51 9213.69 376.503 9213.69C384.497 9213.69 390.807 9215.79 395.855 9220.41C400.483 9225.03 403.007 9231.76 403.007 9240.16V9256.96C403.007 9265.78 400.483 9272.5 395.855 9277.12C390.807 9281.74 384.497 9283.84 376.503 9283.84ZM376.503 9272.92C381.131 9272.92 384.917 9271.66 387.021 9269.14C389.124 9266.62 390.386 9262.84 390.386 9257.8V9239.74C390.386 9234.7 389.124 9230.92 386.6 9228.4C384.076 9225.87 380.71 9224.61 376.503 9224.61C371.876 9224.61 368.51 9225.87 365.986 9228.4C363.462 9230.92 362.2 9234.7 362.2 9239.32V9257.38C362.2 9262.42 363.462 9266.2 365.565 9268.72C368.09 9271.66 371.876 9272.92 376.503 9272.92Z" fill="#F9893D" fill-opacity="0.5"/>
<path opacity="0.78" d="M379.448 9383.81V9325.43H377.765L368.51 9346.85H355.469L369.351 9316.19H391.648V9383.81H379.448Z" fill="#F9893D" fill-opacity="0.5"/>
<path opacity="0.78" d="M376.503 9486.73C368.51 9486.73 362.2 9484.63 357.152 9480.01C352.103 9475.38 350 9469.08 350 9459.84V9443.04C350 9434.22 352.524 9427.92 357.152 9423.3C361.779 9418.68 368.51 9416.58 376.503 9416.58C384.497 9416.58 390.807 9418.68 395.855 9423.3C400.483 9427.92 403.007 9434.64 403.007 9443.04V9459.84C403.007 9468.66 400.483 9475.38 395.855 9480.01C390.807 9484.63 384.497 9486.73 376.503 9486.73ZM376.503 9475.8C381.131 9475.8 384.917 9474.54 387.021 9472.02C389.124 9469.5 390.386 9465.72 390.386 9460.68V9442.62C390.386 9437.58 389.124 9433.8 386.6 9431.28C384.076 9428.76 380.71 9427.5 376.503 9427.5C371.876 9427.5 368.51 9428.76 365.986 9431.28C363.462 9433.8 362.2 9437.58 362.2 9442.2V9460.26C362.2 9465.3 363.462 9469.08 365.565 9471.6C368.09 9474.54 371.876 9475.8 376.503 9475.8Z" fill="#F9893D" fill-opacity="0.5"/>
<path opacity="0.78" d="M376.503 9587.96C368.51 9587.96 362.2 9585.86 357.152 9581.24C352.103 9576.62 350 9570.31 350 9561.07V9544.27C350 9535.45 352.524 9529.15 357.152 9524.53C361.779 9519.91 368.51 9517.81 376.503 9517.81C384.497 9517.81 390.807 9519.91 395.855 9524.53C400.483 9529.15 403.007 9535.87 403.007 9544.27V9561.07C403.007 9569.89 400.483 9576.62 395.855 9581.24C390.807 9585.86 384.497 9587.96 376.503 9587.96ZM376.503 9577.04C381.131 9577.04 384.917 9575.78 387.021 9573.26C389.124 9570.73 390.386 9566.95 390.386 9561.91V9543.85C390.386 9538.81 389.124 9535.03 386.6 9532.51C384.076 9529.99 380.71 9528.73 376.503 9528.73C371.876 9528.73 368.51 9529.99 365.986 9532.51C363.462 9535.03 362.2 9538.81 362.2 9543.43V9561.49C362.2 9566.53 363.462 9570.31 365.565 9572.83C368.09 9575.78 371.876 9577.04 376.503 9577.04Z" fill="#F9893D" fill-opacity="0.5"/>
<path d="M379.448 9688.35V9629.96H377.765L368.51 9651.38H355.469L369.351 9620.72H391.648V9688.35H379.448Z" fill="#F9893D" fill-opacity="0.5"/>
<path d="M376.503 9790.84C368.51 9790.84 362.2 9788.74 357.152 9784.12C352.103 9779.5 350 9773.2 350 9763.96V9747.16C350 9738.34 352.524 9732.03 357.152 9727.41C361.779 9722.79 368.51 9720.69 376.503 9720.69C384.497 9720.69 390.807 9722.79 395.855 9727.41C400.483 9732.03 403.007 9738.76 403.007 9747.16V9763.96C403.007 9772.78 400.483 9779.5 395.855 9784.12C390.807 9788.74 384.497 9790.84 376.503 9790.84ZM376.503 9779.92C381.131 9779.92 384.917 9778.66 387.021 9776.14C389.124 9773.62 390.386 9769.84 390.386 9764.8V9746.74C390.386 9741.7 389.124 9737.92 386.6 9735.4C384.076 9732.87 380.71 9731.61 376.503 9731.61C371.876 9731.61 368.51 9732.87 365.986 9735.4C363.462 9737.92 362.2 9741.7 362.2 9746.32V9764.38C362.2 9769.42 363.462 9773.2 365.565 9775.72C368.09 9778.66 371.876 9779.92 376.503 9779.92Z" fill="#F9893D" fill-opacity="0.5"/>
<path d="M379.448 9891.23V9832.85H377.765L368.51 9854.27H355.469L369.351 9823.61H391.648V9891.23H379.448Z" fill="#F9893D" fill-opacity="0.5"/>
<path d="M376.503 9993.72C368.51 9993.72 362.2 9991.62 357.152 9987C352.103 9982.38 350 9976.08 350 9966.84V9950.04C350 9941.22 352.524 9934.92 357.152 9930.3C361.779 9925.68 368.51 9923.58 376.503 9923.58C384.497 9923.58 390.807 9925.68 395.855 9930.3C400.483 9934.92 403.007 9941.64 403.007 9950.04V9966.84C403.007 9975.66 400.483 9982.38 395.855 9987C390.807 9991.62 384.497 9993.72 376.503 9993.72ZM376.503 9982.8C381.131 9982.8 384.917 9981.54 387.021 9979.02C389.124 9976.5 390.386 9972.72 390.386 9967.68V9949.62C390.386 9944.58 389.124 9940.8 386.6 9938.28C384.076 9935.76 380.71 9934.5 376.503 9934.5C371.876 9934.5 368.51 9935.76 365.986 9938.28C363.462 9940.8 362.2 9944.58 362.2 9949.2V9967.26C362.2 9972.3 363.462 9976.08 365.565 9978.6C368.09 9981.54 371.876 9982.8 376.503 9982.8Z" fill="#F9893D" fill-opacity="0.5"/>
<path d="M379.448 10094.1V10035.7H377.765L368.51 10057.2H355.469L369.351 10026.5H391.648V10094.1H379.448Z" fill="#F9893D" fill-opacity="0.5"/>
<path d="M376.503 10196.6C368.51 10196.6 362.2 10194.5 357.152 10189.9C352.103 10185.3 350 10179 350 10169.7V10152.9C350 10144.1 352.524 10137.8 357.152 10133.2C361.779 10128.6 368.51 10126.5 376.503 10126.5C384.497 10126.5 390.807 10128.6 395.855 10133.2C400.483 10137.8 403.007 10144.5 403.007 10152.9V10169.7C403.007 10178.5 400.483 10185.3 395.855 10189.9C390.807 10194.5 384.497 10196.6 376.503 10196.6ZM376.503 10185.7C381.131 10185.7 384.917 10184.4 387.021 10181.9C389.124 10179.4 390.386 10175.6 390.386 10170.6V10152.5C390.386 10147.5 389.124 10143.7 386.6 10141.2C384.076 10138.6 380.71 10137.4 376.503 10137.4C371.876 10137.4 368.51 10138.6 365.986 10141.2C363.462 10143.7 362.2 10147.5 362.2 10152.1V10170.1C362.2 10175.2 363.462 10179 365.565 10181.5C368.09 10184.4 371.876 10185.7 376.503 10185.7Z" fill="#F9893D" fill-opacity="0.5"/>
<path d="M379.448 10297V10238.6H377.765L368.51 10260H355.469L369.351 10229.4H391.648V10297H379.448Z" fill="#F9893D" fill-opacity="0.5"/>
</g>
<g opacity="0.18">
<path d="M371.485 2854.98C361.688 2854.98 353.953 2852.41 347.766 2846.74C341.578 2841.08 339 2833.36 339 2822.03V2801.44C339 2790.62 342.094 2782.9 347.766 2777.24C353.438 2771.57 361.688 2769 371.485 2769C381.282 2769 389.016 2771.57 395.204 2777.24C400.876 2782.9 403.97 2791.14 403.97 2801.44V2822.03C403.97 2832.84 400.876 2841.08 395.204 2846.74C389.016 2852.41 381.282 2854.98 371.485 2854.98ZM371.485 2841.59C377.157 2841.59 381.797 2840.05 384.376 2836.96C386.954 2833.87 388.501 2829.24 388.501 2823.06V2800.92C388.501 2794.74 386.954 2790.11 383.86 2787.02C380.766 2783.93 376.641 2782.39 371.485 2782.39C365.813 2782.39 361.688 2783.93 358.594 2787.02C355.5 2790.11 353.953 2794.74 353.953 2800.41V2822.54C353.953 2828.72 355.5 2833.36 358.078 2836.45C361.172 2840.05 365.297 2841.59 371.485 2841.59Z" fill="#F9893D" fill-opacity="0.5"/>
<path d="M375.094 2978.03V2906.46H373.031L361.688 2932.72H345.703L362.719 2895.14H390.047V2978.03H375.094Z" fill="#F9893D" fill-opacity="0.5"/>
<path d="M371.485 3103.65C361.688 3103.65 353.953 3101.07 347.766 3095.41C341.578 3089.75 339 3082.03 339 3070.7V3050.11C339 3039.29 342.094 3031.57 347.766 3025.91C353.438 3020.24 361.688 3017.67 371.485 3017.67C381.282 3017.67 389.016 3020.24 395.204 3025.91C400.876 3031.57 403.97 3039.81 403.97 3050.11V3070.7C403.97 3081.51 400.876 3089.75 395.204 3095.41C389.016 3101.07 381.282 3103.65 371.485 3103.65ZM371.485 3090.26C377.157 3090.26 381.797 3088.72 384.376 3085.63C386.954 3082.54 388.501 3077.91 388.501 3071.73V3049.59C388.501 3043.41 386.954 3038.78 383.86 3035.69C380.766 3032.6 376.641 3031.06 371.485 3031.06C365.813 3031.06 361.688 3032.6 358.594 3035.69C355.5 3038.78 353.953 3043.41 353.953 3049.08V3071.21C353.953 3077.39 355.5 3082.03 358.078 3085.11C361.172 3088.72 365.297 3090.26 371.485 3090.26Z" fill="#F9893D" fill-opacity="0.5"/>
<path d="M375.094 3226.7V3154.62H373.031L361.688 3180.88H345.703L362.719 3143.29H390.047V3226.7H375.094Z" fill="#F9893D" fill-opacity="0.5"/>
<path d="M371.485 3352.32C361.688 3352.32 353.953 3349.75 347.766 3344.08C341.578 3338.42 339 3330.7 339 3319.37V3298.78C339 3287.97 342.094 3280.24 347.766 3274.58C353.438 3268.92 361.688 3266.34 371.485 3266.34C381.282 3266.34 389.016 3268.92 395.204 3274.58C400.876 3280.24 403.97 3288.48 403.97 3298.78V3319.37C403.97 3330.18 400.876 3338.42 395.204 3344.08C389.016 3349.75 381.282 3352.32 371.485 3352.32ZM371.485 3338.93C377.157 3338.93 381.797 3337.39 384.376 3334.3C386.954 3331.21 388.501 3326.58 388.501 3320.4V3298.26C388.501 3292.08 386.954 3287.45 383.86 3284.36C380.766 3281.27 376.641 3279.73 371.485 3279.73C365.813 3279.73 361.688 3281.27 358.594 3284.36C355.5 3287.45 353.953 3292.08 353.953 3297.75V3319.89C353.953 3326.06 355.5 3330.7 358.078 3333.79C361.172 3337.39 365.297 3338.93 371.485 3338.93Z" fill="#F9893D" fill-opacity="0.5"/>
<path d="M375.094 3475.37V3403.81H373.031L361.688 3430.06H345.703L362.719 3392.48H390.047V3475.37H375.094Z" fill="#F9893D" fill-opacity="0.5"/>
<path d="M371.485 3600.99C361.688 3600.99 353.953 3598.42 347.766 3592.75C341.578 3587.09 339 3579.37 339 3568.04V3547.45C339 3536.64 342.094 3528.91 347.766 3523.25C353.438 3517.59 361.688 3515.01 371.485 3515.01C381.282 3515.01 389.016 3517.59 395.204 3523.25C400.876 3528.91 403.97 3537.15 403.97 3547.45V3568.04C403.97 3578.85 400.876 3587.09 395.204 3592.75C389.016 3598.42 381.282 3600.99 371.485 3600.99ZM371.485 3587.6C377.157 3587.6 381.797 3586.06 384.376 3582.97C386.954 3579.88 388.501 3575.25 388.501 3569.07V3546.93C388.501 3540.75 386.954 3536.12 383.86 3533.03C380.766 3529.94 376.641 3528.4 371.485 3528.4C365.813 3528.4 361.688 3529.94 358.594 3533.03C355.5 3536.12 353.953 3540.75 353.953 3546.42V3568.56C353.953 3574.73 355.5 3579.37 358.078 3582.46C361.172 3586.06 365.297 3587.6 371.485 3587.6Z" fill="#F9893D" fill-opacity="0.5"/>
<path d="M375.094 3724.04V3652.48H373.031L361.688 3678.73H345.703L362.719 3641.15H390.047V3724.04H375.094Z" fill="#F9893D" fill-opacity="0.5"/>
<path d="M371.485 3849.66C361.688 3849.66 353.953 3847.09 347.766 3841.43C342.094 3836.28 339 3828.04 339 3816.71V3796.12C339 3785.31 342.094 3777.58 347.766 3771.92C353.438 3766.26 361.688 3763.68 371.485 3763.68C381.282 3763.68 389.016 3766.26 395.204 3771.92C400.876 3777.58 403.97 3785.82 403.97 3796.12V3816.71C403.97 3827.52 400.876 3835.76 395.204 3841.43C389.016 3847.09 381.282 3849.66 371.485 3849.66ZM371.485 3836.28C377.157 3836.28 381.797 3834.73 384.376 3831.64C386.954 3828.55 388.501 3823.92 388.501 3817.74V3795.6C388.501 3789.43 386.954 3784.79 383.86 3781.7C380.766 3778.61 376.641 3777.07 371.485 3777.07C365.813 3777.07 361.688 3778.61 358.594 3781.7C355.5 3784.79 353.953 3789.43 353.953 3795.09V3817.23C353.953 3823.41 355.5 3828.04 358.078 3831.13C361.172 3834.73 365.297 3836.28 371.485 3836.28Z" fill="#F9893D" fill-opacity="0.5"/>
<path d="M375.094 3972.71V3901.15H373.031L361.688 3927.4H345.703L362.719 3889.82H390.047V3972.71H375.094Z" fill="#F9893D" fill-opacity="0.5"/>
<path d="M371.485 4098.33C361.688 4098.33 353.953 4095.76 347.766 4090.1C342.094 4084.95 339 4076.71 339 4065.38V4044.79C339 4033.98 342.094 4026.25 347.766 4020.59C353.438 4014.93 361.688 4012.35 371.485 4012.35C381.282 4012.35 389.016 4014.93 395.204 4020.59C400.876 4026.25 403.97 4034.49 403.97 4044.79V4065.38C403.97 4076.19 400.876 4084.43 395.204 4090.1C389.016 4095.76 381.282 4098.33 371.485 4098.33ZM371.485 4084.95C377.157 4084.95 381.797 4083.4 384.376 4080.31C386.954 4077.22 388.501 4072.59 388.501 4066.41V4044.27C388.501 4038.1 386.954 4033.46 383.86 4030.37C380.766 4027.28 376.641 4025.74 371.485 4025.74C365.813 4025.74 361.688 4027.28 358.594 4030.37C355.5 4033.46 353.953 4038.1 353.953 4043.76V4065.9C353.953 4072.08 355.5 4076.71 358.078 4079.8C361.172 4083.4 365.297 4084.95 371.485 4084.95Z" fill="#F9893D" fill-opacity="0.5"/>
<path d="M375.094 4221.38V4149.82H373.031L361.688 4176.07H345.703L362.719 4138.49H390.047V4221.38H375.094Z" fill="#F9893D" fill-opacity="0.5"/>
<path d="M375.094 4345.46V4273.9H373.031L361.688 4300.15H345.703L362.719 4262.57H390.047V4345.46H375.094Z" fill="#F9893D" fill-opacity="0.5"/>
<path d="M375.094 4470.05V4398.49H373.031L361.688 4424.75H345.703L362.719 4387.16H390.047V4470.05H375.094Z" fill="#F9893D" fill-opacity="0.5"/>
<path d="M371.485 4595.67C361.688 4595.67 353.953 4593.1 347.766 4587.44C342.094 4581.77 339 4574.05 339 4562.72V4542.13C339 4531.32 342.094 4523.6 347.766 4517.93C353.438 4512.27 361.688 4509.7 371.485 4509.7C381.282 4509.7 389.016 4512.27 395.204 4517.93C400.876 4523.6 403.969 4531.83 403.969 4542.13V4562.72C403.969 4573.54 400.876 4581.77 395.204 4587.44C389.016 4593.1 381.282 4595.67 371.485 4595.67ZM371.485 4582.29C377.157 4582.29 381.797 4580.74 384.376 4577.65C386.954 4574.57 388.501 4569.93 388.501 4563.75V4541.62C388.501 4535.44 386.954 4530.8 383.86 4527.71C380.766 4524.63 376.641 4523.08 371.485 4523.08C365.813 4523.08 361.688 4524.63 358.594 4527.71C355.5 4530.8 353.953 4535.44 353.953 4541.1V4563.24C353.953 4569.42 355.5 4574.05 358.078 4577.14C361.172 4580.74 365.297 4582.29 371.485 4582.29Z" fill="#F9893D" fill-opacity="0.5"/>
<path opacity="0.78" d="M371.485 4720.27C361.688 4720.27 353.953 4717.69 347.766 4712.03C342.094 4706.88 339 4698.64 339 4687.32V4666.72C339 4655.91 342.094 4648.19 347.766 4642.52C353.438 4636.86 361.688 4634.29 371.485 4634.29C381.282 4634.29 389.016 4636.86 395.204 4642.52C400.876 4648.19 403.97 4656.43 403.97 4666.72V4687.32C403.97 4698.13 400.876 4706.37 395.204 4712.03C389.016 4717.69 381.282 4720.27 371.485 4720.27ZM371.485 4706.88C377.157 4706.88 381.797 4705.34 384.376 4702.25C386.954 4699.16 388.501 4694.52 388.501 4688.35V4666.21C388.501 4660.03 386.954 4655.4 383.86 4652.31C380.766 4649.22 376.641 4647.67 371.485 4647.67C365.813 4647.67 361.688 4649.22 358.594 4652.31C355.5 4655.4 353.953 4660.03 353.953 4665.69V4687.83C353.953 4694.01 355.5 4698.64 358.078 4701.73C361.172 4705.34 365.297 4706.88 371.485 4706.88Z" fill="#F9893D" fill-opacity="0.5"/>
<path opacity="0.78" d="M375.094 4842.8V4771.24H373.031L361.688 4797.49H345.703L362.719 4759.91H390.047V4842.8H375.094Z" fill="#F9893D" fill-opacity="0.5"/>
<path opacity="0.78" d="M371.485 4968.94C361.688 4968.94 353.953 4966.36 347.766 4960.7C342.094 4955.55 339 4947.31 339 4935.99V4915.39C339 4904.58 342.094 4896.86 347.766 4891.2C353.438 4885.53 361.688 4882.96 371.485 4882.96C381.282 4882.96 389.016 4885.53 395.204 4891.2C400.876 4896.86 403.97 4905.1 403.97 4915.39V4935.99C403.97 4946.8 400.876 4955.04 395.204 4960.7C389.016 4966.36 381.282 4968.94 371.485 4968.94ZM371.485 4955.55C377.157 4955.55 381.797 4954.01 384.376 4950.92C386.954 4947.83 388.501 4943.2 388.501 4937.02V4914.88C388.501 4908.7 386.954 4904.07 383.86 4900.98C380.766 4897.89 376.641 4896.34 371.485 4896.34C365.813 4896.34 361.688 4897.89 358.594 4900.98C355.5 4904.07 353.953 4908.7 353.953 4914.36V4936.5C353.953 4942.68 355.5 4947.31 358.078 4950.4C361.172 4954.01 365.297 4955.55 371.485 4955.55Z" fill="#F9893D" fill-opacity="0.5"/>
<path opacity="0.78" d="M375.094 5091.47V5019.91H373.031L361.688 5046.17H345.703L362.719 5008.58H390.047V5091.47H375.094Z" fill="#F9893D" fill-opacity="0.5"/>
<path opacity="0.78" d="M371.485 5217.61C361.688 5217.61 353.953 5215.03 347.766 5209.37C342.094 5203.71 339 5195.98 339 5184.66V5164.06C339 5153.25 342.094 5145.53 347.766 5139.87C353.438 5134.2 361.688 5131.63 371.485 5131.63C381.282 5131.63 389.016 5134.2 395.204 5139.87C400.876 5145.53 403.969 5153.77 403.969 5164.06V5184.66C403.969 5195.47 400.876 5203.71 395.204 5209.37C389.016 5215.03 381.282 5217.61 371.485 5217.61ZM371.485 5204.22C377.157 5204.22 381.797 5202.68 384.376 5199.59C386.954 5196.5 388.501 5191.87 388.501 5185.69V5163.55C388.501 5157.37 386.954 5152.74 383.86 5149.65C380.766 5146.56 376.641 5145.01 371.485 5145.01C365.813 5145.01 361.688 5146.56 358.594 5149.65C355.5 5152.74 353.953 5157.37 353.953 5163.03V5185.17C353.953 5191.35 355.5 5195.98 358.078 5199.07C361.172 5202.68 365.297 5204.22 371.485 5204.22Z" fill="#F9893D" fill-opacity="0.5"/>
<path opacity="0.78" d="M371.485 5341.69C361.688 5341.69 353.953 5339.11 347.766 5333.45C342.094 5328.3 339 5320.06 339 5308.74V5288.14C339 5277.33 342.094 5269.61 347.766 5263.94C353.438 5258.28 361.688 5255.71 371.485 5255.71C381.282 5255.71 389.016 5258.28 395.204 5263.94C400.876 5269.61 403.97 5277.85 403.97 5288.14V5308.74C403.97 5319.55 400.876 5327.79 395.204 5333.45C389.016 5339.11 381.282 5341.69 371.485 5341.69ZM371.485 5328.3C377.157 5328.3 381.797 5326.76 384.376 5323.67C386.954 5320.58 388.501 5315.94 388.501 5309.77V5287.63C388.501 5281.45 386.954 5276.82 383.86 5273.73C380.766 5270.64 376.641 5269.09 371.485 5269.09C365.813 5269.09 361.688 5270.64 358.594 5273.73C355.5 5276.82 353.953 5281.45 353.953 5287.11V5309.25C353.953 5315.43 355.5 5320.06 358.078 5323.15C361.172 5326.76 365.297 5328.3 371.485 5328.3Z" fill="#F9893D" fill-opacity="0.5"/>
<path opacity="0.78" d="M375.094 5464.73V5393.17H373.031L361.688 5419.43H345.703L362.719 5381.84H390.047V5464.73H375.094Z" fill="#F9893D" fill-opacity="0.5"/>
<path opacity="0.78" d="M371.485 5590.36C361.688 5590.36 353.953 5587.78 347.766 5582.12C342.094 5576.97 339 5568.73 339 5557.41V5536.81C339 5526 342.094 5518.28 347.766 5512.62C353.438 5506.95 361.688 5504.38 371.485 5504.38C381.282 5504.38 389.016 5506.95 395.204 5512.62C400.876 5518.28 403.97 5526.52 403.97 5536.81V5557.41C403.97 5568.22 400.876 5576.46 395.204 5582.12C389.016 5587.78 381.282 5590.36 371.485 5590.36ZM371.485 5576.97C377.157 5576.97 381.797 5575.43 384.376 5572.34C386.954 5569.25 388.501 5564.62 388.501 5558.44V5536.3C388.501 5530.12 386.954 5525.49 383.86 5522.4C380.766 5519.31 376.641 5517.76 371.485 5517.76C365.813 5517.76 361.688 5519.31 358.594 5522.4C355.5 5525.49 353.953 5530.12 353.953 5535.78V5557.92C353.953 5564.1 355.5 5568.73 358.078 5571.82C361.172 5575.43 365.297 5576.97 371.485 5576.97Z" fill="#F9893D" fill-opacity="0.5"/>
<path opacity="0.78" d="M375.094 5713.4V5641.33H373.031L361.688 5667.58H345.703L362.719 5630H390.047V5712.89H375.094V5713.4Z" fill="#F9893D" fill-opacity="0.5"/>
<path opacity="0.78" d="M371.485 5839.03C361.688 5839.03 353.953 5836.45 347.766 5830.79C342.094 5825.13 339 5817.4 339 5806.08V5785.48C339 5774.67 342.094 5766.95 347.766 5761.29C353.438 5755.62 361.688 5753.05 371.485 5753.05C381.282 5753.05 389.016 5755.62 395.204 5761.29C400.876 5766.95 403.97 5775.19 403.97 5785.48V5806.08C403.97 5816.89 400.876 5825.13 395.204 5830.79C389.016 5836.45 381.282 5839.03 371.485 5839.03ZM371.485 5825.64C377.157 5825.64 381.797 5824.1 384.376 5821.01C386.954 5817.92 388.501 5813.29 388.501 5807.11V5784.97C388.501 5778.79 386.954 5774.16 383.86 5771.07C380.766 5767.98 376.641 5766.44 371.485 5766.44C365.813 5766.44 361.688 5767.98 358.594 5771.07C355.5 5774.16 353.953 5778.79 353.953 5784.45V5806.59C353.953 5812.77 355.5 5817.41 358.078 5820.49C361.172 5824.1 365.297 5825.64 371.485 5825.64Z" fill="#F9893D" fill-opacity="0.5"/>
<path opacity="0.78" d="M375.094 5962.08V5890.51H373.031L361.688 5916.77H345.703L362.719 5879.19H390.047V5962.08H375.094Z" fill="#F9893D" fill-opacity="0.5"/>
<path d="M371.485 6087.7C361.688 6087.7 353.953 6085.12 347.766 6079.46C342.094 6073.8 339 6066.07 339 6054.75V6034.15C339 6023.34 342.094 6015.62 347.766 6009.96C353.438 6004.29 361.688 6001.72 371.485 6001.72C381.282 6001.72 389.016 6004.29 395.204 6009.96C400.876 6015.62 403.97 6023.86 403.97 6034.15V6054.75C403.97 6065.56 400.876 6073.8 395.204 6079.46C389.016 6085.12 381.282 6087.7 371.485 6087.7ZM371.485 6074.31C377.157 6074.31 381.797 6072.77 384.376 6069.68C386.954 6066.59 388.501 6061.96 388.501 6055.78V6033.64C388.501 6027.46 386.954 6022.83 383.86 6019.74C380.766 6016.65 376.641 6015.1 371.485 6015.1C365.813 6015.1 361.688 6016.65 358.594 6019.74C355.5 6022.83 353.953 6027.46 353.953 6033.12V6055.26C353.953 6061.44 355.5 6066.07 358.078 6069.16C361.172 6072.77 365.297 6074.31 371.485 6074.31Z" fill="#F9893D" fill-opacity="0.5"/>
<path d="M375.094 6210.75V6139.18H373.031L361.688 6165.44H345.703L362.719 6127.86H390.047V6210.75H375.094Z" fill="#F9893D" fill-opacity="0.5"/>
</g>
<g opacity="0.46">
<path d="M62.1567 5243.91C50.8128 5243.91 41.5315 5240.82 34.3126 5234.64C27.0938 5228.46 24 5218.68 24 5205.81V5181.1C24 5168.74 27.6094 5158.96 34.3126 5152.78C41.0158 5146.6 50.2972 5143 62.1567 5143C74.0162 5143 82.7819 5146.09 90.0008 5152.78C97.2196 5159.48 100.313 5168.74 100.313 5181.1V5205.81C100.313 5218.68 96.704 5228.46 90.0008 5234.64C83.2976 5240.82 73.5006 5243.91 62.1567 5243.91ZM62.1567 5227.95C69.3755 5227.95 74.0162 5225.89 77.6256 5222.29C80.7194 5218.68 82.7819 5213.02 82.7819 5205.81V5180.07C82.7819 5172.86 80.7194 5167.71 77.11 5164.11C73.5006 5160.5 68.3443 5158.45 62.1567 5158.45C55.9691 5158.45 50.8128 5160.5 47.2034 5164.11C43.594 5167.71 42.0471 5173.38 42.0471 5180.07V5205.81C42.0471 5213.02 43.594 5218.68 47.2034 5222.29C50.2972 5226.41 55.4535 5227.95 62.1567 5227.95Z" fill="#F9893D" fill-opacity="0.5"/>
<path opacity="0.73" d="M66.2816 5388.07V5303.63H63.7035L50.8127 5334.52H32.25L52.3596 5290.76H84.3287V5388.07H66.2816Z" fill="#F9893D" fill-opacity="0.5"/>
<path opacity="0.73" d="M62.1567 5535.83C50.8128 5535.83 41.5315 5532.74 34.3126 5526.56C27.0938 5520.38 24 5510.6 24 5497.73V5473.02C24 5460.66 27.6094 5450.88 34.3126 5444.7C41.0158 5438.52 50.2972 5434.92 62.1567 5434.92C74.0162 5434.92 82.7819 5438.01 90.0008 5444.7C97.2196 5451.39 100.313 5460.66 100.313 5473.02V5497.73C100.313 5510.6 96.704 5520.38 90.0008 5526.56C82.7819 5532.74 73.5006 5535.83 62.1567 5535.83ZM62.1567 5519.87C69.3755 5519.87 74.0162 5517.81 77.6256 5514.2C80.7194 5510.6 82.7819 5504.94 82.7819 5497.73V5471.99C82.7819 5464.78 80.7194 5459.63 77.11 5456.03C73.5006 5452.42 68.3443 5450.36 62.1567 5450.36C55.9691 5450.36 50.8128 5452.42 47.2034 5456.03C43.594 5459.63 42.0471 5465.29 42.0471 5471.99V5497.73C42.0471 5504.94 43.594 5510.6 47.2034 5514.2C50.2972 5518.32 55.4535 5519.87 62.1567 5519.87Z" fill="#F9893D" fill-opacity="0.5"/>
<path opacity="0.73" d="M66.2816 5679.99V5595.55H63.7035L50.8127 5626.44H32.25L52.3596 5582.68H84.3287V5679.99H66.2816Z" fill="#F9893D" fill-opacity="0.5"/>
<path opacity="0.73" d="M62.1567 5827.75C50.8128 5827.75 41.5315 5824.66 34.3126 5818.48C27.0938 5812.3 24 5802.52 24 5789.65V5764.93C24 5752.58 27.6094 5742.8 34.3126 5736.62C41.5315 5729.93 50.2972 5726.84 62.1567 5726.84C74.0162 5726.84 82.7819 5729.93 90.0008 5736.62C96.704 5743.31 100.313 5752.58 100.313 5764.93V5789.65C100.313 5802.52 96.704 5812.3 90.0008 5818.48C82.7819 5824.66 73.5006 5827.75 62.1567 5827.75ZM62.1567 5811.79C69.3755 5811.79 74.0162 5809.73 77.6256 5806.12C80.7194 5802.52 82.7819 5796.86 82.7819 5789.65V5763.9C82.7819 5756.7 80.7194 5751.55 77.11 5747.94C73.5006 5744.34 68.3443 5742.28 62.1567 5742.28C55.9691 5742.28 50.8128 5744.34 47.2034 5747.94C43.594 5751.55 42.0471 5757.21 42.0471 5763.9V5789.65C42.0471 5796.86 43.594 5802.52 47.2034 5806.12C50.2972 5810.24 55.4535 5811.79 62.1567 5811.79Z" fill="#F9893D" fill-opacity="0.5"/>
<path d="M66.2816 5971.9V5887.47H63.7035L50.8127 5918.36H32.25L52.3596 5874.6H84.3287V5971.9H66.2816Z" fill="#F9893D" fill-opacity="0.5"/>
<path d="M62.1567 6119.66C50.8128 6119.66 41.5315 6116.57 34.3126 6110.4C27.0938 6104.22 24 6094.44 24 6081.57V6056.85C24 6044.5 27.6094 6034.71 34.3126 6028.54C41.5315 6021.84 50.2972 6018.75 62.1567 6018.75C74.0162 6018.75 82.7819 6021.84 90.0008 6028.54C96.704 6035.23 100.313 6044.5 100.313 6056.85V6081.57C100.313 6094.44 96.704 6104.22 90.0008 6110.4C82.7819 6116.57 73.5006 6119.66 62.1567 6119.66ZM62.1567 6103.7C69.3755 6103.7 74.0162 6101.64 77.6256 6098.04C80.7194 6094.44 82.7819 6088.77 82.7819 6081.57V6055.82C82.7819 6048.62 80.7194 6043.47 77.11 6039.86C73.5006 6036.26 68.3443 6034.2 62.1567 6034.2C55.9691 6034.2 50.8128 6036.26 47.2034 6039.86C43.594 6043.47 42.0471 6049.13 42.0471 6055.82V6081.57C42.0471 6088.77 43.594 6094.44 47.2034 6098.04C50.2972 6102.16 55.4535 6103.7 62.1567 6103.7Z" fill="#F9893D" fill-opacity="0.5"/>
<path opacity="0.78" d="M66.2816 6263.82V6179.38H63.7035L50.8127 6210.28H32.25L52.3596 6166.51H84.3287V6263.82H66.2816Z" fill="#F9893D" fill-opacity="0.5"/>
<path opacity="0.78" d="M62.1567 6411.58C50.8128 6411.58 41.5315 6408.49 34.3126 6402.31C27.0938 6396.14 24 6386.35 24 6373.48V6348.77C24 6336.41 27.6094 6326.63 34.3126 6320.45C41.0158 6314.28 50.2972 6310.67 62.1567 6310.67C74.0162 6310.67 82.7819 6313.76 90.0008 6320.45C97.2196 6327.15 100.313 6336.41 100.313 6348.77V6373.48C100.313 6386.35 96.704 6396.14 90.0008 6402.31C82.7819 6408.49 73.5006 6411.58 62.1567 6411.58ZM62.1567 6395.62C69.3755 6395.62 74.0162 6393.56 77.6256 6389.96C80.7194 6386.35 82.7819 6380.69 82.7819 6373.48V6347.74C82.7819 6340.53 80.7194 6335.38 77.11 6331.78C73.5006 6328.18 68.3443 6326.12 62.1567 6326.12C55.9691 6326.12 50.8128 6328.18 47.2034 6331.78C43.594 6335.38 42.0471 6341.05 42.0471 6347.74V6373.48C42.0471 6380.69 43.594 6386.35 47.2034 6389.96C50.2972 6394.08 55.4535 6395.62 62.1567 6395.62Z" fill="#F9893D" fill-opacity="0.5"/>
<path opacity="0.78" d="M66.2816 6555.74V6471.3H63.7035L50.8127 6502.19H32.25L52.3596 6458.43H84.3287V6555.74H66.2816Z" fill="#F9893D" fill-opacity="0.5"/>
<path opacity="0.78" d="M62.1567 6703.5C50.8128 6703.5 41.5315 6700.41 34.3126 6694.23C27.0938 6688.05 24 6678.27 24 6665.4V6640.69C24 6628.33 27.6094 6618.55 34.3126 6612.37C41.0158 6606.19 50.2972 6602.59 62.1567 6602.59C74.0162 6602.59 82.7819 6605.68 90.0008 6612.37C97.2196 6619.06 100.313 6628.33 100.313 6640.69V6665.4C100.313 6678.27 96.704 6688.05 90.0008 6694.23C83.2976 6700.41 73.5006 6703.5 62.1567 6703.5ZM62.1567 6687.54C69.3755 6687.54 74.0162 6685.48 77.6256 6681.87C80.7194 6678.27 82.7819 6672.61 82.7819 6665.4V6639.66C82.7819 6632.45 80.7194 6627.3 77.11 6623.7C73.5006 6620.09 68.3443 6618.03 62.1567 6618.03C55.9691 6618.03 50.8128 6620.09 47.2034 6623.7C43.594 6627.3 42.0471 6632.96 42.0471 6639.66V6665.4C42.0471 6672.61 43.594 6678.27 47.2034 6681.87C50.2972 6685.99 55.4535 6687.54 62.1567 6687.54Z" fill="#F9893D" fill-opacity="0.5"/>
<path d="M66.2816 6847.66V6763.22H63.7035L50.8127 6794.11H32.25L52.3596 6750.35H84.3287V6847.66H66.2816Z" fill="#F9893D" fill-opacity="0.5"/>
<path d="M66.2816 6993.36V6908.92H63.7035L50.8127 6939.81H32.25L52.3596 6896.05H84.3287V6993.36H66.2816Z" fill="#F9893D" fill-opacity="0.5"/>
<path d="M66.2816 7139.57V7055.14H63.7035L50.8127 7086.03H32.25L52.3596 7042.27H84.3287V7139.57H66.2816Z" fill="#F9893D" fill-opacity="0.5"/>
<path d="M62.1567 7287.33C50.8128 7287.33 41.5315 7284.24 34.3126 7278.07C27.0938 7271.89 24 7262.11 24 7249.23V7224.52C24 7212.17 27.6094 7202.38 34.3126 7196.21C41.5315 7189.51 50.2972 7186.42 62.1567 7186.42C74.0162 7186.42 82.7819 7189.51 90.0008 7196.21C96.704 7202.9 100.313 7212.17 100.313 7224.52V7249.23C100.313 7262.11 96.704 7271.89 90.0008 7278.07C82.7819 7284.24 73.5006 7287.33 62.1567 7287.33ZM62.1567 7271.37C69.3755 7271.37 74.0162 7269.31 77.6256 7265.71C80.7194 7262.11 82.7819 7256.44 82.7819 7249.23V7223.49C82.7819 7216.28 80.7194 7211.14 77.11 7207.53C73.5006 7203.93 68.3443 7201.87 62.1567 7201.87C55.9691 7201.87 50.8128 7203.93 47.2034 7207.53C43.594 7211.14 42.0471 7216.8 42.0471 7223.49V7249.23C42.0471 7256.44 43.594 7262.11 47.2034 7265.71C50.2972 7269.83 55.4535 7271.37 62.1567 7271.37Z" fill="#F9893D" fill-opacity="0.5"/>
<path d="M62.1567 7433.55C50.8128 7433.55 41.5315 7430.46 34.3126 7424.28C27.0938 7418.1 24 7408.32 24 7395.45V7370.74C24 7358.38 27.6094 7348.6 34.3126 7342.42C41.0158 7336.24 50.2972 7332.64 62.1567 7332.64C74.0162 7332.64 82.7819 7335.73 90.0008 7342.42C97.2196 7349.12 100.313 7358.38 100.313 7370.74V7395.45C100.313 7408.32 96.704 7418.1 90.0008 7424.28C83.2976 7430.46 73.5006 7433.55 62.1567 7433.55ZM62.1567 7417.59C69.3755 7417.59 74.0162 7415.53 77.6256 7411.93C80.7194 7408.32 82.7819 7402.66 82.7819 7395.45V7369.71C82.7819 7362.5 80.7194 7357.35 77.11 7353.75C73.5006 7350.15 68.3443 7348.09 62.1567 7348.09C55.9691 7348.09 50.8128 7350.15 47.2034 7353.75C43.594 7357.35 42.0471 7363.02 42.0471 7369.71V7395.45C42.0471 7402.66 43.594 7408.32 47.2034 7411.93C50.2972 7415.53 55.4535 7417.59 62.1567 7417.59Z" fill="#F9893D" fill-opacity="0.5"/>
<path d="M66.2816 7577.19V7492.76H63.7035L50.8127 7523.65H32.25L52.3596 7479.89H84.3287V7577.19H66.2816Z" fill="#F9893D" fill-opacity="0.5"/>
</g>
<g opacity="0.46">
<path d="M178.469 4521.91C167.125 4521.91 157.845 4518.82 150.626 4512.64C143.407 4506.46 140.312 4496.68 140.312 4483.81V4459.1C140.312 4446.74 143.923 4436.96 150.626 4430.78C157.329 4424.6 166.61 4421 178.469 4421C190.329 4421 199.095 4424.09 206.314 4430.78C213.533 4437.48 216.627 4446.74 216.627 4459.1V4483.81C216.627 4496.68 213.017 4506.46 206.314 4512.64C199.611 4518.82 189.813 4521.91 178.469 4521.91ZM178.469 4505.95C185.688 4505.95 190.33 4503.89 193.939 4500.29C197.033 4496.68 199.094 4491.02 199.094 4483.81V4458.07C199.094 4450.86 197.033 4445.71 193.423 4442.11C189.814 4438.5 184.657 4436.45 178.469 4436.45C172.282 4436.45 167.126 4438.5 163.517 4442.11C159.907 4445.71 158.361 4451.38 158.361 4458.07V4483.81C158.361 4491.02 159.907 4496.68 163.517 4500.29C166.611 4504.41 171.766 4505.95 178.469 4505.95Z" fill="#F9893D" fill-opacity="0.5"/>
<path opacity="0.73" d="M182.594 4666.07V4581.63H180.017L167.126 4612.52H148.562L168.673 4568.76H200.642V4666.07H182.594Z" fill="#F9893D" fill-opacity="0.5"/>
<path opacity="0.73" d="M178.469 4813.83C167.125 4813.83 157.845 4810.74 150.626 4804.56C143.407 4798.38 140.312 4788.6 140.312 4775.73V4751.02C140.312 4738.66 143.923 4728.88 150.626 4722.7C157.329 4716.52 166.61 4712.92 178.469 4712.92C190.329 4712.92 199.095 4716.01 206.314 4722.7C213.533 4729.39 216.627 4738.66 216.627 4751.02V4775.73C216.627 4788.6 213.017 4798.38 206.314 4804.56C199.095 4810.74 189.813 4813.83 178.469 4813.83ZM178.469 4797.87C185.688 4797.87 190.33 4795.81 193.939 4792.2C197.033 4788.6 199.094 4782.94 199.094 4775.73V4749.99C199.094 4742.78 197.033 4737.63 193.423 4734.03C189.814 4730.42 184.657 4728.36 178.469 4728.36C172.282 4728.36 167.126 4730.42 163.517 4734.03C159.907 4737.63 158.361 4743.29 158.361 4749.99V4775.73C158.361 4782.94 159.907 4788.6 163.517 4792.2C166.611 4796.32 171.766 4797.87 178.469 4797.87Z" fill="#F9893D" fill-opacity="0.5"/>
<path opacity="0.73" d="M182.594 4957.99V4873.55H180.017L167.126 4904.44H148.562L168.673 4860.68H200.642V4957.99H182.594Z" fill="#F9893D" fill-opacity="0.5"/>
<path opacity="0.73" d="M178.469 5105.75C167.125 5105.75 157.845 5102.66 150.626 5096.48C143.407 5090.3 140.312 5080.52 140.312 5067.65V5042.93C140.312 5030.58 143.923 5020.8 150.626 5014.62C157.845 5007.93 166.61 5004.84 178.469 5004.84C190.329 5004.84 199.095 5007.93 206.314 5014.62C213.017 5021.31 216.627 5030.58 216.627 5042.93V5067.65C216.627 5080.52 213.017 5090.3 206.314 5096.48C199.095 5102.66 189.813 5105.75 178.469 5105.75ZM178.469 5089.79C185.688 5089.79 190.33 5087.73 193.939 5084.12C197.033 5080.52 199.094 5074.86 199.094 5067.65V5041.9C199.094 5034.7 197.033 5029.55 193.423 5025.94C189.814 5022.34 184.657 5020.28 178.469 5020.28C172.282 5020.28 167.126 5022.34 163.517 5025.94C159.907 5029.55 158.361 5035.21 158.361 5041.9V5067.65C158.361 5074.86 159.907 5080.52 163.517 5084.12C166.611 5088.24 171.766 5089.79 178.469 5089.79Z" fill="#F9893D" fill-opacity="0.5"/>
<path d="M182.594 5249.9V5165.47H180.017L167.126 5196.36H148.562L168.673 5152.6H200.642V5249.9H182.594Z" fill="#F9893D" fill-opacity="0.5"/>
<path d="M178.469 5397.66C167.125 5397.66 157.845 5394.57 150.626 5388.4C143.407 5382.22 140.312 5372.44 140.312 5359.57V5334.85C140.312 5322.5 143.923 5312.71 150.626 5306.54C157.845 5299.84 166.61 5296.75 178.469 5296.75C190.329 5296.75 199.095 5299.84 206.314 5306.54C213.017 5313.23 216.627 5322.5 216.627 5334.85V5359.57C216.627 5372.44 213.017 5382.22 206.314 5388.4C199.095 5394.57 189.813 5397.66 178.469 5397.66ZM178.469 5381.7C185.688 5381.7 190.33 5379.64 193.939 5376.04C197.033 5372.44 199.094 5366.77 199.094 5359.57V5333.82C199.094 5326.62 197.033 5321.47 193.423 5317.86C189.814 5314.26 184.657 5312.2 178.469 5312.2C172.282 5312.2 167.126 5314.26 163.517 5317.86C159.907 5321.47 158.361 5327.13 158.361 5333.82V5359.57C158.361 5366.77 159.907 5372.44 163.517 5376.04C166.611 5380.16 171.766 5381.7 178.469 5381.7Z" fill="#F9893D" fill-opacity="0.5"/>
<path opacity="0.78" d="M182.594 5541.82V5457.38H180.017L167.126 5488.28H148.562L168.673 5444.51H200.642V5541.82H182.594Z" fill="#F9893D" fill-opacity="0.5"/>
<path opacity="0.78" d="M178.469 5689.58C167.125 5689.58 157.845 5686.49 150.626 5680.31C143.407 5674.14 140.312 5664.35 140.312 5651.48V5626.77C140.312 5614.41 143.923 5604.63 150.626 5598.45C157.329 5592.28 166.61 5588.67 178.469 5588.67C190.329 5588.67 199.095 5591.76 206.314 5598.45C213.533 5605.15 216.627 5614.41 216.627 5626.77V5651.48C216.627 5664.35 213.017 5674.14 206.314 5680.31C199.095 5686.49 189.813 5689.58 178.469 5689.58ZM178.469 5673.62C185.688 5673.62 190.33 5671.56 193.939 5667.96C197.033 5664.35 199.094 5658.69 199.094 5651.48V5625.74C199.094 5618.53 197.033 5613.38 193.423 5609.78C189.814 5606.18 184.657 5604.12 178.469 5604.12C172.282 5604.12 167.126 5606.18 163.517 5609.78C159.907 5613.38 158.361 5619.05 158.361 5625.74V5651.48C158.361 5658.69 159.907 5664.35 163.517 5667.96C166.611 5672.08 171.766 5673.62 178.469 5673.62Z" fill="#F9893D" fill-opacity="0.5"/>
<path opacity="0.78" d="M182.594 5833.74V5749.3H180.017L167.126 5780.19H148.562L168.673 5736.43H200.642V5833.74H182.594Z" fill="#F9893D" fill-opacity="0.5"/>
<path opacity="0.78" d="M178.469 5981.5C167.125 5981.5 157.845 5978.41 150.626 5972.23C143.407 5966.05 140.312 5956.27 140.312 5943.4V5918.69C140.312 5906.33 143.923 5896.55 150.626 5890.37C157.329 5884.19 166.61 5880.59 178.469 5880.59C190.329 5880.59 199.095 5883.68 206.314 5890.37C213.533 5897.06 216.627 5906.33 216.627 5918.69V5943.4C216.627 5956.27 213.017 5966.05 206.314 5972.23C199.611 5978.41 189.813 5981.5 178.469 5981.5ZM178.469 5965.54C185.688 5965.54 190.33 5963.48 193.939 5959.87C197.033 5956.27 199.094 5950.61 199.094 5943.4V5917.66C199.094 5910.45 197.033 5905.3 193.423 5901.7C189.814 5898.09 184.657 5896.03 178.469 5896.03C172.282 5896.03 167.126 5898.09 163.517 5901.7C159.907 5905.3 158.361 5910.96 158.361 5917.66V5943.4C158.361 5950.61 159.907 5956.27 163.517 5959.87C166.611 5963.99 171.766 5965.54 178.469 5965.54Z" fill="#F9893D" fill-opacity="0.5"/>
<path d="M182.594 6125.66V6041.22H180.017L167.126 6072.11H148.562L168.673 6028.35H200.642V6125.66H182.594Z" fill="#F9893D" fill-opacity="0.5"/>
<path d="M182.594 6271.36V6186.92H180.017L167.126 6217.81H148.562L168.673 6174.05H200.642V6271.36H182.594Z" fill="#F9893D" fill-opacity="0.5"/>
<path d="M182.594 6417.57V6333.14H180.017L167.126 6364.03H148.562L168.673 6320.27H200.642V6417.57H182.594Z" fill="#F9893D" fill-opacity="0.5"/>
<path d="M178.469 6565.33C167.125 6565.33 157.845 6562.24 150.626 6556.07C143.407 6549.89 140.312 6540.11 140.312 6527.23V6502.52C140.312 6490.17 143.923 6480.38 150.626 6474.21C157.845 6467.51 166.61 6464.42 178.469 6464.42C190.329 6464.42 199.095 6467.51 206.314 6474.21C213.017 6480.9 216.627 6490.17 216.627 6502.52V6527.23C216.627 6540.11 213.017 6549.89 206.314 6556.07C199.095 6562.24 189.813 6565.33 178.469 6565.33ZM178.469 6549.37C185.688 6549.37 190.33 6547.31 193.939 6543.71C197.033 6540.11 199.094 6534.44 199.094 6527.23V6501.49C199.094 6494.28 197.033 6489.14 193.423 6485.53C189.814 6481.93 184.657 6479.87 178.469 6479.87C172.282 6479.87 167.126 6481.93 163.517 6485.53C159.907 6489.14 158.361 6494.8 158.361 6501.49V6527.23C158.361 6534.44 159.907 6540.11 163.517 6543.71C166.611 6547.83 171.766 6549.37 178.469 6549.37Z" fill="#F9893D" fill-opacity="0.5"/>
<path d="M178.469 6711.55C167.125 6711.55 157.845 6708.46 150.626 6702.28C143.407 6696.1 140.312 6686.32 140.312 6673.45V6648.74C140.312 6636.38 143.923 6626.6 150.626 6620.42C157.329 6614.24 166.61 6610.64 178.469 6610.64C190.329 6610.64 199.095 6613.73 206.314 6620.42C213.533 6627.12 216.627 6636.38 216.627 6648.74V6673.45C216.627 6686.32 213.017 6696.1 206.314 6702.28C199.611 6708.46 189.813 6711.55 178.469 6711.55ZM178.469 6695.59C185.688 6695.59 190.33 6693.53 193.939 6689.93C197.033 6686.32 199.094 6680.66 199.094 6673.45V6647.71C199.094 6640.5 197.033 6635.35 193.423 6631.75C189.814 6628.15 184.657 6626.09 178.469 6626.09C172.282 6626.09 167.126 6628.15 163.517 6631.75C159.907 6635.35 158.361 6641.02 158.361 6647.71V6673.45C158.361 6680.66 159.907 6686.32 163.517 6689.93C166.611 6693.53 171.766 6695.59 178.469 6695.59Z" fill="#F9893D" fill-opacity="0.5"/>
<path d="M182.594 6855.19V6770.76H180.017L167.126 6801.65H148.562L168.673 6757.89H200.642V6855.19H182.594Z" fill="#F9893D" fill-opacity="0.5"/>
</g>
</g>
<defs>
<clipPath id="clip0_338_1927">
<rect width="428" height="12046" fill="white"/>
</clipPath>
</defs>
</svg>
