<svg width="968" height="7585" viewBox="0 0 968 7585" fill="none" xmlns="http://www.w3.org/2000/svg">
<g clip-path="url(#clip0_338_1586)">
<path d="M968 0H0V7585H968V0Z" fill="#1A1A1A"/>
<mask id="mask0_338_1586" style="mask-type:luminance" maskUnits="userSpaceOnUse" x="0" y="1" width="968" height="7553">
<path d="M968 1H0V7554H968V1Z" fill="white"/>
</mask>
<g mask="url(#mask0_338_1586)">
<g opacity="0.46">
<path d="M136.1 5244.91C124.773 5244.91 115.506 5241.82 108.297 5235.64C101.089 5229.46 98 5219.68 98 5206.81V5182.1C98 5169.74 101.604 5159.96 108.297 5153.78C114.991 5147.6 124.258 5144 136.1 5144C147.942 5144 156.695 5147.09 163.903 5153.78C171.112 5160.48 174.201 5169.74 174.201 5182.1V5206.81C174.201 5219.68 170.597 5229.46 163.903 5235.64C157.21 5241.82 147.428 5244.91 136.1 5244.91ZM136.1 5228.95C143.309 5228.95 147.942 5226.89 151.547 5223.29C154.636 5219.68 156.695 5214.02 156.695 5206.81V5181.07C156.695 5173.86 154.636 5168.71 151.032 5165.11C147.428 5161.5 142.279 5159.45 136.1 5159.45C129.922 5159.45 124.773 5161.5 121.169 5165.11C117.565 5168.71 116.02 5174.38 116.02 5181.07V5206.81C116.02 5214.02 117.565 5219.68 121.169 5223.29C124.258 5227.41 129.407 5228.95 136.1 5228.95Z" fill="#F9893D" fill-opacity="0.5"/>
<path opacity="0.73" d="M140.216 5389.07V5304.63H137.641L124.77 5335.52H106.234L126.314 5291.76H158.236V5389.07H140.216Z" fill="#F9893D" fill-opacity="0.5"/>
<path opacity="0.73" d="M136.1 5536.83C124.773 5536.83 115.506 5533.74 108.297 5527.56C101.089 5521.38 98 5511.6 98 5498.73V5474.02C98 5461.66 101.604 5451.88 108.297 5445.7C114.991 5439.52 124.258 5435.92 136.1 5435.92C147.942 5435.92 156.695 5439.01 163.903 5445.7C171.112 5452.39 174.201 5461.66 174.201 5474.02V5498.73C174.201 5511.6 170.597 5521.38 163.903 5527.56C156.695 5533.74 147.428 5536.83 136.1 5536.83ZM136.1 5520.87C143.309 5520.87 147.942 5518.81 151.547 5515.2C154.636 5511.6 156.695 5505.94 156.695 5498.73V5472.99C156.695 5465.78 154.636 5460.63 151.032 5457.03C147.428 5453.42 142.279 5451.36 136.1 5451.36C129.922 5451.36 124.773 5453.42 121.169 5457.03C117.565 5460.63 116.02 5466.29 116.02 5472.99V5498.73C116.02 5505.94 117.565 5511.6 121.169 5515.2C124.258 5519.32 129.407 5520.87 136.1 5520.87Z" fill="#F9893D" fill-opacity="0.5"/>
<path opacity="0.73" d="M140.216 5680.98V5596.55H137.641L124.77 5627.44H106.234L126.314 5583.68H158.236V5680.98H140.216Z" fill="#F9893D" fill-opacity="0.5"/>
<path opacity="0.73" d="M136.1 5828.74C124.773 5828.74 115.506 5825.66 108.297 5819.48C101.089 5813.3 98 5803.52 98 5790.65V5765.93C98 5753.58 101.604 5743.8 108.297 5737.62C115.506 5730.92 124.258 5727.83 136.1 5727.83C147.942 5727.83 156.695 5730.92 163.903 5737.62C170.597 5744.31 174.201 5753.58 174.201 5765.93V5790.65C174.201 5803.52 170.597 5813.3 163.903 5819.48C156.695 5825.66 147.428 5828.74 136.1 5828.74ZM136.1 5812.78C143.309 5812.78 147.942 5810.73 151.547 5807.12C154.636 5803.52 156.695 5797.85 156.695 5790.65V5764.9C156.695 5757.7 154.636 5752.55 151.032 5748.94C147.428 5745.34 142.279 5743.28 136.1 5743.28C129.922 5743.28 124.773 5745.34 121.169 5748.94C117.565 5752.55 116.02 5758.21 116.02 5764.9V5790.65C116.02 5797.85 117.565 5803.52 121.169 5807.12C124.258 5811.24 129.407 5812.78 136.1 5812.78Z" fill="#F9893D" fill-opacity="0.5"/>
<path d="M140.216 5972.9V5888.47H137.641L124.77 5919.36H106.234L126.314 5875.6H158.236V5972.9H140.216Z" fill="#F9893D" fill-opacity="0.5"/>
<path d="M136.1 6120.66C124.773 6120.66 115.506 6117.57 108.297 6111.4C101.089 6105.22 98 6095.44 98 6082.56V6057.85C98 6045.5 101.604 6035.71 108.297 6029.54C115.506 6022.84 124.258 6019.75 136.1 6019.75C147.942 6019.75 156.695 6022.84 163.903 6029.54C170.597 6036.23 174.201 6045.5 174.201 6057.85V6082.56C174.201 6095.44 170.597 6105.22 163.903 6111.4C156.695 6117.57 147.428 6120.66 136.1 6120.66ZM136.1 6104.7C143.309 6104.7 147.942 6102.64 151.547 6099.04C154.636 6095.44 156.695 6089.77 156.695 6082.56V6056.82C156.695 6049.61 154.636 6044.47 151.032 6040.86C147.428 6037.26 142.279 6035.2 136.1 6035.2C129.922 6035.2 124.773 6037.26 121.169 6040.86C117.565 6044.47 116.02 6050.13 116.02 6056.82V6082.56C116.02 6089.77 117.565 6095.44 121.169 6099.04C124.258 6103.16 129.407 6104.7 136.1 6104.7Z" fill="#F9893D" fill-opacity="0.5"/>
<path opacity="0.78" d="M140.216 6264.82V6180.38H137.641L124.77 6211.28H106.234L126.314 6167.51H158.236V6264.82H140.216Z" fill="#F9893D" fill-opacity="0.5"/>
<path opacity="0.78" d="M136.1 6412.58C124.773 6412.58 115.506 6409.49 108.297 6403.31C101.089 6397.13 98 6387.35 98 6374.48V6349.77C98 6337.41 101.604 6327.63 108.297 6321.45C114.991 6315.27 124.258 6311.67 136.1 6311.67C147.942 6311.67 156.695 6314.76 163.903 6321.45C171.112 6328.15 174.201 6337.41 174.201 6349.77V6374.48C174.201 6387.35 170.597 6397.13 163.903 6403.31C156.695 6409.49 147.428 6412.58 136.1 6412.58ZM136.1 6396.62C143.309 6396.62 147.942 6394.56 151.547 6390.96C154.636 6387.35 156.695 6381.69 156.695 6374.48V6348.74C156.695 6341.53 154.636 6336.38 151.032 6332.78C147.428 6329.18 142.279 6327.12 136.1 6327.12C129.922 6327.12 124.773 6329.18 121.169 6332.78C117.565 6336.38 116.02 6342.05 116.02 6348.74V6374.48C116.02 6381.69 117.565 6387.35 121.169 6390.96C124.258 6395.08 129.407 6396.62 136.1 6396.62Z" fill="#F9893D" fill-opacity="0.5"/>
<path opacity="0.78" d="M140.216 6556.74V6472.3H137.641L124.77 6503.19H106.234L126.314 6459.43H158.236V6556.74H140.216Z" fill="#F9893D" fill-opacity="0.5"/>
<path opacity="0.78" d="M136.1 6704.5C124.773 6704.5 115.506 6701.41 108.297 6695.23C101.089 6689.05 98 6679.27 98 6666.4V6641.69C98 6629.33 101.604 6619.55 108.297 6613.37C114.991 6607.19 124.258 6603.59 136.1 6603.59C147.942 6603.59 156.695 6606.68 163.903 6613.37C171.112 6620.06 174.201 6629.33 174.201 6641.69V6666.4C174.201 6679.27 170.597 6689.05 163.903 6695.23C157.21 6701.41 147.428 6704.5 136.1 6704.5ZM136.1 6688.54C143.309 6688.54 147.942 6686.48 151.547 6682.88C154.636 6679.27 156.695 6673.61 156.695 6666.4V6640.66C156.695 6633.45 154.636 6628.3 151.032 6624.7C147.428 6621.09 142.279 6619.03 136.1 6619.03C129.922 6619.03 124.773 6621.09 121.169 6624.7C117.565 6628.3 116.02 6633.96 116.02 6640.66V6666.4C116.02 6673.61 117.565 6679.27 121.169 6682.88C124.258 6686.99 129.407 6688.54 136.1 6688.54Z" fill="#F9893D" fill-opacity="0.5"/>
<path d="M140.216 6848.66V6764.22H137.641L124.77 6795.11H106.234L126.314 6751.35H158.236V6848.66H140.216Z" fill="#F9893D" fill-opacity="0.5"/>
<path d="M140.216 6994.36V6909.92H137.641L124.77 6940.81H106.234L126.314 6897.05H158.236V6994.36H140.216Z" fill="#F9893D" fill-opacity="0.5"/>
<path d="M140.216 7140.57V7056.14H137.641L124.77 7087.03H106.234L126.314 7043.27H158.236V7140.57H140.216Z" fill="#F9893D" fill-opacity="0.5"/>
<path d="M136.1 7288.33C124.773 7288.33 115.506 7285.25 108.297 7279.07C101.089 7272.89 98 7263.11 98 7250.24V7225.52C98 7213.17 101.604 7203.38 108.297 7197.21C115.506 7190.51 124.258 7187.42 136.1 7187.42C147.942 7187.42 156.695 7190.51 163.903 7197.21C170.597 7203.9 174.201 7213.17 174.201 7225.52V7250.24C174.201 7263.11 170.597 7272.89 163.903 7279.07C156.695 7285.25 147.428 7288.33 136.1 7288.33ZM136.1 7272.37C143.309 7272.37 147.942 7270.31 151.547 7266.71C154.636 7263.11 156.695 7257.44 156.695 7250.24V7224.49C156.695 7217.29 154.636 7212.14 151.032 7208.53C147.428 7204.93 142.279 7202.87 136.1 7202.87C129.922 7202.87 124.773 7204.93 121.169 7208.53C117.565 7212.14 116.02 7217.8 116.02 7224.49V7250.24C116.02 7257.44 117.565 7263.11 121.169 7266.71C124.258 7270.83 129.407 7272.37 136.1 7272.37Z" fill="#F9893D" fill-opacity="0.5"/>
<path d="M136.1 7434.55C124.773 7434.55 115.506 7431.46 108.297 7425.28C101.089 7419.1 98 7409.32 98 7396.45V7371.74C98 7359.38 101.604 7349.6 108.297 7343.42C114.991 7337.24 124.258 7333.64 136.1 7333.64C147.942 7333.64 156.695 7336.73 163.903 7343.42C171.112 7350.12 174.201 7359.38 174.201 7371.74V7396.45C174.201 7409.32 170.597 7419.1 163.903 7425.28C157.21 7431.46 147.428 7434.55 136.1 7434.55ZM136.1 7418.59C143.309 7418.59 147.942 7416.53 151.547 7412.93C154.636 7409.32 156.695 7403.66 156.695 7396.45V7370.71C156.695 7363.5 154.636 7358.35 151.032 7354.75C147.428 7351.15 142.279 7349.09 136.1 7349.09C129.922 7349.09 124.773 7351.15 121.169 7354.75C117.565 7358.35 116.02 7364.02 116.02 7370.71V7396.45C116.02 7403.66 117.565 7409.32 121.169 7412.93C124.258 7416.53 129.407 7418.59 136.1 7418.59Z" fill="#F9893D" fill-opacity="0.5"/>
<path d="M140.216 7578.19V7493.76H137.641L124.77 7524.65H106.234L126.314 7480.89H158.236V7578.19H140.216Z" fill="#F9893D" fill-opacity="0.5"/>
</g>
<g opacity="0.46">
<path d="M312.304 4522.91C300.976 4522.91 291.709 4519.82 284.501 4513.64C277.292 4507.46 274.203 4497.68 274.203 4484.81V4460.1C274.203 4447.74 277.807 4437.96 284.501 4431.78C291.194 4425.6 300.462 4422 312.304 4422C324.146 4422 332.898 4425.09 340.107 4431.78C347.315 4438.48 350.404 4447.74 350.404 4460.1V4484.81C350.404 4497.68 346.8 4507.46 340.107 4513.64C333.413 4519.82 323.631 4522.91 312.304 4522.91ZM312.304 4506.95C319.512 4506.95 324.146 4504.89 327.75 4501.29C330.839 4497.68 332.898 4492.02 332.898 4484.81V4459.07C332.898 4451.86 330.839 4446.71 327.235 4443.11C323.631 4439.5 318.482 4437.45 312.304 4437.45C306.125 4437.45 300.976 4439.5 297.372 4443.11C293.768 4446.71 292.224 4452.38 292.224 4459.07V4484.81C292.224 4492.02 293.768 4497.68 297.372 4501.29C300.462 4505.41 305.61 4506.95 312.304 4506.95Z" fill="#F9893D" fill-opacity="0.5"/>
<path opacity="0.73" d="M316.419 4667.07V4582.63H313.845L300.973 4613.52H282.438L302.517 4569.76H334.439V4667.07H316.419Z" fill="#F9893D" fill-opacity="0.5"/>
<path opacity="0.73" d="M312.304 4814.83C300.976 4814.83 291.709 4811.74 284.501 4805.56C277.292 4799.38 274.203 4789.6 274.203 4776.73V4752.02C274.203 4739.66 277.807 4729.88 284.501 4723.7C291.194 4717.52 300.462 4713.92 312.304 4713.92C324.146 4713.92 332.898 4717.01 340.107 4723.7C347.315 4730.39 350.404 4739.66 350.404 4752.02V4776.73C350.404 4789.6 346.8 4799.38 340.107 4805.56C332.898 4811.74 323.631 4814.83 312.304 4814.83ZM312.304 4798.87C319.512 4798.87 324.146 4796.81 327.75 4793.2C330.839 4789.6 332.898 4783.94 332.898 4776.73V4750.99C332.898 4743.78 330.839 4738.63 327.235 4735.03C323.631 4731.42 318.482 4729.36 312.304 4729.36C306.125 4729.36 300.976 4731.42 297.372 4735.03C293.768 4738.63 292.224 4744.29 292.224 4750.99V4776.73C292.224 4783.94 293.768 4789.6 297.372 4793.2C300.462 4797.32 305.61 4798.87 312.304 4798.87Z" fill="#F9893D" fill-opacity="0.5"/>
<path opacity="0.73" d="M316.419 4958.98V4874.55H313.845L300.973 4905.44H282.438L302.517 4861.68H334.439V4958.98H316.419Z" fill="#F9893D" fill-opacity="0.5"/>
<path opacity="0.73" d="M312.304 5106.74C300.976 5106.74 291.709 5103.66 284.501 5097.48C277.292 5091.3 274.203 5081.52 274.203 5068.65V5043.93C274.203 5031.58 277.807 5021.8 284.501 5015.62C291.709 5008.92 300.462 5005.83 312.304 5005.83C324.146 5005.83 332.898 5008.92 340.107 5015.62C346.8 5022.31 350.404 5031.58 350.404 5043.93V5068.65C350.404 5081.52 346.8 5091.3 340.107 5097.48C332.898 5103.66 323.631 5106.74 312.304 5106.74ZM312.304 5090.78C319.512 5090.78 324.146 5088.73 327.75 5085.12C330.839 5081.52 332.898 5075.85 332.898 5068.65V5042.9C332.898 5035.7 330.839 5030.55 327.235 5026.94C323.631 5023.34 318.482 5021.28 312.304 5021.28C306.125 5021.28 300.976 5023.34 297.372 5026.94C293.768 5030.55 292.224 5036.21 292.224 5042.9V5068.65C292.224 5075.85 293.768 5081.52 297.372 5085.12C300.462 5089.24 305.61 5090.78 312.304 5090.78Z" fill="#F9893D" fill-opacity="0.5"/>
<path d="M316.419 5250.9V5166.47H313.845L300.973 5197.36H282.438L302.517 5153.6H334.439V5250.9H316.419Z" fill="#F9893D" fill-opacity="0.5"/>
<path d="M312.304 5398.66C300.976 5398.66 291.709 5395.57 284.501 5389.4C277.292 5383.22 274.203 5373.44 274.203 5360.56V5335.85C274.203 5323.5 277.807 5313.71 284.501 5307.54C291.709 5300.84 300.462 5297.75 312.304 5297.75C324.146 5297.75 332.898 5300.84 340.107 5307.54C346.8 5314.23 350.404 5323.5 350.404 5335.85V5360.56C350.404 5373.44 346.8 5383.22 340.107 5389.4C332.898 5395.57 323.631 5398.66 312.304 5398.66ZM312.304 5382.7C319.512 5382.7 324.146 5380.64 327.75 5377.04C330.839 5373.44 332.898 5367.77 332.898 5360.56V5334.82C332.898 5327.61 330.839 5322.47 327.235 5318.86C323.631 5315.26 318.482 5313.2 312.304 5313.2C306.125 5313.2 300.976 5315.26 297.372 5318.86C293.768 5322.47 292.224 5328.13 292.224 5334.82V5360.56C292.224 5367.77 293.768 5373.44 297.372 5377.04C300.462 5381.16 305.61 5382.7 312.304 5382.7Z" fill="#F9893D" fill-opacity="0.5"/>
<path opacity="0.78" d="M316.419 5542.82V5458.38H313.845L300.973 5489.28H282.438L302.517 5445.51H334.439V5542.82H316.419Z" fill="#F9893D" fill-opacity="0.5"/>
<path opacity="0.78" d="M312.304 5690.58C300.976 5690.58 291.709 5687.49 284.501 5681.31C277.292 5675.13 274.203 5665.35 274.203 5652.48V5627.77C274.203 5615.41 277.807 5605.63 284.501 5599.45C291.194 5593.27 300.462 5589.67 312.304 5589.67C324.146 5589.67 332.898 5592.76 340.107 5599.45C347.315 5606.15 350.404 5615.41 350.404 5627.77V5652.48C350.404 5665.35 346.8 5675.13 340.107 5681.31C332.898 5687.49 323.631 5690.58 312.304 5690.58ZM312.304 5674.62C319.512 5674.62 324.146 5672.56 327.75 5668.96C330.839 5665.35 332.898 5659.69 332.898 5652.48V5626.74C332.898 5619.53 330.839 5614.38 327.235 5610.78C323.631 5607.18 318.482 5605.12 312.304 5605.12C306.125 5605.12 300.976 5607.18 297.372 5610.78C293.768 5614.38 292.224 5620.05 292.224 5626.74V5652.48C292.224 5659.69 293.768 5665.35 297.372 5668.96C300.462 5673.08 305.61 5674.62 312.304 5674.62Z" fill="#F9893D" fill-opacity="0.5"/>
<path opacity="0.78" d="M316.419 5834.74V5750.3H313.845L300.973 5781.19H282.438L302.517 5737.43H334.439V5834.74H316.419Z" fill="#F9893D" fill-opacity="0.5"/>
<path opacity="0.78" d="M312.304 5982.5C300.976 5982.5 291.709 5979.41 284.501 5973.23C277.292 5967.05 274.203 5957.27 274.203 5944.4V5919.69C274.203 5907.33 277.807 5897.55 284.501 5891.37C291.194 5885.19 300.462 5881.59 312.304 5881.59C324.146 5881.59 332.898 5884.68 340.107 5891.37C347.315 5898.06 350.404 5907.33 350.404 5919.69V5944.4C350.404 5957.27 346.8 5967.05 340.107 5973.23C333.413 5979.41 323.631 5982.5 312.304 5982.5ZM312.304 5966.54C319.512 5966.54 324.146 5964.48 327.75 5960.88C330.839 5957.27 332.898 5951.61 332.898 5944.4V5918.66C332.898 5911.45 330.839 5906.3 327.235 5902.7C323.631 5899.09 318.482 5897.03 312.304 5897.03C306.125 5897.03 300.976 5899.09 297.372 5902.7C293.768 5906.3 292.224 5911.96 292.224 5918.66V5944.4C292.224 5951.61 293.768 5957.27 297.372 5960.88C300.462 5964.99 305.61 5966.54 312.304 5966.54Z" fill="#F9893D" fill-opacity="0.5"/>
<path d="M316.419 6126.66V6042.22H313.845L300.973 6073.11H282.438L302.517 6029.35H334.439V6126.66H316.419Z" fill="#F9893D" fill-opacity="0.5"/>
<path d="M316.419 6272.36V6187.92H313.845L300.973 6218.81H282.438L302.517 6175.05H334.439V6272.36H316.419Z" fill="#F9893D" fill-opacity="0.5"/>
<path d="M316.419 6418.57V6334.14H313.845L300.973 6365.03H282.438L302.517 6321.27H334.439V6418.57H316.419Z" fill="#F9893D" fill-opacity="0.5"/>
<path d="M312.304 6566.33C300.976 6566.33 291.709 6563.25 284.501 6557.07C277.292 6550.89 274.203 6541.11 274.203 6528.24V6503.52C274.203 6491.17 277.807 6481.38 284.501 6475.21C291.709 6468.51 300.462 6465.42 312.304 6465.42C324.146 6465.42 332.898 6468.51 340.107 6475.21C346.8 6481.9 350.404 6491.17 350.404 6503.52V6528.24C350.404 6541.11 346.8 6550.89 340.107 6557.07C332.898 6563.25 323.631 6566.33 312.304 6566.33ZM312.304 6550.37C319.512 6550.37 324.146 6548.31 327.75 6544.71C330.839 6541.11 332.898 6535.44 332.898 6528.24V6502.49C332.898 6495.29 330.839 6490.14 327.235 6486.53C323.631 6482.93 318.482 6480.87 312.304 6480.87C306.125 6480.87 300.976 6482.93 297.372 6486.53C293.768 6490.14 292.224 6495.8 292.224 6502.49V6528.24C292.224 6535.44 293.768 6541.11 297.372 6544.71C300.462 6548.83 305.61 6550.37 312.304 6550.37Z" fill="#F9893D" fill-opacity="0.5"/>
<path d="M312.304 6712.55C300.976 6712.55 291.709 6709.46 284.501 6703.28C277.292 6697.1 274.203 6687.32 274.203 6674.45V6649.74C274.203 6637.38 277.807 6627.6 284.501 6621.42C291.194 6615.24 300.462 6611.64 312.304 6611.64C324.146 6611.64 332.898 6614.73 340.107 6621.42C347.315 6628.12 350.404 6637.38 350.404 6649.74V6674.45C350.404 6687.32 346.8 6697.1 340.107 6703.28C333.413 6709.46 323.631 6712.55 312.304 6712.55ZM312.304 6696.59C319.512 6696.59 324.146 6694.53 327.75 6690.93C330.839 6687.32 332.898 6681.66 332.898 6674.45V6648.71C332.898 6641.5 330.839 6636.35 327.235 6632.75C323.631 6629.15 318.482 6627.09 312.304 6627.09C306.125 6627.09 300.976 6629.15 297.372 6632.75C293.768 6636.35 292.224 6642.02 292.224 6648.71V6674.45C292.224 6681.66 293.768 6687.32 297.372 6690.93C300.462 6694.53 305.61 6696.59 312.304 6696.59Z" fill="#F9893D" fill-opacity="0.5"/>
<path d="M316.419 6856.19V6771.76H313.845L300.973 6802.65H282.438L302.517 6758.89H334.439V6856.19H316.419Z" fill="#F9893D" fill-opacity="0.5"/>
</g>
<g opacity="0.18">
<path d="M298.035 84.4051V12.3266H295.976L284.648 38.5838H268.688L285.678 1H312.966V84.4051H298.035Z" fill="#F9893D" fill-opacity="0.5"/>
<path d="M294.437 210.026C284.654 210.026 276.931 207.452 270.753 201.789C264.574 196.125 262 188.403 262 177.076V156.482C262 145.67 265.089 137.948 270.753 132.284C276.416 126.621 284.654 124.047 294.437 124.047C304.219 124.047 311.942 126.621 318.121 132.284C323.784 137.948 326.874 146.185 326.874 156.482V177.076C326.874 187.888 323.784 196.125 318.121 201.789C311.942 207.452 304.219 210.026 294.437 210.026ZM294.437 196.64C300.1 196.64 304.734 195.096 307.309 192.007C309.883 188.917 311.428 184.284 311.428 178.106V155.967C311.428 149.789 309.883 145.156 306.794 142.066C303.704 138.977 299.586 137.433 294.437 137.433C288.773 137.433 284.654 138.977 281.565 142.066C278.476 145.156 276.931 149.789 276.931 155.452V177.591C276.931 183.769 278.476 188.403 281.05 191.492C284.139 195.096 288.773 196.64 294.437 196.64Z" fill="#F9893D" fill-opacity="0.5"/>
<path d="M298.035 333.077V260.999H295.976L284.648 287.256H268.688L285.678 249.672H312.966V332.562H298.035V333.077Z" fill="#F9893D" fill-opacity="0.5"/>
<path d="M298.035 457.156V385.592H295.976L284.648 411.849H268.688L285.678 374.266H312.966V457.156H298.035Z" fill="#F9893D" fill-opacity="0.5"/>
<path d="M298.035 581.75V509.671H295.976L284.648 535.928H268.688L286.193 498.859H313.48V581.75H298.035Z" fill="#F9893D" fill-opacity="0.5"/>
<path d="M294.437 707.37C284.654 707.37 276.931 704.796 270.753 699.132C264.574 693.469 262 685.746 262 674.42V653.826C262 643.014 265.089 635.291 270.753 629.628C276.416 623.965 284.654 621.391 294.437 621.391C304.219 621.391 311.942 623.965 318.121 629.628C323.784 635.291 326.874 643.529 326.874 653.826V674.42C326.874 685.232 323.784 693.469 318.121 699.132C311.942 704.796 304.219 707.37 294.437 707.37ZM294.437 693.984C300.1 693.984 304.734 692.439 307.309 689.35C309.883 686.261 311.428 681.628 311.428 675.449V653.311C311.428 647.133 309.883 642.499 306.794 639.41C303.704 636.321 299.586 634.777 294.437 634.777C288.773 634.777 284.654 636.321 281.565 639.41C278.476 642.499 276.931 647.133 276.931 652.796V674.935C276.931 681.113 278.476 685.746 281.05 688.835C284.139 692.439 288.773 693.984 294.437 693.984Z" fill="#F9893D" fill-opacity="0.5"/>
<path d="M294.437 831.964C284.654 831.964 276.931 829.39 270.753 823.726C264.574 818.063 262 810.34 262 799.014V778.42C262 767.608 265.089 759.885 270.753 754.222C276.416 748.559 284.654 745.984 294.437 745.984C304.219 745.984 311.942 748.559 318.121 754.222C323.784 759.885 326.874 768.123 326.874 778.42V799.014C326.874 809.825 323.784 818.063 318.121 823.726C311.942 829.39 304.219 831.964 294.437 831.964ZM294.437 818.578C300.1 818.578 304.734 817.033 307.309 813.944C309.883 810.855 311.428 806.221 311.428 800.043V777.905C311.428 771.727 309.883 767.093 306.794 764.004C303.704 760.915 299.586 759.37 294.437 759.37C288.773 759.37 284.654 760.915 281.565 764.004C278.476 767.093 276.931 771.727 276.931 777.39V799.528C276.931 805.707 278.476 810.34 281.05 813.429C284.139 817.033 288.773 818.578 294.437 818.578Z" fill="#F9893D" fill-opacity="0.5"/>
<path d="M298.035 954.493V882.929H295.976L284.648 909.186H268.688L285.678 871.602H312.966V954.493H298.035Z" fill="#F9893D" fill-opacity="0.5"/>
<path d="M294.437 1080.63C284.654 1080.63 276.931 1078.06 270.753 1072.4C264.574 1066.73 262 1059.01 262 1047.68V1027.09C262 1016.28 265.089 1008.55 270.753 1002.89C276.416 997.231 284.654 994.656 294.437 994.656C304.219 994.656 311.942 997.231 318.121 1002.89C323.784 1008.55 326.874 1016.79 326.874 1027.09V1047.68C326.874 1058.49 323.784 1066.73 318.121 1072.4C311.942 1078.06 304.219 1080.63 294.437 1080.63ZM294.437 1067.25C300.1 1067.25 304.734 1065.7 307.309 1062.61C309.883 1059.52 311.428 1054.89 311.428 1048.71V1026.57C311.428 1020.4 309.883 1015.76 306.794 1012.67C303.704 1009.58 299.586 1008.04 294.437 1008.04C288.773 1008.04 284.654 1009.58 281.565 1012.67C278.476 1015.76 276.931 1020.4 276.931 1026.06V1048.2C276.931 1054.38 278.476 1059.01 281.05 1062.1C284.139 1065.7 288.773 1067.25 294.437 1067.25Z" fill="#F9893D" fill-opacity="0.5"/>
<path opacity="0.78" d="M298.035 1203.17V1131.6H295.976L284.648 1157.86H268.688L285.678 1120.28H312.966V1203.17H298.035Z" fill="#F9893D" fill-opacity="0.5"/>
<path opacity="0.78" d="M294.437 1329.3C284.654 1329.3 276.931 1326.73 270.753 1321.07C264.574 1315.4 262 1307.68 262 1296.35V1275.76C262 1264.95 265.089 1257.23 270.753 1251.56C276.416 1245.9 284.654 1243.32 294.437 1243.32C304.219 1243.32 311.942 1245.9 318.121 1251.56C323.784 1257.23 326.874 1265.46 326.874 1275.76V1296.35C326.874 1307.17 323.784 1315.4 318.121 1321.07C311.942 1326.73 304.219 1329.3 294.437 1329.3ZM294.437 1315.92C300.1 1315.92 304.734 1314.37 307.309 1311.28C309.883 1308.19 311.428 1303.56 311.428 1297.38V1275.24C311.428 1269.07 309.883 1264.43 306.794 1261.34C303.704 1258.25 299.586 1256.71 294.437 1256.71C288.773 1256.71 284.654 1258.25 281.565 1261.34C278.476 1264.43 276.931 1269.07 276.931 1274.73V1296.87C276.931 1303.05 278.476 1307.68 281.05 1310.77C284.139 1314.37 288.773 1315.92 294.437 1315.92Z" fill="#F9893D" fill-opacity="0.5"/>
<path opacity="0.78" d="M294.437 1453.38C284.654 1453.38 276.931 1450.81 270.753 1445.14C264.574 1439.48 262 1431.76 262 1420.43V1399.84C262 1389.02 265.089 1381.3 270.753 1375.64C276.416 1369.98 284.654 1367.4 294.437 1367.4C304.219 1367.4 311.942 1369.98 318.121 1375.64C323.784 1381.3 326.874 1389.54 326.874 1399.84V1420.43C326.874 1431.24 323.784 1439.48 318.121 1445.14C311.942 1450.81 304.219 1453.38 294.437 1453.38ZM294.437 1439.99C300.1 1439.99 304.734 1438.45 307.309 1435.36C309.883 1432.27 311.428 1427.64 311.428 1421.46V1399.32C311.428 1393.14 309.883 1388.51 306.794 1385.42C303.704 1382.33 299.586 1380.79 294.437 1380.79C288.773 1380.79 284.654 1382.33 281.565 1385.42C278.476 1388.51 276.931 1393.14 276.931 1398.81V1420.95C276.931 1427.12 278.476 1431.76 281.05 1434.85C284.139 1438.45 288.773 1439.99 294.437 1439.99Z" fill="#F9893D" fill-opacity="0.5"/>
<path d="M298.035 1576.43V1504.87H295.976L284.648 1531.12H268.688L285.678 1493.54H312.966V1576.43H298.035Z" fill="#F9893D" fill-opacity="0.5"/>
<path d="M294.437 1702.05C284.654 1702.05 276.931 1699.48 270.753 1693.81C264.574 1688.15 262 1680.43 262 1669.1V1648.51C262 1637.7 265.089 1629.97 270.753 1624.31C276.416 1618.65 284.654 1616.07 294.437 1616.07C304.219 1616.07 311.942 1618.65 318.121 1624.31C323.784 1629.97 326.874 1638.21 326.874 1648.51V1669.1C326.874 1679.91 323.784 1688.15 318.121 1693.81C311.942 1699.48 304.219 1702.05 294.437 1702.05ZM294.437 1688.67C300.1 1688.67 304.734 1687.12 307.309 1684.03C309.883 1680.94 311.428 1676.31 311.428 1670.13V1647.99C311.428 1641.81 309.883 1637.18 306.794 1634.09C303.704 1631 299.586 1629.46 294.437 1629.46C288.773 1629.46 284.654 1631 281.565 1634.09C278.476 1637.18 276.931 1641.81 276.931 1647.48V1669.62C276.931 1675.79 278.476 1680.43 281.05 1683.52C284.139 1687.12 288.773 1688.67 294.437 1688.67Z" fill="#F9893D" fill-opacity="0.5"/>
<path d="M298.035 1825.1V1753.54H295.976L284.648 1779.79H268.688L285.678 1742.21H312.966V1825.1H298.035Z" fill="#F9893D" fill-opacity="0.5"/>
<path d="M294.437 1950.72C284.654 1950.72 276.931 1948.15 270.753 1942.48C264.574 1936.82 262 1929.1 262 1917.77V1897.18C262 1886.37 265.089 1878.64 270.753 1872.98C276.416 1867.32 284.654 1864.74 294.437 1864.74C304.219 1864.74 311.942 1867.32 318.121 1872.98C323.784 1878.64 326.874 1886.88 326.874 1897.18V1917.77C326.874 1928.58 323.784 1936.82 318.121 1942.48C311.942 1948.15 304.219 1950.72 294.437 1950.72ZM294.437 1937.34C300.1 1937.34 304.734 1935.79 307.309 1932.7C309.883 1929.61 311.428 1924.98 311.428 1918.8V1896.66C311.428 1890.49 309.883 1885.85 306.794 1882.76C303.704 1879.67 299.586 1878.13 294.437 1878.13C288.773 1878.13 284.654 1879.67 281.565 1882.76C278.476 1885.85 276.931 1890.49 276.931 1896.15V1918.29C276.931 1924.47 278.476 1929.1 281.05 1932.19C284.139 1935.79 288.773 1937.34 294.437 1937.34Z" fill="#F9893D" fill-opacity="0.5"/>
<path d="M298.035 2073.77V2002.21H295.976L284.648 2028.46H268.688L285.678 1990.88H312.966V2073.77H298.035Z" fill="#F9893D" fill-opacity="0.5"/>
<path d="M294.437 2199.39C284.654 2199.39 276.931 2196.82 270.753 2191.16C264.574 2185.49 262 2177.77 262 2166.44V2145.85C262 2135.04 265.089 2127.31 270.753 2121.65C276.416 2115.99 284.654 2113.41 294.437 2113.41C304.219 2113.41 311.942 2115.99 318.121 2121.65C323.784 2127.31 326.874 2135.55 326.874 2145.85V2166.44C326.874 2177.25 323.784 2185.49 318.121 2191.16C311.942 2196.82 304.219 2199.39 294.437 2199.39ZM294.437 2186.01C300.1 2186.01 304.734 2184.46 307.309 2181.37C309.883 2178.28 311.428 2173.65 311.428 2167.47V2145.33C311.428 2139.16 309.883 2134.52 306.794 2131.43C303.704 2128.34 299.586 2126.8 294.437 2126.8C288.773 2126.8 284.654 2128.34 281.565 2131.43C278.476 2134.52 276.931 2139.16 276.931 2144.82V2166.96C276.931 2173.14 278.476 2177.77 281.05 2180.86C284.139 2184.46 288.773 2186.01 294.437 2186.01Z" fill="#F9893D" fill-opacity="0.5"/>
<path d="M298.035 2322.44V2250.88H295.976L284.648 2277.13H268.688L285.678 2239.55H312.966V2322.44H298.035Z" fill="#F9893D" fill-opacity="0.5"/>
</g>
<g opacity="0.18">
<path d="M846.405 215.048V156.241H844.725L835.483 177.664H822.461L836.323 147H858.587V215.048H846.405Z" fill="#F9893D" fill-opacity="0.5"/>
<path d="M843.464 317.539C835.483 317.539 829.182 315.438 824.141 310.818C819.1 306.197 817 299.897 817 290.656V273.854C817 265.033 819.52 258.732 824.141 254.111C828.762 249.491 835.483 247.391 843.464 247.391C851.446 247.391 857.747 249.491 862.787 254.111C867.408 258.732 869.929 265.453 869.929 273.854V290.656C869.929 299.477 867.408 306.197 862.787 310.818C857.747 315.438 851.446 317.539 843.464 317.539ZM843.464 306.617C848.085 306.617 851.866 305.357 853.966 302.837C856.066 300.317 857.327 296.536 857.327 291.496V273.434C857.327 268.393 856.066 264.613 853.546 262.092C851.026 259.572 847.665 258.312 843.464 258.312C838.844 258.312 835.483 259.572 832.963 262.092C830.442 264.613 829.182 268.393 829.182 273.014V291.076C829.182 296.116 830.442 299.897 832.543 302.417C835.063 305.357 838.844 306.617 843.464 306.617Z" fill="#F9893D" fill-opacity="0.5"/>
<path d="M846.405 417.931V359.124H844.725L835.483 380.546H822.461L836.323 349.883H858.587V417.511H846.405V417.931Z" fill="#F9893D" fill-opacity="0.5"/>
<path d="M846.405 519.159V460.772H844.725L835.483 482.195H822.461L836.323 451.531H858.587V519.159H846.405Z" fill="#F9893D" fill-opacity="0.5"/>
<path d="M846.405 620.815V562.008H844.725L835.483 583.431H822.461L836.743 553.188H859.007V620.815H846.405Z" fill="#F9893D" fill-opacity="0.5"/>
<path d="M843.464 723.304C835.483 723.304 829.182 721.204 824.141 716.584C819.1 711.963 817 705.662 817 696.421V679.619C817 670.798 819.52 664.497 824.141 659.877C828.762 655.256 835.483 653.156 843.464 653.156C851.446 653.156 857.747 655.256 862.787 659.877C867.408 664.497 869.929 671.218 869.929 679.619V696.421C869.929 705.242 867.408 711.963 862.787 716.584C857.747 721.204 851.446 723.304 843.464 723.304ZM843.464 712.383C848.085 712.383 851.866 711.123 853.966 708.603C856.066 706.082 857.327 702.302 857.327 697.261V679.199C857.327 674.159 856.066 670.378 853.546 667.858C851.026 665.338 847.665 664.077 843.464 664.077C838.844 664.077 835.483 665.338 832.963 667.858C830.442 670.378 829.182 674.159 829.182 678.779V696.841C829.182 701.882 830.442 705.662 832.543 708.183C835.063 711.123 838.844 712.383 843.464 712.383Z" fill="#F9893D" fill-opacity="0.5"/>
<path d="M843.464 824.961C835.483 824.961 829.182 822.86 824.141 818.24C819.1 813.619 817 807.319 817 798.078V781.276C817 772.455 819.52 766.154 824.141 761.533C828.762 756.913 835.483 754.812 843.464 754.812C851.446 754.812 857.747 756.913 862.787 761.533C867.408 766.154 869.929 772.875 869.929 781.276V798.078C869.929 806.899 867.408 813.619 862.787 818.24C857.747 822.86 851.446 824.961 843.464 824.961ZM843.464 814.039C848.085 814.039 851.866 812.779 853.966 810.259C856.066 807.739 857.327 803.958 857.327 798.918V780.856C857.327 775.815 856.066 772.035 853.546 769.514C851.026 766.994 847.665 765.734 843.464 765.734C838.844 765.734 835.483 766.994 832.963 769.514C830.442 772.035 829.182 775.815 829.182 780.436V798.497C829.182 803.537 830.442 807.319 832.543 809.839C835.063 812.779 838.844 814.039 843.464 814.039Z" fill="#F9893D" fill-opacity="0.5"/>
<path d="M846.405 924.933V866.546H844.725L835.483 887.968H822.461L836.323 857.305H858.587V924.933H846.405Z" fill="#F9893D" fill-opacity="0.5"/>
<path d="M843.464 1027.84C835.483 1027.84 829.182 1025.74 824.141 1021.12C819.1 1016.5 817 1010.2 817 1000.96V984.158C817 975.337 819.52 969.037 824.141 964.416C828.762 959.796 835.483 957.695 843.464 957.695C851.446 957.695 857.747 959.796 862.787 964.416C867.408 969.037 869.929 975.757 869.929 984.158V1000.96C869.929 1009.78 867.408 1016.5 862.787 1021.12C857.747 1025.74 851.446 1027.84 843.464 1027.84ZM843.464 1016.92C848.085 1016.92 851.866 1015.66 853.966 1013.14C856.066 1010.62 857.327 1006.84 857.327 1001.8V983.738C857.327 978.698 856.066 974.917 853.546 972.397C851.026 969.877 847.665 968.617 843.464 968.617C838.844 968.617 835.483 969.877 832.963 972.397C830.442 974.917 829.182 978.698 829.182 983.318V1001.38C829.182 1006.42 830.442 1010.2 832.543 1012.72C835.063 1015.66 838.844 1016.92 843.464 1016.92Z" fill="#F9893D" fill-opacity="0.5"/>
<path opacity="0.78" d="M846.405 1127.81V1069.43H844.725L835.483 1090.85H822.461L836.323 1060.19H858.587V1127.81H846.405Z" fill="#F9893D" fill-opacity="0.5"/>
<path opacity="0.78" d="M843.464 1230.73C835.483 1230.73 829.182 1228.63 824.141 1224.01C819.1 1219.38 817 1213.08 817 1203.84V1187.04C817 1178.22 819.52 1171.92 824.141 1167.3C828.762 1162.68 835.483 1160.58 843.464 1160.58C851.446 1160.58 857.747 1162.68 862.787 1167.3C867.408 1171.92 869.929 1178.64 869.929 1187.04V1203.84C869.929 1212.66 867.408 1219.38 862.787 1224.01C857.747 1228.63 851.446 1230.73 843.464 1230.73ZM843.464 1219.8C848.085 1219.8 851.866 1218.54 853.966 1216.02C856.066 1213.5 857.327 1209.72 857.327 1204.68V1186.62C857.327 1181.58 856.066 1177.8 853.546 1175.28C851.026 1172.76 847.665 1171.5 843.464 1171.5C838.844 1171.5 835.483 1172.76 832.963 1175.28C830.442 1177.8 829.182 1181.58 829.182 1186.2V1204.26C829.182 1209.3 830.442 1213.08 832.543 1215.6C835.063 1218.54 838.844 1219.8 843.464 1219.8Z" fill="#F9893D" fill-opacity="0.5"/>
<path opacity="0.78" d="M843.464 1331.96C835.483 1331.96 829.182 1329.86 824.141 1325.24C819.1 1320.62 817 1314.32 817 1305.07V1288.27C817 1279.45 819.52 1273.15 824.141 1268.53C828.762 1263.91 835.483 1261.81 843.464 1261.81C851.446 1261.81 857.747 1263.91 862.787 1268.53C867.408 1273.15 869.929 1279.87 869.929 1288.27V1305.07C869.929 1313.9 867.408 1320.62 862.787 1325.24C857.747 1329.86 851.446 1331.96 843.464 1331.96ZM843.464 1321.04C848.085 1321.04 851.866 1319.78 853.966 1317.26C856.066 1314.74 857.327 1310.96 857.327 1305.91V1287.85C857.327 1282.81 856.066 1279.03 853.546 1276.51C851.026 1273.99 847.665 1272.73 843.464 1272.73C838.844 1272.73 835.483 1273.99 832.963 1276.51C830.442 1279.03 829.182 1282.81 829.182 1287.43V1305.49C829.182 1310.54 830.442 1314.32 832.543 1316.84C835.063 1319.78 838.844 1321.04 843.464 1321.04Z" fill="#F9893D" fill-opacity="0.5"/>
<path d="M846.405 1432.35V1373.96H844.725L835.483 1395.39H822.461L836.323 1364.72H858.587V1432.35H846.405Z" fill="#F9893D" fill-opacity="0.5"/>
<path d="M843.464 1534.84C835.483 1534.84 829.182 1532.74 824.141 1528.12C819.1 1523.5 817 1517.2 817 1507.96V1491.16C817 1482.33 819.52 1476.03 824.141 1471.41C828.762 1466.79 835.483 1464.69 843.464 1464.69C851.446 1464.69 857.747 1466.79 862.787 1471.41C867.408 1476.03 869.929 1482.75 869.929 1491.16V1507.96C869.929 1516.78 867.408 1523.5 862.787 1528.12C857.747 1532.74 851.446 1534.84 843.464 1534.84ZM843.464 1523.92C848.085 1523.92 851.866 1522.66 853.966 1520.14C856.066 1517.62 857.327 1513.84 857.327 1508.8V1490.74C857.327 1485.7 856.066 1481.91 853.546 1479.39C851.026 1476.87 847.665 1475.61 843.464 1475.61C838.844 1475.61 835.483 1476.87 832.963 1479.39C830.442 1481.91 829.182 1485.7 829.182 1490.32V1508.38C829.182 1513.42 830.442 1517.2 832.543 1519.72C835.063 1522.66 838.844 1523.92 843.464 1523.92Z" fill="#F9893D" fill-opacity="0.5"/>
<path d="M846.405 1635.23V1576.85H844.725L835.483 1598.27H822.461L836.323 1567.61H858.587V1635.23H846.405Z" fill="#F9893D" fill-opacity="0.5"/>
<path d="M843.464 1737.72C835.483 1737.72 829.182 1735.62 824.141 1731C819.1 1726.38 817 1720.08 817 1710.84V1694.04C817 1685.22 819.52 1678.92 824.141 1674.3C828.762 1669.68 835.483 1667.58 843.464 1667.58C851.446 1667.58 857.747 1669.68 862.787 1674.3C867.408 1678.92 869.929 1685.64 869.929 1694.04V1710.84C869.929 1719.66 867.408 1726.38 862.787 1731C857.747 1735.62 851.446 1737.72 843.464 1737.72ZM843.464 1726.8C848.085 1726.8 851.866 1725.54 853.966 1723.02C856.066 1720.5 857.327 1716.72 857.327 1711.68V1693.62C857.327 1688.58 856.066 1684.8 853.546 1682.28C851.026 1679.76 847.665 1678.5 843.464 1678.5C838.844 1678.5 835.483 1679.76 832.963 1682.28C830.442 1684.8 829.182 1688.58 829.182 1693.2V1711.26C829.182 1716.3 830.442 1720.08 832.543 1722.6C835.063 1725.54 838.844 1726.8 843.464 1726.8Z" fill="#F9893D" fill-opacity="0.5"/>
<path d="M846.405 1838.12V1779.73H844.725L835.483 1801.15H822.461L836.323 1770.49H858.587V1838.12H846.405Z" fill="#F9893D" fill-opacity="0.5"/>
<path d="M843.464 1940.61C835.483 1940.61 829.182 1938.51 824.141 1933.89C819.1 1929.27 817 1922.97 817 1913.72V1896.92C817 1888.1 819.52 1881.8 824.141 1877.18C828.762 1872.56 835.483 1870.46 843.464 1870.46C851.446 1870.46 857.747 1872.56 862.787 1877.18C867.408 1881.8 869.929 1888.52 869.929 1896.92V1913.72C869.929 1922.55 867.408 1929.27 862.787 1933.89C857.747 1938.51 851.446 1940.61 843.464 1940.61ZM843.464 1929.69C848.085 1929.69 851.866 1928.43 853.966 1925.91C856.066 1923.39 857.327 1919.61 857.327 1914.57V1896.5C857.327 1891.46 856.066 1887.68 853.546 1885.16C851.026 1882.64 847.665 1881.38 843.464 1881.38C838.844 1881.38 835.483 1882.64 832.963 1885.16C830.442 1887.68 829.182 1891.46 829.182 1896.08V1914.15C829.182 1919.19 830.442 1922.97 832.543 1925.49C835.063 1928.43 838.844 1929.69 843.464 1929.69Z" fill="#F9893D" fill-opacity="0.5"/>
<path d="M846.405 2041V1982.61H844.725L835.483 2004.04H822.461L836.323 1973.37H858.587V2041H846.405Z" fill="#F9893D" fill-opacity="0.5"/>
</g>
<g opacity="0.18">
<path d="M837.312 2601.5C827.529 2601.5 819.806 2598.92 813.628 2593.26C807.964 2588.11 804.875 2579.88 804.875 2568.55V2547.95C804.875 2537.14 807.964 2529.42 813.628 2523.76C819.291 2518.09 827.529 2515.52 837.312 2515.52C847.094 2515.52 854.817 2518.09 860.996 2523.76C866.659 2529.42 869.749 2537.66 869.749 2547.95V2568.55C869.749 2579.36 866.659 2587.6 860.996 2593.26C855.332 2598.92 847.609 2601.5 837.312 2601.5ZM837.312 2588.11C842.975 2588.11 847.609 2586.57 850.184 2583.48C852.758 2580.39 854.302 2575.76 854.302 2569.58V2547.44C854.302 2541.26 852.758 2536.63 849.669 2533.54C846.579 2530.45 842.46 2528.91 837.312 2528.91C831.648 2528.91 827.529 2530.45 824.44 2533.54C821.351 2536.63 819.806 2541.26 819.806 2546.93V2569.06C819.806 2575.24 821.351 2579.88 823.925 2582.96C827.529 2586.57 831.648 2588.11 837.312 2588.11Z" fill="#F9893D" fill-opacity="0.5"/>
<path d="M841.426 2721.46V2649.89H839.366L828.039 2676.15H812.078L829.069 2638.57H856.357V2721.46H841.426Z" fill="#F9893D" fill-opacity="0.5"/>
<path d="M837.312 2844.51C827.529 2844.51 819.806 2841.93 813.628 2836.27C807.964 2830.61 804.875 2822.88 804.875 2811.56V2790.96C804.875 2780.15 807.964 2772.43 813.628 2766.76C819.291 2761.1 827.529 2758.53 837.312 2758.53C847.094 2758.53 854.817 2761.1 860.996 2766.76C866.659 2772.43 869.749 2780.66 869.749 2790.96V2811.56C869.749 2822.37 866.659 2830.61 860.996 2836.27C855.332 2841.42 847.609 2844.51 837.312 2844.51ZM837.312 2830.6C842.975 2830.6 847.609 2829.06 850.184 2825.97C852.758 2822.88 854.302 2818.25 854.302 2812.07V2789.93C854.302 2783.75 852.758 2779.12 849.669 2776.03C846.579 2772.94 842.46 2771.4 837.312 2771.4C831.648 2771.4 827.529 2772.94 824.44 2776.03C821.351 2779.12 819.806 2783.75 819.806 2789.42V2811.56C819.806 2817.73 821.351 2822.37 823.925 2825.46C827.529 2829.06 831.648 2830.6 837.312 2830.6Z" fill="#F9893D" fill-opacity="0.5"/>
<path d="M841.426 2963.95V2892.39H839.366L828.039 2918.64H812.078L829.069 2881.06H856.357V2963.95H841.426Z" fill="#F9893D" fill-opacity="0.5"/>
<path d="M837.312 3087C827.529 3087 819.806 3084.42 813.628 3078.76C807.964 3073.61 804.875 3065.38 804.875 3054.05V3033.45C804.875 3022.64 807.964 3014.92 813.628 3009.26C819.291 3003.59 827.529 3001.02 837.312 3001.02C847.094 3001.02 854.817 3003.59 860.996 3009.26C866.659 3014.92 869.749 3023.16 869.749 3033.45V3054.05C869.749 3064.86 866.659 3073.1 860.996 3078.76C855.332 3084.42 847.609 3087 837.312 3087ZM837.312 3073.61C842.975 3073.61 847.609 3072.07 850.184 3068.98C852.758 3065.89 854.302 3061.26 854.302 3055.08V3032.94C854.302 3026.76 852.758 3022.13 849.669 3019.04C846.579 3015.95 842.46 3014.41 837.312 3014.41C831.648 3014.41 827.529 3015.95 824.44 3019.04C821.351 3022.13 819.806 3026.76 819.806 3032.43V3054.56C819.806 3060.74 821.351 3065.38 823.925 3068.46C827.529 3072.07 831.648 3073.61 837.312 3073.61Z" fill="#F9893D" fill-opacity="0.5"/>
<path d="M841.426 3206.96V3135.39H839.366L828.039 3161.65H812.078L829.069 3124.07H856.357V3206.96H841.426Z" fill="#F9893D" fill-opacity="0.5"/>
<path d="M837.312 3330.01C827.529 3330.01 819.806 3327.43 813.628 3321.77C807.964 3316.62 804.875 3308.38 804.875 3297.06V3276.46C804.875 3265.65 807.964 3257.93 813.628 3252.26C819.291 3246.6 827.529 3244.03 837.312 3244.03C847.094 3244.03 854.817 3246.6 860.996 3252.26C866.659 3257.93 869.749 3266.17 869.749 3276.46V3297.06C869.749 3307.87 866.659 3316.11 860.996 3321.77C855.332 3326.92 847.609 3330.01 837.312 3330.01ZM837.312 3316.1C842.975 3316.1 847.609 3314.56 850.184 3311.47C852.758 3308.38 854.302 3303.75 854.302 3297.57V3275.43C854.302 3269.25 852.758 3264.62 849.669 3261.53C846.579 3258.44 842.46 3256.9 837.312 3256.9C831.648 3256.9 827.529 3258.44 824.44 3261.53C821.351 3264.62 819.806 3269.25 819.806 3274.92V3297.06C819.806 3303.23 821.351 3307.87 823.925 3310.96C827.529 3314.56 831.648 3316.1 837.312 3316.1Z" fill="#F9893D" fill-opacity="0.5"/>
<path d="M841.426 3449.45V3377.89H839.366L828.039 3404.14H812.078L829.069 3366.56H856.357V3449.45H841.426Z" fill="#F9893D" fill-opacity="0.5"/>
<path d="M837.312 3572.5C827.529 3572.5 819.806 3569.92 813.628 3564.26C807.964 3558.6 804.875 3550.88 804.875 3539.55V3518.95C804.875 3508.14 807.964 3500.42 813.628 3494.76C819.291 3489.09 827.529 3486.52 837.312 3486.52C847.094 3486.52 854.817 3489.09 860.996 3494.76C866.659 3500.42 869.749 3508.66 869.749 3518.95V3539.55C869.749 3550.36 866.659 3558.6 860.996 3564.26C855.332 3569.92 847.609 3572.5 837.312 3572.5ZM837.312 3559.11C842.975 3559.11 847.609 3557.57 850.184 3554.48C852.758 3551.39 854.302 3546.76 854.302 3540.58V3518.44C854.302 3512.26 852.758 3507.63 849.669 3504.54C846.579 3501.45 842.46 3499.91 837.312 3499.91C831.648 3499.91 827.529 3501.45 824.44 3504.54C821.351 3507.63 819.806 3512.26 819.806 3517.93V3540.06C819.806 3546.24 821.351 3550.88 823.925 3553.96C827.529 3557.57 831.648 3559.11 837.312 3559.11Z" fill="#F9893D" fill-opacity="0.5"/>
<path d="M841.426 3692.46V3620.89H839.366L828.039 3647.15H812.078L829.069 3609.57H856.357V3692.46H841.426Z" fill="#F9893D" fill-opacity="0.5"/>
<path d="M837.312 3815.51C827.529 3815.51 819.806 3812.93 813.628 3807.27C807.964 3802.12 804.875 3793.88 804.875 3782.56V3761.96C804.875 3751.15 807.964 3743.43 813.628 3737.76C819.291 3732.1 827.529 3729.53 837.312 3729.53C847.094 3729.53 854.817 3732.1 860.996 3737.76C866.659 3743.43 869.749 3751.67 869.749 3761.96V3782.56C869.749 3793.37 866.659 3801.61 860.996 3807.27C855.332 3812.42 847.609 3815.51 837.312 3815.51ZM837.312 3801.61C842.975 3801.61 847.609 3800.06 850.184 3796.97C852.758 3793.88 854.302 3789.25 854.302 3783.07V3760.93C854.302 3754.75 852.758 3750.12 849.669 3747.03C846.579 3743.94 842.46 3742.4 837.312 3742.4C831.648 3742.4 827.529 3743.94 824.44 3747.03C821.351 3750.12 819.806 3754.75 819.806 3760.42V3782.56C819.806 3788.73 821.351 3793.37 823.925 3796.46C827.529 3800.06 831.648 3801.61 837.312 3801.61Z" fill="#F9893D" fill-opacity="0.5"/>
<path d="M841.426 3934.95V3863.39H839.366L828.039 3889.64H812.078L829.069 3852.06H856.357V3934.95H841.426Z" fill="#F9893D" fill-opacity="0.5"/>
<path d="M841.426 4056.45V3984.89H839.366L828.039 4011.15H812.078L829.069 3973.56H856.357V4056.45H841.426Z" fill="#F9893D" fill-opacity="0.5"/>
<path d="M841.426 4177.96V4105.88H839.366L828.039 4132.14H812.078L829.069 4094.55H856.357V4177.96H841.426Z" fill="#F9893D" fill-opacity="0.5"/>
<path d="M837.312 4301.01C827.529 4301.01 819.806 4298.43 813.628 4292.77C807.964 4287.62 804.875 4279.38 804.875 4268.06V4247.46C804.875 4236.65 807.964 4228.93 813.628 4223.26C819.291 4217.6 827.529 4215.03 837.312 4215.03C847.094 4215.03 854.817 4217.6 860.996 4223.26C866.659 4228.93 869.749 4237.16 869.749 4247.46V4268.06C869.749 4278.87 866.659 4287.1 860.996 4292.77C855.332 4297.92 847.609 4301.01 837.312 4301.01ZM837.312 4287.1C842.975 4287.1 847.609 4285.56 850.184 4282.47C852.758 4279.38 854.302 4274.75 854.302 4268.57V4246.43C854.302 4240.25 852.758 4235.62 849.669 4232.53C846.579 4229.44 842.46 4227.9 837.312 4227.9C831.648 4227.9 827.529 4229.44 824.44 4232.53C821.351 4235.62 819.806 4240.25 819.806 4245.92V4268.06C819.806 4274.23 821.351 4278.87 823.925 4281.96C827.529 4285.56 831.648 4287.1 837.312 4287.1Z" fill="#F9893D" fill-opacity="0.5"/>
<path d="M837.312 4421.99C827.529 4421.99 819.806 4419.42 813.628 4413.76C807.964 4408.61 804.875 4400.37 804.875 4389.04V4368.45C804.875 4357.64 807.964 4349.92 813.628 4344.25C819.291 4338.59 827.529 4336.02 837.312 4336.02C847.094 4336.02 854.817 4338.59 860.996 4344.25C866.659 4349.92 869.749 4358.15 869.749 4368.45V4389.04C869.749 4399.86 866.659 4408.09 860.996 4413.76C855.332 4419.42 847.609 4421.99 837.312 4421.99ZM837.312 4408.61C842.975 4408.61 847.609 4407.06 850.184 4403.98C852.758 4400.89 854.302 4396.25 854.302 4390.07V4367.94C854.302 4361.76 852.758 4357.12 849.669 4354.04C846.579 4350.95 842.46 4349.4 837.312 4349.4C831.648 4349.4 827.529 4350.95 824.44 4354.04C821.351 4357.12 819.806 4361.76 819.806 4367.42V4389.56C819.806 4395.74 821.351 4400.37 823.925 4403.46C827.529 4407.06 831.648 4408.61 837.312 4408.61Z" fill="#F9893D" fill-opacity="0.5"/>
<path d="M841.426 4541.95V4470.39H839.366L828.039 4496.65H812.078L829.069 4459.06H856.357V4541.95H841.426Z" fill="#F9893D" fill-opacity="0.5"/>
<path d="M837.312 4665C827.529 4665 819.806 4662.43 813.628 4656.76C807.964 4651.1 804.875 4643.38 804.875 4632.05V4611.46C804.875 4600.65 807.964 4592.92 813.628 4587.26C819.291 4581.6 827.529 4579.02 837.312 4579.02C847.094 4579.02 854.817 4581.6 860.996 4587.26C866.659 4592.92 869.749 4601.16 869.749 4611.46V4632.05C869.749 4642.86 866.659 4651.1 860.996 4656.76C855.332 4662.43 847.609 4665 837.312 4665ZM837.312 4651.62C842.975 4651.62 847.609 4650.07 850.184 4646.98C852.758 4643.89 854.302 4639.26 854.302 4633.08V4610.94C854.302 4604.77 852.758 4600.13 849.669 4597.04C846.579 4593.95 842.46 4592.41 837.312 4592.41C831.648 4592.41 827.529 4593.95 824.44 4597.04C821.351 4600.13 819.806 4604.77 819.806 4610.43V4632.57C819.806 4638.74 821.351 4643.38 823.925 4646.47C827.529 4650.07 831.648 4651.62 837.312 4651.62Z" fill="#F9893D" fill-opacity="0.5"/>
<path opacity="0.78" d="M841.426 4784.45V4712.88H839.366L828.039 4739.14H812.078L829.069 4701.56H856.357V4784.45H841.426Z" fill="#F9893D" fill-opacity="0.5"/>
<path opacity="0.78" d="M837.312 4907.49C827.529 4907.49 819.806 4904.92 813.628 4899.26C807.964 4894.11 804.875 4885.87 804.875 4874.54V4853.95C804.875 4843.14 807.964 4835.42 813.628 4829.75C819.291 4824.09 827.529 4821.52 837.312 4821.52C847.094 4821.52 854.817 4824.09 860.996 4829.75C866.659 4835.42 869.749 4843.65 869.749 4853.95V4874.54C869.749 4885.36 866.659 4893.59 860.996 4899.26C855.332 4904.92 847.609 4907.49 837.312 4907.49ZM837.312 4894.11C842.975 4894.11 847.609 4892.56 850.184 4889.48C852.758 4886.39 854.302 4881.75 854.302 4875.57V4853.44C854.302 4847.26 852.758 4842.62 849.669 4839.54C846.579 4836.45 842.46 4834.9 837.312 4834.9C831.648 4834.9 827.529 4836.45 824.44 4839.54C821.351 4842.62 819.806 4847.26 819.806 4852.92V4875.06C819.806 4881.24 821.351 4885.87 823.925 4888.96C827.529 4892.56 831.648 4894.11 837.312 4894.11Z" fill="#F9893D" fill-opacity="0.5"/>
<path opacity="0.78" d="M837.312 5029C827.529 5029 819.806 5026.42 813.628 5020.76C807.964 5015.61 804.875 5007.38 804.875 4996.05V4975.45C804.875 4964.64 807.964 4956.92 813.628 4951.26C819.291 4945.59 827.529 4943.02 837.312 4943.02C847.094 4943.02 854.817 4945.59 860.996 4951.26C866.659 4956.92 869.749 4965.16 869.749 4975.45V4996.05C869.749 5006.86 866.659 5015.1 860.996 5020.76C855.332 5026.42 847.609 5029 837.312 5029ZM837.312 5015.61C842.975 5015.61 847.609 5014.07 850.184 5010.98C852.758 5007.89 854.302 5003.26 854.302 4997.08V4974.94C854.302 4968.76 852.758 4964.13 849.669 4961.04C846.579 4957.95 842.46 4956.41 837.312 4956.41C831.648 4956.41 827.529 4957.95 824.44 4961.04C821.351 4964.13 819.806 4968.76 819.806 4974.42V4996.56C819.806 5002.74 821.351 5007.37 823.925 5010.46C827.529 5014.07 831.648 5015.61 837.312 5015.61Z" fill="#F9893D" fill-opacity="0.5"/>
<path opacity="0.78" d="M841.426 5148.96V5077.39H839.366L828.039 5103.65H812.078L829.069 5066.07H856.357V5148.96H841.426Z" fill="#F9893D" fill-opacity="0.5"/>
<path opacity="0.78" d="M837.312 5272.01C827.529 5272.01 819.806 5269.43 813.628 5263.77C807.964 5258.1 804.875 5250.38 804.875 5239.06V5218.46C804.875 5207.65 807.964 5199.93 813.628 5194.26C819.291 5188.6 827.529 5186.03 837.312 5186.03C847.094 5186.03 854.817 5188.6 860.996 5194.26C866.659 5199.93 869.749 5208.16 869.749 5218.46V5239.06C869.749 5249.87 866.659 5258.1 860.996 5263.77C855.332 5268.92 847.609 5272.01 837.312 5272.01ZM837.312 5258.1C842.975 5258.1 847.609 5256.56 850.184 5253.47C852.758 5250.38 854.302 5245.75 854.302 5239.57V5217.43C854.302 5211.25 852.758 5206.62 849.669 5203.53C846.579 5200.44 842.46 5198.9 837.312 5198.9C831.648 5198.9 827.529 5200.44 824.44 5203.53C821.351 5206.62 819.806 5211.25 819.806 5216.92V5239.06C819.806 5245.23 821.351 5249.87 823.925 5252.96C827.529 5256.56 831.648 5258.1 837.312 5258.1Z" fill="#F9893D" fill-opacity="0.5"/>
<path opacity="0.78" d="M841.426 5391.45V5319.89H839.366L828.039 5346.14H812.078L829.069 5308.56H856.357V5391.45H841.426Z" fill="#F9893D" fill-opacity="0.5"/>
<path opacity="0.78" d="M837.312 5514.5C827.529 5514.5 819.806 5511.92 813.628 5506.26C807.964 5501.11 804.875 5492.87 804.875 5481.55V5460.95C804.875 5450.14 807.964 5442.42 813.628 5436.76C819.291 5431.09 827.529 5428.52 837.312 5428.52C847.094 5428.52 854.817 5431.09 860.996 5436.76C866.659 5442.42 869.749 5450.66 869.749 5460.95V5481.55C869.749 5492.36 866.659 5500.6 860.996 5506.26C855.332 5511.92 847.609 5514.5 837.312 5514.5ZM837.312 5501.11C842.975 5501.11 847.609 5499.57 850.184 5496.48C852.758 5493.39 854.302 5488.76 854.302 5482.58V5460.44C854.302 5454.26 852.758 5449.63 849.669 5446.54C846.579 5443.45 842.46 5441.91 837.312 5441.91C831.648 5441.91 827.529 5443.45 824.44 5446.54C821.351 5449.63 819.806 5454.26 819.806 5459.92V5482.06C819.806 5488.24 821.351 5492.87 823.925 5495.96C827.529 5499.57 831.648 5501.11 837.312 5501.11Z" fill="#F9893D" fill-opacity="0.5"/>
<path opacity="0.78" d="M841.426 5634.46V5562.89H839.366L828.039 5589.15H812.078L829.069 5551.57H856.357V5634.46H841.426Z" fill="#F9893D" fill-opacity="0.5"/>
<path opacity="0.78" d="M837.312 5757.51C827.529 5757.51 819.806 5754.93 813.628 5749.27C807.964 5744.12 804.875 5735.88 804.875 5724.56V5703.96C804.875 5693.15 807.964 5685.43 813.628 5679.76C819.291 5674.1 827.529 5671.53 837.312 5671.53C847.094 5671.53 854.817 5674.1 860.996 5679.76C866.659 5685.43 869.749 5693.67 869.749 5703.96V5724.56C869.749 5735.37 866.659 5743.6 860.996 5749.27C855.332 5754.42 847.609 5757.51 837.312 5757.51ZM837.312 5743.6C842.975 5743.6 847.609 5742.06 850.184 5738.97C852.758 5735.88 854.302 5731.25 854.302 5725.07V5702.93C854.302 5696.75 852.758 5692.12 849.669 5689.03C846.579 5685.94 842.46 5684.4 837.312 5684.4C831.648 5684.4 827.529 5685.94 824.44 5689.03C821.351 5692.12 819.806 5696.75 819.806 5702.42V5724.56C819.806 5730.73 821.351 5735.37 823.925 5738.46C827.529 5742.06 831.648 5743.6 837.312 5743.6Z" fill="#F9893D" fill-opacity="0.5"/>
<path opacity="0.78" d="M841.426 5876.95V5805.39H839.366L828.039 5831.64H812.078L829.069 5794.06H856.357V5876.95H841.426Z" fill="#F9893D" fill-opacity="0.5"/>
</g>
<g opacity="0.18">
<path d="M672.437 2853.77C662.654 2853.77 654.931 2851.2 648.753 2845.53C642.574 2839.87 640 2832.15 640 2820.82V2800.23C640 2789.42 643.089 2781.69 648.753 2776.03C654.416 2770.37 662.654 2767.79 672.437 2767.79C682.219 2767.79 689.943 2770.37 696.121 2776.03C701.785 2781.69 704.874 2789.93 704.874 2800.23V2820.82C704.874 2831.63 701.785 2839.87 696.121 2845.53C689.943 2851.2 682.219 2853.77 672.437 2853.77ZM672.437 2840.39C678.101 2840.39 682.734 2838.84 685.309 2835.75C687.883 2832.66 689.428 2828.03 689.428 2821.85V2799.71C689.428 2793.54 687.883 2788.9 684.794 2785.81C681.705 2782.72 677.586 2781.18 672.437 2781.18C666.773 2781.18 662.654 2782.72 659.565 2785.81C656.476 2788.9 654.931 2793.54 654.931 2799.2V2821.34C654.931 2827.52 656.476 2832.15 659.05 2835.24C662.139 2838.84 666.258 2840.39 672.437 2840.39Z" fill="#F9893D" fill-opacity="0.5"/>
<path d="M676.043 2976.82V2905.26H673.983L662.656 2931.51H646.695L663.686 2893.93H690.974V2976.82H676.043Z" fill="#F9893D" fill-opacity="0.5"/>
<path d="M672.437 3102.44C662.654 3102.44 654.931 3099.87 648.753 3094.21C642.574 3088.54 640 3080.82 640 3069.49V3048.9C640 3038.09 643.089 3030.36 648.753 3024.7C654.416 3019.04 662.654 3016.46 672.437 3016.46C682.219 3016.46 689.943 3019.04 696.121 3024.7C701.785 3030.36 704.874 3038.6 704.874 3048.9V3069.49C704.874 3080.3 701.785 3088.54 696.121 3094.21C689.943 3099.87 682.219 3102.44 672.437 3102.44ZM672.437 3089.06C678.101 3089.06 682.734 3087.51 685.309 3084.42C687.883 3081.33 689.428 3076.7 689.428 3070.52V3048.38C689.428 3042.21 687.883 3037.57 684.794 3034.48C681.705 3031.39 677.586 3029.85 672.437 3029.85C666.773 3029.85 662.654 3031.39 659.565 3034.48C656.476 3037.57 654.931 3042.21 654.931 3047.87V3070.01C654.931 3076.19 656.476 3080.82 659.05 3083.91C662.139 3087.51 666.258 3089.06 672.437 3089.06Z" fill="#F9893D" fill-opacity="0.5"/>
<path d="M676.043 3225.49V3153.41H673.983L662.656 3179.67H646.695L663.686 3142.09H690.974V3225.49H676.043Z" fill="#F9893D" fill-opacity="0.5"/>
<path d="M672.437 3351.11C662.654 3351.11 654.931 3348.53 648.753 3342.88C642.574 3337.2 640 3329.49 640 3318.16V3297.57C640 3286.76 643.089 3279.04 648.753 3273.37C654.416 3267.71 662.654 3265.12 672.437 3265.12C682.219 3265.12 689.943 3267.71 696.121 3273.37C701.785 3279.04 704.874 3287.27 704.874 3297.57V3318.16C704.874 3328.98 701.785 3337.2 696.121 3342.88C689.943 3348.53 682.219 3351.11 672.437 3351.11ZM672.437 3337.73C678.101 3337.73 682.734 3336.18 685.309 3333.09C687.883 3330.01 689.428 3325.37 689.428 3319.19V3297.06C689.428 3290.88 687.883 3286.24 684.794 3283.15C681.705 3280.07 677.586 3278.52 672.437 3278.52C666.773 3278.52 662.654 3280.07 659.565 3283.15C656.476 3286.24 654.931 3290.88 654.931 3296.54V3318.68C654.931 3324.86 656.476 3329.49 659.05 3332.58C662.139 3336.18 666.258 3337.73 672.437 3337.73Z" fill="#F9893D" fill-opacity="0.5"/>
<path d="M676.043 3474.16V3402.6H673.983L662.656 3428.86H646.695L663.686 3391.27H690.974V3474.16H676.043Z" fill="#F9893D" fill-opacity="0.5"/>
<path d="M672.437 3599.78C662.654 3599.78 654.931 3597.21 648.753 3591.55C642.574 3585.88 640 3578.16 640 3566.83V3546.24C640 3535.43 643.089 3527.71 648.753 3522.04C654.416 3516.38 662.654 3513.8 672.437 3513.8C682.219 3513.8 689.943 3516.38 696.121 3522.04C701.785 3527.71 704.874 3535.94 704.874 3546.24V3566.83C704.874 3577.65 701.785 3585.88 696.121 3591.55C689.943 3597.21 682.219 3599.78 672.437 3599.78ZM672.437 3586.4C678.101 3586.4 682.734 3584.85 685.309 3581.76C687.883 3578.68 689.428 3574.04 689.428 3567.86V3545.73C689.428 3539.55 687.883 3534.91 684.794 3531.82C681.705 3528.74 677.586 3527.19 672.437 3527.19C666.773 3527.19 662.654 3528.74 659.565 3531.82C656.476 3534.91 654.931 3539.55 654.931 3545.21V3567.35C654.931 3573.53 656.476 3578.16 659.05 3581.25C662.139 3584.85 666.258 3586.4 672.437 3586.4Z" fill="#F9893D" fill-opacity="0.5"/>
<path d="M676.043 3722.83V3651.27H673.983L662.656 3677.53H646.695L663.686 3639.94H690.974V3722.83H676.043Z" fill="#F9893D" fill-opacity="0.5"/>
<path d="M672.437 3848.45C662.654 3848.45 654.931 3845.88 648.753 3840.22C643.089 3835.07 640 3826.83 640 3815.5V3794.91C640 3784.1 643.089 3776.38 648.753 3770.71C654.416 3765.05 662.654 3762.48 672.437 3762.48C682.219 3762.48 689.943 3765.05 696.121 3770.71C701.785 3776.38 704.874 3784.61 704.874 3794.91V3815.5C704.874 3826.32 701.785 3834.55 696.121 3840.22C689.943 3845.88 682.219 3848.45 672.437 3848.45ZM672.437 3835.07C678.101 3835.07 682.734 3833.52 685.309 3830.44C687.883 3827.35 689.428 3822.71 689.428 3816.53V3794.4C689.428 3788.22 687.883 3783.58 684.794 3780.5C681.705 3777.41 677.586 3775.86 672.437 3775.86C666.773 3775.86 662.654 3777.41 659.565 3780.5C656.476 3783.58 654.931 3788.22 654.931 3793.88V3816.02C654.931 3822.2 656.476 3826.83 659.05 3829.92C662.139 3833.52 666.258 3835.07 672.437 3835.07Z" fill="#F9893D" fill-opacity="0.5"/>
<path d="M676.043 3971.5V3899.94H673.983L662.656 3926.2H646.695L663.686 3888.61H690.974V3971.5H676.043Z" fill="#F9893D" fill-opacity="0.5"/>
<path d="M672.437 4097.13C662.654 4097.13 654.931 4094.55 648.753 4088.89C643.089 4083.74 640 4075.5 640 4064.18V4043.58C640 4032.77 643.089 4025.05 648.753 4019.38C654.416 4013.72 662.654 4011.15 672.437 4011.15C682.219 4011.15 689.943 4013.72 696.121 4019.38C701.785 4025.05 704.874 4033.29 704.874 4043.58V4064.18C704.874 4074.99 701.785 4083.23 696.121 4088.89C689.943 4094.55 682.219 4097.13 672.437 4097.13ZM672.437 4083.74C678.101 4083.74 682.734 4082.2 685.309 4079.11C687.883 4076.02 689.428 4071.38 689.428 4065.21V4043.07C689.428 4036.89 687.883 4032.26 684.794 4029.17C681.705 4026.08 677.586 4024.53 672.437 4024.53C666.773 4024.53 662.654 4026.08 659.565 4029.17C656.476 4032.26 654.931 4036.89 654.931 4042.55V4064.69C654.931 4070.87 656.476 4075.5 659.05 4078.59C662.139 4082.2 666.258 4083.74 672.437 4083.74Z" fill="#F9893D" fill-opacity="0.5"/>
<path d="M676.043 4220.17V4148.61H673.983L662.656 4174.87H646.695L663.686 4137.28H690.974V4220.17H676.043Z" fill="#F9893D" fill-opacity="0.5"/>
<path d="M676.043 4344.25V4272.69H673.983L662.656 4298.95H646.695L663.686 4261.36H690.974V4344.25H676.043Z" fill="#F9893D" fill-opacity="0.5"/>
<path d="M676.043 4468.85V4397.28H673.983L662.656 4423.54H646.695L663.686 4385.96H690.974V4468.85H676.043Z" fill="#F9893D" fill-opacity="0.5"/>
<path d="M672.437 4594.47C662.654 4594.47 654.931 4591.89 648.753 4586.23C643.089 4580.57 640 4572.84 640 4561.52V4540.92C640 4530.11 643.089 4522.39 648.753 4516.73C654.416 4511.06 662.654 4508.49 672.437 4508.49C682.219 4508.49 689.943 4511.06 696.121 4516.73C701.785 4522.39 704.874 4530.63 704.874 4540.92V4561.52C704.874 4572.33 701.785 4580.57 696.121 4586.23C689.943 4591.89 682.219 4594.47 672.437 4594.47ZM672.437 4581.08C678.1 4581.08 682.734 4579.54 685.309 4576.45C687.883 4573.36 689.428 4568.72 689.428 4562.55V4540.41C689.428 4534.23 687.883 4529.6 684.794 4526.51C681.705 4523.42 677.586 4521.87 672.437 4521.87C666.773 4521.87 662.654 4523.42 659.565 4526.51C656.476 4529.6 654.931 4534.23 654.931 4539.89V4562.03C654.931 4568.21 656.476 4572.84 659.05 4575.93C662.139 4579.54 666.258 4581.08 672.437 4581.08Z" fill="#F9893D" fill-opacity="0.5"/>
<path opacity="0.78" d="M672.437 4719.06C662.654 4719.06 654.931 4716.49 648.753 4710.82C643.089 4705.67 640 4697.44 640 4686.11V4665.52C640 4654.7 643.089 4646.98 648.753 4641.32C654.416 4635.66 662.654 4633.08 672.437 4633.08C682.219 4633.08 689.943 4635.66 696.121 4641.32C701.785 4646.98 704.874 4655.22 704.874 4665.52V4686.11C704.874 4696.92 701.785 4705.16 696.121 4710.82C689.943 4716.49 682.219 4719.06 672.437 4719.06ZM672.437 4705.67C678.101 4705.67 682.734 4704.13 685.309 4701.04C687.883 4697.95 689.428 4693.32 689.428 4687.14V4665C689.428 4658.82 687.883 4654.19 684.794 4651.1C681.705 4648.01 677.586 4646.47 672.437 4646.47C666.773 4646.47 662.654 4648.01 659.565 4651.1C656.476 4654.19 654.931 4658.82 654.931 4664.49V4686.62C654.931 4692.8 656.476 4697.44 659.05 4700.53C662.139 4704.13 666.258 4705.67 672.437 4705.67Z" fill="#F9893D" fill-opacity="0.5"/>
<path opacity="0.78" d="M676.043 4841.59V4770.03H673.983L662.656 4796.29H646.695L663.686 4758.7H690.974V4841.59H676.043Z" fill="#F9893D" fill-opacity="0.5"/>
<path opacity="0.78" d="M672.437 4967.73C662.654 4967.73 654.931 4965.16 648.753 4959.49C643.089 4954.34 640 4946.11 640 4934.78V4914.19C640 4903.37 643.089 4895.65 648.753 4889.99C654.416 4884.33 662.654 4881.75 672.437 4881.75C682.219 4881.75 689.943 4884.33 696.121 4889.99C701.785 4895.65 704.874 4903.89 704.874 4914.19V4934.78C704.874 4945.59 701.785 4953.83 696.121 4959.49C689.943 4965.16 682.219 4967.73 672.437 4967.73ZM672.437 4954.34C678.101 4954.34 682.734 4952.8 685.309 4949.71C687.883 4946.62 689.428 4941.99 689.428 4935.81V4913.67C689.428 4907.49 687.883 4902.86 684.794 4899.77C681.705 4896.68 677.586 4895.14 672.437 4895.14C666.773 4895.14 662.654 4896.68 659.565 4899.77C656.476 4902.86 654.931 4907.49 654.931 4913.16V4935.3C654.931 4941.47 656.476 4946.11 659.05 4949.2C662.139 4952.8 666.258 4954.34 672.437 4954.34Z" fill="#F9893D" fill-opacity="0.5"/>
<path opacity="0.78" d="M676.043 5090.26V5018.7H673.983L662.656 5044.96H646.695L663.686 5007.37H690.974V5090.26H676.043Z" fill="#F9893D" fill-opacity="0.5"/>
<path opacity="0.78" d="M672.437 5216.4C662.654 5216.4 654.931 5213.83 648.753 5208.16C643.089 5202.5 640 5194.78 640 5183.45V5162.86C640 5152.05 643.089 5144.32 648.753 5138.66C654.416 5133 662.654 5130.42 672.437 5130.42C682.219 5130.42 689.943 5133 696.121 5138.66C701.785 5144.32 704.874 5152.56 704.874 5162.86V5183.45C704.874 5194.26 701.785 5202.5 696.121 5208.16C689.943 5213.83 682.219 5216.4 672.437 5216.4ZM672.437 5203.01C678.1 5203.01 682.734 5201.47 685.309 5198.38C687.883 5195.29 689.428 5190.66 689.428 5184.48V5162.34C689.428 5156.16 687.883 5151.53 684.794 5148.44C681.705 5145.35 677.586 5143.81 672.437 5143.81C666.773 5143.81 662.654 5145.35 659.565 5148.44C656.476 5151.53 654.931 5156.16 654.931 5161.83V5183.97C654.931 5190.14 656.476 5194.78 659.05 5197.87C662.139 5201.47 666.258 5203.01 672.437 5203.01Z" fill="#F9893D" fill-opacity="0.5"/>
<path opacity="0.78" d="M672.437 5340.48C662.654 5340.48 654.931 5337.9 648.753 5332.24C643.089 5327.09 640 5318.86 640 5307.53V5286.94C640 5276.12 643.089 5268.4 648.753 5262.74C654.416 5257.07 662.654 5254.5 672.437 5254.5C682.219 5254.5 689.943 5257.07 696.121 5262.74C701.785 5268.4 704.874 5276.64 704.874 5286.94V5307.53C704.874 5318.34 701.785 5326.58 696.121 5332.24C689.943 5337.9 682.219 5340.48 672.437 5340.48ZM672.437 5327.09C678.101 5327.09 682.734 5325.55 685.309 5322.46C687.883 5319.37 689.428 5314.74 689.428 5308.56V5286.42C689.428 5280.24 687.883 5275.61 684.794 5272.52C681.705 5269.43 677.586 5267.89 672.437 5267.89C666.773 5267.89 662.654 5269.43 659.565 5272.52C656.476 5275.61 654.931 5280.24 654.931 5285.91V5308.04C654.931 5314.22 656.476 5318.86 659.05 5321.94C662.139 5325.55 666.258 5327.09 672.437 5327.09Z" fill="#F9893D" fill-opacity="0.5"/>
<path opacity="0.78" d="M676.043 5463.53V5391.96H673.983L662.656 5418.22H646.695L663.686 5380.64H690.974V5463.53H676.043Z" fill="#F9893D" fill-opacity="0.5"/>
<path opacity="0.78" d="M672.437 5589.15C662.654 5589.15 654.931 5586.58 648.753 5580.91C643.089 5575.76 640 5567.53 640 5556.2V5535.61C640 5524.79 643.089 5517.07 648.753 5511.41C654.416 5505.75 662.654 5503.17 672.437 5503.17C682.219 5503.17 689.943 5505.75 696.121 5511.41C701.785 5517.07 704.874 5525.31 704.874 5535.61V5556.2C704.874 5567.01 701.785 5575.25 696.121 5580.91C689.943 5586.58 682.219 5589.15 672.437 5589.15ZM672.437 5575.76C678.101 5575.76 682.734 5574.22 685.309 5571.13C687.883 5568.04 689.428 5563.41 689.428 5557.23V5535.09C689.428 5528.91 687.883 5524.28 684.794 5521.19C681.705 5518.1 677.586 5516.56 672.437 5516.56C666.773 5516.56 662.654 5518.1 659.565 5521.19C656.476 5524.28 654.931 5528.91 654.931 5534.58V5556.72C654.931 5562.89 656.476 5567.53 659.05 5570.62C662.139 5574.22 666.258 5575.76 672.437 5575.76Z" fill="#F9893D" fill-opacity="0.5"/>
<path opacity="0.78" d="M676.043 5712.2V5640.12H673.983L662.656 5666.38H646.695L663.686 5628.79H690.974V5711.68H676.043V5712.2Z" fill="#F9893D" fill-opacity="0.5"/>
<path opacity="0.78" d="M672.437 5837.82C662.654 5837.82 654.931 5835.25 648.753 5829.58C643.089 5823.92 640 5816.2 640 5804.87V5784.28C640 5773.46 643.089 5765.74 648.753 5760.08C654.416 5754.42 662.654 5751.84 672.437 5751.84C682.219 5751.84 689.943 5754.42 696.121 5760.08C701.785 5765.74 704.874 5773.98 704.874 5784.28V5804.87C704.874 5815.68 701.785 5823.92 696.121 5829.58C689.943 5835.25 682.219 5837.82 672.437 5837.82ZM672.437 5824.43C678.101 5824.43 682.734 5822.89 685.309 5819.8C687.883 5816.71 689.428 5812.08 689.428 5805.9V5783.76C689.428 5777.58 687.883 5772.95 684.794 5769.86C681.705 5766.77 677.586 5765.23 672.437 5765.23C666.773 5765.23 662.654 5766.77 659.565 5769.86C656.476 5772.95 654.931 5777.58 654.931 5783.25V5805.39C654.931 5811.56 656.476 5816.2 659.05 5819.29C662.139 5822.89 666.258 5824.43 672.437 5824.43Z" fill="#F9893D" fill-opacity="0.5"/>
<path opacity="0.78" d="M676.043 5960.87V5889.31H673.983L662.656 5915.56H646.695L663.686 5877.98H690.974V5960.87H676.043Z" fill="#F9893D" fill-opacity="0.5"/>
<path d="M672.437 6086.49C662.654 6086.49 654.931 6083.92 648.753 6078.25C643.089 6072.59 640 6064.87 640 6053.54V6032.95C640 6022.14 643.089 6014.41 648.753 6008.75C654.416 6003.09 662.654 6000.51 672.437 6000.51C682.219 6000.51 689.943 6003.09 696.121 6008.75C701.785 6014.41 704.874 6022.65 704.874 6032.95V6053.54C704.874 6064.35 701.785 6072.59 696.121 6078.25C689.943 6083.92 682.219 6086.49 672.437 6086.49ZM672.437 6073.11C678.101 6073.11 682.734 6071.56 685.309 6068.47C687.883 6065.38 689.428 6060.75 689.428 6054.57V6032.43C689.428 6026.25 687.883 6021.62 684.794 6018.53C681.705 6015.44 677.586 6013.9 672.437 6013.9C666.773 6013.9 662.654 6015.44 659.565 6018.53C656.476 6021.62 654.931 6026.25 654.931 6031.92V6054.06C654.931 6060.23 656.476 6064.87 659.05 6067.96C662.139 6071.56 666.258 6073.11 672.437 6073.11Z" fill="#F9893D" fill-opacity="0.5"/>
<path d="M676.043 6209.54V6137.98H673.983L662.656 6164.23H646.695L663.686 6126.65H690.974V6209.54H676.043Z" fill="#F9893D" fill-opacity="0.5"/>
</g>
<g opacity="0.18">
<path d="M130.437 86.9792C120.654 86.9792 112.931 84.4051 106.753 78.7418C101.089 73.5933 98 65.3557 98 54.0291V33.4352C98 22.6235 101.089 14.9009 106.753 9.23757C112.416 3.57426 120.654 1 130.437 1C140.219 1 147.942 3.57426 154.121 9.23757C159.784 14.9009 162.874 23.1383 162.874 33.4352V54.0291C162.874 64.8409 159.784 73.0785 154.121 78.7418C148.457 84.4051 140.734 86.9792 130.437 86.9792ZM130.437 73.5933C136.1 73.5933 140.734 72.0487 143.309 68.9596C145.883 65.8705 147.427 61.237 147.427 55.0588V32.9204C147.427 26.7422 145.883 22.1087 142.794 19.0196C139.704 15.9305 135.585 14.386 130.437 14.386C124.773 14.386 120.654 15.9305 117.565 19.0196C114.476 22.1087 112.931 26.7423 112.931 32.4056V54.544C112.931 60.7221 114.476 65.3558 117.05 68.4449C120.654 72.0488 124.773 73.5933 130.437 73.5933Z" fill="#F9893D" fill-opacity="0.5"/>
<path d="M134.551 206.937V135.374H132.491L121.164 161.631H105.203L122.194 124.047H149.482V206.937H134.551Z" fill="#F9893D" fill-opacity="0.5"/>
<path d="M130.437 329.987C120.654 329.987 112.931 327.413 106.753 321.75C101.089 316.086 98 308.364 98 297.037V276.443C98 265.631 101.089 257.909 106.753 252.246C112.416 246.582 120.654 244.008 130.437 244.008C140.219 244.008 147.942 246.582 154.121 252.246C159.784 257.909 162.874 266.146 162.874 276.443V297.037C162.874 307.849 159.784 316.086 154.121 321.75C148.457 326.898 140.734 329.987 130.437 329.987ZM130.437 316.086C136.1 316.086 140.734 314.542 143.309 311.453C145.883 308.364 147.427 303.73 147.427 297.552V275.414C147.427 269.235 145.883 264.602 142.794 261.513C139.704 258.424 135.585 256.879 130.437 256.879C124.773 256.879 120.654 258.424 117.565 261.513C114.476 264.602 112.931 269.235 112.931 274.899V297.037C112.931 303.215 114.476 307.849 117.05 310.938C120.654 314.542 124.773 316.086 130.437 316.086Z" fill="#F9893D" fill-opacity="0.5"/>
<path d="M134.551 449.429V377.866H132.491L121.164 404.123H105.203L122.194 366.539H149.482V449.429H134.551Z" fill="#F9893D" fill-opacity="0.5"/>
<path d="M130.437 572.479C120.654 572.479 112.931 569.905 106.753 564.242C101.089 559.093 98 550.856 98 539.529V518.935C98 508.123 101.089 500.401 106.753 494.737C112.416 489.074 120.654 486.5 130.437 486.5C140.219 486.5 147.942 489.074 154.121 494.737C159.784 500.401 162.874 508.638 162.874 518.935V539.529C162.874 550.341 159.784 558.578 154.121 564.242C148.457 569.905 140.734 572.479 130.437 572.479ZM130.437 559.093C136.1 559.093 140.734 557.549 143.309 554.459C145.883 551.37 147.427 546.737 147.427 540.559V518.42C147.427 512.242 145.883 507.609 142.794 504.52C139.704 501.431 135.585 499.886 130.437 499.886C124.773 499.886 120.654 501.431 117.565 504.52C114.476 507.609 112.931 512.242 112.931 517.905V540.044C112.931 546.222 114.476 550.856 117.05 553.945C120.654 557.549 124.773 559.093 130.437 559.093Z" fill="#F9893D" fill-opacity="0.5"/>
<path d="M134.551 692.437V620.874H132.491L121.164 647.131H105.203L122.194 609.547H149.482V692.437H134.551Z" fill="#F9893D" fill-opacity="0.5"/>
<path d="M130.437 815.487C120.654 815.487 112.931 812.913 106.753 807.25C101.089 802.101 98 793.864 98 782.537V761.943C98 751.132 101.089 743.409 106.753 737.746C112.416 732.082 120.654 729.508 130.437 729.508C140.219 729.508 147.942 732.082 154.121 737.746C159.784 743.409 162.874 751.646 162.874 761.943V782.537C162.874 793.349 159.784 801.586 154.121 807.25C148.457 812.398 140.734 815.487 130.437 815.487ZM130.437 801.586C136.1 801.586 140.734 800.042 143.309 796.953C145.883 793.864 147.427 789.23 147.427 783.052V760.914C147.427 754.735 145.883 750.102 142.794 747.013C139.704 743.924 135.585 742.379 130.437 742.379C124.773 742.379 120.654 743.924 117.565 747.013C114.476 750.102 112.931 754.735 112.931 760.399V782.537C112.931 788.715 114.476 793.349 117.05 796.438C120.654 800.042 124.773 801.586 130.437 801.586Z" fill="#F9893D" fill-opacity="0.5"/>
<path d="M134.551 934.929V863.365H132.491L121.164 889.623H105.203L122.194 852.039H149.482V934.929H134.551Z" fill="#F9893D" fill-opacity="0.5"/>
<path d="M130.437 1057.98C120.654 1057.98 112.931 1055.4 106.753 1049.74C101.089 1044.08 98 1036.36 98 1025.03V1004.44C98 993.623 101.089 985.901 106.753 980.237C112.416 974.574 120.654 972 130.437 972C140.219 972 147.942 974.574 154.121 980.237C159.784 985.901 162.874 994.138 162.874 1004.44V1025.03C162.874 1035.84 159.784 1044.08 154.121 1049.74C148.457 1055.4 140.734 1057.98 130.437 1057.98ZM130.437 1044.59C136.1 1044.59 140.734 1043.05 143.309 1039.96C145.883 1036.87 147.427 1032.24 147.427 1026.06V1003.92C147.427 997.742 145.883 993.109 142.794 990.02C139.704 986.931 135.585 985.386 130.437 985.386C124.773 985.386 120.654 986.931 117.565 990.02C114.476 993.109 112.931 997.742 112.931 1003.41V1025.54C112.931 1031.72 114.476 1036.36 117.05 1039.44C120.654 1043.05 124.773 1044.59 130.437 1044.59Z" fill="#F9893D" fill-opacity="0.5"/>
<path d="M134.551 1177.94V1106.37H132.491L121.164 1132.63H105.203L122.194 1095.05H149.482V1177.94H134.551Z" fill="#F9893D" fill-opacity="0.5"/>
<path d="M130.437 1300.99C120.654 1300.99 112.931 1298.41 106.753 1292.75C101.089 1287.6 98 1279.36 98 1268.04V1247.44C98 1236.63 101.089 1228.91 106.753 1223.25C112.416 1217.58 120.654 1215.01 130.437 1215.01C140.219 1215.01 147.942 1217.58 154.121 1223.25C159.784 1228.91 162.874 1237.15 162.874 1247.44V1268.04C162.874 1278.85 159.784 1287.09 154.121 1292.75C148.457 1297.9 140.734 1300.99 130.437 1300.99ZM130.437 1287.09C136.1 1287.09 140.734 1285.54 143.309 1282.45C145.883 1279.36 147.427 1274.73 147.427 1268.55V1246.41C147.427 1240.24 145.883 1235.6 142.794 1232.51C139.704 1229.42 135.585 1227.88 130.437 1227.88C124.773 1227.88 120.654 1229.42 117.565 1232.51C114.476 1235.6 112.931 1240.24 112.931 1245.9V1268.04C112.931 1274.22 114.476 1278.85 117.05 1281.94C120.654 1285.54 124.773 1287.09 130.437 1287.09Z" fill="#F9893D" fill-opacity="0.5"/>
<path d="M134.551 1420.43V1348.87H132.491L121.164 1375.12H105.203L122.194 1337.54H149.482V1420.43H134.551Z" fill="#F9893D" fill-opacity="0.5"/>
<path d="M134.551 1541.93V1470.37H132.491L121.164 1496.63H105.203L122.194 1459.04H149.482V1541.93H134.551Z" fill="#F9893D" fill-opacity="0.5"/>
<path d="M134.551 1663.44V1591.36H132.491L121.164 1617.62H105.203L122.194 1580.03H149.482V1663.44H134.551Z" fill="#F9893D" fill-opacity="0.5"/>
<path d="M130.437 1786.49C120.654 1786.49 112.931 1783.91 106.753 1778.25C101.089 1773.1 98 1764.86 98 1753.54V1732.94C98 1722.13 101.089 1714.41 106.753 1708.74C112.416 1703.08 120.654 1700.51 130.437 1700.51C140.219 1700.51 147.942 1703.08 154.121 1708.74C159.784 1714.41 162.874 1722.65 162.874 1732.94V1753.54C162.874 1764.35 159.784 1772.59 154.121 1778.25C148.457 1783.4 140.734 1786.49 130.437 1786.49ZM130.437 1772.59C136.1 1772.59 140.734 1771.04 143.309 1767.95C145.883 1764.86 147.427 1760.23 147.427 1754.05V1731.91C147.427 1725.73 145.883 1721.1 142.794 1718.01C139.704 1714.92 135.585 1713.38 130.437 1713.38C124.773 1713.38 120.654 1714.92 117.565 1718.01C114.476 1721.1 112.931 1725.73 112.931 1731.4V1753.54C112.931 1759.71 114.476 1764.35 117.05 1767.44C120.654 1771.04 124.773 1772.59 130.437 1772.59Z" fill="#F9893D" fill-opacity="0.5"/>
<path d="M130.437 1907.48C120.654 1907.48 112.931 1904.9 106.753 1899.24C101.089 1894.09 98 1885.85 98 1874.53V1853.93C98 1843.12 101.089 1835.4 106.753 1829.73C112.416 1824.07 120.654 1821.5 130.437 1821.5C140.219 1821.5 147.942 1824.07 154.121 1829.73C159.784 1835.4 162.874 1843.63 162.874 1853.93V1874.53C162.874 1885.34 159.784 1893.57 154.121 1899.24C148.457 1904.9 140.734 1907.48 130.437 1907.48ZM130.437 1894.09C136.1 1894.09 140.734 1892.54 143.309 1889.46C145.883 1886.37 147.427 1881.73 147.427 1875.55V1853.42C147.427 1847.24 145.883 1842.6 142.794 1839.52C139.704 1836.43 135.585 1834.88 130.437 1834.88C124.773 1834.88 120.654 1836.43 117.565 1839.52C114.476 1842.6 112.931 1847.24 112.931 1852.9V1875.04C112.931 1881.22 114.476 1885.85 117.05 1888.94C120.654 1892.54 124.773 1894.09 130.437 1894.09Z" fill="#F9893D" fill-opacity="0.5"/>
<path d="M134.551 2027.43V1955.87H132.491L121.164 1982.13H105.203L122.194 1944.54H149.482V2027.43H134.551Z" fill="#F9893D" fill-opacity="0.5"/>
<path d="M130.437 2150.48C120.654 2150.48 112.931 2147.91 106.753 2142.25C101.089 2136.58 98 2128.86 98 2117.53V2096.94C98 2086.13 101.089 2078.4 106.753 2072.74C112.416 2067.08 120.654 2064.5 130.437 2064.5C140.219 2064.5 147.942 2067.08 154.121 2072.74C159.784 2078.4 162.874 2086.64 162.874 2096.94V2117.53C162.874 2128.34 159.784 2136.58 154.121 2142.25C148.457 2147.91 140.734 2150.48 130.437 2150.48ZM130.437 2137.1C136.1 2137.1 140.734 2135.55 143.309 2132.46C145.883 2129.37 147.427 2124.74 147.427 2118.56V2096.42C147.427 2090.25 145.883 2085.61 142.794 2082.52C139.704 2079.43 135.585 2077.89 130.437 2077.89C124.773 2077.89 120.654 2079.43 117.565 2082.52C114.476 2085.61 112.931 2090.25 112.931 2095.91V2118.05C112.931 2124.23 114.476 2128.86 117.05 2131.95C120.654 2135.55 124.773 2137.1 130.437 2137.1Z" fill="#F9893D" fill-opacity="0.5"/>
<path opacity="0.78" d="M134.551 2269.93V2198.36H132.491L121.164 2224.62H105.203L122.194 2187.04H149.482V2269.93H134.551Z" fill="#F9893D" fill-opacity="0.5"/>
<path opacity="0.78" d="M130.437 2392.98C120.654 2392.98 112.931 2390.4 106.753 2384.74C101.089 2379.59 98 2371.35 98 2360.03V2339.43C98 2328.62 101.089 2320.9 106.753 2315.23C112.416 2309.57 120.654 2307 130.437 2307C140.219 2307 147.942 2309.57 154.121 2315.23C159.784 2320.9 162.874 2329.13 162.874 2339.43V2360.03C162.874 2370.84 159.784 2379.07 154.121 2384.74C148.457 2390.4 140.734 2392.98 130.437 2392.98ZM130.437 2379.59C136.1 2379.59 140.734 2378.04 143.309 2374.96C145.883 2371.87 147.427 2367.23 147.427 2361.05V2338.92C147.427 2332.74 145.883 2328.1 142.794 2325.02C139.704 2321.93 135.585 2320.38 130.437 2320.38C124.773 2320.38 120.654 2321.93 117.565 2325.02C114.476 2328.1 112.931 2332.74 112.931 2338.4V2360.54C112.931 2366.72 114.476 2371.35 117.05 2374.44C120.654 2378.04 124.773 2379.59 130.437 2379.59Z" fill="#F9893D" fill-opacity="0.5"/>
<path opacity="0.78" d="M130.437 2514.48C120.654 2514.48 112.931 2511.9 106.753 2506.24C101.089 2501.09 98 2492.86 98 2481.53V2460.94C98 2450.12 101.089 2442.4 106.753 2436.74C112.416 2431.07 120.654 2428.5 130.437 2428.5C140.219 2428.5 147.942 2431.07 154.121 2436.74C159.784 2442.4 162.874 2450.64 162.874 2460.94V2481.53C162.874 2492.34 159.784 2500.58 154.121 2506.24C148.457 2511.9 140.734 2514.48 130.437 2514.48ZM130.437 2501.09C136.1 2501.09 140.734 2499.55 143.309 2496.46C145.883 2493.37 147.427 2488.74 147.427 2482.56V2460.42C147.427 2454.24 145.883 2449.61 142.794 2446.52C139.704 2443.43 135.585 2441.89 130.437 2441.89C124.773 2441.89 120.654 2443.43 117.565 2446.52C114.476 2449.61 112.931 2454.24 112.931 2459.91V2482.04C112.931 2488.22 114.476 2492.86 117.05 2495.94C120.654 2499.55 124.773 2501.09 130.437 2501.09Z" fill="#F9893D" fill-opacity="0.5"/>
<path opacity="0.78" d="M134.551 2634.44V2562.87H132.491L121.164 2589.13H105.203L122.194 2551.55H149.482V2634.44H134.551Z" fill="#F9893D" fill-opacity="0.5"/>
<path opacity="0.78" d="M130.437 2757.49C120.654 2757.49 112.931 2754.91 106.753 2749.25C101.089 2743.59 98 2735.86 98 2724.54V2703.94C98 2693.13 101.089 2685.41 106.753 2679.74C112.416 2674.08 120.654 2671.51 130.437 2671.51C140.219 2671.51 147.942 2674.08 154.121 2679.74C159.784 2685.41 162.874 2693.65 162.874 2703.94V2724.54C162.874 2735.35 159.784 2743.59 154.121 2749.25C148.457 2754.4 140.734 2757.49 130.437 2757.49ZM130.437 2743.59C136.1 2743.59 140.734 2742.04 143.309 2738.95C145.883 2735.86 147.427 2731.23 147.427 2725.05V2702.91C147.427 2696.73 145.883 2692.1 142.794 2689.01C139.704 2685.92 135.585 2684.38 130.437 2684.38C124.773 2684.38 120.654 2685.92 117.565 2689.01C114.476 2692.1 112.931 2696.73 112.931 2702.4V2724.54C112.931 2730.71 114.476 2735.35 117.05 2738.44C120.654 2742.04 124.773 2743.59 130.437 2743.59Z" fill="#F9893D" fill-opacity="0.5"/>
<path opacity="0.78" d="M134.551 2876.93V2805.37H132.491L121.164 2831.62H105.203L122.194 2794.04H149.482V2876.93H134.551Z" fill="#F9893D" fill-opacity="0.5"/>
<path opacity="0.78" d="M130.437 2999.98C120.654 2999.98 112.931 2997.4 106.753 2991.74C101.089 2986.59 98 2978.36 98 2967.03V2946.43C98 2935.62 101.089 2927.9 106.753 2922.24C112.416 2916.57 120.654 2914 130.437 2914C140.219 2914 147.942 2916.57 154.121 2922.24C159.784 2927.9 162.874 2936.14 162.874 2946.43V2967.03C162.874 2977.84 159.784 2986.08 154.121 2991.74C148.457 2997.4 140.734 2999.98 130.437 2999.98ZM130.437 2986.59C136.1 2986.59 140.734 2985.05 143.309 2981.96C145.883 2978.87 147.427 2974.24 147.427 2968.06V2945.92C147.427 2939.74 145.883 2935.11 142.794 2932.02C139.704 2928.93 135.585 2927.39 130.437 2927.39C124.773 2927.39 120.654 2928.93 117.565 2932.02C114.476 2935.11 112.931 2939.74 112.931 2945.41V2967.54C112.931 2973.72 114.476 2978.36 117.05 2981.44C120.654 2985.05 124.773 2986.59 130.437 2986.59Z" fill="#F9893D" fill-opacity="0.5"/>
<path opacity="0.78" d="M134.551 3119.94V3048.37H132.491L121.164 3074.63H105.203L122.194 3037.05H149.482V3119.94H134.551Z" fill="#F9893D" fill-opacity="0.5"/>
<path opacity="0.78" d="M130.437 3242.99C120.654 3242.99 112.931 3240.41 106.753 3234.75C101.089 3229.6 98 3221.36 98 3210.04V3189.44C98 3178.63 101.089 3170.91 106.753 3165.24C112.416 3159.58 120.654 3157.01 130.437 3157.01C140.219 3157.01 147.942 3159.58 154.121 3165.24C159.784 3170.91 162.874 3179.15 162.874 3189.44V3210.04C162.874 3220.85 159.784 3229.09 154.121 3234.75C148.457 3239.9 140.734 3242.99 130.437 3242.99ZM130.437 3229.09C136.1 3229.09 140.734 3227.54 143.309 3224.45C145.883 3221.36 147.427 3216.73 147.427 3210.55V3188.41C147.427 3182.23 145.883 3177.6 142.794 3174.51C139.704 3171.42 135.585 3169.88 130.437 3169.88C124.773 3169.88 120.654 3171.42 117.565 3174.51C114.476 3177.6 112.931 3182.23 112.931 3187.9V3210.04C112.931 3216.21 114.476 3220.85 117.05 3223.94C120.654 3227.54 124.773 3229.09 130.437 3229.09Z" fill="#F9893D" fill-opacity="0.5"/>
<path opacity="0.78" d="M134.551 3362.43V3290.87H132.491L121.164 3317.12H105.203L122.194 3279.54H149.482V3362.43H134.551Z" fill="#F9893D" fill-opacity="0.5"/>
</g>
</g>
</g>
<defs>
<clipPath id="clip0_338_1586">
<rect width="968" height="7585" fill="white"/>
</clipPath>
</defs>
</svg>
