<svg width="678" height="9016" viewBox="0 0 678 9016" fill="none" xmlns="http://www.w3.org/2000/svg">
<rect width="678" height="9016" fill="#1A1A1A"/>
<g opacity="0.46">
<path d="M108.301 5243.91C96.9573 5243.91 87.676 5240.82 80.4571 5234.64C73.2383 5228.46 70.1445 5218.68 70.1445 5205.81V5181.1C70.1445 5168.74 73.7539 5158.96 80.4571 5152.78C87.1604 5146.6 96.4417 5143 108.301 5143C120.161 5143 128.926 5146.09 136.145 5152.78C143.364 5159.48 146.458 5168.74 146.458 5181.1V5205.81C146.458 5218.68 142.849 5228.46 136.145 5234.64C129.442 5240.82 119.645 5243.91 108.301 5243.91ZM108.301 5227.95C115.52 5227.95 120.161 5225.89 123.77 5222.29C126.864 5218.68 128.926 5213.02 128.926 5205.81V5180.07C128.926 5172.86 126.864 5167.71 123.255 5164.11C119.645 5160.5 114.489 5158.45 108.301 5158.45C102.114 5158.45 96.9573 5160.5 93.3479 5164.11C89.7385 5167.71 88.1916 5173.38 88.1916 5180.07V5205.81C88.1916 5213.02 89.7385 5218.68 93.3479 5222.29C96.4417 5226.41 101.598 5227.95 108.301 5227.95Z" fill="#F9893D" fill-opacity="0.5"/>
<path opacity="0.73" d="M112.426 5388.07V5303.63H109.848L96.9572 5334.52H78.3945L98.5041 5290.76H130.473V5388.07H112.426Z" fill="#F9893D" fill-opacity="0.5"/>
<path opacity="0.73" d="M108.301 5535.83C96.9573 5535.83 87.676 5532.74 80.4571 5526.56C73.2383 5520.38 70.1445 5510.6 70.1445 5497.73V5473.02C70.1445 5460.66 73.7539 5450.88 80.4571 5444.7C87.1604 5438.52 96.4417 5434.92 108.301 5434.92C120.161 5434.92 128.926 5438.01 136.145 5444.7C143.364 5451.39 146.458 5460.66 146.458 5473.02V5497.73C146.458 5510.6 142.849 5520.38 136.145 5526.56C128.926 5532.74 119.645 5535.83 108.301 5535.83ZM108.301 5519.87C115.52 5519.87 120.161 5517.81 123.77 5514.2C126.864 5510.6 128.926 5504.94 128.926 5497.73V5471.99C128.926 5464.78 126.864 5459.63 123.255 5456.03C119.645 5452.42 114.489 5450.36 108.301 5450.36C102.114 5450.36 96.9573 5452.42 93.3479 5456.03C89.7385 5459.63 88.1916 5465.29 88.1916 5471.99V5497.73C88.1916 5504.94 89.7385 5510.6 93.3479 5514.2C96.4417 5518.32 101.598 5519.87 108.301 5519.87Z" fill="#F9893D" fill-opacity="0.5"/>
<path opacity="0.73" d="M112.426 5679.99V5595.55H109.848L96.9572 5626.44H78.3945L98.5041 5582.68H130.473V5679.99H112.426Z" fill="#F9893D" fill-opacity="0.5"/>
<path opacity="0.73" d="M108.301 5827.75C96.9573 5827.75 87.676 5824.66 80.4571 5818.48C73.2383 5812.3 70.1445 5802.52 70.1445 5789.65V5764.93C70.1445 5752.58 73.7539 5742.8 80.4571 5736.62C87.676 5729.93 96.4417 5726.84 108.301 5726.84C120.161 5726.84 128.926 5729.93 136.145 5736.62C142.849 5743.31 146.458 5752.58 146.458 5764.93V5789.65C146.458 5802.52 142.849 5812.3 136.145 5818.48C128.926 5824.66 119.645 5827.75 108.301 5827.75ZM108.301 5811.79C115.52 5811.79 120.161 5809.73 123.77 5806.12C126.864 5802.52 128.926 5796.86 128.926 5789.65V5763.9C128.926 5756.7 126.864 5751.55 123.255 5747.94C119.645 5744.34 114.489 5742.28 108.301 5742.28C102.114 5742.28 96.9573 5744.34 93.3479 5747.94C89.7385 5751.55 88.1916 5757.21 88.1916 5763.9V5789.65C88.1916 5796.86 89.7385 5802.52 93.3479 5806.12C96.4417 5810.24 101.598 5811.79 108.301 5811.79Z" fill="#F9893D" fill-opacity="0.5"/>
<path d="M112.426 5971.9V5887.47H109.848L96.9572 5918.36H78.3945L98.5041 5874.6H130.473V5971.9H112.426Z" fill="#F9893D" fill-opacity="0.5"/>
<path d="M108.301 6119.66C96.9573 6119.66 87.676 6116.57 80.4571 6110.4C73.2383 6104.22 70.1445 6094.44 70.1445 6081.57V6056.85C70.1445 6044.5 73.7539 6034.71 80.4571 6028.54C87.676 6021.84 96.4417 6018.75 108.301 6018.75C120.161 6018.75 128.926 6021.84 136.145 6028.54C142.849 6035.23 146.458 6044.5 146.458 6056.85V6081.57C146.458 6094.44 142.849 6104.22 136.145 6110.4C128.926 6116.57 119.645 6119.66 108.301 6119.66ZM108.301 6103.7C115.52 6103.7 120.161 6101.64 123.77 6098.04C126.864 6094.44 128.926 6088.77 128.926 6081.57V6055.82C128.926 6048.62 126.864 6043.47 123.255 6039.86C119.645 6036.26 114.489 6034.2 108.301 6034.2C102.114 6034.2 96.9573 6036.26 93.3479 6039.86C89.7385 6043.47 88.1916 6049.13 88.1916 6055.82V6081.57C88.1916 6088.77 89.7385 6094.44 93.3479 6098.04C96.4417 6102.16 101.598 6103.7 108.301 6103.7Z" fill="#F9893D" fill-opacity="0.5"/>
<path opacity="0.78" d="M112.426 6263.82V6179.38H109.848L96.9572 6210.28H78.3945L98.5041 6166.51H130.473V6263.82H112.426Z" fill="#F9893D" fill-opacity="0.5"/>
<path opacity="0.78" d="M108.301 6411.58C96.9573 6411.58 87.676 6408.49 80.4571 6402.31C73.2383 6396.14 70.1445 6386.35 70.1445 6373.48V6348.77C70.1445 6336.41 73.7539 6326.63 80.4571 6320.45C87.1604 6314.28 96.4417 6310.67 108.301 6310.67C120.161 6310.67 128.926 6313.76 136.145 6320.45C143.364 6327.15 146.458 6336.41 146.458 6348.77V6373.48C146.458 6386.35 142.849 6396.14 136.145 6402.31C128.926 6408.49 119.645 6411.58 108.301 6411.58ZM108.301 6395.62C115.52 6395.62 120.161 6393.56 123.77 6389.96C126.864 6386.35 128.926 6380.69 128.926 6373.48V6347.74C128.926 6340.53 126.864 6335.38 123.255 6331.78C119.645 6328.18 114.489 6326.12 108.301 6326.12C102.114 6326.12 96.9573 6328.18 93.3479 6331.78C89.7385 6335.38 88.1916 6341.05 88.1916 6347.74V6373.48C88.1916 6380.69 89.7385 6386.35 93.3479 6389.96C96.4417 6394.08 101.598 6395.62 108.301 6395.62Z" fill="#F9893D" fill-opacity="0.5"/>
<path opacity="0.78" d="M112.426 6555.74V6471.3H109.848L96.9572 6502.19H78.3945L98.5041 6458.43H130.473V6555.74H112.426Z" fill="#F9893D" fill-opacity="0.5"/>
<path opacity="0.78" d="M108.301 6703.5C96.9573 6703.5 87.676 6700.41 80.4571 6694.23C73.2383 6688.05 70.1445 6678.27 70.1445 6665.4V6640.69C70.1445 6628.33 73.7539 6618.55 80.4571 6612.37C87.1604 6606.19 96.4417 6602.59 108.301 6602.59C120.161 6602.59 128.926 6605.68 136.145 6612.37C143.364 6619.06 146.458 6628.33 146.458 6640.69V6665.4C146.458 6678.27 142.849 6688.05 136.145 6694.23C129.442 6700.41 119.645 6703.5 108.301 6703.5ZM108.301 6687.54C115.52 6687.54 120.161 6685.48 123.77 6681.87C126.864 6678.27 128.926 6672.61 128.926 6665.4V6639.66C128.926 6632.45 126.864 6627.3 123.255 6623.7C119.645 6620.09 114.489 6618.03 108.301 6618.03C102.114 6618.03 96.9573 6620.09 93.3479 6623.7C89.7385 6627.3 88.1916 6632.96 88.1916 6639.66V6665.4C88.1916 6672.61 89.7385 6678.27 93.3479 6681.87C96.4417 6685.99 101.598 6687.54 108.301 6687.54Z" fill="#F9893D" fill-opacity="0.5"/>
<path d="M112.426 6847.66V6763.22H109.848L96.9572 6794.11H78.3945L98.5041 6750.35H130.473V6847.66H112.426Z" fill="#F9893D" fill-opacity="0.5"/>
<path d="M112.426 6993.36V6908.92H109.848L96.9572 6939.81H78.3945L98.5041 6896.05H130.473V6993.36H112.426Z" fill="#F9893D" fill-opacity="0.5"/>
<path d="M112.426 7139.57V7055.14H109.848L96.9572 7086.03H78.3945L98.5041 7042.27H130.473V7139.57H112.426Z" fill="#F9893D" fill-opacity="0.5"/>
<path d="M108.301 7287.33C96.9573 7287.33 87.676 7284.24 80.4571 7278.07C73.2383 7271.89 70.1445 7262.11 70.1445 7249.23V7224.52C70.1445 7212.17 73.7539 7202.38 80.4571 7196.21C87.676 7189.51 96.4417 7186.42 108.301 7186.42C120.161 7186.42 128.926 7189.51 136.145 7196.21C142.849 7202.9 146.458 7212.17 146.458 7224.52V7249.23C146.458 7262.11 142.849 7271.89 136.145 7278.07C128.926 7284.24 119.645 7287.33 108.301 7287.33ZM108.301 7271.37C115.52 7271.37 120.161 7269.31 123.77 7265.71C126.864 7262.11 128.926 7256.44 128.926 7249.23V7223.49C128.926 7216.28 126.864 7211.14 123.255 7207.53C119.645 7203.93 114.489 7201.87 108.301 7201.87C102.114 7201.87 96.9573 7203.93 93.3479 7207.53C89.7385 7211.14 88.1916 7216.8 88.1916 7223.49V7249.23C88.1916 7256.44 89.7385 7262.11 93.3479 7265.71C96.4417 7269.83 101.598 7271.37 108.301 7271.37Z" fill="#F9893D" fill-opacity="0.5"/>
<path d="M108.301 7433.55C96.9573 7433.55 87.676 7430.46 80.4571 7424.28C73.2383 7418.1 70.1445 7408.32 70.1445 7395.45V7370.74C70.1445 7358.38 73.7539 7348.6 80.4571 7342.42C87.1604 7336.24 96.4417 7332.64 108.301 7332.64C120.161 7332.64 128.926 7335.73 136.145 7342.42C143.364 7349.12 146.458 7358.38 146.458 7370.74V7395.45C146.458 7408.32 142.849 7418.1 136.145 7424.28C129.442 7430.46 119.645 7433.55 108.301 7433.55ZM108.301 7417.59C115.52 7417.59 120.161 7415.53 123.77 7411.93C126.864 7408.32 128.926 7402.66 128.926 7395.45V7369.71C128.926 7362.5 126.864 7357.35 123.255 7353.75C119.645 7350.15 114.489 7348.09 108.301 7348.09C102.114 7348.09 96.9573 7350.15 93.3479 7353.75C89.7385 7357.35 88.1916 7363.02 88.1916 7369.71V7395.45C88.1916 7402.66 89.7385 7408.32 93.3479 7411.93C96.4417 7415.53 101.598 7417.59 108.301 7417.59Z" fill="#F9893D" fill-opacity="0.5"/>
<path d="M112.426 7577.19V7492.76H109.848L96.9572 7523.65H78.3945L98.5041 7479.89H130.473V7577.19H112.426Z" fill="#F9893D" fill-opacity="0.5"/>
</g>
<g opacity="0.46">
<path d="M254.614 4521.91C243.27 4521.91 233.988 4518.82 226.77 4512.64C219.551 4506.46 216.457 4496.68 216.457 4483.81V4459.1C216.457 4446.74 220.066 4436.96 226.77 4430.78C233.473 4424.6 242.754 4421 254.614 4421C266.473 4421 275.239 4424.09 282.458 4430.78C289.677 4437.48 292.77 4446.74 292.77 4459.1V4483.81C292.77 4496.68 289.161 4506.46 282.458 4512.64C275.755 4518.82 265.958 4521.91 254.614 4521.91ZM254.614 4505.95C261.833 4505.95 266.473 4503.89 270.083 4500.29C273.176 4496.68 275.239 4491.02 275.239 4483.81V4458.07C275.239 4450.86 273.176 4445.71 269.567 4442.11C265.958 4438.5 260.801 4436.45 254.614 4436.45C248.426 4436.45 243.27 4438.5 239.66 4442.11C236.051 4445.71 234.504 4451.38 234.504 4458.07V4483.81C234.504 4491.02 236.051 4496.68 239.66 4500.29C242.754 4504.41 247.911 4505.95 254.614 4505.95Z" fill="#F9893D" fill-opacity="0.5"/>
<path opacity="0.73" d="M258.739 4666.07V4581.63H256.161L243.27 4612.52H224.707L244.817 4568.76H276.786V4666.07H258.739Z" fill="#F9893D" fill-opacity="0.5"/>
<path opacity="0.73" d="M254.614 4813.83C243.27 4813.83 233.988 4810.74 226.77 4804.56C219.551 4798.38 216.457 4788.6 216.457 4775.73V4751.02C216.457 4738.66 220.066 4728.88 226.77 4722.7C233.473 4716.52 242.754 4712.92 254.614 4712.92C266.473 4712.92 275.239 4716.01 282.458 4722.7C289.677 4729.39 292.77 4738.66 292.77 4751.02V4775.73C292.77 4788.6 289.161 4798.38 282.458 4804.56C275.239 4810.74 265.958 4813.83 254.614 4813.83ZM254.614 4797.87C261.833 4797.87 266.473 4795.81 270.083 4792.2C273.176 4788.6 275.239 4782.94 275.239 4775.73V4749.99C275.239 4742.78 273.176 4737.63 269.567 4734.03C265.958 4730.42 260.801 4728.36 254.614 4728.36C248.426 4728.36 243.27 4730.42 239.66 4734.03C236.051 4737.63 234.504 4743.29 234.504 4749.99V4775.73C234.504 4782.94 236.051 4788.6 239.66 4792.2C242.754 4796.32 247.911 4797.87 254.614 4797.87Z" fill="#F9893D" fill-opacity="0.5"/>
<path opacity="0.73" d="M258.739 4957.99V4873.55H256.161L243.27 4904.44H224.707L244.817 4860.68H276.786V4957.99H258.739Z" fill="#F9893D" fill-opacity="0.5"/>
<path opacity="0.73" d="M254.614 5105.75C243.27 5105.75 233.988 5102.66 226.77 5096.48C219.551 5090.3 216.457 5080.52 216.457 5067.65V5042.93C216.457 5030.58 220.066 5020.8 226.77 5014.62C233.988 5007.93 242.754 5004.84 254.614 5004.84C266.473 5004.84 275.239 5007.93 282.458 5014.62C289.161 5021.31 292.77 5030.58 292.77 5042.93V5067.65C292.77 5080.52 289.161 5090.3 282.458 5096.48C275.239 5102.66 265.958 5105.75 254.614 5105.75ZM254.614 5089.79C261.833 5089.79 266.473 5087.73 270.083 5084.12C273.176 5080.52 275.239 5074.86 275.239 5067.65V5041.9C275.239 5034.7 273.176 5029.55 269.567 5025.94C265.958 5022.34 260.801 5020.28 254.614 5020.28C248.426 5020.28 243.27 5022.34 239.66 5025.94C236.051 5029.55 234.504 5035.21 234.504 5041.9V5067.65C234.504 5074.86 236.051 5080.52 239.66 5084.12C242.754 5088.24 247.911 5089.79 254.614 5089.79Z" fill="#F9893D" fill-opacity="0.5"/>
<path d="M258.739 5249.9V5165.47H256.161L243.27 5196.36H224.707L244.817 5152.6H276.786V5249.9H258.739Z" fill="#F9893D" fill-opacity="0.5"/>
<path d="M254.614 5397.66C243.27 5397.66 233.988 5394.57 226.77 5388.4C219.551 5382.22 216.457 5372.44 216.457 5359.57V5334.85C216.457 5322.5 220.066 5312.71 226.77 5306.54C233.988 5299.84 242.754 5296.75 254.614 5296.75C266.473 5296.75 275.239 5299.84 282.458 5306.54C289.161 5313.23 292.77 5322.5 292.77 5334.85V5359.57C292.77 5372.44 289.161 5382.22 282.458 5388.4C275.239 5394.57 265.958 5397.66 254.614 5397.66ZM254.614 5381.7C261.833 5381.7 266.473 5379.64 270.083 5376.04C273.176 5372.44 275.239 5366.77 275.239 5359.57V5333.82C275.239 5326.62 273.176 5321.47 269.567 5317.86C265.958 5314.26 260.801 5312.2 254.614 5312.2C248.426 5312.2 243.27 5314.26 239.66 5317.86C236.051 5321.47 234.504 5327.13 234.504 5333.82V5359.57C234.504 5366.77 236.051 5372.44 239.66 5376.04C242.754 5380.16 247.911 5381.7 254.614 5381.7Z" fill="#F9893D" fill-opacity="0.5"/>
<path opacity="0.78" d="M258.739 5541.82V5457.38H256.161L243.27 5488.28H224.707L244.817 5444.51H276.786V5541.82H258.739Z" fill="#F9893D" fill-opacity="0.5"/>
<path opacity="0.78" d="M254.614 5689.58C243.27 5689.58 233.988 5686.49 226.77 5680.31C219.551 5674.14 216.457 5664.35 216.457 5651.48V5626.77C216.457 5614.41 220.066 5604.63 226.77 5598.45C233.473 5592.28 242.754 5588.67 254.614 5588.67C266.473 5588.67 275.239 5591.76 282.458 5598.45C289.677 5605.15 292.77 5614.41 292.77 5626.77V5651.48C292.77 5664.35 289.161 5674.14 282.458 5680.31C275.239 5686.49 265.958 5689.58 254.614 5689.58ZM254.614 5673.62C261.833 5673.62 266.473 5671.56 270.083 5667.96C273.176 5664.35 275.239 5658.69 275.239 5651.48V5625.74C275.239 5618.53 273.176 5613.38 269.567 5609.78C265.958 5606.18 260.801 5604.12 254.614 5604.12C248.426 5604.12 243.27 5606.18 239.66 5609.78C236.051 5613.38 234.504 5619.05 234.504 5625.74V5651.48C234.504 5658.69 236.051 5664.35 239.66 5667.96C242.754 5672.08 247.911 5673.62 254.614 5673.62Z" fill="#F9893D" fill-opacity="0.5"/>
<path opacity="0.78" d="M258.739 5833.74V5749.3H256.161L243.27 5780.19H224.707L244.817 5736.43H276.786V5833.74H258.739Z" fill="#F9893D" fill-opacity="0.5"/>
<path opacity="0.78" d="M254.614 5981.5C243.27 5981.5 233.988 5978.41 226.77 5972.23C219.551 5966.05 216.457 5956.27 216.457 5943.4V5918.69C216.457 5906.33 220.066 5896.55 226.77 5890.37C233.473 5884.19 242.754 5880.59 254.614 5880.59C266.473 5880.59 275.239 5883.68 282.458 5890.37C289.677 5897.06 292.77 5906.33 292.77 5918.69V5943.4C292.77 5956.27 289.161 5966.05 282.458 5972.23C275.755 5978.41 265.958 5981.5 254.614 5981.5ZM254.614 5965.54C261.833 5965.54 266.473 5963.48 270.083 5959.87C273.176 5956.27 275.239 5950.61 275.239 5943.4V5917.66C275.239 5910.45 273.176 5905.3 269.567 5901.7C265.958 5898.09 260.801 5896.03 254.614 5896.03C248.426 5896.03 243.27 5898.09 239.66 5901.7C236.051 5905.3 234.504 5910.96 234.504 5917.66V5943.4C234.504 5950.61 236.051 5956.27 239.66 5959.87C242.754 5963.99 247.911 5965.54 254.614 5965.54Z" fill="#F9893D" fill-opacity="0.5"/>
<path d="M258.739 6125.66V6041.22H256.161L243.27 6072.11H224.707L244.817 6028.35H276.786V6125.66H258.739Z" fill="#F9893D" fill-opacity="0.5"/>
<path d="M258.739 6271.36V6186.92H256.161L243.27 6217.81H224.707L244.817 6174.05H276.786V6271.36H258.739Z" fill="#F9893D" fill-opacity="0.5"/>
<path d="M258.739 6417.57V6333.14H256.161L243.27 6364.03H224.707L244.817 6320.27H276.786V6417.57H258.739Z" fill="#F9893D" fill-opacity="0.5"/>
<path d="M254.614 6565.33C243.27 6565.33 233.988 6562.24 226.77 6556.07C219.551 6549.89 216.457 6540.11 216.457 6527.23V6502.52C216.457 6490.17 220.066 6480.38 226.77 6474.21C233.988 6467.51 242.754 6464.42 254.614 6464.42C266.473 6464.42 275.239 6467.51 282.458 6474.21C289.161 6480.9 292.77 6490.17 292.77 6502.52V6527.23C292.77 6540.11 289.161 6549.89 282.458 6556.07C275.239 6562.24 265.958 6565.33 254.614 6565.33ZM254.614 6549.37C261.833 6549.37 266.473 6547.31 270.083 6543.71C273.176 6540.11 275.239 6534.44 275.239 6527.23V6501.49C275.239 6494.28 273.176 6489.14 269.567 6485.53C265.958 6481.93 260.801 6479.87 254.614 6479.87C248.426 6479.87 243.27 6481.93 239.66 6485.53C236.051 6489.14 234.504 6494.8 234.504 6501.49V6527.23C234.504 6534.44 236.051 6540.11 239.66 6543.71C242.754 6547.83 247.911 6549.37 254.614 6549.37Z" fill="#F9893D" fill-opacity="0.5"/>
<path d="M254.614 6711.55C243.27 6711.55 233.988 6708.46 226.77 6702.28C219.551 6696.1 216.457 6686.32 216.457 6673.45V6648.74C216.457 6636.38 220.066 6626.6 226.77 6620.42C233.473 6614.24 242.754 6610.64 254.614 6610.64C266.473 6610.64 275.239 6613.73 282.458 6620.42C289.677 6627.12 292.77 6636.38 292.77 6648.74V6673.45C292.77 6686.32 289.161 6696.1 282.458 6702.28C275.755 6708.46 265.958 6711.55 254.614 6711.55ZM254.614 6695.59C261.833 6695.59 266.473 6693.53 270.083 6689.93C273.176 6686.32 275.239 6680.66 275.239 6673.45V6647.71C275.239 6640.5 273.176 6635.35 269.567 6631.75C265.958 6628.15 260.801 6626.09 254.614 6626.09C248.426 6626.09 243.27 6628.15 239.66 6631.75C236.051 6635.35 234.504 6641.02 234.504 6647.71V6673.45C234.504 6680.66 236.051 6686.32 239.66 6689.93C242.754 6693.53 247.911 6695.59 254.614 6695.59Z" fill="#F9893D" fill-opacity="0.5"/>
<path d="M258.739 6855.19V6770.76H256.161L243.27 6801.65H224.707L244.817 6757.89H276.786V6855.19H258.739Z" fill="#F9893D" fill-opacity="0.5"/>
</g>
<g opacity="0.18">
<path d="M241.094 83.4051V11.3266H239.032L227.688 37.5838H211.703L228.719 0H256.047V83.4051H241.094Z" fill="#F9893D" fill-opacity="0.5"/>
<path d="M237.485 209.026C227.688 209.026 219.953 206.452 213.766 200.789C207.578 195.125 205 187.403 205 176.076V155.482C205 144.67 208.094 136.948 213.766 131.284C219.438 125.621 227.688 123.047 237.485 123.047C247.282 123.047 255.016 125.621 261.204 131.284C266.876 136.948 269.969 145.185 269.969 155.482V176.076C269.969 186.888 266.876 195.125 261.204 200.789C255.016 206.452 247.282 209.026 237.485 209.026ZM237.485 195.64C243.157 195.64 247.797 194.096 250.376 191.007C252.954 187.917 254.501 183.284 254.501 177.106V154.967C254.501 148.789 252.954 144.156 249.86 141.066C246.766 137.977 242.641 136.433 237.485 136.433C231.813 136.433 227.688 137.977 224.594 141.066C221.5 144.156 219.953 148.789 219.953 154.452V176.591C219.953 182.769 221.5 187.403 224.078 190.492C227.172 194.096 231.813 195.64 237.485 195.64Z" fill="#F9893D" fill-opacity="0.5"/>
<path d="M241.094 332.077V259.998H239.032L227.688 286.256H211.703L228.719 248.672H256.047V331.562H241.094V332.077Z" fill="#F9893D" fill-opacity="0.5"/>
<path d="M241.094 456.154V384.59H239.032L227.688 410.847H211.703L228.719 373.264H256.047V456.154H241.094Z" fill="#F9893D" fill-opacity="0.5"/>
<path d="M241.094 580.746V508.667H239.032L227.688 534.924H211.703L229.235 497.855H256.563V580.746H241.094Z" fill="#F9893D" fill-opacity="0.5"/>
<path d="M237.485 706.37C227.688 706.37 219.953 703.796 213.766 698.132C207.578 692.469 205 684.746 205 673.42V652.826C205 642.014 208.094 634.291 213.766 628.628C219.438 622.965 227.688 620.391 237.485 620.391C247.282 620.391 255.016 622.965 261.204 628.628C266.876 634.291 269.969 642.529 269.969 652.826V673.42C269.969 684.232 266.876 692.469 261.204 698.132C255.016 703.796 247.282 706.37 237.485 706.37ZM237.485 692.984C243.157 692.984 247.797 691.439 250.376 688.35C252.954 685.261 254.501 680.628 254.501 674.449V652.311C254.501 646.133 252.954 641.499 249.86 638.41C246.766 635.321 242.641 633.777 237.485 633.777C231.813 633.777 227.688 635.321 224.594 638.41C221.5 641.499 219.953 646.133 219.953 651.796V673.935C219.953 680.113 221.5 684.746 224.078 687.835C227.172 691.439 231.813 692.984 237.485 692.984Z" fill="#F9893D" fill-opacity="0.5"/>
<path d="M237.485 830.962C227.688 830.962 219.953 828.388 213.766 822.724C207.578 817.061 205 809.338 205 798.012V777.418C205 766.606 208.094 758.883 213.766 753.22C219.438 747.557 227.688 744.982 237.485 744.982C247.282 744.982 255.016 747.557 261.204 753.22C266.876 758.883 269.969 767.121 269.969 777.418V798.012C269.969 808.823 266.876 817.061 261.204 822.724C255.016 828.388 247.282 830.962 237.485 830.962ZM237.485 817.576C243.157 817.576 247.797 816.031 250.376 812.942C252.954 809.853 254.501 805.219 254.501 799.041V776.903C254.501 770.725 252.954 766.091 249.86 763.002C246.766 759.913 242.641 758.368 237.485 758.368C231.813 758.368 227.688 759.913 224.594 763.002C221.5 766.091 219.953 770.725 219.953 776.388V798.526C219.953 804.705 221.5 809.338 224.078 812.427C227.172 816.031 231.813 817.576 237.485 817.576Z" fill="#F9893D" fill-opacity="0.5"/>
<path d="M241.094 953.496V881.932H239.032L227.688 908.189H211.703L228.719 870.605H256.047V953.496H241.094Z" fill="#F9893D" fill-opacity="0.5"/>
<path d="M237.485 1079.63C227.688 1079.63 219.953 1077.06 213.766 1071.39C207.578 1065.73 205 1058.01 205 1046.68V1026.09C205 1015.28 208.094 1007.55 213.766 1001.89C219.438 996.227 227.688 993.652 237.485 993.652C247.282 993.652 255.016 996.227 261.204 1001.89C266.876 1007.55 269.969 1015.79 269.969 1026.09V1046.68C269.969 1057.49 266.876 1065.73 261.204 1071.39C255.016 1077.06 247.282 1079.63 237.485 1079.63ZM237.485 1066.25C243.157 1066.25 247.797 1064.7 250.376 1061.61C252.954 1058.52 254.501 1053.89 254.501 1047.71V1025.57C254.501 1019.39 252.954 1014.76 249.86 1011.67C246.766 1008.58 242.641 1007.04 237.485 1007.04C231.813 1007.04 227.688 1008.58 224.594 1011.67C221.5 1014.76 219.953 1019.39 219.953 1025.06V1047.2C219.953 1053.37 221.5 1058.01 224.078 1061.1C227.172 1064.7 231.813 1066.25 237.485 1066.25Z" fill="#F9893D" fill-opacity="0.5"/>
<path opacity="0.78" d="M241.094 1202.17V1130.6H239.032L227.688 1156.86H211.703L228.719 1119.28H256.047V1202.17H241.094Z" fill="#F9893D" fill-opacity="0.5"/>
<path opacity="0.78" d="M237.485 1328.3C227.688 1328.3 219.953 1325.73 213.766 1320.07C207.578 1314.4 205 1306.68 205 1295.35V1274.76C205 1263.95 208.094 1256.23 213.766 1250.56C219.438 1244.9 227.688 1242.32 237.485 1242.32C247.282 1242.32 255.016 1244.9 261.204 1250.56C266.876 1256.23 269.969 1264.46 269.969 1274.76V1295.35C269.969 1306.17 266.876 1314.4 261.204 1320.07C255.016 1325.73 247.282 1328.3 237.485 1328.3ZM237.485 1314.92C243.157 1314.92 247.797 1313.37 250.376 1310.28C252.954 1307.19 254.501 1302.56 254.501 1296.38V1274.24C254.501 1268.07 252.954 1263.43 249.86 1260.34C246.766 1257.25 242.641 1255.71 237.485 1255.71C231.813 1255.71 227.688 1257.25 224.594 1260.34C221.5 1263.43 219.953 1268.07 219.953 1273.73V1295.87C219.953 1302.05 221.5 1306.68 224.078 1309.77C227.172 1313.37 231.813 1314.92 237.485 1314.92Z" fill="#F9893D" fill-opacity="0.5"/>
<path opacity="0.78" d="M237.485 1452.38C227.688 1452.38 219.953 1449.81 213.766 1444.14C207.578 1438.48 205 1430.76 205 1419.43V1398.84C205 1388.03 208.094 1380.3 213.766 1374.64C219.438 1368.98 227.688 1366.4 237.485 1366.4C247.282 1366.4 255.016 1368.98 261.204 1374.64C266.876 1380.3 269.969 1388.54 269.969 1398.84V1419.43C269.969 1430.24 266.876 1438.48 261.204 1444.14C255.016 1449.81 247.282 1452.38 237.485 1452.38ZM237.485 1439C243.157 1439 247.797 1437.45 250.376 1434.36C252.954 1431.27 254.501 1426.64 254.501 1420.46V1398.32C254.501 1392.14 252.954 1387.51 249.86 1384.42C246.766 1381.33 242.641 1379.79 237.485 1379.79C231.813 1379.79 227.688 1381.33 224.594 1384.42C221.5 1387.51 219.953 1392.14 219.953 1397.81V1419.95C219.953 1426.12 221.5 1430.76 224.078 1433.85C227.172 1437.45 231.813 1439 237.485 1439Z" fill="#F9893D" fill-opacity="0.5"/>
<path d="M241.094 1575.43V1503.87H239.032L227.688 1530.12H211.703L228.719 1492.54H256.047V1575.43H241.094Z" fill="#F9893D" fill-opacity="0.5"/>
<path d="M237.485 1701.05C227.688 1701.05 219.953 1698.48 213.766 1692.81C207.578 1687.15 205 1679.43 205 1668.1V1647.51C205 1636.7 208.094 1628.97 213.766 1623.31C219.438 1617.65 227.688 1615.07 237.485 1615.07C247.282 1615.07 255.016 1617.65 261.204 1623.31C266.876 1628.97 269.969 1637.21 269.969 1647.51V1668.1C269.969 1678.91 266.876 1687.15 261.204 1692.81C255.016 1698.48 247.282 1701.05 237.485 1701.05ZM237.485 1687.67C243.157 1687.67 247.797 1686.12 250.376 1683.03C252.954 1679.94 254.501 1675.31 254.501 1669.13V1646.99C254.501 1640.81 252.954 1636.18 249.86 1633.09C246.766 1630 242.641 1628.46 237.485 1628.46C231.813 1628.46 227.688 1630 224.594 1633.09C221.5 1636.18 219.953 1640.81 219.953 1646.48V1668.62C219.953 1674.79 221.5 1679.43 224.078 1682.52C227.172 1686.12 231.813 1687.67 237.485 1687.67Z" fill="#F9893D" fill-opacity="0.5"/>
<path d="M241.094 1824.1V1752.54H239.032L227.688 1778.79H211.703L228.719 1741.21H256.047V1824.1H241.094Z" fill="#F9893D" fill-opacity="0.5"/>
<path d="M237.485 1949.72C227.688 1949.72 219.953 1947.15 213.766 1941.48C207.578 1935.82 205 1928.1 205 1916.77V1896.18C205 1885.37 208.094 1877.64 213.766 1871.98C219.438 1866.32 227.688 1863.74 237.485 1863.74C247.282 1863.74 255.016 1866.32 261.204 1871.98C266.876 1877.64 269.969 1885.88 269.969 1896.18V1916.77C269.969 1927.58 266.876 1935.82 261.204 1941.48C255.016 1947.15 247.282 1949.72 237.485 1949.72ZM237.485 1936.34C243.157 1936.34 247.797 1934.79 250.376 1931.7C252.954 1928.61 254.501 1923.98 254.501 1917.8V1895.66C254.501 1889.48 252.954 1884.85 249.86 1881.76C246.766 1878.67 242.641 1877.13 237.485 1877.13C231.813 1877.13 227.688 1878.67 224.594 1881.76C221.5 1884.85 219.953 1889.48 219.953 1895.15V1917.29C219.953 1923.46 221.5 1928.1 224.078 1931.19C227.172 1934.79 231.813 1936.34 237.485 1936.34Z" fill="#F9893D" fill-opacity="0.5"/>
<path d="M241.094 2072.77V2001.21H239.032L227.688 2027.46H211.703L228.719 1989.88H256.047V2072.77H241.094Z" fill="#F9893D" fill-opacity="0.5"/>
<path d="M237.485 2198.39C227.688 2198.39 219.953 2195.82 213.766 2190.16C207.578 2184.49 205 2176.77 205 2165.44V2144.85C205 2134.04 208.094 2126.31 213.766 2120.65C219.438 2114.99 227.688 2112.41 237.485 2112.41C247.282 2112.41 255.016 2114.99 261.204 2120.65C266.876 2126.31 269.969 2134.55 269.969 2144.85V2165.44C269.969 2176.25 266.876 2184.49 261.204 2190.16C255.016 2195.82 247.282 2198.39 237.485 2198.39ZM237.485 2185.01C243.157 2185.01 247.797 2183.46 250.376 2180.37C252.954 2177.28 254.501 2172.65 254.501 2166.47V2144.33C254.501 2138.16 252.954 2133.52 249.86 2130.43C246.766 2127.34 242.641 2125.8 237.485 2125.8C231.813 2125.8 227.688 2127.34 224.594 2130.43C221.5 2133.52 219.953 2138.16 219.953 2143.82V2165.96C219.953 2172.14 221.5 2176.77 224.078 2179.86C227.172 2183.46 231.813 2185.01 237.485 2185.01Z" fill="#F9893D" fill-opacity="0.5"/>
<path d="M241.094 2321.44V2249.88H239.032L227.688 2276.13H211.703L228.719 2238.55H256.047V2321.44H241.094Z" fill="#F9893D" fill-opacity="0.5"/>
</g>
<g opacity="0.18">
<path d="M583.448 222.048V163.241H581.765L572.51 184.664H559.469L573.351 154H595.648V222.048H583.448Z" fill="#F9893D" fill-opacity="0.5"/>
<path d="M580.503 324.541C572.51 324.541 566.2 322.44 561.152 317.82C556.103 313.199 554 306.899 554 297.658V280.856C554 272.035 556.524 265.734 561.152 261.113C565.779 256.493 572.51 254.393 580.503 254.393C588.497 254.393 594.807 256.493 599.855 261.113C604.483 265.734 607.007 272.455 607.007 280.856V297.658C607.007 306.479 604.483 313.199 599.855 317.82C594.807 322.44 588.497 324.541 580.503 324.541ZM580.503 313.619C585.131 313.619 588.917 312.359 591.021 309.839C593.124 307.319 594.386 303.538 594.386 298.498V280.436C594.386 275.395 593.124 271.615 590.6 269.094C588.076 266.574 584.71 265.314 580.503 265.314C575.876 265.314 572.51 266.574 569.986 269.094C567.462 271.615 566.2 275.395 566.2 280.016V298.078C566.2 303.118 567.462 306.899 569.565 309.419C572.09 312.359 575.876 313.619 580.503 313.619Z" fill="#F9893D" fill-opacity="0.5"/>
<path d="M583.448 424.931V366.124H581.765L572.51 387.546H559.469L573.351 356.883H595.648V424.511H583.448V424.931Z" fill="#F9893D" fill-opacity="0.5"/>
<path d="M583.448 526.163V467.776H581.765L572.51 489.199H559.469L573.351 458.535H595.648V526.163H583.448Z" fill="#F9893D" fill-opacity="0.5"/>
<path d="M583.448 627.815V569.009H581.765L572.51 590.431H559.469L573.772 560.188H596.069V627.815H583.448Z" fill="#F9893D" fill-opacity="0.5"/>
<path d="M580.503 730.308C572.51 730.308 566.2 728.208 561.152 723.588C556.103 718.967 554 712.666 554 703.425V686.623C554 677.802 556.524 671.501 561.152 666.881C565.779 662.26 572.51 660.16 580.503 660.16C588.497 660.16 594.807 662.26 599.855 666.881C604.483 671.501 607.007 678.222 607.007 686.623V703.425C607.007 712.246 604.483 718.967 599.855 723.588C594.807 728.208 588.497 730.308 580.503 730.308ZM580.503 719.387C585.131 719.387 588.917 718.127 591.021 715.607C593.124 713.086 594.386 709.306 594.386 704.265V686.203C594.386 681.163 593.124 677.382 590.6 674.862C588.076 672.342 584.71 671.081 580.503 671.081C575.876 671.081 572.51 672.342 569.986 674.862C567.462 677.382 566.2 681.163 566.2 685.783V703.845C566.2 708.886 567.462 712.666 569.565 715.187C572.09 718.127 575.876 719.387 580.503 719.387Z" fill="#F9893D" fill-opacity="0.5"/>
<path d="M580.503 831.959C572.51 831.959 566.2 829.858 561.152 825.238C556.103 820.617 554 814.317 554 805.076V788.274C554 779.453 556.524 773.152 561.152 768.531C565.779 763.911 572.51 761.811 580.503 761.811C588.497 761.811 594.807 763.911 599.855 768.531C604.483 773.152 607.007 779.873 607.007 788.274V805.076C607.007 813.897 604.483 820.617 599.855 825.238C594.807 829.858 588.497 831.959 580.503 831.959ZM580.503 821.037C585.131 821.037 588.917 819.777 591.021 817.257C593.124 814.737 594.386 810.956 594.386 805.916V787.854C594.386 782.813 593.124 779.033 590.6 776.512C588.076 773.992 584.71 772.732 580.503 772.732C575.876 772.732 572.51 773.992 569.986 776.512C567.462 779.033 566.2 782.813 566.2 787.434V805.496C566.2 810.536 567.462 814.317 569.565 816.837C572.09 819.777 575.876 821.037 580.503 821.037Z" fill="#F9893D" fill-opacity="0.5"/>
<path d="M583.448 931.931V873.544H581.765L572.51 894.966H559.469L573.351 864.303H595.648V931.931H583.448Z" fill="#F9893D" fill-opacity="0.5"/>
<path d="M580.503 1034.84C572.51 1034.84 566.2 1032.74 561.152 1028.12C556.103 1023.5 554 1017.2 554 1007.96V991.156C554 982.335 556.524 976.035 561.152 971.414C565.779 966.794 572.51 964.693 580.503 964.693C588.497 964.693 594.807 966.794 599.855 971.414C604.483 976.035 607.007 982.755 607.007 991.156V1007.96C607.007 1016.78 604.483 1023.5 599.855 1028.12C594.807 1032.74 588.497 1034.84 580.503 1034.84ZM580.503 1023.92C585.131 1023.92 588.917 1022.66 591.021 1020.14C593.124 1017.62 594.386 1013.84 594.386 1008.8V990.736C594.386 985.696 593.124 981.915 590.6 979.395C588.076 976.875 584.71 975.615 580.503 975.615C575.876 975.615 572.51 976.875 569.986 979.395C567.462 981.915 566.2 985.696 566.2 990.316V1008.38C566.2 1013.42 567.462 1017.2 569.565 1019.72C572.09 1022.66 575.876 1023.92 580.503 1023.92Z" fill="#F9893D" fill-opacity="0.5"/>
<path opacity="0.78" d="M583.448 1134.81V1076.43H581.765L572.51 1097.85H559.469L573.351 1067.19H595.648V1134.81H583.448Z" fill="#F9893D" fill-opacity="0.5"/>
<path opacity="0.78" d="M580.503 1237.73C572.51 1237.73 566.2 1235.63 561.152 1231.01C556.103 1226.38 554 1220.08 554 1210.84V1194.04C554 1185.22 556.524 1178.92 561.152 1174.3C565.779 1169.68 572.51 1167.58 580.503 1167.58C588.497 1167.58 594.807 1169.68 599.855 1174.3C604.483 1178.92 607.007 1185.64 607.007 1194.04V1210.84C607.007 1219.66 604.483 1226.38 599.855 1231.01C594.807 1235.63 588.497 1237.73 580.503 1237.73ZM580.503 1226.8C585.131 1226.8 588.917 1225.54 591.021 1223.02C593.124 1220.5 594.386 1216.72 594.386 1211.68V1193.62C594.386 1188.58 593.124 1184.8 590.6 1182.28C588.076 1179.76 584.71 1178.5 580.503 1178.5C575.876 1178.5 572.51 1179.76 569.986 1182.28C567.462 1184.8 566.2 1188.58 566.2 1193.2V1211.26C566.2 1216.3 567.462 1220.08 569.565 1222.6C572.09 1225.54 575.876 1226.8 580.503 1226.8Z" fill="#F9893D" fill-opacity="0.5"/>
<path opacity="0.78" d="M580.503 1338.96C572.51 1338.96 566.2 1336.86 561.152 1332.24C556.103 1327.62 554 1321.31 554 1312.07V1295.27C554 1286.45 556.524 1280.15 561.152 1275.53C565.779 1270.91 572.51 1268.81 580.503 1268.81C588.497 1268.81 594.807 1270.91 599.855 1275.53C604.483 1280.15 607.007 1286.87 607.007 1295.27V1312.07C607.007 1320.89 604.483 1327.62 599.855 1332.24C594.807 1336.86 588.497 1338.96 580.503 1338.96ZM580.503 1328.04C585.131 1328.04 588.917 1326.78 591.021 1324.26C593.124 1321.73 594.386 1317.95 594.386 1312.91V1294.85C594.386 1289.81 593.124 1286.03 590.6 1283.51C588.076 1280.99 584.71 1279.73 580.503 1279.73C575.876 1279.73 572.51 1280.99 569.986 1283.51C567.462 1286.03 566.2 1289.81 566.2 1294.43V1312.49C566.2 1317.53 567.462 1321.31 569.565 1323.83C572.09 1326.78 575.876 1328.04 580.503 1328.04Z" fill="#F9893D" fill-opacity="0.5"/>
<path d="M583.448 1439.35V1380.96H581.765L572.51 1402.38H559.469L573.351 1371.72H595.648V1439.35H583.448Z" fill="#F9893D" fill-opacity="0.5"/>
<path d="M580.503 1541.84C572.51 1541.84 566.2 1539.74 561.152 1535.12C556.103 1530.5 554 1524.2 554 1514.96V1498.16C554 1489.34 556.524 1483.03 561.152 1478.41C565.779 1473.79 572.51 1471.69 580.503 1471.69C588.497 1471.69 594.807 1473.79 599.855 1478.41C604.483 1483.03 607.007 1489.76 607.007 1498.16V1514.96C607.007 1523.78 604.483 1530.5 599.855 1535.12C594.807 1539.74 588.497 1541.84 580.503 1541.84ZM580.503 1530.92C585.131 1530.92 588.917 1529.66 591.021 1527.14C593.124 1524.62 594.386 1520.84 594.386 1515.8V1497.74C594.386 1492.7 593.124 1488.92 590.6 1486.4C588.076 1483.87 584.71 1482.61 580.503 1482.61C575.876 1482.61 572.51 1483.87 569.986 1486.4C567.462 1488.92 566.2 1492.7 566.2 1497.32V1515.38C566.2 1520.42 567.462 1524.2 569.565 1526.72C572.09 1529.66 575.876 1530.92 580.503 1530.92Z" fill="#F9893D" fill-opacity="0.5"/>
<path d="M583.448 1642.23V1583.85H581.765L572.51 1605.27H559.469L573.351 1574.61H595.648V1642.23H583.448Z" fill="#F9893D" fill-opacity="0.5"/>
<path d="M580.503 1744.72C572.51 1744.72 566.2 1742.62 561.152 1738C556.103 1733.38 554 1727.08 554 1717.84V1701.04C554 1692.22 556.524 1685.92 561.152 1681.3C565.779 1676.68 572.51 1674.58 580.503 1674.58C588.497 1674.58 594.807 1676.68 599.855 1681.3C604.483 1685.92 607.007 1692.64 607.007 1701.04V1717.84C607.007 1726.66 604.483 1733.38 599.855 1738C594.807 1742.62 588.497 1744.72 580.503 1744.72ZM580.503 1733.8C585.131 1733.8 588.917 1732.54 591.021 1730.02C593.124 1727.5 594.386 1723.72 594.386 1718.68V1700.62C594.386 1695.58 593.124 1691.8 590.6 1689.28C588.076 1686.76 584.71 1685.5 580.503 1685.5C575.876 1685.5 572.51 1686.76 569.986 1689.28C567.462 1691.8 566.2 1695.58 566.2 1700.2V1718.26C566.2 1723.3 567.462 1727.08 569.565 1729.6C572.09 1732.54 575.876 1733.8 580.503 1733.8Z" fill="#F9893D" fill-opacity="0.5"/>
<path d="M583.448 1845.12V1786.73H581.765L572.51 1808.15H559.469L573.351 1777.49H595.648V1845.12H583.448Z" fill="#F9893D" fill-opacity="0.5"/>
<path d="M580.503 1947.61C572.51 1947.61 566.2 1945.51 561.152 1940.89C556.103 1936.27 554 1929.97 554 1920.73V1903.92C554 1895.1 556.524 1888.8 561.152 1884.18C565.779 1879.56 572.51 1877.46 580.503 1877.46C588.497 1877.46 594.807 1879.56 599.855 1884.18C604.483 1888.8 607.007 1895.52 607.007 1903.92V1920.73C607.007 1929.55 604.483 1936.27 599.855 1940.89C594.807 1945.51 588.497 1947.61 580.503 1947.61ZM580.503 1936.69C585.131 1936.69 588.917 1935.43 591.021 1932.91C593.124 1930.39 594.386 1926.61 594.386 1921.57V1903.5C594.386 1898.46 593.124 1894.68 590.6 1892.16C588.076 1889.64 584.71 1888.38 580.503 1888.38C575.876 1888.38 572.51 1889.64 569.986 1892.16C567.462 1894.68 566.2 1898.46 566.2 1903.08V1921.15C566.2 1926.19 567.462 1929.97 569.565 1932.49C572.09 1935.43 575.876 1936.69 580.503 1936.69Z" fill="#F9893D" fill-opacity="0.5"/>
<path d="M583.448 2048V1989.61H581.765L572.51 2011.03H559.469L573.351 1980.37H595.648V2048H583.448Z" fill="#F9893D" fill-opacity="0.5"/>
</g>
<g opacity="0.18">
<path d="M575.485 2852.77C565.688 2852.77 557.953 2850.2 551.766 2844.53C545.578 2838.87 543 2831.15 543 2819.82V2799.23C543 2788.42 546.094 2780.69 551.766 2775.03C557.438 2769.37 565.688 2766.79 575.485 2766.79C585.282 2766.79 593.016 2769.37 599.204 2775.03C604.876 2780.69 607.97 2788.93 607.97 2799.23V2819.82C607.97 2830.63 604.876 2838.87 599.204 2844.53C593.016 2850.2 585.282 2852.77 575.485 2852.77ZM575.485 2839.39C581.157 2839.39 585.797 2837.84 588.376 2834.75C590.954 2831.66 592.501 2827.03 592.501 2820.85V2798.71C592.501 2792.54 590.954 2787.9 587.86 2784.81C584.766 2781.72 580.641 2780.18 575.485 2780.18C569.813 2780.18 565.688 2781.72 562.594 2784.81C559.5 2787.9 557.953 2792.54 557.953 2798.2V2820.34C557.953 2826.52 559.5 2831.15 562.078 2834.24C565.172 2837.84 569.297 2839.39 575.485 2839.39Z" fill="#F9893D" fill-opacity="0.5"/>
<path d="M579.098 2975.82V2904.26H577.035L565.692 2930.51H549.707L566.723 2892.93H594.051V2975.82H579.098Z" fill="#F9893D" fill-opacity="0.5"/>
<path d="M575.485 3101.44C565.688 3101.44 557.953 3098.87 551.766 3093.2C545.578 3087.54 543 3079.82 543 3068.49V3047.9C543 3037.09 546.094 3029.36 551.766 3023.7C557.438 3018.04 565.688 3015.46 575.485 3015.46C585.282 3015.46 593.016 3018.04 599.204 3023.7C604.876 3029.36 607.97 3037.6 607.97 3047.9V3068.49C607.97 3079.3 604.876 3087.54 599.204 3093.2C593.016 3098.87 585.282 3101.44 575.485 3101.44ZM575.485 3088.06C581.157 3088.06 585.797 3086.51 588.376 3083.42C590.954 3080.33 592.501 3075.7 592.501 3069.52V3047.38C592.501 3041.2 590.954 3036.57 587.86 3033.48C584.766 3030.39 580.641 3028.85 575.485 3028.85C569.813 3028.85 565.688 3030.39 562.594 3033.48C559.5 3036.57 557.953 3041.21 557.953 3046.87V3069.01C557.953 3075.18 559.5 3079.82 562.078 3082.91C565.172 3086.51 569.297 3088.06 575.485 3088.06Z" fill="#F9893D" fill-opacity="0.5"/>
<path d="M579.098 3224.49V3152.41H577.035L565.692 3178.67H549.707L566.723 3141.09H594.051V3224.49H579.098Z" fill="#F9893D" fill-opacity="0.5"/>
<path d="M575.485 3350.11C565.688 3350.11 557.953 3347.54 551.766 3341.88C545.578 3336.21 543 3328.49 543 3317.16V3296.57C543 3285.76 546.094 3278.04 551.766 3272.37C557.438 3266.71 565.688 3264.13 575.485 3264.13C585.282 3264.13 593.016 3266.71 599.204 3272.37C604.876 3278.04 607.97 3286.27 607.97 3296.57V3317.16C607.97 3327.98 604.876 3336.21 599.204 3341.88C593.016 3347.54 585.282 3350.11 575.485 3350.11ZM575.485 3336.73C581.157 3336.73 585.797 3335.18 588.376 3332.09C590.954 3329.01 592.501 3324.37 592.501 3318.19V3296.06C592.501 3289.88 590.954 3285.24 587.86 3282.15C584.766 3279.07 580.641 3277.52 575.485 3277.52C569.813 3277.52 565.688 3279.07 562.594 3282.15C559.5 3285.24 557.953 3289.88 557.953 3295.54V3317.68C557.953 3323.86 559.5 3328.49 562.078 3331.58C565.172 3335.18 569.297 3336.73 575.485 3336.73Z" fill="#F9893D" fill-opacity="0.5"/>
<path d="M579.098 3473.16V3401.6H577.035L565.692 3427.86H549.707L566.723 3390.27H594.051V3473.16H579.098Z" fill="#F9893D" fill-opacity="0.5"/>
<path d="M575.485 3598.78C565.688 3598.78 557.953 3596.21 551.766 3590.55C545.578 3584.88 543 3577.16 543 3565.83V3545.24C543 3534.43 546.094 3526.71 551.766 3521.04C557.438 3515.38 565.688 3512.8 575.485 3512.8C585.282 3512.8 593.016 3515.38 599.204 3521.04C604.876 3526.71 607.97 3534.94 607.97 3545.24V3565.83C607.97 3576.65 604.876 3584.88 599.204 3590.55C593.016 3596.21 585.282 3598.78 575.485 3598.78ZM575.485 3585.4C581.157 3585.4 585.797 3583.85 588.376 3580.76C590.954 3577.68 592.501 3573.04 592.501 3566.86V3544.73C592.501 3538.55 590.954 3533.91 587.86 3530.82C584.766 3527.74 580.641 3526.19 575.485 3526.19C569.813 3526.19 565.688 3527.74 562.594 3530.82C559.5 3533.91 557.953 3538.55 557.953 3544.21V3566.35C557.953 3572.53 559.5 3577.16 562.078 3580.25C565.172 3583.85 569.297 3585.4 575.485 3585.4Z" fill="#F9893D" fill-opacity="0.5"/>
<path d="M579.098 3721.83V3650.27H577.035L565.692 3676.53H549.707L566.723 3638.94H594.051V3721.83H579.098Z" fill="#F9893D" fill-opacity="0.5"/>
<path d="M575.485 3847.46C565.688 3847.46 557.953 3844.88 551.766 3839.22C546.094 3834.07 543 3825.83 543 3814.51V3793.91C543 3783.1 546.094 3775.38 551.766 3769.71C557.438 3764.05 565.688 3761.48 575.485 3761.48C585.282 3761.48 593.016 3764.05 599.204 3769.71C604.876 3775.38 607.97 3783.61 607.97 3793.91V3814.51C607.97 3825.32 604.876 3833.56 599.204 3839.22C593.016 3844.88 585.282 3847.46 575.485 3847.46ZM575.485 3834.07C581.157 3834.07 585.797 3832.53 588.376 3829.44C590.954 3826.35 592.501 3821.71 592.501 3815.54V3793.4C592.501 3787.22 590.954 3782.59 587.86 3779.5C584.766 3776.41 580.641 3774.86 575.485 3774.86C569.813 3774.86 565.688 3776.41 562.594 3779.5C559.5 3782.59 557.953 3787.22 557.953 3792.88V3815.02C557.953 3821.2 559.5 3825.83 562.078 3828.92C565.172 3832.53 569.297 3834.07 575.485 3834.07Z" fill="#F9893D" fill-opacity="0.5"/>
<path d="M579.098 3970.5V3898.94H577.035L565.692 3925.2H549.707L566.723 3887.61H594.051V3970.5H579.098Z" fill="#F9893D" fill-opacity="0.5"/>
<path d="M575.485 4096.13C565.688 4096.13 557.953 4093.55 551.766 4087.89C546.094 4082.74 543 4074.5 543 4063.18V4042.58C543 4031.77 546.094 4024.05 551.766 4018.38C557.438 4012.72 565.688 4010.15 575.485 4010.15C585.282 4010.15 593.016 4012.72 599.204 4018.38C604.876 4024.05 607.97 4032.29 607.97 4042.58V4063.18C607.97 4073.99 604.876 4082.23 599.204 4087.89C593.016 4093.55 585.282 4096.13 575.485 4096.13ZM575.485 4082.74C581.157 4082.74 585.797 4081.2 588.376 4078.11C590.954 4075.02 592.501 4070.38 592.501 4064.21V4042.07C592.501 4035.89 590.954 4031.26 587.86 4028.17C584.766 4025.08 580.641 4023.53 575.485 4023.53C569.813 4023.53 565.688 4025.08 562.594 4028.17C559.5 4031.26 557.953 4035.89 557.953 4041.55V4063.69C557.953 4069.87 559.5 4074.5 562.078 4077.59C565.172 4081.2 569.297 4082.74 575.485 4082.74Z" fill="#F9893D" fill-opacity="0.5"/>
<path d="M579.098 4219.17V4147.61H577.035L565.692 4173.87H549.707L566.723 4136.28H594.051V4219.17H579.098Z" fill="#F9893D" fill-opacity="0.5"/>
<path d="M579.098 4343.25V4271.69H577.035L565.692 4297.95H549.707L566.723 4260.36H594.051V4343.25H579.098Z" fill="#F9893D" fill-opacity="0.5"/>
<path d="M579.098 4467.85V4396.28H577.035L565.692 4422.54H549.707L566.723 4384.96H594.051V4467.85H579.098Z" fill="#F9893D" fill-opacity="0.5"/>
<path d="M575.485 4593.47C565.688 4593.47 557.953 4590.89 551.766 4585.23C546.094 4579.57 543 4571.84 543 4560.52V4539.92C543 4529.11 546.094 4521.39 551.766 4515.73C557.438 4510.06 565.688 4507.49 575.485 4507.49C585.282 4507.49 593.016 4510.06 599.204 4515.73C604.876 4521.39 607.969 4529.63 607.969 4539.92V4560.52C607.969 4571.33 604.876 4579.57 599.204 4585.23C593.016 4590.89 585.282 4593.47 575.485 4593.47ZM575.485 4580.08C581.157 4580.08 585.797 4578.54 588.376 4575.45C590.954 4572.36 592.501 4567.73 592.501 4561.55V4539.41C592.501 4533.23 590.954 4528.6 587.86 4525.51C584.766 4522.42 580.641 4520.87 575.485 4520.87C569.813 4520.87 565.688 4522.42 562.594 4525.51C559.5 4528.6 557.953 4533.23 557.953 4538.89V4561.03C557.953 4567.21 559.5 4571.84 562.078 4574.93C565.172 4578.54 569.297 4580.08 575.485 4580.08Z" fill="#F9893D" fill-opacity="0.5"/>
<path opacity="0.78" d="M575.485 4718.06C565.688 4718.06 557.953 4715.49 551.766 4709.82C546.094 4704.67 543 4696.44 543 4685.11V4664.52C543 4653.7 546.094 4645.98 551.766 4640.32C557.438 4634.65 565.688 4632.08 575.485 4632.08C585.282 4632.08 593.016 4634.65 599.204 4640.32C604.876 4645.98 607.97 4654.22 607.97 4664.52V4685.11C607.97 4695.92 604.876 4704.16 599.204 4709.82C593.016 4715.49 585.282 4718.06 575.485 4718.06ZM575.485 4704.67C581.157 4704.67 585.797 4703.13 588.376 4700.04C590.954 4696.95 592.501 4692.32 592.501 4686.14V4664C592.501 4657.82 590.954 4653.19 587.86 4650.1C584.766 4647.01 580.641 4645.47 575.485 4645.47C569.813 4645.47 565.688 4647.01 562.594 4650.1C559.5 4653.19 557.953 4657.82 557.953 4663.49V4685.62C557.953 4691.8 559.5 4696.44 562.078 4699.52C565.172 4703.13 569.297 4704.67 575.485 4704.67Z" fill="#F9893D" fill-opacity="0.5"/>
<path opacity="0.78" d="M579.098 4840.59V4769.03H577.035L565.692 4795.29H549.707L566.723 4757.7H594.051V4840.59H579.098Z" fill="#F9893D" fill-opacity="0.5"/>
<path opacity="0.78" d="M575.485 4966.73C565.688 4966.73 557.953 4964.16 551.766 4958.49C546.094 4953.35 543 4945.11 543 4933.78V4913.19C543 4902.38 546.094 4894.65 551.766 4888.99C557.438 4883.33 565.688 4880.75 575.485 4880.75C585.282 4880.75 593.016 4883.33 599.204 4888.99C604.876 4894.65 607.97 4902.89 607.97 4913.19V4933.78C607.97 4944.59 604.876 4952.83 599.204 4958.49C593.016 4964.16 585.282 4966.73 575.485 4966.73ZM575.485 4953.35C581.157 4953.35 585.797 4951.8 588.376 4948.71C590.954 4945.62 592.501 4940.99 592.501 4934.81V4912.67C592.501 4906.49 590.954 4901.86 587.86 4898.77C584.766 4895.68 580.641 4894.14 575.485 4894.14C569.813 4894.14 565.688 4895.68 562.594 4898.77C559.5 4901.86 557.953 4906.49 557.953 4912.16V4934.3C557.953 4940.47 559.5 4945.11 562.078 4948.2C565.172 4951.8 569.297 4953.35 575.485 4953.35Z" fill="#F9893D" fill-opacity="0.5"/>
<path opacity="0.78" d="M579.098 5089.27V5017.7H577.035L565.692 5043.96H549.707L566.723 5006.38H594.051V5089.27H579.098Z" fill="#F9893D" fill-opacity="0.5"/>
<path opacity="0.78" d="M575.485 5215.4C565.688 5215.4 557.953 5212.83 551.766 5207.16C546.094 5201.5 543 5193.78 543 5182.45V5161.86C543 5151.05 546.094 5143.32 551.766 5137.66C557.438 5132 565.688 5129.42 575.485 5129.42C585.282 5129.42 593.016 5132 599.204 5137.66C604.876 5143.32 607.969 5151.56 607.969 5161.86V5182.45C607.969 5193.26 604.876 5201.5 599.204 5207.16C593.016 5212.83 585.282 5215.4 575.485 5215.4ZM575.485 5202.01C581.157 5202.01 585.797 5200.47 588.376 5197.38C590.954 5194.29 592.501 5189.66 592.501 5183.48V5161.34C592.501 5155.16 590.954 5150.53 587.86 5147.44C584.766 5144.35 580.641 5142.81 575.485 5142.81C569.813 5142.81 565.688 5144.35 562.594 5147.44C559.5 5150.53 557.953 5155.16 557.953 5160.83V5182.97C557.953 5189.14 559.5 5193.78 562.078 5196.87C565.172 5200.47 569.297 5202.01 575.485 5202.01Z" fill="#F9893D" fill-opacity="0.5"/>
<path opacity="0.78" d="M575.485 5339.48C565.688 5339.48 557.953 5336.9 551.766 5331.24C546.094 5326.09 543 5317.86 543 5306.53V5285.94C543 5275.12 546.094 5267.4 551.766 5261.74C557.438 5256.07 565.688 5253.5 575.485 5253.5C585.282 5253.5 593.016 5256.07 599.204 5261.74C604.876 5267.4 607.97 5275.64 607.97 5285.94V5306.53C607.97 5317.34 604.876 5325.58 599.204 5331.24C593.016 5336.9 585.282 5339.48 575.485 5339.48ZM575.485 5326.09C581.157 5326.09 585.797 5324.55 588.376 5321.46C590.954 5318.37 592.501 5313.74 592.501 5307.56V5285.42C592.501 5279.24 590.954 5274.61 587.86 5271.52C584.766 5268.43 580.641 5266.89 575.485 5266.89C569.813 5266.89 565.688 5268.43 562.594 5271.52C559.5 5274.61 557.953 5279.24 557.953 5284.91V5307.04C557.953 5313.22 559.5 5317.86 562.078 5320.94C565.172 5324.55 569.297 5326.09 575.485 5326.09Z" fill="#F9893D" fill-opacity="0.5"/>
<path opacity="0.78" d="M579.098 5462.53V5390.96H577.035L565.692 5417.22H549.707L566.723 5379.64H594.051V5462.53H579.098Z" fill="#F9893D" fill-opacity="0.5"/>
<path opacity="0.78" d="M575.485 5588.15C565.688 5588.15 557.953 5585.58 551.766 5579.91C546.094 5574.77 543 5566.53 543 5555.2V5534.61C543 5523.8 546.094 5516.07 551.766 5510.41C557.438 5504.75 565.688 5502.17 575.485 5502.17C585.282 5502.17 593.016 5504.75 599.204 5510.41C604.876 5516.07 607.97 5524.31 607.97 5534.61V5555.2C607.97 5566.01 604.876 5574.25 599.204 5579.91C593.016 5585.58 585.282 5588.15 575.485 5588.15ZM575.485 5574.77C581.157 5574.77 585.797 5573.22 588.376 5570.13C590.954 5567.04 592.501 5562.41 592.501 5556.23V5534.09C592.501 5527.91 590.954 5523.28 587.86 5520.19C584.766 5517.1 580.641 5515.56 575.485 5515.56C569.813 5515.56 565.688 5517.1 562.594 5520.19C559.5 5523.28 557.953 5527.91 557.953 5533.58V5555.72C557.953 5561.89 559.5 5566.53 562.078 5569.62C565.172 5573.22 569.297 5574.77 575.485 5574.77Z" fill="#F9893D" fill-opacity="0.5"/>
<path opacity="0.78" d="M579.098 5711.2V5639.12H577.035L565.692 5665.38H549.707L566.723 5627.79H594.051V5710.68H579.098V5711.2Z" fill="#F9893D" fill-opacity="0.5"/>
<path opacity="0.78" d="M575.485 5836.82C565.688 5836.82 557.953 5834.25 551.766 5828.58C546.094 5822.92 543 5815.2 543 5803.87V5783.28C543 5772.47 546.094 5764.74 551.766 5759.08C557.438 5753.42 565.688 5750.84 575.485 5750.84C585.282 5750.84 593.016 5753.42 599.204 5759.08C604.876 5764.74 607.97 5772.98 607.97 5783.28V5803.87C607.97 5814.68 604.876 5822.92 599.204 5828.58C593.016 5834.25 585.282 5836.82 575.485 5836.82ZM575.485 5823.44C581.157 5823.44 585.797 5821.89 588.376 5818.8C590.954 5815.71 592.501 5811.08 592.501 5804.9V5782.76C592.501 5776.58 590.954 5771.95 587.86 5768.86C584.766 5765.77 580.641 5764.23 575.485 5764.23C569.813 5764.23 565.688 5765.77 562.594 5768.86C559.5 5771.95 557.953 5776.58 557.953 5782.25V5804.39C557.953 5810.56 559.5 5815.2 562.078 5818.29C565.172 5821.89 569.297 5823.44 575.485 5823.44Z" fill="#F9893D" fill-opacity="0.5"/>
<path opacity="0.78" d="M579.098 5959.87V5888.31H577.035L565.692 5914.56H549.707L566.723 5876.98H594.051V5959.87H579.098Z" fill="#F9893D" fill-opacity="0.5"/>
<path d="M575.485 6085.49C565.688 6085.49 557.953 6082.92 551.766 6077.25C546.094 6071.59 543 6063.87 543 6052.54V6031.95C543 6021.14 546.094 6013.41 551.766 6007.75C557.438 6002.09 565.688 5999.51 575.485 5999.51C585.282 5999.51 593.016 6002.09 599.204 6007.75C604.876 6013.41 607.97 6021.65 607.97 6031.95V6052.54C607.97 6063.35 604.876 6071.59 599.204 6077.25C593.016 6082.92 585.282 6085.49 575.485 6085.49ZM575.485 6072.1C581.157 6072.1 585.797 6070.56 588.376 6067.47C590.954 6064.38 592.501 6059.75 592.501 6053.57V6031.43C592.501 6025.25 590.954 6020.62 587.86 6017.53C584.766 6014.44 580.641 6012.9 575.485 6012.9C569.813 6012.9 565.688 6014.44 562.594 6017.53C559.5 6020.62 557.953 6025.25 557.953 6030.92V6053.06C557.953 6059.23 559.5 6063.87 562.078 6066.96C565.172 6070.56 569.297 6072.1 575.485 6072.1Z" fill="#F9893D" fill-opacity="0.5"/>
<path d="M579.098 6208.54V6136.97H577.035L565.692 6163.23H549.707L566.723 6125.65H594.051V6208.54H579.098Z" fill="#F9893D" fill-opacity="0.5"/>
</g>
<g opacity="0.18">
<path d="M102.485 85.9792C92.6877 85.9792 84.9532 83.4051 78.7656 77.7418C73.0937 72.5933 70 64.3557 70 53.0291V32.4352C70 21.6235 73.0937 13.9009 78.7656 8.23757C84.4376 2.57426 92.6877 0 102.485 0C112.282 0 120.016 2.57426 126.204 8.23757C131.876 13.9009 134.969 22.1383 134.969 32.4352V53.0291C134.969 63.8409 131.876 72.0785 126.204 77.7418C120.532 83.4051 112.797 85.9792 102.485 85.9792ZM102.485 72.5933C108.157 72.5933 112.797 71.0487 115.375 67.9596C117.954 64.8705 119.5 60.237 119.5 54.0588V31.9204C119.5 25.7422 117.954 21.1087 114.86 18.0196C111.766 14.9305 107.641 13.386 102.485 13.386C96.8127 13.386 92.6877 14.9305 89.5939 18.0196C86.5001 21.1087 84.9533 25.7423 84.9533 31.4056V53.544C84.9533 59.7221 86.5001 64.3558 89.0783 67.4449C92.6877 71.0488 96.8127 72.5933 102.485 72.5933Z" fill="#F9893D" fill-opacity="0.5"/>
<path d="M106.61 205.937V134.374H104.547L93.2033 160.631H77.2188L94.2345 123.047H121.563V205.937H106.61Z" fill="#F9893D" fill-opacity="0.5"/>
<path d="M102.485 328.987C92.6877 328.987 84.9532 326.413 78.7656 320.75C73.0937 315.086 70 307.364 70 296.037V275.443C70 264.631 73.0937 256.909 78.7656 251.246C84.4376 245.582 92.6877 243.008 102.485 243.008C112.282 243.008 120.016 245.582 126.204 251.246C131.876 256.909 134.969 265.146 134.969 275.443V296.037C134.969 306.849 131.876 315.086 126.204 320.75C120.532 325.898 112.797 328.987 102.485 328.987ZM102.485 315.086C108.157 315.086 112.797 313.542 115.375 310.453C117.954 307.364 119.5 302.73 119.5 296.552V274.414C119.5 268.235 117.954 263.602 114.86 260.513C111.766 257.424 107.641 255.879 102.485 255.879C96.8127 255.879 92.6877 257.424 89.5939 260.513C86.5001 263.602 84.9533 268.235 84.9533 273.899V296.037C84.9533 302.215 86.5001 306.849 89.0783 309.938C92.6877 313.542 96.8127 315.086 102.485 315.086Z" fill="#F9893D" fill-opacity="0.5"/>
<path d="M106.61 448.431V376.868H104.547L93.2033 403.125H77.2188L94.2345 365.541H121.563V448.431H106.61Z" fill="#F9893D" fill-opacity="0.5"/>
<path d="M102.485 571.479C92.6877 571.479 84.9532 568.905 78.7656 563.242C73.0937 558.093 70 549.856 70 538.529V517.935C70 507.123 73.0937 499.401 78.7656 493.737C84.4376 488.074 92.6877 485.5 102.485 485.5C112.282 485.5 120.016 488.074 126.204 493.737C131.876 499.401 134.969 507.638 134.969 517.935V538.529C134.969 549.341 131.876 557.578 126.204 563.242C120.532 568.905 112.797 571.479 102.485 571.479ZM102.485 558.093C108.157 558.093 112.797 556.549 115.375 553.459C117.954 550.37 119.5 545.737 119.5 539.559V517.42C119.5 511.242 117.954 506.609 114.86 503.52C111.766 500.431 107.641 498.886 102.485 498.886C96.8127 498.886 92.6877 500.431 89.5939 503.52C86.5001 506.609 84.9533 511.242 84.9533 516.905V539.044C84.9533 545.222 86.5001 549.856 89.0783 552.945C92.6877 556.549 96.8127 558.093 102.485 558.093Z" fill="#F9893D" fill-opacity="0.5"/>
<path d="M106.61 691.437V619.874H104.547L93.2033 646.131H77.2188L94.2345 608.547H121.563V691.437H106.61Z" fill="#F9893D" fill-opacity="0.5"/>
<path d="M102.485 814.487C92.6877 814.487 84.9532 811.913 78.7656 806.25C73.0937 801.101 70 792.864 70 781.537V760.943C70 750.132 73.0937 742.409 78.7656 736.746C84.4376 731.082 92.6877 728.508 102.485 728.508C112.282 728.508 120.016 731.082 126.204 736.746C131.876 742.409 134.969 750.646 134.969 760.943V781.537C134.969 792.349 131.876 800.586 126.204 806.25C120.532 811.398 112.797 814.487 102.485 814.487ZM102.485 800.586C108.157 800.586 112.797 799.042 115.375 795.953C117.954 792.864 119.5 788.23 119.5 782.052V759.914C119.5 753.735 117.954 749.102 114.86 746.013C111.766 742.924 107.641 741.379 102.485 741.379C96.8127 741.379 92.6877 742.924 89.5939 746.013C86.5001 749.102 84.9533 753.735 84.9533 759.399V781.537C84.9533 787.715 86.5001 792.349 89.0783 795.438C92.6877 799.042 96.8127 800.586 102.485 800.586Z" fill="#F9893D" fill-opacity="0.5"/>
<path d="M106.61 933.931V862.367H104.547L93.2033 888.625H77.2188L94.2345 851.041H121.563V933.931H106.61Z" fill="#F9893D" fill-opacity="0.5"/>
<path d="M102.485 1056.98C92.6877 1056.98 84.9532 1054.4 78.7656 1048.74C73.0937 1043.08 70 1035.36 70 1024.03V1003.44C70 992.623 73.0937 984.901 78.7656 979.237C84.4376 973.574 92.6877 971 102.485 971C112.282 971 120.016 973.574 126.204 979.237C131.876 984.901 134.969 993.138 134.969 1003.44V1024.03C134.969 1034.84 131.876 1043.08 126.204 1048.74C120.532 1054.4 112.797 1056.98 102.485 1056.98ZM102.485 1043.59C108.157 1043.59 112.797 1042.05 115.375 1038.96C117.954 1035.87 119.5 1031.24 119.5 1025.06V1002.92C119.5 996.742 117.954 992.109 114.86 989.02C111.766 985.931 107.641 984.386 102.485 984.386C96.8127 984.386 92.6877 985.931 89.5939 989.02C86.5001 992.109 84.9533 996.742 84.9533 1002.41V1024.54C84.9533 1030.72 86.5001 1035.36 89.0783 1038.44C92.6877 1042.05 96.8127 1043.59 102.485 1043.59Z" fill="#F9893D" fill-opacity="0.5"/>
<path d="M106.61 1176.94V1105.37H104.547L93.2033 1131.63H77.2188L94.2345 1094.05H121.563V1176.94H106.61Z" fill="#F9893D" fill-opacity="0.5"/>
<path d="M102.485 1299.99C92.6877 1299.99 84.9532 1297.41 78.7656 1291.75C73.0937 1286.6 70 1278.36 70 1267.04V1246.44C70 1235.63 73.0937 1227.91 78.7656 1222.25C84.4376 1216.58 92.6877 1214.01 102.485 1214.01C112.282 1214.01 120.016 1216.58 126.204 1222.25C131.876 1227.91 134.969 1236.15 134.969 1246.44V1267.04C134.969 1277.85 131.876 1286.09 126.204 1291.75C120.532 1296.9 112.797 1299.99 102.485 1299.99ZM102.485 1286.09C108.157 1286.09 112.797 1284.54 115.375 1281.45C117.954 1278.36 119.5 1273.73 119.5 1267.55V1245.41C119.5 1239.24 117.954 1234.6 114.86 1231.51C111.766 1228.42 107.641 1226.88 102.485 1226.88C96.8127 1226.88 92.6877 1228.42 89.5939 1231.51C86.5001 1234.6 84.9533 1239.24 84.9533 1244.9V1267.04C84.9533 1273.22 86.5001 1277.85 89.0783 1280.94C92.6877 1284.54 96.8127 1286.09 102.485 1286.09Z" fill="#F9893D" fill-opacity="0.5"/>
<path d="M106.61 1419.43V1347.87H104.547L93.2033 1374.12H77.2188L94.2345 1336.54H121.563V1419.43H106.61Z" fill="#F9893D" fill-opacity="0.5"/>
<path d="M106.61 1540.93V1469.37H104.547L93.2033 1495.63H77.2188L94.2345 1458.04H121.563V1540.93H106.61Z" fill="#F9893D" fill-opacity="0.5"/>
<path d="M106.61 1662.44V1590.36H104.547L93.2033 1616.62H77.2188L94.2345 1579.03H121.563V1662.44H106.61Z" fill="#F9893D" fill-opacity="0.5"/>
<path d="M102.485 1785.49C92.6877 1785.49 84.9532 1782.91 78.7656 1777.25C73.0937 1772.1 70 1763.86 70 1752.54V1731.94C70 1721.13 73.0937 1713.41 78.7656 1707.75C84.4376 1702.08 92.6877 1699.51 102.485 1699.51C112.282 1699.51 120.016 1702.08 126.204 1707.75C131.876 1713.41 134.969 1721.65 134.969 1731.94V1752.54C134.969 1763.35 131.876 1771.59 126.204 1777.25C120.532 1782.4 112.797 1785.49 102.485 1785.49ZM102.485 1771.59C108.157 1771.59 112.797 1770.04 115.375 1766.95C117.954 1763.86 119.5 1759.23 119.5 1753.05V1730.91C119.5 1724.74 117.954 1720.1 114.86 1717.01C111.766 1713.92 107.641 1712.38 102.485 1712.38C96.8127 1712.38 92.6877 1713.92 89.5939 1717.01C86.5001 1720.1 84.9533 1724.74 84.9533 1730.4V1752.54C84.9533 1758.72 86.5001 1763.35 89.0783 1766.44C92.6877 1770.04 96.8127 1771.59 102.485 1771.59Z" fill="#F9893D" fill-opacity="0.5"/>
<path d="M102.485 1906.48C92.6877 1906.48 84.9532 1903.9 78.7656 1898.24C73.0937 1893.09 70 1884.85 70 1873.53V1852.93C70 1842.12 73.0937 1834.4 78.7656 1828.73C84.4376 1823.07 92.6877 1820.5 102.485 1820.5C112.282 1820.5 120.016 1823.07 126.204 1828.73C131.876 1834.4 134.969 1842.63 134.969 1852.93V1873.53C134.969 1884.34 131.876 1892.57 126.204 1898.24C120.532 1903.9 112.797 1906.48 102.485 1906.48ZM102.485 1893.09C108.157 1893.09 112.797 1891.54 115.375 1888.46C117.954 1885.37 119.5 1880.73 119.5 1874.55V1852.42C119.5 1846.24 117.954 1841.6 114.86 1838.52C111.766 1835.43 107.641 1833.88 102.485 1833.88C96.8127 1833.88 92.6877 1835.43 89.5939 1838.52C86.5001 1841.6 84.9533 1846.24 84.9533 1851.9V1874.04C84.9533 1880.22 86.5001 1884.85 89.0783 1887.94C92.6877 1891.54 96.8127 1893.09 102.485 1893.09Z" fill="#F9893D" fill-opacity="0.5"/>
<path d="M106.61 2026.43V1954.87H104.547L93.2033 1981.13H77.2188L94.2345 1943.54H121.563V2026.43H106.61Z" fill="#F9893D" fill-opacity="0.5"/>
<path d="M102.485 2149.48C92.6877 2149.48 84.9532 2146.91 78.7656 2141.25C73.0937 2135.58 70 2127.86 70 2116.53V2095.94C70 2085.13 73.0937 2077.4 78.7656 2071.74C84.4376 2066.08 92.6877 2063.5 102.485 2063.5C112.282 2063.5 120.016 2066.08 126.204 2071.74C131.876 2077.4 134.969 2085.64 134.969 2095.94V2116.53C134.969 2127.34 131.876 2135.58 126.204 2141.25C120.532 2146.91 112.797 2149.48 102.485 2149.48ZM102.485 2136.1C108.157 2136.1 112.797 2134.55 115.375 2131.46C117.954 2128.37 119.5 2123.74 119.5 2117.56V2095.42C119.5 2089.25 117.954 2084.61 114.86 2081.52C111.766 2078.43 107.641 2076.89 102.485 2076.89C96.8127 2076.89 92.6877 2078.43 89.5939 2081.52C86.5001 2084.61 84.9533 2089.25 84.9533 2094.91V2117.05C84.9533 2123.23 86.5001 2127.86 89.0783 2130.95C92.6877 2134.55 96.8127 2136.1 102.485 2136.1Z" fill="#F9893D" fill-opacity="0.5"/>
<path opacity="0.78" d="M106.61 2268.93V2197.36H104.547L93.2033 2223.62H77.2188L94.2345 2186.04H121.563V2268.93H106.61Z" fill="#F9893D" fill-opacity="0.5"/>
<path opacity="0.78" d="M102.485 2391.98C92.6877 2391.98 84.9532 2389.4 78.7656 2383.74C73.0937 2378.59 70 2370.35 70 2359.03V2338.43C70 2327.62 73.0937 2319.9 78.7656 2314.23C84.4376 2308.57 92.6877 2306 102.485 2306C112.282 2306 120.016 2308.57 126.204 2314.23C131.876 2319.9 134.969 2328.13 134.969 2338.43V2359.03C134.969 2369.84 131.876 2378.07 126.204 2383.74C120.532 2389.4 112.797 2391.98 102.485 2391.98ZM102.485 2378.59C108.157 2378.59 112.797 2377.04 115.375 2373.96C117.954 2370.87 119.5 2366.23 119.5 2360.05V2337.92C119.5 2331.74 117.954 2327.1 114.86 2324.02C111.766 2320.93 107.641 2319.38 102.485 2319.38C96.8127 2319.38 92.6877 2320.93 89.5939 2324.02C86.5001 2327.1 84.9533 2331.74 84.9533 2337.4V2359.54C84.9533 2365.72 86.5001 2370.35 89.0783 2373.44C92.6877 2377.04 96.8127 2378.59 102.485 2378.59Z" fill="#F9893D" fill-opacity="0.5"/>
<path opacity="0.78" d="M102.485 2513.48C92.6877 2513.48 84.9532 2510.91 78.7656 2505.24C73.0937 2500.09 70 2491.86 70 2480.53V2459.94C70 2449.12 73.0937 2441.4 78.7656 2435.74C84.4376 2430.07 92.6877 2427.5 102.485 2427.5C112.282 2427.5 120.016 2430.07 126.204 2435.74C131.876 2441.4 134.969 2449.64 134.969 2459.94V2480.53C134.969 2491.34 131.876 2499.58 126.204 2505.24C120.532 2510.91 112.797 2513.48 102.485 2513.48ZM102.485 2500.09C108.157 2500.09 112.797 2498.55 115.375 2495.46C117.954 2492.37 119.5 2487.74 119.5 2481.56V2459.42C119.5 2453.24 117.954 2448.61 114.86 2445.52C111.766 2442.43 107.641 2440.89 102.485 2440.89C96.8127 2440.89 92.6877 2442.43 89.5939 2445.52C86.5001 2448.61 84.9533 2453.24 84.9533 2458.91V2481.04C84.9533 2487.22 86.5001 2491.86 89.0783 2494.95C92.6877 2498.55 96.8127 2500.09 102.485 2500.09Z" fill="#F9893D" fill-opacity="0.5"/>
<path opacity="0.78" d="M106.61 2633.44V2561.87H104.547L93.2033 2588.13H77.2188L94.2345 2550.55H121.563V2633.44H106.61Z" fill="#F9893D" fill-opacity="0.5"/>
<path opacity="0.78" d="M102.485 2756.49C92.6877 2756.49 84.9532 2753.91 78.7656 2748.25C73.0937 2742.58 70 2734.86 70 2723.53V2702.94C70 2692.13 73.0937 2684.41 78.7656 2678.74C84.4376 2673.08 92.6877 2670.51 102.485 2670.51C112.282 2670.51 120.016 2673.08 126.204 2678.74C131.876 2684.41 134.969 2692.64 134.969 2702.94V2723.53C134.969 2734.35 131.876 2742.58 126.204 2748.25C120.532 2753.4 112.797 2756.49 102.485 2756.49ZM102.485 2742.58C108.157 2742.58 112.797 2741.04 115.375 2737.95C117.954 2734.86 119.5 2730.23 119.5 2724.05V2701.91C119.5 2695.73 117.954 2691.1 114.86 2688.01C111.766 2684.92 107.641 2683.38 102.485 2683.38C96.8127 2683.38 92.6877 2684.92 89.5939 2688.01C86.5001 2691.1 84.9533 2695.73 84.9533 2701.4V2723.53C84.9533 2729.71 86.5001 2734.35 89.0783 2737.44C92.6877 2741.04 96.8127 2742.58 102.485 2742.58Z" fill="#F9893D" fill-opacity="0.5"/>
<path opacity="0.78" d="M106.61 2875.93V2804.37H104.547L93.2033 2830.62H77.2188L94.2345 2793.04H121.563V2875.93H106.61Z" fill="#F9893D" fill-opacity="0.5"/>
<path opacity="0.78" d="M102.485 2998.98C92.6877 2998.98 84.9532 2996.4 78.7656 2990.74C73.0937 2985.59 70 2977.36 70 2966.03V2945.43C70 2934.62 73.0937 2926.9 78.7656 2921.24C84.4376 2915.57 92.6877 2913 102.485 2913C112.282 2913 120.016 2915.57 126.204 2921.24C131.876 2926.9 134.969 2935.14 134.969 2945.43V2966.03C134.969 2976.84 131.876 2985.08 126.204 2990.74C120.532 2996.4 112.797 2998.98 102.485 2998.98ZM102.485 2985.59C108.157 2985.59 112.797 2984.05 115.375 2980.96C117.954 2977.87 119.5 2973.24 119.5 2967.06V2944.92C119.5 2938.74 117.954 2934.11 114.86 2931.02C111.766 2927.93 107.641 2926.39 102.485 2926.39C96.8127 2926.39 92.6877 2927.93 89.5939 2931.02C86.5001 2934.11 84.9533 2938.74 84.9533 2944.41V2966.54C84.9533 2972.72 86.5001 2977.36 89.0783 2980.44C92.6877 2984.05 96.8127 2985.59 102.485 2985.59Z" fill="#F9893D" fill-opacity="0.5"/>
<path opacity="0.78" d="M106.61 3118.94V3047.38H104.547L93.2033 3073.63H77.2188L94.2345 3036.05H121.563V3118.94H106.61Z" fill="#F9893D" fill-opacity="0.5"/>
<path opacity="0.78" d="M102.485 3241.99C92.6877 3241.99 84.9532 3239.41 78.7656 3233.75C73.0937 3228.6 70 3220.36 70 3209.04V3188.44C70 3177.63 73.0937 3169.91 78.7656 3164.25C84.4376 3158.58 92.6877 3156.01 102.485 3156.01C112.282 3156.01 120.016 3158.58 126.204 3164.25C131.876 3169.91 134.969 3178.15 134.969 3188.44V3209.04C134.969 3219.85 131.876 3228.09 126.204 3233.75C120.532 3238.9 112.797 3241.99 102.485 3241.99ZM102.485 3228.09C108.157 3228.09 112.797 3226.54 115.375 3223.45C117.954 3220.36 119.5 3215.73 119.5 3209.55V3187.41C119.5 3181.24 117.954 3176.6 114.86 3173.51C111.766 3170.42 107.641 3168.88 102.485 3168.88C96.8127 3168.88 92.6877 3170.42 89.5939 3173.51C86.5001 3176.6 84.9533 3181.24 84.9533 3186.9V3209.04C84.9533 3215.22 86.5001 3219.85 89.0783 3222.94C92.6877 3226.54 96.8127 3228.09 102.485 3228.09Z" fill="#F9893D" fill-opacity="0.5"/>
<path opacity="0.78" d="M106.61 3361.43V3289.87H104.547L93.2033 3316.12H77.2188L94.2345 3278.54H121.563V3361.43H106.61Z" fill="#F9893D" fill-opacity="0.5"/>
</g>
<g opacity="0.18">
<path d="M583.448 7151.05V7092.24H581.765L572.51 7113.66H559.469L573.351 7083H595.648V7151.05H583.448Z" fill="#F9893D" fill-opacity="0.5"/>
<path d="M580.503 7253.54C572.51 7253.54 566.2 7251.44 561.152 7246.82C556.103 7242.2 554 7235.9 554 7226.66V7209.86C554 7201.03 556.524 7194.73 561.152 7190.11C565.779 7185.49 572.51 7183.39 580.503 7183.39C588.497 7183.39 594.807 7185.49 599.855 7190.11C604.483 7194.73 607.007 7201.45 607.007 7209.86V7226.66C607.007 7235.48 604.483 7242.2 599.855 7246.82C594.807 7251.44 588.497 7253.54 580.503 7253.54ZM580.503 7242.62C585.131 7242.62 588.917 7241.36 591.021 7238.84C593.124 7236.32 594.386 7232.54 594.386 7227.5V7209.44C594.386 7204.4 593.124 7200.61 590.6 7198.09C588.076 7195.57 584.71 7194.31 580.503 7194.31C575.876 7194.31 572.51 7195.57 569.986 7198.09C567.462 7200.61 566.2 7204.4 566.2 7209.02V7227.08C566.2 7232.12 567.462 7235.9 569.565 7238.42C572.09 7241.36 575.876 7242.62 580.503 7242.62Z" fill="#F9893D" fill-opacity="0.5"/>
<path d="M583.448 7353.93V7295.12H581.765L572.51 7316.55H559.469L573.351 7285.88H595.648V7353.51H583.448V7353.93Z" fill="#F9893D" fill-opacity="0.5"/>
<path d="M583.448 7455.16V7396.78H581.765L572.51 7418.2H559.469L573.351 7387.54H595.648V7455.16H583.448Z" fill="#F9893D" fill-opacity="0.5"/>
<path d="M583.448 7556.82V7498.01H581.765L572.51 7519.43H559.469L573.772 7489.19H596.069V7556.82H583.448Z" fill="#F9893D" fill-opacity="0.5"/>
<path d="M580.503 7659.31C572.51 7659.31 566.2 7657.21 561.152 7652.59C556.103 7647.97 554 7641.67 554 7632.43V7615.62C554 7606.8 556.524 7600.5 561.152 7595.88C565.779 7591.26 572.51 7589.16 580.503 7589.16C588.497 7589.16 594.807 7591.26 599.855 7595.88C604.483 7600.5 607.007 7607.22 607.007 7615.62V7632.43C607.007 7641.25 604.483 7647.97 599.855 7652.59C594.807 7657.21 588.497 7659.31 580.503 7659.31ZM580.503 7648.39C585.131 7648.39 588.917 7647.13 591.021 7644.61C593.124 7642.09 594.386 7638.31 594.386 7633.27V7615.2C594.386 7610.16 593.124 7606.38 590.6 7603.86C588.076 7601.34 584.71 7600.08 580.503 7600.08C575.876 7600.08 572.51 7601.34 569.986 7603.86C567.462 7606.38 566.2 7610.16 566.2 7614.78V7632.85C566.2 7637.89 567.462 7641.67 569.565 7644.19C572.09 7647.13 575.876 7648.39 580.503 7648.39Z" fill="#F9893D" fill-opacity="0.5"/>
<path d="M580.503 7760.96C572.51 7760.96 566.2 7758.86 561.152 7754.24C556.103 7749.62 554 7743.32 554 7734.08V7717.27C554 7708.45 556.524 7702.15 561.152 7697.53C565.779 7692.91 572.51 7690.81 580.503 7690.81C588.497 7690.81 594.807 7692.91 599.855 7697.53C604.483 7702.15 607.007 7708.87 607.007 7717.27V7734.08C607.007 7742.9 604.483 7749.62 599.855 7754.24C594.807 7758.86 588.497 7760.96 580.503 7760.96ZM580.503 7750.04C585.131 7750.04 588.917 7748.78 591.021 7746.26C593.124 7743.74 594.386 7739.96 594.386 7734.92V7716.85C594.386 7711.81 593.124 7708.03 590.6 7705.51C588.076 7702.99 584.71 7701.73 580.503 7701.73C575.876 7701.73 572.51 7702.99 569.986 7705.51C567.462 7708.03 566.2 7711.81 566.2 7716.43V7734.5C566.2 7739.54 567.462 7743.32 569.565 7745.84C572.09 7748.78 575.876 7750.04 580.503 7750.04Z" fill="#F9893D" fill-opacity="0.5"/>
<path d="M583.448 7860.93V7802.54H581.765L572.51 7823.97H559.469L573.351 7793.3H595.648V7860.93H583.448Z" fill="#F9893D" fill-opacity="0.5"/>
<path d="M580.503 7963.84C572.51 7963.84 566.2 7961.74 561.152 7957.12C556.103 7952.5 554 7946.2 554 7936.96V7920.16C554 7911.34 556.524 7905.03 561.152 7900.41C565.779 7895.79 572.51 7893.69 580.503 7893.69C588.497 7893.69 594.807 7895.79 599.855 7900.41C604.483 7905.03 607.007 7911.76 607.007 7920.16V7936.96C607.007 7945.78 604.483 7952.5 599.855 7957.12C594.807 7961.74 588.497 7963.84 580.503 7963.84ZM580.503 7952.92C585.131 7952.92 588.917 7951.66 591.021 7949.14C593.124 7946.62 594.386 7942.84 594.386 7937.8V7919.74C594.386 7914.7 593.124 7910.92 590.6 7908.4C588.076 7905.87 584.71 7904.61 580.503 7904.61C575.876 7904.61 572.51 7905.87 569.986 7908.4C567.462 7910.92 566.2 7914.7 566.2 7919.32V7937.38C566.2 7942.42 567.462 7946.2 569.565 7948.72C572.09 7951.66 575.876 7952.92 580.503 7952.92Z" fill="#F9893D" fill-opacity="0.5"/>
<path opacity="0.78" d="M583.448 8063.81V8005.43H581.765L572.51 8026.85H559.469L573.351 7996.19H595.648V8063.81H583.448Z" fill="#F9893D" fill-opacity="0.5"/>
<path opacity="0.78" d="M580.503 8166.73C572.51 8166.73 566.2 8164.63 561.152 8160.01C556.103 8155.38 554 8149.08 554 8139.84V8123.04C554 8114.22 556.524 8107.92 561.152 8103.3C565.779 8098.68 572.51 8096.58 580.503 8096.58C588.497 8096.58 594.807 8098.68 599.855 8103.3C604.483 8107.92 607.007 8114.64 607.007 8123.04V8139.84C607.007 8148.66 604.483 8155.38 599.855 8160.01C594.807 8164.63 588.497 8166.73 580.503 8166.73ZM580.503 8155.8C585.131 8155.8 588.917 8154.54 591.021 8152.02C593.124 8149.5 594.386 8145.72 594.386 8140.68V8122.62C594.386 8117.58 593.124 8113.8 590.6 8111.28C588.076 8108.76 584.71 8107.5 580.503 8107.5C575.876 8107.5 572.51 8108.76 569.986 8111.28C567.462 8113.8 566.2 8117.58 566.2 8122.2V8140.26C566.2 8145.3 567.462 8149.08 569.565 8151.6C572.09 8154.54 575.876 8155.8 580.503 8155.8Z" fill="#F9893D" fill-opacity="0.5"/>
<path opacity="0.78" d="M580.503 8267.96C572.51 8267.96 566.2 8265.86 561.152 8261.24C556.103 8256.62 554 8250.31 554 8241.07V8224.27C554 8215.45 556.524 8209.15 561.152 8204.53C565.779 8199.91 572.51 8197.81 580.503 8197.81C588.497 8197.81 594.807 8199.91 599.855 8204.53C604.483 8209.15 607.007 8215.87 607.007 8224.27V8241.07C607.007 8249.89 604.483 8256.62 599.855 8261.24C594.807 8265.86 588.497 8267.96 580.503 8267.96ZM580.503 8257.04C585.131 8257.04 588.917 8255.78 591.021 8253.26C593.124 8250.73 594.386 8246.95 594.386 8241.91V8223.85C594.386 8218.81 593.124 8215.03 590.6 8212.51C588.076 8209.99 584.71 8208.73 580.503 8208.73C575.876 8208.73 572.51 8209.99 569.986 8212.51C567.462 8215.03 566.2 8218.81 566.2 8223.43V8241.49C566.2 8246.53 567.462 8250.31 569.565 8252.83C572.09 8255.78 575.876 8257.04 580.503 8257.04Z" fill="#F9893D" fill-opacity="0.5"/>
<path d="M583.448 8368.35V8309.96H581.765L572.51 8331.38H559.469L573.351 8300.72H595.648V8368.35H583.448Z" fill="#F9893D" fill-opacity="0.5"/>
<path d="M580.503 8470.84C572.51 8470.84 566.2 8468.74 561.152 8464.12C556.103 8459.5 554 8453.2 554 8443.96V8427.15C554 8418.33 556.524 8412.03 561.152 8407.41C565.779 8402.79 572.51 8400.69 580.503 8400.69C588.497 8400.69 594.807 8402.79 599.855 8407.41C604.483 8412.03 607.007 8418.75 607.007 8427.15V8443.96C607.007 8452.78 604.483 8459.5 599.855 8464.12C594.807 8468.74 588.497 8470.84 580.503 8470.84ZM580.503 8459.92C585.131 8459.92 588.917 8458.66 591.021 8456.14C593.124 8453.62 594.386 8449.84 594.386 8444.8V8426.73C594.386 8421.69 593.124 8417.91 590.6 8415.39C588.076 8412.87 584.71 8411.61 580.503 8411.61C575.876 8411.61 572.51 8412.87 569.986 8415.39C567.462 8417.91 566.2 8421.69 566.2 8426.31V8444.38C566.2 8449.42 567.462 8453.2 569.565 8455.72C572.09 8458.66 575.876 8459.92 580.503 8459.92Z" fill="#F9893D" fill-opacity="0.5"/>
<path d="M583.448 8571.23V8512.85H581.765L572.51 8534.27H559.469L573.351 8503.61H595.648V8571.23H583.448Z" fill="#F9893D" fill-opacity="0.5"/>
<path d="M580.503 8673.73C572.51 8673.73 566.2 8671.63 561.152 8667.01C556.103 8662.38 554 8656.08 554 8646.84V8630.04C554 8621.22 556.524 8614.92 561.152 8610.3C565.779 8605.68 572.51 8603.58 580.503 8603.58C588.497 8603.58 594.807 8605.68 599.855 8610.3C604.483 8614.92 607.007 8621.64 607.007 8630.04V8646.84C607.007 8655.66 604.483 8662.38 599.855 8667.01C594.807 8671.63 588.497 8673.73 580.503 8673.73ZM580.503 8662.81C585.131 8662.81 588.917 8661.54 591.021 8659.02C593.124 8656.5 594.386 8652.72 594.386 8647.68V8629.62C594.386 8624.58 593.124 8620.8 590.6 8618.28C588.076 8615.76 584.71 8614.5 580.503 8614.5C575.876 8614.5 572.51 8615.76 569.986 8618.28C567.462 8620.8 566.2 8624.58 566.2 8629.2V8647.26C566.2 8652.3 567.462 8656.08 569.565 8658.6C572.09 8661.54 575.876 8662.81 580.503 8662.81Z" fill="#F9893D" fill-opacity="0.5"/>
<path d="M583.448 8774.12V8715.73H581.765L572.51 8737.15H559.469L573.351 8706.49H595.648V8774.12H583.448Z" fill="#F9893D" fill-opacity="0.5"/>
<path d="M580.503 8876.61C572.51 8876.61 566.2 8874.51 561.152 8869.89C556.103 8865.27 554 8858.97 554 8849.73V8832.92C554 8824.1 556.524 8817.8 561.152 8813.18C565.779 8808.56 572.51 8806.46 580.503 8806.46C588.497 8806.46 594.807 8808.56 599.855 8813.18C604.483 8817.8 607.007 8824.52 607.007 8832.92V8849.73C607.007 8858.55 604.483 8865.27 599.855 8869.89C594.807 8874.51 588.497 8876.61 580.503 8876.61ZM580.503 8865.69C585.131 8865.69 588.917 8864.43 591.021 8861.91C593.124 8859.39 594.386 8855.61 594.386 8850.57V8832.5C594.386 8827.46 593.124 8823.68 590.6 8821.16C588.076 8818.64 584.71 8817.38 580.503 8817.38C575.876 8817.38 572.51 8818.64 569.986 8821.16C567.462 8823.68 566.2 8827.46 566.2 8832.08V8850.15C566.2 8855.19 567.462 8858.97 569.565 8861.49C572.09 8864.43 575.876 8865.69 580.503 8865.69Z" fill="#F9893D" fill-opacity="0.5"/>
<path d="M583.448 8977V8918.61H581.765L572.51 8940.03H559.469L573.351 8909.37H595.648V8977H583.448Z" fill="#F9893D" fill-opacity="0.5"/>
</g>
<g clip-path="url(#clip0_193_7106)">
<rect width="684.629" height="805.076" transform="matrix(0.990317 -0.138822 0 1 0 6138.09)" fill="#181818"/>
<rect width="493.436" height="39.1652" transform="matrix(0.990779 -0.135486 0.0311794 0.999514 -254.223 6132.85)" fill="#F96B31"/>
<rect width="160.881" height="40" transform="matrix(0.990779 -0.135486 0.0311794 0.999514 6.70703 6066.33)" fill="#F9893D"/>
<path d="M356.632 6829L679 6829V6869L354 6869L356.632 6829Z" fill="#F96B31"/>
</g>
<defs>
<clipPath id="clip0_193_7106">
<rect width="678" height="896" fill="white" transform="translate(0 5973)"/>
</clipPath>
</defs>
</svg>
