<svg width="630" height="433" viewBox="0 0 630 433" fill="none" xmlns="http://www.w3.org/2000/svg">
<path d="M28.6211 380.954C28.6211 380.954 -40.841 233.542 96.0609 233.542C168.393 233.542 138.595 193.097 187.773 146.291C236.951 99.4837 408.936 62.0873 445.531 152.473C482.126 242.86 391.672 311.484 479.086 299.711C584.133 285.565 625.63 380.951 625.63 380.951L28.6211 380.954Z" fill="#F9893D" fill-opacity="0.5"/>
<path d="M591.195 362.25C584.713 357.529 571.466 360.718 561.692 364.126C560.096 361.895 558.297 359.815 556.318 357.914C577.376 344.395 606.464 315.564 591.048 313.122C577.646 311.002 559.559 336.953 549.895 352.749C539.857 346.02 524.478 341.074 500.997 342.791C440.059 347.242 392.448 308.068 357.355 321.134C329.454 331.522 303.882 337.342 279.216 335.354C280.278 317.4 280.509 282.151 266.363 278.495C252.001 274.783 266.088 314.814 273.916 334.815C272.082 334.58 270.249 334.3 268.42 333.975C263.348 324.014 254.994 310.977 245.814 310.532C237.174 310.11 247.836 321.832 258.328 331.762C228.171 325.451 192.397 349.882 191.805 378.777H568.323C568.323 378.777 567.658 374.56 564.704 369.001C579.251 368.695 598.235 367.373 591.195 362.25Z" fill="#A8D29F"/>
<path d="M273.944 356.432H174.711V378.761H273.944V356.432Z" fill="#4A75CB"/>
<path d="M243.344 356.432H144.113V378.764H243.344V356.432Z" fill="#699DEE"/>
<path d="M312.981 378.754H386.871V275.833H312.981V378.754Z" fill="#D86713"/>
<path d="M290.198 378.754H364.088V275.833H290.198V378.754Z" fill="#F1A34F"/>
<path d="M364.088 275.834L386.871 291.288V275.834H364.088Z" fill="#C95C12"/>
<path d="M430.018 130.531C428.876 130.357 425.433 133.528 425.433 133.528C418.084 134.375 407.339 136.32 403.471 137.062C400.726 137.588 393.352 135.083 386.148 132.206C377.58 128.778 369.255 124.835 369.255 124.835C364.5 124.59 359.102 133.237 368.744 138.732C370.218 139.571 375.744 141.004 382.113 142.311C390.898 144.116 401.279 145.681 404.808 145.132C408.911 144.493 420.534 140.257 427.436 137.015H427.453L427.529 136.978C427.945 136.785 429.635 136.033 430.765 136.102C432.06 136.178 434.943 133.817 435.031 133.188C435.12 132.558 431.161 130.702 430.018 130.531Z" fill="#ED975D"/>
<path d="M421.041 239.42L416.994 240.241C416.994 240.241 398.474 219.505 395.616 210.781C394.088 206.128 384.313 204.101 374.092 201.476C365.199 199.186 355.972 196.424 351.567 191.037C342.094 179.464 357.513 165.242 357.513 165.242C357.513 165.242 373.91 174.954 388.053 184.986C397.939 191.997 406.728 199.164 408.05 203.283C411.266 213.293 418.085 232.334 421.041 239.42Z" fill="#2B478B"/>
<path d="M415.623 246.261H417.901C418.663 246.141 419.226 245.92 420.007 245.82C421.196 245.663 421.742 246.151 421.85 246.261L421.872 246.283H431.541C431.787 245.938 431.541 245.137 431.322 244.547C431.246 244.349 431.125 244.171 430.968 244.028C430.811 243.885 430.623 243.78 430.418 243.721C429.393 243.425 427.371 243.161 425.518 241.491C424.479 240.553 420.491 238.043 420.491 238.043H420.469C420.38 238.043 419.977 238.173 418.149 239.698C417.213 240.487 415.614 238.587 415.614 238.587C415.394 238.786 415.217 239.027 415.09 239.294C414.867 239.75 414.794 240.264 414.881 240.763C415.026 241.633 414.562 243.246 414.188 244.336C413.965 244.997 413.776 245.467 413.776 245.467C413.776 245.467 413.665 246.016 415.623 246.261Z" fill="#233862"/>
<path d="M388.053 184.978L374.092 201.468C365.199 199.178 355.972 196.416 351.567 191.029C342.094 179.456 357.513 165.234 357.513 165.234C357.513 165.234 373.91 174.946 388.053 184.978Z" fill="#1E3D70"/>
<path d="M375.367 176.377C375.367 176.377 374.242 179.912 372.418 185.236C370.101 191.962 366.651 201.542 362.909 210.428C362.086 212.387 361.248 214.299 360.405 216.146C357.292 222.983 354.108 228.845 351.314 231.817C346.272 237.17 334.018 271.592 334.018 271.592L330.963 270.749C330.963 270.749 326.705 241.365 341.775 224.633C341.944 224.465 342.052 224.245 342.08 224.009C342.281 221.533 342.999 210.448 344.561 199.213C344.945 196.456 345.38 193.694 345.866 191.047C345.898 190.875 345.93 190.709 345.962 190.542C348.255 178.299 350.451 172.853 353.287 170.115L374.141 176.029L375.367 176.377Z" fill="#2B478B"/>
<path d="M330.6 275.812H332.878C333.64 275.692 334.203 275.472 334.984 275.369C336.173 275.215 336.719 275.699 336.827 275.812L336.849 275.834H346.518C346.764 275.486 346.518 274.686 346.299 274.096C346.223 273.898 346.101 273.72 345.944 273.577C345.788 273.434 345.6 273.329 345.395 273.27C344.368 272.974 342.348 272.712 340.495 271.042C339.454 270.104 335.466 267.592 335.466 267.592H335.446C335.357 267.592 334.954 267.722 333.126 269.247C332.19 270.036 330.591 268.135 330.591 268.135C330.371 268.335 330.194 268.575 330.067 268.843C329.842 269.302 329.768 269.821 329.858 270.325C330.003 271.191 329.539 272.805 329.168 273.897C328.942 274.558 328.75 275.026 328.75 275.026C328.75 275.026 328.642 275.567 330.6 275.812Z" fill="#233862"/>
<path d="M335.075 136.391C335.075 136.391 331.586 144.895 327.563 153.174C324.18 160.136 320.42 166.936 318.037 168.388C314.675 170.433 305.417 176.204 299.409 180.511C299.409 180.511 294.723 180.475 294.003 181.368C293.283 182.262 291.595 186.283 292.086 186.689C292.578 187.096 296.303 186.907 297.207 185.982C297.998 185.176 299.755 184.596 300.193 184.461L300.274 184.434H300.293C307.591 182.196 319.042 177.534 322.506 175.254C325.492 173.295 332.106 165.17 337.382 157.944C341.208 152.704 344.328 147.936 344.849 146.328C348.26 135.791 338.426 133.034 335.075 136.391Z" fill="#FFB27D"/>
<path d="M353.32 103.035C352.935 102.475 352.518 101.938 352.072 101.426C352.595 101.453 353.118 101.375 353.61 101.196C354.839 100.691 355.394 96.8175 355.21 95.6666C355.026 94.5157 353.325 91.1953 351.227 90.8647C349.128 90.5342 346.961 92.8531 346.961 92.8531C347.349 91.1782 350.893 90.2109 350.893 90.2109C343.583 91.5553 343.956 96.4135 344.013 96.864C337.322 94.4864 333.393 107.046 333.393 107.046L350.728 117.227C350.728 117.227 350.772 114.453 352.426 114.632C355.003 114.913 357.151 108.598 353.32 103.035Z" fill="#2C3A64"/>
<path d="M354.428 129.386C350.45 131.255 345.172 128.564 345.199 128.534C345.54 128.196 345.42 127.178 345.108 125.841C344.796 124.452 344.056 122.554 342.692 120.292C342.41 119.802 342.125 119.327 341.783 118.823L342.238 118.654L349.966 115.568C349.966 115.568 351.216 117.804 352.524 119.841C353.632 121.541 354.796 123.071 355.308 123.012C355.337 122.993 360.448 126.499 354.428 129.386Z" fill="#FFB27D"/>
<path d="M349.964 116.336C349.765 119.081 348.828 124.037 345.106 125.849C344.794 124.461 344.054 122.563 342.69 120.3L349.964 116.336Z" fill="#ED975D"/>
<path d="M342.238 123.426C342.238 123.426 352.3 119.474 349.733 113.269C347.165 107.064 346.737 102.372 340.206 104.635C333.675 106.897 333.412 109.777 333.763 112.049C334.115 114.322 339.56 124.293 342.238 123.426Z" fill="#FFB27D"/>
<path d="M345.991 111.853C350.637 111.2 351.994 109.329 351.994 109.329C349.174 108.366 346.777 106.457 345.212 103.929C345.212 103.929 339.99 102.174 336.12 105.107C335.874 105.426 335.705 105.799 335.629 106.194C334.742 105.905 333.417 105.981 332.639 108.479C331.484 112.23 335.587 116.33 335.587 116.33C336.585 116.048 335.459 112.703 335.302 110.918C335.187 109.605 335.899 107.923 336.285 107.127C336.776 107.764 341.678 113.9 347.662 114.145C345.51 113.347 343.478 112.261 341.622 110.915C343.052 111.616 344.573 112.052 345.991 111.853Z" fill="#2C3A64"/>
<path d="M373.579 142.175C373.493 141.874 373.402 141.563 373.306 141.245C374.582 138.878 375.441 136.31 375.844 133.654C376.527 129.067 375.353 126.234 375.353 126.234C375.353 126.234 368.375 122.547 365.293 122.072L365.254 122.059L365.131 122.047C362.02 121.621 355.285 122.99 355.285 122.99C355.285 122.99 356.585 126.438 352.921 128.734C349.258 131.031 345.341 128.144 345.341 128.144C345.223 128.225 345.095 128.311 344.97 128.404C344.97 128.404 335.328 134.746 334.463 136.193C333.598 137.64 329.888 144.817 329.888 144.817C329.888 144.817 331.065 150.839 344.09 151.343C345.162 153.931 345.982 156.456 346.248 158.562C347.282 166.738 346.081 173.186 347.287 177.958C348.493 182.731 370.227 180.01 374.164 179.092C378.1 178.174 377.213 173.984 377.518 169.917C377.906 164.818 374.861 146.683 373.579 142.175Z" fill="#699DEE"/>
<path d="M375.845 133.663C375.438 136.329 374.574 138.905 373.29 141.279C372.948 139.778 371.57 134.285 369.312 131.795C369.312 131.795 373.091 132.135 375.845 133.663Z" fill="#4A82D3"/>
<path d="M287.351 187.242C287.351 187.242 291.4 182.345 292.265 181.774C293.13 181.204 296.961 180.182 297.18 180.386C297.398 180.589 297.408 180.875 296.934 181.304C296.46 181.733 294.651 182.773 294.909 182.891C295.167 183.008 300.625 180.302 301.413 181.213C302.202 182.124 300.966 185.881 298.863 187.683C296.759 189.485 290.484 190.254 290.091 190.506C286.749 192.639 287.351 187.242 287.351 187.242Z" fill="#ED975D"/>
<path d="M216.061 175.951C216.061 175.951 221.879 182.827 229.285 179.95C229.285 179.95 230.88 176.111 230.902 173.277C230.902 172.93 230.902 172.592 230.902 172.271C230.941 169.088 231.049 167.293 231.049 167.293C230.713 167.153 219.724 162.658 219.734 163.03C219.928 171.654 216.061 175.951 216.061 175.951Z" fill="#FFB27D"/>
<path d="M220.84 165.087C221.899 167.046 225.536 170.873 230.915 172.271C230.954 169.088 231.062 167.293 231.062 167.293C230.747 167.212 220.526 164.509 220.84 165.087Z" fill="#ED975D"/>
<path d="M233.363 166.963C233.363 166.963 221.006 169.857 219.315 162.161C217.625 154.465 214.892 149.656 222.708 147.484C230.525 145.312 232.709 147.91 233.901 150.341C235.093 152.773 236.533 166.013 233.363 166.963Z" fill="#FFB27D"/>
<path d="M219.739 164.26C219.569 164.367 216.91 165.18 211.876 155.185C211.084 153.615 210.546 150.221 212.389 147.222C214.232 144.222 220.766 141.864 226.194 140.838C231.621 139.812 232.924 142.855 234.202 145.914C235.543 149.124 239.418 151.769 239.418 151.769C234.749 154.374 229.098 150.647 227.147 151.259C225.196 151.872 224.505 154.932 224.358 155.924C224.211 156.916 223.987 157.724 221.53 156.845C219.073 155.966 220.419 160.315 220.812 161.145C220.812 161.145 221.147 163.358 219.739 164.26Z" fill="#A9453D"/>
<path d="M187.909 356.431H180.427C178.859 356.431 177.115 354.844 176.68 351.943C176.245 349.041 173.019 347.452 172.321 345.086C171.623 342.721 175.198 339.364 175.198 339.364L175.795 338.587L176.417 337.779L182.344 339.187C182.344 339.187 182.491 340.612 182.589 342.429C182.653 343.739 182.688 345.255 182.614 346.592C182.439 349.775 183.491 353.174 186.28 353.791C189.069 354.408 187.909 356.431 187.909 356.431Z" fill="#2C3A64"/>
<path d="M239.99 356.501H220.158C220.013 356.479 219.872 356.437 219.738 356.377C218.414 355.696 218.829 350.5 218.986 348.888C219.018 348.59 219.04 348.416 219.04 348.416C219.04 348.416 226.014 342.693 226.972 347.076C227.004 347.211 227.038 347.346 227.075 347.478C228.287 351.577 233.71 353.441 236.825 353.96C239.214 354.361 239.833 355.789 239.99 356.501Z" fill="#2C3A64"/>
<path d="M235.997 242.209C235.997 242.209 234.938 255.378 233.692 271.206C231.999 292.711 229.965 319.125 229.761 324.128C229.414 332.816 228.019 346.714 228.019 346.714C228.019 346.714 224.706 350.018 218.079 348.624C218.079 348.624 212.182 328.79 210.489 307.792C210.462 307.447 210.435 307.102 210.411 306.754C208.84 285.384 206.4 240.395 206.4 240.395L235.997 242.209Z" fill="#EE9849"/>
<path d="M235.998 242.209C235.998 242.209 234.939 255.378 233.693 271.206L210.492 307.792C210.465 307.447 210.438 307.102 210.413 306.754C208.843 285.384 206.403 240.395 206.403 240.395L235.998 242.209Z" fill="#E58638"/>
<path d="M231.158 243.774C231.158 243.774 212.068 291.464 199.514 313.877C186.961 336.29 183.051 342.544 183.051 342.544C183.051 342.544 175.862 339.679 175.208 337.723C175.208 337.723 180.007 294.454 188.413 283.908C193.163 277.948 198.733 260.062 199.006 253.806C199.279 247.55 200.704 235.174 200.704 235.174L231.158 243.774Z" fill="#EE9849"/>
<path d="M187.462 235.831C187.462 235.831 186.971 241.788 186.604 242.702C186.238 243.615 183.82 246.451 183.531 246.409C183.241 246.367 183.083 246.144 183.226 245.567C183.368 244.989 184.209 243.206 183.936 243.253C183.663 243.299 180.909 248.321 179.808 248.037C178.707 247.753 177.633 244.185 178.287 241.671C178.94 239.156 183.386 235.189 183.555 234.783C185.005 231.332 187.462 235.831 187.462 235.831Z" fill="#ED975D"/>
<path d="M185.404 237.348C187.517 238.024 187.861 237.872 187.861 237.872C187.861 237.872 198.144 219.213 199.186 217.504C200.228 215.795 221.023 196.58 221.023 196.58L215.679 176.721C215.679 176.721 192.023 207.229 189.468 211.615C185.251 218.85 182.774 235.658 182.774 235.658C183.492 236.436 184.397 237.018 185.404 237.348Z" fill="#1E3D70"/>
<path d="M240.026 204.368C239.953 208.445 239.714 213.029 239.392 217.687L239.333 218.514C239.129 221.399 238.906 224.291 238.653 227.109C238.55 228.24 238.441 229.356 238.326 230.457L238.309 230.603C238.309 231.015 238.25 231.461 238.206 231.867C237.161 242.426 236.068 250.771 235.866 250.898C235.63 251.064 235.34 251.137 235.053 251.104C232.274 250.756 223.981 251.386 217.194 249.914C211.466 248.709 206.532 246.427 201.306 243.349C200.613 242.94 199.031 241.858 199.161 241.05C199.286 240.161 199.52 238.875 199.817 237.259C200.847 231.642 202.623 221.979 203.23 210.671C203.348 208.565 203.52 206.484 203.744 204.439C204.265 199.412 205.191 194.435 206.513 189.556C208.84 181.204 212.26 174.808 216.55 172.305C217.111 171.994 220.128 173.906 222.897 175.677C225.231 177.166 228.004 177.821 230.76 177.535L233.065 180.077C235.859 183.312 238.832 187.619 239.643 193.738C239.704 194.191 239.756 194.671 239.8 195.183C240.033 198.239 240.108 201.305 240.026 204.368Z" fill="#2A4E96"/>
<path d="M240.027 204.368C239.953 208.446 239.715 213.029 239.393 217.687L239.334 218.515C223.461 208.614 221.016 190.494 221.016 190.494C228.825 190.835 235.022 192.625 239.811 195.183C240.04 198.239 240.112 201.305 240.027 204.368Z" fill="#1E3D70"/>
<path d="M289.762 187.733C288.944 185.529 287.671 185.669 287.671 185.669C287.671 185.669 264.067 191.531 261.949 191.791C259.831 192.05 236.534 182.731 236.534 182.731C236.534 182.731 227.364 178.629 223.069 182.373C219.337 185.627 219.167 189.748 220.039 193.211C220.555 195.227 221.669 197.041 223.235 198.416C224.801 199.792 226.747 200.665 228.819 200.922C238.323 202.129 257.285 204.399 261.254 203.848C270.1 202.624 290.145 191.09 290.145 191.09C290.278 189.957 290.147 188.808 289.762 187.733Z" fill="#2A4E96"/>
<path d="M522.49 230.841C522.49 230.841 525.768 233.87 525.129 236.023C524.49 238.175 521.529 239.608 521.129 242.24C520.728 244.872 519.131 246.305 517.689 246.305H510.828C510.828 246.305 509.767 244.454 512.327 243.895C514.888 243.337 515.851 240.247 515.691 237.377C515.532 234.507 515.937 230.682 515.937 230.682L521.375 229.406L522.49 230.841Z" fill="#2C3A64"/>
<path d="M481.621 245.945C481.289 246.111 480.12 246.226 478.515 246.302H462.993C463.047 245.844 463.408 244.204 465.942 243.795C468.809 243.332 473.775 241.669 474.881 238.016C474.92 237.898 474.95 237.771 474.979 237.658C475.857 233.753 482.255 238.851 482.255 238.851C482.255 238.851 482.275 239.008 482.302 239.274C482.456 240.709 482.835 245.342 481.621 245.945Z" fill="#2C3A64"/>
<path d="M466.706 141.491C466.706 141.491 467.677 153.573 468.819 168.096C470.372 187.823 472.24 212.058 472.424 216.647C472.743 224.62 474.024 237.37 474.024 237.37C474.024 237.37 477.061 240.399 483.142 239.123C483.142 239.123 488.548 220.92 490.106 201.658C490.13 201.342 490.155 201.024 490.177 200.708C491.617 181.101 493.863 139.816 493.863 139.816L466.706 141.491Z" fill="#35488B"/>
<path d="M466.706 141.491C466.706 141.491 467.677 153.573 468.819 168.096L490.106 201.66C490.13 201.344 490.155 201.026 490.177 200.71C491.617 181.103 493.863 139.818 493.863 139.818L466.706 141.491Z" fill="#2C3A64"/>
<path d="M471.144 142.927C471.144 142.927 488.658 186.682 500.175 207.244C511.692 227.806 515.289 233.546 515.289 233.546C515.289 233.546 521.889 230.916 522.489 229.123C522.489 229.123 518.086 189.425 510.372 179.748C506.013 174.28 500.895 157.871 500.654 152.131C500.414 146.392 499.094 135.037 499.094 135.037L471.144 142.927Z" fill="#35488B"/>
<path d="M417.121 119.194C417.121 119.194 412.371 118.112 411.57 118.168C410.769 118.224 407.975 119.392 407.938 119.613C407.901 119.833 408.031 120.024 408.516 120.056C409 120.088 410.589 119.885 410.481 120.078C410.373 120.272 405.798 121.165 405.749 122.086C405.7 123.007 408.206 124.713 410.329 124.826C412.452 124.939 416.619 122.485 416.978 122.453C420.018 122.191 417.121 119.194 417.121 119.194Z" fill="#FFB27D"/>
<path d="M415.09 120.396C414.407 118.234 414.567 117.891 414.567 117.891C414.567 117.891 433.826 107.513 435.588 106.46C437.35 105.408 457.263 84.3047 457.263 84.3047L477.658 89.8975C477.658 89.8975 446.112 113.843 441.591 116.422C434.121 120.682 416.82 123.094 416.82 123.094C416.02 122.358 415.424 121.429 415.09 120.396Z" fill="#E58638"/>
<path d="M463.43 74.0428C463.43 74.0428 456.284 86.5727 449.298 88.2085C449.298 88.2085 449.588 83.9991 451.289 81.1195C450.593 80.3016 449.981 79.5499 449.451 78.8765C448.523 77.7164 447.658 76.5083 446.858 75.2573L449.227 68.9054L450.837 64.5957C451.544 65.8842 452.386 67.0942 453.35 68.2051C457.928 73.4502 463.43 74.0428 463.43 74.0428Z" fill="#FFB27D"/>
<path d="M453.35 68.2041C453.35 68.2041 454.203 74.485 449.451 78.8755C448.523 77.7154 447.658 76.5074 446.858 75.2564L449.227 68.9044C451.77 68.1429 453.35 68.2041 453.35 68.2041Z" fill="#ED975D"/>
<path d="M444.974 76.1815C444.974 76.1815 455.653 72.0334 452.958 65.4464C450.262 58.8594 449.827 53.8886 442.883 56.2589C435.939 58.6292 435.664 61.6779 436.028 64.0947C436.391 66.5116 442.126 77.0899 444.974 76.1815Z" fill="#FFB27D"/>
<path d="M500.131 138.342C495.823 144.512 463.619 152.759 464.01 148.487C464.268 145.685 464.268 142.865 464.01 140.063C463.93 139.147 463.816 138.177 463.669 137.152C462.85 131.539 460.907 124.32 456.572 115.968C456.245 115.341 455.906 114.709 455.558 114.073C453.791 110.87 452.298 107.526 451.093 104.075C448.862 97.6492 447.962 91.5005 449.088 87.4822C449.088 87.4626 449.088 87.443 449.105 87.4259C455.838 84.3234 458.442 72.293 458.442 72.293C458.442 72.293 481.407 76.4019 494.273 106.908C494.263 106.908 503.878 132.972 500.131 138.342Z" fill="#EE9849"/>
<path d="M463.996 140.065C463.915 139.149 463.801 138.178 463.654 137.153C462.836 131.541 460.892 124.322 456.558 115.97C457.295 111.474 458.329 107.735 459.457 106.052C464.037 99.2107 466.706 98.1406 466.706 98.1406C466.706 98.1406 473.574 127.011 463.996 140.065Z" fill="#E58638"/>
<path d="M427.797 133.195C427.797 133.195 421.443 133.526 420.457 133.881C419.472 134.236 416.381 136.694 416.415 136.991C416.45 137.287 416.681 137.481 417.3 137.341C417.919 137.201 419.843 136.386 419.784 136.663C419.725 136.939 414.295 139.699 414.56 140.87C414.826 142.04 418.592 143.294 421.298 142.682C424.003 142.069 428.357 137.503 428.795 137.336C432.507 135.923 427.797 133.195 427.797 133.195Z" fill="#FFB27D"/>
<path d="M426.596 135.594C425.323 133.544 426.242 132.612 426.242 132.612C426.242 132.612 445.867 117.297 447.405 115.75C448.944 114.202 456.069 89.5684 456.069 89.5684C456.069 89.5684 458.527 79.5997 464.267 78.5003C469.257 77.5453 472.707 80.0062 474.965 82.8908C476.274 84.5766 477.043 86.6163 477.171 88.7439C477.3 90.8716 476.782 92.9884 475.685 94.8184C470.675 103.235 460.566 119.937 457.615 122.79C451.044 129.142 429.063 138.018 429.063 138.018C428.065 137.409 427.221 136.58 426.596 135.594Z" fill="#EE9849"/>
<path d="M454.491 53.2061C454.564 53.0591 454.783 52.9024 455.311 52.7408C454.962 52.64 454.593 52.6265 454.237 52.7016C453.938 51.967 453.208 50.7304 451.842 50.7206C452.083 50.7936 452.304 50.9194 452.49 51.0889C452.676 51.2584 452.821 51.4673 452.916 51.7001C451.043 50.515 447.571 50.1721 438.91 53.0493C427.486 56.8399 433.194 63.4489 434.924 63.9779C436.654 64.5068 439.838 61.108 442.708 60.6427C445.578 60.1775 447.131 64.1591 448.217 64.4896C449.303 64.8202 448.689 63.9142 449.834 63.0057C450.979 62.0973 451.635 64.2301 451.611 65.7311C451.586 67.2322 453.822 68.65 453.822 68.65L455.132 66.2576C456.439 63.8652 456.083 55.1822 454.832 53.6174L454.491 53.2061Z" fill="#2B478B"/>
<path d="M629.203 378.637H23.8751C23.4344 378.637 23.0771 379.041 23.0771 379.539V380.183C23.0771 380.681 23.4344 381.085 23.8751 381.085H629.203C629.644 381.085 630.001 380.681 630.001 380.183V379.539C630.001 379.041 629.644 378.637 629.203 378.637Z" fill="#2E3552"/>
<path d="M273.943 356.178V369.06L243.346 356.178H273.943Z" fill="#4271BC"/>
<path d="M535.804 246.303H434.612V378.755H535.804V246.303Z" fill="#4A75CB"/>
<path d="M504.601 246.305H403.407V378.757H504.601V246.305Z" fill="#699DEE"/>
<path d="M535.804 246.305V266.11L504.603 246.305H535.804Z" fill="#4271BC"/>
</svg>
