<svg width="30" height="30" viewBox="0 0 30 30" fill="none" xmlns="http://www.w3.org/2000/svg">
<g clip-path="url(#clip0_531_6070)">
<path d="M30 15C30 23.2842 23.2842 30 15 30C6.71579 30 0 23.2842 0 15C0 6.71579 6.71579 0 15 0C23.2842 0 30 6.71579 30 15Z" fill="#473080"/>
<path d="M26.4473 20.674C26.4827 20.6388 26.5178 20.5991 26.5533 20.5637C26.5798 20.5372 26.6018 20.5106 26.6284 20.4797C26.6592 20.4443 26.6904 20.4089 26.7212 20.3737C26.7301 20.3649 26.7389 20.356 26.7432 20.3426C26.7698 20.3075 26.8006 20.272 26.8272 20.2366C27.406 19.4856 27.7505 18.5446 27.7505 17.5196C27.7505 15.0586 25.7537 13.0614 23.2926 13.0614C21.2512 13.0614 19.5283 14.4355 19.0024 16.3089L18.0128 15.973V15.9776L17.9774 15.9641L17.297 15.1645V14.1219C17.7875 13.4811 18.0569 12.6461 18.2028 11.8068C18.6225 11.7891 19.0113 11.2543 19.0907 10.5564C19.1527 10.0305 19.0201 9.55341 18.7816 9.30146C18.7816 9.29717 18.7816 9.29717 18.7816 9.2926C18.7816 9.2749 18.7859 9.26175 18.7859 9.24404C18.7859 9.23089 18.7904 9.22204 18.7904 9.20862C18.7904 9.19091 18.7947 9.17347 18.7947 9.15576C18.7947 9.14234 18.7993 9.13349 18.7993 9.12034C18.7993 9.10263 18.8036 9.08492 18.8036 9.06721C18.8036 9.05836 18.8036 9.04521 18.8082 9.03636C18.8082 9.01865 18.8124 8.99665 18.8124 8.97894C18.8124 8.97008 18.8124 8.96123 18.8124 8.95237C18.8124 8.93037 18.8167 8.90381 18.8167 8.8818C18.8167 8.87724 18.8167 8.87295 18.8167 8.86839C18.8167 8.83753 18.8213 8.81097 18.8213 8.78011C18.8213 8.77582 18.8213 8.77582 18.8213 8.77126C18.8213 8.74469 18.8256 8.7184 18.8256 8.69183C18.8256 8.68298 18.8256 8.67412 18.8256 8.66527C18.8256 8.64327 18.8256 8.62556 18.8256 8.60329C18.8256 8.5947 18.8256 8.58128 18.8256 8.57243C18.8256 8.55472 18.8256 8.53701 18.8256 8.51957C18.8256 8.50615 18.8256 8.4973 18.8256 8.48415C18.8256 8.46644 18.8256 8.44873 18.8256 8.43102C18.8256 8.41788 18.8256 8.40902 18.8256 8.39587C18.8256 8.37816 18.8256 8.36046 18.8256 8.34704C18.8256 8.33389 18.8256 8.32504 18.8256 8.31189C18.8256 8.29418 18.8256 8.28076 18.8256 8.26332C18.8256 8.24991 18.8256 8.23676 18.8256 8.2279C18.8256 8.2102 18.8256 8.19705 18.8213 8.17934C18.8213 8.16592 18.8213 8.15277 18.8167 8.14392C18.8167 8.12621 18.8167 8.11306 18.8124 8.09535C18.8124 8.08194 18.8124 8.06879 18.8082 8.05994C18.8082 8.04679 18.8036 8.02908 18.8036 8.01566C18.8036 8.00251 18.7993 7.98937 18.7993 7.98051C18.7993 7.9671 18.7947 7.94939 18.7947 7.93624C18.7947 7.92309 18.7904 7.90968 18.7904 7.90082C18.7904 7.88767 18.7859 7.86996 18.7859 7.85682C18.7859 7.8434 18.7816 7.83455 18.7816 7.8214C18.7816 7.80825 18.777 7.79054 18.777 7.77712C18.777 7.76398 18.7727 7.75512 18.7727 7.74197C18.7682 7.72856 18.7682 7.71085 18.7639 7.6977C18.7639 7.68429 18.7593 7.6757 18.7593 7.66228C18.755 7.64914 18.755 7.63143 18.7507 7.61801C18.7462 7.60486 18.7462 7.59601 18.7419 7.58286C18.7373 7.56944 18.7373 7.55173 18.733 7.53859C18.7285 7.52973 18.7285 7.51658 18.7242 7.50773C18.7196 7.49431 18.7153 7.47687 18.7153 7.46346C18.7108 7.4546 18.7108 7.44145 18.7065 7.4326C18.7019 7.41918 18.6976 7.40174 18.693 7.38833C18.6888 7.37947 18.6888 7.37062 18.6845 7.35747C18.6799 7.33976 18.6756 7.32661 18.671 7.3089C18.6667 7.30005 18.6667 7.29119 18.6622 7.28663C18.6533 7.26463 18.6445 7.23807 18.6356 7.21606C18.4768 6.78299 18.1894 6.5356 17.8892 6.3942C17.8626 6.38105 17.8403 6.37219 17.814 6.35905C17.6106 6.27506 17.4118 6.23508 17.2438 6.21764C17.2264 6.21764 17.2087 6.21308 17.191 6.21308C17.1864 6.21308 17.1821 6.21308 17.1733 6.21308C17.1601 6.21308 17.1467 6.21308 17.1336 6.20879C17.129 6.20879 17.1247 6.20879 17.1247 6.20879C17.107 6.20879 17.0938 6.20879 17.0804 6.20879C17.0761 6.20879 17.0716 6.20879 17.0673 6.20879C17.0539 6.20879 17.0453 6.20879 17.0364 6.20879C17.0319 6.20879 17.0319 6.20879 17.0276 6.20879C17.0276 6.20879 17.0276 6.20879 17.023 6.20879C17.0099 6.20879 16.9964 6.20879 16.9876 6.20879C16.9833 6.20879 16.979 6.20879 16.979 6.20879C16.9702 6.20879 16.9613 6.20879 16.9524 6.20879C16.9479 6.20879 16.9479 6.20879 16.9436 6.20879C16.9347 6.20879 16.9259 6.20879 16.917 6.20879C16.9127 6.20879 16.9127 6.20879 16.9082 6.20879C16.9039 6.20879 16.895 6.20879 16.8905 6.20879H16.8862C16.8816 6.20879 16.8728 6.20879 16.8685 6.20879C16.8685 6.20879 16.8685 6.20879 16.8639 6.20879C16.8596 6.20879 16.8596 6.20879 16.855 6.20879H16.8507C16.8507 6.19993 16.8465 6.19108 16.8419 6.18652C16.8419 6.18222 16.8376 6.17766 16.8376 6.17337C16.833 6.16022 16.8287 6.14251 16.8242 6.12909C16.8242 6.1248 16.8242 6.1248 16.8199 6.12024C16.8153 6.11595 16.8153 6.10709 16.811 6.1028C16.8022 6.08509 16.7976 6.06738 16.7888 6.04967C16.7888 6.04967 16.7888 6.04511 16.7845 6.04511C16.7845 6.04082 16.7802 6.03652 16.7802 6.03196C16.7802 6.02767 16.7756 6.02767 16.7756 6.02311C16.7668 6.0054 16.7625 5.99225 16.7536 5.97454C16.7536 5.97025 16.7491 5.97025 16.7491 5.96569C16.7359 5.94368 16.7225 5.92141 16.7093 5.89512C16.7093 5.89056 16.7051 5.88626 16.7051 5.88626C16.7051 5.8817 16.7005 5.8817 16.7005 5.87741C16.7005 5.87741 16.7005 5.87285 16.6962 5.87285C16.6828 5.85514 16.6739 5.8377 16.6608 5.81999C16.6608 5.81999 16.6608 5.81543 16.6562 5.81543C16.6388 5.79342 16.6254 5.77142 16.6076 5.74915C16.6034 5.74486 16.6034 5.7403 16.5988 5.736L16.5945 5.73144C16.5591 5.69173 16.5237 5.65202 16.4797 5.61231C16.4751 5.60775 16.4708 5.60345 16.4662 5.59889C16.4442 5.57689 16.4222 5.55918 16.4 5.53718C16.4 5.53718 16.3957 5.53262 16.3911 5.53262C16.3691 5.51491 16.3471 5.49747 16.3205 5.47976C16.3163 5.4752 16.3117 5.4709 16.3028 5.46634C16.2763 5.44863 16.25 5.43119 16.2234 5.40892C16.2189 5.40463 16.2146 5.40463 16.21 5.40007C16.1837 5.38236 16.1571 5.36921 16.1306 5.3515C16.1263 5.34721 16.1217 5.34721 16.1129 5.34264C16.082 5.32494 16.0512 5.30749 16.02 5.28979C16.0112 5.28522 16.0069 5.28093 15.998 5.28093C15.9672 5.26751 15.936 5.25007 15.9052 5.23666C15.9009 5.23666 15.8963 5.23236 15.892 5.23236C15.8566 5.21466 15.8212 5.20124 15.786 5.1838C15.7772 5.17924 15.7683 5.17494 15.7595 5.17494C15.7198 5.15723 15.6844 5.14382 15.6401 5.13067C15.3484 5.02468 14.9508 4.94499 14.5091 4.94499C14.4648 4.94499 14.4206 4.94499 14.3766 4.94955H14.372C14.2394 4.95385 14.1069 4.96726 13.9743 4.98927C13.9701 4.98927 13.9612 4.98927 13.9569 4.99356C13.3116 5.09981 12.6403 5.40892 12.1055 6.06282C12.1012 6.07167 12.0923 6.07624 12.0878 6.08509C11.9375 6.2705 11.8007 6.48704 11.677 6.73013C11.6504 6.7787 11.6284 6.82727 11.6061 6.88039C11.6018 6.88925 11.5976 6.89784 11.5976 6.9024C11.5753 6.95096 11.5576 6.99953 11.5356 7.0481C11.5313 7.05695 11.5267 7.0658 11.5224 7.07466C11.5047 7.12323 11.4824 7.17179 11.465 7.22492C11.4604 7.22921 11.4604 7.23807 11.4604 7.24263C11.4427 7.29119 11.425 7.33976 11.4119 7.39289C11.4119 7.39718 11.4073 7.40174 11.4073 7.40604C11.3899 7.45916 11.3765 7.50773 11.3633 7.56059C11.3587 7.56944 11.3587 7.5783 11.3545 7.58715C11.341 7.63572 11.3279 7.68885 11.3147 7.73741C11.3102 7.74627 11.3102 7.75512 11.3102 7.76398C11.297 7.81684 11.2882 7.86996 11.2748 7.91853V7.92738C11.2662 7.98051 11.2573 8.02908 11.2439 8.08194C11.2439 8.09079 11.2396 8.09965 11.2396 8.10421C11.2308 8.15707 11.2219 8.20563 11.2173 8.25876C11.2173 8.26762 11.213 8.28076 11.213 8.28962C11.2042 8.33818 11.1999 8.39131 11.1953 8.43988C11.1953 8.44873 11.1953 8.45759 11.191 8.46644C11.1865 8.51501 11.1822 8.56814 11.1776 8.6167V8.62556C11.1733 8.67842 11.1688 8.72725 11.1645 8.78011V8.80667C11.1599 8.85524 11.1599 8.90381 11.1556 8.95693V8.98779C11.1556 9.03636 11.1511 9.08492 11.1511 9.1292C10.7271 9.21747 10.4575 9.84052 10.5414 10.5564C10.6254 11.272 11.0319 11.8154 11.465 11.8068C11.6107 12.6461 11.8801 13.4811 12.3706 14.1219V15.16L11.6901 15.9599L11.6593 15.9687L11.0716 16.1675L7.9347 17.2279C7.811 17.2808 7.6916 17.3428 7.57676 17.4091C6.75489 17.895 6.19383 18.7346 6.05698 19.6933L5.68133 22.4149L5.6062 22.9408L5.55764 23.2853C5.55334 23.3207 5.54878 23.3561 5.54878 23.3913V23.4178C5.54878 23.4487 5.54449 23.4798 5.54878 23.5107V23.5238C5.54878 23.599 5.55764 23.6698 5.56649 23.7404C5.5842 23.8552 5.61506 23.9658 5.65933 24.0717C5.88472 24.6108 6.41036 24.9996 7.04226 24.9996H22.599C23.2306 24.9996 23.7608 24.6108 23.9819 24.0717C24.0259 23.9658 24.0571 23.8552 24.0745 23.7404C24.0879 23.6698 24.0922 23.5947 24.0922 23.5238C24.0922 23.5195 24.0922 23.515 24.0922 23.5107C24.0922 23.4798 24.0922 23.4487 24.0922 23.4178C24.0922 23.409 24.0922 23.4001 24.0922 23.3913C24.0879 23.3561 24.0879 23.3207 24.0834 23.2853L24.0525 23.0511L23.9554 22.3531L23.8934 21.9201C24.9009 21.8007 25.7799 21.3456 26.4473 20.674C26.4473 20.6786 26.4473 20.6786 26.4473 20.674Z" fill="#382B73"/>
<path d="M22.6302 24.1216H7.06917C6.15876 24.1216 5.46086 23.3175 5.58455 22.4162L6.0839 18.8242C6.23389 17.7326 6.94521 16.7959 7.95705 16.3586L9.68477 15.7755L10.3518 15.5501L11.6862 15.0993L12.3975 14.8608H17.2973L18.9674 15.4264L19.131 15.4838L21.7378 16.3631C22.7496 16.8005 23.4609 17.7372 23.6109 18.8285L23.7789 20.048L23.9777 21.4883L24.106 22.4205C24.2385 23.3175 23.5404 24.1216 22.6302 24.1216Z" fill="#F9893D"/>
<path d="M6.08417 19.3144C6.23416 18.2231 6.94548 17.2864 7.95732 16.8491L12.3978 15.3513H17.2976L21.738 16.8491C22.7499 17.2864 23.4612 18.2231 23.6112 19.3144L24.1062 22.8667C24.1282 22.721 24.1325 22.5707 24.1105 22.4162L23.6112 18.8242C23.4612 17.7326 22.7499 16.7959 21.738 16.3586L17.2976 14.8608H12.3978L7.95732 16.3586C6.94548 16.7959 6.23416 17.7326 6.08417 18.8242L5.58482 22.4162C5.56282 22.5707 5.56711 22.721 5.58912 22.8667L6.08417 19.3144Z" fill="#F9893D"/>
<path d="M24.0663 22.0739C23.8849 22.6838 23.315 23.1432 22.6302 23.1432H7.06917C6.38415 23.1432 5.81423 22.6838 5.63312 22.0739L5.58455 22.4187C5.46086 23.32 6.15876 24.1241 7.06917 24.1241H22.6256C23.5361 24.1241 24.234 23.32 24.1103 22.4187L24.0663 22.0739Z" fill="#F9893D"/>
<path d="M18.0381 15.1582L17.3004 14.2834L14.8482 16.2717L12.3961 14.288L11.6582 15.1627C11.5036 15.4941 11.5079 15.8783 11.667 16.2054L13.9732 20.995L14.8482 22.8153L18.0292 16.2011C18.1883 15.8741 18.1929 15.4896 18.0381 15.1582Z" fill="#E6E7E8"/>
<path d="M15.7243 20.9954L15.3047 17.4828H14.3945L13.9746 20.9954L14.8496 22.8157L15.7243 20.9954Z" fill="#F9893D"/>
<path d="M12.3965 11.9614V14.2899L14.8487 16.2736L17.3009 14.2899V11.9614H12.3965Z" fill="#F7CB15"/>
<path d="M14.8482 16.2722L12.8908 18.7509L11.667 16.2059C11.5079 15.8745 11.5036 15.4946 11.6582 15.1586L12.3961 14.2885L14.8482 16.2722Z" fill="#D1D3D4"/>
<path d="M14.8496 16.2722L16.8067 18.7509L18.0306 16.2059C18.1897 15.8745 18.1942 15.4946 18.0394 15.1586L17.3018 14.2885L14.8496 16.2722Z" fill="#D1D3D4"/>
<path d="M15.7694 17.3901L15.0932 18.066C14.9564 18.2031 14.7399 18.2031 14.603 18.066L13.9269 17.3901C13.79 17.2533 13.79 17.0367 13.9269 16.8996L14.3511 16.4754C14.625 16.2017 15.0669 16.2017 15.3406 16.4754L15.7649 16.8996C15.9063 17.0367 15.9063 17.2533 15.7694 17.3901Z" fill="#F9893D"/>
<path d="M15.6136 16.7441L15.0968 17.2612C14.9597 17.398 14.7434 17.398 14.6063 17.2612L14.0895 16.7441L13.9347 16.8989C13.7978 17.0358 13.7978 17.2523 13.9347 17.3894L14.6108 18.0653C14.7477 18.2022 14.9642 18.2022 15.1011 18.0653L15.7772 17.3894C15.9141 17.2523 15.9141 17.0358 15.7772 16.8989L15.6136 16.7441Z" fill="#F9893D"/>
<path d="M11.6676 16.696C11.5482 16.4529 11.5174 16.1789 11.5705 15.9184C11.5528 15.8255 11.5439 15.7327 11.5482 15.6398L10.3553 16.0421L9.68821 16.2675C9.60879 16.4663 9.56881 16.8285 9.76764 17.469C10.1433 18.6797 10.2935 19.0067 10.2935 19.0067L11.354 18.8873L10.6692 19.8063C10.6692 19.8063 11.3142 20.7962 12.0918 21.6709C13.046 22.7445 14.8531 23.3144 14.8531 23.3144L13.9784 21.4941L11.6676 16.696Z" fill="#F9893D"/>
<path d="M14.8499 22.8176L14.7128 22.5302H14.5273V23.1753H15.1724V22.5302H14.9867L14.8499 22.8176Z" fill="#F9893D"/>
<path d="M14.8493 22.8186C14.8493 22.8186 13.0422 22.2484 12.0878 21.1749C11.3102 20.3002 10.6651 19.3103 10.6651 19.3103L11.3499 18.3913L10.2895 18.5107C10.2895 18.5107 10.1438 18.1836 9.76384 16.9732C9.56501 16.3325 9.60472 15.9703 9.68441 15.7714L10.3515 15.546L11.6858 15.0953L11.6593 15.1572C11.5047 15.4886 11.509 15.8731 11.6681 16.1999L13.9743 20.9895L14.8493 22.8186Z" fill="#F9893D"/>
<path d="M20.0145 16.2646L19.3472 16.0393L18.1545 15.6373C18.1588 15.7302 18.15 15.8227 18.1323 15.9156C18.1854 16.1764 18.1545 16.4503 18.0351 16.6932L15.7289 21.4827L14.8496 23.3073C14.8496 23.3073 16.6565 22.7374 17.6109 21.6638C18.3885 20.7891 19.0335 19.7992 19.0335 19.7992L18.3488 18.8802L19.4092 18.9997C19.4092 18.9997 19.5549 18.6726 19.9348 17.4619C20.1337 16.8257 20.094 16.4635 20.0145 16.2646Z" fill="#F9893D"/>
<path d="M14.8496 22.8186C14.8496 22.8186 16.6565 22.2484 17.6109 21.1749C18.3885 20.3002 19.0335 19.3103 19.0335 19.3103L18.3488 18.3913L19.4092 18.5107C19.4092 18.5107 19.5549 18.1836 19.9348 16.9732C20.1337 16.3325 20.094 15.9703 20.0145 15.7714L19.3472 15.546L18.0131 15.0953L18.0394 15.1572C18.1942 15.4886 18.1897 15.8731 18.0306 16.1999L15.7243 20.9895L14.8496 22.8186Z" fill="#F9893D"/>
<path d="M18.3609 8.87138C18.3609 10.9479 17.9855 14.3942 14.8485 14.3942C11.7116 14.3942 11.3359 10.9479 11.3359 8.87138C11.3359 6.79484 11.663 5.11139 14.8485 5.11139C18.034 5.11139 18.3609 6.79484 18.3609 8.87138Z" fill="#FFF335"/>
<path d="M14.8485 13.4142C11.9501 13.4142 11.4065 10.4672 11.3448 8.38641C11.3402 8.54525 11.3359 8.70893 11.3359 8.87234C11.3359 10.9489 11.7116 14.3952 14.8485 14.3952C17.9855 14.3952 18.3609 10.9489 18.3609 8.87234C18.3609 8.70893 18.3609 8.54525 18.3523 8.38641C18.2903 10.4672 17.7469 13.4142 14.8485 13.4142Z" fill="#FEDE3A"/>
<path d="M12.1977 9.49382C12.1107 8.75218 11.6766 8.19354 11.2282 8.24613C10.7801 8.29872 10.4871 8.94242 10.5738 9.68406C10.6607 10.4257 11.0949 10.9841 11.543 10.9318C11.9913 10.8792 12.2843 10.2355 12.1977 9.49382Z" fill="#FFF335"/>
<path d="M18.4376 8.24613C17.9892 8.19354 17.5553 8.75218 17.4684 9.49382C17.3815 10.2355 17.6745 10.8792 18.1228 10.9318C18.5712 10.9843 19.0051 10.4257 19.092 9.68406C19.1789 8.94242 18.8859 8.29872 18.4376 8.24613Z" fill="#FFF335"/>
<path d="M11.5084 9.70009C11.4644 9.31586 11.473 8.95792 11.5218 8.66625C11.5041 8.66625 11.4818 8.66625 11.4644 8.67055C11.1065 8.71053 10.8679 9.17445 10.9296 9.70466C10.9916 10.2349 11.3319 10.6279 11.6852 10.5837C11.6941 10.5837 11.6984 10.5794 11.7072 10.5794C11.619 10.3274 11.5481 10.0272 11.5084 9.70009Z" fill="#FEDE3A"/>
<path d="M18.1889 9.70009C18.2331 9.31586 18.2243 8.95792 18.1757 8.66625C18.1934 8.66625 18.2154 8.66625 18.2331 8.67055C18.5911 8.71053 18.8296 9.17445 18.7676 9.70466C18.7413 9.91663 18.6705 10.1286 18.5468 10.3011C18.4937 10.3717 18.432 10.438 18.3568 10.4911C18.3037 10.5308 18.1934 10.5971 18.1272 10.5837C18.1315 10.5397 18.1272 10.4911 18.1094 10.4511C18.1049 10.4423 18.096 10.4291 18.0917 10.4203C18.0475 10.3186 18.1094 10.1906 18.1315 10.0889C18.1537 9.95634 18.1757 9.82835 18.1889 9.70009Z" fill="#FEDE3A"/>
<path d="M16.631 6.67888C16.631 6.67888 15.8754 7.84956 14.563 7.95555C13.2509 8.0618 12.3274 8.14552 11.9609 8.79083C11.5941 9.44017 11.9697 10.6597 11.678 10.6597C11.3864 10.6597 10.7059 7.86727 11.7135 5.85245C12.7207 3.83789 14.7399 3.91302 15.6766 4.25325C16.6133 4.59321 16.9181 5.13227 16.9181 5.6936C16.9181 6.2458 16.631 6.67888 16.631 6.67888Z" fill="#F9893D"/>
<path d="M16.2462 4.529C16.3745 4.74124 16.4273 4.96663 16.4273 5.19631C16.4273 5.75308 16.1402 6.18588 16.1402 6.18588C16.1402 6.18588 15.3846 7.35684 14.0726 7.46283C12.7602 7.56881 11.8369 7.6528 11.4701 8.29784C11.2447 8.69549 11.3021 9.31424 11.3067 9.72934C11.417 10.2907 11.5718 10.6572 11.6778 10.6572C11.9695 10.6572 11.5938 9.43794 11.9606 8.78833C12.3271 8.13873 13.2507 8.0593 14.5628 7.95332C15.8751 7.84733 16.6307 6.67638 16.6307 6.67638C16.6307 6.67638 16.9178 6.2433 16.9178 5.68681C16.9178 5.26688 16.741 4.85608 16.2462 4.529Z" fill="#F9893D"/>
<path d="M16.8678 5.32707C16.8678 5.32707 18.2285 5.17681 18.6484 6.33005C19.2006 7.84983 18.3788 10.5848 18.1359 10.5848C17.8885 10.5848 18.2153 9.24617 17.8443 8.04436C17.4732 6.84684 16.5762 6.75427 16.5762 6.75427L16.8678 5.32707Z" fill="#F9893D"/>
<path d="M18.3348 7.55487C17.9634 6.35762 17.0667 6.26478 17.0667 6.26478L17.2566 5.33693C17.027 5.31466 16.8678 5.33237 16.8678 5.33237L16.5762 6.75957C16.5762 6.75957 17.4732 6.85241 17.8443 8.04966C18.2153 9.24718 17.8885 10.5901 18.1359 10.5901C18.2242 10.5901 18.3788 10.2499 18.5247 9.74625C18.5159 9.26032 18.5864 8.37674 18.3348 7.55487Z" fill="#F9893D"/>
<path d="M11.8092 6.09255C12.8165 4.07772 14.8356 4.15285 15.7723 4.49308C16.3557 4.70506 16.6959 4.99672 16.8682 5.31924C16.7488 4.89959 16.4042 4.51508 15.6752 4.24569C14.7385 3.90546 12.7194 3.83033 11.7121 5.84488C10.846 7.5769 11.2259 9.89224 11.5353 10.5019C11.2613 9.66229 11.0316 7.64774 11.8092 6.09255Z" fill="#F9893D"/>
<path d="M18.6495 6.33005C18.2295 5.17681 16.8689 5.32707 16.8689 5.32707L16.8203 5.56561C17.1383 5.55675 18.1501 5.60988 18.5035 6.57289C18.9497 7.80582 18.4946 9.83809 18.1767 10.5628C18.4595 10.3152 19.1751 7.7747 18.6495 6.33005Z" fill="#F9893D"/>
<path d="M14.8496 11.3183C14.5579 11.3183 14.3105 11.1591 14.2443 10.9429C14.2309 10.9826 14.2266 11.0223 14.2266 11.062C14.2266 11.336 14.5048 11.5568 14.8496 11.5568C15.1941 11.5568 15.4724 11.336 15.4724 11.062C15.4724 11.0223 15.4638 10.9826 15.4549 10.9429C15.3887 11.1591 15.1413 11.3183 14.8496 11.3183Z" fill="#FEDE3A"/>
<path d="M14.8482 16.2722L12.7229 18.3973L11.667 16.2059C11.5079 15.8745 11.5036 15.4946 11.6582 15.1586L12.3961 14.2885L14.8482 16.2722Z" fill="white"/>
<path d="M14.8496 16.2717L16.9747 18.3968L18.0306 16.2011C18.1897 15.8698 18.1942 15.4896 18.0394 15.1539L17.3018 14.2834L14.8496 16.2717Z" fill="white"/>
<path d="M23.9815 21.4848C23.7561 21.5202 23.5264 21.5379 23.2921 21.5379C22.1523 21.5379 21.1139 21.1094 20.3275 20.4066C20.292 20.3758 20.2569 20.3449 20.2215 20.3095C20.1949 20.2829 20.1641 20.2566 20.1375 20.2301C19.329 19.4214 18.834 18.3081 18.834 17.0797C18.834 16.5144 18.9402 15.9753 19.1302 15.476L21.737 16.3553C22.7488 16.7926 23.4601 17.7293 23.6101 18.8206L23.7781 20.0401L23.9815 21.4848Z" fill="#F9893D"/>
<path d="M27.75 16.6364C27.75 19.0985 25.7543 21.0943 23.2921 21.0943C20.83 21.0943 18.834 19.0985 18.834 16.6364C18.834 14.1743 20.83 12.1783 23.2921 12.1783C25.7543 12.1783 27.75 14.1743 27.75 16.6364Z" fill="white"/>
<path d="M25.2681 14.8094C24.7467 14.288 24.0088 14.2083 23.5892 14.6283C23.4612 14.7562 23.3772 14.9154 23.3418 15.0876C23.2798 15.3836 23.3506 15.7238 23.5449 16.0286L21.0664 18.5117L22.2151 19.6606L22.7144 19.1613L22.0694 18.5117L22.4359 18.1451L23.0855 18.7945L23.5849 18.2954L22.9353 17.6458L24.0488 16.5325C24.5302 16.8416 25.1004 16.8373 25.4492 16.4883C25.8691 16.0686 25.7894 15.3307 25.2681 14.8094ZM24.9898 15.9183C24.9809 15.9446 24.9678 15.9669 24.9455 15.9846C24.8264 16.1038 24.5127 16.0509 24.2651 15.8035C24.2165 15.7547 24.1768 15.7018 24.1414 15.6532C24.1414 15.6487 24.1371 15.6487 24.1371 15.6444C24.0045 15.4367 23.9914 15.2159 24.0839 15.123L24.0885 15.1185C24.0974 15.1096 24.1105 15.1008 24.1194 15.0965C24.1325 15.0876 24.1414 15.0833 24.1591 15.0788C24.1725 15.0745 24.1856 15.0699 24.2034 15.0699C24.2122 15.0699 24.2165 15.0656 24.2254 15.0656H24.2476H24.2828H24.3093C24.3139 15.0656 24.3228 15.0656 24.327 15.0699C24.3359 15.0699 24.3448 15.0745 24.3536 15.0745C24.3625 15.0745 24.3713 15.0788 24.3802 15.0788C24.389 15.0833 24.3976 15.0833 24.4065 15.0876C24.4242 15.0919 24.4465 15.1008 24.4639 15.1096C24.4727 15.1142 24.4862 15.1185 24.495 15.123C24.5127 15.1319 24.5347 15.1408 24.5524 15.1539C24.5613 15.1582 24.5701 15.167 24.5833 15.1716C24.623 15.1936 24.6627 15.2245 24.7027 15.2556C24.7204 15.2733 24.7378 15.2865 24.7601 15.3042C24.9767 15.5161 25.0472 15.7724 24.9898 15.9183Z" fill="#E6E7E8"/>
<path d="M25.2681 14.3681C24.7467 13.8467 24.0088 13.7673 23.5892 14.1869C23.4612 14.3149 23.3772 14.474 23.3418 14.6463C23.2798 14.9425 23.3506 15.2828 23.5449 15.5876L21.0664 18.0706L22.2151 19.2193L22.7144 18.72L22.0694 18.0706L22.4359 17.7038L23.0855 18.3534L23.5849 17.8541L22.9353 17.2045L24.0488 16.0912C24.5302 16.4006 25.1004 16.396 25.4492 16.0469C25.8691 15.6273 25.7894 14.8894 25.2681 14.3681ZM24.9898 15.477C24.9809 15.5036 24.9678 15.5256 24.9455 15.5433C24.8264 15.6627 24.5127 15.6096 24.2651 15.3622C24.2165 15.3136 24.1768 15.2605 24.1414 15.2119C24.1414 15.2076 24.1371 15.2076 24.1371 15.2031C24.0045 14.9954 23.9914 14.7746 24.0839 14.6817L24.0885 14.6774C24.0974 14.6686 24.1105 14.6597 24.1194 14.6552C24.1325 14.6463 24.1414 14.642 24.1591 14.6375C24.1725 14.6332 24.1856 14.6289 24.2034 14.6289C24.2122 14.6289 24.2165 14.6243 24.2254 14.6243H24.2476H24.2828H24.3093C24.3139 14.6243 24.3228 14.6243 24.327 14.6289C24.3359 14.6289 24.3448 14.6332 24.3536 14.6332C24.3625 14.6332 24.3713 14.6375 24.3802 14.6375C24.389 14.642 24.3976 14.642 24.4065 14.6463C24.4242 14.6509 24.4465 14.6597 24.4639 14.6686C24.4727 14.6729 24.4862 14.6774 24.495 14.6817C24.5127 14.6906 24.5347 14.6994 24.5524 14.7126C24.5613 14.7171 24.5701 14.726 24.5833 14.7303C24.623 14.7526 24.6627 14.7834 24.7027 14.8143C24.7204 14.832 24.7378 14.8451 24.7601 14.8628C24.9767 15.0751 25.0472 15.3313 24.9898 15.477Z" fill="#F96B31"/>
<path d="M23.7132 15.4806L23.5452 15.5912C23.351 15.2863 23.2801 14.9461 23.3421 14.6499C23.3775 14.8224 23.519 15.1935 23.7132 15.4806Z" fill="#F9893D"/>
<path d="M23.0806 17.9165L22.431 17.2669L21.8477 17.8545L22.0688 18.0756L22.431 17.7088L23.0806 18.3584L23.5797 17.8591L23.3588 17.6382L23.0806 17.9165Z" fill="#F9893D"/>
<path d="M22.2151 18.7822L21.2872 17.8543L21.0664 18.0754L22.2151 19.2241L22.7144 18.7204L22.4933 18.4996L22.2151 18.7822Z" fill="#F9893D"/>
<path d="M25.4496 15.6105C25.1008 15.9593 24.5306 15.9639 24.0492 15.6545L22.7148 16.9889L22.9357 17.2097L24.0492 16.0964C24.5306 16.4058 25.1008 16.4012 25.4496 16.0521C25.6838 15.8182 25.7635 15.4868 25.6972 15.1466C25.6618 15.3231 25.5778 15.4822 25.4496 15.6105Z" fill="#F9893D"/>
<path d="M24.9897 15.4817C25.0428 15.336 24.9765 15.0797 24.7689 14.8721C24.7511 14.8543 24.7334 14.8366 24.7114 14.8235C24.6715 14.7881 24.6317 14.7615 24.592 14.7395C24.5832 14.7349 24.5743 14.7261 24.5612 14.7218C24.5435 14.7084 24.5215 14.6998 24.5038 14.6909C24.4949 14.6864 24.486 14.6821 24.4726 14.6775C24.4552 14.6687 24.4329 14.6644 24.4152 14.6555C24.4064 14.651 24.3975 14.651 24.3889 14.6467C24.3801 14.6467 24.3712 14.6421 24.3623 14.6421C24.3535 14.6421 24.3446 14.6378 24.3358 14.6378C24.3269 14.6378 24.3181 14.6378 24.3092 14.6335C24.3049 14.6335 24.2961 14.6335 24.2915 14.6335C24.2784 14.6335 24.2649 14.6335 24.2564 14.6335C24.2475 14.6335 24.2387 14.6335 24.2341 14.6335C24.2252 14.6335 24.2164 14.6335 24.2121 14.6378C24.1987 14.6421 24.1812 14.6421 24.1678 14.6467C24.1547 14.651 24.1413 14.6555 24.1281 14.6644C24.115 14.6687 24.1061 14.6775 24.0972 14.6864L24.0927 14.6909C24.0001 14.7835 24.0133 15.0046 24.1458 15.2123C24.115 15.1635 24.0838 15.1149 24.053 15.062C23.9647 14.9029 23.8761 14.7129 23.9161 14.5273C23.9647 14.2933 24.1855 14.143 24.4198 14.2136C24.5478 14.2533 24.6803 14.3284 24.7689 14.4301C25.2591 14.956 25.1091 15.3668 24.9897 15.4817Z" fill="#F9893D"/>
<path d="M23.2921 20.3544C20.9548 20.3544 19.0417 18.5561 18.8517 16.2676C18.8428 16.3913 18.834 16.515 18.834 16.6387C18.834 19.0995 20.8311 21.0966 23.2921 21.0966C25.7532 21.0966 27.75 19.0995 27.75 16.6387C27.75 16.515 27.7457 16.3913 27.7326 16.2676C27.5469 18.5561 25.6295 20.3544 23.2921 20.3544Z" fill="#D1D3D4"/>
</g>
<defs>
<clipPath id="clip0_531_6070">
<rect width="30" height="30" fill="white"/>
</clipPath>
</defs>
</svg>
