<svg width="254" height="70" viewBox="0 0 254 70" fill="none" xmlns="http://www.w3.org/2000/svg">
<path d="M253 51.2998L165.5 52L137.5 5.99979L89 5.99979" stroke="url(#paint0_linear_319_1039)" stroke-width="1.5" stroke-miterlimit="10"/>
<path d="M253.5 69.1016L147 69.1016L134 46.002L121.5 23.8015L9 23.8015" stroke="url(#paint1_linear_319_1039)" stroke-width="1.5" stroke-miterlimit="10"/>
<circle cx="85" cy="6.10156" r="6" transform="rotate(-180 85 6.10156)" fill="url(#paint2_linear_319_1039)"/>
<path d="M189.938 31L217.149 31L252.938 31" stroke="#FF842C" stroke-width="1.5" stroke-miterlimit="10"/>
<circle cx="188" cy="31" r="6" transform="rotate(-180 188 31)" fill="url(#paint3_linear_319_1039)"/>
<circle cx="6" cy="24.1016" r="6" transform="rotate(-180 6 24.1016)" fill="url(#paint4_linear_319_1039)"/>
<defs>
<linearGradient id="paint0_linear_319_1039" x1="524" y1="28.6895" x2="118.651" y2="28.6895" gradientUnits="userSpaceOnUse">
<stop stop-color="#D6600F"/>
<stop offset="0.0617507" stop-color="#D6600F"/>
<stop offset="0.2299" stop-color="#D6600F"/>
<stop offset="0.4034" stop-color="#FF842C" stop-opacity="0.4117"/>
<stop offset="0.5822" stop-color="#FF842C" stop-opacity="0.5941"/>
<stop offset="1" stop-color="#FF842C"/>
</linearGradient>
<linearGradient id="paint1_linear_319_1039" x1="524" y1="46.4913" x2="3.01221" y2="46.4913" gradientUnits="userSpaceOnUse">
<stop stop-color="#D6600F"/>
<stop offset="0.0617507" stop-color="#D6600F"/>
<stop offset="0.2299" stop-color="#D6600F"/>
<stop offset="0.4034" stop-color="#FF842C" stop-opacity="0.4117"/>
<stop offset="0.5822" stop-color="#FF842C" stop-opacity="0.5941"/>
<stop offset="1" stop-color="#FF842C"/>
</linearGradient>
<linearGradient id="paint2_linear_319_1039" x1="79.5" y1="6.60156" x2="91" y2="6.60156" gradientUnits="userSpaceOnUse">
<stop offset="0.494792" stop-color="#FF842C"/>
<stop offset="1" stop-color="#D6600F"/>
</linearGradient>
<linearGradient id="paint3_linear_319_1039" x1="182.5" y1="31.5" x2="194" y2="31.5" gradientUnits="userSpaceOnUse">
<stop offset="0.494792" stop-color="#FF842C"/>
<stop offset="1" stop-color="#D6600F"/>
</linearGradient>
<linearGradient id="paint4_linear_319_1039" x1="0.5" y1="24.6016" x2="12" y2="24.6016" gradientUnits="userSpaceOnUse">
<stop offset="0.494792" stop-color="#FF842C"/>
<stop offset="1" stop-color="#D6600F"/>
</linearGradient>
</defs>
</svg>
