<svg width="675" height="70" viewBox="0 0 675 70" fill="none" xmlns="http://www.w3.org/2000/svg">
<path d="M674.5 51L239.909 51L213.94 5.69998L123.31 5.69998" stroke="url(#paint0_linear_314_966)" stroke-width="1.5" stroke-miterlimit="10"/>
<path d="M674.5 69L192.5 69L167 23.7L9 23.7" stroke="url(#paint1_linear_314_966)" stroke-width="1.5" stroke-miterlimit="10"/>
<path d="M397.499 30.8984L517.17 30.8984L674.563 30.8984" stroke="#FF842C" stroke-width="1.5" stroke-miterlimit="10"/>
<circle cx="123" cy="6" r="6" transform="rotate(-180 123 6)" fill="url(#paint2_linear_314_966)"/>
<circle cx="401" cy="30.8984" r="6" transform="rotate(-180 401 30.8984)" fill="url(#paint3_linear_314_966)"/>
<circle cx="6" cy="24" r="6" transform="rotate(-180 6 24)" fill="url(#paint4_linear_314_966)"/>
<defs>
<linearGradient id="paint0_linear_314_966" x1="524" y1="28.3897" x2="118.651" y2="28.3897" gradientUnits="userSpaceOnUse">
<stop stop-color="#D6600F"/>
<stop offset="0.0617507" stop-color="#D6600F"/>
<stop offset="0.2299" stop-color="#D6600F"/>
<stop offset="0.4034" stop-color="#FF842C" stop-opacity="0.4117"/>
<stop offset="0.5822" stop-color="#FF842C" stop-opacity="0.5941"/>
<stop offset="1" stop-color="#FF842C"/>
</linearGradient>
<linearGradient id="paint1_linear_314_966" x1="524" y1="46.3897" x2="3.01169" y2="46.3897" gradientUnits="userSpaceOnUse">
<stop stop-color="#D6600F"/>
<stop offset="0.0617507" stop-color="#D6600F"/>
<stop offset="0.2299" stop-color="#D6600F"/>
<stop offset="0.4034" stop-color="#FF842C" stop-opacity="0.4117"/>
<stop offset="0.5822" stop-color="#FF842C" stop-opacity="0.5941"/>
<stop offset="1" stop-color="#FF842C"/>
</linearGradient>
<linearGradient id="paint2_linear_314_966" x1="117.5" y1="6.5" x2="129" y2="6.5" gradientUnits="userSpaceOnUse">
<stop offset="0.494792" stop-color="#FF842C"/>
<stop offset="1" stop-color="#D6600F"/>
</linearGradient>
<linearGradient id="paint3_linear_314_966" x1="395.5" y1="31.3984" x2="407" y2="31.3984" gradientUnits="userSpaceOnUse">
<stop offset="0.494792" stop-color="#FF842C"/>
<stop offset="1" stop-color="#D6600F"/>
</linearGradient>
<linearGradient id="paint4_linear_314_966" x1="0.5" y1="24.5" x2="12" y2="24.5" gradientUnits="userSpaceOnUse">
<stop offset="0.494792" stop-color="#FF842C"/>
<stop offset="1" stop-color="#D6600F"/>
</linearGradient>
</defs>
</svg>
