<svg width="225" height="44" viewBox="0 0 225 44" fill="none" xmlns="http://www.w3.org/2000/svg">
<path d="M28.0293 43.043H39.7336V16.0264L28.0293 28.0497V43.043Z" fill="url(#paint0_linear_3_2771)"/>
<path d="M0.733398 43.043H12.4377V28.0497L0.733398 16.0264V43.043Z" fill="url(#paint1_linear_3_2771)"/>
<path d="M20.2341 28.0352H16.3467V43.0428H24.1216V28.0352H20.2341Z" fill="url(#paint2_linear_3_2771)"/>
<path d="M27.9874 24.4987L39.7336 12.4969L39.7266 0.0288086L24.128 16.0336H16.3461L0.747385 0.0288086L0.733398 12.4969L12.4796 24.4987H27.9874Z" fill="url(#paint3_linear_3_2771)"/>
<path d="M163.79 30.4746C161.566 28.552 152.798 27.7199 151.092 26.2994C148.051 22.1314 159.042 21.9162 159.098 26.0627L164.936 24.9149C163.44 19.8789 160.147 18.4369 154.581 18.4154C146.974 17.4972 140.808 25.9981 147.513 30.9266C149.715 32.4331 154.784 33.5522 158.098 34.3628C163.797 38.1291 150.309 40.7619 150.086 34.4202L143.877 35.4174C145.436 43.7175 157.882 44.937 163.041 40.5538C166.027 38.086 166.915 32.8994 163.79 30.4746Z" fill="#E8E8E8"/>
<path d="M192.679 30.1873C192.28 14.5627 168.725 14.8353 168.774 30.5101C168.103 47.591 193.588 46.9669 192.679 30.1873ZM185.023 35.3811C178.877 40.6682 170.899 32.2892 176.437 26.2775C182.625 20.9976 190.497 29.3623 185.023 35.3811Z" fill="#E8E8E8"/>
<path d="M204.748 19.7708C204.58 16.4493 207.789 16.9443 210.034 17.4609L210.866 13.0776C200.427 10.3875 198.008 14.29 198.735 24.5629H195.735V30.7253H198.735V43.0571H204.741V30.7253H207.74V24.5629H204.741C204.741 24.4123 204.741 20.0219 204.748 19.778V19.7708Z" fill="#E8E8E8"/>
<path d="M223.918 36.8737C218.66 39.1837 219.87 34.6355 219.751 30.7042H222.765V24.5562H219.751C219.751 22.2032 219.765 14.4555 219.709 12.2388L213.766 18.4011V24.5634H210.767V30.7114H213.766C213.347 40.0732 214.13 45.346 224.443 42.0747L223.918 36.8809V36.8737Z" fill="#E8E8E8"/>
<path d="M66.0513 12.2817L60.7375 32.6124L55.4167 12.2817H45.7471V43.0431H51.753V18.4369L57.738 43.0431H63.744L69.7359 18.4369V43.0431H75.7419V12.2817H66.0582H66.0513Z" fill="#E8E8E8"/>
<path d="M99.4015 39.5851C98.5136 35.4888 100.031 25.6679 98.3527 21.9733C94.8009 16.1841 81.4186 17.0162 79.5868 24.4196L84.7397 26.3781C85.5228 22.0236 93.7102 22.0881 93.1439 26.8587C91.4798 27.7913 84.4251 28.7239 82.3136 29.965C71.693 37.9853 86.3269 48.043 93.6333 40.1949C93.8291 40.8692 94.2486 42.4474 94.4373 42.8707H100.499C99.9679 41.7085 99.5973 40.6038 99.4015 39.5779V39.5851ZM93.1439 32.4112C94.5352 38.4086 85.6486 42.0672 84.7397 35.5821C84.6139 31.988 90.9484 32.1458 93.1439 31.0913V32.4112Z" fill="#E8E8E8"/>
<path d="M113.602 18.4873C111.19 18.6882 110.33 19.2477 108.743 21.694V18.4873H108.736L102.751 24.6281V43.0505H108.757C109.386 37.749 105.981 19.8575 115.742 25.159C116.189 23.8533 117.175 21.0053 117.637 19.6782C116.343 18.8819 115.001 18.4945 113.602 18.4945V18.4873Z" fill="#E8E8E8"/>
<path d="M131.256 29.2477L141.757 18.4726H133.158L126.753 25.0725V0L120.747 6.15515V43.043H126.753V33.8533L127.019 33.595L136.22 43.043H144.75L131.256 29.2477Z" fill="#E8E8E8"/>
<defs>
<linearGradient id="paint0_linear_3_2771" x1="33.8814" y1="42.9139" x2="33.8814" y2="20.9404" gradientUnits="userSpaceOnUse">
<stop stop-color="#F96B31"/>
<stop offset="1" stop-color="#F9893D"/>
</linearGradient>
<linearGradient id="paint1_linear_3_2771" x1="6.58553" y1="42.9139" x2="6.58553" y2="20.9404" gradientUnits="userSpaceOnUse">
<stop stop-color="#F96B31"/>
<stop offset="1" stop-color="#F9893D"/>
</linearGradient>
<linearGradient id="paint2_linear_3_2771" x1="20.2341" y1="42.9137" x2="20.2341" y2="20.9402" gradientUnits="userSpaceOnUse">
<stop stop-color="#F96B31"/>
<stop offset="1" stop-color="#F9893D"/>
</linearGradient>
<linearGradient id="paint3_linear_3_2771" x1="20.2335" y1="42.9139" x2="20.2335" y2="20.9405" gradientUnits="userSpaceOnUse">
<stop stop-color="#F96B31"/>
<stop offset="1" stop-color="#F9893D"/>
</linearGradient>
</defs>
</svg>
