<svg width="30" height="30" viewBox="0 0 30 30" fill="none" xmlns="http://www.w3.org/2000/svg">
<g clip-path="url(#clip0_531_6074)">
<path d="M30 15C30 23.2842 23.2842 30 15 30C6.71579 30 0 23.2842 0 15C0 6.71579 6.71579 0 15 0C23.2842 0 30 6.71579 30 15Z" fill="#473080"/>
<g clip-path="url(#clip1_531_6074)">
<path d="M25.8809 21.082L22.3477 14.6396C22.73 13.6948 22.9278 12.6885 22.9234 11.6689C22.9234 7.30518 19.3682 3.75 15.0001 3.75C10.6319 3.75 7.07672 7.30518 7.07672 11.6733C7.07672 12.6929 7.27008 13.6992 7.6568 14.644L4.1192 21.082C3.73688 21.7764 3.99176 22.6465 4.6861 23.0244C5.01129 23.2002 5.38922 23.2485 5.74518 23.1519L8.28961 22.4663L9.13336 25.2305C9.30475 25.7842 9.78815 26.1797 10.3638 26.2368C10.4122 26.2412 10.4561 26.2456 10.5045 26.2456C11.0318 26.2456 11.5152 25.9556 11.7657 25.4897L14.9254 19.5923H15.0045H15.0836L18.2388 25.4897C18.4893 25.9556 18.9727 26.2456 19.5001 26.2456C19.5484 26.2456 19.5924 26.2412 19.6407 26.2368C20.2164 26.1797 20.7042 25.7842 20.8712 25.2305L21.7149 22.4663L24.2593 23.1475C25.024 23.354 25.8062 22.897 26.0128 22.1367C26.105 21.7852 26.0567 21.4072 25.8809 21.082ZM10.8692 21.1084L10.6275 20.313C10.4034 19.5747 9.63434 19.1484 8.88727 19.3462L8.24567 19.5176L9.44977 17.3203C10.1793 18.041 11.045 18.6123 11.9942 19.0034L10.8692 21.1084ZM16.7095 14.8374L15.0001 13.9365L13.2906 14.833C13.0577 14.9561 12.7632 14.8682 12.6402 14.6309C12.5919 14.5386 12.5743 14.4287 12.5919 14.3276L12.9171 12.4248L11.5372 11.0801C11.3482 10.8955 11.3438 10.5923 11.5284 10.3989C11.6031 10.3242 11.6998 10.2759 11.8052 10.2583L13.7169 9.98145L14.5694 8.25C14.6881 8.0127 14.9737 7.91602 15.211 8.03027C15.3077 8.07861 15.3824 8.15332 15.4307 8.25L16.2833 9.98145L18.1949 10.2583C18.4586 10.2979 18.6387 10.5396 18.6036 10.8032C18.5904 10.9087 18.5377 11.0054 18.463 11.0801L17.0831 12.4248L17.4083 14.3276C17.4522 14.5913 17.2764 14.8374 17.0172 14.8813C16.9073 14.8989 16.8018 14.8857 16.7095 14.8374ZM21.1173 19.3506C20.3702 19.1528 19.6011 19.5791 19.377 20.3174L19.1309 21.1084L18.0059 19.0034C18.9551 18.6123 19.8165 18.041 20.5504 17.3247L21.7545 19.522L21.1173 19.3506Z" fill="url(#paint0_linear_531_6074)"/>
</g>
</g>
<defs>
<linearGradient id="paint0_linear_531_6074" x1="14.9995" y1="3.94336" x2="14.9995" y2="25.8905" gradientUnits="userSpaceOnUse">
<stop stop-color="#F68C1E"/>
<stop offset="1" stop-color="#FF4B05"/>
</linearGradient>
<clipPath id="clip0_531_6074">
<rect width="30" height="30" fill="white"/>
</clipPath>
<clipPath id="clip1_531_6074">
<rect width="22.5" height="22.5" fill="white" transform="translate(3.75 3.75)"/>
</clipPath>
</defs>
</svg>
