<svg width="232" height="346" viewBox="0 0 232 346" fill="none" xmlns="http://www.w3.org/2000/svg">
<path d="M115.576 346C58.763 346 0 341.382 0 333.636C0 325.889 58.763 321.272 115.576 321.272C172.389 321.272 231.143 325.898 231.143 333.636C231.143 341.373 172.38 346 115.576 346Z" fill="#58FFFE"/>
<path style="mix-blend-mode:screen" opacity="0.2" d="M203.402 8.64258H22.6191V293.984H203.402V8.64258Z" fill="url(#paint0_linear_531_6019)"/>
<path style="mix-blend-mode:screen" opacity="0.35" d="M193.838 2.09979H32.7402V183.246H193.838V2.09979Z" fill="url(#paint1_linear_531_6019)"/>
<path d="M22.6179 293.982L8.98633 323.993H224.025L203.392 293.982H22.6179Z" fill="#1455D7"/>
<path d="M112.934 304.023C162.966 304.023 203.525 299.849 203.525 294.699C203.525 289.55 162.966 285.375 112.934 285.375C62.9026 285.375 22.3438 289.55 22.3438 294.699C22.3438 299.849 62.9026 304.023 112.934 304.023Z" fill="#6FCEF6"/>
<path d="M116.507 340.859C175.551 340.859 223.415 336.685 223.415 331.535C223.415 326.385 175.551 322.211 116.507 322.211C57.4639 322.211 9.59961 326.385 9.59961 331.535C9.59961 336.685 57.4639 340.859 116.507 340.859Z" fill="#002DA4"/>
<path d="M116.605 333.363C175.987 333.363 224.125 329.188 224.125 324.039C224.125 318.889 175.987 314.715 116.605 314.715C57.224 314.715 9.08594 318.889 9.08594 324.039C9.08594 329.188 57.224 333.363 116.605 333.363Z" fill="#1455D7"/>
<path d="M47.9401 315.698H47.8338C36.7737 314.929 25.7805 313.392 14.9336 311.098L15.1109 310.3C25.8816 312.58 36.7978 314.108 47.7806 314.874L61.1551 308.607H61.2615C81.31 310.495 117.986 311.204 118.323 311.213V312.029C117.959 312.029 81.4164 311.32 61.3147 309.432L47.9401 315.698Z" fill="#58FFFE"/>
<path d="M105.711 332.892H104.886V326.998L58.0089 324.49L46.2563 330.987L45.8574 330.269L57.8139 323.666H57.938L105.711 326.227V332.892Z" fill="#58FFFE"/>
<path d="M118.433 304.146L117.609 304.164L118.245 333.06L119.069 333.042L118.433 304.146Z" fill="#58FFFE"/>
<path d="M118.031 321.202V320.378C118.279 320.378 144.399 320.378 169.039 318.773L173.24 312.055H173.435C173.692 312.055 198.961 309.059 212.07 306.303L212.238 307.11C199.706 309.768 176.121 312.56 173.728 312.853L169.518 319.589H169.305C144.904 321.175 119.095 321.202 118.031 321.202Z" fill="#58FFFE"/>
<path d="M198.97 330.296L198.297 329.826L203.074 322.851H203.234C203.34 322.851 213.71 320.564 221.182 319.58L221.288 320.395C214.357 321.282 204.9 323.329 203.562 323.613L198.97 330.296Z" fill="#58FFFE"/>
<path d="M186.83 300.044L186.055 300.297L189.32 310.288L190.095 310.035L186.83 300.044Z" fill="#58FFFE"/>
<path style="mix-blend-mode:screen" opacity="0.28" d="M149.85 0V297.724H188.015L186.011 0H149.85Z" fill="url(#paint2_linear_531_6019)"/>
<path style="mix-blend-mode:screen" opacity="0.28" d="M28.4414 290V116.436L64.8425 113.963V295.605C64.8425 295.605 38.4657 293.882 28.4414 290Z" fill="url(#paint3_linear_531_6019)"/>
<g clip-path="url(#clip0_531_6019)">
<path d="M148.044 165.5C148.56 164.606 148.88 163.599 148.88 162.695V131.305C148.88 130.401 148.56 129.394 148.044 128.5L126.737 130.42L112.08 147L123.728 163.612L148.044 165.5Z" fill="#00599C"/>
<path d="M118.847 183.322L146.032 167.627C146.815 167.175 147.527 166.394 148.043 165.5L116 147L94.912 147.745L83.957 165.5C84.4729 166.394 85.185 167.175 85.9679 167.627L113.152 183.322C114.718 184.226 117.281 184.226 118.847 183.322Z" fill="#004482"/>
<path d="M148.044 128.5C147.527 127.606 146.815 126.825 146.033 126.373L118.848 110.678C117.282 109.774 114.719 109.774 113.153 110.678L85.9684 126.373C84.4022 127.277 83.1211 129.497 83.1211 131.305V162.695C83.1211 163.599 83.4416 164.606 83.9577 165.5L116.001 147L148.044 128.5Z" fill="#659AD2"/>
<path d="M116.002 168.919C103.915 168.919 94.082 159.086 94.082 147C94.082 134.913 103.915 125.08 116.002 125.08C123.801 125.08 131.074 129.277 134.984 136.033L125.498 141.522C123.541 138.141 119.902 136.04 116.002 136.04C109.958 136.04 105.042 140.956 105.042 147C105.042 153.043 109.958 157.959 116.002 157.959C119.903 157.959 123.542 155.859 125.498 152.476L134.985 157.966C131.075 164.722 123.801 168.919 116.002 168.919Z" fill="white"/>
<path d="M136.702 145.994H134.742L134.462 148.29H136.38L136.24 149.662H134.294L134 152H132.656L132.95 149.662H130.612L130.318 152H128.974L129.268 149.662H127.336L127.476 148.29H129.436L129.716 145.994H127.798L127.924 144.636H129.884L130.192 142.2H131.522L131.228 144.636H133.566L133.874 142.2H135.204L134.91 144.636H136.842L136.702 145.994ZM133.118 148.29L133.398 145.994H131.06L130.78 148.29H133.118Z" fill="white"/>
</g>
<defs>
<linearGradient id="paint0_linear_531_6019" x1="113.271" y1="292.504" x2="113.271" y2="8.57663" gradientUnits="userSpaceOnUse">
<stop stop-color="#0275FF"/>
<stop offset="1"/>
</linearGradient>
<linearGradient id="paint1_linear_531_6019" x1="113.553" y1="182.307" x2="113.553" y2="2.05973" gradientUnits="userSpaceOnUse">
<stop/>
<stop offset="1" stop-color="#0238FF"/>
</linearGradient>
<linearGradient id="paint2_linear_531_6019" x1="168.932" y1="298.415" x2="168.932" y2="0" gradientUnits="userSpaceOnUse">
<stop/>
<stop offset="1" stop-color="#0275FF"/>
</linearGradient>
<linearGradient id="paint3_linear_531_6019" x1="46.6553" y1="298.202" x2="46.6553" y2="113.963" gradientUnits="userSpaceOnUse">
<stop stop-color="#0275FF"/>
<stop offset="1"/>
</linearGradient>
<clipPath id="clip0_531_6019">
<rect width="74" height="74" fill="white" transform="translate(79 110)"/>
</clipPath>
</defs>
</svg>
