<svg width="30" height="30" viewBox="0 0 30 30" fill="none" xmlns="http://www.w3.org/2000/svg">
<g clip-path="url(#clip0_531_6062)">
<path d="M30 15C30 23.2842 23.2842 30 15 30C6.71579 30 0 23.2842 0 15C0 6.71579 6.71579 0 15 0C23.2842 0 30 6.71579 30 15Z" fill="#473080"/>
<path d="M25.4199 14.553C25.4199 14.5329 25.4199 14.509 25.4158 14.4892C25.4158 14.4732 25.412 14.4573 25.4079 14.4455C25.4079 14.4416 25.4079 14.4375 25.4041 14.4295C25.4002 14.4097 25.3961 14.3897 25.3923 14.374C25.313 14.0993 25.064 13.9005 24.7712 13.9005H22.2243V13.8966L22.2084 13.7891L22.165 13.463L22.0739 12.7908L21.9949 12.2219C21.9356 11.7806 21.6786 11.3946 21.3068 11.168C21.2475 11.1322 21.1881 11.1003 21.1247 11.0726L20.3259 10.802L20.0175 10.6986L19.4005 10.4878V10.4916L19.3846 10.4878L19.0683 10.1138V9.62853C19.1159 9.565 19.1593 9.49736 19.1987 9.42972C19.2066 9.41378 19.2146 9.39784 19.2225 9.38189C19.3532 9.1314 19.436 8.84104 19.4874 8.54658C19.6812 8.53861 19.8633 8.28811 19.8988 7.96587C19.9265 7.71924 19.8671 7.50063 19.7564 7.3813C19.7564 7.37333 19.7605 7.36536 19.7605 7.35352C19.7605 7.34144 19.7643 7.32961 19.7643 7.31753C19.7643 7.30159 19.7682 7.28975 19.7682 7.27381C19.7682 7.26197 19.7723 7.24989 19.7723 7.23806C19.7723 7.22211 19.7761 7.21028 19.7761 7.19433C19.7761 7.18226 19.7761 7.17042 19.7802 7.15858C19.7802 7.14264 19.7802 7.13056 19.784 7.11486C19.784 7.10278 19.784 7.09095 19.784 7.07887C19.784 7.06293 19.784 7.05109 19.784 7.03515C19.784 7.02331 19.784 7.01123 19.784 6.9994C19.784 6.98345 19.784 6.97162 19.784 6.95567C19.784 6.9436 19.784 6.93176 19.784 6.91992C19.784 6.90398 19.784 6.8919 19.784 6.8762C19.784 6.86412 19.784 6.85229 19.784 6.84021C19.784 6.82427 19.7802 6.81243 19.7802 6.79649C19.7802 6.78465 19.7802 6.77257 19.7761 6.76074C19.7761 6.74479 19.7723 6.73296 19.7723 6.71701C19.7723 6.70518 19.7682 6.6931 19.7682 6.68513C19.7643 6.66918 19.7643 6.65735 19.7605 6.64141C19.7605 6.62957 19.7564 6.6216 19.7564 6.60952C19.7526 6.59358 19.7526 6.58174 19.7485 6.5658C19.7446 6.55783 19.7446 6.54599 19.7406 6.53802C19.7367 6.52207 19.7326 6.50613 19.7288 6.49019C19.7247 6.48222 19.7247 6.47425 19.7209 6.46652C19.7129 6.4426 19.705 6.42255 19.7012 6.39888C19.6181 6.16408 19.448 6.04475 19.2859 5.98509C19.2739 5.98122 19.2621 5.97712 19.2501 5.97325C19.1672 5.94523 19.0841 5.93339 19.0207 5.92953C19.0169 5.92953 19.0169 5.92953 19.0128 5.92953C19.0049 5.92953 18.9972 5.92953 18.9893 5.92953C18.9852 5.92953 18.9852 5.92953 18.9813 5.92953C18.9734 5.92953 18.9655 5.92953 18.9535 5.92953H18.9496C18.9417 5.92953 18.9379 5.92953 18.9299 5.92953C18.9259 5.92953 18.9259 5.92953 18.9259 5.92953C18.9179 5.92953 18.9141 5.92953 18.91 5.92953C18.91 5.92953 18.91 5.92953 18.9062 5.92953C18.9021 5.92953 18.8942 5.92953 18.8903 5.92953C18.8903 5.92953 18.8903 5.92953 18.8865 5.92953C18.8824 5.92953 18.8824 5.92953 18.8786 5.92953H18.8745V5.92156C18.8745 5.91745 18.8706 5.91359 18.8706 5.90948C18.8706 5.90562 18.8665 5.90151 18.8665 5.89764C18.8665 5.89354 18.8627 5.88967 18.8627 5.88557C18.8586 5.8817 18.8586 5.87373 18.8548 5.86986C18.8548 5.86576 18.8507 5.86189 18.8507 5.85779C18.8507 5.85392 18.8468 5.85392 18.8468 5.84982C18.8428 5.84595 18.8428 5.83798 18.8389 5.83387C18.8348 5.83001 18.8348 5.82204 18.831 5.81817C18.831 5.81817 18.831 5.81406 18.8272 5.81406C18.8231 5.8102 18.8231 5.80609 18.8192 5.80223C18.8151 5.79426 18.8113 5.79015 18.8072 5.78218C18.8072 5.77831 18.8034 5.77831 18.8034 5.77421C18.7993 5.77034 18.7993 5.76624 18.7954 5.76237C18.7914 5.75851 18.7875 5.75053 18.7834 5.74643C18.7796 5.74256 18.7796 5.73846 18.7755 5.73459C18.7717 5.73049 18.7678 5.72662 18.7637 5.72251C18.7599 5.71865 18.7599 5.71454 18.7558 5.71454C18.752 5.71068 18.752 5.70657 18.7479 5.70657C18.744 5.69884 18.7361 5.69473 18.732 5.68676L18.7282 5.6829C18.7241 5.67879 18.7241 5.67879 18.7203 5.67493C18.7123 5.66696 18.7044 5.65898 18.6965 5.65101C18.6965 5.65101 18.6965 5.65101 18.6926 5.64691C18.6886 5.64304 18.6847 5.63918 18.6806 5.63507C18.6727 5.6312 18.6689 5.62323 18.6609 5.61913C18.6569 5.61526 18.6569 5.61526 18.653 5.61115C18.6492 5.60729 18.6412 5.60318 18.6372 5.59932C18.6254 5.59135 18.6134 5.58338 18.6016 5.57154C18.5975 5.56743 18.5937 5.56743 18.5899 5.56357C18.574 5.55149 18.5541 5.53965 18.5382 5.53168C18.5344 5.52758 18.5305 5.52758 18.5226 5.52371C18.5067 5.51574 18.4947 5.50777 18.4789 5.4998C18.4712 5.49593 18.4671 5.49182 18.4592 5.48796C18.4433 5.47999 18.4275 5.47202 18.4119 5.46791C18.4039 5.46405 18.3999 5.46018 18.3919 5.46018C18.3682 5.45221 18.3446 5.44013 18.3208 5.43216C18.1587 5.37249 17.9253 5.32877 17.6762 5.34858C17.6721 5.34858 17.6683 5.34858 17.6642 5.34858C17.2451 5.38457 16.7705 5.59135 16.4818 6.17592C16.47 6.20394 16.4541 6.23172 16.4421 6.2595C16.4383 6.26747 16.4342 6.27955 16.4304 6.28752C16.4224 6.30733 16.4145 6.32714 16.4066 6.34308C16.4027 6.35492 16.3987 6.36699 16.3948 6.37497C16.3869 6.39477 16.3828 6.41072 16.3749 6.43052C16.371 6.4426 16.367 6.45444 16.3631 6.46652C16.3593 6.48632 16.3513 6.50227 16.3473 6.52207C16.3434 6.53391 16.3393 6.54599 16.3393 6.55783C16.3355 6.57787 16.3276 6.59768 16.3235 6.61749C16.3196 6.62957 16.3196 6.63754 16.3156 6.64938C16.3076 6.67329 16.3038 6.70107 16.3 6.72885C16.3 6.73296 16.3 6.73682 16.2959 6.74093C16.2879 6.77257 16.2841 6.80059 16.28 6.83224C16.28 6.84021 16.2762 6.84818 16.2762 6.86026C16.2721 6.88007 16.2682 6.90398 16.2682 6.92379C16.2682 6.93587 16.2642 6.9477 16.2642 6.95567C16.2603 6.97548 16.2603 6.99553 16.2562 7.01123C16.2562 7.02331 16.2524 7.03515 16.2524 7.04722C16.2524 7.06703 16.2483 7.08298 16.2483 7.10278C16.2483 7.11486 16.2483 7.1267 16.2445 7.13467C16.2445 7.15448 16.2406 7.17453 16.2406 7.19433V7.22622C16.2406 7.24989 16.2406 7.27381 16.2365 7.29386V7.30956C16.0389 7.35352 15.9161 7.64388 15.9517 7.97385C15.9913 8.30792 16.1813 8.55866 16.379 8.55455C16.3987 8.66205 16.4224 8.76954 16.4501 8.87679C16.4541 8.88477 16.4541 8.89274 16.458 8.90071C16.4856 9.0041 16.5173 9.10362 16.5569 9.19903C16.5687 9.23092 16.5846 9.26667 16.6004 9.29856C16.628 9.35822 16.6557 9.41378 16.6874 9.46958C16.6953 9.48142 16.6994 9.49325 16.7073 9.50122C16.7229 9.52925 16.7428 9.55702 16.7625 9.5848C16.7743 9.60461 16.7902 9.62055 16.8022 9.6406V10.1259L16.4856 10.4996L16.47 10.5037L16.189 10.5991L14.7376 11.0924C14.6744 11.1202 14.6151 11.152 14.5557 11.1878C14.1839 11.4146 13.9269 11.8043 13.8676 12.2458L13.6935 13.5068L13.6579 13.7614L13.6342 13.9244V13.9283H11.9572C12.2817 13.9283 12.5466 13.6618 12.5466 13.3357C12.5466 13.3118 12.5466 13.292 12.5428 13.2681C12.5428 13.264 12.5428 13.2601 12.5387 13.2563C12.5348 13.2403 12.5348 13.2203 12.5308 13.2043C12.5308 13.2005 12.5308 13.1966 12.5269 13.1925C12.5228 13.1727 12.5149 13.1567 12.5111 13.1369V13.1328C12.428 12.9062 12.2104 12.7429 11.9572 12.7429C12.2817 12.7429 12.5466 12.4765 12.5466 12.1504C12.5466 12.1265 12.5466 12.1067 12.5428 12.0828C12.5428 12.0789 12.5428 12.0748 12.5387 12.0709C12.5348 12.055 12.5348 12.0349 12.5308 12.0192C12.5308 12.0151 12.5308 12.0113 12.5269 12.0072C12.5228 11.9874 12.5149 11.9714 12.5111 11.9516V11.9475C12.428 11.7209 12.2104 11.5576 11.9572 11.5576C12.2817 11.5576 12.5466 11.2912 12.5466 10.9651C12.5466 10.9412 12.5466 10.9214 12.5428 10.8974C12.5428 10.8936 12.5428 10.8895 12.5387 10.8856C12.5348 10.8697 12.5348 10.8496 12.5308 10.8339C12.5308 10.8298 12.5308 10.8259 12.5269 10.8218C12.5228 10.802 12.5149 10.7861 12.5111 10.7663V10.7622C12.428 10.5356 12.2104 10.3723 11.9572 10.3723C12.2817 10.3723 12.5466 10.1058 12.5466 9.77974C12.5466 9.75583 12.5466 9.73602 12.5428 9.71211C12.5428 9.70824 12.5428 9.70413 12.5387 9.70027C12.5348 9.68433 12.5348 9.66428 12.5308 9.64858C12.5308 9.64447 12.5308 9.6406 12.5269 9.6365C12.5228 9.61669 12.5149 9.60075 12.5111 9.58094V9.57683C12.428 9.35025 12.2104 9.18696 11.9572 9.18696H7.43673V13.9602H6.06841C5.77179 13.9602 5.52272 14.159 5.44754 14.4336C5.44346 14.4534 5.43962 14.4694 5.43577 14.4892C5.43577 14.4933 5.43577 14.4972 5.43169 14.5013C5.42785 14.517 5.42785 14.5329 5.42376 14.545C5.41992 14.5648 5.41992 14.5846 5.41992 14.6085C5.41992 14.6283 5.41992 14.6484 5.42376 14.6682C5.43962 14.8472 5.52656 15.0023 5.65722 15.1097C5.76795 15.2013 5.91422 15.2569 6.06841 15.2569H7.00176V23.753C7.00176 24.1866 7.34979 24.5366 7.78092 24.5366H23.0628C23.4939 24.5366 23.8419 24.1866 23.8419 23.753V15.2013H24.7753C24.9336 15.2013 25.0757 15.1455 25.1865 15.0539C25.3171 14.9467 25.4041 14.7875 25.4199 14.6126C25.4199 14.5926 25.4199 14.5728 25.4199 14.553Z" fill="#382B73"/>
<path d="M21.5359 13.8997H14.3182C13.895 13.8997 13.5707 13.5257 13.6301 13.104L13.8633 11.4295C13.9346 10.9203 14.2627 10.4828 14.7335 10.2799L15.5364 10.0096L15.8448 9.90598L16.4618 9.69534L16.7899 9.58398H19.064L19.8393 9.84632L19.9144 9.87023L21.1245 10.2799C21.5952 10.4828 21.9236 10.9203 21.9947 11.4295L22.0737 11.9984L22.1647 12.6706L22.224 13.104C22.2834 13.5216 21.9591 13.8997 21.5359 13.8997Z" fill="#F9893D"/>
<path d="M13.8635 11.6565C13.9348 11.1473 14.2629 10.7098 14.7337 10.5069L16.7942 9.80686H19.0683L21.1288 10.5069C21.5993 10.7098 21.9276 11.1473 21.999 11.6565L22.2283 13.315C22.2401 13.2474 22.2401 13.1759 22.2322 13.1041L21.999 11.4258C21.9276 10.9166 21.5993 10.4791 21.1288 10.2762L19.0683 9.57617H16.7942L14.7337 10.2762C14.2629 10.4791 13.9348 10.9166 13.8635 11.4258L13.6303 13.1041C13.6183 13.1759 13.6224 13.2474 13.6341 13.315L13.8635 11.6565Z" fill="#F9893D"/>
<path d="M22.2043 12.9395C22.1212 13.2259 21.8563 13.4368 21.5398 13.4368H14.3182C13.9978 13.4368 13.7367 13.2218 13.6538 12.9395L13.6301 13.1025C13.5707 13.5243 13.895 13.8982 14.3182 13.8982H21.5359C21.9591 13.8982 22.2834 13.5243 22.224 13.1025L22.2043 12.9395Z" fill="#F9893D"/>
<path d="M19.4082 9.71441L19.064 9.30859L17.9291 10.2355L16.794 9.30859L16.4498 9.71441C16.3788 9.86949 16.3826 10.0485 16.4539 10.1997L17.5218 12.4351L17.9291 13.2863L19.4043 10.1997C19.4754 10.0485 19.4793 9.86949 19.4082 9.71441Z" fill="#E6E7E8"/>
<path d="M18.3321 12.4395L18.1383 10.8008H17.7151L17.5215 12.4395L17.9288 13.2869L18.3321 12.4395Z" fill="#F9893D"/>
<path d="M16.791 8.22266V9.30846L17.9302 10.2353L19.0651 9.30846V8.22266H16.791Z" fill="#F7CB15"/>
<path d="M17.9305 10.2355L17.0248 11.393L16.4553 10.2036C16.3802 10.0485 16.3802 9.86949 16.4513 9.71441L16.7954 9.30859L17.9305 10.2355Z" fill="#D1D3D4"/>
<path d="M17.9297 10.2355L18.8352 11.393L19.4049 10.2036C19.4798 10.0485 19.4798 9.86949 19.4087 9.71441L19.0645 9.30859L17.9297 10.2355Z" fill="#D1D3D4"/>
<path d="M18.3568 10.7554L18.0443 11.0697C17.9811 11.1335 17.8783 11.1335 17.8149 11.0697L17.5025 10.7554C17.4393 10.6919 17.4393 10.5885 17.5025 10.5247L17.7004 10.3259C17.8269 10.1986 18.0325 10.1986 18.1591 10.3259L18.3568 10.5247C18.4161 10.5885 18.4161 10.6919 18.3568 10.7554Z" fill="#F9893D"/>
<path d="M18.2817 10.4512L18.0406 10.6937C17.9772 10.7575 17.8744 10.7575 17.8112 10.6937L17.5698 10.4512L17.4987 10.5227C17.4353 10.5864 17.4353 10.6898 17.4987 10.7534L17.8112 11.0676C17.8744 11.1314 17.9772 11.1314 18.0406 11.0676L18.3531 10.7534C18.4162 10.6898 18.4162 10.5864 18.3531 10.5227L18.2817 10.4512Z" fill="#F9893D"/>
<path d="M16.4489 10.4308C16.3937 10.3153 16.3778 10.1882 16.4054 10.0689C16.3975 10.0249 16.3937 9.98122 16.3937 9.9375L15.8398 10.1245L15.5314 10.2279C15.4918 10.3194 15.4762 10.4904 15.567 10.7888C15.7411 11.3535 15.8122 11.5047 15.8122 11.5047L16.3065 11.4489L15.9902 11.8787C15.9902 11.8787 16.2868 12.34 16.6507 12.7456C17.0936 13.2469 17.932 13.5133 17.932 13.5133L17.5247 12.6623L16.4489 10.4308Z" fill="#F9893D"/>
<path d="M17.9297 13.2838L17.8624 13.1523H17.7793V13.4507H18.0798V13.1523H17.9928L17.9297 13.2838Z" fill="#F9893D"/>
<path d="M17.9282 13.2872C17.9282 13.2872 17.0897 13.0208 16.6469 12.5195C16.2868 12.1137 15.9863 11.6523 15.9863 11.6523L16.3027 11.2229L15.8084 11.2784C15.8084 11.2784 15.7411 11.1274 15.5631 10.5624C15.4721 10.2641 15.488 10.0972 15.5276 10.0018L15.836 9.89838L16.453 9.6875L16.441 9.71528C16.3699 9.87036 16.3738 10.0494 16.4451 10.2006L17.5129 12.436L17.9282 13.2872Z" fill="#F9893D"/>
<path d="M20.3224 10.2298L20.0138 10.1264L19.4601 9.93945C19.4601 9.98318 19.4563 10.0269 19.4484 10.0706C19.4721 10.1938 19.4601 10.3211 19.4049 10.4325L18.337 12.6681L17.9297 13.5191C17.9297 13.5191 18.7682 13.2527 19.2111 12.7514C19.5709 12.3459 19.8716 11.8845 19.8716 11.8845L19.555 11.4548L20.0495 11.5106C20.0495 11.5106 20.1168 11.3593 20.2948 10.7946C20.3776 10.4883 20.3618 10.3211 20.3224 10.2298Z" fill="#F9893D"/>
<path d="M17.9297 13.2872C17.9297 13.2872 18.7682 13.0208 19.2111 12.5195C19.5709 12.1137 19.8716 11.6523 19.8716 11.6523L19.555 11.2229L20.0495 11.2784C20.0495 11.2784 20.1168 11.1274 20.2948 10.5624C20.3856 10.2641 20.3697 10.0972 20.3303 10.0018L20.0217 9.89838L19.4049 9.6875L19.4167 9.71528C19.4878 9.87036 19.4839 10.0494 19.4128 10.2006L18.345 12.436L17.9297 13.2872Z" fill="#F9893D"/>
<path d="M19.5576 6.7813C19.5576 7.74802 19.3835 9.35898 17.9282 9.35898C16.4727 9.35898 16.2988 7.75189 16.2988 6.7813C16.2988 5.81483 16.4489 5.02734 17.9282 5.02734C19.4034 5.02734 19.5576 5.81096 19.5576 6.7813Z" fill="#FFF335"/>
<path d="M17.9282 8.89753C16.5834 8.89753 16.3303 7.52547 16.3027 6.55078C16.2988 6.62639 16.2988 6.702 16.2988 6.77761C16.2988 7.74408 16.4727 9.35504 17.9282 9.35504C19.3835 9.35504 19.5576 7.74819 19.5576 6.77761C19.5576 6.702 19.5576 6.62639 19.5535 6.55078C19.5221 7.52547 19.2728 8.89753 17.9282 8.89753Z" fill="#FEDE3A"/>
<path d="M16.697 7.06961C16.6566 6.72491 16.4553 6.46547 16.2471 6.48987C16.0389 6.51451 15.9024 6.8138 15.9425 7.15851C15.9829 7.50321 16.1842 7.76289 16.3924 7.73825C16.6006 7.71385 16.7371 7.41432 16.697 7.06961Z" fill="#FFF335"/>
<path d="M19.5936 6.49182C19.3853 6.46743 19.1838 6.72686 19.1437 7.07157C19.1036 7.41627 19.2398 7.7158 19.448 7.7402C19.6563 7.76484 19.8578 7.50516 19.8979 7.16046C19.938 6.81575 19.8018 6.51646 19.5936 6.49182Z" fill="#FFF335"/>
<path d="M16.3778 7.16697C16.3581 6.98798 16.3619 6.82082 16.3857 6.68555C16.3778 6.68555 16.3658 6.68555 16.3581 6.68555C16.1919 6.7056 16.0811 6.92034 16.1128 7.16697C16.1405 7.41361 16.2987 7.59647 16.4647 7.57666C16.4688 7.57666 16.4726 7.57666 16.4767 7.57255C16.4292 7.45733 16.3936 7.31795 16.3778 7.16697Z" fill="#FEDE3A"/>
<path d="M19.4763 7.16697C19.496 6.98798 19.4922 6.82082 19.4684 6.68555H19.496C19.6622 6.7056 19.7729 6.92034 19.7412 7.16697C19.7295 7.26626 19.6978 7.36578 19.6384 7.44525C19.6147 7.481 19.5832 7.50902 19.5515 7.53294C19.5277 7.54864 19.4763 7.58052 19.4446 7.57666C19.4487 7.55661 19.4446 7.53294 19.4367 7.51289C19.4328 7.50902 19.4328 7.50105 19.4288 7.49694C19.4091 7.44936 19.4367 7.38969 19.4487 7.34186C19.4605 7.2863 19.4725 7.22664 19.4763 7.16697Z" fill="#FEDE3A"/>
<path d="M18.7526 5.75557C18.7526 5.75557 18.4004 6.30052 17.7913 6.35222C17.1825 6.40391 16.7552 6.43966 16.5852 6.74209C16.4151 7.04428 16.5892 7.61316 16.4547 7.61316C16.3202 7.61316 16.0039 6.30849 16.4706 5.3698C16.9373 4.4311 17.8745 4.46274 18.3094 4.62603C18.7446 4.78498 18.8871 5.03572 18.8871 5.29805C18.8871 5.56063 18.7526 5.75557 18.7526 5.75557Z" fill="#F9893D"/>
<path d="M18.5745 4.75195C18.6338 4.85123 18.6573 4.95462 18.6573 5.06212C18.6573 5.32058 18.5231 5.52349 18.5231 5.52349C18.5231 5.52349 18.1709 6.06845 17.5618 6.12014C16.9527 6.17184 16.5257 6.20759 16.3556 6.51002C16.2528 6.69699 16.2766 6.98324 16.2805 7.17817C16.3319 7.44075 16.4032 7.61177 16.4505 7.61177C16.585 7.61177 16.4111 7.0429 16.5812 6.74071C16.7512 6.43828 17.1783 6.40253 17.7874 6.35083C18.3965 6.29914 18.7483 5.75418 18.7483 5.75418C18.7483 5.75418 18.8828 5.55127 18.8828 5.2928C18.8869 5.09787 18.8038 4.90293 18.5745 4.75195Z" fill="#F9893D"/>
<path d="M18.863 5.12774C18.863 5.12774 19.4957 5.0601 19.6895 5.59709C19.9465 6.3051 19.567 7.58198 19.4522 7.58198C19.3376 7.58198 19.4918 6.95755 19.3177 6.39665C19.1438 5.83575 18.7285 5.79613 18.7285 5.79613L18.863 5.12774Z" fill="#F9893D"/>
<path d="M19.5434 6.1658C19.3693 5.6049 18.954 5.56529 18.954 5.56529L19.0412 5.13169C18.9343 5.11961 18.8591 5.12758 18.8591 5.12758L18.7246 5.79187C18.7246 5.79187 19.1399 5.83559 19.314 6.39263C19.4879 6.95328 19.3337 7.57796 19.4485 7.57796C19.4879 7.57796 19.5631 7.41877 19.6303 7.18397C19.6303 6.96126 19.662 6.54771 19.5434 6.1658Z" fill="#F9893D"/>
<path d="M16.5177 5.48515C16.9844 4.54645 17.9219 4.57834 18.3568 4.74139C18.6258 4.84092 18.7839 4.97619 18.8631 5.12716C18.8076 4.93247 18.6496 4.74936 18.3093 4.62617C17.8743 4.46698 16.9371 4.43123 16.4704 5.36993C16.0669 6.17722 16.2449 7.25916 16.3873 7.54155C16.2646 7.14781 16.158 6.20911 16.5177 5.48515Z" fill="#F9893D"/>
<path d="M19.6881 5.59709C19.4943 5.0601 18.8617 5.12774 18.8617 5.12774L18.8379 5.2391C18.9842 5.23523 19.4549 5.25915 19.617 5.70845C19.8265 6.28529 19.613 7.23196 19.4667 7.57014C19.6012 7.45468 19.9334 6.26935 19.6881 5.59709Z" fill="#F9893D"/>
<path d="M17.9293 7.92294C17.7948 7.92294 17.68 7.84733 17.6486 7.74805C17.6445 7.76785 17.6406 7.7838 17.6406 7.80361C17.6406 7.93091 17.771 8.03429 17.9293 8.03429C18.0874 8.03429 18.218 7.93091 18.218 7.80361C18.218 7.7838 18.2139 7.76399 18.2101 7.74805C18.1784 7.84733 18.0638 7.92294 17.9293 7.92294Z" fill="#FEDE3A"/>
<path d="M17.9305 10.2355L16.9458 11.2258L16.4553 10.2036C16.3802 10.0485 16.3802 9.86949 16.4513 9.71441L16.7954 9.30859L17.9305 10.2355Z" fill="white"/>
<path d="M17.9297 10.2355L18.9144 11.2258L19.4049 10.2036C19.4798 10.0485 19.4798 9.86949 19.4087 9.71441L19.0645 9.30859L17.9297 10.2355Z" fill="white"/>
<path d="M7.4375 11.916H11.9541C12.2784 11.916 12.5435 12.1827 12.5435 12.5088C12.5435 12.8349 12.2784 13.1013 11.9541 13.1013H7.4375V11.916Z" fill="#EF5A9D"/>
<path d="M12.4842 12.25C12.5236 12.3295 12.5435 12.4169 12.5435 12.5123C12.5435 12.8387 12.2784 13.1051 11.9541 13.1051H7.4375V12.5841H11.9541C12.1876 12.5841 12.3891 12.4447 12.4842 12.25Z" fill="#E43D91"/>
<path d="M7.4375 12.2109H11.9344C12.1004 12.2109 12.2349 12.3462 12.2349 12.5131C12.2349 12.6803 12.1004 12.8156 11.9344 12.8156H7.4375V12.2109Z" fill="#A72973"/>
<path d="M7.4375 10.7266H11.9541C12.2784 10.7266 12.5435 10.993 12.5435 11.3191C12.5435 11.6455 12.2784 11.9119 11.9541 11.9119H7.4375V10.7266Z" fill="#EF5A9D"/>
<path d="M12.4842 11.0625C12.5236 11.142 12.5435 11.2297 12.5435 11.3251C12.5435 11.6512 12.2784 11.9176 11.9541 11.9176H7.4375V11.3966H11.9541C12.1876 11.3966 12.3891 11.2613 12.4842 11.0625Z" fill="#E43D91"/>
<path d="M7.4375 11.0215H11.9344C12.1004 11.0215 12.2349 11.1568 12.2349 11.3239C12.2349 11.4911 12.1004 11.6261 11.9344 11.6261H7.4375V11.0215Z" fill="#A72973"/>
<path d="M7.4375 9.54297H11.9541C12.2784 9.54297 12.5435 9.80941 12.5435 10.1355C12.5435 10.4619 12.2784 10.7283 11.9541 10.7283H7.4375V9.54297Z" fill="#EF5A9D"/>
<path d="M12.4842 9.87695C12.5236 9.95643 12.5435 10.0441 12.5435 10.1395C12.5435 10.4656 12.2784 10.7321 11.9541 10.7321H7.4375V10.211H11.9541C12.1876 10.2072 12.3891 10.0719 12.4842 9.87695Z" fill="#E43D91"/>
<path d="M7.4375 9.83203H11.9344C12.1004 9.83203 12.2349 9.9673 12.2349 10.1342C12.2349 10.3014 12.1004 10.4367 11.9344 10.4367H7.4375V9.83203Z" fill="#A72973"/>
<path d="M7.4375 8.35156H11.9541C12.2784 8.35156 12.5435 8.618 12.5435 8.94411C12.5435 9.27021 12.2784 9.53689 11.9541 9.53689H7.4375V8.35156Z" fill="#EF5A9D"/>
<path d="M12.4842 8.68555C12.5236 8.76502 12.5435 8.85246 12.5435 8.94812C12.5435 9.27423 12.2784 9.54067 11.9541 9.54067H7.4375V9.01962H11.9541C12.1876 9.01962 12.3891 8.88435 12.4842 8.68555Z" fill="#E43D91"/>
<path d="M7.4375 8.64648H11.9344C12.1004 8.64648 12.2349 8.78176 12.2349 8.94892C12.2349 9.11583 12.1004 9.25111 11.9344 9.25111H7.4375V8.64648Z" fill="#A72973"/>
<path d="M23.063 23.6901H7.78111C7.34998 23.6901 7.00195 23.3401 7.00195 22.9065V14.4062H23.838V22.9024C23.8421 23.3401 23.4941 23.6901 23.063 23.6901Z" fill="#F7CB15"/>
<path d="M23.063 22.7524H7.78111C7.34998 22.7524 7.00195 22.4023 7.00195 21.9688V22.9074C7.00195 23.341 7.34998 23.6911 7.78111 23.6911H23.063C23.4941 23.6911 23.8421 23.341 23.8421 22.9074V21.9688C23.8421 22.3982 23.4941 22.7524 23.063 22.7524Z" fill="#E7AD27"/>
<path d="M24.7753 14.4062H6.06841C5.71246 14.4062 5.41992 14.1159 5.41992 13.754C5.41992 13.396 5.70862 13.1016 6.06841 13.1016H24.7712C25.1271 13.1016 25.4199 13.3919 25.4199 13.754C25.4199 14.1159 25.1312 14.4062 24.7753 14.4062Z" fill="#FEDE3A"/>
<path d="M6.06841 13.3402H24.7712C25.0877 13.3402 25.3527 13.5709 25.4079 13.8733C25.4158 13.8335 25.4199 13.7977 25.4199 13.754C25.4199 13.396 25.1312 13.1016 24.7712 13.1016H6.06841C5.71246 13.1016 5.41992 13.3919 5.41992 13.754C5.41992 13.7939 5.42376 13.8335 5.43169 13.8733C5.48717 13.5709 5.75209 13.3402 6.06841 13.3402Z" fill="#FFF335"/>
<path d="M24.7753 13.9372H6.06841C5.79148 13.9372 5.55827 13.7623 5.46339 13.5195C5.43577 13.5913 5.41992 13.6707 5.41992 13.7543C5.41992 14.1123 5.70862 14.4065 6.06841 14.4065H24.7712C25.1271 14.4065 25.4199 14.1162 25.4199 13.7543C25.4199 13.6707 25.4041 13.5913 25.3764 13.5195C25.2854 13.7662 25.0481 13.9372 24.7753 13.9372Z" fill="#F7CB15"/>
<path d="M7.00195 14.4062H23.838V17.0673H7.00195V14.4062Z" fill="#E7AD27"/>
<path d="M18.7178 18.7898C18.7178 16.96 17.2429 15.4766 15.4233 15.4766C13.6039 15.4766 12.1289 16.96 12.1289 18.7898C12.1289 20.6196 13.6039 22.103 15.4233 22.103C17.2429 22.103 18.7178 20.6196 18.7178 18.7898Z" fill="white"/>
<path d="M15.4213 21.5505C13.6929 21.5505 12.2771 20.214 12.1387 18.5117C12.1308 18.603 12.127 18.6946 12.127 18.7861C12.127 20.6157 13.6019 22.0994 15.4213 22.0994C17.2407 22.0994 18.7156 20.6157 18.7156 18.7861C18.7156 18.6946 18.7118 18.603 18.7039 18.5117C18.5655 20.214 17.1497 21.5505 15.4213 21.5505Z" fill="#D1D3D4"/>
<path d="M17.2042 17.3986H16.5478V17.0843C16.5478 16.7742 16.2987 16.5234 15.9901 16.5234H14.8471C14.5387 16.5234 14.2896 16.7742 14.2896 17.0843V17.3986H13.633C13.4471 17.3986 13.3008 17.5498 13.3008 17.7327V20.171C13.3008 20.3579 13.4511 20.5051 13.633 20.5051H17.2042C17.3901 20.5051 17.5364 20.3538 17.5364 20.171V17.7327C17.5405 17.5498 17.3901 17.3986 17.2042 17.3986ZM14.6929 17.0843C14.6929 16.9969 14.7642 16.9254 14.8512 16.9254H15.9942C16.0811 16.9254 16.1522 16.9969 16.1522 17.0843V17.3986H14.6929V17.0843Z" fill="#E6E7E8"/>
<path d="M17.5423 17.7386V19.775C17.5423 19.9619 17.3919 20.1093 17.2101 20.1093H13.6388C13.4529 20.1093 13.3066 19.9581 13.3066 19.775V17.7386C13.3066 17.5516 13.4568 17.4043 13.6388 17.4043H17.2101C17.3919 17.4043 17.5423 17.5555 17.5423 17.7386Z" fill="#E7AD27"/>
<path d="M17.5423 17.3343V19.3707C17.5423 19.5576 17.3919 19.7047 17.2101 19.7047H13.6388C13.4529 19.7047 13.3066 19.5538 13.3066 19.3707V17.3343C13.3066 17.1474 13.4568 17 13.6388 17H17.2101C17.3919 17 17.5423 17.1512 17.5423 17.3343Z" fill="#FEDE3A"/>
<path d="M17.5423 17.4688V18.1532C17.5423 18.3401 17.3919 18.4873 17.2101 18.4873H13.6388C13.4529 18.4873 13.3066 18.336 13.3066 18.1532V17.4688C13.3066 17.2819 13.4568 17.1348 13.6388 17.1348H17.2101C17.3919 17.1348 17.5423 17.2819 17.5423 17.4688Z" fill="#E7AD27"/>
<path d="M17.5423 17.3343V18.0184C17.5423 18.2054 17.3919 18.3525 17.2101 18.3525H13.6388C13.4529 18.3525 13.3066 18.2013 13.3066 18.0184V17.3343C13.3066 17.1474 13.4568 17 13.6388 17H17.2101C17.3919 17 17.5423 17.1512 17.5423 17.3343Z" fill="#F7CB15"/>
<path d="M17.2042 17H13.633C13.4471 17 13.3008 17.1512 13.3008 17.3343V17.4693C13.3008 17.2824 13.4511 17.1353 13.633 17.1353H17.2042C17.3901 17.1353 17.5364 17.2865 17.5364 17.4693V17.3343C17.5405 17.1512 17.3901 17 17.2042 17Z" fill="#FEDE3A"/>
<path d="M14.5679 18.8105H14.4216C14.3464 18.8105 14.2871 18.7508 14.2871 18.6752V18.3013C14.2871 18.2257 14.3464 18.166 14.4216 18.166H14.5679C14.6431 18.166 14.7024 18.2257 14.7024 18.3013V18.6752C14.6985 18.7508 14.6392 18.8105 14.5679 18.8105Z" fill="#F7CB15"/>
<path d="M14.5679 18.6738H14.4216C14.3464 18.6738 14.2871 18.6141 14.2871 18.5385V18.1646C14.2871 18.089 14.3464 18.0293 14.4216 18.0293H14.5679C14.6431 18.0293 14.7024 18.089 14.7024 18.1646V18.5385C14.6985 18.6141 14.6392 18.6738 14.5679 18.6738Z" fill="white"/>
<path d="M14.5679 18.5415H14.4216C14.3464 18.5415 14.2871 18.4819 14.2871 18.4062V18.5415C14.2871 18.6171 14.3464 18.6768 14.4216 18.6768H14.5679C14.6431 18.6768 14.7024 18.6171 14.7024 18.5415V18.4062C14.6985 18.4819 14.6392 18.5415 14.5679 18.5415Z" fill="#D1D3D4"/>
<path d="M16.4214 18.8105H16.2751C16.2 18.8105 16.1406 18.7508 16.1406 18.6752V18.3013C16.1406 18.2257 16.2 18.166 16.2751 18.166H16.4214C16.4966 18.166 16.5559 18.2257 16.5559 18.3013V18.6752C16.5559 18.7508 16.4966 18.8105 16.4214 18.8105Z" fill="#F7CB15"/>
<path d="M16.4214 18.6738H16.2751C16.2 18.6738 16.1406 18.6141 16.1406 18.5385V18.1646C16.1406 18.089 16.2 18.0293 16.2751 18.0293H16.4214C16.4966 18.0293 16.5559 18.089 16.5559 18.1646V18.5385C16.5559 18.6141 16.4966 18.6738 16.4214 18.6738Z" fill="white"/>
<path d="M16.4214 18.5415H16.2751C16.2 18.5415 16.1406 18.4819 16.1406 18.4062V18.5415C16.1406 18.6171 16.2 18.6768 16.2751 18.6768H16.4214C16.4966 18.6768 16.5559 18.6171 16.5559 18.5415V18.4062C16.5559 18.4819 16.4966 18.5415 16.4214 18.5415Z" fill="#D1D3D4"/>
<path d="M16.5492 16.9999H16.1498V16.6859C16.1498 16.5982 16.0785 16.5267 15.9915 16.5267H14.8485C14.7615 16.5267 14.6904 16.5982 14.6904 16.6859V16.9999H14.291V16.6859C14.291 16.3755 14.5401 16.125 14.8485 16.125H15.9915C16.3001 16.125 16.5492 16.3755 16.5492 16.6859V16.9999Z" fill="#F7CB15"/>
<path d="M15.9957 16.125H14.8526C14.544 16.125 14.2949 16.3755 14.2949 16.6859V16.9999H14.386V16.7137C14.386 16.4313 14.6153 16.1965 14.8999 16.1965H15.9519C16.233 16.1965 16.4662 16.4272 16.4662 16.7137V16.9999H16.5572V16.6859C16.5493 16.3755 16.3002 16.125 15.9957 16.125Z" fill="#FEDE3A"/>
<path d="M16.351 17.0021V16.6881C16.351 16.489 16.1927 16.3301 15.9951 16.3301H14.852C14.6544 16.3301 14.4961 16.489 14.4961 16.6881V17.0021H14.6978V16.6881C14.6978 16.6004 14.7689 16.5289 14.8559 16.5289H15.9989C16.0859 16.5289 16.1572 16.6004 16.1572 16.6881V17.0021H16.351Z" fill="#E7AD27"/>
</g>
<defs>
<clipPath id="clip0_531_6062">
<rect width="30" height="30" fill="white"/>
</clipPath>
</defs>
</svg>
