<svg width="1440" height="3170" viewBox="0 0 1440 3170" fill="none" xmlns="http://www.w3.org/2000/svg">
<rect width="1440" height="3170" fill="#1A1A1A"/>
<g clip-path="url(#clip0_155_6292)">
<g opacity="0.18">
<path d="M350.043 87.4051V15.3266H347.983L336.656 41.5838H320.695L337.686 4H364.974V87.4051H350.043Z" fill="#F9893D" fill-opacity="0.5"/>
<path d="M346.437 213.026C336.654 213.026 328.931 210.452 322.753 204.789C316.574 199.125 314 191.403 314 180.076V159.482C314 148.67 317.089 140.948 322.753 135.284C328.416 129.621 336.654 127.047 346.437 127.047C356.219 127.047 363.942 129.621 370.121 135.284C375.784 140.948 378.874 149.185 378.874 159.482V180.076C378.874 190.888 375.784 199.125 370.121 204.789C363.942 210.452 356.219 213.026 346.437 213.026ZM346.437 199.64C352.1 199.64 356.734 198.096 359.309 195.007C361.883 191.917 363.428 187.284 363.428 181.106V158.967C363.428 152.789 361.883 148.156 358.794 145.066C355.704 141.977 351.586 140.433 346.437 140.433C340.773 140.433 336.654 141.977 333.565 145.066C330.476 148.156 328.931 152.789 328.931 158.452V180.591C328.931 186.769 330.476 191.403 333.05 194.492C336.139 198.096 340.773 199.64 346.437 199.64Z" fill="#F9893D" fill-opacity="0.5"/>
<path d="M350.043 336.077V263.998H347.983L336.656 290.256H320.695L337.686 252.672H364.974V335.562H350.043V336.077Z" fill="#F9893D" fill-opacity="0.5"/>
<path d="M350.043 460.152V388.588H347.983L336.656 414.845H320.695L337.686 377.262H364.974V460.152H350.043Z" fill="#F9893D" fill-opacity="0.5"/>
<path d="M350.043 584.746V512.667H347.983L336.656 538.924H320.695L338.201 501.855H365.489V584.746H350.043Z" fill="#F9893D" fill-opacity="0.5"/>
<path d="M346.437 710.37C336.654 710.37 328.931 707.796 322.753 702.132C316.574 696.469 314 688.746 314 677.42V656.826C314 646.014 317.089 638.291 322.753 632.628C328.416 626.965 336.654 624.391 346.437 624.391C356.219 624.391 363.942 626.965 370.121 632.628C375.784 638.291 378.874 646.529 378.874 656.826V677.42C378.874 688.232 375.784 696.469 370.121 702.132C363.942 707.796 356.219 710.37 346.437 710.37ZM346.437 696.984C352.1 696.984 356.734 695.439 359.309 692.35C361.883 689.261 363.428 684.628 363.428 678.449V656.311C363.428 650.133 361.883 645.499 358.794 642.41C355.704 639.321 351.586 637.777 346.437 637.777C340.773 637.777 336.654 639.321 333.565 642.41C330.476 645.499 328.931 650.133 328.931 655.796V677.935C328.931 684.113 330.476 688.746 333.05 691.835C336.139 695.439 340.773 696.984 346.437 696.984Z" fill="#F9893D" fill-opacity="0.5"/>
<path d="M346.437 834.964C336.654 834.964 328.931 832.389 322.753 826.726C316.574 821.063 314 813.34 314 802.014V781.42C314 770.608 317.089 762.885 322.753 757.222C328.416 751.559 336.654 748.984 346.437 748.984C356.219 748.984 363.942 751.559 370.121 757.222C375.784 762.885 378.874 771.123 378.874 781.42V802.014C378.874 812.825 375.784 821.063 370.121 826.726C363.942 832.389 356.219 834.964 346.437 834.964ZM346.437 821.578C352.1 821.578 356.734 820.033 359.309 816.944C361.883 813.855 363.428 809.221 363.428 803.043V780.905C363.428 774.727 361.883 770.093 358.794 767.004C355.704 763.915 351.586 762.37 346.437 762.37C340.773 762.37 336.654 763.915 333.565 767.004C330.476 770.093 328.931 774.727 328.931 780.39V802.528C328.931 808.706 330.476 813.34 333.05 816.429C336.139 820.033 340.773 821.578 346.437 821.578Z" fill="#F9893D" fill-opacity="0.5"/>
<path d="M350.043 957.496V885.932H347.983L336.656 912.189H320.695L337.686 874.605H364.974V957.496H350.043Z" fill="#F9893D" fill-opacity="0.5"/>
<path d="M346.437 1083.63C336.654 1083.63 328.931 1081.06 322.753 1075.39C316.574 1069.73 314 1062.01 314 1050.68V1030.09C314 1019.28 317.089 1011.55 322.753 1005.89C328.416 1000.23 336.654 997.652 346.437 997.652C356.219 997.652 363.942 1000.23 370.121 1005.89C375.784 1011.55 378.874 1019.79 378.874 1030.09V1050.68C378.874 1061.49 375.784 1069.73 370.121 1075.39C363.942 1081.06 356.219 1083.63 346.437 1083.63ZM346.437 1070.25C352.1 1070.25 356.734 1068.7 359.309 1065.61C361.883 1062.52 363.428 1057.89 363.428 1051.71V1029.57C363.428 1023.39 361.883 1018.76 358.794 1015.67C355.704 1012.58 351.586 1011.04 346.437 1011.04C340.773 1011.04 336.654 1012.58 333.565 1015.67C330.476 1018.76 328.931 1023.39 328.931 1029.06V1051.2C328.931 1057.37 330.476 1062.01 333.05 1065.1C336.139 1068.7 340.773 1070.25 346.437 1070.25Z" fill="#F9893D" fill-opacity="0.5"/>
<path opacity="0.78" d="M350.043 1206.16V1134.6H347.983L336.656 1160.86H320.695L337.686 1123.27H364.974V1206.16H350.043Z" fill="#F9893D" fill-opacity="0.5"/>
<path opacity="0.78" d="M346.437 1332.3C336.654 1332.3 328.931 1329.73 322.753 1324.07C316.574 1318.4 314 1310.68 314 1299.35V1278.76C314 1267.95 317.089 1260.23 322.753 1254.56C328.416 1248.9 336.654 1246.32 346.437 1246.32C356.219 1246.32 363.942 1248.9 370.121 1254.56C375.784 1260.23 378.874 1268.46 378.874 1278.76V1299.35C378.874 1310.17 375.784 1318.4 370.121 1324.07C363.942 1329.73 356.219 1332.3 346.437 1332.3ZM346.437 1318.92C352.1 1318.92 356.734 1317.37 359.309 1314.28C361.883 1311.19 363.428 1306.56 363.428 1300.38V1278.24C363.428 1272.07 361.883 1267.43 358.794 1264.34C355.704 1261.25 351.586 1259.71 346.437 1259.71C340.773 1259.71 336.654 1261.25 333.565 1264.34C330.476 1267.43 328.931 1272.07 328.931 1277.73V1299.87C328.931 1306.05 330.476 1310.68 333.05 1313.77C336.139 1317.37 340.773 1318.92 346.437 1318.92Z" fill="#F9893D" fill-opacity="0.5"/>
<path opacity="0.78" d="M346.437 1456.38C336.654 1456.38 328.931 1453.81 322.753 1448.14C316.574 1442.48 314 1434.76 314 1423.43V1402.84C314 1392.03 317.089 1384.3 322.753 1378.64C328.416 1372.98 336.654 1370.4 346.437 1370.4C356.219 1370.4 363.942 1372.98 370.121 1378.64C375.784 1384.3 378.874 1392.54 378.874 1402.84V1423.43C378.874 1434.24 375.784 1442.48 370.121 1448.14C363.942 1453.81 356.219 1456.38 346.437 1456.38ZM346.437 1443C352.1 1443 356.734 1441.45 359.309 1438.36C361.883 1435.27 363.428 1430.64 363.428 1424.46V1402.32C363.428 1396.14 361.883 1391.51 358.794 1388.42C355.704 1385.33 351.586 1383.79 346.437 1383.79C340.773 1383.79 336.654 1385.33 333.565 1388.42C330.476 1391.51 328.931 1396.14 328.931 1401.81V1423.95C328.931 1430.12 330.476 1434.76 333.05 1437.85C336.139 1441.45 340.773 1443 346.437 1443Z" fill="#F9893D" fill-opacity="0.5"/>
<path d="M350.043 1579.43V1507.87H347.983L336.656 1534.12H320.695L337.686 1496.54H364.974V1579.43H350.043Z" fill="#F9893D" fill-opacity="0.5"/>
<path d="M346.437 1705.05C336.654 1705.05 328.931 1702.48 322.753 1696.82C316.574 1691.15 314 1683.43 314 1672.1V1651.51C314 1640.7 317.089 1632.98 322.753 1627.31C328.416 1621.65 336.654 1619.07 346.437 1619.07C356.219 1619.07 363.942 1621.65 370.121 1627.31C375.784 1632.98 378.874 1641.21 378.874 1651.51V1672.1C378.874 1682.92 375.784 1691.15 370.121 1696.82C363.942 1702.48 356.219 1705.05 346.437 1705.05ZM346.437 1691.67C352.1 1691.67 356.734 1690.12 359.309 1687.03C361.883 1683.94 363.428 1679.31 363.428 1673.13V1650.99C363.428 1644.82 361.883 1640.18 358.794 1637.09C355.704 1634 351.586 1632.46 346.437 1632.46C340.773 1632.46 336.654 1634 333.565 1637.09C330.476 1640.18 328.931 1644.82 328.931 1650.48V1672.62C328.931 1678.8 330.476 1683.43 333.05 1686.52C336.139 1690.12 340.773 1691.67 346.437 1691.67Z" fill="#F9893D" fill-opacity="0.5"/>
<path d="M350.043 1828.1V1756.54H347.983L336.656 1782.79H320.695L337.686 1745.21H364.974V1828.1H350.043Z" fill="#F9893D" fill-opacity="0.5"/>
<path d="M346.437 1953.72C336.654 1953.72 328.931 1951.15 322.753 1945.48C316.574 1939.82 314 1932.1 314 1920.77V1900.18C314 1889.37 317.089 1881.64 322.753 1875.98C328.416 1870.32 336.654 1867.74 346.437 1867.74C356.219 1867.74 363.942 1870.32 370.121 1875.98C375.784 1881.64 378.874 1889.88 378.874 1900.18V1920.77C378.874 1931.58 375.784 1939.82 370.121 1945.48C363.942 1951.15 356.219 1953.72 346.437 1953.72ZM346.437 1940.34C352.1 1940.34 356.734 1938.79 359.309 1935.7C361.883 1932.61 363.428 1927.98 363.428 1921.8V1899.66C363.428 1893.48 361.883 1888.85 358.794 1885.76C355.704 1882.67 351.586 1881.13 346.437 1881.13C340.773 1881.13 336.654 1882.67 333.565 1885.76C330.476 1888.85 328.931 1893.48 328.931 1899.15V1921.29C328.931 1927.46 330.476 1932.1 333.05 1935.19C336.139 1938.79 340.773 1940.34 346.437 1940.34Z" fill="#F9893D" fill-opacity="0.5"/>
<path d="M350.043 2076.77V2005.21H347.983L336.656 2031.47H320.695L337.686 1993.88H364.974V2076.77H350.043Z" fill="#F9893D" fill-opacity="0.5"/>
<path d="M346.437 2202.39C336.654 2202.39 328.931 2199.82 322.753 2194.16C316.574 2188.49 314 2180.77 314 2169.44V2148.85C314 2138.04 317.089 2130.31 322.753 2124.65C328.416 2118.99 336.654 2116.41 346.437 2116.41C356.219 2116.41 363.942 2118.99 370.121 2124.65C375.784 2130.31 378.874 2138.55 378.874 2148.85V2169.44C378.874 2180.25 375.784 2188.49 370.121 2194.16C363.942 2199.82 356.219 2202.39 346.437 2202.39ZM346.437 2189.01C352.1 2189.01 356.734 2187.46 359.309 2184.37C361.883 2181.28 363.428 2176.65 363.428 2170.47V2148.33C363.428 2142.16 361.883 2137.52 358.794 2134.43C355.704 2131.34 351.586 2129.8 346.437 2129.8C340.773 2129.8 336.654 2131.34 333.565 2134.43C330.476 2137.52 328.931 2142.16 328.931 2147.82V2169.96C328.931 2176.14 330.476 2180.77 333.05 2183.86C336.139 2187.46 340.773 2189.01 346.437 2189.01Z" fill="#F9893D" fill-opacity="0.5"/>
<path d="M350.043 2325.44V2253.88H347.983L336.656 2280.13H320.695L337.686 2242.55H364.974V2325.44H350.043Z" fill="#F9893D" fill-opacity="0.5"/>
</g>
<g opacity="0.18">
<path d="M1266.37 168.048V109.241H1264.69L1255.45 130.664H1242.43L1256.29 100H1278.56V168.048H1266.37Z" fill="#F9893D" fill-opacity="0.5"/>
<path d="M1263.43 270.539C1255.45 270.539 1249.15 268.439 1244.11 263.818C1239.07 259.197 1236.97 252.897 1236.97 243.656V226.854C1236.97 218.033 1239.49 211.732 1244.11 207.111C1248.73 202.491 1255.45 200.391 1263.43 200.391C1271.41 200.391 1277.72 202.491 1282.76 207.111C1287.38 211.732 1289.9 218.453 1289.9 226.854V243.656C1289.9 252.477 1287.38 259.197 1282.76 263.818C1277.72 268.439 1271.41 270.539 1263.43 270.539ZM1263.43 259.617C1268.05 259.617 1271.83 258.357 1273.93 255.837C1276.04 253.317 1277.3 249.536 1277.3 244.496V226.434C1277.3 221.393 1276.04 217.613 1273.51 215.092C1270.99 212.572 1267.63 211.312 1263.43 211.312C1258.81 211.312 1255.45 212.572 1252.93 215.092C1250.41 217.613 1249.15 221.393 1249.15 226.014V244.076C1249.15 249.116 1250.41 252.897 1252.51 255.417C1255.03 258.357 1258.81 259.617 1263.43 259.617Z" fill="#F9893D" fill-opacity="0.5"/>
<path d="M1266.37 370.931V312.124H1264.69L1255.45 333.546H1242.43L1256.29 302.883H1278.56V370.511H1266.37V370.931Z" fill="#F9893D" fill-opacity="0.5"/>
<path d="M1266.37 472.163V413.776H1264.69L1255.45 435.199H1242.43L1256.29 404.535H1278.56V472.163H1266.37Z" fill="#F9893D" fill-opacity="0.5"/>
<path d="M1266.37 573.815V515.009H1264.69L1255.45 536.431H1242.43L1256.71 506.188H1278.98V573.815H1266.37Z" fill="#F9893D" fill-opacity="0.5"/>
<path d="M1263.43 676.304C1255.45 676.304 1249.15 674.204 1244.11 669.584C1239.07 664.963 1236.97 658.662 1236.97 649.421V632.619C1236.97 623.798 1239.49 617.498 1244.11 612.877C1248.73 608.256 1255.45 606.156 1263.43 606.156C1271.41 606.156 1277.72 608.256 1282.76 612.877C1287.38 617.498 1289.9 624.218 1289.9 632.619V649.421C1289.9 658.242 1287.38 664.963 1282.76 669.584C1277.72 674.204 1271.41 676.304 1263.43 676.304ZM1263.43 665.383C1268.05 665.383 1271.83 664.123 1273.93 661.603C1276.04 659.082 1277.3 655.302 1277.3 650.261V632.199C1277.3 627.159 1276.04 623.378 1273.51 620.858C1270.99 618.338 1267.63 617.078 1263.43 617.078C1258.81 617.078 1255.45 618.338 1252.93 620.858C1250.41 623.378 1249.15 627.159 1249.15 631.779V649.841C1249.15 654.882 1250.41 658.662 1252.51 661.183C1255.03 664.123 1258.81 665.383 1263.43 665.383Z" fill="#F9893D" fill-opacity="0.5"/>
<path d="M1263.43 777.961C1255.45 777.961 1249.15 775.86 1244.11 771.24C1239.07 766.619 1236.97 760.319 1236.97 751.078V734.276C1236.97 725.455 1239.49 719.154 1244.11 714.533C1248.73 709.913 1255.45 707.812 1263.43 707.812C1271.41 707.812 1277.72 709.913 1282.76 714.533C1287.38 719.154 1289.9 725.875 1289.9 734.276V751.078C1289.9 759.899 1287.38 766.619 1282.76 771.24C1277.72 775.86 1271.41 777.961 1263.43 777.961ZM1263.43 767.039C1268.05 767.039 1271.83 765.779 1273.93 763.259C1276.04 760.739 1277.3 756.958 1277.3 751.918V733.856C1277.3 728.815 1276.04 725.034 1273.51 722.514C1270.99 719.994 1267.63 718.734 1263.43 718.734C1258.81 718.734 1255.45 719.994 1252.93 722.514C1250.41 725.034 1249.15 728.815 1249.15 733.435V751.498C1249.15 756.538 1250.41 760.319 1252.51 762.839C1255.03 765.779 1258.81 767.039 1263.43 767.039Z" fill="#F9893D" fill-opacity="0.5"/>
<path d="M1266.37 877.933V819.546H1264.69L1255.45 840.968H1242.43L1256.29 810.305H1278.56V877.933H1266.37Z" fill="#F9893D" fill-opacity="0.5"/>
<path d="M1263.43 980.843C1255.45 980.843 1249.15 978.743 1244.11 974.123C1239.07 969.502 1236.97 963.201 1236.97 953.96V937.158C1236.97 928.337 1239.49 922.037 1244.11 917.416C1248.73 912.796 1255.45 910.695 1263.43 910.695C1271.41 910.695 1277.72 912.796 1282.76 917.416C1287.38 922.037 1289.9 928.757 1289.9 937.158V953.96C1289.9 962.781 1287.38 969.502 1282.76 974.123C1277.72 978.743 1271.41 980.843 1263.43 980.843ZM1263.43 969.922C1268.05 969.922 1271.83 968.662 1273.93 966.142C1276.04 963.621 1277.3 959.841 1277.3 954.8V936.738C1277.3 931.698 1276.04 927.917 1273.51 925.397C1270.99 922.877 1267.63 921.617 1263.43 921.617C1258.81 921.617 1255.45 922.877 1252.93 925.397C1250.41 927.917 1249.15 931.698 1249.15 936.318V954.38C1249.15 959.421 1250.41 963.201 1252.51 965.722C1255.03 968.662 1258.81 969.922 1263.43 969.922Z" fill="#F9893D" fill-opacity="0.5"/>
<path opacity="0.78" d="M1266.37 1080.82V1022.43H1264.69L1255.45 1043.85H1242.43L1256.29 1013.19H1278.56V1080.82H1266.37Z" fill="#F9893D" fill-opacity="0.5"/>
<path opacity="0.78" d="M1263.43 1183.73C1255.45 1183.73 1249.15 1181.63 1244.11 1177.01C1239.07 1172.38 1236.97 1166.08 1236.97 1156.84V1140.04C1236.97 1131.22 1239.49 1124.92 1244.11 1120.3C1248.73 1115.68 1255.45 1113.58 1263.43 1113.58C1271.41 1113.58 1277.72 1115.68 1282.76 1120.3C1287.38 1124.92 1289.9 1131.64 1289.9 1140.04V1156.84C1289.9 1165.66 1287.38 1172.38 1282.76 1177.01C1277.72 1181.63 1271.41 1183.73 1263.43 1183.73ZM1263.43 1172.8C1268.05 1172.8 1271.83 1171.54 1273.93 1169.02C1276.04 1166.5 1277.3 1162.72 1277.3 1157.68V1139.62C1277.3 1134.58 1276.04 1130.8 1273.51 1128.28C1270.99 1125.76 1267.63 1124.5 1263.43 1124.5C1258.81 1124.5 1255.45 1125.76 1252.93 1128.28C1250.41 1130.8 1249.15 1134.58 1249.15 1139.2V1157.26C1249.15 1162.3 1250.41 1166.08 1252.51 1168.6C1255.03 1171.54 1258.81 1172.8 1263.43 1172.8Z" fill="#F9893D" fill-opacity="0.5"/>
<path opacity="0.78" d="M1263.43 1284.96C1255.45 1284.96 1249.15 1282.86 1244.11 1278.24C1239.07 1273.62 1236.97 1267.31 1236.97 1258.07V1241.27C1236.97 1232.45 1239.49 1226.15 1244.11 1221.53C1248.73 1216.91 1255.45 1214.81 1263.43 1214.81C1271.41 1214.81 1277.72 1216.91 1282.76 1221.53C1287.38 1226.15 1289.9 1232.87 1289.9 1241.27V1258.07C1289.9 1266.89 1287.38 1273.62 1282.76 1278.24C1277.72 1282.86 1271.41 1284.96 1263.43 1284.96ZM1263.43 1274.04C1268.05 1274.04 1271.83 1272.78 1273.93 1270.26C1276.04 1267.73 1277.3 1263.95 1277.3 1258.91V1240.85C1277.3 1235.81 1276.04 1232.03 1273.51 1229.51C1270.99 1226.99 1267.63 1225.73 1263.43 1225.73C1258.81 1225.73 1255.45 1226.99 1252.93 1229.51C1250.41 1232.03 1249.15 1235.81 1249.15 1240.43V1258.49C1249.15 1263.53 1250.41 1267.31 1252.51 1269.83C1255.03 1272.78 1258.81 1274.04 1263.43 1274.04Z" fill="#F9893D" fill-opacity="0.5"/>
<path d="M1266.37 1385.35V1326.96H1264.69L1255.45 1348.38H1242.43L1256.29 1317.72H1278.56V1385.35H1266.37Z" fill="#F9893D" fill-opacity="0.5"/>
<path d="M1263.43 1487.84C1255.45 1487.84 1249.15 1485.74 1244.11 1481.12C1239.07 1476.5 1236.97 1470.2 1236.97 1460.96V1444.15C1236.97 1435.33 1239.49 1429.03 1244.11 1424.41C1248.73 1419.79 1255.45 1417.69 1263.43 1417.69C1271.41 1417.69 1277.72 1419.79 1282.76 1424.41C1287.38 1429.03 1289.9 1435.75 1289.9 1444.15V1460.96C1289.9 1469.78 1287.38 1476.5 1282.76 1481.12C1277.72 1485.74 1271.41 1487.84 1263.43 1487.84ZM1263.43 1476.92C1268.05 1476.92 1271.83 1475.66 1273.93 1473.14C1276.04 1470.62 1277.3 1466.84 1277.3 1461.8V1443.73C1277.3 1438.69 1276.04 1434.91 1273.51 1432.39C1270.99 1429.87 1267.63 1428.61 1263.43 1428.61C1258.81 1428.61 1255.45 1429.87 1252.93 1432.39C1250.41 1434.91 1249.15 1438.69 1249.15 1443.31V1461.38C1249.15 1466.42 1250.41 1470.2 1252.51 1472.72C1255.03 1475.66 1258.81 1476.92 1263.43 1476.92Z" fill="#F9893D" fill-opacity="0.5"/>
<path d="M1266.37 1588.23V1529.85H1264.69L1255.45 1551.27H1242.43L1256.29 1520.61H1278.56V1588.23H1266.37Z" fill="#F9893D" fill-opacity="0.5"/>
<path d="M1263.43 1690.73C1255.45 1690.73 1249.15 1688.63 1244.11 1684.01C1239.07 1679.38 1236.97 1673.08 1236.97 1663.84V1647.04C1236.97 1638.22 1239.49 1631.92 1244.11 1627.3C1248.73 1622.68 1255.45 1620.58 1263.43 1620.58C1271.41 1620.58 1277.72 1622.68 1282.76 1627.3C1287.38 1631.92 1289.9 1638.64 1289.9 1647.04V1663.84C1289.9 1672.66 1287.38 1679.38 1282.76 1684.01C1277.72 1688.63 1271.41 1690.73 1263.43 1690.73ZM1263.43 1679.81C1268.05 1679.81 1271.83 1678.54 1273.93 1676.02C1276.04 1673.5 1277.3 1669.72 1277.3 1664.68V1646.62C1277.3 1641.58 1276.04 1637.8 1273.51 1635.28C1270.99 1632.76 1267.63 1631.5 1263.43 1631.5C1258.81 1631.5 1255.45 1632.76 1252.93 1635.28C1250.41 1637.8 1249.15 1641.58 1249.15 1646.2V1664.26C1249.15 1669.3 1250.41 1673.08 1252.51 1675.6C1255.03 1678.54 1258.81 1679.81 1263.43 1679.81Z" fill="#F9893D" fill-opacity="0.5"/>
<path d="M1266.37 1791.12V1732.73H1264.69L1255.45 1754.15H1242.43L1256.29 1723.49H1278.56V1791.12H1266.37Z" fill="#F9893D" fill-opacity="0.5"/>
<path d="M1263.43 1893.61C1255.45 1893.61 1249.15 1891.51 1244.11 1886.89C1239.07 1882.27 1236.97 1875.97 1236.97 1866.73V1849.92C1236.97 1841.1 1239.49 1834.8 1244.11 1830.18C1248.73 1825.56 1255.45 1823.46 1263.43 1823.46C1271.41 1823.46 1277.72 1825.56 1282.76 1830.18C1287.38 1834.8 1289.9 1841.52 1289.9 1849.92V1866.73C1289.9 1875.55 1287.38 1882.27 1282.76 1886.89C1277.72 1891.51 1271.41 1893.61 1263.43 1893.61ZM1263.43 1882.69C1268.05 1882.69 1271.83 1881.43 1273.93 1878.91C1276.04 1876.39 1277.3 1872.61 1277.3 1867.57V1849.5C1277.3 1844.46 1276.04 1840.68 1273.51 1838.16C1270.99 1835.64 1267.63 1834.38 1263.43 1834.38C1258.81 1834.38 1255.45 1835.64 1252.93 1838.16C1250.41 1840.68 1249.15 1844.46 1249.15 1849.08V1867.15C1249.15 1872.19 1250.41 1875.97 1252.51 1878.49C1255.03 1881.43 1258.81 1882.69 1263.43 1882.69Z" fill="#F9893D" fill-opacity="0.5"/>
<path d="M1266.37 1994V1935.61H1264.69L1255.45 1957.03H1242.43L1256.29 1926.37H1278.56V1994H1266.37Z" fill="#F9893D" fill-opacity="0.5"/>
</g>
<g opacity="0.18">
<path d="M1257.34 2554.5C1247.55 2554.5 1239.83 2551.92 1233.65 2546.26C1227.99 2541.11 1224.9 2532.88 1224.9 2521.55V2500.95C1224.9 2490.14 1227.99 2482.42 1233.65 2476.76C1239.31 2471.09 1247.55 2468.52 1257.34 2468.52C1267.12 2468.52 1274.84 2471.09 1281.02 2476.76C1286.68 2482.42 1289.77 2490.66 1289.77 2500.95V2521.55C1289.77 2532.36 1286.68 2540.6 1281.02 2546.26C1275.36 2551.92 1267.63 2554.5 1257.34 2554.5ZM1257.34 2541.11C1263 2541.11 1267.63 2539.57 1270.21 2536.48C1272.78 2533.39 1274.33 2528.76 1274.33 2522.58V2500.44C1274.33 2494.26 1272.78 2489.63 1269.69 2486.54C1266.6 2483.45 1262.48 2481.91 1257.34 2481.91C1251.67 2481.91 1247.55 2483.45 1244.46 2486.54C1241.37 2489.63 1239.83 2494.26 1239.83 2499.93V2522.06C1239.83 2528.24 1241.37 2532.88 1243.95 2535.96C1247.55 2539.57 1251.67 2541.11 1257.34 2541.11Z" fill="#F9893D" fill-opacity="0.5"/>
<path d="M1261.46 2674.46V2602.9H1259.4L1248.07 2629.15H1232.11L1249.1 2591.57H1276.39V2674.46H1261.46Z" fill="#F9893D" fill-opacity="0.5"/>
<path d="M1257.34 2797.51C1247.55 2797.51 1239.83 2794.93 1233.65 2789.27C1227.99 2783.61 1224.9 2775.88 1224.9 2764.56V2743.96C1224.9 2733.15 1227.99 2725.43 1233.65 2719.77C1239.31 2714.1 1247.55 2711.53 1257.34 2711.53C1267.12 2711.53 1274.84 2714.1 1281.02 2719.77C1286.68 2725.43 1289.77 2733.67 1289.77 2743.96V2764.56C1289.77 2775.37 1286.68 2783.61 1281.02 2789.27C1275.36 2794.42 1267.63 2797.51 1257.34 2797.51ZM1257.34 2783.61C1263 2783.61 1267.63 2782.06 1270.21 2778.97C1272.78 2775.88 1274.33 2771.25 1274.33 2765.07V2742.93C1274.33 2736.75 1272.78 2732.12 1269.69 2729.03C1266.6 2725.94 1262.48 2724.4 1257.34 2724.4C1251.67 2724.4 1247.55 2725.94 1244.46 2729.03C1241.37 2732.12 1239.83 2736.75 1239.83 2742.42V2764.56C1239.83 2770.73 1241.37 2775.37 1243.95 2778.46C1247.55 2782.06 1251.67 2783.61 1257.34 2783.61Z" fill="#F9893D" fill-opacity="0.5"/>
<path d="M1261.46 2916.95V2845.39H1259.4L1248.07 2871.65H1232.11L1249.1 2834.06H1276.39V2916.95H1261.46Z" fill="#F9893D" fill-opacity="0.5"/>
<path d="M1257.34 3040C1247.55 3040 1239.83 3037.42 1233.65 3031.76C1227.99 3026.61 1224.9 3018.38 1224.9 3007.05V2986.45C1224.9 2975.64 1227.99 2967.92 1233.65 2962.26C1239.31 2956.59 1247.55 2954.02 1257.34 2954.02C1267.12 2954.02 1274.84 2956.59 1281.02 2962.26C1286.68 2967.92 1289.77 2976.16 1289.77 2986.45V3007.05C1289.77 3017.86 1286.68 3026.1 1281.02 3031.76C1275.36 3037.42 1267.63 3040 1257.34 3040ZM1257.34 3026.61C1263 3026.61 1267.63 3025.07 1270.21 3021.98C1272.78 3018.89 1274.33 3014.26 1274.33 3008.08V2985.94C1274.33 2979.76 1272.78 2975.13 1269.69 2972.04C1266.6 2968.95 1262.48 2967.41 1257.34 2967.41C1251.67 2967.41 1247.55 2968.95 1244.46 2972.04C1241.37 2975.13 1239.83 2979.76 1239.83 2985.43V3007.56C1239.83 3013.74 1241.37 3018.38 1243.95 3021.46C1247.55 3025.07 1251.67 3026.61 1257.34 3026.61Z" fill="#F9893D" fill-opacity="0.5"/>
<path d="M1261.46 3159.96V3088.4H1259.4L1248.07 3114.65H1232.11L1249.1 3077.07H1276.39V3159.96H1261.46Z" fill="#F9893D" fill-opacity="0.5"/>
</g>
<g opacity="0.18">
<path d="M1092.46 2806.77C1082.68 2806.77 1074.95 2804.2 1068.78 2798.53C1062.6 2792.87 1060.02 2785.15 1060.02 2773.82V2753.23C1060.02 2742.42 1063.11 2734.69 1068.78 2729.03C1074.44 2723.37 1082.68 2720.79 1092.46 2720.79C1102.24 2720.79 1109.97 2723.37 1116.14 2729.03C1121.81 2734.69 1124.9 2742.93 1124.9 2753.23V2773.82C1124.9 2784.63 1121.81 2792.87 1116.14 2798.53C1109.97 2804.2 1102.24 2806.77 1092.46 2806.77ZM1092.46 2793.39C1098.12 2793.39 1102.76 2791.84 1105.33 2788.75C1107.91 2785.66 1109.45 2781.03 1109.45 2774.85V2752.71C1109.45 2746.54 1107.91 2741.9 1104.82 2738.81C1101.73 2735.72 1097.61 2734.18 1092.46 2734.18C1086.8 2734.18 1082.68 2735.72 1079.59 2738.81C1076.5 2741.9 1074.95 2746.54 1074.95 2752.2V2774.34C1074.95 2780.52 1076.5 2785.15 1079.07 2788.24C1082.16 2791.84 1086.28 2793.39 1092.46 2793.39Z" fill="#F9893D" fill-opacity="0.5"/>
<path d="M1096.07 2929.82V2858.26H1094.01L1082.68 2884.51H1066.72L1083.71 2846.93H1111V2929.82H1096.07Z" fill="#F9893D" fill-opacity="0.5"/>
<path d="M1092.46 3055.44C1082.68 3055.44 1074.95 3052.87 1068.78 3047.2C1062.6 3041.54 1060.02 3033.82 1060.02 3022.49V3001.9C1060.02 2991.08 1063.11 2983.36 1068.78 2977.7C1074.44 2972.04 1082.68 2969.46 1092.46 2969.46C1102.24 2969.46 1109.97 2972.04 1116.14 2977.7C1121.81 2983.36 1124.9 2991.6 1124.9 3001.9V3022.49C1124.9 3033.3 1121.81 3041.54 1116.14 3047.2C1109.97 3052.87 1102.24 3055.44 1092.46 3055.44ZM1092.46 3042.05C1098.12 3042.05 1102.76 3040.51 1105.33 3037.42C1107.91 3034.33 1109.45 3029.7 1109.45 3023.52V3001.38C1109.45 2995.2 1107.91 2990.57 1104.82 2987.48C1101.73 2984.39 1097.61 2982.85 1092.46 2982.85C1086.8 2982.85 1082.68 2984.39 1079.59 2987.48C1076.5 2990.57 1074.95 2995.2 1074.95 3000.87V3023C1074.95 3029.18 1076.5 3033.82 1079.07 3036.91C1082.16 3040.51 1086.28 3042.05 1092.46 3042.05Z" fill="#F9893D" fill-opacity="0.5"/>
<path d="M1096.07 3178.49V3106.41H1094.01L1082.68 3132.67H1066.72L1083.71 3095.09H1111V3178.49H1096.07Z" fill="#F9893D" fill-opacity="0.5"/>
</g>
<g opacity="0.18">
<path d="M182.437 89.9792C172.654 89.9792 164.931 87.4051 158.753 81.7418C153.089 76.5933 150 68.3557 150 57.0291V36.4352C150 25.6235 153.089 17.9009 158.753 12.2376C164.416 6.57426 172.654 4 182.437 4C192.219 4 199.942 6.57426 206.121 12.2376C211.784 17.9009 214.874 26.1383 214.874 36.4352V57.0291C214.874 67.8409 211.784 76.0785 206.121 81.7418C200.457 87.4051 192.734 89.9792 182.437 89.9792ZM182.437 76.5933C188.1 76.5933 192.734 75.0487 195.309 71.9596C197.883 68.8705 199.427 64.237 199.427 58.0588V35.9204C199.427 29.7422 197.883 25.1087 194.794 22.0196C191.704 18.9305 187.585 17.386 182.437 17.386C176.773 17.386 172.654 18.9305 169.565 22.0196C166.476 25.1087 164.931 29.7423 164.931 35.4056V57.544C164.931 63.7221 166.476 68.3558 169.05 71.4449C172.654 75.0488 176.773 76.5933 182.437 76.5933Z" fill="#F9893D" fill-opacity="0.5"/>
<path d="M186.551 209.937V138.374H184.491L173.164 164.631H157.203L174.194 127.047H201.482V209.937H186.551Z" fill="#F9893D" fill-opacity="0.5"/>
<path d="M182.437 332.987C172.654 332.987 164.931 330.413 158.753 324.75C153.089 319.086 150 311.364 150 300.037V279.443C150 268.631 153.089 260.909 158.753 255.246C164.416 249.582 172.654 247.008 182.437 247.008C192.219 247.008 199.942 249.582 206.121 255.246C211.784 260.909 214.874 269.146 214.874 279.443V300.037C214.874 310.849 211.784 319.086 206.121 324.75C200.457 329.898 192.734 332.987 182.437 332.987ZM182.437 319.086C188.1 319.086 192.734 317.542 195.309 314.453C197.883 311.364 199.427 306.73 199.427 300.552V278.414C199.427 272.235 197.883 267.602 194.794 264.513C191.704 261.424 187.585 259.879 182.437 259.879C176.773 259.879 172.654 261.424 169.565 264.513C166.476 267.602 164.931 272.235 164.931 277.899V300.037C164.931 306.215 166.476 310.849 169.05 313.938C172.654 317.542 176.773 319.086 182.437 319.086Z" fill="#F9893D" fill-opacity="0.5"/>
<path d="M186.551 452.429V380.866H184.491L173.164 407.123H157.203L174.194 369.539H201.482V452.429H186.551Z" fill="#F9893D" fill-opacity="0.5"/>
<path d="M182.437 575.479C172.654 575.479 164.931 572.905 158.753 567.242C153.089 562.093 150 553.856 150 542.529V521.935C150 511.123 153.089 503.401 158.753 497.737C164.416 492.074 172.654 489.5 182.437 489.5C192.219 489.5 199.942 492.074 206.121 497.737C211.784 503.401 214.874 511.638 214.874 521.935V542.529C214.874 553.341 211.784 561.578 206.121 567.242C200.457 572.905 192.734 575.479 182.437 575.479ZM182.437 562.093C188.1 562.093 192.734 560.549 195.309 557.459C197.883 554.37 199.427 549.737 199.427 543.559V521.42C199.427 515.242 197.883 510.609 194.794 507.52C191.704 504.431 187.585 502.886 182.437 502.886C176.773 502.886 172.654 504.431 169.565 507.52C166.476 510.609 164.931 515.242 164.931 520.905V543.044C164.931 549.222 166.476 553.856 169.05 556.945C172.654 560.549 176.773 562.093 182.437 562.093Z" fill="#F9893D" fill-opacity="0.5"/>
<path d="M186.551 695.437V623.874H184.491L173.164 650.131H157.203L174.194 612.547H201.482V695.437H186.551Z" fill="#F9893D" fill-opacity="0.5"/>
<path d="M182.437 818.487C172.654 818.487 164.931 815.913 158.753 810.25C153.089 805.101 150 796.864 150 785.537V764.943C150 754.132 153.089 746.409 158.753 740.746C164.416 735.082 172.654 732.508 182.437 732.508C192.219 732.508 199.942 735.082 206.121 740.746C211.784 746.409 214.874 754.646 214.874 764.943V785.537C214.874 796.349 211.784 804.586 206.121 810.25C200.457 815.398 192.734 818.487 182.437 818.487ZM182.437 804.586C188.1 804.586 192.734 803.042 195.309 799.953C197.883 796.864 199.427 792.23 199.427 786.052V763.914C199.427 757.735 197.883 753.102 194.794 750.013C191.704 746.924 187.585 745.379 182.437 745.379C176.773 745.379 172.654 746.924 169.565 750.013C166.476 753.102 164.931 757.735 164.931 763.399V785.537C164.931 791.715 166.476 796.349 169.05 799.438C172.654 803.042 176.773 804.586 182.437 804.586Z" fill="#F9893D" fill-opacity="0.5"/>
<path d="M186.551 937.929V866.365H184.491L173.164 892.623H157.203L174.194 855.039H201.482V937.929H186.551Z" fill="#F9893D" fill-opacity="0.5"/>
<path d="M182.437 1060.98C172.654 1060.98 164.931 1058.4 158.753 1052.74C153.089 1047.08 150 1039.36 150 1028.03V1007.44C150 996.623 153.089 988.901 158.753 983.237C164.416 977.574 172.654 975 182.437 975C192.219 975 199.942 977.574 206.121 983.237C211.784 988.901 214.874 997.138 214.874 1007.44V1028.03C214.874 1038.84 211.784 1047.08 206.121 1052.74C200.457 1058.4 192.734 1060.98 182.437 1060.98ZM182.437 1047.59C188.1 1047.59 192.734 1046.05 195.309 1042.96C197.883 1039.87 199.427 1035.24 199.427 1029.06V1006.92C199.427 1000.74 197.883 996.109 194.794 993.02C191.704 989.931 187.585 988.386 182.437 988.386C176.773 988.386 172.654 989.931 169.565 993.02C166.476 996.109 164.931 1000.74 164.931 1006.41V1028.54C164.931 1034.72 166.476 1039.36 169.05 1042.44C172.654 1046.05 176.773 1047.59 182.437 1047.59Z" fill="#F9893D" fill-opacity="0.5"/>
<path d="M186.551 1180.94V1109.37H184.491L173.164 1135.63H157.203L174.194 1098.05H201.482V1180.94H186.551Z" fill="#F9893D" fill-opacity="0.5"/>
<path d="M182.437 1303.99C172.654 1303.99 164.931 1301.41 158.753 1295.75C153.089 1290.6 150 1282.36 150 1271.04V1250.44C150 1239.63 153.089 1231.91 158.753 1226.25C164.416 1220.58 172.654 1218.01 182.437 1218.01C192.219 1218.01 199.942 1220.58 206.121 1226.25C211.784 1231.91 214.874 1240.15 214.874 1250.44V1271.04C214.874 1281.85 211.784 1290.09 206.121 1295.75C200.457 1300.9 192.734 1303.99 182.437 1303.99ZM182.437 1290.09C188.1 1290.09 192.734 1288.54 195.309 1285.45C197.883 1282.36 199.427 1277.73 199.427 1271.55V1249.41C199.427 1243.24 197.883 1238.6 194.794 1235.51C191.704 1232.42 187.585 1230.88 182.437 1230.88C176.773 1230.88 172.654 1232.42 169.565 1235.51C166.476 1238.6 164.931 1243.24 164.931 1248.9V1271.04C164.931 1277.22 166.476 1281.85 169.05 1284.94C172.654 1288.54 176.773 1290.09 182.437 1290.09Z" fill="#F9893D" fill-opacity="0.5"/>
<path d="M186.551 1423.43V1351.87H184.491L173.164 1378.12H157.203L174.194 1340.54H201.482V1423.43H186.551Z" fill="#F9893D" fill-opacity="0.5"/>
<path d="M186.551 1544.94V1473.37H184.491L173.164 1499.63H157.203L174.194 1462.05H201.482V1544.94H186.551Z" fill="#F9893D" fill-opacity="0.5"/>
<path d="M186.558 1666.44V1594.36H184.499L173.172 1620.61H157.211L174.202 1583.03H201.49V1666.44H186.558Z" fill="#F9893D" fill-opacity="0.5"/>
<path d="M182.437 1789.49C172.654 1789.49 164.931 1786.91 158.753 1781.25C153.089 1776.1 150 1767.86 150 1756.54V1735.94C150 1725.13 153.089 1717.41 158.753 1711.75C164.416 1706.08 172.654 1703.51 182.437 1703.51C192.219 1703.51 199.942 1706.08 206.121 1711.75C211.784 1717.41 214.874 1725.65 214.874 1735.94V1756.54C214.874 1767.35 211.784 1775.59 206.121 1781.25C200.457 1786.4 192.734 1789.49 182.437 1789.49ZM182.437 1775.59C188.1 1775.59 192.734 1774.04 195.309 1770.95C197.883 1767.86 199.427 1763.23 199.427 1757.05V1734.91C199.427 1728.74 197.883 1724.1 194.794 1721.01C191.704 1717.92 187.585 1716.38 182.437 1716.38C176.773 1716.38 172.654 1717.92 169.565 1721.01C166.476 1724.1 164.931 1728.74 164.931 1734.4V1756.54C164.931 1762.72 166.476 1767.35 169.05 1770.44C172.654 1774.04 176.773 1775.59 182.437 1775.59Z" fill="#F9893D" fill-opacity="0.5"/>
<path d="M182.437 1910.48C172.654 1910.48 164.931 1907.9 158.753 1902.24C153.089 1897.09 150 1888.85 150 1877.53V1856.93C150 1846.12 153.089 1838.4 158.753 1832.73C164.416 1827.07 172.654 1824.5 182.437 1824.5C192.219 1824.5 199.942 1827.07 206.121 1832.73C211.784 1838.4 214.874 1846.63 214.874 1856.93V1877.53C214.874 1888.34 211.784 1896.57 206.121 1902.24C200.457 1907.9 192.734 1910.48 182.437 1910.48ZM182.437 1897.09C188.1 1897.09 192.734 1895.54 195.309 1892.46C197.883 1889.37 199.427 1884.73 199.427 1878.55V1856.42C199.427 1850.24 197.883 1845.6 194.794 1842.52C191.704 1839.43 187.585 1837.88 182.437 1837.88C176.773 1837.88 172.654 1839.43 169.565 1842.52C166.476 1845.6 164.931 1850.24 164.931 1855.9V1878.04C164.931 1884.22 166.476 1888.85 169.05 1891.94C172.654 1895.54 176.773 1897.09 182.437 1897.09Z" fill="#F9893D" fill-opacity="0.5"/>
<path d="M186.551 2030.44V1958.87H184.491L173.164 1985.13H157.203L174.194 1947.55H201.482V2030.44H186.551Z" fill="#F9893D" fill-opacity="0.5"/>
<path d="M182.437 2153.48C172.654 2153.48 164.931 2150.91 158.753 2145.25C153.089 2139.58 150 2131.86 150 2120.53V2099.94C150 2089.13 153.089 2081.4 158.753 2075.74C164.416 2070.08 172.654 2067.5 182.437 2067.5C192.219 2067.5 199.942 2070.08 206.121 2075.74C211.784 2081.4 214.874 2089.64 214.874 2099.94V2120.53C214.874 2131.34 211.784 2139.58 206.121 2145.25C200.457 2150.91 192.734 2153.48 182.437 2153.48ZM182.437 2140.1C188.1 2140.1 192.734 2138.55 195.309 2135.46C197.883 2132.37 199.427 2127.74 199.427 2121.56V2099.42C199.427 2093.25 197.883 2088.61 194.794 2085.52C191.704 2082.43 187.585 2080.89 182.437 2080.89C176.773 2080.89 172.654 2082.43 169.565 2085.52C166.476 2088.61 164.931 2093.25 164.931 2098.91V2121.05C164.931 2127.23 166.476 2131.86 169.05 2134.95C172.654 2138.55 176.773 2140.1 182.437 2140.1Z" fill="#F9893D" fill-opacity="0.5"/>
<path opacity="0.78" d="M186.558 2272.93V2201.36H184.499L173.172 2227.62H157.211L174.202 2190.04H201.49V2272.93H186.558Z" fill="#F9893D" fill-opacity="0.5"/>
<path opacity="0.78" d="M182.437 2395.98C172.654 2395.98 164.931 2393.4 158.753 2387.74C153.089 2382.59 150 2374.35 150 2363.03V2342.43C150 2331.62 153.089 2323.9 158.753 2318.23C164.416 2312.57 172.654 2310 182.437 2310C192.219 2310 199.942 2312.57 206.121 2318.23C211.784 2323.9 214.874 2332.13 214.874 2342.43V2363.03C214.874 2373.84 211.784 2382.07 206.121 2387.74C200.457 2393.4 192.734 2395.98 182.437 2395.98ZM182.437 2382.59C188.1 2382.59 192.734 2381.04 195.309 2377.96C197.883 2374.87 199.427 2370.23 199.427 2364.05V2341.92C199.427 2335.74 197.883 2331.1 194.794 2328.02C191.704 2324.93 187.585 2323.38 182.437 2323.38C176.773 2323.38 172.654 2324.93 169.565 2328.02C166.476 2331.1 164.931 2335.74 164.931 2341.4V2363.54C164.931 2369.72 166.476 2374.35 169.05 2377.44C172.654 2381.04 176.773 2382.59 182.437 2382.59Z" fill="#F9893D" fill-opacity="0.5"/>
<path opacity="0.78" d="M182.437 2517.48C172.654 2517.48 164.931 2514.91 158.753 2509.24C153.089 2504.09 150 2495.86 150 2484.53V2463.94C150 2453.12 153.089 2445.4 158.753 2439.74C164.416 2434.07 172.654 2431.5 182.437 2431.5C192.219 2431.5 199.942 2434.07 206.121 2439.74C211.784 2445.4 214.874 2453.64 214.874 2463.94V2484.53C214.874 2495.34 211.784 2503.58 206.121 2509.24C200.457 2514.91 192.734 2517.48 182.437 2517.48ZM182.437 2504.09C188.1 2504.09 192.734 2502.55 195.309 2499.46C197.883 2496.37 199.427 2491.74 199.427 2485.56V2463.42C199.427 2457.24 197.883 2452.61 194.794 2449.52C191.704 2446.43 187.585 2444.89 182.437 2444.89C176.773 2444.89 172.654 2446.43 169.565 2449.52C166.476 2452.61 164.931 2457.24 164.931 2462.91V2485.04C164.931 2491.22 166.476 2495.86 169.05 2498.95C172.654 2502.55 176.773 2504.09 182.437 2504.09Z" fill="#F9893D" fill-opacity="0.5"/>
<path opacity="0.78" d="M186.558 2637.44V2565.87H184.499L173.172 2592.13H157.211L174.202 2554.55H201.49V2637.44H186.558Z" fill="#F9893D" fill-opacity="0.5"/>
<path opacity="0.78" d="M182.437 2760.49C172.654 2760.49 164.931 2757.91 158.753 2752.25C153.089 2746.59 150 2738.86 150 2727.54V2706.94C150 2696.13 153.089 2688.41 158.753 2682.75C164.416 2677.08 172.654 2674.51 182.437 2674.51C192.219 2674.51 199.942 2677.08 206.121 2682.75C211.784 2688.41 214.874 2696.65 214.874 2706.94V2727.54C214.874 2738.35 211.784 2746.59 206.121 2752.25C200.457 2757.4 192.734 2760.49 182.437 2760.49ZM182.437 2746.59C188.1 2746.59 192.734 2745.04 195.309 2741.95C197.883 2738.86 199.427 2734.23 199.427 2728.05V2705.91C199.427 2699.74 197.883 2695.1 194.794 2692.01C191.704 2688.92 187.585 2687.38 182.437 2687.38C176.773 2687.38 172.654 2688.92 169.565 2692.01C166.476 2695.1 164.931 2699.74 164.931 2705.4V2727.54C164.931 2733.72 166.476 2738.35 169.05 2741.44C172.654 2745.04 176.773 2746.59 182.437 2746.59Z" fill="#F9893D" fill-opacity="0.5"/>
<path opacity="0.78" d="M186.558 2879.93V2808.37H184.499L173.172 2834.62H157.211L174.202 2797.04H201.49V2879.93H186.558Z" fill="#F9893D" fill-opacity="0.5"/>
<path opacity="0.78" d="M182.437 3002.98C172.654 3002.98 164.931 3000.4 158.753 2994.74C153.089 2989.59 150 2981.36 150 2970.03V2949.43C150 2938.62 153.089 2930.9 158.753 2925.24C164.416 2919.57 172.654 2917 182.437 2917C192.219 2917 199.942 2919.57 206.121 2925.24C211.784 2930.9 214.874 2939.14 214.874 2949.43V2970.03C214.874 2980.84 211.784 2989.08 206.121 2994.74C200.457 3000.4 192.734 3002.98 182.437 3002.98ZM182.437 2989.59C188.1 2989.59 192.734 2988.05 195.309 2984.96C197.883 2981.87 199.427 2977.24 199.427 2971.06V2948.92C199.427 2942.74 197.883 2938.11 194.794 2935.02C191.704 2931.93 187.585 2930.39 182.437 2930.39C176.773 2930.39 172.654 2931.93 169.565 2935.02C166.476 2938.11 164.931 2942.74 164.931 2948.41V2970.54C164.931 2976.72 166.476 2981.36 169.05 2984.44C172.654 2988.05 176.773 2989.59 182.437 2989.59Z" fill="#F9893D" fill-opacity="0.5"/>
<path opacity="0.78" d="M186.558 3122.94V3051.37H184.499L173.172 3077.63H157.211L174.202 3040.05H201.49V3122.94H186.558Z" fill="#F9893D" fill-opacity="0.5"/>
<path opacity="0.78" d="M182.437 3245.99C172.654 3245.99 164.931 3243.41 158.753 3237.75C153.089 3232.6 150 3224.36 150 3213.04V3192.44C150 3181.63 153.089 3173.91 158.753 3168.25C164.416 3162.58 172.654 3160.01 182.437 3160.01C192.219 3160.01 199.942 3162.58 206.121 3168.25C211.784 3173.91 214.874 3182.15 214.874 3192.44V3213.04C214.874 3223.85 211.784 3232.09 206.121 3237.75C200.457 3242.9 192.734 3245.99 182.437 3245.99ZM182.437 3232.09C188.1 3232.09 192.734 3230.54 195.309 3227.45C197.883 3224.36 199.427 3219.73 199.427 3213.55V3191.41C199.427 3185.24 197.883 3180.6 194.794 3177.51C191.704 3174.42 187.585 3172.88 182.437 3172.88C176.773 3172.88 172.654 3174.42 169.565 3177.51C166.476 3180.6 164.931 3185.24 164.931 3190.9V3213.04C164.931 3219.22 166.476 3223.85 169.05 3226.94C172.654 3230.54 176.773 3232.09 182.437 3232.09Z" fill="#F9893D" fill-opacity="0.5"/>
</g>
</g>
<defs>
<clipPath id="clip0_155_6292">
<rect width="1440" height="3166" fill="white" transform="translate(0 4)"/>
</clipPath>
</defs>
</svg>
