<svg width="30" height="30" viewBox="0 0 30 30" fill="none" xmlns="http://www.w3.org/2000/svg">
<circle cx="15" cy="15" r="14.5" fill="#1A1A1A" stroke="#F9893D"/>
<path d="M16.6801 15.0001L22.5601 9.1201C22.7792 8.89655 22.9012 8.59558 22.8996 8.28259C22.898 7.96959 22.773 7.66987 22.5517 7.44854C22.3303 7.22722 22.0306 7.10218 21.7176 7.1006C21.4046 7.09902 21.1036 7.22102 20.8801 7.4401L15.0001 13.3201L9.1201 7.4401C8.89655 7.22102 8.59558 7.09902 8.28259 7.1006C7.96959 7.10218 7.66987 7.22722 7.44854 7.44854C7.22722 7.66987 7.10218 7.96959 7.1006 8.28259C7.09902 8.59558 7.22102 8.89655 7.4401 9.1201L13.3201 15.0001L7.4401 20.8801C7.22102 21.1036 7.09902 21.4046 7.1006 21.7176C7.10218 22.0306 7.22722 22.3303 7.44854 22.5517C7.66987 22.773 7.96959 22.898 8.28259 22.8996C8.59558 22.9012 8.89655 22.7792 9.1201 22.5601L15.0001 16.6801L20.8801 22.5601C21.1036 22.7792 21.4046 22.9012 21.7176 22.8996C22.0306 22.898 22.3303 22.773 22.5517 22.5517C22.773 22.3303 22.898 22.0306 22.8996 21.7176C22.9012 21.4046 22.7792 21.1036 22.5601 20.8801L16.6801 15.0001Z" fill="#F9893D"/>
</svg>
