<svg width="1920" height="3206" viewBox="0 0 1920 3206" fill="none" xmlns="http://www.w3.org/2000/svg">
<g clip-path="url(#clip0_149_7275)">
<rect width="1920" height="3206" fill="#1A1A1A"/>
<g clip-path="url(#clip1_149_7275)">
<g opacity="0.18">
<path d="M500.918 83.4051V11.3266H498.858L487.531 37.5838H471.57L488.561 0H515.849V83.4051H500.918Z" fill="#F9893D" fill-opacity="0.5"/>
<path d="M497.312 209.026C487.529 209.026 479.806 206.452 473.628 200.789C467.449 195.125 464.875 187.403 464.875 176.076V155.482C464.875 144.67 467.964 136.948 473.628 131.284C479.291 125.621 487.529 123.047 497.312 123.047C507.094 123.047 514.817 125.621 520.996 131.284C526.659 136.948 529.749 145.185 529.749 155.482V176.076C529.749 186.888 526.659 195.125 520.996 200.789C514.817 206.452 507.094 209.026 497.312 209.026ZM497.312 195.64C502.975 195.64 507.609 194.096 510.184 191.007C512.758 187.917 514.303 183.284 514.303 177.106V154.967C514.303 148.789 512.758 144.156 509.669 141.066C506.579 137.977 502.461 136.433 497.312 136.433C491.648 136.433 487.529 137.977 484.44 141.066C481.351 144.156 479.806 148.789 479.806 154.452V176.591C479.806 182.769 481.351 187.403 483.925 190.492C487.014 194.096 491.648 195.64 497.312 195.64Z" fill="#F9893D" fill-opacity="0.5"/>
<path d="M500.918 332.077V259.998H498.858L487.531 286.256H471.57L488.561 248.672H515.849V331.562H500.918V332.077Z" fill="#F9893D" fill-opacity="0.5"/>
<path d="M500.918 456.152V384.588H498.858L487.531 410.845H471.57L488.561 373.262H515.849V456.152H500.918Z" fill="#F9893D" fill-opacity="0.5"/>
<path d="M500.918 580.746V508.667H498.858L487.531 534.924H471.57L489.076 497.855H516.364V580.746H500.918Z" fill="#F9893D" fill-opacity="0.5"/>
<path d="M497.312 706.37C487.529 706.37 479.806 703.796 473.628 698.132C467.449 692.469 464.875 684.746 464.875 673.42V652.826C464.875 642.014 467.964 634.291 473.628 628.628C479.291 622.965 487.529 620.391 497.312 620.391C507.094 620.391 514.817 622.965 520.996 628.628C526.659 634.291 529.749 642.529 529.749 652.826V673.42C529.749 684.232 526.659 692.469 520.996 698.132C514.817 703.796 507.094 706.37 497.312 706.37ZM497.312 692.984C502.975 692.984 507.609 691.439 510.184 688.35C512.758 685.261 514.303 680.628 514.303 674.449V652.311C514.303 646.133 512.758 641.499 509.669 638.41C506.579 635.321 502.461 633.777 497.312 633.777C491.648 633.777 487.529 635.321 484.44 638.41C481.351 641.499 479.806 646.133 479.806 651.796V673.935C479.806 680.113 481.351 684.746 483.925 687.835C487.014 691.439 491.648 692.984 497.312 692.984Z" fill="#F9893D" fill-opacity="0.5"/>
<path d="M497.312 830.964C487.529 830.964 479.806 828.389 473.628 822.726C467.449 817.063 464.875 809.34 464.875 798.014V777.42C464.875 766.608 467.964 758.885 473.628 753.222C479.291 747.559 487.529 744.984 497.312 744.984C507.094 744.984 514.817 747.559 520.996 753.222C526.659 758.885 529.749 767.123 529.749 777.42V798.014C529.749 808.825 526.659 817.063 520.996 822.726C514.817 828.389 507.094 830.964 497.312 830.964ZM497.312 817.578C502.975 817.578 507.609 816.033 510.184 812.944C512.758 809.855 514.303 805.221 514.303 799.043V776.905C514.303 770.727 512.758 766.093 509.669 763.004C506.579 759.915 502.461 758.37 497.312 758.37C491.648 758.37 487.529 759.915 484.44 763.004C481.351 766.093 479.806 770.727 479.806 776.39V798.528C479.806 804.706 481.351 809.34 483.925 812.429C487.014 816.033 491.648 817.578 497.312 817.578Z" fill="#F9893D" fill-opacity="0.5"/>
<path d="M500.918 953.496V881.932H498.858L487.531 908.189H471.57L488.561 870.605H515.849V953.496H500.918Z" fill="#F9893D" fill-opacity="0.5"/>
<path d="M497.312 1079.63C487.529 1079.63 479.806 1077.06 473.628 1071.39C467.449 1065.73 464.875 1058.01 464.875 1046.68V1026.09C464.875 1015.28 467.964 1007.55 473.628 1001.89C479.291 996.227 487.529 993.652 497.312 993.652C507.094 993.652 514.817 996.227 520.996 1001.89C526.659 1007.55 529.749 1015.79 529.749 1026.09V1046.68C529.749 1057.49 526.659 1065.73 520.996 1071.39C514.817 1077.06 507.094 1079.63 497.312 1079.63ZM497.312 1066.25C502.975 1066.25 507.609 1064.7 510.184 1061.61C512.758 1058.52 514.303 1053.89 514.303 1047.71V1025.57C514.303 1019.39 512.758 1014.76 509.669 1011.67C506.579 1008.58 502.461 1007.04 497.312 1007.04C491.648 1007.04 487.529 1008.58 484.44 1011.67C481.351 1014.76 479.806 1019.39 479.806 1025.06V1047.2C479.806 1053.37 481.351 1058.01 483.925 1061.1C487.014 1064.7 491.648 1066.25 497.312 1066.25Z" fill="#F9893D" fill-opacity="0.5"/>
<path opacity="0.78" d="M500.918 1202.16V1130.6H498.858L487.531 1156.86H471.57L488.561 1119.27H515.849V1202.16H500.918Z" fill="#F9893D" fill-opacity="0.5"/>
<path opacity="0.78" d="M497.312 1328.3C487.529 1328.3 479.806 1325.73 473.628 1320.07C467.449 1314.4 464.875 1306.68 464.875 1295.35V1274.76C464.875 1263.95 467.964 1256.23 473.628 1250.56C479.291 1244.9 487.529 1242.32 497.312 1242.32C507.094 1242.32 514.817 1244.9 520.996 1250.56C526.659 1256.23 529.749 1264.46 529.749 1274.76V1295.35C529.749 1306.17 526.659 1314.4 520.996 1320.07C514.817 1325.73 507.094 1328.3 497.312 1328.3ZM497.312 1314.92C502.975 1314.92 507.609 1313.37 510.184 1310.28C512.758 1307.19 514.303 1302.56 514.303 1296.38V1274.24C514.303 1268.07 512.758 1263.43 509.669 1260.34C506.579 1257.25 502.461 1255.71 497.312 1255.71C491.648 1255.71 487.529 1257.25 484.44 1260.34C481.351 1263.43 479.806 1268.07 479.806 1273.73V1295.87C479.806 1302.05 481.351 1306.68 483.925 1309.77C487.014 1313.37 491.648 1314.92 497.312 1314.92Z" fill="#F9893D" fill-opacity="0.5"/>
<path opacity="0.78" d="M497.312 1452.38C487.529 1452.38 479.806 1449.81 473.628 1444.14C467.449 1438.48 464.875 1430.76 464.875 1419.43V1398.84C464.875 1388.03 467.964 1380.3 473.628 1374.64C479.291 1368.98 487.529 1366.4 497.312 1366.4C507.094 1366.4 514.817 1368.98 520.996 1374.64C526.659 1380.3 529.749 1388.54 529.749 1398.84V1419.43C529.749 1430.24 526.659 1438.48 520.996 1444.14C514.817 1449.81 507.094 1452.38 497.312 1452.38ZM497.312 1439C502.975 1439 507.609 1437.45 510.184 1434.36C512.758 1431.27 514.303 1426.64 514.303 1420.46V1398.32C514.303 1392.14 512.758 1387.51 509.669 1384.42C506.579 1381.33 502.461 1379.79 497.312 1379.79C491.648 1379.79 487.529 1381.33 484.44 1384.42C481.351 1387.51 479.806 1392.14 479.806 1397.81V1419.95C479.806 1426.12 481.351 1430.76 483.925 1433.85C487.014 1437.45 491.648 1439 497.312 1439Z" fill="#F9893D" fill-opacity="0.5"/>
<path d="M500.918 1575.43V1503.87H498.858L487.531 1530.12H471.57L488.561 1492.54H515.849V1575.43H500.918Z" fill="#F9893D" fill-opacity="0.5"/>
<path d="M497.312 1701.05C487.529 1701.05 479.806 1698.48 473.628 1692.82C467.449 1687.15 464.875 1679.43 464.875 1668.1V1647.51C464.875 1636.7 467.964 1628.98 473.628 1623.31C479.291 1617.65 487.529 1615.07 497.312 1615.07C507.094 1615.07 514.817 1617.65 520.996 1623.31C526.659 1628.98 529.749 1637.21 529.749 1647.51V1668.1C529.749 1678.92 526.659 1687.15 520.996 1692.82C514.817 1698.48 507.094 1701.05 497.312 1701.05ZM497.312 1687.67C502.975 1687.67 507.609 1686.12 510.184 1683.03C512.758 1679.94 514.303 1675.31 514.303 1669.13V1646.99C514.303 1640.82 512.758 1636.18 509.669 1633.09C506.579 1630 502.461 1628.46 497.312 1628.46C491.648 1628.46 487.529 1630 484.44 1633.09C481.351 1636.18 479.806 1640.82 479.806 1646.48V1668.62C479.806 1674.8 481.351 1679.43 483.925 1682.52C487.014 1686.12 491.648 1687.67 497.312 1687.67Z" fill="#F9893D" fill-opacity="0.5"/>
<path d="M500.918 1824.1V1752.54H498.858L487.531 1778.79H471.57L488.561 1741.21H515.849V1824.1H500.918Z" fill="#F9893D" fill-opacity="0.5"/>
<path d="M497.312 1949.72C487.529 1949.72 479.806 1947.15 473.628 1941.48C467.449 1935.82 464.875 1928.1 464.875 1916.77V1896.18C464.875 1885.37 467.964 1877.64 473.628 1871.98C479.291 1866.32 487.529 1863.74 497.312 1863.74C507.094 1863.74 514.817 1866.32 520.996 1871.98C526.659 1877.64 529.749 1885.88 529.749 1896.18V1916.77C529.749 1927.58 526.659 1935.82 520.996 1941.48C514.817 1947.15 507.094 1949.72 497.312 1949.72ZM497.312 1936.34C502.975 1936.34 507.609 1934.79 510.184 1931.7C512.758 1928.61 514.303 1923.98 514.303 1917.8V1895.66C514.303 1889.48 512.758 1884.85 509.669 1881.76C506.579 1878.67 502.461 1877.13 497.312 1877.13C491.648 1877.13 487.529 1878.67 484.44 1881.76C481.351 1884.85 479.806 1889.48 479.806 1895.15V1917.29C479.806 1923.46 481.351 1928.1 483.925 1931.19C487.014 1934.79 491.648 1936.34 497.312 1936.34Z" fill="#F9893D" fill-opacity="0.5"/>
<path d="M500.918 2072.77V2001.21H498.858L487.531 2027.47H471.57L488.561 1989.88H515.849V2072.77H500.918Z" fill="#F9893D" fill-opacity="0.5"/>
<path d="M497.312 2198.39C487.529 2198.39 479.806 2195.82 473.628 2190.16C467.449 2184.49 464.875 2176.77 464.875 2165.44V2144.85C464.875 2134.04 467.964 2126.31 473.628 2120.65C479.291 2114.99 487.529 2112.41 497.312 2112.41C507.094 2112.41 514.817 2114.99 520.996 2120.65C526.659 2126.31 529.749 2134.55 529.749 2144.85V2165.44C529.749 2176.25 526.659 2184.49 520.996 2190.16C514.817 2195.82 507.094 2198.39 497.312 2198.39ZM497.312 2185.01C502.975 2185.01 507.609 2183.46 510.184 2180.37C512.758 2177.28 514.303 2172.65 514.303 2166.47V2144.33C514.303 2138.16 512.758 2133.52 509.669 2130.43C506.579 2127.34 502.461 2125.8 497.312 2125.8C491.648 2125.8 487.529 2127.34 484.44 2130.43C481.351 2133.52 479.806 2138.16 479.806 2143.82V2165.96C479.806 2172.14 481.351 2176.77 483.925 2179.86C487.014 2183.46 491.648 2185.01 497.312 2185.01Z" fill="#F9893D" fill-opacity="0.5"/>
<path d="M500.918 2321.44V2249.88H498.858L487.531 2276.13H471.57L488.561 2238.55H515.849V2321.44H500.918Z" fill="#F9893D" fill-opacity="0.5"/>
</g>
<g opacity="0.18">
<path d="M1696.4 164.048V105.241H1694.72L1685.48 126.664H1672.46L1686.32 96H1708.59V164.048H1696.4Z" fill="#F9893D" fill-opacity="0.5"/>
<path d="M1693.46 266.539C1685.48 266.539 1679.18 264.439 1674.14 259.818C1669.1 255.197 1667 248.897 1667 239.656V222.854C1667 214.033 1669.52 207.732 1674.14 203.111C1678.76 198.491 1685.48 196.391 1693.46 196.391C1701.45 196.391 1707.75 198.491 1712.79 203.111C1717.41 207.732 1719.93 214.453 1719.93 222.854V239.656C1719.93 248.477 1717.41 255.197 1712.79 259.818C1707.75 264.439 1701.45 266.539 1693.46 266.539ZM1693.46 255.617C1698.09 255.617 1701.87 254.357 1703.97 251.837C1706.07 249.317 1707.33 245.536 1707.33 240.496V222.434C1707.33 217.393 1706.07 213.613 1703.55 211.092C1701.03 208.572 1697.67 207.312 1693.46 207.312C1688.84 207.312 1685.48 208.572 1682.96 211.092C1680.44 213.613 1679.18 217.393 1679.18 222.014V240.076C1679.18 245.116 1680.44 248.897 1682.54 251.417C1685.06 254.357 1688.84 255.617 1693.46 255.617Z" fill="#F9893D" fill-opacity="0.5"/>
<path d="M1696.4 366.931V308.124H1694.72L1685.48 329.546H1672.46L1686.32 298.883H1708.59V366.511H1696.4V366.931Z" fill="#F9893D" fill-opacity="0.5"/>
<path d="M1696.4 468.163V409.776H1694.72L1685.48 431.199H1672.46L1686.32 400.535H1708.59V468.163H1696.4Z" fill="#F9893D" fill-opacity="0.5"/>
<path d="M1696.4 569.815V511.009H1694.72L1685.48 532.431H1672.46L1686.74 502.188H1709.01V569.815H1696.4Z" fill="#F9893D" fill-opacity="0.5"/>
<path d="M1693.46 672.304C1685.48 672.304 1679.18 670.204 1674.14 665.584C1669.1 660.963 1667 654.662 1667 645.421V628.619C1667 619.798 1669.52 613.498 1674.14 608.877C1678.76 604.256 1685.48 602.156 1693.46 602.156C1701.45 602.156 1707.75 604.256 1712.79 608.877C1717.41 613.498 1719.93 620.218 1719.93 628.619V645.421C1719.93 654.242 1717.41 660.963 1712.79 665.584C1707.75 670.204 1701.45 672.304 1693.46 672.304ZM1693.46 661.383C1698.09 661.383 1701.87 660.123 1703.97 657.603C1706.07 655.082 1707.33 651.302 1707.33 646.261V628.199C1707.33 623.159 1706.07 619.378 1703.55 616.858C1701.03 614.338 1697.67 613.078 1693.46 613.078C1688.84 613.078 1685.48 614.338 1682.96 616.858C1680.44 619.378 1679.18 623.159 1679.18 627.779V645.841C1679.18 650.882 1680.44 654.662 1682.54 657.183C1685.06 660.123 1688.84 661.383 1693.46 661.383Z" fill="#F9893D" fill-opacity="0.5"/>
<path d="M1693.46 773.961C1685.48 773.961 1679.18 771.86 1674.14 767.24C1669.1 762.619 1667 756.319 1667 747.078V730.276C1667 721.455 1669.52 715.154 1674.14 710.533C1678.76 705.913 1685.48 703.812 1693.46 703.812C1701.45 703.812 1707.75 705.913 1712.79 710.533C1717.41 715.154 1719.93 721.875 1719.93 730.276V747.078C1719.93 755.899 1717.41 762.619 1712.79 767.24C1707.75 771.86 1701.45 773.961 1693.46 773.961ZM1693.46 763.039C1698.09 763.039 1701.87 761.779 1703.97 759.259C1706.07 756.739 1707.33 752.958 1707.33 747.918V729.856C1707.33 724.815 1706.07 721.034 1703.55 718.514C1701.03 715.994 1697.67 714.734 1693.46 714.734C1688.84 714.734 1685.48 715.994 1682.96 718.514C1680.44 721.034 1679.18 724.815 1679.18 729.435V747.498C1679.18 752.538 1680.44 756.319 1682.54 758.839C1685.06 761.779 1688.84 763.039 1693.46 763.039Z" fill="#F9893D" fill-opacity="0.5"/>
<path d="M1696.4 873.933V815.546H1694.72L1685.48 836.968H1672.46L1686.32 806.305H1708.59V873.933H1696.4Z" fill="#F9893D" fill-opacity="0.5"/>
<path d="M1693.46 976.843C1685.48 976.843 1679.18 974.743 1674.14 970.123C1669.1 965.502 1667 959.201 1667 949.96V933.158C1667 924.337 1669.52 918.037 1674.14 913.416C1678.76 908.796 1685.48 906.695 1693.46 906.695C1701.45 906.695 1707.75 908.796 1712.79 913.416C1717.41 918.037 1719.93 924.757 1719.93 933.158V949.96C1719.93 958.781 1717.41 965.502 1712.79 970.123C1707.75 974.743 1701.45 976.843 1693.46 976.843ZM1693.46 965.922C1698.09 965.922 1701.87 964.662 1703.97 962.142C1706.07 959.621 1707.33 955.841 1707.33 950.8V932.738C1707.33 927.698 1706.07 923.917 1703.55 921.397C1701.03 918.877 1697.67 917.617 1693.46 917.617C1688.84 917.617 1685.48 918.877 1682.96 921.397C1680.44 923.917 1679.18 927.698 1679.18 932.318V950.38C1679.18 955.421 1680.44 959.201 1682.54 961.722C1685.06 964.662 1688.84 965.922 1693.46 965.922Z" fill="#F9893D" fill-opacity="0.5"/>
<path opacity="0.78" d="M1696.4 1076.82V1018.43H1694.72L1685.48 1039.85H1672.46L1686.32 1009.19H1708.59V1076.82H1696.4Z" fill="#F9893D" fill-opacity="0.5"/>
<path opacity="0.78" d="M1693.46 1179.73C1685.48 1179.73 1679.18 1177.63 1674.14 1173.01C1669.1 1168.38 1667 1162.08 1667 1152.84V1136.04C1667 1127.22 1669.52 1120.92 1674.14 1116.3C1678.76 1111.68 1685.48 1109.58 1693.46 1109.58C1701.45 1109.58 1707.75 1111.68 1712.79 1116.3C1717.41 1120.92 1719.93 1127.64 1719.93 1136.04V1152.84C1719.93 1161.66 1717.41 1168.38 1712.79 1173.01C1707.75 1177.63 1701.45 1179.73 1693.46 1179.73ZM1693.46 1168.8C1698.09 1168.8 1701.87 1167.54 1703.97 1165.02C1706.07 1162.5 1707.33 1158.72 1707.33 1153.68V1135.62C1707.33 1130.58 1706.07 1126.8 1703.55 1124.28C1701.03 1121.76 1697.67 1120.5 1693.46 1120.5C1688.84 1120.5 1685.48 1121.76 1682.96 1124.28C1680.44 1126.8 1679.18 1130.58 1679.18 1135.2V1153.26C1679.18 1158.3 1680.44 1162.08 1682.54 1164.6C1685.06 1167.54 1688.84 1168.8 1693.46 1168.8Z" fill="#F9893D" fill-opacity="0.5"/>
<path opacity="0.78" d="M1693.46 1280.96C1685.48 1280.96 1679.18 1278.86 1674.14 1274.24C1669.1 1269.62 1667 1263.31 1667 1254.07V1237.27C1667 1228.45 1669.52 1222.15 1674.14 1217.53C1678.76 1212.91 1685.48 1210.81 1693.46 1210.81C1701.45 1210.81 1707.75 1212.91 1712.79 1217.53C1717.41 1222.15 1719.93 1228.87 1719.93 1237.27V1254.07C1719.93 1262.89 1717.41 1269.62 1712.79 1274.24C1707.75 1278.86 1701.45 1280.96 1693.46 1280.96ZM1693.46 1270.04C1698.09 1270.04 1701.87 1268.78 1703.97 1266.26C1706.07 1263.73 1707.33 1259.95 1707.33 1254.91V1236.85C1707.33 1231.81 1706.07 1228.03 1703.55 1225.51C1701.03 1222.99 1697.67 1221.73 1693.46 1221.73C1688.84 1221.73 1685.48 1222.99 1682.96 1225.51C1680.44 1228.03 1679.18 1231.81 1679.18 1236.43V1254.49C1679.18 1259.53 1680.44 1263.31 1682.54 1265.83C1685.06 1268.78 1688.84 1270.04 1693.46 1270.04Z" fill="#F9893D" fill-opacity="0.5"/>
<path d="M1696.4 1381.35V1322.96H1694.72L1685.48 1344.38H1672.46L1686.32 1313.72H1708.59V1381.35H1696.4Z" fill="#F9893D" fill-opacity="0.5"/>
<path d="M1693.46 1483.84C1685.48 1483.84 1679.18 1481.74 1674.14 1477.12C1669.1 1472.5 1667 1466.2 1667 1456.96V1440.15C1667 1431.33 1669.52 1425.03 1674.14 1420.41C1678.76 1415.79 1685.48 1413.69 1693.46 1413.69C1701.45 1413.69 1707.75 1415.79 1712.79 1420.41C1717.41 1425.03 1719.93 1431.75 1719.93 1440.15V1456.96C1719.93 1465.78 1717.41 1472.5 1712.79 1477.12C1707.75 1481.74 1701.45 1483.84 1693.46 1483.84ZM1693.46 1472.92C1698.09 1472.92 1701.87 1471.66 1703.97 1469.14C1706.07 1466.62 1707.33 1462.84 1707.33 1457.8V1439.73C1707.33 1434.69 1706.07 1430.91 1703.55 1428.39C1701.03 1425.87 1697.67 1424.61 1693.46 1424.61C1688.84 1424.61 1685.48 1425.87 1682.96 1428.39C1680.44 1430.91 1679.18 1434.69 1679.18 1439.31V1457.38C1679.18 1462.42 1680.44 1466.2 1682.54 1468.72C1685.06 1471.66 1688.84 1472.92 1693.46 1472.92Z" fill="#F9893D" fill-opacity="0.5"/>
<path d="M1696.4 1584.23V1525.85H1694.72L1685.48 1547.27H1672.46L1686.32 1516.61H1708.59V1584.23H1696.4Z" fill="#F9893D" fill-opacity="0.5"/>
<path d="M1693.46 1686.73C1685.48 1686.73 1679.18 1684.63 1674.14 1680.01C1669.1 1675.38 1667 1669.08 1667 1659.84V1643.04C1667 1634.22 1669.52 1627.92 1674.14 1623.3C1678.76 1618.68 1685.48 1616.58 1693.46 1616.58C1701.45 1616.58 1707.75 1618.68 1712.79 1623.3C1717.41 1627.92 1719.93 1634.64 1719.93 1643.04V1659.84C1719.93 1668.66 1717.41 1675.38 1712.79 1680.01C1707.75 1684.63 1701.45 1686.73 1693.46 1686.73ZM1693.46 1675.81C1698.09 1675.81 1701.87 1674.54 1703.97 1672.02C1706.07 1669.5 1707.33 1665.72 1707.33 1660.68V1642.62C1707.33 1637.58 1706.07 1633.8 1703.55 1631.28C1701.03 1628.76 1697.67 1627.5 1693.46 1627.5C1688.84 1627.5 1685.48 1628.76 1682.96 1631.28C1680.44 1633.8 1679.18 1637.58 1679.18 1642.2V1660.26C1679.18 1665.3 1680.44 1669.08 1682.54 1671.6C1685.06 1674.54 1688.84 1675.81 1693.46 1675.81Z" fill="#F9893D" fill-opacity="0.5"/>
<path d="M1696.4 1787.12V1728.73H1694.72L1685.48 1750.15H1672.46L1686.32 1719.49H1708.59V1787.12H1696.4Z" fill="#F9893D" fill-opacity="0.5"/>
<path d="M1693.46 1889.61C1685.48 1889.61 1679.18 1887.51 1674.14 1882.89C1669.1 1878.27 1667 1871.97 1667 1862.73V1845.92C1667 1837.1 1669.52 1830.8 1674.14 1826.18C1678.76 1821.56 1685.48 1819.46 1693.46 1819.46C1701.45 1819.46 1707.75 1821.56 1712.79 1826.18C1717.41 1830.8 1719.93 1837.52 1719.93 1845.92V1862.73C1719.93 1871.55 1717.41 1878.27 1712.79 1882.89C1707.75 1887.51 1701.45 1889.61 1693.46 1889.61ZM1693.46 1878.69C1698.09 1878.69 1701.87 1877.43 1703.97 1874.91C1706.07 1872.39 1707.33 1868.61 1707.33 1863.57V1845.5C1707.33 1840.46 1706.07 1836.68 1703.55 1834.16C1701.03 1831.64 1697.67 1830.38 1693.46 1830.38C1688.84 1830.38 1685.48 1831.64 1682.96 1834.16C1680.44 1836.68 1679.18 1840.46 1679.18 1845.08V1863.15C1679.18 1868.19 1680.44 1871.97 1682.54 1874.49C1685.06 1877.43 1688.84 1878.69 1693.46 1878.69Z" fill="#F9893D" fill-opacity="0.5"/>
<path d="M1696.4 1990V1931.61H1694.72L1685.48 1953.03H1672.46L1686.32 1922.37H1708.59V1990H1696.4Z" fill="#F9893D" fill-opacity="0.5"/>
</g>
<g opacity="0.18">
<path d="M1687.34 2550.5C1677.55 2550.5 1669.83 2547.92 1663.65 2542.26C1657.99 2537.11 1654.9 2528.88 1654.9 2517.55V2496.95C1654.9 2486.14 1657.99 2478.42 1663.65 2472.76C1669.31 2467.09 1677.55 2464.52 1687.34 2464.52C1697.12 2464.52 1704.84 2467.09 1711.02 2472.76C1716.68 2478.42 1719.77 2486.66 1719.77 2496.95V2517.55C1719.77 2528.36 1716.68 2536.6 1711.02 2542.26C1705.36 2547.92 1697.63 2550.5 1687.34 2550.5ZM1687.34 2537.11C1693 2537.11 1697.63 2535.57 1700.21 2532.48C1702.78 2529.39 1704.33 2524.76 1704.33 2518.58V2496.44C1704.33 2490.26 1702.78 2485.63 1699.69 2482.54C1696.6 2479.45 1692.48 2477.91 1687.34 2477.91C1681.67 2477.91 1677.55 2479.45 1674.46 2482.54C1671.37 2485.63 1669.83 2490.26 1669.83 2495.93V2518.06C1669.83 2524.24 1671.37 2528.88 1673.95 2531.96C1677.55 2535.57 1681.67 2537.11 1687.34 2537.11Z" fill="#F9893D" fill-opacity="0.5"/>
<path d="M1691.46 2670.46V2598.9H1689.4L1678.07 2625.15H1662.11L1679.1 2587.57H1706.39V2670.46H1691.46Z" fill="#F9893D" fill-opacity="0.5"/>
<path d="M1687.34 2793.51C1677.55 2793.51 1669.83 2790.93 1663.65 2785.27C1657.99 2779.61 1654.9 2771.88 1654.9 2760.56V2739.96C1654.9 2729.15 1657.99 2721.43 1663.65 2715.77C1669.31 2710.1 1677.55 2707.53 1687.34 2707.53C1697.12 2707.53 1704.84 2710.1 1711.02 2715.77C1716.68 2721.43 1719.77 2729.67 1719.77 2739.96V2760.56C1719.77 2771.37 1716.68 2779.61 1711.02 2785.27C1705.36 2790.42 1697.63 2793.51 1687.34 2793.51ZM1687.34 2779.61C1693 2779.61 1697.63 2778.06 1700.21 2774.97C1702.78 2771.88 1704.33 2767.25 1704.33 2761.07V2738.93C1704.33 2732.75 1702.78 2728.12 1699.69 2725.03C1696.6 2721.94 1692.48 2720.4 1687.34 2720.4C1681.67 2720.4 1677.55 2721.94 1674.46 2725.03C1671.37 2728.12 1669.83 2732.75 1669.83 2738.42V2760.56C1669.83 2766.73 1671.37 2771.37 1673.95 2774.46C1677.55 2778.06 1681.67 2779.61 1687.34 2779.61Z" fill="#F9893D" fill-opacity="0.5"/>
<path d="M1691.46 2912.95V2841.39H1689.4L1678.07 2867.65H1662.11L1679.1 2830.06H1706.39V2912.95H1691.46Z" fill="#F9893D" fill-opacity="0.5"/>
<path d="M1687.34 3036C1677.55 3036 1669.83 3033.42 1663.65 3027.76C1657.99 3022.61 1654.9 3014.38 1654.9 3003.05V2982.45C1654.9 2971.64 1657.99 2963.92 1663.65 2958.26C1669.31 2952.59 1677.55 2950.02 1687.34 2950.02C1697.12 2950.02 1704.84 2952.59 1711.02 2958.26C1716.68 2963.92 1719.77 2972.16 1719.77 2982.45V3003.05C1719.77 3013.86 1716.68 3022.1 1711.02 3027.76C1705.36 3033.42 1697.63 3036 1687.34 3036ZM1687.34 3022.61C1693 3022.61 1697.63 3021.07 1700.21 3017.98C1702.78 3014.89 1704.33 3010.26 1704.33 3004.08V2981.94C1704.33 2975.76 1702.78 2971.13 1699.69 2968.04C1696.6 2964.95 1692.48 2963.41 1687.34 2963.41C1681.67 2963.41 1677.55 2964.95 1674.46 2968.04C1671.37 2971.13 1669.83 2975.76 1669.83 2981.43V3003.56C1669.83 3009.74 1671.37 3014.38 1673.95 3017.46C1677.55 3021.07 1681.67 3022.61 1687.34 3022.61Z" fill="#F9893D" fill-opacity="0.5"/>
<path d="M1691.46 3155.96V3084.39H1689.4L1678.07 3110.65H1662.11L1679.1 3073.07H1706.39V3155.96H1691.46Z" fill="#F9893D" fill-opacity="0.5"/>
<path d="M1687.34 3279.01C1677.55 3279.01 1669.83 3276.43 1663.65 3270.77C1657.99 3265.62 1654.9 3257.38 1654.9 3246.06V3225.46C1654.9 3214.65 1657.99 3206.93 1663.65 3201.27C1669.31 3195.6 1677.55 3193.03 1687.34 3193.03C1697.12 3193.03 1704.84 3195.6 1711.02 3201.27C1716.68 3206.93 1719.77 3215.17 1719.77 3225.46V3246.06C1719.77 3256.87 1716.68 3265.11 1711.02 3270.77C1705.36 3275.92 1697.63 3279.01 1687.34 3279.01ZM1687.34 3265.11C1693 3265.11 1697.63 3263.56 1700.21 3260.47C1702.78 3257.38 1704.33 3252.75 1704.33 3246.57V3224.43C1704.33 3218.25 1702.78 3213.62 1699.69 3210.53C1696.6 3207.44 1692.48 3205.9 1687.34 3205.9C1681.67 3205.9 1677.55 3207.44 1674.46 3210.53C1671.37 3213.62 1669.83 3218.25 1669.83 3223.92V3246.06C1669.83 3252.23 1671.37 3256.87 1673.95 3259.96C1677.55 3263.56 1681.67 3265.11 1687.34 3265.11Z" fill="#F9893D" fill-opacity="0.5"/>
</g>
<g opacity="0.18">
<path d="M1422.46 2802.77C1412.68 2802.77 1404.95 2800.2 1398.78 2794.53C1392.6 2788.87 1390.02 2781.15 1390.02 2769.82V2749.23C1390.02 2738.42 1393.11 2730.69 1398.78 2725.03C1404.44 2719.37 1412.68 2716.79 1422.46 2716.79C1432.24 2716.79 1439.97 2719.37 1446.14 2725.03C1451.81 2730.69 1454.9 2738.93 1454.9 2749.23V2769.82C1454.9 2780.63 1451.81 2788.87 1446.14 2794.53C1439.97 2800.2 1432.24 2802.77 1422.46 2802.77ZM1422.46 2789.39C1428.12 2789.39 1432.76 2787.84 1435.33 2784.75C1437.91 2781.66 1439.45 2777.03 1439.45 2770.85V2748.71C1439.45 2742.54 1437.91 2737.9 1434.82 2734.81C1431.73 2731.72 1427.61 2730.18 1422.46 2730.18C1416.8 2730.18 1412.68 2731.72 1409.59 2734.81C1406.5 2737.9 1404.95 2742.54 1404.95 2748.2V2770.34C1404.95 2776.52 1406.5 2781.15 1409.07 2784.24C1412.16 2787.84 1416.28 2789.39 1422.46 2789.39Z" fill="#F9893D" fill-opacity="0.5"/>
<path d="M1426.07 2925.82V2854.26H1424.01L1412.68 2880.51H1396.72L1413.71 2842.93H1441V2925.82H1426.07Z" fill="#F9893D" fill-opacity="0.5"/>
<path d="M1422.46 3051.44C1412.68 3051.44 1404.95 3048.87 1398.78 3043.2C1392.6 3037.54 1390.02 3029.82 1390.02 3018.49V2997.9C1390.02 2987.08 1393.11 2979.36 1398.78 2973.7C1404.44 2968.04 1412.68 2965.46 1422.46 2965.46C1432.24 2965.46 1439.97 2968.04 1446.14 2973.7C1451.81 2979.36 1454.9 2987.6 1454.9 2997.9V3018.49C1454.9 3029.3 1451.81 3037.54 1446.14 3043.2C1439.97 3048.87 1432.24 3051.44 1422.46 3051.44ZM1422.46 3038.05C1428.12 3038.05 1432.76 3036.51 1435.33 3033.42C1437.91 3030.33 1439.45 3025.7 1439.45 3019.52V2997.38C1439.45 2991.2 1437.91 2986.57 1434.82 2983.48C1431.73 2980.39 1427.61 2978.85 1422.46 2978.85C1416.8 2978.85 1412.68 2980.39 1409.59 2983.48C1406.5 2986.57 1404.95 2991.2 1404.95 2996.87V3019C1404.95 3025.18 1406.5 3029.82 1409.07 3032.91C1412.16 3036.51 1416.28 3038.05 1422.46 3038.05Z" fill="#F9893D" fill-opacity="0.5"/>
<path d="M1426.07 3174.49V3102.41H1424.01L1412.68 3128.67H1396.72L1413.71 3091.09H1441V3174.49H1426.07Z" fill="#F9893D" fill-opacity="0.5"/>
</g>
<g opacity="0.18">
<path d="M232.437 85.9792C222.654 85.9792 214.931 83.4051 208.753 77.7418C203.089 72.5933 200 64.3557 200 53.0291V32.4352C200 21.6235 203.089 13.9009 208.753 8.23757C214.416 2.57426 222.654 0 232.437 0C242.219 0 249.942 2.57426 256.121 8.23757C261.784 13.9009 264.874 22.1383 264.874 32.4352V53.0291C264.874 63.8409 261.784 72.0785 256.121 77.7418C250.457 83.4051 242.734 85.9792 232.437 85.9792ZM232.437 72.5933C238.1 72.5933 242.734 71.0487 245.309 67.9596C247.883 64.8705 249.427 60.237 249.427 54.0588V31.9204C249.427 25.7422 247.883 21.1087 244.794 18.0196C241.704 14.9305 237.585 13.386 232.437 13.386C226.773 13.386 222.654 14.9305 219.565 18.0196C216.476 21.1087 214.931 25.7423 214.931 31.4056V53.544C214.931 59.7221 216.476 64.3558 219.05 67.4449C222.654 71.0488 226.773 72.5933 232.437 72.5933Z" fill="#F9893D" fill-opacity="0.5"/>
<path d="M236.551 205.937V134.374H234.491L223.164 160.631H207.203L224.194 123.047H251.482V205.937H236.551Z" fill="#F9893D" fill-opacity="0.5"/>
<path d="M232.437 328.987C222.654 328.987 214.931 326.413 208.753 320.75C203.089 315.086 200 307.364 200 296.037V275.443C200 264.631 203.089 256.909 208.753 251.246C214.416 245.582 222.654 243.008 232.437 243.008C242.219 243.008 249.942 245.582 256.121 251.246C261.784 256.909 264.874 265.146 264.874 275.443V296.037C264.874 306.849 261.784 315.086 256.121 320.75C250.457 325.898 242.734 328.987 232.437 328.987ZM232.437 315.086C238.1 315.086 242.734 313.542 245.309 310.453C247.883 307.364 249.427 302.73 249.427 296.552V274.414C249.427 268.235 247.883 263.602 244.794 260.513C241.704 257.424 237.585 255.879 232.437 255.879C226.773 255.879 222.654 257.424 219.565 260.513C216.476 263.602 214.931 268.235 214.931 273.899V296.037C214.931 302.215 216.476 306.849 219.05 309.938C222.654 313.542 226.773 315.086 232.437 315.086Z" fill="#F9893D" fill-opacity="0.5"/>
<path d="M236.551 448.429V376.866H234.491L223.164 403.123H207.203L224.194 365.539H251.482V448.429H236.551Z" fill="#F9893D" fill-opacity="0.5"/>
<path d="M232.437 571.479C222.654 571.479 214.931 568.905 208.753 563.242C203.089 558.093 200 549.856 200 538.529V517.935C200 507.123 203.089 499.401 208.753 493.737C214.416 488.074 222.654 485.5 232.437 485.5C242.219 485.5 249.942 488.074 256.121 493.737C261.784 499.401 264.874 507.638 264.874 517.935V538.529C264.874 549.341 261.784 557.578 256.121 563.242C250.457 568.905 242.734 571.479 232.437 571.479ZM232.437 558.093C238.1 558.093 242.734 556.549 245.309 553.459C247.883 550.37 249.427 545.737 249.427 539.559V517.42C249.427 511.242 247.883 506.609 244.794 503.52C241.704 500.431 237.585 498.886 232.437 498.886C226.773 498.886 222.654 500.431 219.565 503.52C216.476 506.609 214.931 511.242 214.931 516.905V539.044C214.931 545.222 216.476 549.856 219.05 552.945C222.654 556.549 226.773 558.093 232.437 558.093Z" fill="#F9893D" fill-opacity="0.5"/>
<path d="M236.551 691.437V619.874H234.491L223.164 646.131H207.203L224.194 608.547H251.482V691.437H236.551Z" fill="#F9893D" fill-opacity="0.5"/>
<path d="M232.437 814.487C222.654 814.487 214.931 811.913 208.753 806.25C203.089 801.101 200 792.864 200 781.537V760.943C200 750.132 203.089 742.409 208.753 736.746C214.416 731.082 222.654 728.508 232.437 728.508C242.219 728.508 249.942 731.082 256.121 736.746C261.784 742.409 264.874 750.646 264.874 760.943V781.537C264.874 792.349 261.784 800.586 256.121 806.25C250.457 811.398 242.734 814.487 232.437 814.487ZM232.437 800.586C238.1 800.586 242.734 799.042 245.309 795.953C247.883 792.864 249.427 788.23 249.427 782.052V759.914C249.427 753.735 247.883 749.102 244.794 746.013C241.704 742.924 237.585 741.379 232.437 741.379C226.773 741.379 222.654 742.924 219.565 746.013C216.476 749.102 214.931 753.735 214.931 759.399V781.537C214.931 787.715 216.476 792.349 219.05 795.438C222.654 799.042 226.773 800.586 232.437 800.586Z" fill="#F9893D" fill-opacity="0.5"/>
<path d="M236.551 933.929V862.365H234.491L223.164 888.623H207.203L224.194 851.039H251.482V933.929H236.551Z" fill="#F9893D" fill-opacity="0.5"/>
<path d="M232.437 1056.98C222.654 1056.98 214.931 1054.4 208.753 1048.74C203.089 1043.08 200 1035.36 200 1024.03V1003.44C200 992.623 203.089 984.901 208.753 979.237C214.416 973.574 222.654 971 232.437 971C242.219 971 249.942 973.574 256.121 979.237C261.784 984.901 264.874 993.138 264.874 1003.44V1024.03C264.874 1034.84 261.784 1043.08 256.121 1048.74C250.457 1054.4 242.734 1056.98 232.437 1056.98ZM232.437 1043.59C238.1 1043.59 242.734 1042.05 245.309 1038.96C247.883 1035.87 249.427 1031.24 249.427 1025.06V1002.92C249.427 996.742 247.883 992.109 244.794 989.02C241.704 985.931 237.585 984.386 232.437 984.386C226.773 984.386 222.654 985.931 219.565 989.02C216.476 992.109 214.931 996.742 214.931 1002.41V1024.54C214.931 1030.72 216.476 1035.36 219.05 1038.44C222.654 1042.05 226.773 1043.59 232.437 1043.59Z" fill="#F9893D" fill-opacity="0.5"/>
<path d="M236.551 1176.94V1105.37H234.491L223.164 1131.63H207.203L224.194 1094.05H251.482V1176.94H236.551Z" fill="#F9893D" fill-opacity="0.5"/>
<path d="M232.437 1299.99C222.654 1299.99 214.931 1297.41 208.753 1291.75C203.089 1286.6 200 1278.36 200 1267.04V1246.44C200 1235.63 203.089 1227.91 208.753 1222.25C214.416 1216.58 222.654 1214.01 232.437 1214.01C242.219 1214.01 249.942 1216.58 256.121 1222.25C261.784 1227.91 264.874 1236.15 264.874 1246.44V1267.04C264.874 1277.85 261.784 1286.09 256.121 1291.75C250.457 1296.9 242.734 1299.99 232.437 1299.99ZM232.437 1286.09C238.1 1286.09 242.734 1284.54 245.309 1281.45C247.883 1278.36 249.427 1273.73 249.427 1267.55V1245.41C249.427 1239.24 247.883 1234.6 244.794 1231.51C241.704 1228.42 237.585 1226.88 232.437 1226.88C226.773 1226.88 222.654 1228.42 219.565 1231.51C216.476 1234.6 214.931 1239.24 214.931 1244.9V1267.04C214.931 1273.22 216.476 1277.85 219.05 1280.94C222.654 1284.54 226.773 1286.09 232.437 1286.09Z" fill="#F9893D" fill-opacity="0.5"/>
<path d="M236.551 1419.43V1347.87H234.491L223.164 1374.12H207.203L224.194 1336.54H251.482V1419.43H236.551Z" fill="#F9893D" fill-opacity="0.5"/>
<path d="M236.551 1540.94V1469.37H234.491L223.164 1495.63H207.203L224.194 1458.05H251.482V1540.94H236.551Z" fill="#F9893D" fill-opacity="0.5"/>
<path d="M236.558 1662.44V1590.36H234.499L223.172 1616.61H207.211L224.202 1579.03H251.49V1662.44H236.558Z" fill="#F9893D" fill-opacity="0.5"/>
<path d="M232.437 1785.49C222.654 1785.49 214.931 1782.91 208.753 1777.25C203.089 1772.1 200 1763.86 200 1752.54V1731.94C200 1721.13 203.089 1713.41 208.753 1707.75C214.416 1702.08 222.654 1699.51 232.437 1699.51C242.219 1699.51 249.942 1702.08 256.121 1707.75C261.784 1713.41 264.874 1721.65 264.874 1731.94V1752.54C264.874 1763.35 261.784 1771.59 256.121 1777.25C250.457 1782.4 242.734 1785.49 232.437 1785.49ZM232.437 1771.59C238.1 1771.59 242.734 1770.04 245.309 1766.95C247.883 1763.86 249.427 1759.23 249.427 1753.05V1730.91C249.427 1724.74 247.883 1720.1 244.794 1717.01C241.704 1713.92 237.585 1712.38 232.437 1712.38C226.773 1712.38 222.654 1713.92 219.565 1717.01C216.476 1720.1 214.931 1724.74 214.931 1730.4V1752.54C214.931 1758.72 216.476 1763.35 219.05 1766.44C222.654 1770.04 226.773 1771.59 232.437 1771.59Z" fill="#F9893D" fill-opacity="0.5"/>
<path d="M232.437 1906.48C222.654 1906.48 214.931 1903.9 208.753 1898.24C203.089 1893.09 200 1884.85 200 1873.53V1852.93C200 1842.12 203.089 1834.4 208.753 1828.73C214.416 1823.07 222.654 1820.5 232.437 1820.5C242.219 1820.5 249.942 1823.07 256.121 1828.73C261.784 1834.4 264.874 1842.63 264.874 1852.93V1873.53C264.874 1884.34 261.784 1892.57 256.121 1898.24C250.457 1903.9 242.734 1906.48 232.437 1906.48ZM232.437 1893.09C238.1 1893.09 242.734 1891.54 245.309 1888.46C247.883 1885.37 249.427 1880.73 249.427 1874.55V1852.42C249.427 1846.24 247.883 1841.6 244.794 1838.52C241.704 1835.43 237.585 1833.88 232.437 1833.88C226.773 1833.88 222.654 1835.43 219.565 1838.52C216.476 1841.6 214.931 1846.24 214.931 1851.9V1874.04C214.931 1880.22 216.476 1884.85 219.05 1887.94C222.654 1891.54 226.773 1893.09 232.437 1893.09Z" fill="#F9893D" fill-opacity="0.5"/>
<path d="M236.551 2026.44V1954.87H234.491L223.164 1981.13H207.203L224.194 1943.55H251.482V2026.44H236.551Z" fill="#F9893D" fill-opacity="0.5"/>
<path d="M232.437 2149.48C222.654 2149.48 214.931 2146.91 208.753 2141.25C203.089 2135.58 200 2127.86 200 2116.53V2095.94C200 2085.13 203.089 2077.4 208.753 2071.74C214.416 2066.08 222.654 2063.5 232.437 2063.5C242.219 2063.5 249.942 2066.08 256.121 2071.74C261.784 2077.4 264.874 2085.64 264.874 2095.94V2116.53C264.874 2127.34 261.784 2135.58 256.121 2141.25C250.457 2146.91 242.734 2149.48 232.437 2149.48ZM232.437 2136.1C238.1 2136.1 242.734 2134.55 245.309 2131.46C247.883 2128.37 249.427 2123.74 249.427 2117.56V2095.42C249.427 2089.25 247.883 2084.61 244.794 2081.52C241.704 2078.43 237.585 2076.89 232.437 2076.89C226.773 2076.89 222.654 2078.43 219.565 2081.52C216.476 2084.61 214.931 2089.25 214.931 2094.91V2117.05C214.931 2123.23 216.476 2127.86 219.05 2130.95C222.654 2134.55 226.773 2136.1 232.437 2136.1Z" fill="#F9893D" fill-opacity="0.5"/>
<path opacity="0.78" d="M236.558 2268.93V2197.37H234.499L223.172 2223.62H207.211L224.202 2186.04H251.49V2268.93H236.558Z" fill="#F9893D" fill-opacity="0.5"/>
<path opacity="0.78" d="M232.437 2391.98C222.654 2391.98 214.931 2389.4 208.753 2383.74C203.089 2378.59 200 2370.35 200 2359.03V2338.43C200 2327.62 203.089 2319.9 208.753 2314.23C214.416 2308.57 222.654 2306 232.437 2306C242.219 2306 249.942 2308.57 256.121 2314.23C261.784 2319.9 264.874 2328.13 264.874 2338.43V2359.03C264.874 2369.84 261.784 2378.07 256.121 2383.74C250.457 2389.4 242.734 2391.98 232.437 2391.98ZM232.437 2378.59C238.1 2378.59 242.734 2377.04 245.309 2373.96C247.883 2370.87 249.427 2366.23 249.427 2360.05V2337.92C249.427 2331.74 247.883 2327.1 244.794 2324.02C241.704 2320.93 237.585 2319.38 232.437 2319.38C226.773 2319.38 222.654 2320.93 219.565 2324.02C216.476 2327.1 214.931 2331.74 214.931 2337.4V2359.54C214.931 2365.72 216.476 2370.35 219.05 2373.44C222.654 2377.04 226.773 2378.59 232.437 2378.59Z" fill="#F9893D" fill-opacity="0.5"/>
<path opacity="0.78" d="M232.437 2513.48C222.654 2513.48 214.931 2510.91 208.753 2505.24C203.089 2500.09 200 2491.86 200 2480.53V2459.94C200 2449.12 203.089 2441.4 208.753 2435.74C214.416 2430.07 222.654 2427.5 232.437 2427.5C242.219 2427.5 249.942 2430.07 256.121 2435.74C261.784 2441.4 264.874 2449.64 264.874 2459.94V2480.53C264.874 2491.34 261.784 2499.58 256.121 2505.24C250.457 2510.91 242.734 2513.48 232.437 2513.48ZM232.437 2500.09C238.1 2500.09 242.734 2498.55 245.309 2495.46C247.883 2492.37 249.427 2487.74 249.427 2481.56V2459.42C249.427 2453.24 247.883 2448.61 244.794 2445.52C241.704 2442.43 237.585 2440.89 232.437 2440.89C226.773 2440.89 222.654 2442.43 219.565 2445.52C216.476 2448.61 214.931 2453.24 214.931 2458.91V2481.04C214.931 2487.22 216.476 2491.86 219.05 2494.95C222.654 2498.55 226.773 2500.09 232.437 2500.09Z" fill="#F9893D" fill-opacity="0.5"/>
<path opacity="0.78" d="M236.558 2633.44V2561.87H234.499L223.172 2588.13H207.211L224.202 2550.55H251.49V2633.44H236.558Z" fill="#F9893D" fill-opacity="0.5"/>
<path opacity="0.78" d="M232.437 2756.49C222.654 2756.49 214.931 2753.91 208.753 2748.25C203.089 2742.59 200 2734.86 200 2723.54V2702.94C200 2692.13 203.089 2684.41 208.753 2678.75C214.416 2673.08 222.654 2670.51 232.437 2670.51C242.219 2670.51 249.942 2673.08 256.121 2678.75C261.784 2684.41 264.874 2692.65 264.874 2702.94V2723.54C264.874 2734.35 261.784 2742.59 256.121 2748.25C250.457 2753.4 242.734 2756.49 232.437 2756.49ZM232.437 2742.59C238.1 2742.59 242.734 2741.04 245.309 2737.95C247.883 2734.86 249.427 2730.23 249.427 2724.05V2701.91C249.427 2695.74 247.883 2691.1 244.794 2688.01C241.704 2684.92 237.585 2683.38 232.437 2683.38C226.773 2683.38 222.654 2684.92 219.565 2688.01C216.476 2691.1 214.931 2695.74 214.931 2701.4V2723.54C214.931 2729.72 216.476 2734.35 219.05 2737.44C222.654 2741.04 226.773 2742.59 232.437 2742.59Z" fill="#F9893D" fill-opacity="0.5"/>
<path opacity="0.78" d="M236.558 2875.93V2804.37H234.499L223.172 2830.62H207.211L224.202 2793.04H251.49V2875.93H236.558Z" fill="#F9893D" fill-opacity="0.5"/>
<path opacity="0.78" d="M232.437 2998.98C222.654 2998.98 214.931 2996.4 208.753 2990.74C203.089 2985.59 200 2977.36 200 2966.03V2945.43C200 2934.62 203.089 2926.9 208.753 2921.24C214.416 2915.57 222.654 2913 232.437 2913C242.219 2913 249.942 2915.57 256.121 2921.24C261.784 2926.9 264.874 2935.14 264.874 2945.43V2966.03C264.874 2976.84 261.784 2985.08 256.121 2990.74C250.457 2996.4 242.734 2998.98 232.437 2998.98ZM232.437 2985.59C238.1 2985.59 242.734 2984.05 245.309 2980.96C247.883 2977.87 249.427 2973.24 249.427 2967.06V2944.92C249.427 2938.74 247.883 2934.11 244.794 2931.02C241.704 2927.93 237.585 2926.39 232.437 2926.39C226.773 2926.39 222.654 2927.93 219.565 2931.02C216.476 2934.11 214.931 2938.74 214.931 2944.41V2966.54C214.931 2972.72 216.476 2977.36 219.05 2980.44C222.654 2984.05 226.773 2985.59 232.437 2985.59Z" fill="#F9893D" fill-opacity="0.5"/>
<path opacity="0.78" d="M236.558 3118.94V3047.37H234.499L223.172 3073.63H207.211L224.202 3036.05H251.49V3118.94H236.558Z" fill="#F9893D" fill-opacity="0.5"/>
<path opacity="0.78" d="M232.437 3241.99C222.654 3241.99 214.931 3239.41 208.753 3233.75C203.089 3228.6 200 3220.36 200 3209.04V3188.44C200 3177.63 203.089 3169.91 208.753 3164.25C214.416 3158.58 222.654 3156.01 232.437 3156.01C242.219 3156.01 249.942 3158.58 256.121 3164.25C261.784 3169.91 264.874 3178.15 264.874 3188.44V3209.04C264.874 3219.85 261.784 3228.09 256.121 3233.75C250.457 3238.9 242.734 3241.99 232.437 3241.99ZM232.437 3228.09C238.1 3228.09 242.734 3226.54 245.309 3223.45C247.883 3220.36 249.427 3215.73 249.427 3209.55V3187.41C249.427 3181.24 247.883 3176.6 244.794 3173.51C241.704 3170.42 237.585 3168.88 232.437 3168.88C226.773 3168.88 222.654 3170.42 219.565 3173.51C216.476 3176.6 214.931 3181.24 214.931 3186.9V3209.04C214.931 3215.22 216.476 3219.85 219.05 3222.94C222.654 3226.54 226.773 3228.09 232.437 3228.09Z" fill="#F9893D" fill-opacity="0.5"/>
</g>
</g>
</g>
<defs>
<clipPath id="clip0_149_7275">
<rect width="1920" height="3206" fill="white"/>
</clipPath>
<clipPath id="clip1_149_7275">
<rect width="1920" height="3208" fill="white"/>
</clipPath>
</defs>
</svg>
