<svg width="205" height="119" viewBox="0 0 205 119" fill="none" xmlns="http://www.w3.org/2000/svg">
<path d="M4.19319 11.4101C1.35914 10.6074 -0.287652 7.65932 0.514981 4.82527C1.31761 1.99122 4.26573 0.344423 7.09978 1.14706C9.93384 1.94969 11.5806 4.89781 10.778 7.73186C9.97536 10.5659 7.02725 12.2127 4.19319 11.4101ZM153.79 10.9314L152.882 11.3498L153.79 10.9314ZM146.524 6.27857L146.524 5.27857L146.524 6.27857ZM202.238 118.496L152.882 11.3498L154.698 10.513L204.055 117.659L202.238 118.496ZM146.524 7.27857L5.64649 7.27856L5.64649 5.27856L146.524 5.27857L146.524 7.27857ZM152.882 11.3498C151.738 8.86825 149.256 7.27857 146.524 7.27857L146.524 5.27857C150.037 5.27857 153.228 7.32244 154.698 10.513L152.882 11.3498Z" fill="#D6B88D"/>
</svg>
