<svg width="428" height="4414" viewBox="0 0 428 4414" fill="none" xmlns="http://www.w3.org/2000/svg">
<rect width="428" height="4414" fill="#1A1A1A"/>
<g clip-path="url(#clip0_134_10130)">
<g opacity="0.18">
<path d="M165.094 83.3912V11.3247H163.032L151.688 37.5775H135.703L152.719 0H180.047V83.3912H165.094Z" fill="#F9893D" fill-opacity="0.5"/>
<path d="M161.485 208.992C151.688 208.992 143.953 206.419 137.766 200.756C131.578 195.094 129 187.372 129 176.048V155.457C129 144.647 132.094 136.926 137.766 131.264C143.438 125.601 151.688 123.027 161.485 123.027C171.282 123.027 179.016 125.601 185.204 131.264C190.876 136.926 193.969 145.162 193.969 155.457V176.048C193.969 186.858 190.876 195.094 185.204 200.756C179.016 206.419 171.282 208.992 161.485 208.992ZM161.485 195.609C167.157 195.609 171.797 194.064 174.376 190.976C176.954 187.887 178.501 183.254 178.501 177.077V154.942C178.501 148.765 176.954 144.133 173.86 141.044C170.766 137.955 166.641 136.411 161.485 136.411C155.813 136.411 151.688 137.955 148.594 141.044C145.5 144.133 143.953 148.765 143.953 154.428V176.562C143.953 182.74 145.5 187.372 148.078 190.461C151.172 194.064 155.813 195.609 161.485 195.609Z" fill="#F9893D" fill-opacity="0.5"/>
<path d="M165.094 332.02V259.954H163.032L151.688 286.206H135.703L152.719 248.629H180.047V331.505H165.094V332.02Z" fill="#F9893D" fill-opacity="0.5"/>
<path d="M165.094 456.08V384.528H163.032L151.688 410.781H135.703L152.719 373.203H180.047V456.08H165.094Z" fill="#F9893D" fill-opacity="0.5"/>
<path d="M165.094 580.65V508.583H163.032L151.688 534.836H135.703L153.235 497.773H180.563V580.65H165.094Z" fill="#F9893D" fill-opacity="0.5"/>
<path d="M161.485 706.25C151.688 706.25 143.953 703.676 137.766 698.014C131.578 692.352 129 684.63 129 673.305V652.715C129 641.905 132.094 634.184 137.766 628.521C143.438 622.859 151.688 620.285 161.485 620.285C171.282 620.285 179.016 622.859 185.204 628.521C190.876 634.184 193.969 642.42 193.969 652.715V673.305C193.969 684.115 190.876 692.352 185.204 698.014C179.016 703.676 171.282 706.25 161.485 706.25ZM161.485 692.866C167.157 692.866 171.797 691.322 174.376 688.234C176.954 685.145 178.501 680.512 178.501 674.335V652.2C178.501 646.023 176.954 641.39 173.86 638.302C170.766 635.213 166.641 633.669 161.485 633.669C155.813 633.669 151.688 635.213 148.594 638.302C145.5 641.39 143.953 646.023 143.953 651.686V673.82C143.953 679.997 145.5 684.63 148.078 687.719C151.172 691.322 155.813 692.866 161.485 692.866Z" fill="#F9893D" fill-opacity="0.5"/>
<path d="M161.485 830.824C151.688 830.824 143.953 828.251 137.766 822.588C131.578 816.926 129 809.204 129 797.88V777.289C129 766.479 132.094 758.758 137.766 753.096C143.438 747.433 151.688 744.859 161.485 744.859C171.282 744.859 179.016 747.433 185.204 753.096C190.876 758.758 193.969 766.994 193.969 777.289V797.88C193.969 808.69 190.876 816.926 185.204 822.588C179.016 828.251 171.282 830.824 161.485 830.824ZM161.485 817.441C167.157 817.441 171.797 815.896 174.376 812.808C176.954 809.719 178.501 805.086 178.501 798.909V776.775C178.501 770.597 176.954 765.965 173.86 762.876C170.766 759.787 166.641 758.243 161.485 758.243C155.813 758.243 151.688 759.787 148.594 762.876C145.5 765.965 143.953 770.597 143.953 776.26V798.394C143.953 804.572 145.5 809.204 148.078 812.293C151.172 815.896 155.813 817.441 161.485 817.441Z" fill="#F9893D" fill-opacity="0.5"/>
<path d="M165.094 953.337V881.786H163.032L151.688 908.038H135.703L152.719 870.461H180.047V953.337H165.094Z" fill="#F9893D" fill-opacity="0.5"/>
<path d="M161.485 1079.45C151.688 1079.45 143.953 1076.88 137.766 1071.22C131.578 1065.55 129 1057.83 129 1046.51V1025.92C129 1015.11 132.094 1007.39 137.766 1001.72C143.438 996.062 151.688 993.488 161.485 993.488C171.282 993.488 179.016 996.062 185.204 1001.72C190.876 1007.39 193.969 1015.62 193.969 1025.92V1046.51C193.969 1057.32 190.876 1065.55 185.204 1071.22C179.016 1076.88 171.282 1079.45 161.485 1079.45ZM161.485 1066.07C167.157 1066.07 171.797 1064.53 174.376 1061.44C176.954 1058.35 178.501 1053.72 178.501 1047.54V1025.4C178.501 1019.23 176.954 1014.59 173.86 1011.5C170.766 1008.42 166.641 1006.87 161.485 1006.87C155.813 1006.87 151.688 1008.42 148.594 1011.5C145.5 1014.59 143.953 1019.23 143.953 1024.89V1047.02C143.953 1053.2 145.5 1057.83 148.078 1060.92C151.172 1064.53 155.813 1066.07 161.485 1066.07Z" fill="#F9893D" fill-opacity="0.5"/>
<path opacity="0.78" d="M165.094 1201.97V1130.41H163.032L151.688 1156.67H135.703L152.719 1119.09H180.047V1201.97H165.094Z" fill="#F9893D" fill-opacity="0.5"/>
<path opacity="0.78" d="M161.485 1328.08C151.688 1328.08 143.953 1325.51 137.766 1319.85C131.578 1314.18 129 1306.46 129 1295.14V1274.55C129 1263.74 132.094 1256.02 137.766 1250.35C143.438 1244.69 151.688 1242.12 161.485 1242.12C171.282 1242.12 179.016 1244.69 185.204 1250.35C190.876 1256.02 193.969 1264.25 193.969 1274.55V1295.14C193.969 1305.95 190.876 1314.18 185.204 1319.85C179.016 1325.51 171.282 1328.08 161.485 1328.08ZM161.485 1314.7C167.157 1314.7 171.797 1313.15 174.376 1310.07C176.954 1306.98 178.501 1302.34 178.501 1296.17V1274.03C178.501 1267.86 176.954 1263.22 173.86 1260.13C170.766 1257.05 166.641 1255.5 161.485 1255.5C155.813 1255.5 151.688 1257.05 148.594 1260.13C145.5 1263.22 143.953 1267.86 143.953 1273.52V1295.65C143.953 1301.83 145.5 1306.46 148.078 1309.55C151.172 1313.15 155.813 1314.7 161.485 1314.7Z" fill="#F9893D" fill-opacity="0.5"/>
<path opacity="0.78" d="M161.485 1452.14C151.688 1452.14 143.953 1449.57 137.766 1443.9C131.578 1438.24 129 1430.52 129 1419.2V1398.61C129 1387.8 132.094 1380.07 137.766 1374.41C143.438 1368.75 151.688 1366.18 161.485 1366.18C171.282 1366.18 179.016 1368.75 185.204 1374.41C190.876 1380.07 193.969 1388.31 193.969 1398.61V1419.2C193.969 1430.01 190.876 1438.24 185.204 1443.9C179.016 1449.57 171.282 1452.14 161.485 1452.14ZM161.485 1438.76C167.157 1438.76 171.797 1437.21 174.376 1434.12C176.954 1431.04 178.501 1426.4 178.501 1420.23V1398.09C178.501 1391.91 176.954 1387.28 173.86 1384.19C170.766 1381.1 166.641 1379.56 161.485 1379.56C155.813 1379.56 151.688 1381.1 148.594 1384.19C145.5 1387.28 143.953 1391.91 143.953 1397.58V1419.71C143.953 1425.89 145.5 1430.52 148.078 1433.61C151.172 1437.21 155.813 1438.76 161.485 1438.76Z" fill="#F9893D" fill-opacity="0.5"/>
<path d="M165.094 1575.17V1503.61H163.032L151.688 1529.87H135.703L152.719 1492.29H180.047V1575.17H165.094Z" fill="#F9893D" fill-opacity="0.5"/>
<path d="M161.485 1700.77C151.688 1700.77 143.953 1698.2 137.766 1692.53C131.578 1686.87 129 1679.15 129 1667.82V1647.23C129 1636.42 132.094 1628.7 137.766 1623.04C143.438 1617.38 151.688 1614.8 161.485 1614.8C171.282 1614.8 179.016 1617.38 185.204 1623.04C190.876 1628.7 193.969 1636.94 193.969 1647.23V1667.82C193.969 1678.63 190.876 1686.87 185.204 1692.53C179.016 1698.2 171.282 1700.77 161.485 1700.77ZM161.485 1687.39C167.157 1687.39 171.797 1685.84 174.376 1682.75C176.954 1679.66 178.501 1675.03 178.501 1668.85V1646.72C178.501 1640.54 176.954 1635.91 173.86 1632.82C170.766 1629.73 166.641 1628.19 161.485 1628.19C155.813 1628.19 151.688 1629.73 148.594 1632.82C145.5 1635.91 143.953 1640.54 143.953 1646.21V1668.34C143.953 1674.52 145.5 1679.15 148.078 1682.24C151.172 1685.84 155.813 1687.39 161.485 1687.39Z" fill="#F9893D" fill-opacity="0.5"/>
<path d="M165.094 1823.8V1752.25H163.032L151.688 1778.5H135.703L152.719 1740.92H180.047V1823.8H165.094Z" fill="#F9893D" fill-opacity="0.5"/>
<path d="M161.485 1949.4C151.688 1949.4 143.953 1946.82 137.766 1941.16C131.578 1935.5 129 1927.78 129 1916.45V1895.86C129 1885.05 132.094 1877.33 137.766 1871.67C143.438 1866.01 151.688 1863.43 161.485 1863.43C171.282 1863.43 179.016 1866.01 185.204 1871.67C190.876 1877.33 193.969 1885.57 193.969 1895.86V1916.45C193.969 1927.26 190.876 1935.5 185.204 1941.16C179.016 1946.82 171.282 1949.4 161.485 1949.4ZM161.485 1936.01C167.157 1936.01 171.797 1934.47 174.376 1931.38C176.954 1928.29 178.501 1923.66 178.501 1917.48V1895.35C178.501 1889.17 176.954 1884.54 173.86 1881.45C170.766 1878.36 166.641 1876.82 161.485 1876.82C155.813 1876.82 151.688 1878.36 148.594 1881.45C145.5 1884.54 143.953 1889.17 143.953 1894.83V1916.97C143.953 1923.15 145.5 1927.78 148.078 1930.87C151.172 1934.47 155.813 1936.01 161.485 1936.01Z" fill="#F9893D" fill-opacity="0.5"/>
<path d="M165.094 2072.42V2000.87H163.032L151.688 2027.12H135.703L152.719 1989.55H180.047V2072.42H165.094Z" fill="#F9893D" fill-opacity="0.5"/>
<path d="M161.485 2198.03C151.688 2198.03 143.953 2195.45 137.766 2189.79C131.578 2184.13 129 2176.41 129 2165.08V2144.49C129 2133.68 132.094 2125.96 137.766 2120.3C143.438 2114.64 151.688 2112.06 161.485 2112.06C171.282 2112.06 179.016 2114.64 185.204 2120.3C190.876 2125.96 193.969 2134.2 193.969 2144.49V2165.08C193.969 2175.89 190.876 2184.13 185.204 2189.79C179.016 2195.45 171.282 2198.03 161.485 2198.03ZM161.485 2184.64C167.157 2184.64 171.797 2183.1 174.376 2180.01C176.954 2176.92 178.501 2172.29 178.501 2166.11V2143.98C178.501 2137.8 176.954 2133.17 173.86 2130.08C170.766 2126.99 166.641 2125.45 161.485 2125.45C155.813 2125.45 151.688 2126.99 148.594 2130.08C145.5 2133.17 143.953 2137.8 143.953 2143.46V2165.6C143.953 2171.77 145.5 2176.41 148.078 2179.5C151.172 2183.1 155.813 2184.64 161.485 2184.64Z" fill="#F9893D" fill-opacity="0.5"/>
<path d="M165.094 2321.06V2249.5H163.032L151.688 2275.76H135.703L152.719 2238.18H180.047V2321.06H165.094Z" fill="#F9893D" fill-opacity="0.5"/>
</g>
<g opacity="0.18">
<path d="M56.4847 85.9649C46.6877 85.9649 38.9532 83.3912 32.7656 77.7289C27.0937 72.5813 24 64.345 24 53.0203V32.4298C24 21.6199 27.0937 13.8986 32.7656 8.2362C38.4376 2.57383 46.6877 0 56.4847 0C66.2817 0 74.0162 2.57383 80.2037 8.2362C85.8757 13.8986 88.9694 22.1346 88.9694 32.4298V53.0203C88.9694 63.8302 85.8757 72.0665 80.2037 77.7289C74.5318 83.3912 66.7973 85.9649 56.4847 85.9649ZM56.4847 72.5813C62.1566 72.5813 66.7973 71.0369 69.3755 67.9483C71.9536 64.8597 73.5004 60.227 73.5004 54.0499V31.9151C73.5004 25.7379 71.9536 21.1052 68.8598 18.0166C65.766 14.9281 61.641 13.3838 56.4847 13.3838C50.8127 13.3838 46.6877 14.9281 43.5939 18.0166C40.5001 21.1052 38.9533 25.7381 38.9533 31.4004V53.5351C38.9533 59.7122 40.5001 64.3451 43.0783 67.4337C46.6877 71.037 50.8127 72.5813 56.4847 72.5813Z" fill="#F9893D" fill-opacity="0.5"/>
<path d="M60.6096 205.904V134.352H58.5471L47.2033 160.605H31.2188L48.2345 123.027H75.563V205.904H60.6096Z" fill="#F9893D" fill-opacity="0.5"/>
<path d="M56.4847 328.93C46.6877 328.93 38.9532 326.356 32.7656 320.694C27.0937 315.032 24 307.31 24 295.985V275.395C24 264.585 27.0937 256.864 32.7656 251.201C38.4376 245.539 46.6877 242.965 56.4847 242.965C66.2817 242.965 74.0162 245.539 80.2037 251.201C85.8757 256.864 88.9694 265.099 88.9694 275.395V295.985C88.9694 306.795 85.8757 315.032 80.2037 320.694C74.5318 325.841 66.7973 328.93 56.4847 328.93ZM56.4847 315.031C62.1566 315.031 66.7973 313.487 69.3755 310.399C71.9536 307.31 73.5004 302.677 73.5004 296.5V274.365C73.5004 268.188 71.9536 263.555 68.8598 260.467C65.766 257.378 61.641 255.834 56.4847 255.834C50.8127 255.834 46.6877 257.378 43.5939 260.467C40.5001 263.555 38.9533 268.188 38.9533 273.85V295.985C38.9533 302.162 40.5001 306.795 43.0783 309.884C46.6877 313.487 50.8127 315.031 56.4847 315.031Z" fill="#F9893D" fill-opacity="0.5"/>
<path d="M60.6096 448.357V376.805H58.5471L47.2033 403.058H31.2188L48.2345 365.48H75.563V448.357H60.6096Z" fill="#F9893D" fill-opacity="0.5"/>
<path d="M56.4847 571.383C46.6877 571.383 38.9532 568.809 32.7656 563.147C27.0937 557.999 24 549.763 24 538.438V517.848C24 507.038 27.0937 499.316 32.7656 493.654C38.4376 487.992 46.6877 485.418 56.4847 485.418C66.2817 485.418 74.0162 487.992 80.2037 493.654C85.8757 499.316 88.9694 507.553 88.9694 517.848V538.438C88.9694 549.248 85.8757 557.484 80.2037 563.147C74.5318 568.809 66.7973 571.383 56.4847 571.383ZM56.4847 557.999C62.1566 557.999 66.7973 556.455 69.3755 553.366C71.9536 550.278 73.5004 545.645 73.5004 539.468V517.333C73.5004 511.156 71.9536 506.523 68.8598 503.435C65.766 500.346 61.641 498.802 56.4847 498.802C50.8127 498.802 46.6877 500.346 43.5939 503.435C40.5001 506.523 38.9533 511.156 38.9533 516.818V538.953C38.9533 545.13 40.5001 549.763 43.0783 552.851C46.6877 556.455 50.8127 557.999 56.4847 557.999Z" fill="#F9893D" fill-opacity="0.5"/>
<path d="M60.6096 691.322V619.77H58.5471L47.2033 646.023H31.2188L48.2345 608.445H75.563V691.322H60.6096Z" fill="#F9893D" fill-opacity="0.5"/>
<path d="M56.4847 814.352C46.6877 814.352 38.9532 811.778 32.7656 806.116C27.0937 800.968 24 792.732 24 781.407V760.817C24 750.007 27.0937 742.285 32.7656 736.623C38.4376 730.961 46.6877 728.387 56.4847 728.387C66.2817 728.387 74.0162 730.961 80.2037 736.623C85.8757 742.285 88.9694 750.522 88.9694 760.817V781.407C88.9694 792.217 85.8757 800.453 80.2037 806.116C74.5318 811.263 66.7973 814.352 56.4847 814.352ZM56.4847 800.453C62.1566 800.453 66.7973 798.909 69.3755 795.821C71.9536 792.732 73.5004 788.099 73.5004 781.922V759.787C73.5004 753.61 71.9536 748.977 68.8598 745.889C65.766 742.8 61.641 741.256 56.4847 741.256C50.8127 741.256 46.6877 742.8 43.5939 745.889C40.5001 748.977 38.9533 753.61 38.9533 759.272V781.407C38.9533 787.584 40.5001 792.217 43.0783 795.306C46.6877 798.909 50.8127 800.453 56.4847 800.453Z" fill="#F9893D" fill-opacity="0.5"/>
<path d="M60.6096 933.775V862.223H58.5471L47.2033 888.476H31.2188L48.2345 850.898H75.563V933.775H60.6096Z" fill="#F9893D" fill-opacity="0.5"/>
<path d="M56.4847 1056.8C46.6877 1056.8 38.9532 1054.23 32.7656 1048.57C27.0937 1042.91 24 1035.18 24 1023.86V1003.27C24 992.46 27.0937 984.738 32.7656 979.076C38.4376 973.414 46.6877 970.84 56.4847 970.84C66.2817 970.84 74.0162 973.414 80.2037 979.076C85.8757 984.738 88.9694 992.974 88.9694 1003.27V1023.86C88.9694 1034.67 85.8757 1042.91 80.2037 1048.57C74.5318 1054.23 66.7973 1056.8 56.4847 1056.8ZM56.4847 1043.42C62.1566 1043.42 66.7973 1041.88 69.3755 1038.79C71.9536 1035.7 73.5004 1031.07 73.5004 1024.89V1002.76C73.5004 996.578 71.9536 991.945 68.8598 988.856C65.766 985.768 61.641 984.223 56.4847 984.223C50.8127 984.223 46.6877 985.768 43.5939 988.856C40.5001 991.945 38.9533 996.578 38.9533 1002.24V1024.37C38.9533 1030.55 40.5001 1035.18 43.0783 1038.27C46.6877 1041.88 50.8127 1043.42 56.4847 1043.42Z" fill="#F9893D" fill-opacity="0.5"/>
<path d="M60.6096 1176.74V1105.19H58.5471L47.2033 1131.44H31.2188L48.2345 1093.87H75.563V1176.74H60.6096Z" fill="#F9893D" fill-opacity="0.5"/>
<path d="M56.4847 1299.77C46.6877 1299.77 38.9532 1297.2 32.7656 1291.53C27.0937 1286.39 24 1278.15 24 1266.82V1246.23C24 1235.42 27.0937 1227.7 32.7656 1222.04C38.4376 1216.38 46.6877 1213.8 56.4847 1213.8C66.2817 1213.8 74.0162 1216.38 80.2037 1222.04C85.8757 1227.7 88.9694 1235.94 88.9694 1246.23V1266.82C88.9694 1277.63 85.8757 1285.87 80.2037 1291.53C74.5318 1296.68 66.7973 1299.77 56.4847 1299.77ZM56.4847 1285.87C62.1566 1285.87 66.7973 1284.33 69.3755 1281.24C71.9536 1278.15 73.5004 1273.52 73.5004 1267.34V1245.2C73.5004 1239.03 71.9536 1234.39 68.8598 1231.31C65.766 1228.22 61.641 1226.67 56.4847 1226.67C50.8127 1226.67 46.6877 1228.22 43.5939 1231.31C40.5001 1234.39 38.9533 1239.03 38.9533 1244.69V1266.82C38.9533 1273 40.5001 1277.63 43.0783 1280.72C46.6877 1284.33 50.8127 1285.87 56.4847 1285.87Z" fill="#F9893D" fill-opacity="0.5"/>
<path d="M60.6096 1419.2V1347.65H58.5471L47.2033 1373.9H31.2188L48.2345 1336.32H75.563V1419.2H60.6096Z" fill="#F9893D" fill-opacity="0.5"/>
<path d="M60.6096 1540.68V1469.13H58.5471L47.2033 1495.38H31.2188L48.2345 1457.8H75.563V1540.68H60.6096Z" fill="#F9893D" fill-opacity="0.5"/>
<path d="M60.6096 1662.16V1590.09H58.5471L47.2033 1616.35H31.2188L48.2345 1578.77H75.563V1662.16H60.6096Z" fill="#F9893D" fill-opacity="0.5"/>
<path d="M56.4847 1785.19C46.6877 1785.19 38.9532 1782.61 32.7656 1776.95C27.0937 1771.8 24 1763.57 24 1752.24V1731.65C24 1720.84 27.0937 1713.12 32.7656 1707.46C38.4376 1701.8 46.6877 1699.22 56.4847 1699.22C66.2817 1699.22 74.0162 1701.8 80.2037 1707.46C85.8757 1713.12 88.9694 1721.36 88.9694 1731.65V1752.24C88.9694 1763.05 85.8757 1771.29 80.2037 1776.95C74.5318 1782.1 66.7973 1785.19 56.4847 1785.19ZM56.4847 1771.29C62.1566 1771.29 66.7973 1769.74 69.3755 1766.66C71.9536 1763.57 73.5004 1758.93 73.5004 1752.76V1730.62C73.5004 1724.45 71.9536 1719.81 68.8598 1716.72C65.766 1713.64 61.641 1712.09 56.4847 1712.09C50.8127 1712.09 46.6877 1713.64 43.5939 1716.72C40.5001 1719.81 38.9533 1724.45 38.9533 1730.11V1752.24C38.9533 1758.42 40.5001 1763.05 43.0783 1766.14C46.6877 1769.74 50.8127 1771.29 56.4847 1771.29Z" fill="#F9893D" fill-opacity="0.5"/>
<path d="M56.4847 1906.16C46.6877 1906.16 38.9532 1903.58 32.7656 1897.92C27.0937 1892.77 24 1884.54 24 1873.21V1852.62C24 1841.81 27.0937 1834.09 32.7656 1828.43C38.4376 1822.77 46.6877 1820.19 56.4847 1820.19C66.2817 1820.19 74.0162 1822.77 80.2037 1828.43C85.8757 1834.09 88.9694 1842.33 88.9694 1852.62V1873.21C88.9694 1884.02 85.8757 1892.26 80.2037 1897.92C74.5318 1903.58 66.7973 1906.16 56.4847 1906.16ZM56.4847 1892.77C62.1566 1892.77 66.7973 1891.23 69.3755 1888.14C71.9536 1885.05 73.5004 1880.42 73.5004 1874.24V1852.11C73.5004 1845.93 71.9536 1841.3 68.8598 1838.21C65.766 1835.12 61.641 1833.58 56.4847 1833.58C50.8127 1833.58 46.6877 1835.12 43.5939 1838.21C40.5001 1841.3 38.9533 1845.93 38.9533 1851.59V1873.73C38.9533 1879.9 40.5001 1884.54 43.0783 1887.62C46.6877 1891.23 50.8127 1892.77 56.4847 1892.77Z" fill="#F9893D" fill-opacity="0.5"/>
<path d="M60.6096 2026.1V1954.54H58.5471L47.2033 1980.8H31.2188L48.2345 1943.22H75.563V2026.1H60.6096Z" fill="#F9893D" fill-opacity="0.5"/>
<path d="M56.4847 2149.12C46.6877 2149.12 38.9532 2146.55 32.7656 2140.89C27.0937 2135.23 24 2127.51 24 2116.18V2095.59C24 2084.78 27.0937 2077.06 32.7656 2071.4C38.4376 2065.73 46.6877 2063.16 56.4847 2063.16C66.2817 2063.16 74.0162 2065.73 80.2037 2071.4C85.8757 2077.06 88.9694 2085.29 88.9694 2095.59V2116.18C88.9694 2126.99 85.8757 2135.23 80.2037 2140.89C74.5318 2146.55 66.7973 2149.12 56.4847 2149.12ZM56.4847 2135.74C62.1566 2135.74 66.7973 2134.2 69.3755 2131.11C71.9536 2128.02 73.5004 2123.39 73.5004 2117.21V2095.08C73.5004 2088.9 71.9536 2084.27 68.8598 2081.18C65.766 2078.09 61.641 2076.54 56.4847 2076.54C50.8127 2076.54 46.6877 2078.09 43.5939 2081.18C40.5001 2084.27 38.9533 2088.9 38.9533 2094.56V2116.7C38.9533 2122.87 40.5001 2127.51 43.0783 2130.59C46.6877 2134.2 50.8127 2135.74 56.4847 2135.74Z" fill="#F9893D" fill-opacity="0.5"/>
<path opacity="0.78" d="M60.6096 2268.55V2197H58.5471L47.2033 2223.25H31.2188L48.2345 2185.67H75.563V2268.55H60.6096Z" fill="#F9893D" fill-opacity="0.5"/>
<path opacity="0.78" d="M56.4847 2391.58C46.6877 2391.58 38.9532 2389 32.7656 2383.34C27.0937 2378.19 24 2369.96 24 2358.63V2338.04C24 2327.23 27.0937 2319.51 32.7656 2313.85C38.4376 2308.19 46.6877 2305.61 56.4847 2305.61C66.2817 2305.61 74.0162 2308.19 80.2037 2313.85C85.8757 2319.51 88.9694 2327.75 88.9694 2338.04V2358.63C88.9694 2369.44 85.8757 2377.68 80.2037 2383.34C74.5318 2389 66.7973 2391.58 56.4847 2391.58ZM56.4847 2378.19C62.1566 2378.19 66.7973 2376.65 69.3755 2373.56C71.9536 2370.47 73.5004 2365.84 73.5004 2359.66V2337.53C73.5004 2331.35 71.9536 2326.72 68.8598 2323.63C65.766 2320.54 61.641 2319 56.4847 2319C50.8127 2319 46.6877 2320.54 43.5939 2323.63C40.5001 2326.72 38.9533 2331.35 38.9533 2337.01V2359.15C38.9533 2365.33 40.5001 2369.96 43.0783 2373.05C46.6877 2376.65 50.8127 2378.19 56.4847 2378.19Z" fill="#F9893D" fill-opacity="0.5"/>
<path opacity="0.78" d="M56.4847 2513.06C46.6877 2513.06 38.9532 2510.49 32.7656 2504.82C27.0937 2499.68 24 2491.44 24 2480.11V2459.52C24 2448.71 27.0937 2440.99 32.7656 2435.33C38.4376 2429.67 46.6877 2427.09 56.4847 2427.09C66.2817 2427.09 74.0162 2429.67 80.2037 2435.33C85.8757 2440.99 88.9694 2449.23 88.9694 2459.52V2480.11C88.9694 2490.92 85.8757 2499.16 80.2037 2504.82C74.5318 2510.49 66.7973 2513.06 56.4847 2513.06ZM56.4847 2499.68C62.1566 2499.68 66.7973 2498.13 69.3755 2495.04C71.9536 2491.95 73.5004 2487.32 73.5004 2481.14V2459.01C73.5004 2452.83 71.9536 2448.2 68.8598 2445.11C65.766 2442.02 61.641 2440.48 56.4847 2440.48C50.8127 2440.48 46.6877 2442.02 43.5939 2445.11C40.5001 2448.2 38.9533 2452.83 38.9533 2458.49V2480.63C38.9533 2486.81 40.5001 2491.44 43.0783 2494.53C46.6877 2498.13 50.8127 2499.68 56.4847 2499.68Z" fill="#F9893D" fill-opacity="0.5"/>
<path opacity="0.78" d="M60.6096 2633V2561.45H58.5471L47.2033 2587.7H31.2188L48.2345 2550.12H75.563V2633H60.6096Z" fill="#F9893D" fill-opacity="0.5"/>
<path opacity="0.78" d="M56.4847 2756.03C46.6877 2756.03 38.9532 2753.45 32.7656 2747.79C27.0937 2742.13 24 2734.41 24 2723.08V2702.49C24 2691.68 27.0937 2683.96 32.7656 2678.3C38.4376 2672.64 46.6877 2670.06 56.4847 2670.06C66.2817 2670.06 74.0162 2672.64 80.2037 2678.3C85.8757 2683.96 88.9694 2692.2 88.9694 2702.49V2723.08C88.9694 2733.89 85.8757 2742.13 80.2037 2747.79C74.5318 2752.94 66.7973 2756.03 56.4847 2756.03ZM56.4847 2742.13C62.1566 2742.13 66.7973 2740.58 69.3755 2737.5C71.9536 2734.41 73.5004 2729.77 73.5004 2723.6V2701.46C73.5004 2695.29 71.9536 2690.65 68.8598 2687.56C65.766 2684.48 61.641 2682.93 56.4847 2682.93C50.8127 2682.93 46.6877 2684.48 43.5939 2687.56C40.5001 2690.65 38.9533 2695.29 38.9533 2700.95V2723.08C38.9533 2729.26 40.5001 2733.89 43.0783 2736.98C46.6877 2740.58 50.8127 2742.13 56.4847 2742.13Z" fill="#F9893D" fill-opacity="0.5"/>
<path opacity="0.78" d="M60.6096 2875.45V2803.9H58.5471L47.2033 2830.15H31.2188L48.2345 2792.57H75.563V2875.45H60.6096Z" fill="#F9893D" fill-opacity="0.5"/>
<path opacity="0.78" d="M56.4847 2998.48C46.6877 2998.48 38.9532 2995.91 32.7656 2990.24C27.0937 2985.1 24 2976.86 24 2965.54V2944.95C24 2934.14 27.0937 2926.41 32.7656 2920.75C38.4376 2915.09 46.6877 2912.52 56.4847 2912.52C66.2817 2912.52 74.0162 2915.09 80.2037 2920.75C85.8757 2926.41 88.9694 2934.65 88.9694 2944.95V2965.54C88.9694 2976.35 85.8757 2984.58 80.2037 2990.24C74.5318 2995.91 66.7973 2998.48 56.4847 2998.48ZM56.4847 2985.1C62.1566 2985.1 66.7973 2983.55 69.3755 2980.46C71.9536 2977.38 73.5004 2972.74 73.5004 2966.57V2944.43C73.5004 2938.25 71.9536 2933.62 68.8598 2930.53C65.766 2927.44 61.641 2925.9 56.4847 2925.9C50.8127 2925.9 46.6877 2927.44 43.5939 2930.53C40.5001 2933.62 38.9533 2938.25 38.9533 2943.92V2966.05C38.9533 2972.23 40.5001 2976.86 43.0783 2979.95C46.6877 2983.55 50.8127 2985.1 56.4847 2985.1Z" fill="#F9893D" fill-opacity="0.5"/>
<path opacity="0.78" d="M60.6096 3118.42V3046.87H58.5471L47.2033 3073.12H31.2188L48.2345 3035.54H75.563V3118.42H60.6096Z" fill="#F9893D" fill-opacity="0.5"/>
<path opacity="0.78" d="M56.4847 3241.45C46.6877 3241.45 38.9532 3238.87 32.7656 3233.21C27.0937 3228.06 24 3219.83 24 3208.5V3187.91C24 3177.1 27.0937 3169.38 32.7656 3163.72C38.4376 3158.05 46.6877 3155.48 56.4847 3155.48C66.2817 3155.48 74.0162 3158.05 80.2037 3163.72C85.8757 3169.38 88.9694 3177.62 88.9694 3187.91V3208.5C88.9694 3219.31 85.8757 3227.55 80.2037 3233.21C74.5318 3238.36 66.7973 3241.45 56.4847 3241.45ZM56.4847 3227.55C62.1566 3227.55 66.7973 3226 69.3755 3222.91C71.9536 3219.83 73.5004 3215.19 73.5004 3209.02V3186.88C73.5004 3180.7 71.9536 3176.07 68.8598 3172.98C65.766 3169.89 61.641 3168.35 56.4847 3168.35C50.8127 3168.35 46.6877 3169.89 43.5939 3172.98C40.5001 3176.07 38.9533 3180.7 38.9533 3186.37V3208.5C38.9533 3214.68 40.5001 3219.31 43.0783 3222.4C46.6877 3226 50.8127 3227.55 56.4847 3227.55Z" fill="#F9893D" fill-opacity="0.5"/>
<path opacity="0.78" d="M60.6096 3360.87V3289.32H58.5471L47.2033 3315.57H31.2188L48.2345 3278H75.563V3360.87H60.6096Z" fill="#F9893D" fill-opacity="0.5"/>
</g>
<g opacity="0.18">
<path d="M379.448 193.017V134.22H377.765L368.51 155.639H355.469L369.351 124.98H391.648V193.017H379.448Z" fill="#F9893D" fill-opacity="0.5"/>
<path d="M376.503 295.492C368.51 295.492 362.2 293.392 357.152 288.772C352.103 284.153 350 277.853 350 268.613V251.814C350 242.995 352.524 236.695 357.152 232.075C361.779 227.455 368.51 225.355 376.503 225.355C384.497 225.355 390.807 227.455 395.855 232.075C400.483 236.695 403.007 243.415 403.007 251.814V268.613C403.007 277.433 400.483 284.153 395.855 288.772C390.807 293.392 384.497 295.492 376.503 295.492ZM376.503 284.572C381.131 284.572 384.917 283.313 387.021 280.793C389.124 278.273 390.386 274.493 390.386 269.453V251.394C390.386 246.354 389.124 242.575 386.6 240.055C384.076 237.535 380.71 236.275 376.503 236.275C371.876 236.275 368.51 237.535 365.986 240.055C363.462 242.575 362.2 246.354 362.2 250.974V269.033C362.2 274.073 363.462 277.853 365.565 280.373C368.09 283.313 371.876 284.572 376.503 284.572Z" fill="#F9893D" fill-opacity="0.5"/>
<path d="M379.448 395.869V337.072H377.765L368.51 358.491H355.469L369.351 327.832H391.648V395.449H379.448V395.869Z" fill="#F9893D" fill-opacity="0.5"/>
<path d="M379.448 497.081V438.704H377.765L368.51 460.123H355.469L369.351 429.465H391.648V497.081H379.448Z" fill="#F9893D" fill-opacity="0.5"/>
<path d="M379.448 598.718V539.921H377.765L368.51 561.34H355.469L369.772 531.102H392.069V598.718H379.448Z" fill="#F9893D" fill-opacity="0.5"/>
<path d="M376.503 701.191C368.51 701.191 362.2 699.091 357.152 694.471C352.103 689.852 350 683.552 350 674.312V657.513C350 648.694 352.524 642.394 357.152 637.774C361.779 633.155 368.51 631.055 376.503 631.055C384.497 631.055 390.807 633.155 395.855 637.774C400.483 642.394 403.007 649.114 403.007 657.513V674.312C403.007 683.132 400.483 689.852 395.855 694.471C390.807 699.091 384.497 701.191 376.503 701.191ZM376.503 690.272C381.131 690.272 384.917 689.012 387.021 686.492C389.124 683.972 390.386 680.192 390.386 675.152V657.093C390.386 652.054 389.124 648.274 386.6 645.754C384.076 643.234 380.71 641.974 376.503 641.974C371.876 641.974 368.51 643.234 365.986 645.754C363.462 648.274 362.2 652.054 362.2 656.673V674.732C362.2 679.772 363.462 683.552 365.565 686.072C368.09 689.012 371.876 690.272 376.503 690.272Z" fill="#F9893D" fill-opacity="0.5"/>
<path d="M376.503 802.828C368.51 802.828 362.2 800.728 357.152 796.108C352.103 791.488 350 785.189 350 775.949V759.15C350 750.331 352.524 744.031 357.152 739.411C361.779 734.791 368.51 732.691 376.503 732.691C384.497 732.691 390.807 734.791 395.855 739.411C400.483 744.031 403.007 750.751 403.007 759.15V775.949C403.007 784.769 400.483 791.488 395.855 796.108C390.807 800.728 384.497 802.828 376.503 802.828ZM376.503 791.908C381.131 791.908 384.917 790.648 387.021 788.129C389.124 785.609 390.386 781.829 390.386 776.789V758.73C390.386 753.69 389.124 749.911 386.6 747.391C384.076 744.871 380.71 743.611 376.503 743.611C371.876 743.611 368.51 744.871 365.986 747.391C363.462 749.911 362.2 753.69 362.2 758.31V776.369C362.2 781.409 363.462 785.189 365.565 787.709C368.09 790.649 371.876 791.908 376.503 791.908Z" fill="#F9893D" fill-opacity="0.5"/>
<path d="M379.448 902.781V844.404H377.765L368.51 865.823H355.469L369.351 835.164H391.648V902.781H379.448Z" fill="#F9893D" fill-opacity="0.5"/>
<path d="M376.503 1005.68C368.51 1005.68 362.2 1003.58 357.152 998.956C352.103 994.336 350 988.036 350 978.797V961.998C350 953.178 352.524 946.878 357.152 942.259C361.779 937.639 368.51 935.539 376.503 935.539C384.497 935.539 390.807 937.639 395.855 942.259C400.483 946.878 403.007 953.598 403.007 961.998V978.797C403.007 987.616 400.483 994.336 395.855 998.956C390.807 1003.58 384.497 1005.68 376.503 1005.68ZM376.503 994.756C381.131 994.756 384.917 993.496 387.021 990.976C389.124 988.456 390.386 984.677 390.386 979.637V961.578C390.386 956.538 389.124 952.758 386.6 950.238C384.076 947.718 380.71 946.458 376.503 946.458C371.876 946.458 368.51 947.718 365.986 950.238C363.462 952.758 362.2 956.538 362.2 961.158V979.217C362.2 984.257 363.462 988.036 365.565 990.556C368.09 993.496 371.876 994.756 376.503 994.756Z" fill="#F9893D" fill-opacity="0.5"/>
<path opacity="0.78" d="M379.448 1105.63V1047.26H377.765L368.51 1068.67H355.469L369.351 1038.02H391.648V1105.63H379.448Z" fill="#F9893D" fill-opacity="0.5"/>
<path opacity="0.78" d="M376.503 1208.53C368.51 1208.53 362.2 1206.43 357.152 1201.81C352.103 1197.19 350 1190.89 350 1181.65V1164.85C350 1156.03 352.524 1149.73 357.152 1145.11C361.779 1140.49 368.51 1138.39 376.503 1138.39C384.497 1138.39 390.807 1140.49 395.855 1145.11C400.483 1149.73 403.007 1156.45 403.007 1164.85V1181.65C403.007 1190.47 400.483 1197.19 395.855 1201.81C390.807 1206.43 384.497 1208.53 376.503 1208.53ZM376.503 1197.61C381.131 1197.61 384.917 1196.35 387.021 1193.83C389.124 1191.31 390.386 1187.53 390.386 1182.49V1164.43C390.386 1159.39 389.124 1155.61 386.6 1153.09C384.076 1150.57 380.71 1149.31 376.503 1149.31C371.876 1149.31 368.51 1150.57 365.986 1153.09C363.462 1155.61 362.2 1159.39 362.2 1164.01V1182.07C362.2 1187.11 363.462 1190.89 365.565 1193.41C368.09 1196.35 371.876 1197.61 376.503 1197.61Z" fill="#F9893D" fill-opacity="0.5"/>
<path opacity="0.78" d="M376.503 1309.74C368.51 1309.74 362.2 1307.64 357.152 1303.02C352.103 1298.4 350 1292.1 350 1282.86V1266.06C350 1257.24 352.524 1250.94 357.152 1246.33C361.779 1241.71 368.51 1239.61 376.503 1239.61C384.497 1239.61 390.807 1241.71 395.855 1246.33C400.483 1250.94 403.007 1257.66 403.007 1266.06V1282.86C403.007 1291.68 400.483 1298.4 395.855 1303.02C390.807 1307.64 384.497 1309.74 376.503 1309.74ZM376.503 1298.82C381.131 1298.82 384.917 1297.56 387.021 1295.04C389.124 1292.52 390.386 1288.74 390.386 1283.7V1265.64C390.386 1260.6 389.124 1256.82 386.6 1254.3C384.076 1251.78 380.71 1250.52 376.503 1250.52C371.876 1250.52 368.51 1251.78 365.986 1254.3C363.462 1256.82 362.2 1260.6 362.2 1265.22V1283.28C362.2 1288.32 363.462 1292.1 365.565 1294.62C368.09 1297.56 371.876 1298.82 376.503 1298.82Z" fill="#F9893D" fill-opacity="0.5"/>
<path d="M379.448 1410.12V1351.74H377.765L368.51 1373.16H355.469L369.351 1342.5H391.648V1410.12H379.448Z" fill="#F9893D" fill-opacity="0.5"/>
<path d="M376.503 1512.59C368.51 1512.59 362.2 1510.49 357.152 1505.87C352.103 1501.25 350 1494.95 350 1485.71V1468.91C350 1460.09 352.524 1453.79 357.152 1449.17C361.779 1444.55 368.51 1442.45 376.503 1442.45C384.497 1442.45 390.807 1444.55 395.855 1449.17C400.483 1453.79 403.007 1460.51 403.007 1468.91V1485.71C403.007 1494.53 400.483 1501.25 395.855 1505.87C390.807 1510.49 384.497 1512.59 376.503 1512.59ZM376.503 1501.67C381.131 1501.67 384.917 1500.41 387.021 1497.89C389.124 1495.37 390.386 1491.59 390.386 1486.55V1468.49C390.386 1463.45 389.124 1459.67 386.6 1457.15C384.076 1454.63 380.71 1453.37 376.503 1453.37C371.876 1453.37 368.51 1454.63 365.986 1457.15C363.462 1459.67 362.2 1463.45 362.2 1468.07V1486.13C362.2 1491.17 363.462 1494.95 365.565 1497.47C368.09 1500.41 371.876 1501.67 376.503 1501.67Z" fill="#F9893D" fill-opacity="0.5"/>
<path d="M379.448 1612.97V1554.59H377.765L368.51 1576.01H355.469L369.351 1545.35H391.648V1612.97H379.448Z" fill="#F9893D" fill-opacity="0.5"/>
<path d="M376.503 1715.44C368.51 1715.44 362.2 1713.34 357.152 1708.72C352.103 1704.1 350 1697.8 350 1688.56V1671.76C350 1662.94 352.524 1656.64 357.152 1652.02C361.779 1647.4 368.51 1645.3 376.503 1645.3C384.497 1645.3 390.807 1647.4 395.855 1652.02C400.483 1656.64 403.007 1663.36 403.007 1671.76V1688.56C403.007 1697.38 400.483 1704.1 395.855 1708.72C390.807 1713.34 384.497 1715.44 376.503 1715.44ZM376.503 1704.52C381.131 1704.52 384.917 1703.26 387.021 1700.74C389.124 1698.22 390.386 1694.44 390.386 1689.4V1671.34C390.386 1666.3 389.124 1662.52 386.6 1660C384.076 1657.48 380.71 1656.22 376.503 1656.22C371.876 1656.22 368.51 1657.48 365.986 1660C363.462 1662.52 362.2 1666.3 362.2 1670.92V1688.98C362.2 1694.02 363.462 1697.8 365.565 1700.32C368.09 1703.26 371.876 1704.52 376.503 1704.52Z" fill="#F9893D" fill-opacity="0.5"/>
<path d="M379.448 1815.82V1757.44H377.765L368.51 1778.86H355.469L369.351 1748.2H391.648V1815.82H379.448Z" fill="#F9893D" fill-opacity="0.5"/>
<path d="M376.503 1918.29C368.51 1918.29 362.2 1916.19 357.152 1911.57C352.103 1906.95 350 1900.65 350 1891.41V1874.61C350 1865.79 352.524 1859.49 357.152 1854.87C361.779 1850.25 368.51 1848.15 376.503 1848.15C384.497 1848.15 390.807 1850.25 395.855 1854.87C400.483 1859.49 403.007 1866.21 403.007 1874.61V1891.41C403.007 1900.23 400.483 1906.95 395.855 1911.57C390.807 1916.19 384.497 1918.29 376.503 1918.29ZM376.503 1907.37C381.131 1907.37 384.917 1906.11 387.021 1903.59C389.124 1901.07 390.386 1897.29 390.386 1892.25V1874.19C390.386 1869.15 389.124 1865.37 386.6 1862.85C384.076 1860.33 380.71 1859.07 376.503 1859.07C371.876 1859.07 368.51 1860.33 365.986 1862.85C363.462 1865.37 362.2 1869.15 362.2 1873.77V1891.83C362.2 1896.87 363.462 1900.65 365.565 1903.17C368.09 1906.11 371.876 1907.37 376.503 1907.37Z" fill="#F9893D" fill-opacity="0.5"/>
<path d="M379.448 2018.66V1960.29H377.765L368.51 1981.71H355.469L369.351 1951.05H391.648V2018.66H379.448Z" fill="#F9893D" fill-opacity="0.5"/>
</g>
<g opacity="0.18">
<path d="M371.485 2854.5C361.688 2854.5 353.953 2851.93 347.766 2846.27C341.578 2840.61 339 2832.88 339 2821.56V2800.97C339 2790.16 342.094 2782.44 347.766 2776.78C353.438 2771.11 361.688 2768.54 371.485 2768.54C381.282 2768.54 389.016 2771.11 395.204 2776.78C400.876 2782.44 403.97 2790.67 403.97 2800.97V2821.56C403.97 2832.37 400.876 2840.61 395.204 2846.27C389.016 2851.93 381.282 2854.5 371.485 2854.5ZM371.485 2841.12C377.157 2841.12 381.797 2839.58 384.376 2836.49C386.954 2833.4 388.501 2828.77 388.501 2822.59V2800.45C388.501 2794.28 386.954 2789.64 383.86 2786.56C380.766 2783.47 376.641 2781.92 371.485 2781.92C365.813 2781.92 361.688 2783.47 358.594 2786.56C355.5 2789.64 353.953 2794.28 353.953 2799.94V2822.07C353.953 2828.25 355.5 2832.88 358.078 2835.97C361.172 2839.58 365.297 2841.12 371.485 2841.12Z" fill="#F9893D" fill-opacity="0.5"/>
<path d="M375.094 2977.53V2905.98H373.032L361.688 2932.23H345.703L362.719 2894.66H390.047V2977.53H375.094Z" fill="#F9893D" fill-opacity="0.5"/>
<path d="M371.485 3103.13C361.688 3103.13 353.953 3100.56 347.766 3094.9C341.578 3089.23 339 3081.51 339 3070.19V3049.6C339 3038.79 342.094 3031.07 347.766 3025.4C353.438 3019.74 361.688 3017.17 371.485 3017.17C381.282 3017.17 389.016 3019.74 395.204 3025.4C400.876 3031.07 403.97 3039.3 403.97 3049.6V3070.19C403.97 3081 400.876 3089.23 395.204 3094.9C389.016 3100.56 381.282 3103.13 371.485 3103.13ZM371.485 3089.75C377.157 3089.75 381.797 3088.2 384.376 3085.12C386.954 3082.03 388.501 3077.39 388.501 3071.22V3049.08C388.501 3042.91 386.954 3038.27 383.86 3035.18C380.766 3032.1 376.641 3030.55 371.485 3030.55C365.813 3030.55 361.688 3032.1 358.594 3035.18C355.5 3038.27 353.953 3042.91 353.953 3048.57V3070.7C353.953 3076.88 355.5 3081.51 358.078 3084.6C361.172 3088.2 365.297 3089.75 371.485 3089.75Z" fill="#F9893D" fill-opacity="0.5"/>
<path d="M375.094 3226.16V3154.09H373.032L361.688 3180.35H345.703L362.719 3142.77H390.047V3226.16H375.094Z" fill="#F9893D" fill-opacity="0.5"/>
<path d="M371.485 3351.76C361.688 3351.76 353.953 3349.19 347.766 3343.53C341.578 3337.86 339 3330.14 339 3318.82V3298.23C339 3287.42 342.094 3279.7 347.766 3274.03C353.438 3268.37 361.688 3265.8 371.485 3265.8C381.282 3265.8 389.016 3268.37 395.204 3274.03C400.876 3279.7 403.97 3287.93 403.97 3298.23V3318.82C403.97 3329.63 400.876 3337.86 395.204 3343.53C389.016 3349.19 381.282 3351.76 371.485 3351.76ZM371.485 3338.38C377.157 3338.38 381.797 3336.83 384.376 3333.75C386.954 3330.66 388.501 3326.02 388.501 3319.85V3297.71C388.501 3291.53 386.954 3286.9 383.86 3283.81C380.766 3280.72 376.641 3279.18 371.485 3279.18C365.813 3279.18 361.688 3280.72 358.594 3283.81C355.5 3286.9 353.953 3291.53 353.953 3297.2V3319.33C353.953 3325.51 355.5 3330.14 358.078 3333.23C361.172 3336.83 365.297 3338.38 371.485 3338.38Z" fill="#F9893D" fill-opacity="0.5"/>
<path d="M375.094 3474.79V3403.24H373.032L361.688 3429.49H345.703L362.719 3391.91H390.047V3474.79H375.094Z" fill="#F9893D" fill-opacity="0.5"/>
<path d="M371.485 3600.39C361.688 3600.39 353.953 3597.82 347.766 3592.15C341.578 3586.49 339 3578.77 339 3567.45V3546.86C339 3536.05 342.094 3528.32 347.766 3522.66C353.438 3517 361.688 3514.43 371.485 3514.43C381.282 3514.43 389.016 3517 395.204 3522.66C400.876 3528.32 403.97 3536.56 403.97 3546.86V3567.45C403.97 3578.26 400.876 3586.49 395.204 3592.15C389.016 3597.82 381.282 3600.39 371.485 3600.39ZM371.485 3587.01C377.157 3587.01 381.797 3585.46 384.376 3582.37C386.954 3579.29 388.501 3574.65 388.501 3568.48V3546.34C388.501 3540.16 386.954 3535.53 383.86 3532.44C380.766 3529.35 376.641 3527.81 371.485 3527.81C365.813 3527.81 361.688 3529.35 358.594 3532.44C355.5 3535.53 353.953 3540.16 353.953 3545.83V3567.96C353.953 3574.14 355.5 3578.77 358.078 3581.86C361.172 3585.46 365.297 3587.01 371.485 3587.01Z" fill="#F9893D" fill-opacity="0.5"/>
<path d="M375.094 3723.42V3651.87H373.032L361.688 3678.12H345.703L362.719 3640.54H390.047V3723.42H375.094Z" fill="#F9893D" fill-opacity="0.5"/>
<path d="M371.485 3849.02C361.688 3849.02 353.953 3846.45 347.766 3840.78C342.094 3835.64 339 3827.4 339 3816.07V3795.48C339 3784.67 342.094 3776.95 347.766 3771.29C353.438 3765.63 361.688 3763.05 371.485 3763.05C381.282 3763.05 389.016 3765.63 395.204 3771.29C400.876 3776.95 403.97 3785.19 403.97 3795.48V3816.07C403.97 3826.88 400.876 3835.12 395.204 3840.78C389.016 3846.45 381.282 3849.02 371.485 3849.02ZM371.485 3835.64C377.157 3835.64 381.797 3834.09 384.376 3831C386.954 3827.91 388.501 3823.28 388.501 3817.1V3794.97C388.501 3788.79 386.954 3784.16 383.86 3781.07C380.766 3777.98 376.641 3776.44 371.485 3776.44C365.813 3776.44 361.688 3777.98 358.594 3781.07C355.5 3784.16 353.953 3788.79 353.953 3794.46V3816.59C353.953 3822.77 355.5 3827.4 358.078 3830.49C361.172 3834.09 365.297 3835.64 371.485 3835.64Z" fill="#F9893D" fill-opacity="0.5"/>
<path d="M375.094 3972.05V3900.5H373.032L361.688 3926.75H345.703L362.719 3889.17H390.047V3972.05H375.094Z" fill="#F9893D" fill-opacity="0.5"/>
<path d="M371.485 4097.65C361.688 4097.65 353.953 4095.08 347.766 4089.42C342.094 4084.27 339 4076.03 339 4064.71V4044.12C339 4033.31 342.094 4025.59 347.766 4019.92C353.438 4014.26 361.688 4011.69 371.485 4011.69C381.282 4011.69 389.016 4014.26 395.204 4019.92C400.876 4025.59 403.97 4033.82 403.97 4044.12V4064.71C403.97 4075.52 400.876 4083.75 395.204 4089.42C389.016 4095.08 381.282 4097.65 371.485 4097.65ZM371.485 4084.27C377.157 4084.27 381.797 4082.72 384.376 4079.64C386.954 4076.55 388.501 4071.91 388.501 4065.74V4043.6C388.501 4037.43 386.954 4032.79 383.86 4029.7C380.766 4026.62 376.641 4025.07 371.485 4025.07C365.813 4025.07 361.688 4026.62 358.594 4029.7C355.5 4032.79 353.953 4037.43 353.953 4043.09V4065.22C353.953 4071.4 355.5 4076.03 358.078 4079.12C361.172 4082.72 365.297 4084.27 371.485 4084.27Z" fill="#F9893D" fill-opacity="0.5"/>
<path d="M375.094 4220.68V4149.13H373.032L361.688 4175.38H345.703L362.719 4137.8H390.047V4220.68H375.094Z" fill="#F9893D" fill-opacity="0.5"/>
<path d="M375.094 4344.74V4273.18H373.032L361.688 4299.44H345.703L362.719 4261.86H390.047V4344.74H375.094Z" fill="#F9893D" fill-opacity="0.5"/>
<path d="M375.094 4469.31V4397.76H373.032L361.688 4424.01H345.703L362.719 4386.43H390.047V4469.31H375.094Z" fill="#F9893D" fill-opacity="0.5"/>
</g>
</g>
<defs>
<clipPath id="clip0_134_10130">
<rect width="428" height="4407" fill="white"/>
</clipPath>
</defs>
</svg>
