<svg width="968" height="1070" viewBox="0 0 968 1070" fill="none" xmlns="http://www.w3.org/2000/svg">
<g clip-path="url(#clip0_163_7260)">
<rect width="968" height="1070" fill="#1A1A1A"/>
<g clip-path="url(#clip1_163_7260)">
<g opacity="0.18">
<path d="M300.039 83.4051V11.3266H297.98L286.652 37.5838H270.691L287.682 0H314.97V83.4051H300.039Z" fill="#F9893D" fill-opacity="0.5"/>
<path d="M296.437 209.026C286.654 209.026 278.931 206.452 272.753 200.789C266.574 195.125 264 187.403 264 176.076V155.482C264 144.67 267.089 136.948 272.753 131.284C278.416 125.621 286.654 123.047 296.437 123.047C306.219 123.047 313.942 125.621 320.121 131.284C325.784 136.948 328.874 145.185 328.874 155.482V176.076C328.874 186.888 325.784 195.125 320.121 200.789C313.942 206.452 306.219 209.026 296.437 209.026ZM296.437 195.64C302.1 195.64 306.734 194.096 309.309 191.007C311.883 187.917 313.428 183.284 313.428 177.106V154.967C313.428 148.789 311.883 144.156 308.794 141.066C305.704 137.977 301.586 136.433 296.437 136.433C290.773 136.433 286.654 137.977 283.565 141.066C280.476 144.156 278.931 148.789 278.931 154.452V176.591C278.931 182.769 280.476 187.403 283.05 190.492C286.139 194.096 290.773 195.64 296.437 195.64Z" fill="#F9893D" fill-opacity="0.5"/>
<path d="M300.039 332.077V259.998H297.98L286.652 286.256H270.691L287.682 248.672H314.97V331.562H300.039V332.077Z" fill="#F9893D" fill-opacity="0.5"/>
<path d="M300.039 456.154V384.59H297.98L286.652 410.847H270.691L287.682 373.264H314.97V456.154H300.039Z" fill="#F9893D" fill-opacity="0.5"/>
<path d="M300.039 580.746V508.667H297.98L286.652 534.924H270.691L288.197 497.855H315.485V580.746H300.039Z" fill="#F9893D" fill-opacity="0.5"/>
<path d="M296.437 706.37C286.654 706.37 278.931 703.796 272.753 698.132C266.574 692.469 264 684.746 264 673.42V652.826C264 642.014 267.089 634.291 272.753 628.628C278.416 622.965 286.654 620.391 296.437 620.391C306.219 620.391 313.942 622.965 320.121 628.628C325.784 634.291 328.874 642.529 328.874 652.826V673.42C328.874 684.232 325.784 692.469 320.121 698.132C313.942 703.796 306.219 706.37 296.437 706.37ZM296.437 692.984C302.1 692.984 306.734 691.439 309.309 688.35C311.883 685.261 313.428 680.628 313.428 674.449V652.311C313.428 646.133 311.883 641.499 308.794 638.41C305.704 635.321 301.586 633.777 296.437 633.777C290.773 633.777 286.654 635.321 283.565 638.41C280.476 641.499 278.931 646.133 278.931 651.796V673.935C278.931 680.113 280.476 684.746 283.05 687.835C286.139 691.439 290.773 692.984 296.437 692.984Z" fill="#F9893D" fill-opacity="0.5"/>
<path d="M296.437 830.962C286.654 830.962 278.931 828.388 272.753 822.724C266.574 817.061 264 809.338 264 798.012V777.418C264 766.606 267.089 758.883 272.753 753.22C278.416 747.557 286.654 744.982 296.437 744.982C306.219 744.982 313.942 747.557 320.121 753.22C325.784 758.883 328.874 767.121 328.874 777.418V798.012C328.874 808.823 325.784 817.061 320.121 822.724C313.942 828.388 306.219 830.962 296.437 830.962ZM296.437 817.576C302.1 817.576 306.734 816.031 309.309 812.942C311.883 809.853 313.428 805.219 313.428 799.041V776.903C313.428 770.725 311.883 766.091 308.794 763.002C305.704 759.913 301.586 758.368 296.437 758.368C290.773 758.368 286.654 759.913 283.565 763.002C280.476 766.091 278.931 770.725 278.931 776.388V798.526C278.931 804.705 280.476 809.338 283.05 812.427C286.139 816.031 290.773 817.576 296.437 817.576Z" fill="#F9893D" fill-opacity="0.5"/>
<path d="M300.039 953.496V881.932H297.98L286.652 908.189H270.691L287.682 870.605H314.97V953.496H300.039Z" fill="#F9893D" fill-opacity="0.5"/>
<path d="M296.437 1079.63C286.654 1079.63 278.931 1077.06 272.753 1071.39C266.574 1065.73 264 1058.01 264 1046.68V1026.09C264 1015.28 267.089 1007.55 272.753 1001.89C278.416 996.227 286.654 993.652 296.437 993.652C306.219 993.652 313.942 996.227 320.121 1001.89C325.784 1007.55 328.874 1015.79 328.874 1026.09V1046.68C328.874 1057.49 325.784 1065.73 320.121 1071.39C313.942 1077.06 306.219 1079.63 296.437 1079.63ZM296.437 1066.25C302.1 1066.25 306.734 1064.7 309.309 1061.61C311.883 1058.52 313.428 1053.89 313.428 1047.71V1025.57C313.428 1019.39 311.883 1014.76 308.794 1011.67C305.704 1008.58 301.586 1007.04 296.437 1007.04C290.773 1007.04 286.654 1008.58 283.565 1011.67C280.476 1014.76 278.931 1019.39 278.931 1025.06V1047.2C278.931 1053.37 280.476 1058.01 283.05 1061.1C286.139 1064.7 290.773 1066.25 296.437 1066.25Z" fill="#F9893D" fill-opacity="0.5"/>
</g>
<g opacity="0.18">
<path d="M844.405 214.048V155.241H842.725L833.483 176.664H820.461L834.323 146H856.587V214.048H844.405Z" fill="#F9893D" fill-opacity="0.5"/>
<path d="M841.464 316.541C833.483 316.541 827.182 314.44 822.141 309.82C817.1 305.199 815 298.899 815 289.658V272.856C815 264.035 817.52 257.734 822.141 253.113C826.762 248.493 833.483 246.393 841.464 246.393C849.446 246.393 855.747 248.493 860.787 253.113C865.408 257.734 867.929 264.455 867.929 272.856V289.658C867.929 298.479 865.408 305.199 860.787 309.82C855.747 314.44 849.446 316.541 841.464 316.541ZM841.464 305.619C846.085 305.619 849.866 304.359 851.966 301.839C854.066 299.319 855.327 295.538 855.327 290.498V272.436C855.327 267.395 854.066 263.615 851.546 261.094C849.026 258.574 845.665 257.314 841.464 257.314C836.844 257.314 833.483 258.574 830.963 261.094C828.442 263.615 827.182 267.395 827.182 272.016V290.078C827.182 295.118 828.442 298.899 830.543 301.419C833.063 304.359 836.844 305.619 841.464 305.619Z" fill="#F9893D" fill-opacity="0.5"/>
<path d="M844.405 416.931V358.124H842.725L833.483 379.546H820.461L834.323 348.883H856.587V416.511H844.405V416.931Z" fill="#F9893D" fill-opacity="0.5"/>
<path d="M844.405 518.163V459.776H842.725L833.483 481.199H820.461L834.323 450.535H856.587V518.163H844.405Z" fill="#F9893D" fill-opacity="0.5"/>
<path d="M844.405 619.815V561.009H842.725L833.483 582.431H820.461L834.743 552.188H857.007V619.815H844.405Z" fill="#F9893D" fill-opacity="0.5"/>
<path d="M841.464 722.308C833.483 722.308 827.182 720.208 822.141 715.588C817.1 710.967 815 704.666 815 695.425V678.623C815 669.802 817.52 663.501 822.141 658.881C826.762 654.26 833.483 652.16 841.464 652.16C849.446 652.16 855.747 654.26 860.787 658.881C865.408 663.501 867.929 670.222 867.929 678.623V695.425C867.929 704.246 865.408 710.967 860.787 715.588C855.747 720.208 849.446 722.308 841.464 722.308ZM841.464 711.387C846.085 711.387 849.866 710.127 851.966 707.607C854.066 705.086 855.327 701.306 855.327 696.265V678.203C855.327 673.163 854.066 669.382 851.546 666.862C849.026 664.342 845.665 663.081 841.464 663.081C836.844 663.081 833.483 664.342 830.963 666.862C828.442 669.382 827.182 673.163 827.182 677.783V695.845C827.182 700.886 828.442 704.666 830.543 707.187C833.063 710.127 836.844 711.387 841.464 711.387Z" fill="#F9893D" fill-opacity="0.5"/>
<path d="M841.464 823.959C833.483 823.959 827.182 821.858 822.141 817.238C817.1 812.617 815 806.317 815 797.076V780.274C815 771.453 817.52 765.152 822.141 760.531C826.762 755.911 833.483 753.811 841.464 753.811C849.446 753.811 855.747 755.911 860.787 760.531C865.408 765.152 867.929 771.873 867.929 780.274V797.076C867.929 805.897 865.408 812.617 860.787 817.238C855.747 821.858 849.446 823.959 841.464 823.959ZM841.464 813.037C846.085 813.037 849.866 811.777 851.966 809.257C854.066 806.737 855.327 802.956 855.327 797.916V779.854C855.327 774.813 854.066 771.033 851.546 768.512C849.026 765.992 845.665 764.732 841.464 764.732C836.844 764.732 833.483 765.992 830.963 768.512C828.442 771.033 827.182 774.813 827.182 779.434V797.496C827.182 802.536 828.442 806.317 830.543 808.837C833.063 811.777 836.844 813.037 841.464 813.037Z" fill="#F9893D" fill-opacity="0.5"/>
<path d="M844.405 923.931V865.544H842.725L833.483 886.966H820.461L834.323 856.303H856.587V923.931H844.405Z" fill="#F9893D" fill-opacity="0.5"/>
<path d="M841.464 1026.84C833.483 1026.84 827.182 1024.74 822.141 1020.12C817.1 1015.5 815 1009.2 815 999.958V983.156C815 974.335 817.52 968.035 822.141 963.414C826.762 958.794 833.483 956.693 841.464 956.693C849.446 956.693 855.747 958.794 860.787 963.414C865.408 968.035 867.929 974.755 867.929 983.156V999.958C867.929 1008.78 865.408 1015.5 860.787 1020.12C855.747 1024.74 849.446 1026.84 841.464 1026.84ZM841.464 1015.92C846.085 1015.92 849.866 1014.66 851.966 1012.14C854.066 1009.62 855.327 1005.84 855.327 1000.8V982.736C855.327 977.696 854.066 973.915 851.546 971.395C849.026 968.875 845.665 967.615 841.464 967.615C836.844 967.615 833.483 968.875 830.963 971.395C828.442 973.915 827.182 977.696 827.182 982.316V1000.38C827.182 1005.42 828.442 1009.2 830.543 1011.72C833.063 1014.66 836.844 1015.92 841.464 1015.92Z" fill="#F9893D" fill-opacity="0.5"/>
<path opacity="0.78" d="M844.405 1126.81V1068.43H842.725L833.483 1089.85H820.461L834.323 1059.19H856.587V1126.81H844.405Z" fill="#F9893D" fill-opacity="0.5"/>
</g>
<g opacity="0.18">
<path d="M132.437 85.9792C122.654 85.9792 114.931 83.4051 108.753 77.7418C103.089 72.5933 100 64.3557 100 53.0291V32.4352C100 21.6235 103.089 13.9009 108.753 8.23757C114.416 2.57426 122.654 0 132.437 0C142.219 0 149.942 2.57426 156.121 8.23757C161.784 13.9009 164.874 22.1383 164.874 32.4352V53.0291C164.874 63.8409 161.784 72.0785 156.121 77.7418C150.457 83.4051 142.734 85.9792 132.437 85.9792ZM132.437 72.5933C138.1 72.5933 142.734 71.0487 145.309 67.9596C147.883 64.8705 149.427 60.237 149.427 54.0588V31.9204C149.427 25.7422 147.883 21.1087 144.794 18.0196C141.704 14.9305 137.585 13.386 132.437 13.386C126.773 13.386 122.654 14.9305 119.565 18.0196C116.476 21.1087 114.931 25.7423 114.931 31.4056V53.544C114.931 59.7221 116.476 64.3558 119.05 67.4449C122.654 71.0488 126.773 72.5933 132.437 72.5933Z" fill="#F9893D" fill-opacity="0.5"/>
<path d="M136.555 205.937V134.374H134.495L123.168 160.631H107.207L124.198 123.047H151.486V205.937H136.555Z" fill="#F9893D" fill-opacity="0.5"/>
<path d="M132.437 328.987C122.654 328.987 114.931 326.413 108.753 320.75C103.089 315.086 100 307.364 100 296.037V275.443C100 264.631 103.089 256.909 108.753 251.246C114.416 245.582 122.654 243.008 132.437 243.008C142.219 243.008 149.942 245.582 156.121 251.246C161.784 256.909 164.874 265.146 164.874 275.443V296.037C164.874 306.849 161.784 315.086 156.121 320.75C150.457 325.898 142.734 328.987 132.437 328.987ZM132.437 315.086C138.1 315.086 142.734 313.542 145.309 310.453C147.883 307.364 149.427 302.73 149.427 296.552V274.414C149.427 268.235 147.883 263.602 144.794 260.513C141.704 257.424 137.585 255.879 132.437 255.879C126.773 255.879 122.654 257.424 119.565 260.513C116.476 263.602 114.931 268.235 114.931 273.899V296.037C114.931 302.215 116.476 306.849 119.05 309.938C122.654 313.542 126.773 315.086 132.437 315.086Z" fill="#F9893D" fill-opacity="0.5"/>
<path d="M136.555 448.431V376.868H134.495L123.168 403.125H107.207L124.198 365.541H151.486V448.431H136.555Z" fill="#F9893D" fill-opacity="0.5"/>
<path d="M132.437 571.479C122.654 571.479 114.931 568.905 108.753 563.242C103.089 558.093 100 549.856 100 538.529V517.935C100 507.123 103.089 499.401 108.753 493.737C114.416 488.074 122.654 485.5 132.437 485.5C142.219 485.5 149.942 488.074 156.121 493.737C161.784 499.401 164.874 507.638 164.874 517.935V538.529C164.874 549.341 161.784 557.578 156.121 563.242C150.457 568.905 142.734 571.479 132.437 571.479ZM132.437 558.093C138.1 558.093 142.734 556.549 145.309 553.459C147.883 550.37 149.427 545.737 149.427 539.559V517.42C149.427 511.242 147.883 506.609 144.794 503.52C141.704 500.431 137.585 498.886 132.437 498.886C126.773 498.886 122.654 500.431 119.565 503.52C116.476 506.609 114.931 511.242 114.931 516.905V539.044C114.931 545.222 116.476 549.856 119.05 552.945C122.654 556.549 126.773 558.093 132.437 558.093Z" fill="#F9893D" fill-opacity="0.5"/>
<path d="M136.555 691.439V619.876H134.495L123.168 646.133H107.207L124.198 608.549H151.486V691.439H136.555Z" fill="#F9893D" fill-opacity="0.5"/>
<path d="M132.437 814.487C122.654 814.487 114.931 811.913 108.753 806.25C103.089 801.101 100 792.864 100 781.537V760.943C100 750.132 103.089 742.409 108.753 736.746C114.416 731.082 122.654 728.508 132.437 728.508C142.219 728.508 149.942 731.082 156.121 736.746C161.784 742.409 164.874 750.646 164.874 760.943V781.537C164.874 792.349 161.784 800.586 156.121 806.25C150.457 811.398 142.734 814.487 132.437 814.487ZM132.437 800.586C138.1 800.586 142.734 799.042 145.309 795.953C147.883 792.864 149.427 788.23 149.427 782.052V759.914C149.427 753.735 147.883 749.102 144.794 746.013C141.704 742.924 137.585 741.379 132.437 741.379C126.773 741.379 122.654 742.924 119.565 746.013C116.476 749.102 114.931 753.735 114.931 759.399V781.537C114.931 787.715 116.476 792.349 119.05 795.438C122.654 799.042 126.773 800.586 132.437 800.586Z" fill="#F9893D" fill-opacity="0.5"/>
<path d="M136.555 933.931V862.367H134.495L123.168 888.625H107.207L124.198 851.041H151.486V933.931H136.555Z" fill="#F9893D" fill-opacity="0.5"/>
<path d="M132.437 1056.98C122.654 1056.98 114.931 1054.4 108.753 1048.74C103.089 1043.08 100 1035.36 100 1024.03V1003.44C100 992.623 103.089 984.901 108.753 979.237C114.416 973.574 122.654 971 132.437 971C142.219 971 149.942 973.574 156.121 979.237C161.784 984.901 164.874 993.138 164.874 1003.44V1024.03C164.874 1034.84 161.784 1043.08 156.121 1048.74C150.457 1054.4 142.734 1056.98 132.437 1056.98ZM132.437 1043.59C138.1 1043.59 142.734 1042.05 145.309 1038.96C147.883 1035.87 149.427 1031.24 149.427 1025.06V1002.92C149.427 996.742 147.883 992.109 144.794 989.02C141.704 985.931 137.585 984.386 132.437 984.386C126.773 984.386 122.654 985.931 119.565 989.02C116.476 992.109 114.931 996.742 114.931 1002.41V1024.54C114.931 1030.72 116.476 1035.36 119.05 1038.44C122.654 1042.05 126.773 1043.59 132.437 1043.59Z" fill="#F9893D" fill-opacity="0.5"/>
</g>
</g>
</g>
<defs>
<clipPath id="clip0_163_7260">
<rect width="968" height="1070" fill="white"/>
</clipPath>
<clipPath id="clip1_163_7260">
<rect width="968" height="1070" fill="white"/>
</clipPath>
</defs>
</svg>
