<svg width="1920" height="1058" viewBox="0 0 1920 1058" fill="none" xmlns="http://www.w3.org/2000/svg">
<g clip-path="url(#clip0_161_6472)">
<rect width="1920" height="1058" fill="#1A1A1A"/>
<g clip-path="url(#clip1_161_6472)">
<g opacity="0.18">
<path d="M500.914 84.4051V12.3266H498.855L487.527 38.5838H471.566L488.557 1H515.845V84.4051H500.914Z" fill="#F9893D" fill-opacity="0.5"/>
<path d="M497.312 210.028C487.529 210.028 479.806 207.454 473.628 201.791C467.449 196.127 464.875 188.405 464.875 177.078V156.484C464.875 145.672 467.964 137.95 473.628 132.286C479.291 126.623 487.529 124.049 497.312 124.049C507.094 124.049 514.817 126.623 520.996 132.286C526.659 137.95 529.749 146.187 529.749 156.484V177.078C529.749 187.89 526.659 196.127 520.996 201.791C514.817 207.454 507.094 210.028 497.312 210.028ZM497.312 196.642C502.975 196.642 507.609 195.098 510.184 192.009C512.758 188.919 514.303 184.286 514.303 178.108V155.969C514.303 149.791 512.758 145.158 509.669 142.068C506.579 138.979 502.461 137.435 497.312 137.435C491.648 137.435 487.529 138.979 484.44 142.068C481.351 145.158 479.806 149.791 479.806 155.454V177.593C479.806 183.771 481.351 188.405 483.925 191.494C487.014 195.098 491.648 196.642 497.312 196.642Z" fill="#F9893D" fill-opacity="0.5"/>
<path d="M500.918 333.075V260.997H498.858L487.531 287.254H471.57L488.561 249.67H515.849V332.56H500.918V333.075Z" fill="#F9893D" fill-opacity="0.5"/>
<path d="M500.914 457.154V385.59H498.855L487.527 411.847H471.566L488.557 374.264H515.845V457.154H500.914Z" fill="#F9893D" fill-opacity="0.5"/>
<path d="M500.918 581.746V509.667H498.858L487.531 535.924H471.57L489.076 498.855H516.364V581.746H500.918Z" fill="#F9893D" fill-opacity="0.5"/>
<path d="M497.312 707.37C487.529 707.37 479.806 704.796 473.628 699.132C467.449 693.469 464.875 685.746 464.875 674.42V653.826C464.875 643.014 467.964 635.291 473.628 629.628C479.291 623.965 487.529 621.391 497.312 621.391C507.094 621.391 514.817 623.965 520.996 629.628C526.659 635.291 529.749 643.529 529.749 653.826V674.42C529.749 685.232 526.659 693.469 520.996 699.132C514.817 704.796 507.094 707.37 497.312 707.37ZM497.312 693.984C502.975 693.984 507.609 692.439 510.184 689.35C512.758 686.261 514.303 681.628 514.303 675.449V653.311C514.303 647.133 512.758 642.499 509.669 639.41C506.579 636.321 502.461 634.777 497.312 634.777C491.648 634.777 487.529 636.321 484.44 639.41C481.351 642.499 479.806 647.133 479.806 652.796V674.935C479.806 681.113 481.351 685.746 483.925 688.835C487.014 692.439 491.648 693.984 497.312 693.984Z" fill="#F9893D" fill-opacity="0.5"/>
<path d="M497.312 831.962C487.529 831.962 479.806 829.388 473.628 823.724C467.449 818.061 464.875 810.338 464.875 799.012V778.418C464.875 767.606 467.964 759.883 473.628 754.22C479.291 748.557 487.529 745.982 497.312 745.982C507.094 745.982 514.817 748.557 520.996 754.22C526.659 759.883 529.749 768.121 529.749 778.418V799.012C529.749 809.823 526.659 818.061 520.996 823.724C514.817 829.388 507.094 831.962 497.312 831.962ZM497.312 818.576C502.975 818.576 507.609 817.031 510.184 813.942C512.758 810.853 514.303 806.219 514.303 800.041V777.903C514.303 771.725 512.758 767.091 509.669 764.002C506.579 760.913 502.461 759.368 497.312 759.368C491.648 759.368 487.529 760.913 484.44 764.002C481.351 767.091 479.806 771.725 479.806 777.388V799.526C479.806 805.705 481.351 810.338 483.925 813.427C487.014 817.031 491.648 818.576 497.312 818.576Z" fill="#F9893D" fill-opacity="0.5"/>
<path d="M500.918 954.496V882.932H498.858L487.531 909.189H471.57L488.561 871.605H515.849V954.496H500.918Z" fill="#F9893D" fill-opacity="0.5"/>
<path d="M497.312 1080.63C487.529 1080.63 479.806 1078.06 473.628 1072.39C467.449 1066.73 464.875 1059.01 464.875 1047.68V1027.09C464.875 1016.28 467.964 1008.55 473.628 1002.89C479.291 997.227 487.529 994.652 497.312 994.652C507.094 994.652 514.817 997.227 520.996 1002.89C526.659 1008.55 529.749 1016.79 529.749 1027.09V1047.68C529.749 1058.49 526.659 1066.73 520.996 1072.39C514.817 1078.06 507.094 1080.63 497.312 1080.63ZM497.312 1067.25C502.975 1067.25 507.609 1065.7 510.184 1062.61C512.758 1059.52 514.303 1054.89 514.303 1048.71V1026.57C514.303 1020.39 512.758 1015.76 509.669 1012.67C506.579 1009.58 502.461 1008.04 497.312 1008.04C491.648 1008.04 487.529 1009.58 484.44 1012.67C481.351 1015.76 479.806 1020.39 479.806 1026.06V1048.2C479.806 1054.37 481.351 1059.01 483.925 1062.1C487.014 1065.7 491.648 1067.25 497.312 1067.25Z" fill="#F9893D" fill-opacity="0.5"/>
</g>
<g opacity="0.18">
<path d="M1696.4 165.048V106.241H1694.72L1685.48 127.664H1672.46L1686.32 97H1708.59V165.048H1696.4Z" fill="#F9893D" fill-opacity="0.5"/>
<path d="M1693.46 267.541C1685.48 267.541 1679.18 265.44 1674.14 260.82C1669.1 256.199 1667 249.899 1667 240.658V223.856C1667 215.035 1669.52 208.734 1674.14 204.113C1678.76 199.493 1685.48 197.393 1693.46 197.393C1701.45 197.393 1707.75 199.493 1712.79 204.113C1717.41 208.734 1719.93 215.455 1719.93 223.856V240.658C1719.93 249.479 1717.41 256.199 1712.79 260.82C1707.75 265.44 1701.45 267.541 1693.46 267.541ZM1693.46 256.619C1698.09 256.619 1701.87 255.359 1703.97 252.839C1706.07 250.319 1707.33 246.538 1707.33 241.498V223.436C1707.33 218.395 1706.07 214.615 1703.55 212.094C1701.03 209.574 1697.67 208.314 1693.46 208.314C1688.84 208.314 1685.48 209.574 1682.96 212.094C1680.44 214.615 1679.18 218.395 1679.18 223.016V241.078C1679.18 246.118 1680.44 249.899 1682.54 252.419C1685.06 255.359 1688.84 256.619 1693.46 256.619Z" fill="#F9893D" fill-opacity="0.5"/>
<path d="M1696.4 367.931V309.124H1694.72L1685.48 330.546H1672.46L1686.32 299.883H1708.59V367.511H1696.4V367.931Z" fill="#F9893D" fill-opacity="0.5"/>
<path d="M1696.4 469.163V410.776H1694.72L1685.48 432.199H1672.46L1686.32 401.535H1708.59V469.163H1696.4Z" fill="#F9893D" fill-opacity="0.5"/>
<path d="M1696.4 570.815V512.009H1694.72L1685.48 533.431H1672.46L1686.74 503.188H1709.01V570.815H1696.4Z" fill="#F9893D" fill-opacity="0.5"/>
<path d="M1693.46 673.306C1685.48 673.306 1679.18 671.206 1674.14 666.586C1669.1 661.965 1667 655.664 1667 646.423V629.621C1667 620.8 1669.52 614.5 1674.14 609.879C1678.76 605.258 1685.48 603.158 1693.46 603.158C1701.45 603.158 1707.75 605.258 1712.79 609.879C1717.41 614.5 1719.93 621.22 1719.93 629.621V646.423C1719.93 655.244 1717.41 661.965 1712.79 666.586C1707.75 671.206 1701.45 673.306 1693.46 673.306ZM1693.46 662.385C1698.09 662.385 1701.87 661.125 1703.97 658.605C1706.07 656.084 1707.33 652.304 1707.33 647.263V629.201C1707.33 624.161 1706.07 620.38 1703.55 617.86C1701.03 615.34 1697.67 614.079 1693.46 614.079C1688.84 614.079 1685.48 615.34 1682.96 617.86C1680.44 620.38 1679.18 624.161 1679.18 628.781V646.843C1679.18 651.884 1680.44 655.664 1682.54 658.185C1685.06 661.125 1688.84 662.385 1693.46 662.385Z" fill="#F9893D" fill-opacity="0.5"/>
<path d="M1693.46 774.959C1685.48 774.959 1679.18 772.858 1674.14 768.238C1669.1 763.617 1667 757.317 1667 748.076V731.274C1667 722.453 1669.52 716.152 1674.14 711.531C1678.76 706.911 1685.48 704.811 1693.46 704.811C1701.45 704.811 1707.75 706.911 1712.79 711.531C1717.41 716.152 1719.93 722.873 1719.93 731.274V748.076C1719.93 756.897 1717.41 763.617 1712.79 768.238C1707.75 772.858 1701.45 774.959 1693.46 774.959ZM1693.46 764.037C1698.09 764.037 1701.87 762.777 1703.97 760.257C1706.07 757.737 1707.33 753.956 1707.33 748.916V730.854C1707.33 725.813 1706.07 722.033 1703.55 719.512C1701.03 716.992 1697.67 715.732 1693.46 715.732C1688.84 715.732 1685.48 716.992 1682.96 719.512C1680.44 722.033 1679.18 725.813 1679.18 730.434V748.496C1679.18 753.536 1680.44 757.317 1682.54 759.837C1685.06 762.777 1688.84 764.037 1693.46 764.037Z" fill="#F9893D" fill-opacity="0.5"/>
<path d="M1696.4 874.931V816.544H1694.72L1685.48 837.966H1672.46L1686.32 807.303H1708.59V874.931H1696.4Z" fill="#F9893D" fill-opacity="0.5"/>
<path d="M1693.46 977.841C1685.48 977.841 1679.18 975.741 1674.14 971.121C1669.1 966.5 1667 960.199 1667 950.958V934.156C1667 925.335 1669.52 919.035 1674.14 914.414C1678.76 909.794 1685.48 907.693 1693.46 907.693C1701.45 907.693 1707.75 909.794 1712.79 914.414C1717.41 919.035 1719.93 925.755 1719.93 934.156V950.958C1719.93 959.779 1717.41 966.5 1712.79 971.121C1707.75 975.741 1701.45 977.841 1693.46 977.841ZM1693.46 966.92C1698.09 966.92 1701.87 965.66 1703.97 963.14C1706.07 960.619 1707.33 956.839 1707.33 951.798V933.736C1707.33 928.696 1706.07 924.915 1703.55 922.395C1701.03 919.875 1697.67 918.615 1693.46 918.615C1688.84 918.615 1685.48 919.875 1682.96 922.395C1680.44 924.915 1679.18 928.696 1679.18 933.316V951.378C1679.18 956.419 1680.44 960.199 1682.54 962.72C1685.06 965.66 1688.84 966.92 1693.46 966.92Z" fill="#F9893D" fill-opacity="0.5"/>
<path opacity="0.78" d="M1696.4 1077.81V1019.43H1694.72L1685.48 1040.85H1672.46L1686.32 1010.19H1708.59V1077.81H1696.4Z" fill="#F9893D" fill-opacity="0.5"/>
</g>
<g opacity="0.18">
<path d="M232.437 86.9792C222.654 86.9792 214.931 84.4051 208.753 78.7418C203.089 73.5933 200 65.3557 200 54.0291V33.4352C200 22.6235 203.089 14.9009 208.753 9.23757C214.416 3.57426 222.654 1 232.437 1C242.219 1 249.942 3.57426 256.121 9.23757C261.784 14.9009 264.874 23.1383 264.874 33.4352V54.0291C264.874 64.8409 261.784 73.0785 256.121 78.7418C250.457 84.4051 242.734 86.9792 232.437 86.9792ZM232.437 73.5933C238.1 73.5933 242.734 72.0487 245.309 68.9596C247.883 65.8705 249.427 61.237 249.427 55.0588V32.9204C249.427 26.7422 247.883 22.1087 244.794 19.0196C241.704 15.9305 237.585 14.386 232.437 14.386C226.773 14.386 222.654 15.9305 219.565 19.0196C216.476 22.1087 214.931 26.7423 214.931 32.4056V54.544C214.931 60.7221 216.476 65.3558 219.05 68.4449C222.654 72.0488 226.773 73.5933 232.437 73.5933Z" fill="#F9893D" fill-opacity="0.5"/>
<path d="M236.555 206.939V135.376H234.495L223.168 161.633H207.207L224.198 124.049H251.486V206.939H236.555Z" fill="#F9893D" fill-opacity="0.5"/>
<path d="M232.437 329.987C222.654 329.987 214.931 327.413 208.753 321.75C203.089 316.086 200 308.364 200 297.037V276.443C200 265.631 203.089 257.909 208.753 252.246C214.416 246.582 222.654 244.008 232.437 244.008C242.219 244.008 249.942 246.582 256.121 252.246C261.784 257.909 264.874 266.146 264.874 276.443V297.037C264.874 307.849 261.784 316.086 256.121 321.75C250.457 326.898 242.734 329.987 232.437 329.987ZM232.437 316.086C238.1 316.086 242.734 314.542 245.309 311.453C247.883 308.364 249.427 303.73 249.427 297.552V275.414C249.427 269.235 247.883 264.602 244.794 261.513C241.704 258.424 237.585 256.879 232.437 256.879C226.773 256.879 222.654 258.424 219.565 261.513C216.476 264.602 214.931 269.235 214.931 274.899V297.037C214.931 303.215 216.476 307.849 219.05 310.938C222.654 314.542 226.773 316.086 232.437 316.086Z" fill="#F9893D" fill-opacity="0.5"/>
<path d="M236.555 449.431V377.868H234.495L223.168 404.125H207.207L224.198 366.541H251.486V449.431H236.555Z" fill="#F9893D" fill-opacity="0.5"/>
<path d="M232.437 572.479C222.654 572.479 214.931 569.905 208.753 564.242C203.089 559.093 200 550.856 200 539.529V518.935C200 508.123 203.089 500.401 208.753 494.737C214.416 489.074 222.654 486.5 232.437 486.5C242.219 486.5 249.942 489.074 256.121 494.737C261.784 500.401 264.874 508.638 264.874 518.935V539.529C264.874 550.341 261.784 558.578 256.121 564.242C250.457 569.905 242.734 572.479 232.437 572.479ZM232.437 559.093C238.1 559.093 242.734 557.549 245.309 554.459C247.883 551.37 249.427 546.737 249.427 540.559V518.42C249.427 512.242 247.883 507.609 244.794 504.52C241.704 501.431 237.585 499.886 232.437 499.886C226.773 499.886 222.654 501.431 219.565 504.52C216.476 507.609 214.931 512.242 214.931 517.905V540.044C214.931 546.222 216.476 550.856 219.05 553.945C222.654 557.549 226.773 559.093 232.437 559.093Z" fill="#F9893D" fill-opacity="0.5"/>
<path d="M236.555 692.439V620.876H234.495L223.168 647.133H207.207L224.198 609.549H251.486V692.439H236.555Z" fill="#F9893D" fill-opacity="0.5"/>
<path d="M232.437 815.487C222.654 815.487 214.931 812.913 208.753 807.25C203.089 802.101 200 793.864 200 782.537V761.943C200 751.132 203.089 743.409 208.753 737.746C214.416 732.082 222.654 729.508 232.437 729.508C242.219 729.508 249.942 732.082 256.121 737.746C261.784 743.409 264.874 751.646 264.874 761.943V782.537C264.874 793.349 261.784 801.586 256.121 807.25C250.457 812.398 242.734 815.487 232.437 815.487ZM232.437 801.586C238.1 801.586 242.734 800.042 245.309 796.953C247.883 793.864 249.427 789.23 249.427 783.052V760.914C249.427 754.735 247.883 750.102 244.794 747.013C241.704 743.924 237.585 742.379 232.437 742.379C226.773 742.379 222.654 743.924 219.565 747.013C216.476 750.102 214.931 754.735 214.931 760.399V782.537C214.931 788.715 216.476 793.349 219.05 796.438C222.654 800.042 226.773 801.586 232.437 801.586Z" fill="#F9893D" fill-opacity="0.5"/>
<path d="M236.555 934.931V863.367H234.495L223.168 889.625H207.207L224.198 852.041H251.486V934.931H236.555Z" fill="#F9893D" fill-opacity="0.5"/>
<path d="M232.437 1057.98C222.654 1057.98 214.931 1055.4 208.753 1049.74C203.089 1044.08 200 1036.36 200 1025.03V1004.44C200 993.623 203.089 985.901 208.753 980.237C214.416 974.574 222.654 972 232.437 972C242.219 972 249.942 974.574 256.121 980.237C261.784 985.901 264.874 994.138 264.874 1004.44V1025.03C264.874 1035.84 261.784 1044.08 256.121 1049.74C250.457 1055.4 242.734 1057.98 232.437 1057.98ZM232.437 1044.59C238.1 1044.59 242.734 1043.05 245.309 1039.96C247.883 1036.87 249.427 1032.24 249.427 1026.06V1003.92C249.427 997.742 247.883 993.109 244.794 990.02C241.704 986.931 237.585 985.386 232.437 985.386C226.773 985.386 222.654 986.931 219.565 990.02C216.476 993.109 214.931 997.742 214.931 1003.41V1025.54C214.931 1031.72 216.476 1036.36 219.05 1039.44C222.654 1043.05 226.773 1044.59 232.437 1044.59Z" fill="#F9893D" fill-opacity="0.5"/>
</g>
</g>
</g>
<defs>
<clipPath id="clip0_161_6472">
<rect width="1920" height="1058" fill="white"/>
</clipPath>
<clipPath id="clip1_161_6472">
<rect width="1920" height="1057" fill="white" transform="translate(0 1)"/>
</clipPath>
</defs>
</svg>
