<svg width="678" height="1070" viewBox="0 0 678 1070" fill="none" xmlns="http://www.w3.org/2000/svg">
<g clip-path="url(#clip0_163_7566)">
<rect width="678" height="1070" fill="#1A1A1A"/>
<g clip-path="url(#clip1_163_7566)">
<g opacity="0.18">
<path d="M241.094 83.4051V11.3266H239.032L227.688 37.5838H211.703L228.719 0H256.047V83.4051H241.094Z" fill="#F9893D" fill-opacity="0.5"/>
<path d="M237.485 209.026C227.688 209.026 219.953 206.452 213.766 200.789C207.578 195.125 205 187.403 205 176.076V155.482C205 144.67 208.094 136.948 213.766 131.284C219.438 125.621 227.688 123.047 237.485 123.047C247.282 123.047 255.016 125.621 261.204 131.284C266.876 136.948 269.969 145.185 269.969 155.482V176.076C269.969 186.888 266.876 195.125 261.204 200.789C255.016 206.452 247.282 209.026 237.485 209.026ZM237.485 195.64C243.157 195.64 247.797 194.096 250.376 191.007C252.954 187.917 254.501 183.284 254.501 177.106V154.967C254.501 148.789 252.954 144.156 249.86 141.066C246.766 137.977 242.641 136.433 237.485 136.433C231.813 136.433 227.688 137.977 224.594 141.066C221.5 144.156 219.953 148.789 219.953 154.452V176.591C219.953 182.769 221.5 187.403 224.078 190.492C227.172 194.096 231.813 195.64 237.485 195.64Z" fill="#F9893D" fill-opacity="0.5"/>
<path d="M241.094 332.077V259.998H239.032L227.688 286.256H211.703L228.719 248.672H256.047V331.562H241.094V332.077Z" fill="#F9893D" fill-opacity="0.5"/>
<path d="M241.094 456.156V384.592H239.032L227.688 410.849H211.703L228.719 373.266H256.047V456.156H241.094Z" fill="#F9893D" fill-opacity="0.5"/>
<path d="M241.094 580.746V508.667H239.032L227.688 534.924H211.703L229.235 497.855H256.563V580.746H241.094Z" fill="#F9893D" fill-opacity="0.5"/>
<path d="M237.485 706.37C227.688 706.37 219.953 703.796 213.766 698.132C207.578 692.469 205 684.746 205 673.42V652.826C205 642.014 208.094 634.291 213.766 628.628C219.438 622.965 227.688 620.391 237.485 620.391C247.282 620.391 255.016 622.965 261.204 628.628C266.876 634.291 269.969 642.529 269.969 652.826V673.42C269.969 684.232 266.876 692.469 261.204 698.132C255.016 703.796 247.282 706.37 237.485 706.37ZM237.485 692.984C243.157 692.984 247.797 691.439 250.376 688.35C252.954 685.261 254.501 680.628 254.501 674.449V652.311C254.501 646.133 252.954 641.499 249.86 638.41C246.766 635.321 242.641 633.777 237.485 633.777C231.813 633.777 227.688 635.321 224.594 638.41C221.5 641.499 219.953 646.133 219.953 651.796V673.935C219.953 680.113 221.5 684.746 224.078 687.835C227.172 691.439 231.813 692.984 237.485 692.984Z" fill="#F9893D" fill-opacity="0.5"/>
<path d="M237.485 830.964C227.688 830.964 219.953 828.389 213.766 822.726C207.578 817.063 205 809.34 205 798.014V777.42C205 766.608 208.094 758.885 213.766 753.222C219.438 747.559 227.688 744.984 237.485 744.984C247.282 744.984 255.016 747.559 261.204 753.222C266.876 758.885 269.969 767.123 269.969 777.42V798.014C269.969 808.825 266.876 817.063 261.204 822.726C255.016 828.389 247.282 830.964 237.485 830.964ZM237.485 817.578C243.157 817.578 247.797 816.033 250.376 812.944C252.954 809.855 254.501 805.221 254.501 799.043V776.905C254.501 770.727 252.954 766.093 249.86 763.004C246.766 759.915 242.641 758.37 237.485 758.37C231.813 758.37 227.688 759.915 224.594 763.004C221.5 766.093 219.953 770.727 219.953 776.39V798.528C219.953 804.706 221.5 809.34 224.078 812.429C227.172 816.033 231.813 817.578 237.485 817.578Z" fill="#F9893D" fill-opacity="0.5"/>
<path d="M241.094 953.496V881.932H239.032L227.688 908.189H211.703L228.719 870.605H256.047V953.496H241.094Z" fill="#F9893D" fill-opacity="0.5"/>
<path d="M237.485 1079.63C227.688 1079.63 219.953 1077.06 213.766 1071.39C207.578 1065.73 205 1058.01 205 1046.68V1026.09C205 1015.28 208.094 1007.55 213.766 1001.89C219.438 996.227 227.688 993.652 237.485 993.652C247.282 993.652 255.016 996.227 261.204 1001.89C266.876 1007.55 269.969 1015.79 269.969 1026.09V1046.68C269.969 1057.49 266.876 1065.73 261.204 1071.39C255.016 1077.06 247.282 1079.63 237.485 1079.63ZM237.485 1066.25C243.157 1066.25 247.797 1064.7 250.376 1061.61C252.954 1058.52 254.501 1053.89 254.501 1047.71V1025.57C254.501 1019.39 252.954 1014.76 249.86 1011.67C246.766 1008.58 242.641 1007.04 237.485 1007.04C231.813 1007.04 227.688 1008.58 224.594 1011.67C221.5 1014.76 219.953 1019.39 219.953 1025.06V1047.2C219.953 1053.37 221.5 1058.01 224.078 1061.1C227.172 1064.7 231.813 1066.25 237.485 1066.25Z" fill="#F9893D" fill-opacity="0.5"/>
</g>
<g opacity="0.18">
<path d="M583.448 222.048V163.241H581.765L572.51 184.664H559.469L573.351 154H595.648V222.048H583.448Z" fill="#F9893D" fill-opacity="0.5"/>
<path d="M580.503 324.539C572.51 324.539 566.2 322.439 561.152 317.818C556.103 313.197 554 306.897 554 297.656V280.854C554 272.033 556.524 265.732 561.152 261.111C565.779 256.491 572.51 254.391 580.503 254.391C588.497 254.391 594.807 256.491 599.855 261.111C604.483 265.732 607.007 272.453 607.007 280.854V297.656C607.007 306.477 604.483 313.197 599.855 317.818C594.807 322.439 588.497 324.539 580.503 324.539ZM580.503 313.617C585.131 313.617 588.917 312.357 591.021 309.837C593.124 307.317 594.386 303.536 594.386 298.496V280.434C594.386 275.393 593.124 271.613 590.6 269.092C588.076 266.572 584.71 265.312 580.503 265.312C575.876 265.312 572.51 266.572 569.986 269.092C567.462 271.613 566.2 275.393 566.2 280.014V298.076C566.2 303.116 567.462 306.897 569.565 309.417C572.09 312.357 575.876 313.617 580.503 313.617Z" fill="#F9893D" fill-opacity="0.5"/>
<path d="M583.448 424.931V366.124H581.765L572.51 387.546H559.469L573.351 356.883H595.648V424.511H583.448V424.931Z" fill="#F9893D" fill-opacity="0.5"/>
<path d="M583.448 526.163V467.776H581.765L572.51 489.199H559.469L573.351 458.535H595.648V526.163H583.448Z" fill="#F9893D" fill-opacity="0.5"/>
<path d="M583.448 627.815V569.009H581.765L572.51 590.431H559.469L573.772 560.188H596.069V627.815H583.448Z" fill="#F9893D" fill-opacity="0.5"/>
<path d="M580.503 730.308C572.51 730.308 566.2 728.208 561.152 723.588C556.103 718.967 554 712.666 554 703.425V686.623C554 677.802 556.524 671.501 561.152 666.881C565.779 662.26 572.51 660.16 580.503 660.16C588.497 660.16 594.807 662.26 599.855 666.881C604.483 671.501 607.007 678.222 607.007 686.623V703.425C607.007 712.246 604.483 718.967 599.855 723.588C594.807 728.208 588.497 730.308 580.503 730.308ZM580.503 719.387C585.131 719.387 588.917 718.127 591.021 715.607C593.124 713.086 594.386 709.306 594.386 704.265V686.203C594.386 681.163 593.124 677.382 590.6 674.862C588.076 672.342 584.71 671.081 580.503 671.081C575.876 671.081 572.51 672.342 569.986 674.862C567.462 677.382 566.2 681.163 566.2 685.783V703.845C566.2 708.886 567.462 712.666 569.565 715.187C572.09 718.127 575.876 719.387 580.503 719.387Z" fill="#F9893D" fill-opacity="0.5"/>
<path d="M580.503 831.961C572.51 831.961 566.2 829.86 561.152 825.24C556.103 820.619 554 814.319 554 805.078V788.276C554 779.455 556.524 773.154 561.152 768.533C565.779 763.913 572.51 761.812 580.503 761.812C588.497 761.812 594.807 763.913 599.855 768.533C604.483 773.154 607.007 779.875 607.007 788.276V805.078C607.007 813.899 604.483 820.619 599.855 825.24C594.807 829.86 588.497 831.961 580.503 831.961ZM580.503 821.039C585.131 821.039 588.917 819.779 591.021 817.259C593.124 814.739 594.386 810.958 594.386 805.918V787.856C594.386 782.815 593.124 779.034 590.6 776.514C588.076 773.994 584.71 772.734 580.503 772.734C575.876 772.734 572.51 773.994 569.986 776.514C567.462 779.034 566.2 782.815 566.2 787.435V805.498C566.2 810.538 567.462 814.319 569.565 816.839C572.09 819.779 575.876 821.039 580.503 821.039Z" fill="#F9893D" fill-opacity="0.5"/>
<path d="M583.448 931.933V873.546H581.765L572.51 894.968H559.469L573.351 864.305H595.648V931.933H583.448Z" fill="#F9893D" fill-opacity="0.5"/>
<path d="M580.503 1034.84C572.51 1034.84 566.2 1032.74 561.152 1028.12C556.103 1023.5 554 1017.2 554 1007.96V991.158C554 982.337 556.524 976.037 561.152 971.416C565.779 966.796 572.51 964.695 580.503 964.695C588.497 964.695 594.807 966.796 599.855 971.416C604.483 976.037 607.007 982.757 607.007 991.158V1007.96C607.007 1016.78 604.483 1023.5 599.855 1028.12C594.807 1032.74 588.497 1034.84 580.503 1034.84ZM580.503 1023.92C585.131 1023.92 588.917 1022.66 591.021 1020.14C593.124 1017.62 594.386 1013.84 594.386 1008.8V990.738C594.386 985.698 593.124 981.917 590.6 979.397C588.076 976.877 584.71 975.617 580.503 975.617C575.876 975.617 572.51 976.877 569.986 979.397C567.462 981.917 566.2 985.698 566.2 990.318V1008.38C566.2 1013.42 567.462 1017.2 569.565 1019.72C572.09 1022.66 575.876 1023.92 580.503 1023.92Z" fill="#F9893D" fill-opacity="0.5"/>
<path opacity="0.78" d="M583.448 1134.82V1076.43H581.765L572.51 1097.85H559.469L573.351 1067.19H595.648V1134.82H583.448Z" fill="#F9893D" fill-opacity="0.5"/>
</g>
<g opacity="0.18">
<path d="M102.485 85.9792C92.6877 85.9792 84.9532 83.4051 78.7656 77.7418C73.0937 72.5933 70 64.3557 70 53.0291V32.4352C70 21.6235 73.0937 13.9009 78.7656 8.23757C84.4376 2.57426 92.6877 0 102.485 0C112.282 0 120.016 2.57426 126.204 8.23757C131.876 13.9009 134.969 22.1383 134.969 32.4352V53.0291C134.969 63.8409 131.876 72.0785 126.204 77.7418C120.532 83.4051 112.797 85.9792 102.485 85.9792ZM102.485 72.5933C108.157 72.5933 112.797 71.0487 115.375 67.9596C117.954 64.8705 119.5 60.237 119.5 54.0588V31.9204C119.5 25.7422 117.954 21.1087 114.86 18.0196C111.766 14.9305 107.641 13.386 102.485 13.386C96.8127 13.386 92.6877 14.9305 89.5939 18.0196C86.5001 21.1087 84.9533 25.7423 84.9533 31.4056V53.544C84.9533 59.7221 86.5001 64.3558 89.0783 67.4449C92.6877 71.0488 96.8127 72.5933 102.485 72.5933Z" fill="#F9893D" fill-opacity="0.5"/>
<path d="M106.61 205.937V134.374H104.547L93.2033 160.631H77.2188L94.2345 123.047H121.563V205.937H106.61Z" fill="#F9893D" fill-opacity="0.5"/>
<path d="M102.485 328.987C92.6877 328.987 84.9532 326.413 78.7656 320.75C73.0937 315.086 70 307.364 70 296.037V275.443C70 264.631 73.0937 256.909 78.7656 251.246C84.4376 245.582 92.6877 243.008 102.485 243.008C112.282 243.008 120.016 245.582 126.204 251.246C131.876 256.909 134.969 265.146 134.969 275.443V296.037C134.969 306.849 131.876 315.086 126.204 320.75C120.532 325.898 112.797 328.987 102.485 328.987ZM102.485 315.086C108.157 315.086 112.797 313.542 115.375 310.453C117.954 307.364 119.5 302.73 119.5 296.552V274.414C119.5 268.235 117.954 263.602 114.86 260.513C111.766 257.424 107.641 255.879 102.485 255.879C96.8127 255.879 92.6877 257.424 89.5939 260.513C86.5001 263.602 84.9533 268.235 84.9533 273.899V296.037C84.9533 302.215 86.5001 306.849 89.0783 309.938C92.6877 313.542 96.8127 315.086 102.485 315.086Z" fill="#F9893D" fill-opacity="0.5"/>
<path d="M106.61 448.429V376.866H104.547L93.2033 403.123H77.2188L94.2345 365.539H121.563V448.429H106.61Z" fill="#F9893D" fill-opacity="0.5"/>
<path d="M102.485 571.479C92.6877 571.479 84.9532 568.905 78.7656 563.242C73.0937 558.093 70 549.856 70 538.529V517.935C70 507.123 73.0937 499.401 78.7656 493.737C84.4376 488.074 92.6877 485.5 102.485 485.5C112.282 485.5 120.016 488.074 126.204 493.737C131.876 499.401 134.969 507.638 134.969 517.935V538.529C134.969 549.341 131.876 557.578 126.204 563.242C120.532 568.905 112.797 571.479 102.485 571.479ZM102.485 558.093C108.157 558.093 112.797 556.549 115.375 553.459C117.954 550.37 119.5 545.737 119.5 539.559V517.42C119.5 511.242 117.954 506.609 114.86 503.52C111.766 500.431 107.641 498.886 102.485 498.886C96.8127 498.886 92.6877 500.431 89.5939 503.52C86.5001 506.609 84.9533 511.242 84.9533 516.905V539.044C84.9533 545.222 86.5001 549.856 89.0783 552.945C92.6877 556.549 96.8127 558.093 102.485 558.093Z" fill="#F9893D" fill-opacity="0.5"/>
<path d="M106.61 691.437V619.874H104.547L93.2033 646.131H77.2188L94.2345 608.547H121.563V691.437H106.61Z" fill="#F9893D" fill-opacity="0.5"/>
<path d="M102.485 814.487C92.6877 814.487 84.9532 811.913 78.7656 806.25C73.0937 801.101 70 792.864 70 781.537V760.943C70 750.132 73.0937 742.409 78.7656 736.746C84.4376 731.082 92.6877 728.508 102.485 728.508C112.282 728.508 120.016 731.082 126.204 736.746C131.876 742.409 134.969 750.646 134.969 760.943V781.537C134.969 792.349 131.876 800.586 126.204 806.25C120.532 811.398 112.797 814.487 102.485 814.487ZM102.485 800.586C108.157 800.586 112.797 799.042 115.375 795.953C117.954 792.864 119.5 788.23 119.5 782.052V759.914C119.5 753.735 117.954 749.102 114.86 746.013C111.766 742.924 107.641 741.379 102.485 741.379C96.8127 741.379 92.6877 742.924 89.5939 746.013C86.5001 749.102 84.9533 753.735 84.9533 759.399V781.537C84.9533 787.715 86.5001 792.349 89.0783 795.438C92.6877 799.042 96.8127 800.586 102.485 800.586Z" fill="#F9893D" fill-opacity="0.5"/>
<path d="M106.61 933.929V862.365H104.547L93.2033 888.623H77.2188L94.2345 851.039H121.563V933.929H106.61Z" fill="#F9893D" fill-opacity="0.5"/>
<path d="M102.485 1056.98C92.6877 1056.98 84.9532 1054.4 78.7656 1048.74C73.0937 1043.08 70 1035.36 70 1024.03V1003.44C70 992.623 73.0937 984.901 78.7656 979.237C84.4376 973.574 92.6877 971 102.485 971C112.282 971 120.016 973.574 126.204 979.237C131.876 984.901 134.969 993.138 134.969 1003.44V1024.03C134.969 1034.84 131.876 1043.08 126.204 1048.74C120.532 1054.4 112.797 1056.98 102.485 1056.98ZM102.485 1043.59C108.157 1043.59 112.797 1042.05 115.375 1038.96C117.954 1035.87 119.5 1031.24 119.5 1025.06V1002.92C119.5 996.742 117.954 992.109 114.86 989.02C111.766 985.931 107.641 984.386 102.485 984.386C96.8127 984.386 92.6877 985.931 89.5939 989.02C86.5001 992.109 84.9533 996.742 84.9533 1002.41V1024.54C84.9533 1030.72 86.5001 1035.36 89.0783 1038.44C92.6877 1042.05 96.8127 1043.59 102.485 1043.59Z" fill="#F9893D" fill-opacity="0.5"/>
</g>
</g>
</g>
<defs>
<clipPath id="clip0_163_7566">
<rect width="678" height="1070" fill="white"/>
</clipPath>
<clipPath id="clip1_163_7566">
<rect width="678" height="1070" fill="white"/>
</clipPath>
</defs>
</svg>
