<svg width="320" height="971" viewBox="0 0 320 971" fill="none" xmlns="http://www.w3.org/2000/svg">
<g clip-path="url(#clip0_163_8125)">
<rect width="320" height="971" fill="#1A1A1A"/>
<g clip-path="url(#clip1_163_8125)">
<g opacity="0.18">
<path d="M165.094 83.4051V11.3266H163.032L151.688 37.5838H135.703L152.719 0H180.047V83.4051H165.094Z" fill="#F9893D" fill-opacity="0.5"/>
<path d="M161.485 209.026C151.688 209.026 143.953 206.452 137.766 200.789C131.578 195.125 129 187.403 129 176.076V155.482C129 144.67 132.094 136.948 137.766 131.284C143.438 125.621 151.688 123.047 161.485 123.047C171.282 123.047 179.016 125.621 185.204 131.284C190.876 136.948 193.969 145.185 193.969 155.482V176.076C193.969 186.888 190.876 195.125 185.204 200.789C179.016 206.452 171.282 209.026 161.485 209.026ZM161.485 195.64C167.157 195.64 171.797 194.096 174.376 191.007C176.954 187.917 178.501 183.284 178.501 177.106V154.967C178.501 148.789 176.954 144.156 173.86 141.066C170.766 137.977 166.641 136.433 161.485 136.433C155.813 136.433 151.688 137.977 148.594 141.066C145.5 144.156 143.953 148.789 143.953 154.452V176.591C143.953 182.769 145.5 187.403 148.078 190.492C151.172 194.096 155.813 195.64 161.485 195.64Z" fill="#F9893D" fill-opacity="0.5"/>
<path d="M165.094 332.077V259.998H163.032L151.688 286.256H135.703L152.719 248.672H180.047V331.562H165.094V332.077Z" fill="#F9893D" fill-opacity="0.5"/>
<path d="M165.094 456.156V384.592H163.032L151.688 410.849H135.703L152.719 373.266H180.047V456.156H165.094Z" fill="#F9893D" fill-opacity="0.5"/>
<path d="M165.094 580.746V508.667H163.032L151.688 534.924H135.703L153.235 497.855H180.563V580.746H165.094Z" fill="#F9893D" fill-opacity="0.5"/>
<path d="M161.485 706.37C151.688 706.37 143.953 703.796 137.766 698.132C131.578 692.469 129 684.746 129 673.42V652.826C129 642.014 132.094 634.291 137.766 628.628C143.438 622.965 151.688 620.391 161.485 620.391C171.282 620.391 179.016 622.965 185.204 628.628C190.876 634.291 193.969 642.529 193.969 652.826V673.42C193.969 684.232 190.876 692.469 185.204 698.132C179.016 703.796 171.282 706.37 161.485 706.37ZM161.485 692.984C167.157 692.984 171.797 691.439 174.376 688.35C176.954 685.261 178.501 680.628 178.501 674.449V652.311C178.501 646.133 176.954 641.499 173.86 638.41C170.766 635.321 166.641 633.777 161.485 633.777C155.813 633.777 151.688 635.321 148.594 638.41C145.5 641.499 143.953 646.133 143.953 651.796V673.935C143.953 680.113 145.5 684.746 148.078 687.835C151.172 691.439 155.813 692.984 161.485 692.984Z" fill="#F9893D" fill-opacity="0.5"/>
<path d="M161.485 830.964C151.688 830.964 143.953 828.389 137.766 822.726C131.578 817.063 129 809.34 129 798.014V777.42C129 766.608 132.094 758.885 137.766 753.222C143.438 747.559 151.688 744.984 161.485 744.984C171.282 744.984 179.016 747.559 185.204 753.222C190.876 758.885 193.969 767.123 193.969 777.42V798.014C193.969 808.825 190.876 817.063 185.204 822.726C179.016 828.389 171.282 830.964 161.485 830.964ZM161.485 817.578C167.157 817.578 171.797 816.033 174.376 812.944C176.954 809.855 178.501 805.221 178.501 799.043V776.905C178.501 770.727 176.954 766.093 173.86 763.004C170.766 759.915 166.641 758.37 161.485 758.37C155.813 758.37 151.688 759.915 148.594 763.004C145.5 766.093 143.953 770.727 143.953 776.39V798.528C143.953 804.706 145.5 809.34 148.078 812.429C151.172 816.033 155.813 817.578 161.485 817.578Z" fill="#F9893D" fill-opacity="0.5"/>
<path d="M165.094 953.496V881.932H163.032L151.688 908.189H135.703L152.719 870.605H180.047V953.496H165.094Z" fill="#F9893D" fill-opacity="0.5"/>
</g>
<g opacity="0.18">
<path d="M56.4847 85.9792C46.6877 85.9792 38.9532 83.4051 32.7656 77.7418C27.0937 72.5933 24 64.3557 24 53.0291V32.4352C24 21.6235 27.0937 13.9009 32.7656 8.23757C38.4376 2.57426 46.6877 0 56.4847 0C66.2817 0 74.0162 2.57426 80.2037 8.23757C85.8757 13.9009 88.9694 22.1383 88.9694 32.4352V53.0291C88.9694 63.8409 85.8757 72.0785 80.2037 77.7418C74.5318 83.4051 66.7973 85.9792 56.4847 85.9792ZM56.4847 72.5933C62.1566 72.5933 66.7973 71.0487 69.3755 67.9596C71.9536 64.8705 73.5004 60.237 73.5004 54.0588V31.9204C73.5004 25.7422 71.9536 21.1087 68.8598 18.0196C65.766 14.9305 61.641 13.386 56.4847 13.386C50.8127 13.386 46.6877 14.9305 43.5939 18.0196C40.5001 21.1087 38.9533 25.7423 38.9533 31.4056V53.544C38.9533 59.7221 40.5001 64.3558 43.0783 67.4449C46.6877 71.0488 50.8127 72.5933 56.4847 72.5933Z" fill="#F9893D" fill-opacity="0.5"/>
<path d="M60.6096 205.937V134.374H58.5471L47.2033 160.631H31.2188L48.2345 123.047H75.563V205.937H60.6096Z" fill="#F9893D" fill-opacity="0.5"/>
<path d="M56.4847 328.987C46.6877 328.987 38.9532 326.413 32.7656 320.75C27.0937 315.086 24 307.364 24 296.037V275.443C24 264.631 27.0937 256.909 32.7656 251.246C38.4376 245.582 46.6877 243.008 56.4847 243.008C66.2817 243.008 74.0162 245.582 80.2037 251.246C85.8757 256.909 88.9694 265.146 88.9694 275.443V296.037C88.9694 306.849 85.8757 315.086 80.2037 320.75C74.5318 325.898 66.7973 328.987 56.4847 328.987ZM56.4847 315.086C62.1566 315.086 66.7973 313.542 69.3755 310.453C71.9536 307.364 73.5004 302.73 73.5004 296.552V274.414C73.5004 268.235 71.9536 263.602 68.8598 260.513C65.766 257.424 61.641 255.879 56.4847 255.879C50.8127 255.879 46.6877 257.424 43.5939 260.513C40.5001 263.602 38.9533 268.235 38.9533 273.899V296.037C38.9533 302.215 40.5001 306.849 43.0783 309.938C46.6877 313.542 50.8127 315.086 56.4847 315.086Z" fill="#F9893D" fill-opacity="0.5"/>
<path d="M60.6096 448.429V376.866H58.5471L47.2033 403.123H31.2188L48.2345 365.539H75.563V448.429H60.6096Z" fill="#F9893D" fill-opacity="0.5"/>
<path d="M56.4847 571.479C46.6877 571.479 38.9532 568.905 32.7656 563.242C27.0937 558.093 24 549.856 24 538.529V517.935C24 507.123 27.0937 499.401 32.7656 493.737C38.4376 488.074 46.6877 485.5 56.4847 485.5C66.2817 485.5 74.0162 488.074 80.2037 493.737C85.8757 499.401 88.9694 507.638 88.9694 517.935V538.529C88.9694 549.341 85.8757 557.578 80.2037 563.242C74.5318 568.905 66.7973 571.479 56.4847 571.479ZM56.4847 558.093C62.1566 558.093 66.7973 556.549 69.3755 553.459C71.9536 550.37 73.5004 545.737 73.5004 539.559V517.42C73.5004 511.242 71.9536 506.609 68.8598 503.52C65.766 500.431 61.641 498.886 56.4847 498.886C50.8127 498.886 46.6877 500.431 43.5939 503.52C40.5001 506.609 38.9533 511.242 38.9533 516.905V539.044C38.9533 545.222 40.5001 549.856 43.0783 552.945C46.6877 556.549 50.8127 558.093 56.4847 558.093Z" fill="#F9893D" fill-opacity="0.5"/>
<path d="M60.6096 691.437V619.874H58.5471L47.2033 646.131H31.2188L48.2345 608.547H75.563V691.437H60.6096Z" fill="#F9893D" fill-opacity="0.5"/>
<path d="M56.4847 814.487C46.6877 814.487 38.9532 811.913 32.7656 806.25C27.0937 801.101 24 792.864 24 781.537V760.943C24 750.132 27.0937 742.409 32.7656 736.746C38.4376 731.082 46.6877 728.508 56.4847 728.508C66.2817 728.508 74.0162 731.082 80.2037 736.746C85.8757 742.409 88.9694 750.646 88.9694 760.943V781.537C88.9694 792.349 85.8757 800.586 80.2037 806.25C74.5318 811.398 66.7973 814.487 56.4847 814.487ZM56.4847 800.586C62.1566 800.586 66.7973 799.042 69.3755 795.953C71.9536 792.864 73.5004 788.23 73.5004 782.052V759.914C73.5004 753.735 71.9536 749.102 68.8598 746.013C65.766 742.924 61.641 741.379 56.4847 741.379C50.8127 741.379 46.6877 742.924 43.5939 746.013C40.5001 749.102 38.9533 753.735 38.9533 759.399V781.537C38.9533 787.715 40.5001 792.349 43.0783 795.438C46.6877 799.042 50.8127 800.586 56.4847 800.586Z" fill="#F9893D" fill-opacity="0.5"/>
<path d="M60.6096 933.929V862.365H58.5471L47.2033 888.623H31.2188L48.2345 851.039H75.563V933.929H60.6096Z" fill="#F9893D" fill-opacity="0.5"/>
</g>
<g opacity="0.18">
<path d="M271.448 209.048V150.241H269.765L260.51 171.664H247.469L261.351 141H283.648V209.048H271.448Z" fill="#F9893D" fill-opacity="0.5"/>
<path d="M268.503 311.539C260.51 311.539 254.2 309.439 249.152 304.818C244.103 300.197 242 293.897 242 284.656V267.854C242 259.033 244.524 252.732 249.152 248.111C253.779 243.491 260.51 241.391 268.503 241.391C276.497 241.391 282.807 243.491 287.855 248.111C292.483 252.732 295.007 259.453 295.007 267.854V284.656C295.007 293.477 292.483 300.197 287.855 304.818C282.807 309.439 276.497 311.539 268.503 311.539ZM268.503 300.617C273.131 300.617 276.917 299.357 279.021 296.837C281.124 294.317 282.386 290.536 282.386 285.496V267.434C282.386 262.393 281.124 258.613 278.6 256.092C276.076 253.572 272.71 252.312 268.503 252.312C263.876 252.312 260.51 253.572 257.986 256.092C255.462 258.613 254.2 262.393 254.2 267.014V285.076C254.2 290.116 255.462 293.897 257.565 296.417C260.09 299.357 263.876 300.617 268.503 300.617Z" fill="#F9893D" fill-opacity="0.5"/>
<path d="M271.448 411.931V353.124H269.765L260.51 374.546H247.469L261.351 343.883H283.648V411.511H271.448V411.931Z" fill="#F9893D" fill-opacity="0.5"/>
<path d="M271.448 513.163V454.776H269.765L260.51 476.199H247.469L261.351 445.535H283.648V513.163H271.448Z" fill="#F9893D" fill-opacity="0.5"/>
<path d="M271.448 614.815V556.009H269.765L260.51 577.431H247.469L261.772 547.188H284.069V614.815H271.448Z" fill="#F9893D" fill-opacity="0.5"/>
<path d="M268.503 717.308C260.51 717.308 254.2 715.208 249.152 710.588C244.103 705.967 242 699.666 242 690.425V673.623C242 664.802 244.524 658.501 249.152 653.881C253.779 649.26 260.51 647.16 268.503 647.16C276.497 647.16 282.807 649.26 287.855 653.881C292.483 658.501 295.007 665.222 295.007 673.623V690.425C295.007 699.246 292.483 705.967 287.855 710.588C282.807 715.208 276.497 717.308 268.503 717.308ZM268.503 706.387C273.131 706.387 276.917 705.127 279.021 702.607C281.124 700.086 282.386 696.306 282.386 691.265V673.203C282.386 668.163 281.124 664.382 278.6 661.862C276.076 659.342 272.71 658.081 268.503 658.081C263.876 658.081 260.51 659.342 257.986 661.862C255.462 664.382 254.2 668.163 254.2 672.783V690.845C254.2 695.886 255.462 699.666 257.565 702.187C260.09 705.127 263.876 706.387 268.503 706.387Z" fill="#F9893D" fill-opacity="0.5"/>
<path d="M268.503 818.961C260.51 818.961 254.2 816.86 249.152 812.24C244.103 807.619 242 801.319 242 792.078V775.276C242 766.455 244.524 760.154 249.152 755.533C253.779 750.913 260.51 748.812 268.503 748.812C276.497 748.812 282.807 750.913 287.855 755.533C292.483 760.154 295.007 766.875 295.007 775.276V792.078C295.007 800.899 292.483 807.619 287.855 812.24C282.807 816.86 276.497 818.961 268.503 818.961ZM268.503 808.039C273.131 808.039 276.917 806.779 279.021 804.259C281.124 801.739 282.386 797.958 282.386 792.918V774.856C282.386 769.815 281.124 766.034 278.6 763.514C276.076 760.994 272.71 759.734 268.503 759.734C263.876 759.734 260.51 760.994 257.986 763.514C255.462 766.034 254.2 769.815 254.2 774.435V792.498C254.2 797.538 255.462 801.319 257.565 803.839C260.09 806.779 263.876 808.039 268.503 808.039Z" fill="#F9893D" fill-opacity="0.5"/>
<path d="M271.448 918.933V860.546H269.765L260.51 881.968H247.469L261.351 851.305H283.648V918.933H271.448Z" fill="#F9893D" fill-opacity="0.5"/>
<path d="M268.503 1021.84C260.51 1021.84 254.2 1019.74 249.152 1015.12C244.103 1010.5 242 1004.2 242 994.96V978.158C242 969.337 244.524 963.037 249.152 958.416C253.779 953.796 260.51 951.695 268.503 951.695C276.497 951.695 282.807 953.796 287.855 958.416C292.483 963.037 295.007 969.757 295.007 978.158V994.96C295.007 1003.78 292.483 1010.5 287.855 1015.12C282.807 1019.74 276.497 1021.84 268.503 1021.84ZM268.503 1010.92C273.131 1010.92 276.917 1009.66 279.021 1007.14C281.124 1004.62 282.386 1000.84 282.386 995.8V977.738C282.386 972.698 281.124 968.917 278.6 966.397C276.076 963.877 272.71 962.617 268.503 962.617C263.876 962.617 260.51 963.877 257.986 966.397C255.462 968.917 254.2 972.698 254.2 977.318V995.38C254.2 1000.42 255.462 1004.2 257.565 1006.72C260.09 1009.66 263.876 1010.92 268.503 1010.92Z" fill="#F9893D" fill-opacity="0.5"/>
</g>
</g>
</g>
<defs>
<clipPath id="clip0_163_8125">
<rect width="320" height="971" fill="white"/>
</clipPath>
<clipPath id="clip1_163_8125">
<rect width="320" height="971" fill="white"/>
</clipPath>
</defs>
</svg>
