<svg width="1280" height="1041" viewBox="0 0 1280 1041" fill="none" xmlns="http://www.w3.org/2000/svg">
<rect width="1280" height="1041" fill="#1A1A1A"/>
<g clip-path="url(#clip0_163_6944)">
<g opacity="0.18">
<path d="M350.039 84.4051V12.3266H347.98L336.652 38.5838H320.691L337.682 1H364.97V84.4051H350.039Z" fill="#F9893D" fill-opacity="0.5"/>
<path d="M346.437 210.028C336.654 210.028 328.931 207.454 322.753 201.791C316.574 196.127 314 188.405 314 177.078V156.484C314 145.672 317.089 137.95 322.753 132.286C328.416 126.623 336.654 124.049 346.437 124.049C356.219 124.049 363.942 126.623 370.121 132.286C375.784 137.95 378.874 146.187 378.874 156.484V177.078C378.874 187.89 375.784 196.127 370.121 201.791C363.942 207.454 356.219 210.028 346.437 210.028ZM346.437 196.642C352.1 196.642 356.734 195.098 359.309 192.009C361.883 188.919 363.428 184.286 363.428 178.108V155.969C363.428 149.791 361.883 145.158 358.794 142.068C355.704 138.979 351.586 137.435 346.437 137.435C340.773 137.435 336.654 138.979 333.565 142.068C330.476 145.158 328.931 149.791 328.931 155.454V177.593C328.931 183.771 330.476 188.405 333.05 191.494C336.139 195.098 340.773 196.642 346.437 196.642Z" fill="#F9893D" fill-opacity="0.5"/>
<path d="M350.039 333.075V260.997H347.98L336.652 287.254H320.691L337.682 249.67H364.97V332.56H350.039V333.075Z" fill="#F9893D" fill-opacity="0.5"/>
<path d="M350.039 457.154V385.59H347.98L336.652 411.847H320.691L337.682 374.264H364.97V457.154H350.039Z" fill="#F9893D" fill-opacity="0.5"/>
<path d="M350.039 581.746V509.667H347.98L336.652 535.924H320.691L338.197 498.855H365.485V581.746H350.039Z" fill="#F9893D" fill-opacity="0.5"/>
<path d="M346.437 707.37C336.654 707.37 328.931 704.796 322.753 699.132C316.574 693.469 314 685.746 314 674.42V653.826C314 643.014 317.089 635.291 322.753 629.628C328.416 623.965 336.654 621.391 346.437 621.391C356.219 621.391 363.942 623.965 370.121 629.628C375.784 635.291 378.874 643.529 378.874 653.826V674.42C378.874 685.232 375.784 693.469 370.121 699.132C363.942 704.796 356.219 707.37 346.437 707.37ZM346.437 693.984C352.1 693.984 356.734 692.439 359.309 689.35C361.883 686.261 363.428 681.628 363.428 675.449V653.311C363.428 647.133 361.883 642.499 358.794 639.41C355.704 636.321 351.586 634.777 346.437 634.777C340.773 634.777 336.654 636.321 333.565 639.41C330.476 642.499 328.931 647.133 328.931 652.796V674.935C328.931 681.113 330.476 685.746 333.05 688.835C336.139 692.439 340.773 693.984 346.437 693.984Z" fill="#F9893D" fill-opacity="0.5"/>
<path d="M346.437 831.962C336.654 831.962 328.931 829.388 322.753 823.724C316.574 818.061 314 810.338 314 799.012V778.418C314 767.606 317.089 759.883 322.753 754.22C328.416 748.557 336.654 745.982 346.437 745.982C356.219 745.982 363.942 748.557 370.121 754.22C375.784 759.883 378.874 768.121 378.874 778.418V799.012C378.874 809.823 375.784 818.061 370.121 823.724C363.942 829.388 356.219 831.962 346.437 831.962ZM346.437 818.576C352.1 818.576 356.734 817.031 359.309 813.942C361.883 810.853 363.428 806.219 363.428 800.041V777.903C363.428 771.725 361.883 767.091 358.794 764.002C355.704 760.913 351.586 759.368 346.437 759.368C340.773 759.368 336.654 760.913 333.565 764.002C330.476 767.091 328.931 771.725 328.931 777.388V799.526C328.931 805.705 330.476 810.338 333.05 813.427C336.139 817.031 340.773 818.576 346.437 818.576Z" fill="#F9893D" fill-opacity="0.5"/>
<path d="M350.039 954.496V882.932H347.98L336.652 909.189H320.691L337.682 871.605H364.97V954.496H350.039Z" fill="#F9893D" fill-opacity="0.5"/>
<path d="M346.437 1080.63C336.654 1080.63 328.931 1078.06 322.753 1072.39C316.574 1066.73 314 1059.01 314 1047.68V1027.09C314 1016.28 317.089 1008.55 322.753 1002.89C328.416 997.227 336.654 994.652 346.437 994.652C356.219 994.652 363.942 997.227 370.121 1002.89C375.784 1008.55 378.874 1016.79 378.874 1027.09V1047.68C378.874 1058.49 375.784 1066.73 370.121 1072.39C363.942 1078.06 356.219 1080.63 346.437 1080.63ZM346.437 1067.25C352.1 1067.25 356.734 1065.7 359.309 1062.61C361.883 1059.52 363.428 1054.89 363.428 1048.71V1026.57C363.428 1020.39 361.883 1015.76 358.794 1012.67C355.704 1009.58 351.586 1008.04 346.437 1008.04C340.773 1008.04 336.654 1009.58 333.565 1012.67C330.476 1015.76 328.931 1020.39 328.931 1026.06V1048.2C328.931 1054.37 330.476 1059.01 333.05 1062.1C336.139 1065.7 340.773 1067.25 346.437 1067.25Z" fill="#F9893D" fill-opacity="0.5"/>
</g>
<g opacity="0.18">
<path d="M1102.4 165.048V106.241H1100.72L1091.48 127.664H1078.46L1092.32 97H1114.59V165.048H1102.4Z" fill="#F9893D" fill-opacity="0.5"/>
<path d="M1099.46 267.541C1091.48 267.541 1085.18 265.44 1080.14 260.82C1075.1 256.199 1073 249.899 1073 240.658V223.856C1073 215.035 1075.52 208.734 1080.14 204.113C1084.76 199.493 1091.48 197.393 1099.46 197.393C1107.45 197.393 1113.75 199.493 1118.79 204.113C1123.41 208.734 1125.93 215.455 1125.93 223.856V240.658C1125.93 249.479 1123.41 256.199 1118.79 260.82C1113.75 265.44 1107.45 267.541 1099.46 267.541ZM1099.46 256.619C1104.09 256.619 1107.87 255.359 1109.97 252.839C1112.07 250.319 1113.33 246.538 1113.33 241.498V223.436C1113.33 218.395 1112.07 214.615 1109.55 212.094C1107.03 209.574 1103.67 208.314 1099.46 208.314C1094.84 208.314 1091.48 209.574 1088.96 212.094C1086.44 214.615 1085.18 218.395 1085.18 223.016V241.078C1085.18 246.118 1086.44 249.899 1088.54 252.419C1091.06 255.359 1094.84 256.619 1099.46 256.619Z" fill="#F9893D" fill-opacity="0.5"/>
<path d="M1102.4 367.931V309.124H1100.72L1091.48 330.546H1078.46L1092.32 299.883H1114.59V367.511H1102.4V367.931Z" fill="#F9893D" fill-opacity="0.5"/>
<path d="M1102.4 469.163V410.776H1100.72L1091.48 432.199H1078.46L1092.32 401.535H1114.59V469.163H1102.4Z" fill="#F9893D" fill-opacity="0.5"/>
<path d="M1102.4 570.815V512.009H1100.72L1091.48 533.431H1078.46L1092.74 503.188H1115.01V570.815H1102.4Z" fill="#F9893D" fill-opacity="0.5"/>
<path d="M1099.46 673.306C1091.48 673.306 1085.18 671.206 1080.14 666.586C1075.1 661.965 1073 655.664 1073 646.423V629.621C1073 620.8 1075.52 614.5 1080.14 609.879C1084.76 605.258 1091.48 603.158 1099.46 603.158C1107.45 603.158 1113.75 605.258 1118.79 609.879C1123.41 614.5 1125.93 621.22 1125.93 629.621V646.423C1125.93 655.244 1123.41 661.965 1118.79 666.586C1113.75 671.206 1107.45 673.306 1099.46 673.306ZM1099.46 662.385C1104.09 662.385 1107.87 661.125 1109.97 658.605C1112.07 656.084 1113.33 652.304 1113.33 647.263V629.201C1113.33 624.161 1112.07 620.38 1109.55 617.86C1107.03 615.34 1103.67 614.079 1099.46 614.079C1094.84 614.079 1091.48 615.34 1088.96 617.86C1086.44 620.38 1085.18 624.161 1085.18 628.781V646.843C1085.18 651.884 1086.44 655.664 1088.54 658.185C1091.06 661.125 1094.84 662.385 1099.46 662.385Z" fill="#F9893D" fill-opacity="0.5"/>
<path d="M1099.46 774.959C1091.48 774.959 1085.18 772.858 1080.14 768.238C1075.1 763.617 1073 757.317 1073 748.076V731.274C1073 722.453 1075.52 716.152 1080.14 711.531C1084.76 706.911 1091.48 704.811 1099.46 704.811C1107.45 704.811 1113.75 706.911 1118.79 711.531C1123.41 716.152 1125.93 722.873 1125.93 731.274V748.076C1125.93 756.897 1123.41 763.617 1118.79 768.238C1113.75 772.858 1107.45 774.959 1099.46 774.959ZM1099.46 764.037C1104.09 764.037 1107.87 762.777 1109.97 760.257C1112.07 757.737 1113.33 753.956 1113.33 748.916V730.854C1113.33 725.813 1112.07 722.033 1109.55 719.512C1107.03 716.992 1103.67 715.732 1099.46 715.732C1094.84 715.732 1091.48 716.992 1088.96 719.512C1086.44 722.033 1085.18 725.813 1085.18 730.434V748.496C1085.18 753.536 1086.44 757.317 1088.54 759.837C1091.06 762.777 1094.84 764.037 1099.46 764.037Z" fill="#F9893D" fill-opacity="0.5"/>
<path d="M1102.4 874.931V816.544H1100.72L1091.48 837.966H1078.46L1092.32 807.303H1114.59V874.931H1102.4Z" fill="#F9893D" fill-opacity="0.5"/>
<path d="M1099.46 977.841C1091.48 977.841 1085.18 975.741 1080.14 971.121C1075.1 966.5 1073 960.199 1073 950.958V934.156C1073 925.335 1075.52 919.035 1080.14 914.414C1084.76 909.794 1091.48 907.693 1099.46 907.693C1107.45 907.693 1113.75 909.794 1118.79 914.414C1123.41 919.035 1125.93 925.755 1125.93 934.156V950.958C1125.93 959.779 1123.41 966.5 1118.79 971.121C1113.75 975.741 1107.45 977.841 1099.46 977.841ZM1099.46 966.92C1104.09 966.92 1107.87 965.66 1109.97 963.14C1112.07 960.619 1113.33 956.839 1113.33 951.798V933.736C1113.33 928.696 1112.07 924.915 1109.55 922.395C1107.03 919.875 1103.67 918.615 1099.46 918.615C1094.84 918.615 1091.48 919.875 1088.96 922.395C1086.44 924.915 1085.18 928.696 1085.18 933.316V951.378C1085.18 956.419 1086.44 960.199 1088.54 962.72C1091.06 965.66 1094.84 966.92 1099.46 966.92Z" fill="#F9893D" fill-opacity="0.5"/>
<path opacity="0.78" d="M1102.4 1077.81V1019.43H1100.72L1091.48 1040.85H1078.46L1092.32 1010.19H1114.59V1077.81H1102.4Z" fill="#F9893D" fill-opacity="0.5"/>
</g>
<g opacity="0.18">
<path d="M182.437 86.9792C172.654 86.9792 164.931 84.4051 158.753 78.7418C153.089 73.5933 150 65.3557 150 54.0291V33.4352C150 22.6235 153.089 14.9009 158.753 9.23757C164.416 3.57426 172.654 1 182.437 1C192.219 1 199.942 3.57426 206.121 9.23757C211.784 14.9009 214.874 23.1383 214.874 33.4352V54.0291C214.874 64.8409 211.784 73.0785 206.121 78.7418C200.457 84.4051 192.734 86.9792 182.437 86.9792ZM182.437 73.5933C188.1 73.5933 192.734 72.0487 195.309 68.9596C197.883 65.8705 199.427 61.237 199.427 55.0588V32.9204C199.427 26.7422 197.883 22.1087 194.794 19.0196C191.704 15.9305 187.585 14.386 182.437 14.386C176.773 14.386 172.654 15.9305 169.565 19.0196C166.476 22.1087 164.931 26.7423 164.931 32.4056V54.544C164.931 60.7221 166.476 65.3558 169.05 68.4449C172.654 72.0488 176.773 73.5933 182.437 73.5933Z" fill="#F9893D" fill-opacity="0.5"/>
<path d="M186.555 206.939V135.376H184.495L173.168 161.633H157.207L174.198 124.049H201.486V206.939H186.555Z" fill="#F9893D" fill-opacity="0.5"/>
<path d="M182.437 329.987C172.654 329.987 164.931 327.413 158.753 321.75C153.089 316.086 150 308.364 150 297.037V276.443C150 265.631 153.089 257.909 158.753 252.246C164.416 246.582 172.654 244.008 182.437 244.008C192.219 244.008 199.942 246.582 206.121 252.246C211.784 257.909 214.874 266.146 214.874 276.443V297.037C214.874 307.849 211.784 316.086 206.121 321.75C200.457 326.898 192.734 329.987 182.437 329.987ZM182.437 316.086C188.1 316.086 192.734 314.542 195.309 311.453C197.883 308.364 199.427 303.73 199.427 297.552V275.414C199.427 269.235 197.883 264.602 194.794 261.513C191.704 258.424 187.585 256.879 182.437 256.879C176.773 256.879 172.654 258.424 169.565 261.513C166.476 264.602 164.931 269.235 164.931 274.899V297.037C164.931 303.215 166.476 307.849 169.05 310.938C172.654 314.542 176.773 316.086 182.437 316.086Z" fill="#F9893D" fill-opacity="0.5"/>
<path d="M186.555 449.431V377.868H184.495L173.168 404.125H157.207L174.198 366.541H201.486V449.431H186.555Z" fill="#F9893D" fill-opacity="0.5"/>
<path d="M182.437 572.479C172.654 572.479 164.931 569.905 158.753 564.242C153.089 559.093 150 550.856 150 539.529V518.935C150 508.123 153.089 500.401 158.753 494.737C164.416 489.074 172.654 486.5 182.437 486.5C192.219 486.5 199.942 489.074 206.121 494.737C211.784 500.401 214.874 508.638 214.874 518.935V539.529C214.874 550.341 211.784 558.578 206.121 564.242C200.457 569.905 192.734 572.479 182.437 572.479ZM182.437 559.093C188.1 559.093 192.734 557.549 195.309 554.459C197.883 551.37 199.427 546.737 199.427 540.559V518.42C199.427 512.242 197.883 507.609 194.794 504.52C191.704 501.431 187.585 499.886 182.437 499.886C176.773 499.886 172.654 501.431 169.565 504.52C166.476 507.609 164.931 512.242 164.931 517.905V540.044C164.931 546.222 166.476 550.856 169.05 553.945C172.654 557.549 176.773 559.093 182.437 559.093Z" fill="#F9893D" fill-opacity="0.5"/>
<path d="M186.555 692.439V620.876H184.495L173.168 647.133H157.207L174.198 609.549H201.486V692.439H186.555Z" fill="#F9893D" fill-opacity="0.5"/>
<path d="M182.437 815.487C172.654 815.487 164.931 812.913 158.753 807.25C153.089 802.101 150 793.864 150 782.537V761.943C150 751.132 153.089 743.409 158.753 737.746C164.416 732.082 172.654 729.508 182.437 729.508C192.219 729.508 199.942 732.082 206.121 737.746C211.784 743.409 214.874 751.646 214.874 761.943V782.537C214.874 793.349 211.784 801.586 206.121 807.25C200.457 812.398 192.734 815.487 182.437 815.487ZM182.437 801.586C188.1 801.586 192.734 800.042 195.309 796.953C197.883 793.864 199.427 789.23 199.427 783.052V760.914C199.427 754.735 197.883 750.102 194.794 747.013C191.704 743.924 187.585 742.379 182.437 742.379C176.773 742.379 172.654 743.924 169.565 747.013C166.476 750.102 164.931 754.735 164.931 760.399V782.537C164.931 788.715 166.476 793.349 169.05 796.438C172.654 800.042 176.773 801.586 182.437 801.586Z" fill="#F9893D" fill-opacity="0.5"/>
<path d="M186.555 934.931V863.367H184.495L173.168 889.625H157.207L174.198 852.041H201.486V934.931H186.555Z" fill="#F9893D" fill-opacity="0.5"/>
<path d="M182.437 1057.98C172.654 1057.98 164.931 1055.4 158.753 1049.74C153.089 1044.08 150 1036.36 150 1025.03V1004.44C150 993.623 153.089 985.901 158.753 980.237C164.416 974.574 172.654 972 182.437 972C192.219 972 199.942 974.574 206.121 980.237C211.784 985.901 214.874 994.138 214.874 1004.44V1025.03C214.874 1035.84 211.784 1044.08 206.121 1049.74C200.457 1055.4 192.734 1057.98 182.437 1057.98ZM182.437 1044.59C188.1 1044.59 192.734 1043.05 195.309 1039.96C197.883 1036.87 199.427 1032.24 199.427 1026.06V1003.92C199.427 997.742 197.883 993.109 194.794 990.02C191.704 986.931 187.585 985.386 182.437 985.386C176.773 985.386 172.654 986.931 169.565 990.02C166.476 993.109 164.931 997.742 164.931 1003.41V1025.54C164.931 1031.72 166.476 1036.36 169.05 1039.44C172.654 1043.05 176.773 1044.59 182.437 1044.59Z" fill="#F9893D" fill-opacity="0.5"/>
</g>
</g>
<defs>
<clipPath id="clip0_163_6944">
<rect width="1280" height="1040" fill="white" transform="translate(0 1)"/>
</clipPath>
</defs>
</svg>
