<svg width="428" height="1057" viewBox="0 0 428 1057" fill="none" xmlns="http://www.w3.org/2000/svg">
<g clip-path="url(#clip0_163_7803)">
<rect width="428" height="1057" fill="#1A1A1A"/>
<g clip-path="url(#clip1_163_7803)">
<g opacity="0.18">
<path d="M163.094 83.3912V11.3247H161.032L149.688 37.5775H133.703L150.719 0H178.047V83.3912H163.094Z" fill="#F9893D" fill-opacity="0.5"/>
<path d="M159.485 208.992C149.688 208.992 141.953 206.419 135.766 200.756C129.578 195.094 127 187.372 127 176.048V155.457C127 144.647 130.094 136.926 135.766 131.264C141.438 125.601 149.688 123.027 159.485 123.027C169.282 123.027 177.016 125.601 183.204 131.264C188.876 136.926 191.969 145.162 191.969 155.457V176.048C191.969 186.858 188.876 195.094 183.204 200.756C177.016 206.419 169.282 208.992 159.485 208.992ZM159.485 195.609C165.157 195.609 169.797 194.064 172.376 190.976C174.954 187.887 176.501 183.254 176.501 177.077V154.942C176.501 148.765 174.954 144.133 171.86 141.044C168.766 137.955 164.641 136.411 159.485 136.411C153.813 136.411 149.688 137.955 146.594 141.044C143.5 144.133 141.953 148.765 141.953 154.428V176.562C141.953 182.74 143.5 187.372 146.078 190.461C149.172 194.064 153.813 195.609 159.485 195.609Z" fill="#F9893D" fill-opacity="0.5"/>
<path d="M163.094 332.02V259.954H161.032L149.688 286.206H133.703L150.719 248.629H178.047V331.505H163.094V332.02Z" fill="#F9893D" fill-opacity="0.5"/>
<path d="M163.094 456.08V384.528H161.032L149.688 410.781H133.703L150.719 373.203H178.047V456.08H163.094Z" fill="#F9893D" fill-opacity="0.5"/>
<path d="M163.094 580.65V508.583H161.032L149.688 534.836H133.703L151.235 497.773H178.563V580.65H163.094Z" fill="#F9893D" fill-opacity="0.5"/>
<path d="M159.485 706.25C149.688 706.25 141.953 703.676 135.766 698.014C129.578 692.352 127 684.63 127 673.305V652.715C127 641.905 130.094 634.184 135.766 628.521C141.438 622.859 149.688 620.285 159.485 620.285C169.282 620.285 177.016 622.859 183.204 628.521C188.876 634.184 191.969 642.42 191.969 652.715V673.305C191.969 684.115 188.876 692.352 183.204 698.014C177.016 703.676 169.282 706.25 159.485 706.25ZM159.485 692.866C165.157 692.866 169.797 691.322 172.376 688.234C174.954 685.145 176.501 680.512 176.501 674.335V652.2C176.501 646.023 174.954 641.39 171.86 638.302C168.766 635.213 164.641 633.669 159.485 633.669C153.813 633.669 149.688 635.213 146.594 638.302C143.5 641.39 141.953 646.023 141.953 651.686V673.82C141.953 679.997 143.5 684.63 146.078 687.719C149.172 691.322 153.813 692.866 159.485 692.866Z" fill="#F9893D" fill-opacity="0.5"/>
<path d="M159.485 830.824C149.688 830.824 141.953 828.251 135.766 822.588C129.578 816.926 127 809.204 127 797.88V777.289C127 766.479 130.094 758.758 135.766 753.096C141.438 747.433 149.688 744.859 159.485 744.859C169.282 744.859 177.016 747.433 183.204 753.096C188.876 758.758 191.969 766.994 191.969 777.289V797.88C191.969 808.69 188.876 816.926 183.204 822.588C177.016 828.251 169.282 830.824 159.485 830.824ZM159.485 817.441C165.157 817.441 169.797 815.896 172.376 812.808C174.954 809.719 176.501 805.086 176.501 798.909V776.775C176.501 770.597 174.954 765.965 171.86 762.876C168.766 759.787 164.641 758.243 159.485 758.243C153.813 758.243 149.688 759.787 146.594 762.876C143.5 765.965 141.953 770.597 141.953 776.26V798.394C141.953 804.572 143.5 809.204 146.078 812.293C149.172 815.896 153.813 817.441 159.485 817.441Z" fill="#F9893D" fill-opacity="0.5"/>
<path d="M163.094 953.337V881.786H161.032L149.688 908.038H133.703L150.719 870.461H178.047V953.337H163.094Z" fill="#F9893D" fill-opacity="0.5"/>
<path d="M159.485 1079.45C149.688 1079.45 141.953 1076.88 135.766 1071.22C129.578 1065.55 127 1057.83 127 1046.51V1025.92C127 1015.11 130.094 1007.39 135.766 1001.72C141.438 996.062 149.688 993.488 159.485 993.488C169.282 993.488 177.016 996.062 183.204 1001.72C188.876 1007.39 191.969 1015.62 191.969 1025.92V1046.51C191.969 1057.32 188.876 1065.55 183.204 1071.22C177.016 1076.88 169.282 1079.45 159.485 1079.45ZM159.485 1066.07C165.157 1066.07 169.797 1064.53 172.376 1061.44C174.954 1058.35 176.501 1053.72 176.501 1047.54V1025.4C176.501 1019.23 174.954 1014.59 171.86 1011.5C168.766 1008.42 164.641 1006.87 159.485 1006.87C153.813 1006.87 149.688 1008.42 146.594 1011.5C143.5 1014.59 141.953 1019.23 141.953 1024.89V1047.02C141.953 1053.2 143.5 1057.83 146.078 1060.92C149.172 1064.53 153.813 1066.07 159.485 1066.07Z" fill="#F9893D" fill-opacity="0.5"/>
</g>
<g opacity="0.18">
<path d="M54.4847 85.9649C44.6877 85.9649 36.9532 83.3912 30.7656 77.7289C25.0937 72.5813 22 64.345 22 53.0203V32.4298C22 21.6199 25.0937 13.8986 30.7656 8.2362C36.4376 2.57383 44.6877 0 54.4847 0C64.2817 0 72.0162 2.57383 78.2037 8.2362C83.8757 13.8986 86.9694 22.1346 86.9694 32.4298V53.0203C86.9694 63.8302 83.8757 72.0665 78.2037 77.7289C72.5318 83.3912 64.7973 85.9649 54.4847 85.9649ZM54.4847 72.5813C60.1566 72.5813 64.7973 71.0369 67.3755 67.9483C69.9536 64.8597 71.5004 60.227 71.5004 54.0499V31.9151C71.5004 25.7379 69.9536 21.1052 66.8598 18.0166C63.766 14.9281 59.641 13.3838 54.4847 13.3838C48.8127 13.3838 44.6877 14.9281 41.5939 18.0166C38.5001 21.1052 36.9533 25.7381 36.9533 31.4004V53.5351C36.9533 59.7122 38.5001 64.3451 41.0783 67.4337C44.6877 71.037 48.8127 72.5813 54.4847 72.5813Z" fill="#F9893D" fill-opacity="0.5"/>
<path d="M58.6096 205.904V134.352H56.5471L45.2033 160.605H29.2188L46.2345 123.027H73.563V205.904H58.6096Z" fill="#F9893D" fill-opacity="0.5"/>
<path d="M54.4847 328.93C44.6877 328.93 36.9532 326.356 30.7656 320.694C25.0937 315.032 22 307.31 22 295.985V275.395C22 264.585 25.0937 256.864 30.7656 251.201C36.4376 245.539 44.6877 242.965 54.4847 242.965C64.2817 242.965 72.0162 245.539 78.2037 251.201C83.8757 256.864 86.9694 265.099 86.9694 275.395V295.985C86.9694 306.795 83.8757 315.032 78.2037 320.694C72.5318 325.841 64.7973 328.93 54.4847 328.93ZM54.4847 315.031C60.1566 315.031 64.7973 313.487 67.3755 310.399C69.9536 307.31 71.5004 302.677 71.5004 296.5V274.365C71.5004 268.188 69.9536 263.555 66.8598 260.467C63.766 257.378 59.641 255.834 54.4847 255.834C48.8127 255.834 44.6877 257.378 41.5939 260.467C38.5001 263.555 36.9533 268.188 36.9533 273.85V295.985C36.9533 302.162 38.5001 306.795 41.0783 309.884C44.6877 313.487 48.8127 315.031 54.4847 315.031Z" fill="#F9893D" fill-opacity="0.5"/>
<path d="M58.6096 448.357V376.805H56.5471L45.2033 403.058H29.2188L46.2345 365.48H73.563V448.357H58.6096Z" fill="#F9893D" fill-opacity="0.5"/>
<path d="M54.4847 571.383C44.6877 571.383 36.9532 568.809 30.7656 563.147C25.0937 557.999 22 549.763 22 538.438V517.848C22 507.038 25.0937 499.316 30.7656 493.654C36.4376 487.992 44.6877 485.418 54.4847 485.418C64.2817 485.418 72.0162 487.992 78.2037 493.654C83.8757 499.316 86.9694 507.553 86.9694 517.848V538.438C86.9694 549.248 83.8757 557.484 78.2037 563.147C72.5318 568.809 64.7973 571.383 54.4847 571.383ZM54.4847 557.999C60.1566 557.999 64.7973 556.455 67.3755 553.366C69.9536 550.278 71.5004 545.645 71.5004 539.468V517.333C71.5004 511.156 69.9536 506.523 66.8598 503.435C63.766 500.346 59.641 498.802 54.4847 498.802C48.8127 498.802 44.6877 500.346 41.5939 503.435C38.5001 506.523 36.9533 511.156 36.9533 516.818V538.953C36.9533 545.13 38.5001 549.763 41.0783 552.851C44.6877 556.455 48.8127 557.999 54.4847 557.999Z" fill="#F9893D" fill-opacity="0.5"/>
<path d="M58.6096 691.322V619.77H56.5471L45.2033 646.023H29.2188L46.2345 608.445H73.563V691.322H58.6096Z" fill="#F9893D" fill-opacity="0.5"/>
<path d="M54.4847 814.352C44.6877 814.352 36.9532 811.778 30.7656 806.116C25.0937 800.968 22 792.732 22 781.407V760.817C22 750.007 25.0937 742.285 30.7656 736.623C36.4376 730.961 44.6877 728.387 54.4847 728.387C64.2817 728.387 72.0162 730.961 78.2037 736.623C83.8757 742.285 86.9694 750.522 86.9694 760.817V781.407C86.9694 792.217 83.8757 800.453 78.2037 806.116C72.5318 811.263 64.7973 814.352 54.4847 814.352ZM54.4847 800.453C60.1566 800.453 64.7973 798.909 67.3755 795.821C69.9536 792.732 71.5004 788.099 71.5004 781.922V759.787C71.5004 753.61 69.9536 748.977 66.8598 745.889C63.766 742.8 59.641 741.256 54.4847 741.256C48.8127 741.256 44.6877 742.8 41.5939 745.889C38.5001 748.977 36.9533 753.61 36.9533 759.272V781.407C36.9533 787.584 38.5001 792.217 41.0783 795.306C44.6877 798.909 48.8127 800.453 54.4847 800.453Z" fill="#F9893D" fill-opacity="0.5"/>
<path d="M58.6096 933.775V862.223H56.5471L45.2033 888.476H29.2188L46.2345 850.898H73.563V933.775H58.6096Z" fill="#F9893D" fill-opacity="0.5"/>
<path d="M54.4847 1056.8C44.6877 1056.8 36.9532 1054.23 30.7656 1048.57C25.0937 1042.91 22 1035.18 22 1023.86V1003.27C22 992.46 25.0937 984.738 30.7656 979.076C36.4376 973.414 44.6877 970.84 54.4847 970.84C64.2817 970.84 72.0162 973.414 78.2037 979.076C83.8757 984.738 86.9694 992.974 86.9694 1003.27V1023.86C86.9694 1034.67 83.8757 1042.91 78.2037 1048.57C72.5318 1054.23 64.7973 1056.8 54.4847 1056.8ZM54.4847 1043.42C60.1566 1043.42 64.7973 1041.88 67.3755 1038.79C69.9536 1035.7 71.5004 1031.07 71.5004 1024.89V1002.76C71.5004 996.578 69.9536 991.945 66.8598 988.856C63.766 985.768 59.641 984.223 54.4847 984.223C48.8127 984.223 44.6877 985.768 41.5939 988.856C38.5001 991.945 36.9533 996.578 36.9533 1002.24V1024.37C36.9533 1030.55 38.5001 1035.18 41.0783 1038.27C44.6877 1041.88 48.8127 1043.42 54.4847 1043.42Z" fill="#F9893D" fill-opacity="0.5"/>
</g>
<g opacity="0.18">
<path d="M379.448 193.017V134.22H377.765L368.51 155.639H355.469L369.351 124.98H391.648V193.017H379.448Z" fill="#F9893D" fill-opacity="0.5"/>
<path d="M376.503 295.492C368.51 295.492 362.2 293.392 357.152 288.772C352.103 284.153 350 277.853 350 268.613V251.814C350 242.995 352.524 236.695 357.152 232.075C361.779 227.455 368.51 225.355 376.503 225.355C384.497 225.355 390.807 227.455 395.855 232.075C400.483 236.695 403.007 243.415 403.007 251.814V268.613C403.007 277.433 400.483 284.153 395.855 288.772C390.807 293.392 384.497 295.492 376.503 295.492ZM376.503 284.572C381.131 284.572 384.917 283.313 387.021 280.793C389.124 278.273 390.386 274.493 390.386 269.453V251.394C390.386 246.354 389.124 242.575 386.6 240.055C384.076 237.535 380.71 236.275 376.503 236.275C371.876 236.275 368.51 237.535 365.986 240.055C363.462 242.575 362.2 246.354 362.2 250.974V269.033C362.2 274.073 363.462 277.853 365.565 280.373C368.09 283.313 371.876 284.572 376.503 284.572Z" fill="#F9893D" fill-opacity="0.5"/>
<path d="M379.448 395.869V337.072H377.765L368.51 358.491H355.469L369.351 327.832H391.648V395.449H379.448V395.869Z" fill="#F9893D" fill-opacity="0.5"/>
<path d="M379.448 497.081V438.704H377.765L368.51 460.123H355.469L369.351 429.465H391.648V497.081H379.448Z" fill="#F9893D" fill-opacity="0.5"/>
<path d="M379.448 598.718V539.921H377.765L368.51 561.34H355.469L369.772 531.102H392.069V598.718H379.448Z" fill="#F9893D" fill-opacity="0.5"/>
<path d="M376.503 701.191C368.51 701.191 362.2 699.091 357.152 694.471C352.103 689.852 350 683.552 350 674.312V657.513C350 648.694 352.524 642.394 357.152 637.774C361.779 633.155 368.51 631.055 376.503 631.055C384.497 631.055 390.807 633.155 395.855 637.774C400.483 642.394 403.007 649.114 403.007 657.513V674.312C403.007 683.132 400.483 689.852 395.855 694.471C390.807 699.091 384.497 701.191 376.503 701.191ZM376.503 690.272C381.131 690.272 384.917 689.012 387.021 686.492C389.124 683.972 390.386 680.192 390.386 675.152V657.093C390.386 652.054 389.124 648.274 386.6 645.754C384.076 643.234 380.71 641.974 376.503 641.974C371.876 641.974 368.51 643.234 365.986 645.754C363.462 648.274 362.2 652.054 362.2 656.673V674.732C362.2 679.772 363.462 683.552 365.565 686.072C368.09 689.012 371.876 690.272 376.503 690.272Z" fill="#F9893D" fill-opacity="0.5"/>
<path d="M376.503 802.828C368.51 802.828 362.2 800.728 357.152 796.108C352.103 791.488 350 785.189 350 775.949V759.15C350 750.331 352.524 744.031 357.152 739.411C361.779 734.791 368.51 732.691 376.503 732.691C384.497 732.691 390.807 734.791 395.855 739.411C400.483 744.031 403.007 750.751 403.007 759.15V775.949C403.007 784.769 400.483 791.488 395.855 796.108C390.807 800.728 384.497 802.828 376.503 802.828ZM376.503 791.908C381.131 791.908 384.917 790.648 387.021 788.129C389.124 785.609 390.386 781.829 390.386 776.789V758.73C390.386 753.69 389.124 749.911 386.6 747.391C384.076 744.871 380.71 743.611 376.503 743.611C371.876 743.611 368.51 744.871 365.986 747.391C363.462 749.911 362.2 753.69 362.2 758.31V776.369C362.2 781.409 363.462 785.189 365.565 787.709C368.09 790.649 371.876 791.908 376.503 791.908Z" fill="#F9893D" fill-opacity="0.5"/>
<path d="M379.448 902.781V844.404H377.765L368.51 865.823H355.469L369.351 835.164H391.648V902.781H379.448Z" fill="#F9893D" fill-opacity="0.5"/>
<path d="M376.503 1005.68C368.51 1005.68 362.2 1003.58 357.152 998.956C352.103 994.336 350 988.036 350 978.797V961.998C350 953.178 352.524 946.878 357.152 942.259C361.779 937.639 368.51 935.539 376.503 935.539C384.497 935.539 390.807 937.639 395.855 942.259C400.483 946.878 403.007 953.598 403.007 961.998V978.797C403.007 987.616 400.483 994.336 395.855 998.956C390.807 1003.58 384.497 1005.68 376.503 1005.68ZM376.503 994.756C381.131 994.756 384.917 993.496 387.021 990.976C389.124 988.456 390.386 984.677 390.386 979.637V961.578C390.386 956.538 389.124 952.758 386.6 950.238C384.076 947.718 380.71 946.458 376.503 946.458C371.876 946.458 368.51 947.718 365.986 950.238C363.462 952.758 362.2 956.538 362.2 961.158V979.217C362.2 984.257 363.462 988.036 365.565 990.556C368.09 993.496 371.876 994.756 376.503 994.756Z" fill="#F9893D" fill-opacity="0.5"/>
<path opacity="0.78" d="M379.448 1105.63V1047.26H377.765L368.51 1068.67H355.469L369.351 1038.02H391.648V1105.63H379.448Z" fill="#F9893D" fill-opacity="0.5"/>
</g>
</g>
</g>
<defs>
<clipPath id="clip0_163_7803">
<rect width="428" height="1057" fill="white"/>
</clipPath>
<clipPath id="clip1_163_7803">
<rect width="428" height="1057" fill="white"/>
</clipPath>
</defs>
</svg>
