<svg width="1440" height="1013" viewBox="0 0 1440 1013" fill="none" xmlns="http://www.w3.org/2000/svg">
<rect width="1440" height="1013" fill="#1A1A1A"/>
<g clip-path="url(#clip0_161_6198)">
<g opacity="0.18">
<path d="M350.039 87.4051V15.3266H347.98L336.652 41.5838H320.691L337.682 4H364.97V87.4051H350.039Z" fill="#F9893D" fill-opacity="0.5"/>
<path d="M346.437 213.028C336.654 213.028 328.931 210.454 322.753 204.791C316.574 199.127 314 191.405 314 180.078V159.484C314 148.672 317.089 140.95 322.753 135.286C328.416 129.623 336.654 127.049 346.437 127.049C356.219 127.049 363.942 129.623 370.121 135.286C375.784 140.95 378.874 149.187 378.874 159.484V180.078C378.874 190.89 375.784 199.127 370.121 204.791C363.942 210.454 356.219 213.028 346.437 213.028ZM346.437 199.642C352.1 199.642 356.734 198.098 359.309 195.009C361.883 191.919 363.428 187.286 363.428 181.108V158.969C363.428 152.791 361.883 148.158 358.794 145.068C355.704 141.979 351.586 140.435 346.437 140.435C340.773 140.435 336.654 141.979 333.565 145.068C330.476 148.158 328.931 152.791 328.931 158.454V180.593C328.931 186.771 330.476 191.405 333.05 194.494C336.139 198.098 340.773 199.642 346.437 199.642Z" fill="#F9893D" fill-opacity="0.5"/>
<path d="M350.043 336.075V263.997H347.983L336.656 290.254H320.695L337.686 252.67H364.974V335.56H350.043V336.075Z" fill="#F9893D" fill-opacity="0.5"/>
<path d="M350.039 460.154V388.59H347.98L336.652 414.847H320.691L337.682 377.264H364.97V460.154H350.039Z" fill="#F9893D" fill-opacity="0.5"/>
<path d="M350.043 584.746V512.667H347.983L336.656 538.924H320.695L338.201 501.855H365.489V584.746H350.043Z" fill="#F9893D" fill-opacity="0.5"/>
<path d="M346.437 710.37C336.654 710.37 328.931 707.796 322.753 702.132C316.574 696.469 314 688.746 314 677.42V656.826C314 646.014 317.089 638.291 322.753 632.628C328.416 626.965 336.654 624.391 346.437 624.391C356.219 624.391 363.942 626.965 370.121 632.628C375.784 638.291 378.874 646.529 378.874 656.826V677.42C378.874 688.232 375.784 696.469 370.121 702.132C363.942 707.796 356.219 710.37 346.437 710.37ZM346.437 696.984C352.1 696.984 356.734 695.439 359.309 692.35C361.883 689.261 363.428 684.628 363.428 678.449V656.311C363.428 650.133 361.883 645.499 358.794 642.41C355.704 639.321 351.586 637.777 346.437 637.777C340.773 637.777 336.654 639.321 333.565 642.41C330.476 645.499 328.931 650.133 328.931 655.796V677.935C328.931 684.113 330.476 688.746 333.05 691.835C336.139 695.439 340.773 696.984 346.437 696.984Z" fill="#F9893D" fill-opacity="0.5"/>
<path d="M346.437 834.962C336.654 834.962 328.931 832.388 322.753 826.724C316.574 821.061 314 813.338 314 802.012V781.418C314 770.606 317.089 762.883 322.753 757.22C328.416 751.557 336.654 748.982 346.437 748.982C356.219 748.982 363.942 751.557 370.121 757.22C375.784 762.883 378.874 771.121 378.874 781.418V802.012C378.874 812.823 375.784 821.061 370.121 826.724C363.942 832.388 356.219 834.962 346.437 834.962ZM346.437 821.576C352.1 821.576 356.734 820.031 359.309 816.942C361.883 813.853 363.428 809.219 363.428 803.041V780.903C363.428 774.725 361.883 770.091 358.794 767.002C355.704 763.913 351.586 762.368 346.437 762.368C340.773 762.368 336.654 763.913 333.565 767.002C330.476 770.091 328.931 774.725 328.931 780.388V802.526C328.931 808.705 330.476 813.338 333.05 816.427C336.139 820.031 340.773 821.576 346.437 821.576Z" fill="#F9893D" fill-opacity="0.5"/>
<path d="M350.043 957.496V885.932H347.983L336.656 912.189H320.695L337.686 874.605H364.974V957.496H350.043Z" fill="#F9893D" fill-opacity="0.5"/>
<path d="M346.437 1083.63C336.654 1083.63 328.931 1081.06 322.753 1075.39C316.574 1069.73 314 1062.01 314 1050.68V1030.09C314 1019.28 317.089 1011.55 322.753 1005.89C328.416 1000.23 336.654 997.652 346.437 997.652C356.219 997.652 363.942 1000.23 370.121 1005.89C375.784 1011.55 378.874 1019.79 378.874 1030.09V1050.68C378.874 1061.49 375.784 1069.73 370.121 1075.39C363.942 1081.06 356.219 1083.63 346.437 1083.63ZM346.437 1070.25C352.1 1070.25 356.734 1068.7 359.309 1065.61C361.883 1062.52 363.428 1057.89 363.428 1051.71V1029.57C363.428 1023.39 361.883 1018.76 358.794 1015.67C355.704 1012.58 351.586 1011.04 346.437 1011.04C340.773 1011.04 336.654 1012.58 333.565 1015.67C330.476 1018.76 328.931 1023.39 328.931 1029.06V1051.2C328.931 1057.37 330.476 1062.01 333.05 1065.1C336.139 1068.7 340.773 1070.25 346.437 1070.25Z" fill="#F9893D" fill-opacity="0.5"/>
</g>
<g opacity="0.18">
<path d="M1266.38 168.048V109.241H1264.7L1255.46 130.664H1242.43L1256.3 100H1278.56V168.048H1266.38Z" fill="#F9893D" fill-opacity="0.5"/>
<path d="M1263.44 270.541C1255.46 270.541 1249.15 268.44 1244.11 263.82C1239.07 259.199 1236.97 252.899 1236.97 243.658V226.856C1236.97 218.035 1239.49 211.734 1244.11 207.113C1248.73 202.493 1255.46 200.393 1263.44 200.393C1271.42 200.393 1277.72 202.493 1282.76 207.113C1287.38 211.734 1289.9 218.455 1289.9 226.856V243.658C1289.9 252.479 1287.38 259.199 1282.76 263.82C1277.72 268.44 1271.42 270.541 1263.44 270.541ZM1263.44 259.619C1268.06 259.619 1271.84 258.359 1273.94 255.839C1276.04 253.319 1277.3 249.538 1277.3 244.498V226.436C1277.3 221.395 1276.04 217.615 1273.52 215.094C1271 212.574 1267.64 211.314 1263.44 211.314C1258.82 211.314 1255.46 212.574 1252.94 215.094C1250.41 217.615 1249.15 221.395 1249.15 226.016V244.078C1249.15 249.118 1250.41 252.899 1252.52 255.419C1255.04 258.359 1258.82 259.619 1263.44 259.619Z" fill="#F9893D" fill-opacity="0.5"/>
<path d="M1266.38 370.931V312.124H1264.7L1255.46 333.546H1242.43L1256.3 302.883H1278.56V370.511H1266.38V370.931Z" fill="#F9893D" fill-opacity="0.5"/>
<path d="M1266.38 472.163V413.776H1264.7L1255.46 435.199H1242.43L1256.3 404.535H1278.56V472.163H1266.38Z" fill="#F9893D" fill-opacity="0.5"/>
<path d="M1266.38 573.815V515.009H1264.7L1255.46 536.431H1242.43L1256.72 506.188H1278.98V573.815H1266.38Z" fill="#F9893D" fill-opacity="0.5"/>
<path d="M1263.44 676.306C1255.46 676.306 1249.15 674.206 1244.11 669.586C1239.07 664.965 1236.97 658.664 1236.97 649.423V632.621C1236.97 623.8 1239.49 617.5 1244.11 612.879C1248.73 608.258 1255.46 606.158 1263.44 606.158C1271.42 606.158 1277.72 608.258 1282.76 612.879C1287.38 617.5 1289.9 624.22 1289.9 632.621V649.423C1289.9 658.244 1287.38 664.965 1282.76 669.586C1277.72 674.206 1271.42 676.306 1263.44 676.306ZM1263.44 665.385C1268.06 665.385 1271.84 664.125 1273.94 661.605C1276.04 659.084 1277.3 655.304 1277.3 650.263V632.201C1277.3 627.161 1276.04 623.38 1273.52 620.86C1271 618.34 1267.64 617.079 1263.44 617.079C1258.82 617.079 1255.46 618.34 1252.94 620.86C1250.41 623.38 1249.15 627.161 1249.15 631.781V649.843C1249.15 654.884 1250.41 658.664 1252.52 661.185C1255.04 664.125 1258.82 665.385 1263.44 665.385Z" fill="#F9893D" fill-opacity="0.5"/>
<path d="M1263.44 777.959C1255.46 777.959 1249.15 775.858 1244.11 771.238C1239.07 766.617 1236.97 760.317 1236.97 751.076V734.274C1236.97 725.453 1239.49 719.152 1244.11 714.531C1248.73 709.911 1255.46 707.811 1263.44 707.811C1271.42 707.811 1277.72 709.911 1282.76 714.531C1287.38 719.152 1289.9 725.873 1289.9 734.274V751.076C1289.9 759.897 1287.38 766.617 1282.76 771.238C1277.72 775.858 1271.42 777.959 1263.44 777.959ZM1263.44 767.037C1268.06 767.037 1271.84 765.777 1273.94 763.257C1276.04 760.737 1277.3 756.956 1277.3 751.916V733.854C1277.3 728.813 1276.04 725.033 1273.52 722.512C1271 719.992 1267.64 718.732 1263.44 718.732C1258.82 718.732 1255.46 719.992 1252.94 722.512C1250.41 725.033 1249.15 728.813 1249.15 733.434V751.496C1249.15 756.536 1250.41 760.317 1252.52 762.837C1255.04 765.777 1258.82 767.037 1263.44 767.037Z" fill="#F9893D" fill-opacity="0.5"/>
<path d="M1266.38 877.931V819.544H1264.7L1255.46 840.966H1242.43L1256.3 810.303H1278.56V877.931H1266.38Z" fill="#F9893D" fill-opacity="0.5"/>
<path d="M1263.44 980.841C1255.46 980.841 1249.15 978.741 1244.11 974.121C1239.07 969.5 1236.97 963.199 1236.97 953.958V937.156C1236.97 928.335 1239.49 922.035 1244.11 917.414C1248.73 912.794 1255.46 910.693 1263.44 910.693C1271.42 910.693 1277.72 912.794 1282.76 917.414C1287.38 922.035 1289.9 928.755 1289.9 937.156V953.958C1289.9 962.779 1287.38 969.5 1282.76 974.121C1277.72 978.741 1271.42 980.841 1263.44 980.841ZM1263.44 969.92C1268.06 969.92 1271.84 968.66 1273.94 966.14C1276.04 963.619 1277.3 959.839 1277.3 954.798V936.736C1277.3 931.696 1276.04 927.915 1273.52 925.395C1271 922.875 1267.64 921.615 1263.44 921.615C1258.82 921.615 1255.46 922.875 1252.94 925.395C1250.41 927.915 1249.15 931.696 1249.15 936.316V954.378C1249.15 959.419 1250.41 963.199 1252.52 965.72C1255.04 968.66 1258.82 969.92 1263.44 969.92Z" fill="#F9893D" fill-opacity="0.5"/>
</g>
<g opacity="0.18">
<path d="M182.437 89.9792C172.654 89.9792 164.931 87.4051 158.753 81.7418C153.089 76.5933 150 68.3557 150 57.0291V36.4352C150 25.6235 153.089 17.9009 158.753 12.2376C164.416 6.57426 172.654 4 182.437 4C192.219 4 199.942 6.57426 206.121 12.2376C211.784 17.9009 214.874 26.1383 214.874 36.4352V57.0291C214.874 67.8409 211.784 76.0785 206.121 81.7418C200.457 87.4051 192.734 89.9792 182.437 89.9792ZM182.437 76.5933C188.1 76.5933 192.734 75.0487 195.309 71.9596C197.883 68.8705 199.427 64.237 199.427 58.0588V35.9204C199.427 29.7422 197.883 25.1087 194.794 22.0196C191.704 18.9305 187.585 17.386 182.437 17.386C176.773 17.386 172.654 18.9305 169.565 22.0196C166.476 25.1087 164.931 29.7423 164.931 35.4056V57.544C164.931 63.7221 166.476 68.3558 169.05 71.4449C172.654 75.0488 176.773 76.5933 182.437 76.5933Z" fill="#F9893D" fill-opacity="0.5"/>
<path d="M186.555 209.939V138.376H184.495L173.168 164.633H157.207L174.198 127.049H201.486V209.939H186.555Z" fill="#F9893D" fill-opacity="0.5"/>
<path d="M182.437 332.987C172.654 332.987 164.931 330.413 158.753 324.75C153.089 319.086 150 311.364 150 300.037V279.443C150 268.631 153.089 260.909 158.753 255.246C164.416 249.582 172.654 247.008 182.437 247.008C192.219 247.008 199.942 249.582 206.121 255.246C211.784 260.909 214.874 269.146 214.874 279.443V300.037C214.874 310.849 211.784 319.086 206.121 324.75C200.457 329.898 192.734 332.987 182.437 332.987ZM182.437 319.086C188.1 319.086 192.734 317.542 195.309 314.453C197.883 311.364 199.427 306.73 199.427 300.552V278.414C199.427 272.235 197.883 267.602 194.794 264.513C191.704 261.424 187.585 259.879 182.437 259.879C176.773 259.879 172.654 261.424 169.565 264.513C166.476 267.602 164.931 272.235 164.931 277.899V300.037C164.931 306.215 166.476 310.849 169.05 313.938C172.654 317.542 176.773 319.086 182.437 319.086Z" fill="#F9893D" fill-opacity="0.5"/>
<path d="M186.555 452.431V380.868H184.495L173.168 407.125H157.207L174.198 369.541H201.486V452.431H186.555Z" fill="#F9893D" fill-opacity="0.5"/>
<path d="M182.437 575.479C172.654 575.479 164.931 572.905 158.753 567.242C153.089 562.093 150 553.856 150 542.529V521.935C150 511.123 153.089 503.401 158.753 497.737C164.416 492.074 172.654 489.5 182.437 489.5C192.219 489.5 199.942 492.074 206.121 497.737C211.784 503.401 214.874 511.638 214.874 521.935V542.529C214.874 553.341 211.784 561.578 206.121 567.242C200.457 572.905 192.734 575.479 182.437 575.479ZM182.437 562.093C188.1 562.093 192.734 560.549 195.309 557.459C197.883 554.37 199.427 549.737 199.427 543.559V521.42C199.427 515.242 197.883 510.609 194.794 507.52C191.704 504.431 187.585 502.886 182.437 502.886C176.773 502.886 172.654 504.431 169.565 507.52C166.476 510.609 164.931 515.242 164.931 520.905V543.044C164.931 549.222 166.476 553.856 169.05 556.945C172.654 560.549 176.773 562.093 182.437 562.093Z" fill="#F9893D" fill-opacity="0.5"/>
<path d="M186.555 695.439V623.876H184.495L173.168 650.133H157.207L174.198 612.549H201.486V695.439H186.555Z" fill="#F9893D" fill-opacity="0.5"/>
<path d="M182.437 818.487C172.654 818.487 164.931 815.913 158.753 810.25C153.089 805.101 150 796.864 150 785.537V764.943C150 754.132 153.089 746.409 158.753 740.746C164.416 735.082 172.654 732.508 182.437 732.508C192.219 732.508 199.942 735.082 206.121 740.746C211.784 746.409 214.874 754.646 214.874 764.943V785.537C214.874 796.349 211.784 804.586 206.121 810.25C200.457 815.398 192.734 818.487 182.437 818.487ZM182.437 804.586C188.1 804.586 192.734 803.042 195.309 799.953C197.883 796.864 199.427 792.23 199.427 786.052V763.914C199.427 757.735 197.883 753.102 194.794 750.013C191.704 746.924 187.585 745.379 182.437 745.379C176.773 745.379 172.654 746.924 169.565 750.013C166.476 753.102 164.931 757.735 164.931 763.399V785.537C164.931 791.715 166.476 796.349 169.05 799.438C172.654 803.042 176.773 804.586 182.437 804.586Z" fill="#F9893D" fill-opacity="0.5"/>
<path d="M186.555 937.931V866.367H184.495L173.168 892.625H157.207L174.198 855.041H201.486V937.931H186.555Z" fill="#F9893D" fill-opacity="0.5"/>
<path d="M182.437 1060.98C172.654 1060.98 164.931 1058.4 158.753 1052.74C153.089 1047.08 150 1039.36 150 1028.03V1007.44C150 996.623 153.089 988.901 158.753 983.237C164.416 977.574 172.654 975 182.437 975C192.219 975 199.942 977.574 206.121 983.237C211.784 988.901 214.874 997.138 214.874 1007.44V1028.03C214.874 1038.84 211.784 1047.08 206.121 1052.74C200.457 1058.4 192.734 1060.98 182.437 1060.98ZM182.437 1047.59C188.1 1047.59 192.734 1046.05 195.309 1042.96C197.883 1039.87 199.427 1035.24 199.427 1029.06V1006.92C199.427 1000.74 197.883 996.109 194.794 993.02C191.704 989.931 187.585 988.386 182.437 988.386C176.773 988.386 172.654 989.931 169.565 993.02C166.476 996.109 164.931 1000.74 164.931 1006.41V1028.54C164.931 1034.72 166.476 1039.36 169.05 1042.44C172.654 1046.05 176.773 1047.59 182.437 1047.59Z" fill="#F9893D" fill-opacity="0.5"/>
</g>
</g>
<defs>
<clipPath id="clip0_161_6198">
<rect width="1440" height="1009" fill="white" transform="translate(0 4)"/>
</clipPath>
</defs>
</svg>
