<svg width="16" height="16" viewBox="0 0 16 16" fill="none" xmlns="http://www.w3.org/2000/svg">
<g clip-path="url(#clip0_531_6514)">
<path d="M15.7799 7.46671L8.53325 0.220039C8.39149 0.0791804 8.19976 0.00012207 7.99992 0.00012207C7.80007 0.00012207 7.60835 0.0791804 7.46658 0.220039L0.219917 7.46671C0.0790583 7.60847 0 7.8002 0 8.00004C0 8.19988 0.0790583 8.39161 0.219917 8.53337L7.46658 15.78C7.60835 15.9209 7.80007 16 7.99992 16C8.19976 16 8.39149 15.9209 8.53325 15.78L15.7799 8.53337C15.9208 8.39161 15.9998 8.19988 15.9998 8.00004C15.9998 7.8002 15.9208 7.60847 15.7799 7.46671Z" fill="#F96B31"/>
</g>
<defs>
<clipPath id="clip0_531_6514">
<rect width="16" height="16" fill="white"/>
</clipPath>
</defs>
</svg>
