<svg width="295" height="114" viewBox="0 0 295 114" fill="none" xmlns="http://www.w3.org/2000/svg">
<path d="M0 8C0 3.58173 3.58172 0 8 0H77V71.6719H0V8Z" fill="#F9893D" fill-opacity="0.5"/>
<rect x="16.5" y="16.6523" width="90" height="82.7855" rx="7.5" fill="#1A1A1A" stroke="#D6B88D"/>
<rect x="19" y="20.1895" width="84" height="74.7003" rx="8" fill="#1A1A1A"/>
<path d="M294.5 113.006L16 113.006L2 88.832" stroke="#F96B31" stroke-width="0.5" stroke-miterlimit="10"/>
<path d="M17.5 105.994L41.3879 105.994L233 105.994" stroke="#F9893D" stroke-width="0.5" stroke-miterlimit="10"/>
<path d="M62.0021 91.6273C81.1262 91.6273 96.6293 76.1242 96.6293 57.0002C96.6293 37.8761 81.1262 22.373 62.0021 22.373C42.8781 22.373 27.375 37.8761 27.375 57.0002C27.375 76.1242 42.8781 91.6273 62.0021 91.6273Z" fill="#F96B31"/>
<path d="M62.0046 86.9583C78.5497 86.9583 91.9622 73.5458 91.9622 57.0007C91.9622 40.4555 78.5497 27.043 62.0046 27.043C45.4594 27.043 32.0469 40.4555 32.0469 57.0007C32.0469 73.5458 45.4594 86.9583 62.0046 86.9583Z" fill="#F9893D"/>
<path d="M84.3403 62.3832C84.3403 62.3505 84.34 62.3174 84.3397 62.2846C84.3397 62.2745 84.3394 62.2643 84.3394 62.2545C84.3392 62.2307 84.3386 62.2069 84.338 62.1831C84.3377 62.173 84.3374 62.1631 84.3371 62.153C84.3362 62.1251 84.3354 62.097 84.3345 62.0691C84.3342 62.0642 84.3342 62.059 84.3339 62.0541C84.3328 62.0219 84.3313 61.9897 84.3296 61.9575C84.329 61.9471 84.3284 61.9366 84.3278 61.9262C84.3267 61.9041 84.3255 61.8821 84.3241 61.8603C84.3232 61.8479 84.3226 61.8354 84.3218 61.8226C84.3203 61.8012 84.3188 61.7797 84.3171 61.7583C84.3162 61.7475 84.3157 61.7365 84.3148 61.7258C84.3125 61.6953 84.3099 61.6649 84.3072 61.6347C84.3061 61.6225 84.3049 61.6106 84.3041 61.5988C84.3023 61.5787 84.3003 61.5587 84.2983 61.5387C84.2968 61.5248 84.2954 61.5112 84.2939 61.4972C84.2919 61.4793 84.2901 61.4616 84.2881 61.4436C84.2867 61.4291 84.2849 61.4146 84.2832 61.4001C84.2806 61.3778 84.278 61.3557 84.2751 61.3334C84.2727 61.3145 84.2701 61.2954 84.2678 61.2765C84.2655 61.2577 84.2629 61.2386 84.2603 61.2197C84.2582 61.2046 84.2559 61.1893 84.2539 61.1742C84.2516 61.1582 84.2492 61.1423 84.2469 61.1266C84.2446 61.1107 84.242 61.0947 84.2397 61.0788C84.2376 61.0651 84.2353 61.0515 84.233 61.0376C84.2272 61.0022 84.2214 60.9671 84.2153 60.9317C84.2139 60.9233 84.2124 60.9149 84.211 60.9065C84.2075 60.8862 84.2037 60.8662 84.1999 60.8462C84.1982 60.8372 84.1965 60.8282 84.195 60.8189C84.191 60.7977 84.1872 60.7769 84.1828 60.7557C84.1817 60.7493 84.1802 60.7429 84.1791 60.7366C84.1651 60.6655 84.1501 60.5947 84.1344 60.5243C84.1332 60.519 84.1321 60.5135 84.1309 60.5083C84.126 60.4863 84.1208 60.4642 84.1156 60.4422C84.1141 60.4361 84.1127 60.43 84.1112 60.4239C84.0877 60.325 84.0625 60.2264 84.0352 60.1287C84.0343 60.1258 84.0335 60.1229 84.0329 60.12C84.0051 60.0202 83.9758 59.921 83.9444 59.8227C83.9442 59.8216 83.9436 59.8204 83.9433 59.8193C82.8581 56.4119 79.6677 53.9437 75.9005 53.9437C75.8497 53.9437 75.799 53.9442 75.7482 53.9451C74.9991 50.0512 71.5735 47.1096 67.4612 47.1096C66.215 47.1096 65.0321 47.3799 63.9674 47.8645C62.5841 45.092 59.7202 43.1875 56.4112 43.1875C51.7502 43.1875 47.972 46.966 47.972 51.6268C47.972 52.431 48.0845 53.2088 48.2945 53.9454C48.2312 53.944 48.168 53.9431 48.1045 53.9431C44.2262 53.9431 40.959 56.5593 39.9712 60.1232C39.9709 60.1238 39.9709 60.1246 39.9706 60.1252C39.9428 60.2253 39.917 60.3262 39.8929 60.428C39.892 60.4318 39.8911 60.4352 39.8903 60.439C39.8848 60.4625 39.8792 60.4863 39.874 60.5098C39.8732 60.5135 39.8723 60.5173 39.8714 60.5208C39.8552 60.5924 39.8401 60.6641 39.8259 60.7363C39.8247 60.7426 39.8233 60.749 39.8221 60.7554C39.8181 60.7766 39.814 60.7975 39.8099 60.8186C39.8082 60.8276 39.8065 60.8366 39.805 60.8459C39.8012 60.8659 39.7975 60.8862 39.794 60.9062C39.7925 60.9146 39.7911 60.923 39.7896 60.9314C39.7833 60.9683 39.7772 61.0054 39.7711 61.0422C39.7693 61.0535 39.7673 61.0646 39.7656 61.0759C39.7627 61.0938 39.7601 61.1115 39.7574 61.1295C39.7554 61.1434 39.7534 61.1571 39.7514 61.171C39.749 61.1872 39.7467 61.2035 39.7444 61.2194C39.7418 61.2383 39.7392 61.2571 39.7369 61.276C39.7342 61.2948 39.7319 61.3137 39.7296 61.3328C39.727 61.3549 39.7241 61.3772 39.7215 61.3995C39.7197 61.414 39.7183 61.4285 39.7166 61.443C39.7145 61.4607 39.7125 61.4787 39.7108 61.4967C39.7093 61.5106 39.7079 61.5242 39.7064 61.5381C39.7044 61.5582 39.7026 61.5782 39.7006 61.5982C39.6994 61.6104 39.6983 61.6222 39.6971 61.6341C39.6945 61.6643 39.6919 61.6947 39.6896 61.7252C39.6887 61.7362 39.6881 61.7469 39.6873 61.7577C39.6858 61.7791 39.6841 61.8006 39.6826 61.8221C39.6818 61.8345 39.6812 61.847 39.6803 61.8598C39.6789 61.8818 39.6777 61.9038 39.6765 61.9256C39.676 61.936 39.6754 61.9465 39.6748 61.9569C39.6731 61.9891 39.6716 62.0213 39.6704 62.0535C39.6702 62.0584 39.6702 62.0636 39.6699 62.0686C39.6687 62.0964 39.6678 62.1245 39.6673 62.1524C39.667 62.1625 39.6667 62.1724 39.6664 62.1825C39.6658 62.2063 39.6655 62.2301 39.6649 62.2539C39.6649 62.264 39.6646 62.2742 39.6646 62.284C39.6644 62.3168 39.6641 62.3496 39.6641 62.3826C39.6641 67.0437 43.4426 70.8219 48.1033 70.8219H51.4927V73.8253C51.4927 74.4032 51.9613 74.8716 52.5393 74.8716H71.4639C72.0419 74.8716 72.5102 74.403 72.5102 73.8253V70.8219H75.8996C80.5618 70.8228 84.3403 67.0443 84.3403 62.3832Z" fill="#F96B31"/>
<path d="M75.8993 51.9141C75.8485 51.9141 75.7978 51.9147 75.747 51.9155C74.9979 48.0216 71.5724 45.08 67.46 45.08C66.2138 45.08 65.0309 45.3503 63.9663 45.8349C62.5829 43.0624 59.7191 41.1582 56.4101 41.1582C51.749 41.1582 47.9708 44.9367 47.9708 49.5975C47.9708 50.4017 48.0833 51.1795 48.2933 51.9161C48.2301 51.9147 48.1668 51.9138 48.1033 51.9138C43.4423 51.9138 39.6641 55.6923 39.6641 60.3531C39.6641 65.0141 43.4426 68.7923 48.1033 68.7923H75.8993C80.5603 68.7923 84.3386 65.0138 84.3386 60.3531C84.3386 55.6926 80.56 51.9141 75.8993 51.9141Z" fill="white"/>
<path d="M75.8999 63.6656H48.1036C44.3367 63.6656 41.1463 61.1974 40.0608 57.79C39.8033 58.5986 39.6641 59.4599 39.6641 60.3537C39.6641 65.0148 43.4426 68.793 48.1033 68.793H75.8993C80.5603 68.793 84.3386 65.0145 84.3386 60.3537C84.3386 59.4599 84.1994 58.5983 83.9418 57.79C82.8572 61.1974 79.6668 63.6656 75.8999 63.6656Z" fill="#D1D3D4"/>
<path d="M71.4631 72.843H52.5388C51.9608 72.843 51.4922 72.3743 51.4922 71.7963V56.186C51.4922 55.608 51.9608 55.1396 52.5388 55.1396H71.4634C72.0414 55.1396 72.51 55.6083 72.51 56.186V71.7966C72.5098 72.3746 72.0411 72.843 71.4631 72.843Z" fill="#136DA0"/>
<path d="M71.4631 72.0444H52.5388C51.9608 72.0444 51.4922 71.5758 51.4922 70.9981V55.3875C51.4922 54.8095 51.9608 54.3408 52.5388 54.3408H71.4634C72.0414 54.3408 72.51 54.8095 72.51 55.3875V70.9981C72.5098 71.5761 72.0411 72.0444 71.4631 72.0444Z" fill="#8585F2"/>
<path d="M58.379 68.7787C58.1992 68.7787 58.0194 68.7102 57.8823 68.5728L54.8856 65.5761C54.7536 65.4444 54.6797 65.2655 54.6797 65.0793C54.6797 64.8928 54.7536 64.7142 54.8853 64.5825L57.882 61.5859C58.1566 61.3112 58.6012 61.3112 58.8758 61.5859C59.1502 61.8602 59.1502 62.3051 58.8758 62.5794L56.376 65.0793L58.8758 67.5792C59.1505 67.8535 59.1505 68.2984 58.8761 68.5728C58.7384 68.7102 58.5586 68.7787 58.379 68.7787Z" fill="#8585F2"/>
<path d="M65.6169 68.7787C65.4371 68.7787 65.2573 68.7102 65.1198 68.5728C64.8454 68.2984 64.8454 67.8535 65.1201 67.5792L67.62 65.0793L65.1201 62.5794C64.8457 62.3051 64.8457 61.8602 65.1201 61.5859C65.3947 61.3112 65.8393 61.3112 66.1139 61.5859L69.1106 64.5825C69.2423 64.7142 69.3162 64.8931 69.3162 65.0793C69.3162 65.2655 69.2423 65.4444 69.1103 65.5761L66.1137 68.5728C65.9765 68.7102 65.7967 68.7787 65.6169 68.7787Z" fill="#8585F2"/>
<path d="M60.4759 68.779C60.3689 68.779 60.2601 68.7543 60.158 68.7027C59.8121 68.5269 59.674 68.1038 59.8498 67.7578L62.8946 61.7645C63.0706 61.4185 63.4934 61.2805 63.8394 61.4562C64.1854 61.632 64.3234 62.0548 64.1477 62.4011L61.1029 68.3944C60.9791 68.6383 60.7323 68.779 60.4759 68.779Z" fill="#8585F2"/>
<path d="M58.379 68.0511C58.1992 68.0511 58.0194 67.9827 57.8823 67.8452L54.8856 64.8486C54.7536 64.7169 54.6797 64.538 54.6797 64.3518C54.6797 64.1656 54.7536 63.9867 54.8853 63.855L57.882 60.8583C58.1566 60.5837 58.6012 60.5837 58.8758 60.8583C59.1502 61.1327 59.1502 61.5775 58.8758 61.8519L56.376 64.3518L58.8758 66.8517C59.1505 67.126 59.1505 67.5709 58.8761 67.8455C58.7384 67.9827 58.5586 68.0511 58.379 68.0511Z" fill="white"/>
<path d="M56.3787 64.3527L58.8786 61.8528C59.153 61.5784 59.153 61.1336 58.8786 60.8592C58.6211 60.602 58.2145 60.5857 57.9384 60.8108C57.957 60.8259 57.975 60.8421 57.9921 60.8592C58.2664 61.1336 58.2664 61.5784 57.9921 61.8528L55.4922 64.3527L57.9921 66.8525C58.2667 67.1269 58.2667 67.5718 57.9924 67.8464C57.9752 67.8635 57.9573 67.8798 57.9387 67.8948C58.0675 67.9998 58.2247 68.0523 58.3818 68.0523C58.5616 68.0523 58.7415 67.9839 58.8789 67.8464C59.1533 67.5721 59.1533 67.1272 58.8786 66.8525L56.3787 64.3527Z" fill="#E6E7E8"/>
<path d="M65.6169 68.0514C65.4371 68.0514 65.2573 67.983 65.1198 67.8455C64.8454 67.5712 64.8454 67.1263 65.1201 66.8517L67.62 64.3518L65.1201 61.8519C64.8457 61.5775 64.8457 61.1327 65.1201 60.8583C65.3947 60.5837 65.8393 60.5837 66.1139 60.8583L69.1106 63.855C69.2423 63.9867 69.3162 64.1656 69.3162 64.3518C69.3162 64.538 69.2423 64.7169 69.1103 64.8486L66.1137 67.8452C65.9765 67.983 65.7967 68.0514 65.6169 68.0514Z" fill="white"/>
<path d="M66.0063 67.8463C65.732 67.5719 65.732 67.1271 66.0066 66.8524L68.5065 64.3525L66.0066 61.8527C65.7323 61.5783 65.7323 61.1334 66.0066 60.8591C66.024 60.8417 66.0417 60.8257 66.0603 60.8107C65.7842 60.5859 65.3776 60.6019 65.1201 60.8591C64.8457 61.1334 64.8457 61.5783 65.1201 61.8527L67.62 64.3525L65.1201 66.8524C64.8454 67.1268 64.8454 67.5716 65.1198 67.8463C65.257 67.9835 65.4368 68.0522 65.6169 68.0522C65.774 68.0522 65.9312 67.9997 66.06 67.8947C66.0414 67.8796 66.0235 67.8634 66.0063 67.8463Z" fill="#E6E7E8"/>
<path d="M60.4759 68.0514C60.3689 68.0514 60.2601 68.0268 60.158 67.9751C59.8121 67.7994 59.674 67.3763 59.8498 67.0303L62.8946 61.037C63.0706 60.691 63.4934 60.5529 63.8394 60.7287C64.1854 60.9044 64.3234 61.3273 64.1477 61.6735L61.1029 67.6669C60.9791 67.9108 60.7323 68.0514 60.4759 68.0514Z" fill="white"/>
<path d="M63.8425 60.7291C63.7932 60.7042 63.7425 60.6856 63.6911 60.6729C63.7297 60.8306 63.7143 61.0023 63.6351 61.1583L60.5903 67.1517C60.4665 67.3956 60.2194 67.5362 59.9633 67.5362C59.9079 67.5362 59.852 67.5295 59.7969 67.5159C59.8439 67.7076 59.9712 67.8787 60.1611 67.9753C60.2632 68.0272 60.3717 68.0516 60.479 68.0516C60.7351 68.0516 60.9821 67.9109 61.106 67.667L64.1508 61.6737C64.3265 61.3277 64.1885 60.9049 63.8425 60.7291Z" fill="#E6E7E8"/>
<path d="M71.4628 54.3408H52.5385C51.9606 54.3408 51.4922 54.8095 51.4922 55.3875V57.437H72.5098V55.3875C72.5095 54.8095 72.0408 54.3408 71.4628 54.3408Z" fill="#136DA0"/>
<path d="M53.3234 56.3685C53.5883 56.3685 53.8031 56.1538 53.8031 55.8889C53.8031 55.6239 53.5883 55.4092 53.3234 55.4092C53.0585 55.4092 52.8438 55.6239 52.8438 55.8889C52.8438 56.1538 53.0585 56.3685 53.3234 56.3685Z" fill="white"/>
<path d="M55.6312 55.8889C55.6312 56.1536 55.4166 56.3685 55.1516 56.3685C54.8868 56.3685 54.6719 56.1536 54.6719 55.8889C54.6719 55.6241 54.8865 55.4092 55.1516 55.4092C55.4163 55.4092 55.6312 55.6241 55.6312 55.8889Z" fill="white"/>
<path d="M57.4672 55.8889C57.4672 56.1536 57.2523 56.3685 56.9875 56.3685C56.7227 56.3685 56.5078 56.1536 56.5078 55.8889C56.5078 55.6241 56.7227 55.4092 56.9875 55.4092C57.2523 55.4092 57.4672 55.6241 57.4672 55.8889Z" fill="white"/>
</svg>
