<svg width="295" height="114" viewBox="0 0 295 114" fill="none" xmlns="http://www.w3.org/2000/svg">
<path d="M0 8C0 3.58173 3.58172 0 8 0H77V71.6719H0V8Z" fill="#F9893D" fill-opacity="0.5"/>
<rect x="16.5" y="16.6523" width="90" height="82.7855" rx="7.5" fill="#1A1A1A" stroke="#D6B88D"/>
<rect x="19" y="20.1895" width="84" height="74.7003" rx="8" fill="#1A1A1A"/>
<path d="M294.5 113.006L16 113.006L2 88.832" stroke="#F96B31" stroke-width="0.5" stroke-miterlimit="10"/>
<path d="M17.5 105.994L41.3879 105.994L233 105.994" stroke="#F9893D" stroke-width="0.5" stroke-miterlimit="10"/>
<path d="M86.735 81.745C100.401 68.0787 100.401 45.9213 86.735 32.255C73.0687 18.5887 50.9113 18.5887 37.245 32.255C23.5787 45.9213 23.5787 68.0787 37.245 81.745C50.9113 95.4113 73.0687 95.4113 86.735 81.745Z" fill="#F9893D"/>
<path fill-rule="evenodd" clip-rule="evenodd" d="M47.4375 44.7999C48.1661 45.2842 49.0121 45.7296 49.9717 46.1288C53.2107 47.476 57.4832 48.2176 62.0015 48.2176C66.5196 48.2176 70.7913 47.4759 74.0307 46.1288C74.9908 45.7297 75.8369 45.2843 76.5645 44.7999V51.215C76.4288 52.3591 74.9572 53.6202 72.6092 54.5981C69.7679 55.7824 65.9938 56.4347 61.9846 56.4347C54.0398 56.4347 48.0158 53.8058 47.4375 51.4031V44.7999ZM72.6092 77.3803C69.7679 78.5645 65.9938 79.2168 61.9846 79.2168C54.0403 79.2168 48.0168 76.5885 47.4375 74.1857V67.4945C48.2621 68.0504 49.2381 68.5577 50.3596 69.0092C53.5476 70.2928 57.676 70.9997 61.9846 70.9997C66.4037 70.9997 70.6098 70.2609 73.8305 68.9189C74.8707 68.4856 75.785 67.9962 76.5645 67.4608V74.0051C76.4219 75.1474 74.9512 76.4046 72.6092 77.3803ZM51.1907 36.6292C48.8759 37.5917 47.4375 38.8504 47.4375 39.9136C47.4375 40.9767 48.8759 42.2353 51.1907 43.1984C54.0525 44.3884 57.8918 45.0438 62.0016 45.0438C66.1108 45.0438 69.9506 44.3882 72.812 43.1984C75.1267 42.2353 76.5646 40.9767 76.5646 39.9136C76.5646 38.8504 75.1267 37.5918 72.812 36.6292C69.9506 35.4388 66.1108 34.7832 62.0016 34.7832C57.8918 34.7832 54.0525 35.4388 51.1907 36.6292ZM47.4375 56.1035V62.7943C48.0158 65.1971 54.0398 67.8258 61.9846 67.8258C65.9938 67.8258 69.768 67.1735 72.6092 65.9893C74.9572 65.0113 76.4288 63.7502 76.5645 62.6062V56.0698C75.7849 56.605 74.8707 57.0945 73.8305 57.5277C70.6098 58.8698 66.4037 59.6086 61.9846 59.6086C57.6761 59.6086 53.5476 58.9016 50.3596 57.618C49.2381 57.1665 48.2621 56.6593 47.4375 56.1035Z" fill="white"/>
</svg>
