<svg width="302" height="118" viewBox="0 0 302 118" fill="none" xmlns="http://www.w3.org/2000/svg">
<path d="M0 8C0 3.58173 3.58172 0 8 0H77V71.6719H0V8Z" fill="#F9893D" fill-opacity="0.5"/>
<rect x="16.5" y="16.6523" width="90" height="82.7855" rx="7.5" fill="#1A1A1A" stroke="#D6B88D"/>
<rect x="19" y="20.1895" width="84" height="74.7003" rx="8" fill="#1A1A1A"/>
<path d="M294.5 113.006L16 113.006L2 88.832" stroke="#F96B31" stroke-width="0.5" stroke-miterlimit="10"/>
<path d="M234.5 108.35C235.816 108.35 237 107.287 237 105.826C237 104.498 235.947 103.302 234.5 103.302C233.184 103.302 232 104.365 232 105.826C232 107.287 233.053 108.35 234.5 108.35Z" fill="#FF842C"/>
<path d="M17.5 105.994L41.3879 105.994L233 105.994" stroke="#F9893D" stroke-width="0.5" stroke-miterlimit="10"/>
<path d="M297.055 117.208C299.189 117.208 301.11 115.485 301.11 113.115C301.11 110.96 299.402 109.021 297.055 109.021C294.921 109.021 293 110.745 293 113.115C293.213 115.269 294.921 117.208 297.055 117.208Z" fill="#F96B31"/>
<path d="M62 92C81.33 92 97 76.33 97 57C97 37.67 81.33 22 62 22C42.67 22 27 37.67 27 57C27 76.33 42.67 92 62 92Z" fill="#F9893D"/>
<path d="M62.0021 37.8594C57.7913 37.8594 53.7529 39.5321 50.7753 42.5097C47.7978 45.4872 46.125 49.5256 46.125 53.7365V65.8088C46.1248 66.2521 46.212 66.6912 46.3816 67.1008C46.5512 67.5104 46.7998 67.8826 47.1133 68.1961C47.4268 68.5096 47.799 68.7582 48.2086 68.9278C48.6182 69.0974 49.0572 69.1846 49.5006 69.1844H51.9479C52.8431 69.1844 53.7017 68.8287 54.3348 68.1957C54.9678 67.5626 55.3234 66.704 55.3234 65.8088V59.6045C55.3234 58.7092 54.9678 57.8506 54.3348 57.2176C53.7017 56.5845 52.8431 56.2289 51.9479 56.2289H50.0475V53.7365C50.0475 50.5659 51.307 47.5252 53.5489 45.2833C55.7908 43.0413 58.8316 41.7818 62.0021 41.7818C65.1727 41.7818 68.2134 43.0413 70.4554 45.2833C72.6973 47.5252 73.9568 50.5659 73.9568 53.7365V56.2289H72.0564C71.1612 56.2289 70.3026 56.5845 69.6695 57.2176C69.0365 57.8506 68.6809 58.7092 68.6809 59.6045V65.8088C68.6813 66.6639 69.006 67.487 69.5897 68.112C70.1733 68.737 70.9723 69.1173 71.8254 69.1762C71.4452 69.9289 70.8638 70.5614 70.1458 71.0036C69.4278 71.4457 68.6013 71.6802 67.758 71.6809H66.8789C66.6735 71.3316 66.3803 71.0422 66.0285 70.8412C65.6767 70.6402 65.2784 70.5347 64.8732 70.5352H61.7014C61.0849 70.5352 60.4938 70.78 60.0579 71.2159C59.622 71.6518 59.3771 72.243 59.3771 72.8594V73.8164C59.3771 74.4328 59.622 75.024 60.0579 75.4599C60.4938 75.8958 61.0849 76.1406 61.7014 76.1406H64.8732C65.278 76.1406 65.6756 76.0348 66.0269 75.8339C66.3782 75.6329 66.671 75.3437 66.8762 74.9949H67.7553C69.5038 74.9928 71.2019 74.4094 72.5825 73.3365C73.9631 72.2636 74.9477 70.762 75.3814 69.0682C76.0974 68.8742 76.7295 68.4499 77.1802 67.8608C77.631 67.2716 77.8752 66.5505 77.8752 65.8088V53.7365C77.8752 49.5264 76.203 45.4886 73.2263 42.5111C70.2497 39.5337 66.2123 37.8605 62.0021 37.8594Z" fill="white"/>
</svg>
