<svg width="1280" height="2358" viewBox="0 0 1280 2358" fill="none" xmlns="http://www.w3.org/2000/svg">
<rect width="1280" height="2358" fill="#1A1A1A"/>
<g clip-path="url(#clip0_119_7456)">
<g opacity="0.18">
<path d="M350.035 84.4051V12.3266H347.976L336.648 38.5838H320.688L337.678 1H364.966V84.4051H350.035Z" fill="#F9893D" fill-opacity="0.5"/>
<path d="M346.437 210.028C336.654 210.028 328.931 207.454 322.753 201.791C316.574 196.127 314 188.405 314 177.078V156.484C314 145.672 317.089 137.95 322.753 132.286C328.416 126.623 336.654 124.049 346.437 124.049C356.219 124.049 363.942 126.623 370.121 132.286C375.784 137.95 378.874 146.187 378.874 156.484V177.078C378.874 187.89 375.784 196.127 370.121 201.791C363.942 207.454 356.219 210.028 346.437 210.028ZM346.437 196.642C352.1 196.642 356.734 195.098 359.309 192.009C361.883 188.919 363.428 184.286 363.428 178.108V155.969C363.428 149.791 361.883 145.158 358.794 142.068C355.704 138.979 351.586 137.435 346.437 137.435C340.773 137.435 336.654 138.979 333.565 142.068C330.476 145.158 328.931 149.791 328.931 155.454V177.593C328.931 183.771 330.476 188.405 333.05 191.494C336.139 195.098 340.773 196.642 346.437 196.642Z" fill="#F9893D" fill-opacity="0.5"/>
<path d="M350.035 333.075V260.997H347.976L336.648 287.254H320.688L337.678 249.67H364.966V332.56H350.035V333.075Z" fill="#F9893D" fill-opacity="0.5"/>
<path d="M350.035 457.154V385.59H347.976L336.648 411.847H320.688L337.678 374.264H364.966V457.154H350.035Z" fill="#F9893D" fill-opacity="0.5"/>
<path d="M350.035 581.746V509.667H347.976L336.648 535.924H320.688L338.193 498.855H365.481V581.746H350.035Z" fill="#F9893D" fill-opacity="0.5"/>
<path d="M346.437 707.37C336.654 707.37 328.931 704.796 322.753 699.132C316.574 693.469 314 685.746 314 674.42V653.826C314 643.014 317.089 635.291 322.753 629.628C328.416 623.965 336.654 621.391 346.437 621.391C356.219 621.391 363.942 623.965 370.121 629.628C375.784 635.291 378.874 643.529 378.874 653.826V674.42C378.874 685.232 375.784 693.469 370.121 699.132C363.942 704.796 356.219 707.37 346.437 707.37ZM346.437 693.984C352.1 693.984 356.734 692.439 359.309 689.35C361.883 686.261 363.428 681.628 363.428 675.449V653.311C363.428 647.133 361.883 642.499 358.794 639.41C355.704 636.321 351.586 634.777 346.437 634.777C340.773 634.777 336.654 636.321 333.565 639.41C330.476 642.499 328.931 647.133 328.931 652.796V674.935C328.931 681.113 330.476 685.746 333.05 688.835C336.139 692.439 340.773 693.984 346.437 693.984Z" fill="#F9893D" fill-opacity="0.5"/>
<path d="M346.437 831.962C336.654 831.962 328.931 829.388 322.753 823.724C316.574 818.061 314 810.338 314 799.012V778.418C314 767.606 317.089 759.883 322.753 754.22C328.416 748.557 336.654 745.982 346.437 745.982C356.219 745.982 363.942 748.557 370.121 754.22C375.784 759.883 378.874 768.121 378.874 778.418V799.012C378.874 809.823 375.784 818.061 370.121 823.724C363.942 829.388 356.219 831.962 346.437 831.962ZM346.437 818.576C352.1 818.576 356.734 817.031 359.309 813.942C361.883 810.853 363.428 806.219 363.428 800.041V777.903C363.428 771.725 361.883 767.091 358.794 764.002C355.704 760.913 351.586 759.368 346.437 759.368C340.773 759.368 336.654 760.913 333.565 764.002C330.476 767.091 328.931 771.725 328.931 777.388V799.526C328.931 805.705 330.476 810.338 333.05 813.427C336.139 817.031 340.773 818.576 346.437 818.576Z" fill="#F9893D" fill-opacity="0.5"/>
<path d="M350.035 954.496V882.932H347.976L336.648 909.189H320.688L337.678 871.605H364.966V954.496H350.035Z" fill="#F9893D" fill-opacity="0.5"/>
<path d="M346.437 1080.63C336.654 1080.63 328.931 1078.06 322.753 1072.39C316.574 1066.73 314 1059.01 314 1047.68V1027.09C314 1016.28 317.089 1008.55 322.753 1002.89C328.416 997.227 336.654 994.652 346.437 994.652C356.219 994.652 363.942 997.227 370.121 1002.89C375.784 1008.55 378.874 1016.79 378.874 1027.09V1047.68C378.874 1058.49 375.784 1066.73 370.121 1072.39C363.942 1078.06 356.219 1080.63 346.437 1080.63ZM346.437 1067.25C352.1 1067.25 356.734 1065.7 359.309 1062.61C361.883 1059.52 363.428 1054.89 363.428 1048.71V1026.57C363.428 1020.39 361.883 1015.76 358.794 1012.67C355.704 1009.58 351.586 1008.04 346.437 1008.04C340.773 1008.04 336.654 1009.58 333.565 1012.67C330.476 1015.76 328.931 1020.39 328.931 1026.06V1048.2C328.931 1054.37 330.476 1059.01 333.05 1062.1C336.139 1065.7 340.773 1067.25 346.437 1067.25Z" fill="#F9893D" fill-opacity="0.5"/>
<path opacity="0.78" d="M350.035 1203.17V1131.6H347.976L336.648 1157.86H320.688L337.678 1120.28H364.966V1203.17H350.035Z" fill="#F9893D" fill-opacity="0.5"/>
<path opacity="0.78" d="M346.437 1329.3C336.654 1329.3 328.931 1326.73 322.753 1321.07C316.574 1315.4 314 1307.68 314 1296.35V1275.76C314 1264.95 317.089 1257.23 322.753 1251.56C328.416 1245.9 336.654 1243.32 346.437 1243.32C356.219 1243.32 363.942 1245.9 370.121 1251.56C375.784 1257.23 378.874 1265.46 378.874 1275.76V1296.35C378.874 1307.17 375.784 1315.4 370.121 1321.07C363.942 1326.73 356.219 1329.3 346.437 1329.3ZM346.437 1315.92C352.1 1315.92 356.734 1314.37 359.309 1311.28C361.883 1308.19 363.428 1303.56 363.428 1297.38V1275.24C363.428 1269.07 361.883 1264.43 358.794 1261.34C355.704 1258.25 351.586 1256.71 346.437 1256.71C340.773 1256.71 336.654 1258.25 333.565 1261.34C330.476 1264.43 328.931 1269.07 328.931 1274.73V1296.87C328.931 1303.05 330.476 1307.68 333.05 1310.77C336.139 1314.37 340.773 1315.92 346.437 1315.92Z" fill="#F9893D" fill-opacity="0.5"/>
<path opacity="0.78" d="M346.437 1453.38C336.654 1453.38 328.931 1450.81 322.753 1445.14C316.574 1439.48 314 1431.76 314 1420.43V1399.84C314 1389.03 317.089 1381.3 322.753 1375.64C328.416 1369.98 336.654 1367.4 346.437 1367.4C356.219 1367.4 363.942 1369.98 370.121 1375.64C375.784 1381.3 378.874 1389.54 378.874 1399.84V1420.43C378.874 1431.24 375.784 1439.48 370.121 1445.14C363.942 1450.81 356.219 1453.38 346.437 1453.38ZM346.437 1440C352.1 1440 356.734 1438.45 359.309 1435.36C361.883 1432.27 363.428 1427.64 363.428 1421.46V1399.32C363.428 1393.14 361.883 1388.51 358.794 1385.42C355.704 1382.33 351.586 1380.79 346.437 1380.79C340.773 1380.79 336.654 1382.33 333.565 1385.42C330.476 1388.51 328.931 1393.14 328.931 1398.81V1420.95C328.931 1427.12 330.476 1431.76 333.05 1434.85C336.139 1438.45 340.773 1440 346.437 1440Z" fill="#F9893D" fill-opacity="0.5"/>
<path d="M350.035 1576.43V1504.87H347.976L336.648 1531.12H320.688L337.678 1493.54H364.966V1576.43H350.035Z" fill="#F9893D" fill-opacity="0.5"/>
<path d="M346.437 1702.05C336.654 1702.05 328.931 1699.48 322.753 1693.81C316.574 1688.15 314 1680.43 314 1669.1V1648.51C314 1637.7 317.089 1629.97 322.753 1624.31C328.416 1618.65 336.654 1616.07 346.437 1616.07C356.219 1616.07 363.942 1618.65 370.121 1624.31C375.784 1629.97 378.874 1638.21 378.874 1648.51V1669.1C378.874 1679.91 375.784 1688.15 370.121 1693.81C363.942 1699.48 356.219 1702.05 346.437 1702.05ZM346.437 1688.67C352.1 1688.67 356.734 1687.12 359.309 1684.03C361.883 1680.94 363.428 1676.31 363.428 1670.13V1647.99C363.428 1641.81 361.883 1637.18 358.794 1634.09C355.704 1631 351.586 1629.46 346.437 1629.46C340.773 1629.46 336.654 1631 333.565 1634.09C330.476 1637.18 328.931 1641.81 328.931 1647.48V1669.62C328.931 1675.79 330.476 1680.43 333.05 1683.52C336.139 1687.12 340.773 1688.67 346.437 1688.67Z" fill="#F9893D" fill-opacity="0.5"/>
<path d="M350.035 1825.1V1753.54H347.976L336.648 1779.79H320.688L337.678 1742.21H364.966V1825.1H350.035Z" fill="#F9893D" fill-opacity="0.5"/>
<path d="M346.437 1950.72C336.654 1950.72 328.931 1948.15 322.753 1942.48C316.574 1936.82 314 1929.1 314 1917.77V1897.18C314 1886.37 317.089 1878.64 322.753 1872.98C328.416 1867.32 336.654 1864.74 346.437 1864.74C356.219 1864.74 363.942 1867.32 370.121 1872.98C375.784 1878.64 378.874 1886.88 378.874 1897.18V1917.77C378.874 1928.58 375.784 1936.82 370.121 1942.48C363.942 1948.15 356.219 1950.72 346.437 1950.72ZM346.437 1937.34C352.1 1937.34 356.734 1935.79 359.309 1932.7C361.883 1929.61 363.428 1924.98 363.428 1918.8V1896.66C363.428 1890.48 361.883 1885.85 358.794 1882.76C355.704 1879.67 351.586 1878.13 346.437 1878.13C340.773 1878.13 336.654 1879.67 333.565 1882.76C330.476 1885.85 328.931 1890.48 328.931 1896.15V1918.29C328.931 1924.46 330.476 1929.1 333.05 1932.19C336.139 1935.79 340.773 1937.34 346.437 1937.34Z" fill="#F9893D" fill-opacity="0.5"/>
<path d="M350.035 2073.77V2002.21H347.976L336.648 2028.46H320.688L337.678 1990.88H364.966V2073.77H350.035Z" fill="#F9893D" fill-opacity="0.5"/>
<path d="M346.437 2199.39C336.654 2199.39 328.931 2196.82 322.753 2191.16C316.574 2185.49 314 2177.77 314 2166.44V2145.85C314 2135.04 317.089 2127.31 322.753 2121.65C328.416 2115.99 336.654 2113.41 346.437 2113.41C356.219 2113.41 363.942 2115.99 370.121 2121.65C375.784 2127.31 378.874 2135.55 378.874 2145.85V2166.44C378.874 2177.25 375.784 2185.49 370.121 2191.16C363.942 2196.82 356.219 2199.39 346.437 2199.39ZM346.437 2186.01C352.1 2186.01 356.734 2184.46 359.309 2181.37C361.883 2178.28 363.428 2173.65 363.428 2167.47V2145.33C363.428 2139.16 361.883 2134.52 358.794 2131.43C355.704 2128.34 351.586 2126.8 346.437 2126.8C340.773 2126.8 336.654 2128.34 333.565 2131.43C330.476 2134.52 328.931 2139.16 328.931 2144.82V2166.96C328.931 2173.14 330.476 2177.77 333.05 2180.86C336.139 2184.46 340.773 2186.01 346.437 2186.01Z" fill="#F9893D" fill-opacity="0.5"/>
<path d="M350.035 2322.44V2250.88H347.976L336.648 2277.13H320.688L337.678 2239.55H364.966V2322.44H350.035Z" fill="#F9893D" fill-opacity="0.5"/>
</g>
<g opacity="0.18">
<path d="M1102.4 165.048V106.241H1100.72L1091.48 127.664H1078.46L1092.32 97H1114.59V165.048H1102.4Z" fill="#F9893D" fill-opacity="0.5"/>
<path d="M1099.46 267.541C1091.48 267.541 1085.18 265.44 1080.14 260.82C1075.1 256.199 1073 249.899 1073 240.658V223.856C1073 215.035 1075.52 208.734 1080.14 204.113C1084.76 199.493 1091.48 197.393 1099.46 197.393C1107.45 197.393 1113.75 199.493 1118.79 204.113C1123.41 208.734 1125.93 215.455 1125.93 223.856V240.658C1125.93 249.479 1123.41 256.199 1118.79 260.82C1113.75 265.44 1107.45 267.541 1099.46 267.541ZM1099.46 256.619C1104.09 256.619 1107.87 255.359 1109.97 252.839C1112.07 250.319 1113.33 246.538 1113.33 241.498V223.436C1113.33 218.395 1112.07 214.615 1109.55 212.094C1107.03 209.574 1103.67 208.314 1099.46 208.314C1094.84 208.314 1091.48 209.574 1088.96 212.094C1086.44 214.615 1085.18 218.395 1085.18 223.016V241.078C1085.18 246.118 1086.44 249.899 1088.54 252.419C1091.06 255.359 1094.84 256.619 1099.46 256.619Z" fill="#F9893D" fill-opacity="0.5"/>
<path d="M1102.4 367.931V309.124H1100.72L1091.48 330.546H1078.46L1092.32 299.883H1114.59V367.511H1102.4V367.931Z" fill="#F9893D" fill-opacity="0.5"/>
<path d="M1102.4 469.163V410.776H1100.72L1091.48 432.199H1078.46L1092.32 401.535H1114.59V469.163H1102.4Z" fill="#F9893D" fill-opacity="0.5"/>
<path d="M1102.4 570.815V512.009H1100.72L1091.48 533.431H1078.46L1092.74 503.188H1115.01V570.815H1102.4Z" fill="#F9893D" fill-opacity="0.5"/>
<path d="M1099.46 673.306C1091.48 673.306 1085.18 671.206 1080.14 666.586C1075.1 661.965 1073 655.664 1073 646.423V629.621C1073 620.8 1075.52 614.5 1080.14 609.879C1084.76 605.258 1091.48 603.158 1099.46 603.158C1107.45 603.158 1113.75 605.258 1118.79 609.879C1123.41 614.5 1125.93 621.22 1125.93 629.621V646.423C1125.93 655.244 1123.41 661.965 1118.79 666.586C1113.75 671.206 1107.45 673.306 1099.46 673.306ZM1099.46 662.385C1104.09 662.385 1107.87 661.125 1109.97 658.605C1112.07 656.084 1113.33 652.304 1113.33 647.263V629.201C1113.33 624.161 1112.07 620.38 1109.55 617.86C1107.03 615.34 1103.67 614.079 1099.46 614.079C1094.84 614.079 1091.48 615.34 1088.96 617.86C1086.44 620.38 1085.18 624.161 1085.18 628.781V646.843C1085.18 651.884 1086.44 655.664 1088.54 658.185C1091.06 661.125 1094.84 662.385 1099.46 662.385Z" fill="#F9893D" fill-opacity="0.5"/>
<path d="M1099.46 774.959C1091.48 774.959 1085.18 772.858 1080.14 768.238C1075.1 763.617 1073 757.317 1073 748.076V731.274C1073 722.453 1075.52 716.152 1080.14 711.531C1084.76 706.911 1091.48 704.811 1099.46 704.811C1107.45 704.811 1113.75 706.911 1118.79 711.531C1123.41 716.152 1125.93 722.873 1125.93 731.274V748.076C1125.93 756.897 1123.41 763.617 1118.79 768.238C1113.75 772.858 1107.45 774.959 1099.46 774.959ZM1099.46 764.037C1104.09 764.037 1107.87 762.777 1109.97 760.257C1112.07 757.737 1113.33 753.956 1113.33 748.916V730.854C1113.33 725.813 1112.07 722.033 1109.55 719.512C1107.03 716.992 1103.67 715.732 1099.46 715.732C1094.84 715.732 1091.48 716.992 1088.96 719.512C1086.44 722.033 1085.18 725.813 1085.18 730.434V748.496C1085.18 753.536 1086.44 757.317 1088.54 759.837C1091.06 762.777 1094.84 764.037 1099.46 764.037Z" fill="#F9893D" fill-opacity="0.5"/>
<path d="M1102.4 874.931V816.544H1100.72L1091.48 837.966H1078.46L1092.32 807.303H1114.59V874.931H1102.4Z" fill="#F9893D" fill-opacity="0.5"/>
<path d="M1099.46 977.841C1091.48 977.841 1085.18 975.741 1080.14 971.121C1075.1 966.5 1073 960.199 1073 950.958V934.156C1073 925.335 1075.52 919.035 1080.14 914.414C1084.76 909.794 1091.48 907.693 1099.46 907.693C1107.45 907.693 1113.75 909.794 1118.79 914.414C1123.41 919.035 1125.93 925.755 1125.93 934.156V950.958C1125.93 959.779 1123.41 966.5 1118.79 971.121C1113.75 975.741 1107.45 977.841 1099.46 977.841ZM1099.46 966.92C1104.09 966.92 1107.87 965.66 1109.97 963.14C1112.07 960.619 1113.33 956.839 1113.33 951.798V933.736C1113.33 928.696 1112.07 924.915 1109.55 922.395C1107.03 919.875 1103.67 918.615 1099.46 918.615C1094.84 918.615 1091.48 919.875 1088.96 922.395C1086.44 924.915 1085.18 928.696 1085.18 933.316V951.378C1085.18 956.419 1086.44 960.199 1088.54 962.72C1091.06 965.66 1094.84 966.92 1099.46 966.92Z" fill="#F9893D" fill-opacity="0.5"/>
<path opacity="0.78" d="M1102.4 1077.81V1019.43H1100.72L1091.48 1040.85H1078.46L1092.32 1010.19H1114.59V1077.81H1102.4Z" fill="#F9893D" fill-opacity="0.5"/>
<path opacity="0.78" d="M1099.46 1180.73C1091.48 1180.73 1085.18 1178.63 1080.14 1174.01C1075.1 1169.38 1073 1163.08 1073 1153.84V1137.04C1073 1128.22 1075.52 1121.92 1080.14 1117.3C1084.76 1112.68 1091.48 1110.58 1099.46 1110.58C1107.45 1110.58 1113.75 1112.68 1118.79 1117.3C1123.41 1121.92 1125.93 1128.64 1125.93 1137.04V1153.84C1125.93 1162.66 1123.41 1169.38 1118.79 1174.01C1113.75 1178.63 1107.45 1180.73 1099.46 1180.73ZM1099.46 1169.8C1104.09 1169.8 1107.87 1168.54 1109.97 1166.02C1112.07 1163.5 1113.33 1159.72 1113.33 1154.68V1136.62C1113.33 1131.58 1112.07 1127.8 1109.55 1125.28C1107.03 1122.76 1103.67 1121.5 1099.46 1121.5C1094.84 1121.5 1091.48 1122.76 1088.96 1125.28C1086.44 1127.8 1085.18 1131.58 1085.18 1136.2V1154.26C1085.18 1159.3 1086.44 1163.08 1088.54 1165.6C1091.06 1168.54 1094.84 1169.8 1099.46 1169.8Z" fill="#F9893D" fill-opacity="0.5"/>
<path opacity="0.78" d="M1099.46 1281.96C1091.48 1281.96 1085.18 1279.86 1080.14 1275.24C1075.1 1270.62 1073 1264.31 1073 1255.07V1238.27C1073 1229.45 1075.52 1223.15 1080.14 1218.53C1084.76 1213.91 1091.48 1211.81 1099.46 1211.81C1107.45 1211.81 1113.75 1213.91 1118.79 1218.53C1123.41 1223.15 1125.93 1229.87 1125.93 1238.27V1255.07C1125.93 1263.89 1123.41 1270.62 1118.79 1275.24C1113.75 1279.86 1107.45 1281.96 1099.46 1281.96ZM1099.46 1271.04C1104.09 1271.04 1107.87 1269.78 1109.97 1267.26C1112.07 1264.73 1113.33 1260.95 1113.33 1255.91V1237.85C1113.33 1232.81 1112.07 1229.03 1109.55 1226.51C1107.03 1223.99 1103.67 1222.73 1099.46 1222.73C1094.84 1222.73 1091.48 1223.99 1088.96 1226.51C1086.44 1229.03 1085.18 1232.81 1085.18 1237.43V1255.49C1085.18 1260.53 1086.44 1264.31 1088.54 1266.83C1091.06 1269.78 1094.84 1271.04 1099.46 1271.04Z" fill="#F9893D" fill-opacity="0.5"/>
<path d="M1102.4 1382.35V1323.96H1100.72L1091.48 1345.38H1078.46L1092.32 1314.72H1114.59V1382.35H1102.4Z" fill="#F9893D" fill-opacity="0.5"/>
<path d="M1099.46 1484.84C1091.48 1484.84 1085.18 1482.74 1080.14 1478.12C1075.1 1473.5 1073 1467.2 1073 1457.96V1441.16C1073 1432.34 1075.52 1426.03 1080.14 1421.41C1084.76 1416.79 1091.48 1414.69 1099.46 1414.69C1107.45 1414.69 1113.75 1416.79 1118.79 1421.41C1123.41 1426.03 1125.93 1432.76 1125.93 1441.16V1457.96C1125.93 1466.78 1123.41 1473.5 1118.79 1478.12C1113.75 1482.74 1107.45 1484.84 1099.46 1484.84ZM1099.46 1473.92C1104.09 1473.92 1107.87 1472.66 1109.97 1470.14C1112.07 1467.62 1113.33 1463.84 1113.33 1458.8V1440.74C1113.33 1435.7 1112.07 1431.92 1109.55 1429.4C1107.03 1426.87 1103.67 1425.61 1099.46 1425.61C1094.84 1425.61 1091.48 1426.87 1088.96 1429.4C1086.44 1431.92 1085.18 1435.7 1085.18 1440.32V1458.38C1085.18 1463.42 1086.44 1467.2 1088.54 1469.72C1091.06 1472.66 1094.84 1473.92 1099.46 1473.92Z" fill="#F9893D" fill-opacity="0.5"/>
<path d="M1102.4 1585.23V1526.85H1100.72L1091.48 1548.27H1078.46L1092.32 1517.61H1114.59V1585.23H1102.4Z" fill="#F9893D" fill-opacity="0.5"/>
<path d="M1099.46 1687.72C1091.48 1687.72 1085.18 1685.62 1080.14 1681C1075.1 1676.38 1073 1670.08 1073 1660.84V1644.04C1073 1635.22 1075.52 1628.92 1080.14 1624.3C1084.76 1619.68 1091.48 1617.58 1099.46 1617.58C1107.45 1617.58 1113.75 1619.68 1118.79 1624.3C1123.41 1628.92 1125.93 1635.64 1125.93 1644.04V1660.84C1125.93 1669.66 1123.41 1676.38 1118.79 1681C1113.75 1685.62 1107.45 1687.72 1099.46 1687.72ZM1099.46 1676.8C1104.09 1676.8 1107.87 1675.54 1109.97 1673.02C1112.07 1670.5 1113.33 1666.72 1113.33 1661.68V1643.62C1113.33 1638.58 1112.07 1634.8 1109.55 1632.28C1107.03 1629.76 1103.67 1628.5 1099.46 1628.5C1094.84 1628.5 1091.48 1629.76 1088.96 1632.28C1086.44 1634.8 1085.18 1638.58 1085.18 1643.2V1661.26C1085.18 1666.3 1086.44 1670.08 1088.54 1672.6C1091.06 1675.54 1094.84 1676.8 1099.46 1676.8Z" fill="#F9893D" fill-opacity="0.5"/>
<path d="M1102.4 1788.12V1729.73H1100.72L1091.48 1751.15H1078.46L1092.32 1720.49H1114.59V1788.12H1102.4Z" fill="#F9893D" fill-opacity="0.5"/>
<path d="M1099.46 1890.61C1091.48 1890.61 1085.18 1888.51 1080.14 1883.89C1075.1 1879.27 1073 1872.97 1073 1863.73V1846.92C1073 1838.1 1075.52 1831.8 1080.14 1827.18C1084.76 1822.56 1091.48 1820.46 1099.46 1820.46C1107.45 1820.46 1113.75 1822.56 1118.79 1827.18C1123.41 1831.8 1125.93 1838.52 1125.93 1846.92V1863.73C1125.93 1872.55 1123.41 1879.27 1118.79 1883.89C1113.75 1888.51 1107.45 1890.61 1099.46 1890.61ZM1099.46 1879.69C1104.09 1879.69 1107.87 1878.43 1109.97 1875.91C1112.07 1873.39 1113.33 1869.61 1113.33 1864.57V1846.5C1113.33 1841.46 1112.07 1837.68 1109.55 1835.16C1107.03 1832.64 1103.67 1831.38 1099.46 1831.38C1094.84 1831.38 1091.48 1832.64 1088.96 1835.16C1086.44 1837.68 1085.18 1841.46 1085.18 1846.08V1864.15C1085.18 1869.19 1086.44 1872.97 1088.54 1875.49C1091.06 1878.43 1094.84 1879.69 1099.46 1879.69Z" fill="#F9893D" fill-opacity="0.5"/>
<path d="M1102.4 1991V1932.61H1100.72L1091.48 1954.03H1078.46L1092.32 1923.37H1114.59V1991H1102.4Z" fill="#F9893D" fill-opacity="0.5"/>
</g>
<g opacity="0.18">
<path d="M182.437 86.9792C172.654 86.9792 164.931 84.4051 158.753 78.7418C153.089 73.5933 150 65.3557 150 54.0291V33.4352C150 22.6235 153.089 14.9009 158.753 9.23757C164.416 3.57426 172.654 1 182.437 1C192.219 1 199.942 3.57426 206.121 9.23757C211.784 14.9009 214.874 23.1383 214.874 33.4352V54.0291C214.874 64.8409 211.784 73.0785 206.121 78.7418C200.457 84.4051 192.734 86.9792 182.437 86.9792ZM182.437 73.5933C188.1 73.5933 192.734 72.0487 195.309 68.9596C197.883 65.8705 199.427 61.237 199.427 55.0588V32.9204C199.427 26.7422 197.883 22.1087 194.794 19.0196C191.704 15.9305 187.585 14.386 182.437 14.386C176.773 14.386 172.654 15.9305 169.565 19.0196C166.476 22.1087 164.931 26.7423 164.931 32.4056V54.544C164.931 60.7221 166.476 65.3558 169.05 68.4449C172.654 72.0488 176.773 73.5933 182.437 73.5933Z" fill="#F9893D" fill-opacity="0.5"/>
<path d="M186.551 206.939V135.376H184.491L173.164 161.633H157.203L174.194 124.049H201.482V206.939H186.551Z" fill="#F9893D" fill-opacity="0.5"/>
<path d="M182.437 329.987C172.654 329.987 164.931 327.413 158.753 321.75C153.089 316.086 150 308.364 150 297.037V276.443C150 265.631 153.089 257.909 158.753 252.246C164.416 246.582 172.654 244.008 182.437 244.008C192.219 244.008 199.942 246.582 206.121 252.246C211.784 257.909 214.874 266.146 214.874 276.443V297.037C214.874 307.849 211.784 316.086 206.121 321.75C200.457 326.898 192.734 329.987 182.437 329.987ZM182.437 316.086C188.1 316.086 192.734 314.542 195.309 311.453C197.883 308.364 199.427 303.73 199.427 297.552V275.414C199.427 269.235 197.883 264.602 194.794 261.513C191.704 258.424 187.585 256.879 182.437 256.879C176.773 256.879 172.654 258.424 169.565 261.513C166.476 264.602 164.931 269.235 164.931 274.899V297.037C164.931 303.215 166.476 307.849 169.05 310.938C172.654 314.542 176.773 316.086 182.437 316.086Z" fill="#F9893D" fill-opacity="0.5"/>
<path d="M186.551 449.431V377.868H184.491L173.164 404.125H157.203L174.194 366.541H201.482V449.431H186.551Z" fill="#F9893D" fill-opacity="0.5"/>
<path d="M182.437 572.479C172.654 572.479 164.931 569.905 158.753 564.242C153.089 559.093 150 550.856 150 539.529V518.935C150 508.123 153.089 500.401 158.753 494.737C164.416 489.074 172.654 486.5 182.437 486.5C192.219 486.5 199.942 489.074 206.121 494.737C211.784 500.401 214.874 508.638 214.874 518.935V539.529C214.874 550.341 211.784 558.578 206.121 564.242C200.457 569.905 192.734 572.479 182.437 572.479ZM182.437 559.093C188.1 559.093 192.734 557.549 195.309 554.459C197.883 551.37 199.427 546.737 199.427 540.559V518.42C199.427 512.242 197.883 507.609 194.794 504.52C191.704 501.431 187.585 499.886 182.437 499.886C176.773 499.886 172.654 501.431 169.565 504.52C166.476 507.609 164.931 512.242 164.931 517.905V540.044C164.931 546.222 166.476 550.856 169.05 553.945C172.654 557.549 176.773 559.093 182.437 559.093Z" fill="#F9893D" fill-opacity="0.5"/>
<path d="M186.551 692.439V620.876H184.491L173.164 647.133H157.203L174.194 609.549H201.482V692.439H186.551Z" fill="#F9893D" fill-opacity="0.5"/>
<path d="M182.437 815.487C172.654 815.487 164.931 812.913 158.753 807.25C153.089 802.101 150 793.864 150 782.537V761.943C150 751.132 153.089 743.409 158.753 737.746C164.416 732.082 172.654 729.508 182.437 729.508C192.219 729.508 199.942 732.082 206.121 737.746C211.784 743.409 214.874 751.646 214.874 761.943V782.537C214.874 793.349 211.784 801.586 206.121 807.25C200.457 812.398 192.734 815.487 182.437 815.487ZM182.437 801.586C188.1 801.586 192.734 800.042 195.309 796.953C197.883 793.864 199.427 789.23 199.427 783.052V760.914C199.427 754.735 197.883 750.102 194.794 747.013C191.704 743.924 187.585 742.379 182.437 742.379C176.773 742.379 172.654 743.924 169.565 747.013C166.476 750.102 164.931 754.735 164.931 760.399V782.537C164.931 788.715 166.476 793.349 169.05 796.438C172.654 800.042 176.773 801.586 182.437 801.586Z" fill="#F9893D" fill-opacity="0.5"/>
<path d="M186.551 934.931V863.367H184.491L173.164 889.625H157.203L174.194 852.041H201.482V934.931H186.551Z" fill="#F9893D" fill-opacity="0.5"/>
<path d="M182.437 1057.98C172.654 1057.98 164.931 1055.4 158.753 1049.74C153.089 1044.08 150 1036.36 150 1025.03V1004.44C150 993.623 153.089 985.901 158.753 980.237C164.416 974.574 172.654 972 182.437 972C192.219 972 199.942 974.574 206.121 980.237C211.784 985.901 214.874 994.138 214.874 1004.44V1025.03C214.874 1035.84 211.784 1044.08 206.121 1049.74C200.457 1055.4 192.734 1057.98 182.437 1057.98ZM182.437 1044.59C188.1 1044.59 192.734 1043.05 195.309 1039.96C197.883 1036.87 199.427 1032.24 199.427 1026.06V1003.92C199.427 997.742 197.883 993.109 194.794 990.02C191.704 986.931 187.585 985.386 182.437 985.386C176.773 985.386 172.654 986.931 169.565 990.02C166.476 993.109 164.931 997.742 164.931 1003.41V1025.54C164.931 1031.72 166.476 1036.36 169.05 1039.44C172.654 1043.05 176.773 1044.59 182.437 1044.59Z" fill="#F9893D" fill-opacity="0.5"/>
<path d="M186.551 1177.94V1106.37H184.491L173.164 1132.63H157.203L174.194 1095.05H201.482V1177.94H186.551Z" fill="#F9893D" fill-opacity="0.5"/>
<path d="M182.437 1300.99C172.654 1300.99 164.931 1298.41 158.753 1292.75C153.089 1287.6 150 1279.36 150 1268.04V1247.44C150 1236.63 153.089 1228.91 158.753 1223.25C164.416 1217.58 172.654 1215.01 182.437 1215.01C192.219 1215.01 199.942 1217.58 206.121 1223.25C211.784 1228.91 214.874 1237.15 214.874 1247.44V1268.04C214.874 1278.85 211.784 1287.09 206.121 1292.75C200.457 1297.9 192.734 1300.99 182.437 1300.99ZM182.437 1287.09C188.1 1287.09 192.734 1285.54 195.309 1282.45C197.883 1279.36 199.427 1274.73 199.427 1268.55V1246.41C199.427 1240.24 197.883 1235.6 194.794 1232.51C191.704 1229.42 187.585 1227.88 182.437 1227.88C176.773 1227.88 172.654 1229.42 169.565 1232.51C166.476 1235.6 164.931 1240.24 164.931 1245.9V1268.04C164.931 1274.22 166.476 1278.85 169.05 1281.94C172.654 1285.54 176.773 1287.09 182.437 1287.09Z" fill="#F9893D" fill-opacity="0.5"/>
<path d="M186.551 1420.43V1348.87H184.491L173.164 1375.12H157.203L174.194 1337.54H201.482V1420.43H186.551Z" fill="#F9893D" fill-opacity="0.5"/>
<path d="M186.551 1541.94V1470.37H184.491L173.164 1496.63H157.203L174.194 1459.04H201.482V1541.94H186.551Z" fill="#F9893D" fill-opacity="0.5"/>
<path d="M186.551 1663.44V1591.36H184.491L173.164 1617.62H157.203L174.194 1580.03H201.482V1663.44H186.551Z" fill="#F9893D" fill-opacity="0.5"/>
<path d="M182.437 1786.49C172.654 1786.49 164.931 1783.91 158.753 1778.25C153.089 1773.1 150 1764.86 150 1753.54V1732.94C150 1722.13 153.089 1714.41 158.753 1708.75C164.416 1703.08 172.654 1700.51 182.437 1700.51C192.219 1700.51 199.942 1703.08 206.121 1708.75C211.784 1714.41 214.874 1722.65 214.874 1732.94V1753.54C214.874 1764.35 211.784 1772.59 206.121 1778.25C200.457 1783.4 192.734 1786.49 182.437 1786.49ZM182.437 1772.59C188.1 1772.59 192.734 1771.04 195.309 1767.95C197.883 1764.86 199.427 1760.23 199.427 1754.05V1731.91C199.427 1725.74 197.883 1721.1 194.794 1718.01C191.704 1714.92 187.585 1713.38 182.437 1713.38C176.773 1713.38 172.654 1714.92 169.565 1718.01C166.476 1721.1 164.931 1725.74 164.931 1731.4V1753.54C164.931 1759.72 166.476 1764.35 169.05 1767.44C172.654 1771.04 176.773 1772.59 182.437 1772.59Z" fill="#F9893D" fill-opacity="0.5"/>
<path d="M182.437 1907.48C172.654 1907.48 164.931 1904.9 158.753 1899.24C153.089 1894.09 150 1885.85 150 1874.53V1853.93C150 1843.12 153.089 1835.4 158.753 1829.73C164.416 1824.07 172.654 1821.5 182.437 1821.5C192.219 1821.5 199.942 1824.07 206.121 1829.73C211.784 1835.4 214.874 1843.63 214.874 1853.93V1874.53C214.874 1885.34 211.784 1893.57 206.121 1899.24C200.457 1904.9 192.734 1907.48 182.437 1907.48ZM182.437 1894.09C188.1 1894.09 192.734 1892.54 195.309 1889.46C197.883 1886.37 199.427 1881.73 199.427 1875.55V1853.42C199.427 1847.24 197.883 1842.6 194.794 1839.52C191.704 1836.43 187.585 1834.88 182.437 1834.88C176.773 1834.88 172.654 1836.43 169.565 1839.52C166.476 1842.6 164.931 1847.24 164.931 1852.9V1875.04C164.931 1881.22 166.476 1885.85 169.05 1888.94C172.654 1892.54 176.773 1894.09 182.437 1894.09Z" fill="#F9893D" fill-opacity="0.5"/>
<path d="M186.551 2027.44V1955.87H184.491L173.164 1982.13H157.203L174.194 1944.54H201.482V2027.44H186.551Z" fill="#F9893D" fill-opacity="0.5"/>
<path d="M182.437 2150.48C172.654 2150.48 164.931 2147.91 158.753 2142.25C153.089 2136.58 150 2128.86 150 2117.53V2096.94C150 2086.13 153.089 2078.4 158.753 2072.74C164.416 2067.08 172.654 2064.5 182.437 2064.5C192.219 2064.5 199.942 2067.08 206.121 2072.74C211.784 2078.4 214.874 2086.64 214.874 2096.94V2117.53C214.874 2128.34 211.784 2136.58 206.121 2142.25C200.457 2147.91 192.734 2150.48 182.437 2150.48ZM182.437 2137.1C188.1 2137.1 192.734 2135.55 195.309 2132.46C197.883 2129.37 199.427 2124.74 199.427 2118.56V2096.42C199.427 2090.25 197.883 2085.61 194.794 2082.52C191.704 2079.43 187.585 2077.89 182.437 2077.89C176.773 2077.89 172.654 2079.43 169.565 2082.52C166.476 2085.61 164.931 2090.25 164.931 2095.91V2118.05C164.931 2124.23 166.476 2128.86 169.05 2131.95C172.654 2135.55 176.773 2137.1 182.437 2137.1Z" fill="#F9893D" fill-opacity="0.5"/>
<path opacity="0.78" d="M186.551 2269.93V2198.36H184.491L173.164 2224.62H157.203L174.194 2187.04H201.482V2269.93H186.551Z" fill="#F9893D" fill-opacity="0.5"/>
<path opacity="0.78" d="M182.437 2392.98C172.654 2392.98 164.931 2390.4 158.753 2384.74C153.089 2379.59 150 2371.35 150 2360.03V2339.43C150 2328.62 153.089 2320.9 158.753 2315.23C164.416 2309.57 172.654 2307 182.437 2307C192.219 2307 199.942 2309.57 206.121 2315.23C211.784 2320.9 214.874 2329.13 214.874 2339.43V2360.03C214.874 2370.84 211.784 2379.07 206.121 2384.74C200.457 2390.4 192.734 2392.98 182.437 2392.98ZM182.437 2379.59C188.1 2379.59 192.734 2378.04 195.309 2374.96C197.883 2371.87 199.427 2367.23 199.427 2361.05V2338.92C199.427 2332.74 197.883 2328.1 194.794 2325.02C191.704 2321.93 187.585 2320.38 182.437 2320.38C176.773 2320.38 172.654 2321.93 169.565 2325.02C166.476 2328.1 164.931 2332.74 164.931 2338.4V2360.54C164.931 2366.72 166.476 2371.35 169.05 2374.44C172.654 2378.04 176.773 2379.59 182.437 2379.59Z" fill="#F9893D" fill-opacity="0.5"/>
</g>
</g>
<defs>
<clipPath id="clip0_119_7456">
<rect width="1280" height="2338" fill="white" transform="translate(0 1)"/>
</clipPath>
</defs>
</svg>
