<svg width="560" height="433" viewBox="0 0 560 433" fill="none" xmlns="http://www.w3.org/2000/svg">
<path d="M552 0H8C3.58172 0 0 3.58173 0 8.00001V425C0 429.418 3.5817 433 7.99998 433H552C556.418 433 560 429.418 560 425V8C560 3.58172 556.418 0 552 0Z" fill="url(#paint0_linear_531_2087)"/>
<path d="M229 178H258.551C259.685 177.998 274.018 178.574 275 178C275.982 177.426 277.933 175.492 278.5 174.5L332.762 69.8184C334.137 67.1654 336.876 65.5 339.864 65.5H346" stroke="#5A5AC4" stroke-width="2" stroke-miterlimit="10"/>
<path d="M230 182.701C232.761 182.701 235 180.463 235 177.701C235 174.94 232.761 172.701 230 172.701C227.239 172.701 225 174.94 225 177.701C225 180.463 227.239 182.701 230 182.701Z" fill="#5A5AC4"/>
<path d="M472 148H414.548H317.5C316 148 314 151 314 151C313.5 151.903 312.755 152.953 312.265 153.807L290.818 191.193C290.329 192.047 289.625 192.755 288.777 193.248C287.929 193.741 286.967 194 285.988 194H214" stroke="#7657BD" stroke-width="2" stroke-miterlimit="10"/>
<path d="M363.771 150.682C365.353 146.842 363.522 142.446 359.682 140.864C355.842 139.282 351.446 141.113 349.864 144.953C348.282 148.793 350.113 153.189 353.953 154.771C357.793 156.353 362.189 154.522 363.771 150.682Z" fill="#FAFAFA" stroke="#7657BD" stroke-width="2" stroke-miterlimit="10"/>
<path d="M214 198.07C216.761 198.07 219 195.832 219 193.07C219 190.309 216.761 188.07 214 188.07C211.239 188.07 209 190.309 209 193.07C209 195.832 211.239 198.07 214 198.07Z" fill="#7657BD"/>
<path d="M245 272H281.226C282.48 272.003 283.71 272.332 284.794 272.956C285.879 273.579 286.78 274.475 287.406 275.553L341.764 368.447C342.39 369.525 343.291 370.421 344.375 371.044C345.46 371.668 346.69 371.997 347.943 372H380" stroke="#D13F70" stroke-width="2" stroke-miterlimit="10"/>
<path d="M221 257C223.761 257 226 254.761 226 252C226 249.239 223.761 247 221 247C218.239 247 216 249.239 216 252C216 254.761 218.239 257 221 257Z" fill="#D13F70"/>
<path d="M432 302H336.243C335.105 302 333.986 301.704 333.001 301.143C332.015 300.581 331.196 299.774 330.627 298.802L305.692 256.198C305.123 255.226 304.305 254.419 303.319 253.857C302.333 253.296 301.215 253 300.076 253H220" stroke="#C74087" stroke-width="2" stroke-miterlimit="10"/>
<path d="M243 277C245.761 277 248 274.761 248 272C248 269.239 245.761 267 243 267C240.239 267 238 269.239 238 272C238 274.761 240.239 277 243 277Z" fill="#C74087"/>
<path d="M364.001 208L229.621 208.375" stroke="#804DAB" stroke-width="2" stroke-miterlimit="10"/>
<path d="M230 213C232.761 213 235 210.761 235 208C235 205.239 232.761 203 230 203C227.239 203 225 205.239 225 208C225 210.761 227.239 213 230 213Z" fill="#804DAB"/>
<path d="M483 250H320.896C319.882 250.001 318.886 249.736 318.008 249.233C317.129 248.729 316.4 248.004 315.893 247.131L308.212 233.869C307.705 232.996 306.976 232.271 306.098 231.767C305.219 231.264 304.223 230.999 303.209 231H204" stroke="#B04AAF" stroke-width="2" stroke-miterlimit="10"/>
<path d="M204 236C206.761 236 209 233.761 209 231C209 228.239 206.761 226 204 226C201.239 226 199 228.239 199 231C199 233.761 201.239 236 204 236Z" fill="#B04AAF"/>
<path d="M399 249.52C399 248.033 399.441 246.579 400.267 245.342C401.094 244.105 402.268 243.142 403.642 242.572C405.016 242.003 406.528 241.854 407.987 242.144C409.446 242.435 410.786 243.151 411.837 244.203C412.889 245.254 413.605 246.594 413.896 248.053C414.186 249.512 414.037 251.024 413.468 252.398C412.898 253.772 411.935 254.946 410.698 255.773C409.461 256.599 408.007 257.04 406.52 257.04C404.526 257.04 402.613 256.248 401.203 254.837C399.792 253.427 399 251.514 399 249.52Z" fill="#FAFAFA" stroke="#B04AAF" stroke-width="2" stroke-miterlimit="10"/>
<path d="M57.7887 152.5L132.211 152.5L169.423 217L132.211 281.5H57.7887L20.5772 217L57.7887 152.5Z" fill="#232436" stroke="#D6B88D"/>
<path d="M359.739 40.5L388.063 40.5L402.224 65L388.063 89.5H359.739L345.578 65L359.739 40.5Z" fill="#5656C2" stroke="#F9893D"/>
<path d="M484.739 123.5L513.063 123.5L527.224 148L513.063 172.5H484.739L470.578 148L484.739 123.5Z" fill="#644AB3" stroke="#F9893D"/>
<path d="M377.739 183.5L406.063 183.5L420.224 208L406.063 232.5H377.739L363.578 208L377.739 183.5Z" fill="#6D419E" stroke="#F9893D"/>
<path d="M440.739 277.5L469.063 277.5L483.224 302L469.063 326.5H440.739L426.578 302L440.739 277.5Z" fill="#5656C2" stroke="#F9893D"/>
<path d="M392.739 347.5L421.063 347.5L435.224 372L421.063 396.5H392.739L378.578 372L392.739 347.5Z" fill="#A43FA3" stroke="#F9893D"/>
<path d="M493.739 225.5L522.063 225.5L536.224 250L522.063 274.5H493.739L479.578 250L493.739 225.5Z" fill="#A43FA3" stroke="#F9893D"/>
<path d="M100.068 219.499H108.711V199.715L100.068 208.52V219.499Z" fill="url(#paint1_linear_531_2087)"/>
<path d="M79.9102 219.499H88.5531V208.519L79.9102 199.715V219.499Z" fill="url(#paint2_linear_531_2087)"/>
<path d="M94.3101 208.51H91.4395V219.5H97.1807V208.51H94.3101Z" fill="url(#paint3_linear_531_2087)"/>
<path d="M100.036 205.919L108.71 197.13L108.704 188L97.1856 199.72H91.4392L79.9205 188L79.9102 197.13L88.584 205.919H100.036Z" fill="url(#paint4_linear_531_2087)"/>
<path d="M107.117 239.34C106.116 238.475 102.171 238.101 101.403 237.461C100.035 235.586 104.98 235.489 105.006 237.355L107.633 236.838C106.959 234.572 105.478 233.923 102.973 233.914C99.55 233.501 96.775 237.326 99.7923 239.544C100.783 240.222 103.064 240.725 104.556 241.09C107.12 242.785 101.051 243.969 100.95 241.116L98.1562 241.564C98.8579 245.299 104.458 245.848 106.78 243.876C108.124 242.765 108.523 240.431 107.117 239.34Z" fill="#E8E8E8"/>
<path d="M120.118 239.21C119.939 232.179 109.339 232.301 109.361 239.355C109.059 247.041 120.527 246.76 120.118 239.21ZM116.673 241.547C113.908 243.926 110.318 240.155 112.81 237.45C115.594 235.074 119.137 238.838 116.673 241.547Z" fill="#E8E8E8"/>
<path d="M125.548 234.522C125.472 233.027 126.916 233.25 127.926 233.482L128.301 231.51C123.603 230.299 122.515 232.056 122.842 236.678H121.492V239.451H122.842V245.001H125.545V239.451H126.894V236.678H125.545C125.545 236.611 125.545 234.635 125.548 234.525V234.522Z" fill="#E8E8E8"/>
<path d="M134.176 242.218C131.81 243.258 132.354 241.211 132.301 239.442H133.657V236.676H132.301C132.301 235.617 132.307 232.13 132.282 231.133L129.608 233.906V236.679H128.258V239.445H129.608C129.419 243.658 129.771 246.031 134.412 244.559L134.176 242.222V242.218Z" fill="#E8E8E8"/>
<path d="M63.1367 231.15L60.7456 240.299L58.3513 231.15H54V244.993H56.7026V233.92L59.3958 244.993H62.0985L64.7948 233.92V244.993H67.4974V231.15H63.1399H63.1367Z" fill="#E8E8E8"/>
<path d="M78.1436 243.438C77.744 241.595 78.4268 237.175 77.6717 235.513C76.0734 232.908 70.0514 233.282 69.2271 236.614L71.5459 237.495C71.8983 235.535 75.5826 235.564 75.3277 237.711C74.5789 238.131 71.4043 238.551 70.4542 239.109C65.675 242.718 72.2601 247.244 75.5479 243.712C75.636 244.016 75.8248 244.726 75.9098 244.916H78.6376C78.3984 244.393 78.2317 243.896 78.1436 243.435V243.438ZM75.3277 240.21C75.9538 242.909 71.9549 244.555 71.5459 241.637C71.4893 240.019 74.3398 240.09 75.3277 239.616V240.21Z" fill="#E8E8E8"/>
<path d="M84.5334 233.943C83.4479 234.034 83.0609 234.286 82.3467 235.386V233.943H82.3436L79.6504 236.707V244.997H82.353C82.6362 242.611 81.104 234.56 85.4961 236.946C85.6975 236.358 86.1411 235.076 86.3488 234.479C85.7667 234.121 85.1626 233.947 84.5334 233.947V233.943Z" fill="#E8E8E8"/>
<path d="M92.4788 238.786L97.2045 233.938H93.3346L90.4526 236.907V225.625L87.75 228.395V244.994H90.4526V240.859L90.5722 240.742L94.7127 244.994H98.5511L92.4788 238.786Z" fill="#E8E8E8"/>
<g clip-path="url(#clip0_531_2087)">
<path d="M388.25 67.0796C387.679 66.6805 387.078 66.3281 386.451 66.026C385.773 65.6982 385.07 65.4278 384.347 65.218C384.345 65.2172 384.343 65.216 384.34 65.2153C384.139 65.1569 383.937 65.1038 383.735 65.0557C383.991 64.0716 384.12 63.0588 384.12 62.0419C384.12 55.4677 378.771 50.1191 372.197 50.1191C365.623 50.1191 360.274 55.4677 360.274 62.0419C360.27 64.2925 360.907 66.4978 362.11 68.4001C361.717 68.5798 361.348 68.8062 361.011 69.0745C358.712 70.8978 358.327 74.2388 360.151 76.5369C361.974 78.8349 365.315 79.2199 367.613 77.3966C367.679 77.3445 367.743 77.2908 367.806 77.2357C368.021 77.4678 373.368 81.874 380.815 78.7891C383.802 77.5521 386.06 75.5757 387.527 72.9148L387.526 72.9145C387.891 72.2522 388.199 71.5602 388.447 70.8459C388.677 70.1891 388.853 69.5148 388.974 68.8296C389.09 68.1553 388.808 67.4747 388.25 67.0796ZM388.275 68.7078C388.219 69.0291 388.148 69.3538 388.062 69.6796L387.003 67.1238C387.294 67.2935 387.574 67.4727 387.841 67.6603C388.175 67.8968 388.344 68.3042 388.275 68.7078ZM383.039 64.9092C382.762 64.8587 382.485 64.8175 382.207 64.7855C382.116 60.5922 379.923 58.0782 378.392 56.2374C377.666 55.3637 377.022 54.5889 376.647 53.818C378.415 53.9073 379.805 54.4553 381.008 55.1145C383.185 57.8797 383.937 61.5065 383.039 64.9092ZM376.595 65.3796C376.523 62.5766 375.921 58.3208 372.902 54.2565C373.869 53.9931 374.864 53.8429 375.866 53.809C376.253 54.7736 376.996 55.6681 377.847 56.6914C379.473 58.6472 381.395 60.9588 381.499 64.7241C379.838 64.6336 378.174 64.8559 376.595 65.3796ZM379.742 53.7541C378.667 53.3403 377.529 53.1144 376.377 53.0861C376.266 52.6075 376.258 52.1105 376.355 51.6287C377.602 52.129 378.749 52.8489 379.742 53.7541ZM375.68 51.3836C375.552 51.9452 375.542 52.5273 375.651 53.0928C374.559 53.149 373.476 53.3345 372.427 53.6454C371.666 52.6966 370.801 51.8353 369.849 51.0772C371.786 50.6632 373.798 50.7689 375.68 51.3836ZM368.964 51.3049C369.338 51.5654 370.46 52.4042 371.693 53.8716C370.959 54.1137 369.87 54.4676 368.232 55.5428C366.887 54.3226 365.349 54.0958 364.258 54.1314C365.569 52.8143 367.186 51.8431 368.964 51.3049ZM363.547 54.9153C364.39 54.7813 366.143 54.7054 367.629 55.9591C363.871 58.6858 362.153 62.4772 361.452 65.254C360.384 61.674 361.17 57.7973 363.547 54.9153ZM361.909 66.5088C362.226 64.6891 363.485 59.7888 368.142 56.4651C369.099 57.5995 368.804 58.7955 368.333 60.6989C367.821 62.7704 367.166 65.422 367.834 69.2633C366.46 68.0429 364.552 67.6196 362.791 68.1444C362.452 67.6247 362.157 67.0775 361.909 66.5088ZM359.74 72.709C359.858 71.6587 360.337 70.6819 361.095 69.945C361.189 70.2051 361.268 70.4703 361.331 70.7393L360.813 71.0588C360.41 71.3078 360.791 71.9067 361.186 71.6631L361.478 71.483C361.533 71.8411 361.568 72.202 361.584 72.564L361.073 72.5053C360.607 72.4518 360.525 73.1568 360.992 73.2105L361.589 73.2793C361.577 73.7314 361.537 74.1824 361.47 74.6297L361.001 74.3599C360.594 74.1252 360.241 74.741 360.647 74.9752L361.334 75.3707C361.24 75.8069 361.138 76.1664 361.042 76.4728C360.057 75.4822 359.578 74.0964 359.74 72.709ZM363.785 77.8071C363.006 77.7188 362.263 77.4317 361.626 76.9732C361.731 76.6597 361.86 76.2497 361.98 75.7421L362.275 75.9119C362.678 76.1443 363.04 75.5333 362.629 75.2967L362.13 75.0096C362.226 74.4649 362.284 73.9142 362.303 73.3614L362.832 73.4224C363.299 73.4763 363.381 72.7709 362.914 72.7172L362.303 72.6469C362.288 72.1202 362.231 71.5956 362.136 71.0774L362.823 70.6532C363.223 70.4068 362.851 69.8025 362.451 70.049L361.969 70.3463C361.889 70.047 361.79 69.7533 361.672 69.4672C363.579 68.1289 366.186 68.43 367.738 70.1678C367.558 70.4191 367.396 70.682 367.251 70.9549L366.849 70.5556C366.516 70.2242 366.016 70.7285 366.349 71.0592L366.922 71.6292C366.711 72.1118 366.538 72.6099 366.403 73.1191L365.792 73.0487C365.325 72.9944 365.243 73.7002 365.71 73.7539L366.241 73.8151C366.133 74.3576 366.064 74.9069 366.034 75.4592L365.483 75.6254C365.031 75.7617 365.24 76.4406 365.688 76.3052L366.014 76.2068C366.015 76.7298 366.045 77.1423 366.078 77.4859C365.354 77.7876 364.565 77.8982 363.785 77.8071ZM366.761 77.1313C366.737 76.8131 366.72 76.4421 366.728 75.9912L367.485 75.7627C367.936 75.6268 367.729 74.9474 367.28 75.083L366.765 75.2384C366.801 74.7879 366.865 74.3401 366.957 73.8974L367.551 73.9658C368.017 74.0197 368.099 73.3143 367.632 73.2606L367.125 73.2022C367.223 72.8542 367.339 72.5116 367.473 72.1762L367.714 72.4148C368.042 72.7418 368.551 72.246 368.214 71.9112L367.785 71.4848C367.907 71.238 368.043 70.9983 368.192 70.7667C369.557 72.9068 368.929 75.7484 366.789 77.1134C366.78 77.1194 366.77 77.1254 366.761 77.1313ZM368.309 76.7339C368.708 76.2807 369.025 75.7621 369.248 75.2009L370.417 78.0234C369.419 77.556 368.492 76.9426 368.309 76.7339ZM371.347 78.4141L369.555 74.0871C369.674 73.3572 369.638 72.6102 369.45 71.8949C369.481 71.8404 369.511 71.7856 369.542 71.7314L372.457 78.7685C372.082 78.6682 371.711 78.5497 371.347 78.4141ZM380.543 78.1333C378.116 79.139 375.681 79.4176 373.306 78.9634L370.005 70.9942C370.486 70.2849 371.043 69.6297 371.666 69.0402C372.007 68.7173 371.519 68.2016 371.178 68.5245C370.47 69.1945 369.842 69.9445 369.307 70.7595C369.305 70.7615 369.305 70.7637 369.303 70.7658C369.248 70.8505 369.193 70.9363 369.139 71.0231C369.041 70.8102 368.929 70.604 368.803 70.406C367.795 66.1638 368.392 63.4179 369.022 60.8694C369.489 58.982 369.863 57.4624 368.732 56.0657C370.32 55.0425 371.422 54.6996 372.171 54.4666C375.222 58.4422 375.835 62.6723 375.888 65.6288C375.055 65.9423 374.252 66.3284 373.487 66.7827C373.079 67.0262 373.453 67.6303 373.851 67.3921C376.012 66.1012 379.723 64.6822 383.976 65.851L386.821 72.7202C385.432 75.1616 383.321 76.9825 380.543 78.1333ZM387.25 71.8987L384.86 66.129C385.254 66.2693 385.642 66.4294 386.021 66.6079L387.732 70.7389C387.591 71.133 387.429 71.5207 387.25 71.8987Z" fill="white"/>
<path d="M372.507 68.2217C372.703 68.2217 372.862 68.0627 372.862 67.8667C372.862 67.6706 372.703 67.5117 372.507 67.5117C372.311 67.5117 372.152 67.6706 372.152 67.8667C372.152 68.0627 372.311 68.2217 372.507 68.2217Z" fill="white"/>
<path d="M382.829 67.578C382.054 67.7052 381.268 67.8758 380.472 68.09L380.24 67.5282C380.06 67.0946 379.404 67.3656 379.584 67.7998L379.785 68.2846C378.952 68.5324 378.113 68.8255 377.268 69.1639L377.074 68.6962C376.894 68.2618 376.239 68.5344 376.418 68.9679L376.612 69.4353C375.777 69.7924 374.976 70.1783 374.21 70.5932L374.01 70.1086C373.83 69.6738 373.175 69.9474 373.354 70.3803L373.586 70.9416C373.112 71.215 372.654 71.4988 372.213 71.7931C371.818 72.0569 372.221 72.6411 372.607 72.3836C373.01 72.1148 373.428 71.8549 373.861 71.6036L374.127 72.2477C374.307 72.681 374.964 72.4119 374.783 71.976L374.484 71.2525C375.246 70.8371 376.046 70.45 376.884 70.0913L377.192 70.8352C377.371 71.2686 378.028 70.9994 377.848 70.5636L377.539 69.8197C378.384 69.4812 379.224 69.1893 380.058 68.9438L380.357 69.6672C380.537 70.1008 381.194 69.831 381.013 69.3955L380.746 68.7514C381.488 68.5553 382.22 68.3977 382.944 68.2784C383.407 68.2025 383.293 67.5021 382.829 67.578Z" fill="white"/>
</g>
<path d="M371.52 309.04C375.673 309.04 379.04 305.673 379.04 301.52C379.04 297.367 375.673 294 371.52 294C367.367 294 364 297.367 364 301.52C364 305.673 367.367 309.04 371.52 309.04Z" fill="#FAFAFA" stroke="#D13F70" stroke-width="2" stroke-miterlimit="10"/>
<path d="M496.726 148.32H496.226V148.82V150.359C495.66 150.284 495.077 150.245 494.534 150.245C493.609 150.245 492.722 150.355 491.914 150.575L491.914 150.575C491.67 150.641 491.444 150.705 491.225 150.766C491.061 150.813 490.901 150.858 490.741 150.902V148.173L499.283 138.735L507.675 148.112V153.55C507.633 153.575 507.586 153.602 507.535 153.632L507.526 153.638C507.383 153.722 507.212 153.822 507.054 153.93L507.054 153.93C506.451 154.345 505.769 154.672 505.027 154.901C504.841 154.148 504.36 153.486 503.655 152.974C503.279 152.7 502.883 152.474 502.393 152.27V148.82V148.32H501.893H496.726Z" stroke="white"/>
<path d="M499.698 135.231L499.328 134.817L498.955 135.229L488.942 146.293H487.959L490.816 143.106L490.944 142.964V142.773V136.858H493.693V138.63V139.925L494.563 138.967L499.303 133.746L510.547 146.293H509.599L499.698 135.231Z" stroke="white"/>
<path d="M498.125 156.863L498.125 156.863C497.989 156.782 497.873 156.706 497.782 156.634C497.737 156.599 497.69 156.558 497.647 156.512C497.608 156.471 497.55 156.402 497.511 156.306C497.468 156.202 497.435 156.032 497.522 155.854C497.602 155.692 497.737 155.617 497.81 155.586C497.945 155.529 498.09 155.526 498.169 155.526C498.358 155.526 498.615 155.557 498.882 155.595C499.061 155.621 499.261 155.652 499.471 155.685C499.582 155.703 499.696 155.72 499.81 155.738C500.486 155.842 501.199 155.939 501.761 155.939C502.039 155.939 502.244 155.914 502.376 155.874C502.419 155.86 502.445 155.848 502.459 155.841C502.526 155.633 502.497 155.508 502.439 155.407C502.363 155.272 502.198 155.117 501.895 154.942C501.596 154.769 501.216 154.606 500.766 154.43C500.599 154.365 500.419 154.296 500.232 154.225C499.934 154.113 499.62 153.993 499.314 153.869L499.314 153.869C497.893 153.294 496.172 152.866 494.551 152.866L498.125 156.863ZM498.125 156.863C499.255 157.542 500.812 157.902 502.458 157.902C504.488 157.902 506.722 157.354 508.56 156.09L508.277 155.678M498.125 156.863L508.277 155.678M508.277 155.678L508.56 156.09M508.277 155.678L508.56 156.09M487.297 161.271V154.598C488.168 154.336 490.088 153.794 492.622 153.103L492.622 153.103C493.222 152.94 493.877 152.866 494.551 152.866L487.297 161.271ZM487.297 161.271C487.711 161.13 488.133 160.998 488.535 160.89C489.147 160.725 489.753 160.603 490.222 160.603C490.654 160.603 491.358 160.736 492.162 160.91C492.647 161.016 493.197 161.144 493.78 161.279C494.18 161.372 494.595 161.468 495.017 161.564C497.119 162.04 499.394 162.5 501.014 162.5C501.463 162.5 501.843 162.464 502.143 162.392L487.297 161.271ZM508.56 156.09C509.47 155.465 510.12 155.276 510.535 155.276M508.56 156.09L510.535 155.276M510.535 155.276C510.979 155.276 511.167 155.484 511.238 155.686C511.321 155.925 511.262 156.222 511.075 156.414C510.428 157.077 508.874 158.414 507.122 159.673M510.535 155.276L507.122 159.673M507.122 159.673C505.353 160.944 503.468 162.072 502.143 162.392L507.122 159.673ZM502.473 155.831C502.473 155.831 502.472 155.832 502.47 155.834C502.472 155.832 502.473 155.831 502.473 155.831Z" stroke="white"/>
<g clip-path="url(#clip1_531_2087)">
<path d="M397.51 195.922L397.416 196.129L397.51 196.336L398.61 198.758H395.146V193.5H398.61L397.51 195.922Z" stroke="white"/>
<path d="M391.621 193.5H392.379V199.642C392.253 199.636 392.127 199.634 392 199.634C391.873 199.634 391.747 199.636 391.621 199.642V193.5Z" stroke="white"/>
<path d="M403.482 216.345H401.074L401.077 208.598H404.195V216.389C403.961 216.36 403.723 216.345 403.482 216.345Z" stroke="white"/>
<path d="M382.946 208.598L382.927 216.345H380.518C380.277 216.345 380.039 216.36 379.805 216.389V208.598H382.946Z" stroke="white"/>
<path d="M392 202.391C395.109 202.391 397.694 204.638 398.219 207.597H385.781C386.306 204.638 388.89 202.391 392 202.391Z" stroke="white"/>
<path d="M390.559 210.355H393.44V216.345H390.559V210.355Z" stroke="white"/>
<path d="M396.199 210.355H398.317V216.345H396.199V210.355Z" stroke="white"/>
<path d="M385.684 210.356H387.801V216.345H385.684V210.356Z" stroke="white"/>
<path d="M380.518 219.104H403.482C405.146 219.104 406.5 220.458 406.5 222.122V222.501H377.5V222.122C377.5 220.458 378.854 219.104 380.518 219.104Z" fill="#58595B" stroke="white"/>
</g>
<g clip-path="url(#clip2_531_2087)">
<path d="M447.271 305.11L447.271 305.11C447.275 305.146 447.264 305.181 447.242 305.207C447.216 305.235 447.182 305.25 447.147 305.25H441.389C441.336 305.25 441.288 305.217 441.27 305.165L440.799 305.333L441.27 305.166C440.758 303.72 440.5 302.234 440.5 300.75C440.5 299.262 440.758 297.776 441.27 296.334C441.288 296.283 441.336 296.25 441.388 296.25H447.147C447.182 296.25 447.216 296.265 447.242 296.293C447.264 296.319 447.275 296.354 447.271 296.39L447.271 296.39C447.093 297.831 447.003 299.297 447.003 300.75C447.003 302.203 447.093 303.669 447.271 305.11Z" stroke="white"/>
<path d="M457.531 293.848L457.532 293.849C457.539 293.883 457.532 293.922 457.507 293.953C457.483 293.983 457.447 294 457.409 294H450.102C450.064 294 450.028 293.983 450.004 293.953C449.979 293.922 449.972 293.883 449.98 293.849L449.98 293.848C450.439 291.835 451.073 290.21 451.775 289.101C452.496 287.961 453.198 287.5 453.756 287.5C454.313 287.5 455.015 287.961 455.736 289.101C456.438 290.21 457.073 291.835 457.531 293.848Z" stroke="white"/>
<path d="M457.569 287.955C457.401 288.153 457.374 288.434 457.501 288.66C458.277 290.053 458.914 291.9 459.344 294C459.404 294.291 459.661 294.5 459.957 294.5H464.925C465.152 294.5 465.361 294.377 465.471 294.18C465.582 293.982 465.576 293.74 465.458 293.547L457.569 287.955ZM458.088 288.238C460.962 289.232 463.427 291.211 465.032 293.809C465.056 293.849 465.056 293.897 465.035 293.935L465.034 293.937C465.013 293.975 464.971 294 464.925 294H459.957C459.898 294 459.846 293.958 459.834 293.9C459.397 291.765 458.746 289.867 457.938 288.417L457.938 288.417L457.938 288.416C457.913 288.371 457.918 288.316 457.951 288.277L457.951 288.277L457.953 288.274C457.986 288.235 458.041 288.221 458.084 288.237L458.088 288.238Z" stroke="white"/>
<path d="M448.167 307.5C448.597 309.6 449.235 311.447 450.01 312.84C450.137 313.066 450.11 313.347 449.943 313.545C449.822 313.69 449.646 313.769 449.464 313.769C449.396 313.769 449.326 313.758 449.26 313.735C446.277 312.703 443.718 310.649 442.054 307.953M448.167 307.5L447.678 307.601M448.167 307.5L447.677 307.6C447.677 307.6 447.677 307.6 447.678 307.601M448.167 307.5L442.04 307.321C441.929 307.518 441.935 307.761 442.054 307.953M442.054 307.953L442.48 307.692C442.48 307.692 442.48 307.692 442.48 307.691M442.054 307.953L442.479 307.691C442.479 307.691 442.48 307.691 442.48 307.691M442.48 307.691C444.084 310.289 446.55 312.268 449.424 313.262L449.426 313.263C449.435 313.266 449.448 313.269 449.464 313.269C449.501 313.269 449.535 313.253 449.56 313.224L449.561 313.223C449.594 313.184 449.599 313.129 449.574 313.084L449.573 313.083C448.766 311.633 448.114 309.735 447.678 307.601M442.48 307.691C442.455 307.651 442.455 307.603 442.476 307.565L442.478 307.563C442.499 307.525 442.54 307.5 442.586 307.5H447.554C447.614 307.5 447.666 307.542 447.678 307.601" stroke="white"/>
<path d="M449.574 288.416L449.573 288.417C448.766 289.867 448.114 291.765 447.677 293.9C447.665 293.958 447.614 294 447.554 294H442.586C442.54 294 442.499 293.975 442.477 293.937L442.477 293.937L442.476 293.935C442.455 293.897 442.455 293.849 442.48 293.808L442.054 293.547L442.479 293.809C444.084 291.211 446.55 289.232 449.424 288.238L449.424 288.238L449.429 288.236C449.467 288.223 449.524 288.233 449.561 288.277C449.594 288.316 449.599 288.371 449.574 288.416Z" stroke="white"/>
<path d="M466.309 307.186L466.075 307.454L466.251 307.763L469.414 313.307C469.593 313.785 469.48 314.215 469.198 314.495L469.189 314.504L469.181 314.512L468.571 315.18C468.571 315.18 468.571 315.18 468.571 315.18C468.55 315.204 468.538 315.212 468.535 315.215C468.53 315.217 468.512 315.221 468.472 315.221C468.438 315.22 468.405 315.204 468.381 315.176C468.381 315.176 468.381 315.176 468.381 315.176L464.085 310.11L463.762 309.73L463.381 310.051C463.202 310.202 463.016 310.359 462.825 310.521C462.743 310.59 462.661 310.659 462.578 310.73L462.578 310.73C461.57 311.584 460.464 312.521 459.576 313.185L459.242 313.436L459.429 313.81L460.047 315.04C460.071 315.088 460.062 315.146 460.023 315.185C460.023 315.185 460.023 315.185 460.023 315.185L458.743 316.462C458.743 316.462 458.743 316.462 458.742 316.462C458.717 316.487 458.685 316.5 458.652 316.5C458.651 316.5 458.647 316.5 458.637 316.499C458.601 316.495 458.568 316.475 458.548 316.445L458.548 316.445L456.909 313.991L456.854 313.908L456.77 313.852L454.313 312.219C454.313 312.219 454.312 312.218 454.312 312.218C454.281 312.197 454.26 312.162 454.255 312.124C454.252 312.088 454.265 312.051 454.293 312.024C454.293 312.024 454.293 312.023 454.293 312.023L455.571 310.748C455.572 310.747 455.572 310.747 455.572 310.747C455.614 310.705 455.672 310.7 455.713 310.721L455.717 310.723L456.954 311.34L457.327 311.525L457.577 311.193C458.233 310.32 459.156 309.236 460 308.244L460.025 308.215C460.025 308.215 460.025 308.215 460.025 308.215C460.265 307.933 460.499 307.658 460.719 307.397L461.041 307.015L460.659 306.693L455.581 302.406L455.581 302.406L455.58 302.406C455.553 302.383 455.537 302.35 455.536 302.316L455.536 302.316C455.535 302.283 455.548 302.248 455.573 302.223C455.573 302.222 455.573 302.222 455.573 302.222L456.234 301.563C456.234 301.563 456.234 301.563 456.234 301.563C456.525 301.274 456.959 301.176 457.345 301.31L463.014 304.532L463.323 304.708L463.59 304.474C464.292 303.862 465.19 303.309 466.01 303.028C466.872 302.732 467.437 302.801 467.713 303.075C467.806 303.168 467.957 303.374 467.957 303.788C467.957 304.252 467.779 304.843 467.465 305.469C467.156 306.087 466.738 306.696 466.309 307.186Z" stroke="white"/>
<path d="M459.998 300.441L460.498 300.437C460.486 299.045 460.399 297.684 460.24 296.39L460.24 296.39C460.236 296.354 460.247 296.319 460.27 296.293L460.27 296.293L460.271 296.292C460.295 296.265 460.329 296.25 460.364 296.25H460.364H466.122C466.175 296.25 466.223 296.283 466.241 296.334L466.712 296.166M459.998 300.441L460.498 300.436C460.498 300.482 460.523 300.523 460.561 300.545C460.561 300.545 460.561 300.545 460.561 300.545L463.053 301.965C463.053 301.965 463.054 301.965 463.054 301.965C463.075 301.977 463.098 301.982 463.118 301.982C463.143 301.982 463.167 301.975 463.188 301.961C464.416 301.145 465.755 300.628 466.878 300.595L466.893 301.094M459.998 300.441C459.986 299.067 459.9 297.725 459.744 296.451L459.998 300.441ZM466.893 301.094L466.877 300.595C466.946 300.592 467 300.535 466.999 300.466C466.967 299.056 466.713 297.665 466.241 296.333L466.712 296.166M466.893 301.094C467.236 301.083 467.506 300.798 467.499 300.455C467.466 298.992 467.202 297.549 466.712 296.166M466.893 301.094C465.895 301.124 464.646 301.592 463.465 302.378C463.36 302.447 463.239 302.482 463.118 302.482C463.012 302.482 462.904 302.455 462.808 302.4L460.364 295.75H466.122C466.387 295.75 466.623 295.917 466.712 296.166" stroke="white"/>
<path d="M458.153 299.161L458.154 299.16C458.187 299.135 458.205 299.096 458.203 299.058L458.202 299.055L458.202 299.055C458.153 298.007 458.079 297.126 457.979 296.359L458.475 296.294M458.153 299.161L453.289 302.409M458.153 299.161C458.121 299.185 458.076 299.193 458.037 299.18L457.88 299.654L458.038 299.18C456.71 298.738 455.504 299.113 454.647 299.969C454.647 299.969 454.647 299.969 454.647 299.969C454.647 299.97 454.647 299.97 454.647 299.97L453.986 300.629M458.153 299.161L453.986 300.629M458.475 296.294L457.979 296.36C457.971 296.296 457.917 296.25 457.854 296.25H449.658C449.595 296.25 449.542 296.296 449.533 296.36C449.348 297.777 449.254 299.254 449.254 300.75C449.254 302.246 449.348 303.723 449.533 305.141L449.037 305.206M458.475 296.294C458.577 297.078 458.652 297.974 458.702 299.031L458.475 296.294ZM449.037 305.206L449.533 305.14C449.541 305.204 449.595 305.25 449.658 305.25H455.119C455.172 305.25 455.219 305.217 455.237 305.168C455.255 305.118 455.24 305.064 455.2 305.031L455.199 305.03L454.129 304.126L453.952 303.977V303.96C453.551 303.544 453.312 302.991 453.289 302.409M449.037 305.206C448.849 303.766 448.754 302.267 448.754 300.75C448.754 299.233 448.849 297.734 449.037 296.294L455.522 304.648C455.723 304.817 455.797 305.093 455.706 305.34C455.616 305.586 455.381 305.75 455.119 305.75H449.658C449.344 305.75 449.079 305.517 449.037 305.206ZM453.289 302.409C453.262 301.746 453.515 301.098 453.985 300.63M453.289 302.409C453.289 302.409 453.289 302.409 453.289 302.41L453.985 300.63M453.985 300.63L453.986 300.629M453.985 300.63L453.986 300.629" stroke="white"/>
<path d="M451.363 312.671L451.786 312.403C451.057 311.252 450.428 309.614 449.98 307.653L449.98 307.653L449.98 307.652C449.972 307.617 449.98 307.578 450.004 307.547C450.028 307.517 450.064 307.5 450.102 307.5H457.409C457.479 307.5 457.535 307.556 457.535 307.625C457.535 307.628 457.534 307.638 457.531 307.656C457.526 307.677 457.517 307.696 457.503 307.714C457.199 308.074 456.969 308.347 456.747 308.617L456.747 308.618C456.712 308.66 456.653 308.676 456.599 308.652L456.402 309.112L456.6 308.653C455.72 308.274 454.664 308.476 453.984 309.154L453.984 309.154L452.703 310.432L452.703 310.432C452.204 310.93 451.954 311.621 452.017 312.325C452.022 312.382 451.988 312.435 451.933 312.454C451.917 312.459 451.904 312.461 451.892 312.461C451.849 312.461 451.809 312.44 451.786 312.403L451.363 312.671ZM451.363 312.671C451.481 312.856 451.682 312.961 451.892 312.961C451.959 312.961 452.026 312.95 452.092 312.928L458.022 307.75C458.03 307.709 458.035 307.666 458.035 307.625C458.035 307.28 457.755 307 457.409 307H450.102C449.911 307 449.732 307.087 449.613 307.235C449.495 307.384 449.45 307.579 449.492 307.764C449.948 309.759 450.594 311.456 451.363 312.671Z" stroke="white"/>
</g>
<path d="M392.231 368.757H391.731V369.257V374.973V375.473H392.231H394.278H394.778V374.973V369.257V368.757H394.278H392.231ZM392.231 376.52H391.731V377.02V382.736V383.236H392.231H394.278H394.778V382.736V377.02V376.52H394.278H392.231ZM395.429 367.557V384.441H391.08V367.557H395.429Z" stroke="white"/>
<path d="M395.074 357.902H414.707V359.716H395.074V357.902Z" stroke="white"/>
<path d="M416.616 385.845C416.402 385.601 416.105 385.258 415.753 384.838C415.01 383.953 414.021 382.729 413.032 381.371C412.043 380.01 411.061 378.524 410.33 377.115C409.59 375.689 409.14 374.406 409.14 373.432C409.14 369.308 412.493 365.955 416.616 365.955C420.74 365.955 424.093 369.308 424.093 373.432C424.093 374.406 423.643 375.689 422.903 377.115C422.171 378.524 421.19 380.01 420.2 381.371C419.212 382.729 418.222 383.953 417.48 384.838C417.127 385.258 416.83 385.601 416.616 385.845ZM411.579 373.432C411.579 376.215 413.833 378.469 416.616 378.469C419.399 378.469 421.653 376.215 421.653 373.432C421.653 370.649 419.399 368.395 416.616 368.395C413.833 368.395 411.579 370.649 411.579 373.432Z" stroke="white"/>
<path d="M417.395 373.383H417.895V372.883V371.386C417.895 371.374 417.9 371.362 417.91 371.352C417.92 371.341 417.932 371.337 417.944 371.337C417.959 371.337 417.971 371.342 417.979 371.351C417.987 371.359 417.993 371.369 417.993 371.386V375.478C417.993 375.49 417.988 375.502 417.978 375.512C417.968 375.522 417.956 375.527 417.944 375.527C417.932 375.527 417.92 375.522 417.91 375.512C417.9 375.502 417.895 375.49 417.895 375.478V373.98V373.48H417.395H415.837H415.337V373.98V375.478C415.337 375.49 415.333 375.502 415.323 375.512C415.312 375.522 415.301 375.527 415.289 375.527C415.277 375.527 415.265 375.522 415.255 375.512C415.245 375.502 415.24 375.49 415.24 375.478V371.386C415.24 371.374 415.245 371.362 415.255 371.352C415.265 371.341 415.277 371.337 415.289 371.337C415.301 371.337 415.312 371.341 415.323 371.352C415.333 371.362 415.337 371.374 415.337 371.386V372.883V373.383H415.837H417.395Z" stroke="white"/>
<path d="M402.194 380.466H403.844V384.441H402.194V380.466Z" stroke="white"/>
<path d="M405.941 380.466H407.591V384.441H405.941V380.466Z" stroke="white"/>
<path d="M405.49 376.839V377.339H405.99H408.109C408.267 377.679 408.44 378.023 408.624 378.368H401.146C400.559 378.368 400.097 378.842 400.097 379.417V384.441H397.531V361.813H412.254V364.913C411.833 365.129 411.43 365.376 411.048 365.651V364.067V363.567H410.548H405.99H405.49V364.067V366.854V367.354H405.99H409.224C408.912 367.733 408.629 368.136 408.377 368.56H405.99H405.49V369.06V371.846V372.346H405.99H407.105C407.064 372.702 407.042 373.063 407.042 373.432C407.042 373.471 407.043 373.511 407.043 373.552H405.99H405.49V374.052V376.839ZM412.254 383.85V384.441H409.688V380.195C410.502 381.491 411.408 382.749 412.254 383.85ZM403.79 377.339H404.29V376.839V374.052V373.552H403.79H399.231H398.731V374.052V376.839V377.339H399.231H403.79ZM403.79 372.346H404.29V371.846V369.06V368.56H403.79H399.231H398.731V369.06V371.846V372.346H399.231H403.79ZM403.79 367.354H404.29V366.854V364.067V363.567H403.79H399.231H398.731V364.067V366.854V367.354H399.231H403.79Z" stroke="white"/>
<mask id="path-68-inside-1_531_2087" fill="white">
<path d="M410.549 366.854V366.695C410.494 366.745 410.434 366.794 410.379 366.854H410.549Z"/>
</mask>
<path d="M410.549 366.854V367.854H411.549V366.854H410.549ZM410.549 366.695H411.549V364.45L409.88 365.952L410.549 366.695ZM410.379 366.854L409.639 366.182L408.118 367.854H410.379V366.854ZM411.549 366.854V366.695H409.549V366.854H411.549ZM409.88 365.952C409.87 365.961 409.739 366.072 409.639 366.182L411.119 367.527C411.116 367.53 411.118 367.527 411.135 367.512C411.143 367.504 411.153 367.496 411.167 367.483C411.18 367.472 411.199 367.455 411.218 367.438L409.88 365.952ZM410.379 367.854H410.549V365.854H410.379V367.854Z" fill="white" mask="url(#path-68-inside-1_531_2087)"/>
<g clip-path="url(#clip3_531_2087)">
<path d="M499.062 261.25V261.043L498.916 260.896L493.957 255.937C493.834 255.814 493.699 255.604 493.595 255.353C493.491 255.103 493.438 254.86 493.438 254.687V243.437C493.438 242.682 494.057 242.062 494.812 242.062C495.568 242.062 496.188 242.682 496.188 243.437V248.45C495.971 248.596 495.763 248.767 495.573 248.963C494.759 249.759 494.313 250.823 494.313 251.957C494.303 253.094 494.75 254.168 495.545 254.964C495.545 254.965 495.546 254.965 495.547 254.966L497.867 257.334C497.867 257.334 497.867 257.334 497.868 257.334C498.422 257.903 499.342 257.896 499.9 257.338L500.559 256.679L500.909 256.329L500.563 255.976L497.598 252.95L497.598 252.95L497.594 252.946C497.047 252.4 497.051 251.537 497.592 251.003L497.594 251.001C497.865 250.729 498.216 250.593 498.562 250.593C498.909 250.593 499.26 250.729 499.531 251.001L499.531 251.001L499.539 251.008L504.362 255.627L504.362 255.627C504.672 255.924 504.977 256.395 505.205 256.929C505.433 257.463 505.562 258.009 505.562 258.437V263.125C505.562 263.364 505.364 263.562 505.125 263.562H499.5C499.261 263.562 499.062 263.364 499.062 263.125V261.25ZM509.638 255.627L509.638 255.627L514.461 251.008L514.461 251.008L514.469 251.001C514.741 250.729 515.091 250.593 515.438 250.593C515.784 250.593 516.134 250.729 516.406 251.001L516.408 251.003C516.949 251.537 516.953 252.4 516.406 252.946L516.406 252.946L516.402 252.95L513.438 255.976L513.092 256.329L513.441 256.679L514.1 257.338L514.1 257.338C514.657 257.896 515.578 257.903 516.132 257.334C516.132 257.334 516.133 257.333 516.133 257.333L518.453 254.966C518.454 254.965 518.455 254.965 518.455 254.964C519.25 254.168 519.697 253.094 519.688 251.957C519.687 250.823 519.241 249.76 518.427 248.963C518.238 248.767 518.029 248.596 517.812 248.45V243.437C517.812 242.682 518.433 242.062 519.188 242.062C519.942 242.062 520.562 242.682 520.562 243.437V254.687C520.562 254.86 520.509 255.102 520.405 255.353C520.301 255.604 520.166 255.814 520.043 255.937L515.084 260.896L514.938 261.043V261.25V263.125C514.938 263.364 514.739 263.562 514.5 263.562H508.875C508.636 263.562 508.438 263.364 508.438 263.125V258.437C508.438 258.009 508.567 257.463 508.795 256.929C509.023 256.395 509.328 255.924 509.638 255.627ZM506.68 237.56L507 237.826L507.32 237.56C508.151 236.868 509.352 236.437 510.617 236.437C511.702 236.437 512.657 236.754 513.394 237.331C514.442 238.153 514.886 239.251 514.94 240.432C514.995 241.626 514.647 242.899 514.105 243.999C513.528 245.168 512.469 246.57 511.208 247.887C509.949 249.202 508.519 250.402 507.225 251.178L507.225 251.178C507.156 251.22 507.078 251.24 507 251.24C506.922 251.24 506.844 251.22 506.775 251.178L506.775 251.178C505.48 250.401 504.05 249.202 502.791 247.886C501.53 246.569 500.471 245.167 499.895 243.999L499.895 243.999C499.353 242.899 499.005 241.626 499.06 240.432C499.114 239.251 499.558 238.153 500.606 237.332L500.606 237.332C501.343 236.754 502.297 236.437 503.382 236.437C504.647 236.437 505.849 236.868 506.68 237.56ZM508.438 242V240.625C508.438 239.831 507.794 239.187 507 239.187C506.206 239.187 505.562 239.831 505.562 240.625V242H504.188C503.394 242 502.75 242.644 502.75 243.437C502.75 244.231 503.394 244.875 504.188 244.875H505.562V246.25C505.562 247.044 506.206 247.687 507 247.687C507.794 247.687 508.438 247.044 508.438 246.25V244.875H509.812C510.607 244.875 511.25 244.231 511.25 243.437C511.25 242.644 510.607 242 509.812 242H508.438Z" stroke="white"/>
</g>
<defs>
<linearGradient id="paint0_linear_531_2087" x1="280" y1="0" x2="280" y2="433" gradientUnits="userSpaceOnUse">
<stop stop-color="#242433"/>
<stop offset="0.5" stop-color="#1F274D"/>
<stop offset="1" stop-color="#242433"/>
</linearGradient>
<linearGradient id="paint1_linear_531_2087" x1="104.39" y1="219.405" x2="104.39" y2="203.313" gradientUnits="userSpaceOnUse">
<stop stop-color="#F96B31"/>
<stop offset="1" stop-color="#F9893D"/>
</linearGradient>
<linearGradient id="paint2_linear_531_2087" x1="84.2316" y1="219.405" x2="84.2316" y2="203.313" gradientUnits="userSpaceOnUse">
<stop stop-color="#F96B31"/>
<stop offset="1" stop-color="#F9893D"/>
</linearGradient>
<linearGradient id="paint3_linear_531_2087" x1="94.3101" y1="219.405" x2="94.3101" y2="203.314" gradientUnits="userSpaceOnUse">
<stop stop-color="#F96B31"/>
<stop offset="1" stop-color="#F9893D"/>
</linearGradient>
<linearGradient id="paint4_linear_531_2087" x1="94.3098" y1="219.405" x2="94.3098" y2="203.314" gradientUnits="userSpaceOnUse">
<stop stop-color="#F96B31"/>
<stop offset="1" stop-color="#F9893D"/>
</linearGradient>
<clipPath id="clip0_531_2087">
<rect width="30" height="32" fill="white" transform="translate(359 49)"/>
</clipPath>
<clipPath id="clip1_531_2087">
<rect width="30" height="30" fill="white" transform="translate(377 193)"/>
</clipPath>
<clipPath id="clip2_531_2087">
<rect width="30" height="30" fill="white" transform="translate(440 287)"/>
</clipPath>
<clipPath id="clip3_531_2087">
<rect width="30" height="30" fill="white" transform="translate(492 235)"/>
</clipPath>
</defs>
</svg>
